<svg xmlns="http://www.w3.org/2000/svg" width="111" height="111" fill="none"><path fill="#fff" d="M0 0h111v111H0z"/><path fill="red" d="M79.078 8.078a53.82 53.82 0 0 0-6.263-2.866l.41-1.086a54.022 54.022 0 0 1 6.407 2.932l-.554 1.02ZM4.244 70.768a65.79 65.79 0 0 1-.705-2.239l1.115-.327c.215.737.443 1.47.693 2.19l-1.103.377ZM54.4 106.743c-8.287 0-16.269-1.901-23.73-5.643C20.29 95.894 12.088 87.652 6.95 77.276l1.041-.516c5.027 10.15 13.049 18.21 23.203 23.303 7.294 3.658 15.105 5.515 23.208 5.515 19.76 0 37.537-10.964 46.395-28.613 3.658-7.3 5.515-15.11 5.515-23.208 0-18.18-9.667-35.247-25.232-44.543l.593-.997c15.914 9.5 25.802 26.95 25.802 45.54 0 8.287-1.895 16.269-5.637 23.73-9.057 18.042-27.232 29.255-47.436 29.255Z"/><path fill="red" d="M54.444 95.234c-22.898 0-41.522-18.63-41.522-41.521 0-22.893 18.624-41.522 41.522-41.522 22.892 0 41.522 18.63 41.522 41.521 0 22.892-18.63 41.522-41.522 41.522Z"/><path fill="red" d="M54.445 101.922a48.535 48.535 0 0 1-20.254-4.462l1.957-4.218a43.837 43.837 0 0 0 18.297 4.03c24.024 0 43.562-19.545 43.562-43.563 0-24.022-19.538-43.561-43.562-43.561l-.05-4.65h.05c26.584 0 48.213 21.628 48.213 48.211 0 26.584-21.629 48.213-48.213 48.213Z"/><path fill="#fff" d="M61.502 68.781v1.358h-10.46v-1.358H27.96c0 1.935 1.126 2.438 2.508 2.438h51.602c1.382 0 2.508-.502 2.508-2.438H61.502ZM76.533 37.426H36.007a3.437 3.437 0 0 0-3.433 3.432v23.53c0 1.89 1.54 3.432 3.433 3.432H76.53a3.437 3.437 0 0 0 3.432-3.432V40.859a3.435 3.435 0 0 0-3.43-3.433Z"/><path fill="red" d="M64.96 52.255c0 .775-.405 1.44-.992 1.803L53.183 60.7c-1.34.776-2.877-.211-2.91-1.835V45.628c.028-1.221.895-2.07 1.891-2.093.335-.01.684.078 1.02.27l10.784 6.642c.587.362.991 1.028.991 1.808Z"/></svg>