<svg width="111" height="111" viewBox="0 0 111 111" fill="none" xmlns="http://www.w3.org/2000/svg">
<mask id="mask0_3703_2878" style="mask-type:alpha" maskUnits="userSpaceOnUse" x="0" y="0" width="111" height="111">
<rect width="111" height="111" fill="#D9D9D9"/>
</mask>
<g mask="url(#mask0_3703_2878)">
</g>
<g clip-path="url(#clip0_3703_2878)">
<path d="M54.6369 110.306C45.7878 110.306 37.2623 108.279 29.2919 104.278C18.1996 98.7202 9.44297 89.9173 3.95464 78.8327L5.06464 78.2854C10.4373 89.1234 19.0013 97.7336 29.8469 103.176C37.6401 107.084 45.9805 109.065 54.6369 109.065C75.7423 109.065 94.728 97.3559 104.194 78.5013C108.102 70.7004 110.083 62.36 110.083 53.7113C110.083 34.294 99.7538 16.0638 83.1346 6.13544L83.7667 5.07169C100.764 15.2159 111.324 33.8546 111.324 53.7113C111.324 62.5604 109.297 71.0859 105.304 79.0563C95.6298 98.3271 76.2203 110.306 54.6369 110.306ZM1.06401 71.8798C0.794219 71.0859 0.547552 70.2842 0.308594 69.4902L1.49568 69.1434C1.72693 69.9296 1.96589 70.7159 2.23568 71.479L1.06401 71.8798ZM80.9994 4.91753C80.5138 4.65544 80.0205 4.40107 79.5271 4.1544C77.8313 3.29878 76.0738 2.53565 74.3086 1.85732L74.748 0.693359C76.5517 1.3794 78.3478 2.16565 80.0821 3.03669C80.5909 3.29107 81.0919 3.56086 81.593 3.82294L80.9994 4.91753Z" fill="#ED2224"/>
<path d="M54.6819 98.0112C30.2233 98.0112 10.3281 78.116 10.3281 53.6575C10.3281 29.1989 30.2233 9.30371 54.6819 9.30371C79.1327 9.30371 99.0356 29.1989 99.0356 53.6575C99.0356 78.116 79.1404 98.0112 54.6819 98.0112Z" fill="#ED2224"/>
<path d="M54.6842 105.157C47.2688 105.157 39.7917 103.507 33.0469 100.393L35.1358 95.8839C41.2254 98.7052 47.9779 100.185 54.6765 100.185C80.3375 100.185 101.204 79.311 101.204 53.6577C101.204 27.9966 80.3375 7.13018 54.6765 7.13018L54.6225 2.16602H54.6765C83.074 2.16602 106.176 25.2679 106.176 53.6654C106.176 82.0629 83.0817 105.157 54.6842 105.157Z" fill="#ED2224"/>
<path d="M54.5197 110.306C45.6706 110.306 37.1452 108.279 29.1747 104.278C18.0824 98.7202 9.32578 89.9173 3.83745 78.8327L4.94745 78.2854C10.3202 89.1234 18.8841 97.7336 29.7297 103.176C37.5229 107.084 45.8633 109.065 54.5197 109.065C75.6252 109.065 94.6108 97.3559 104.077 78.5013C107.985 70.7004 109.966 62.36 109.966 53.7113C109.966 34.294 99.6366 16.0638 83.0174 6.13544L83.6495 5.07169C100.646 15.2159 111.207 33.8546 111.207 53.7113C111.207 62.5604 109.18 71.0859 105.187 79.0563C95.5126 98.3271 76.1031 110.306 54.5197 110.306ZM0.946823 71.8798C0.677031 71.0859 0.430365 70.2842 0.191406 69.4902L1.37849 69.1434C1.60974 69.9296 1.8487 70.7159 2.11849 71.479L0.946823 71.8798ZM80.8745 4.91753C80.3889 4.65544 79.8956 4.40107 79.4022 4.1544C77.7064 3.29878 75.9489 2.53565 74.1837 1.85732L74.6231 0.693359C76.4268 1.3794 78.2229 2.16565 79.9572 3.03669C80.466 3.29107 80.967 3.56086 81.4681 3.82294L80.8745 4.91753Z" fill="#ED2224"/>
<path d="M54.5647 98.0112C30.1061 98.0112 10.2109 78.116 10.2109 53.6575C10.2109 29.1989 30.1061 9.30371 54.5647 9.30371C79.0155 9.30371 98.9184 29.1989 98.9184 53.6575C98.9184 78.116 79.0155 98.0112 54.5647 98.0112Z" fill="#ED2224"/>
<path d="M54.567 105.157C47.1516 105.157 39.6745 103.507 32.9297 100.393L35.0186 95.8839C41.1082 98.7052 47.8607 100.185 54.5593 100.185C80.2203 100.185 101.087 79.311 101.087 53.6577C101.087 27.9966 80.2203 7.13018 54.5593 7.13018L54.5053 2.16602H54.5593C82.9568 2.16602 106.059 25.2679 106.059 53.6654C106.059 82.0629 82.9645 105.157 54.567 105.157Z" fill="#ED2224"/>
<path d="M55.5777 40.6691C57.5105 40.6691 59.0773 39.1023 59.0773 37.1695C59.0773 35.2367 57.5105 33.6699 55.5777 33.6699C53.6449 33.6699 52.0781 35.2367 52.0781 37.1695C52.0781 39.1023 53.6449 40.6691 55.5777 40.6691Z" fill="white"/>
<path d="M60.7733 43.4212C59.4398 42.0954 57.6052 41.2783 55.5856 41.2783C53.5429 41.2783 51.7006 42.1108 50.3671 43.4521C49.9971 43.8221 49.7812 44.3308 49.7812 44.855C49.7812 45.3946 50.2206 45.8417 50.7679 45.8417H60.3802C60.9198 45.8417 61.3669 45.4023 61.3669 44.855V44.8319C61.3592 44.3 61.1433 43.7912 60.7733 43.4212Z" fill="white"/>
<path d="M44.9644 56.4562C46.8972 56.4562 48.464 54.8894 48.464 52.9566C48.464 51.0238 46.8972 49.457 44.9644 49.457C43.0317 49.457 41.4648 51.0238 41.4648 52.9566C41.4648 54.8894 43.0317 56.4562 44.9644 56.4562Z" fill="white"/>
<path d="M50.1601 59.2083C48.8265 57.8825 46.9919 57.0654 44.9723 57.0654C42.9296 57.0654 41.0873 57.8979 39.7538 59.2392C39.3838 59.6092 39.168 60.1179 39.168 60.6421C39.168 61.1817 39.6073 61.6288 40.1546 61.6288H49.7669C50.3065 61.6288 50.7536 61.1894 50.7536 60.6421V60.619C50.7459 60.0871 50.5301 59.5783 50.1601 59.2083Z" fill="white"/>
<path d="M66.191 56.4562C68.1238 56.4562 69.6906 54.8894 69.6906 52.9566C69.6906 51.0238 68.1238 49.457 66.191 49.457C64.2582 49.457 62.6914 51.0238 62.6914 52.9566C62.6914 54.8894 64.2582 56.4562 66.191 56.4562Z" fill="white"/>
<path d="M71.3866 59.2083C70.0531 57.8825 68.2185 57.0654 66.1989 57.0654C64.1562 57.0654 62.3139 57.8979 60.9804 59.2392C60.6104 59.6092 60.3945 60.1179 60.3945 60.6421C60.3945 61.1817 60.8339 61.6288 61.3812 61.6288H70.9935C71.5331 61.6288 71.9802 61.1894 71.9802 60.6421V60.619C71.9724 60.0871 71.7643 59.5783 71.3866 59.2083Z" fill="white"/>
<path d="M34.2886 72.1652C36.2214 72.1652 37.7882 70.5984 37.7882 68.6656C37.7882 66.7328 36.2214 65.166 34.2886 65.166C32.3559 65.166 30.7891 66.7328 30.7891 68.6656C30.7891 70.5984 32.3559 72.1652 34.2886 72.1652Z" fill="white"/>
<path d="M39.4843 74.9173C38.1507 73.5915 36.3161 72.7744 34.2966 72.7744C32.2539 72.7744 30.4116 73.6069 29.078 74.9482C28.708 75.3182 28.4922 75.8269 28.4922 76.3511C28.4922 76.8907 28.9316 77.3377 29.4789 77.3377H39.0911C39.6307 77.3377 40.0778 76.8984 40.0778 76.3511V76.3279C40.0778 75.7961 39.862 75.2873 39.4843 74.9173Z" fill="white"/>
<path d="M55.4761 72.1652C57.4089 72.1652 58.9757 70.5984 58.9757 68.6656C58.9757 66.7328 57.4089 65.166 55.4761 65.166C53.5434 65.166 51.9766 66.7328 51.9766 68.6656C51.9766 70.5984 53.5434 72.1652 55.4761 72.1652Z" fill="white"/>
<path d="M60.6718 74.9173C59.3382 73.5915 57.5037 72.7744 55.4841 72.7744C53.4414 72.7744 51.5991 73.6069 50.2655 74.9482C49.8955 75.3182 49.6797 75.8269 49.6797 76.3511C49.6797 76.8907 50.1191 77.3377 50.6664 77.3377H60.2786C60.8182 77.3377 61.2653 76.8984 61.2653 76.3511V76.3279C61.2576 75.7961 61.0495 75.2873 60.6718 74.9173Z" fill="white"/>
<path d="M76.7222 72.1652C78.655 72.1652 80.2218 70.5984 80.2218 68.6656C80.2218 66.7328 78.655 65.166 76.7222 65.166C74.7895 65.166 73.2227 66.7328 73.2227 68.6656C73.2227 70.5984 74.7895 72.1652 76.7222 72.1652Z" fill="white"/>
<path d="M81.9179 74.9173C80.5843 73.5915 78.7497 72.7744 76.7302 72.7744C74.6874 72.7744 72.8452 73.6069 71.5116 74.9482C71.1416 75.3182 70.9258 75.8269 70.9258 76.3511C70.9258 76.8907 71.3652 77.3377 71.9124 77.3377H81.5247C82.0643 77.3377 82.5114 76.8984 82.5114 76.3511V76.3279C82.5037 75.7961 82.2956 75.295 81.9179 74.9173Z" fill="white"/>
<path d="M55.5698 48.0918C55.2538 48.0918 55.0071 48.3385 55.0071 48.6545V53.2255L51.1684 55.7153C50.9063 55.8849 50.8369 56.2318 51.0065 56.4939C51.1144 56.6558 51.2994 56.756 51.4844 56.756C51.5923 56.756 51.7003 56.7251 51.785 56.6712L55.5698 54.2122L59.3546 56.6635C59.4548 56.7251 59.5628 56.7483 59.6553 56.7483C59.8403 56.7483 60.0253 56.6635 60.1332 56.4862C60.3028 56.2241 60.2334 55.8695 59.9713 55.7076L56.1403 53.2178V48.6468C56.1403 48.3385 55.8859 48.0918 55.5698 48.0918Z" fill="white"/>
<path d="M70.4908 71.4175L66.6521 68.9277V64.3567C66.6521 64.0406 66.4054 63.7939 66.0894 63.7939C65.7733 63.7939 65.5267 64.0406 65.5267 64.3567V68.9277L61.6879 71.4175C61.4258 71.5871 61.3565 71.9339 61.526 72.196C61.634 72.3579 61.819 72.4581 62.004 72.4581C62.1119 72.4581 62.2198 72.4273 62.3046 72.3733L66.0894 69.9144L69.8742 72.3733C69.9744 72.435 70.0823 72.4581 70.1748 72.4581C70.3598 72.4581 70.5448 72.3733 70.6527 72.196C70.8223 71.9339 70.7452 71.5794 70.4908 71.4175Z" fill="white"/>
<path d="M49.4557 71.4175L45.6169 68.9277V64.3567C45.6169 64.0406 45.3703 63.7939 45.0542 63.7939C44.7382 63.7939 44.4915 64.0406 44.4915 64.3567V68.9277L40.6528 71.4175C40.3907 71.5871 40.3213 71.9339 40.4909 72.196C40.5988 72.3579 40.7838 72.4581 40.9688 72.4581C41.0767 72.4581 41.1846 72.4273 41.2694 72.3733L45.0542 69.9144L48.839 72.3733C48.9392 72.435 49.0471 72.4581 49.1396 72.4581C49.3246 72.4581 49.5096 72.3733 49.6175 72.196C49.7871 71.9339 49.71 71.5794 49.4557 71.4175Z" fill="white"/>
</g>
<defs>
<clipPath id="clip0_3703_2878">
<rect width="111" height="111" fill="white"/>
</clipPath>
</defs>
</svg>
