<svg width="111" height="111" viewBox="0 0 111 111" fill="none" xmlns="http://www.w3.org/2000/svg">
<mask id="mask0_3703_2873" style="mask-type:alpha" maskUnits="userSpaceOnUse" x="0" y="0" width="111" height="111">
<rect width="111" height="111" fill="white"/>
</mask>
<g mask="url(#mask0_3703_2873)">
<path d="M54.336 110.721C45.4869 110.721 36.9615 108.694 28.991 104.693C17.8987 99.1353 9.14208 90.3324 3.65375 79.2478L4.76375 78.7005C10.1365 89.5384 18.7004 98.1486 29.546 103.591C37.3392 107.499 45.6796 109.48 54.336 109.48C75.4415 109.48 94.4271 97.7709 103.893 78.9163C107.801 71.1155 109.782 62.7751 109.782 54.1263C109.782 34.709 99.4529 16.4788 82.8337 6.55048L83.4658 5.48673C100.463 15.6309 111.023 34.2696 111.023 54.1263C111.023 62.9755 108.996 71.5009 105.003 79.4713C95.329 98.7421 75.9117 110.721 54.336 110.721ZM0.755417 72.2949C0.485625 71.5009 0.238958 70.6992 0 69.9053L1.18708 69.5584C1.41833 70.3446 1.65729 71.1309 1.92708 71.894L0.755417 72.2949ZM80.6908 5.33257C80.2052 5.07048 79.7119 4.81611 79.2185 4.56944C77.5227 3.71381 75.7652 2.95069 74 2.27236L74.4394 1.1084C76.2431 1.79444 78.0392 2.58069 79.7735 3.45173C80.2823 3.70611 80.7833 3.9759 81.2844 4.23798L80.6908 5.33257Z" fill="#ED2224"/>
<path d="M54.3811 98.4264C29.9226 98.4264 10.0273 78.5311 10.0273 54.0726C10.0273 29.6141 29.9226 9.72656 54.3811 9.72656C78.8319 9.72656 98.7348 29.6218 98.7348 54.0803C98.7348 78.5389 78.8319 98.4264 54.3811 98.4264Z" fill="#ED2224"/>
<path d="M54.3834 105.571C46.968 105.571 39.4909 103.922 32.7461 100.807L34.8351 96.298C40.9246 99.1192 47.6771 100.599 54.3757 100.599C80.0367 100.599 100.903 79.7251 100.903 54.0717C100.903 28.4107 80.0367 7.54424 54.3757 7.54424L54.3217 2.58008H54.3757C82.7732 2.58008 105.875 25.682 105.875 54.0795C105.875 82.477 82.7809 105.571 54.3834 105.571Z" fill="#ED2224"/>
<path d="M67.6448 36.6296H69.1479C69.6181 39.3738 71.9923 41.4627 74.8675 41.4627C78.0819 41.4627 80.6873 38.8573 80.6873 35.6429V35.4194C80.6873 32.205 78.0819 29.5996 74.8675 29.5996C71.9923 29.5996 69.6181 31.6886 69.1479 34.4327H67.6448C63.8292 34.4327 60.7304 37.5854 60.7304 41.4627V54.8213H50.5015C49.9619 49.0092 45.1596 44.4613 39.309 44.4613C33.096 44.4613 28.0625 49.595 28.0625 55.9236C28.0625 62.2521 33.096 67.3859 39.309 67.3859C45.1596 67.3859 49.9542 62.8379 50.5015 57.0259H60.7304V70.3844C60.7304 74.2617 63.8292 77.4067 67.6448 77.4067H69.1479C69.6181 80.1509 71.9923 82.2398 74.8675 82.2398C78.0819 82.2398 80.6873 79.6344 80.6873 76.42V76.1888C80.6873 72.9744 78.0819 70.369 74.8675 70.369C71.9923 70.369 69.6181 72.4579 69.1479 75.2021H67.6448C65.0394 75.2021 62.9196 73.0361 62.9196 70.369V57.0104H69.1479C69.6181 59.7546 71.9923 61.8436 74.8675 61.8436C78.0819 61.8436 80.6873 59.2381 80.6873 56.0238V55.8002C80.6873 52.5859 78.0819 49.9804 74.8675 49.9804C71.9923 49.9804 69.6181 52.0694 69.1479 54.8136H62.9196V41.4627C62.9273 38.7957 65.0471 36.6296 67.6448 36.6296Z" fill="white"/>
</g>
</svg>
