<svg width="111" height="111" viewBox="0 0 111 111" fill="none" xmlns="http://www.w3.org/2000/svg">
<mask id="mask0_3703_2880" style="mask-type:alpha" maskUnits="userSpaceOnUse" x="0" y="0" width="111" height="111">
<rect width="111" height="111" fill="#D9D9D9"/>
</mask>
<g mask="url(#mask0_3703_2880)">
</g>
<g clip-path="url(#clip0_3703_2880)">
<path d="M54.3165 110.306C45.4673 110.306 36.9419 108.279 28.9715 104.278C17.8792 98.7202 9.12255 89.9173 3.63422 78.8327L4.74422 78.2854C10.1169 89.1234 18.6809 97.7336 29.5265 103.176C37.3196 107.084 45.66 109.065 54.3165 109.065C75.4219 109.065 94.4075 97.3559 103.873 78.5013C107.782 70.7004 109.763 62.36 109.763 53.7113C109.763 34.294 99.4334 16.0638 82.8142 6.13544L83.4463 5.07169C100.443 15.2159 111.004 33.8546 111.004 53.7113C111.004 62.5604 108.976 71.0859 104.983 79.0563C95.3094 98.3271 75.8921 110.306 54.3165 110.306ZM0.735885 71.8798C0.466094 71.0859 0.219427 70.2842 -0.0195312 69.4902L1.16755 69.1434C1.3988 69.9296 1.63776 70.7159 1.90755 71.479L0.735885 71.8798ZM80.6713 4.91753C80.1857 4.65544 79.6923 4.40107 79.199 4.1544C77.5032 3.29878 75.7457 2.53565 73.9805 1.85732L74.4198 0.693359C76.2236 1.3794 78.0196 2.16565 79.754 3.03669C80.2628 3.29107 80.7638 3.56086 81.2648 3.82294L80.6713 4.91753Z" fill="#ED2224"/>
<path d="M54.3655 98.0113C29.9069 98.0113 10.0117 78.1161 10.0117 53.6576C10.0117 29.199 29.9069 9.31152 54.3655 9.31152C78.8163 9.31152 98.7192 29.2067 98.7192 53.6653C98.7192 78.1238 78.8163 98.0113 54.3655 98.0113Z" fill="#ED2224"/>
<path d="M54.3639 105.157C46.9484 105.157 39.4714 103.507 32.7266 100.393L34.8155 95.8839C40.9051 98.7052 47.6576 100.185 54.3561 100.185C80.0172 100.185 100.884 79.311 100.884 53.6577C100.884 27.9966 80.0172 7.13018 54.3561 7.13018L54.3022 2.16602H54.3561C82.7536 2.16602 105.856 25.2679 105.856 53.6654C105.856 82.0629 82.7614 105.157 54.3639 105.157Z" fill="#ED2224"/>
<path d="M43.9121 31.9659C43.1644 30.7171 41.3298 30.7171 40.5821 31.9659L30.1759 50.0188C29.4282 51.2675 30.3455 52.8477 31.8409 52.8477H52.6457C54.1411 52.8477 55.0584 51.2675 54.3107 50.0188L43.9121 31.9659Z" fill="white"/>
<path d="M42.4581 79.9738C48.8013 79.9738 53.9435 74.8316 53.9435 68.4883C53.9435 62.1451 48.8013 57.0029 42.4581 57.0029C36.1149 57.0029 30.9727 62.1451 30.9727 68.4883C30.9727 74.8316 36.1149 79.9738 42.4581 79.9738Z" fill="white"/>
<path d="M80.8215 41.5163L75.495 32.3665C75.1635 31.7807 74.5777 31.4492 73.9148 31.4492H63.3467C62.6837 31.4492 62.0979 31.7807 61.7665 32.3665L56.44 41.5163C56.1085 42.1021 56.1085 42.7651 56.44 43.2661L61.7665 52.4159C62.0979 53.0017 62.6837 53.3332 63.3467 53.3332H73.9996C74.6625 53.3332 75.2483 53.0017 75.5798 52.4159L80.9062 43.2661C81.1529 42.7651 81.1529 42.0944 80.8215 41.5163Z" fill="white"/>
<path d="M75.5086 79.2175H62.8746C60.1459 79.2175 57.9336 77.0052 57.9336 74.2765V63.8317C57.9336 61.1029 60.1459 58.8906 62.8746 58.8906H75.5086C78.2373 58.8906 80.4496 61.1029 80.4496 63.8317V74.2687C80.4496 76.9975 78.2373 79.2175 75.5086 79.2175Z" fill="white"/>
</g>
<defs>
<clipPath id="clip0_3703_2880">
<rect width="111" height="111" fill="white"/>
</clipPath>
</defs>
</svg>
