<svg width="111" height="111" viewBox="0 0 111 111" fill="none" xmlns="http://www.w3.org/2000/svg">
<g clip-path="url(#clip0_3703_2582)">
<path d="M82.2792 8.43295C82.2792 8.43295 82.1867 8.37899 82.0017 8.26337C81.8167 8.15545 81.5546 7.97045 81.1769 7.80857C80.4369 7.45399 79.3423 6.92212 77.9548 6.2592C77.608 6.08962 77.2457 5.92003 76.8603 5.73503C76.4671 5.57316 76.0432 5.43441 75.6115 5.26483C74.7405 4.94108 73.8001 4.60191 72.7903 4.23191C71.7959 3.81566 70.6782 3.58441 69.5142 3.27608C68.9284 3.12962 68.3348 2.97545 67.7259 2.82128C67.1169 2.66712 66.4926 2.48983 65.8373 2.41274C60.6573 1.39524 54.429 1.13316 47.9 2.03503C41.3711 2.93691 34.5723 5.19545 28.4905 8.74128C22.3932 12.2563 17.0436 17.0046 12.9736 22.1846C12.4803 22.8475 11.9869 23.5027 11.5013 24.1502C11.0234 24.7977 10.5223 25.4298 10.1292 26.1236C9.31213 27.4879 8.47193 28.7984 7.73963 30.1165C7.08443 31.4809 6.44463 32.8067 5.82797 34.0863C5.23443 35.3813 4.83359 36.6994 4.36338 37.9327C4.13984 38.5571 3.90088 39.1507 3.71588 39.7519C3.56172 40.3609 3.40755 40.9621 3.25338 41.548C2.96047 42.7119 2.67526 43.8219 2.41318 44.8548C2.08943 46.9746 1.7888 48.8246 1.58838 50.3509C1.43422 53.4265 1.34172 55.1763 1.34172 55.1763C1.3263 55.4846 1.07963 55.739 0.77901 55.739C0.486093 55.739 0.254843 55.4846 0.27026 55.1686C0.27026 55.1686 0.36276 53.3802 0.516926 50.2507C0.717343 48.6936 1.02568 46.8127 1.35713 44.6544C1.62693 43.5907 1.91213 42.4652 2.21276 41.2782C2.36693 40.6846 2.52109 40.0757 2.68297 39.4513C2.87568 38.8346 3.12234 38.2257 3.34588 37.5859C3.8238 36.3294 4.24005 34.9882 4.8413 33.6623C5.47338 32.3596 6.12088 31.0029 6.79151 29.6154C7.53922 28.2742 8.39484 26.9329 9.22734 25.5454C9.62047 24.8363 10.1292 24.1965 10.6226 23.5336C11.1159 22.8707 11.6169 22.2077 12.118 21.5294C16.2728 16.2492 21.7226 11.4007 27.9432 7.81628C34.1484 4.20878 41.0859 1.90399 47.7382 0.978992C54.3982 0.0694088 60.7421 0.323784 66.0223 1.36441C66.693 1.44149 67.3251 1.61878 67.9494 1.78066C68.5738 1.94253 69.1828 2.0967 69.7763 2.25087C70.9634 2.56691 72.1042 2.80587 73.114 3.22212C74.1392 3.59983 75.1028 3.95441 75.9892 4.27816C76.4286 4.44003 76.8603 4.58649 77.2611 4.75608C77.6542 4.94878 78.0242 5.12608 78.3788 5.28795C79.7894 5.97399 80.9071 6.50587 81.6626 6.87587C82.048 7.04545 82.3101 7.23816 82.5028 7.34607C82.6878 7.45399 82.788 7.51566 82.788 7.51566C83.0578 7.67753 83.158 8.0167 83.0115 8.27107C82.8728 8.51774 82.5413 8.59482 82.2792 8.43295Z" fill="#606161"/>
<path d="M79.7191 12.958C79.7191 12.958 79.6343 12.904 79.4724 12.8038C79.3028 12.7113 79.0716 12.5418 78.7324 12.3876C78.0618 12.0638 77.0751 11.5936 75.8186 10.9924C75.5103 10.8382 75.1789 10.684 74.832 10.5145C74.4774 10.368 74.092 10.2447 73.6989 10.0982C72.9126 9.8053 72.057 9.49697 71.1551 9.16551C70.2609 8.7878 69.2434 8.58738 68.1951 8.30217C67.6709 8.17113 67.1314 8.02467 66.5764 7.88592C66.0214 7.73947 65.4586 7.57759 64.8651 7.51592C60.1784 6.58322 54.5359 6.35967 48.6314 7.16905C42.7268 7.98613 36.5909 10.0211 31.0872 13.2201C25.568 16.3959 20.7349 20.6972 17.0503 25.3838C16.6032 25.9851 16.1639 26.5786 15.7245 27.1645C15.2851 27.7503 14.8303 28.3207 14.4834 28.9451C13.7511 30.1784 12.988 31.3578 12.3174 32.5526C11.7239 33.7859 11.1457 34.9807 10.5907 36.137C10.0511 37.3086 9.69656 38.5034 9.2649 39.6134C9.06448 40.1761 8.84094 40.7157 8.67135 41.263C8.5326 41.818 8.39385 42.3499 8.26281 42.8818C7.99302 43.9378 7.73865 44.9322 7.49198 45.8726C7.20677 47.792 6.9524 49.4647 6.75198 50.8368C6.61323 53.6195 6.53615 55.2151 6.53615 55.2151C6.52844 55.3538 6.4051 55.4695 6.25865 55.4695C6.11219 55.4695 5.99656 55.3538 6.00427 55.2074C6.00427 55.2074 6.08906 53.604 6.22781 50.7905C6.41281 49.3953 6.69802 47.7072 6.97552 45.7724C7.21448 44.8243 7.47656 43.8145 7.74635 42.7507C7.8851 42.2188 8.02385 41.6716 8.1626 41.1088C8.33219 40.5538 8.55573 40.0143 8.75615 39.4438C9.19552 38.3261 9.5501 37.1159 10.0974 35.9288C10.6601 34.7572 11.2459 33.547 11.8472 32.2982C12.5178 31.0957 13.2886 29.9009 14.0364 28.6522C14.3832 28.0124 14.8457 27.442 15.2928 26.8484C15.7399 26.2549 16.1793 25.6536 16.6341 25.0524C20.3572 20.3118 25.252 15.9643 30.8251 12.7576C36.3828 9.52009 42.5957 7.46197 48.562 6.63717C54.5359 5.82009 60.2324 6.04363 64.9653 6.97634C65.5666 7.04572 66.137 7.20759 66.692 7.35405C67.2547 7.50051 67.7943 7.63926 68.3261 7.77801C69.3899 8.06322 70.4151 8.26363 71.317 8.64905C72.2343 8.98822 73.0976 9.29655 73.8916 9.58947C74.2847 9.74363 74.6778 9.86697 75.0324 10.0211C75.3793 10.1907 75.7184 10.3526 76.0345 10.5068C77.3064 11.1157 78.3007 11.5936 78.9791 11.9251C79.3259 12.0793 79.5572 12.2488 79.7268 12.349C79.8964 12.4493 79.9811 12.5032 79.9811 12.5032C80.1045 12.5726 80.143 12.7422 80.0659 12.8655C79.9966 12.9888 79.8424 13.0351 79.7191 12.958Z" fill="#606161"/>
<path d="M4.42373 50.1275C4.40061 50.274 4.26186 50.3819 4.1154 50.3665L1.07061 50.0504C0.924152 50.035 0.823943 49.8963 0.847068 49.7421C0.870193 49.5879 1.00894 49.4723 1.1554 49.4877L4.20019 49.8346C4.34665 49.85 4.44686 49.981 4.42373 50.1275Z" fill="#606161"/>
<path d="M24.3515 14.8614C24.2359 14.9462 24.0663 14.9231 23.9738 14.8074L22.1007 12.387C22.0082 12.2714 22.039 12.1018 22.1623 12.0093C22.2857 11.9168 22.463 11.9322 22.5477 12.0478L24.3977 14.4914C24.4902 14.607 24.4671 14.7766 24.3515 14.8614Z" fill="#606161"/>
<path d="M49.4963 4.60939C49.3498 4.63251 49.2188 4.52459 49.2034 4.38584L48.8257 1.34876C48.8103 1.2023 48.9182 1.06355 49.0723 1.04043C49.2265 1.0173 49.3653 1.11751 49.3807 1.26397L49.7276 4.30876C49.7507 4.45522 49.6428 4.58626 49.4963 4.60939Z" fill="#606161"/>
<path d="M54.9527 4.24762C54.8062 4.25533 54.6829 4.1397 54.6829 3.99324L54.6289 0.925325C54.6289 0.778867 54.7522 0.655533 54.9141 0.647825C55.0683 0.640117 55.1993 0.755742 55.1993 0.9022L55.2224 3.97012C55.2224 4.11658 55.1068 4.23991 54.9527 4.24762Z" fill="#606161"/>
<path d="M73.516 7.47748C73.3772 7.42352 73.3079 7.26935 73.3541 7.13831L74.4024 4.2631C74.4641 4.11665 74.6183 4.04727 74.7724 4.10123C74.9189 4.15519 74.996 4.30935 74.9497 4.4481L73.8629 7.3156C73.8089 7.45435 73.6547 7.52373 73.516 7.47748Z" fill="#606161"/>
<path d="M9.99949 31.851C9.93783 31.9821 9.77595 32.036 9.64491 31.9744L6.92387 30.5638C6.79283 30.4944 6.74658 30.3248 6.80824 30.186C6.87762 30.0473 7.03949 29.9856 7.17054 30.055L9.87616 31.4888C10.0072 31.5581 10.0689 31.72 9.99949 31.851Z" fill="#606161"/>
<path d="M13.157 26.5863C13.0723 26.7096 12.895 26.7327 12.7793 26.6556L10.2433 24.929C10.12 24.8442 10.0968 24.6823 10.1893 24.5513C10.2818 24.4202 10.4591 24.3894 10.5748 24.4742L13.0954 26.224C13.2187 26.3088 13.2418 26.4706 13.157 26.5863Z" fill="#606161"/>
<path d="M83.2421 102.436C83.2421 102.436 83.6198 102.212 84.3212 101.781C85.0227 101.349 86.0787 100.755 87.289 99.7919C88.4992 98.8438 90.0794 97.8263 91.6133 96.3232C92.3996 95.5986 93.2629 94.8432 94.1262 94.0107C94.9356 93.1242 95.7835 92.1838 96.67 91.2126C100.1 87.2196 103.561 82.0319 106.012 75.8961C108.495 69.7834 109.921 62.7611 109.928 55.7234C109.921 48.6857 108.495 41.6634 106.012 35.5507C103.554 29.4149 100.092 24.2349 96.67 20.2342C95.7835 19.263 94.9356 18.3226 94.1262 17.4361C93.2552 16.6036 92.3996 15.8559 91.6133 15.1313C90.0794 13.6282 88.4992 12.6107 87.289 11.6626C86.0787 10.699 85.0227 10.1132 84.3212 9.68152C83.6198 9.24985 83.2421 9.0186 83.2421 9.0186C82.9723 8.85673 82.8798 8.51756 83.0262 8.26318C83.1727 8.00881 83.5119 7.93173 83.7817 8.0936C83.7817 8.0936 84.1671 8.32485 84.884 8.76423C85.6008 9.2036 86.68 9.80485 87.9056 10.7915C89.139 11.7551 90.75 12.7957 92.3148 14.3296C93.1242 15.0696 93.9952 15.8328 94.8817 16.6807C95.7064 17.5903 96.5775 18.5384 97.4794 19.5405C100.971 23.6105 104.502 28.9061 107.007 35.1576C109.535 41.3936 110.992 48.5546 110.992 55.7234C110.992 62.8999 109.535 70.0609 107.007 76.2969C104.502 82.5561 100.971 87.8363 97.4794 91.914C96.5775 92.9084 95.7064 93.8642 94.8817 94.7661C93.9952 95.614 93.1242 96.3849 92.3148 97.1249C90.75 98.6588 89.139 99.6994 87.9056 100.663C86.6723 101.642 85.6008 102.251 84.884 102.69C84.1671 103.122 83.7817 103.361 83.7817 103.361C83.5119 103.523 83.1727 103.453 83.0262 103.199C82.8798 102.937 82.9723 102.598 83.2421 102.436Z" fill="#606161"/>
<path d="M80.5899 97.9651C80.5899 97.9651 80.9291 97.757 81.5688 97.3715C82.2009 96.9861 83.1645 96.4542 84.2513 95.5755C85.3459 94.7199 86.7874 93.8026 88.1672 92.4382C88.8841 91.783 89.6549 91.1047 90.4488 90.357C91.1811 89.5476 91.952 88.7074 92.7536 87.8209C95.8524 84.198 98.982 79.5113 101.202 73.969C103.445 68.4422 104.74 62.1059 104.74 55.7311C104.732 49.3563 103.445 43.0124 101.202 37.4932C98.982 31.9509 95.8524 27.2642 92.7536 23.649C91.952 22.7626 91.1811 21.9147 90.4488 21.113C89.6626 20.3653 88.8841 19.687 88.1672 19.024C86.7874 17.6597 85.3459 16.7501 84.2513 15.8867C83.1645 15.0157 82.2009 14.4838 81.5688 14.0907C80.9291 13.7053 80.5899 13.4972 80.5899 13.4972C80.4666 13.4278 80.4357 13.2582 80.5051 13.1349C80.5822 13.0038 80.7363 12.9653 80.8597 13.0424C80.8597 13.0424 81.2066 13.2505 81.8463 13.6359C82.4938 14.029 83.4574 14.5686 84.5597 15.4551C85.6697 16.3184 87.1188 17.2434 88.5141 18.6309C89.2386 19.2938 90.0249 19.9799 90.8188 20.7353C91.5588 21.5524 92.3374 22.408 93.1468 23.3022C96.2763 26.9636 99.4445 31.6965 101.688 37.3005C103.954 42.8813 105.257 49.2947 105.264 55.7388C105.257 62.183 103.954 68.5963 101.688 74.1772C99.4445 79.7811 96.2763 84.514 93.1468 88.1755C92.3374 89.0697 91.5588 89.9253 90.8188 90.7424C90.0249 91.4978 89.2386 92.1838 88.5141 92.8467C87.1188 94.2265 85.662 95.1515 84.5597 96.0226C83.4651 96.909 82.4938 97.4409 81.8463 97.834C81.1988 98.2272 80.8597 98.4353 80.8597 98.4353C80.7363 98.5047 80.5822 98.4661 80.5051 98.3428C80.4357 98.1963 80.4666 98.0345 80.5899 97.9651Z" fill="#606161"/>
<path d="M86.0379 14.2219C85.9223 14.1371 85.8915 13.9675 85.984 13.8442L87.7877 11.3621C87.8725 11.2465 88.0498 11.2234 88.1731 11.3159C88.2965 11.4084 88.3273 11.5779 88.2425 11.7013L86.4156 14.1602C86.3231 14.2836 86.1535 14.3067 86.0379 14.2219Z" fill="#606161"/>
<path d="M106.652 49.071C106.629 48.9245 106.729 48.7935 106.875 48.7704L109.912 48.3618C110.059 48.3464 110.198 48.4543 110.221 48.6085C110.244 48.7626 110.144 48.9014 109.997 48.9245L106.952 49.3022C106.814 49.3254 106.675 49.2174 106.652 49.071Z" fill="#606161"/>
<path d="M102.982 75.9962C103.044 75.8651 103.206 75.8035 103.345 75.8574L106.166 77.0522C106.305 77.1139 106.359 77.2757 106.289 77.4145C106.22 77.5532 106.058 77.6226 105.919 77.5687L103.106 76.343C102.975 76.2814 102.921 76.1272 102.982 75.9962Z" fill="#606161"/>
<path d="M100.547 80.8913C100.624 80.768 100.786 80.7218 100.917 80.7911L103.6 82.2788C103.731 82.3482 103.769 82.5178 103.685 82.6488C103.607 82.7799 103.438 82.8338 103.307 82.7645L100.64 81.2459C100.509 81.1766 100.47 81.0147 100.547 80.8913Z" fill="#606161"/>
<path d="M88.4919 95.3826C88.5998 95.2824 88.7617 95.2978 88.8619 95.4057L90.8352 97.7567C90.9277 97.8724 90.9123 98.042 90.7967 98.1499C90.681 98.2578 90.5037 98.2424 90.4112 98.1268L88.4687 95.7526C88.3608 95.6447 88.3839 95.4828 88.4919 95.3826Z" fill="#606161"/>
<path d="M99.0905 28.1665C99.0135 28.0432 99.052 27.8736 99.1753 27.7965L101.75 26.1392C101.873 26.0544 102.043 26.1007 102.128 26.2394C102.212 26.3705 102.174 26.5478 102.051 26.6249L99.4528 28.259C99.3295 28.3284 99.1676 28.2899 99.0905 28.1665Z" fill="#606161"/>
<path d="M102.057 33.5313C101.995 33.4002 102.049 33.2383 102.18 33.1767L104.94 31.8354C105.071 31.7738 105.233 31.8354 105.302 31.9742C105.371 32.1129 105.317 32.2825 105.186 32.3442L102.419 33.6546C102.28 33.724 102.118 33.67 102.057 33.5313Z" fill="#606161"/>
<path d="M1.34195 56.2866C1.34195 56.2866 1.42674 58.0441 1.58862 61.1197C1.78903 62.646 2.08966 64.4883 2.41341 66.6081C2.67549 67.6487 2.9607 68.751 3.25362 69.9227C3.40778 70.5085 3.56195 71.102 3.71612 71.711C3.90112 72.3122 4.14778 72.9135 4.36362 73.5379C4.83382 74.7712 5.24237 76.0893 5.8282 77.3766C6.44487 78.6639 7.08466 79.9897 7.73987 81.3464C8.47216 82.6645 9.31237 83.9749 10.1295 85.3393C10.5149 86.0331 11.0159 86.6652 11.5015 87.3127C11.9872 87.9602 12.4805 88.6154 12.9738 89.2783C17.0438 94.4583 22.3934 99.2143 28.4907 102.729C34.5726 106.267 41.3713 108.526 47.9003 109.428C54.4292 110.322 60.6576 110.068 65.8376 109.05C66.4928 108.973 67.1172 108.796 67.7261 108.642C68.3351 108.487 68.9363 108.326 69.5145 108.179C70.6784 107.871 71.7961 107.64 72.7905 107.223C73.8003 106.853 74.7407 106.506 75.6117 106.19C76.0434 106.028 76.4674 105.882 76.8605 105.72C77.2459 105.535 77.6082 105.366 77.9551 105.196C79.3426 104.525 80.4295 104.001 81.1772 103.647C81.5549 103.477 81.817 103.292 82.002 103.192C82.1792 103.084 82.2795 103.03 82.2795 103.03C82.5415 102.868 82.8807 102.945 83.0272 103.2C83.1736 103.454 83.0734 103.793 82.8036 103.955C82.8036 103.955 82.7111 104.017 82.5184 104.125C82.3334 104.232 82.0636 104.417 81.6782 104.595C80.9228 104.957 79.8051 105.497 78.3945 106.175C78.0399 106.345 77.6699 106.522 77.2767 106.715C76.8759 106.884 76.4442 107.023 76.0049 107.192C75.1184 107.516 74.1549 107.871 73.1297 108.241C72.1199 108.665 70.9713 108.904 69.792 109.22C69.1984 109.374 68.5895 109.528 67.9651 109.69C67.3407 109.852 66.7086 110.029 66.038 110.106C60.7578 111.155 54.4138 111.409 47.7538 110.492C41.1015 109.574 34.164 107.27 27.9588 103.662C21.7382 100.078 16.2884 95.2368 12.1336 89.9489C11.6249 89.2783 11.1315 88.6077 10.6382 87.9447C10.1449 87.2818 9.63612 86.642 9.24299 85.9329C8.41049 84.5454 7.55487 83.2118 6.80716 81.8629C6.13653 80.4754 5.48903 79.1264 4.85695 77.816C4.2557 76.4979 3.83945 75.1489 3.36153 73.8924C3.13799 73.2604 2.89132 72.6514 2.69862 72.027C2.53674 71.4027 2.38257 70.7937 2.22841 70.2002C1.92778 69.0131 1.64257 67.8877 1.37278 66.8239C1.04132 64.6656 0.740699 62.777 0.532574 61.2277C0.370699 58.0904 0.285908 56.302 0.285908 56.302C0.270491 55.986 0.494033 55.7316 0.794658 55.7316C1.07216 55.7239 1.32653 55.9783 1.34195 56.2866Z" fill="#606161"/>
<path d="M6.53604 56.2402C6.53604 56.2402 6.61312 57.8281 6.75187 60.6108C6.96 61.9906 7.20667 63.6556 7.49187 65.575C7.73083 66.5154 7.98521 67.5097 8.26271 68.5658C8.39375 69.09 8.5325 69.6373 8.67125 70.1845C8.84083 70.7318 9.06437 71.2714 9.26479 71.8341C9.69646 72.9441 10.051 74.1466 10.5906 75.3106C11.1456 76.4668 11.7237 77.6693 12.3173 78.9027C12.9802 80.0898 13.751 81.2768 14.4833 82.5025C14.8302 83.1345 15.285 83.705 15.7244 84.2908C16.1637 84.8766 16.6031 85.4702 17.0502 86.0637C20.7348 90.7581 25.5756 95.0516 31.0871 98.2275C36.5908 101.426 42.7267 103.469 48.6312 104.286C54.5358 105.096 60.1783 104.872 64.8573 103.947C65.4508 103.885 66.0135 103.723 66.5685 103.577C67.1235 103.438 67.6631 103.3 68.1873 103.161C69.2356 102.876 70.2531 102.675 71.1473 102.305C72.0569 101.974 72.9048 101.658 73.691 101.372C74.0842 101.226 74.4696 101.103 74.8242 100.949C75.171 100.779 75.5025 100.617 75.8108 100.471C77.0673 99.8693 78.054 99.3914 78.7246 99.0677C79.0715 98.9212 79.3027 98.7516 79.4646 98.6591C79.6342 98.5589 79.7113 98.505 79.7113 98.505C79.8346 98.4279 79.9887 98.4741 80.0581 98.6052C80.1352 98.7285 80.089 98.8981 79.9733 98.9752C79.9733 98.9752 79.8885 99.0291 79.719 99.1293C79.5494 99.2218 79.3181 99.3991 78.9712 99.5456C78.2929 99.8693 77.2985 100.355 76.0267 100.964C75.7106 101.118 75.3792 101.28 75.0246 101.45C74.67 101.604 74.2769 101.727 73.8837 101.874C73.0898 102.166 72.2265 102.482 71.3092 102.822C70.4073 103.207 69.3744 103.407 68.3183 103.693C67.7865 103.831 67.2392 103.97 66.6842 104.117C66.1292 104.263 65.5587 104.433 64.9575 104.487C60.2246 105.427 54.5204 105.651 48.5542 104.834C42.5879 104.009 36.3827 101.951 30.8173 98.7131C25.2442 95.5064 20.3494 91.1589 16.6262 86.4183C16.1715 85.817 15.7244 85.2158 15.285 84.6223C14.8379 84.0287 14.3831 83.4583 14.0285 82.8185C13.2885 81.5698 12.5177 80.375 11.8394 79.1725C11.2381 77.9314 10.66 76.7212 10.0896 75.5495C9.55 74.3702 9.18771 73.16 8.74833 72.0345C8.54792 71.4641 8.32437 70.9168 8.15479 70.3695C8.00833 69.8145 7.86958 69.2672 7.73854 68.7354C7.46875 67.6716 7.20667 66.6618 6.96771 65.7137C6.6825 63.7712 6.405 62.0908 6.22 60.6956C6.08125 57.882 5.99646 56.271 5.99646 56.271C5.98875 56.1322 6.10437 56.0166 6.25083 56.0089C6.405 55.9781 6.52833 56.0937 6.53604 56.2402Z" fill="#606161"/>
<path d="M76.366 102.86C76.497 102.799 76.6512 102.853 76.7129 102.984L77.9616 105.782C78.0233 105.913 77.9539 106.075 77.8152 106.144C77.6764 106.214 77.5068 106.16 77.4529 106.029L76.2272 103.215C76.181 103.084 76.235 102.922 76.366 102.86Z" fill="#606161"/>
<path d="M35.8443 103.293C35.9831 103.346 36.0524 103.493 35.9985 103.632L34.8345 106.468C34.7806 106.599 34.611 106.669 34.4645 106.615C34.3181 106.561 34.241 106.407 34.3026 106.268L35.4974 103.447C35.5514 103.308 35.7133 103.246 35.8443 103.293Z" fill="#606161"/>
<path d="M14.4391 86.5731C14.5239 86.6887 14.5008 86.8583 14.3851 86.9508L11.9416 88.8008C11.826 88.8856 11.6564 88.8624 11.5562 88.7391C11.4637 88.6081 11.4791 88.4385 11.5947 88.346L14.0614 86.5191C14.1847 86.4266 14.3466 86.4574 14.4391 86.5731Z" fill="#606161"/>
<path d="M11.3938 82.0325C11.4709 82.1559 11.4324 82.3254 11.3013 82.4025L8.67277 83.9827C8.54944 84.0598 8.37985 84.0136 8.29506 83.8748C8.21027 83.7361 8.24881 83.5665 8.37985 83.4971L11.0238 81.94C11.1471 81.8629 11.3167 81.9092 11.3938 82.0325Z" fill="#606161"/>
<path d="M4.88499 64.3572C4.90812 64.5036 4.80791 64.6424 4.66145 64.6655L1.63978 65.1974C1.49333 65.2205 1.35458 65.1126 1.33145 64.9584C1.30833 64.8042 1.40853 64.6578 1.54728 64.6347L4.56895 64.1413C4.73083 64.1105 4.86187 64.2107 4.88499 64.3572Z" fill="#606161"/>
<path d="M57.7598 107.131C57.9062 107.124 58.0296 107.239 58.0373 107.386L58.1837 110.446C58.1914 110.592 58.0681 110.723 57.9139 110.723C57.7598 110.731 57.621 110.623 57.621 110.469L57.5131 107.401C57.4977 107.262 57.6133 107.139 57.7598 107.131Z" fill="#606161"/>
<path d="M51.623 107.038C51.7695 107.046 51.8851 107.169 51.8697 107.316L51.6461 110.376C51.6384 110.523 51.4997 110.638 51.3455 110.623C51.1836 110.615 51.068 110.492 51.0834 110.345L51.3378 107.293C51.3455 107.146 51.4765 107.031 51.623 107.038Z" fill="#606161"/>
<path d="M79.0083 31.3809H32.0491C28.4725 31.3809 25.5664 34.2869 25.5664 37.8636V73.1446C25.5664 76.7213 28.4725 79.6273 32.0491 79.6273H79.0083C82.585 79.6273 85.491 76.7213 85.491 73.1446V37.8559C85.4833 34.2792 82.585 31.3809 79.0083 31.3809ZM50.4489 42.6196C50.4797 41.34 51.3893 40.4536 52.4222 40.4304C52.7691 40.4227 53.1314 40.5152 53.486 40.7157L64.7556 47.6532C65.3722 48.0309 65.7962 48.7246 65.7962 49.5417C65.7962 50.3511 65.3722 51.0448 64.7556 51.4302L53.486 58.3677C52.0831 59.1771 50.4797 58.1442 50.4489 56.4484V42.6196ZM74.7764 70.4159C74.7764 70.5931 74.7147 70.7627 74.6068 70.8861C74.1829 72.1811 72.9572 73.1215 71.5235 73.1215C70.2054 73.1215 69.0568 72.3275 68.5481 71.1867H37.0595C36.6279 71.1867 36.281 70.8398 36.281 70.4081V69.3213C36.281 68.8973 36.6279 68.5427 37.0595 68.5427H68.5558C69.0645 67.4096 70.2054 66.6079 71.5312 66.6079C72.9727 66.6079 74.1983 67.5484 74.6145 68.8434C74.7225 68.9744 74.7841 69.144 74.7841 69.3136V70.4159H74.7764Z" fill="#ED2224"/>
<path d="M74.779 69.3286V69.8759C74.779 69.5213 74.7173 69.1744 74.6094 68.8584C74.725 68.9817 74.779 69.1513 74.779 69.3286Z" fill="#ED2224"/>
<path d="M74.779 69.3286V69.8759C74.779 69.5213 74.7173 69.1744 74.6094 68.8584C74.725 68.9817 74.779 69.1513 74.779 69.3286Z" fill="#ED2224"/>
</g>
<defs>
<clipPath id="clip0_3703_2582">
<rect width="111" height="111" fill="white"/>
</clipPath>
</defs>
</svg>
