<svg width="111" height="111" viewBox="0 0 111 111" fill="none" xmlns="http://www.w3.org/2000/svg">
<g clip-path="url(#clip0_3703_2623)">
<path d="M82.2519 8.43286C82.2519 8.43286 82.1594 8.37891 81.9744 8.26328C81.7894 8.15537 81.5273 7.97037 81.1496 7.8085C80.4096 7.45392 79.315 6.92205 77.9275 6.25914C77.5806 6.08956 77.2183 5.91998 76.8329 5.73498C76.4398 5.5731 76.0158 5.43436 75.5842 5.26477C74.7131 4.94103 73.7727 4.60186 72.7629 4.23187C71.7685 3.81562 70.6508 3.58438 69.4869 3.27605C68.901 3.12959 68.3075 2.97542 67.6985 2.82126C67.0896 2.66709 66.4652 2.4898 65.81 2.41272C60.63 1.39523 54.4017 1.13315 47.8727 2.03502C41.3437 2.93688 34.545 5.1954 28.4631 8.7412C22.3658 12.2562 17.0162 17.0044 12.9462 22.1844C12.4529 22.8473 11.9596 23.5025 11.474 24.15C10.996 24.7975 10.495 25.4296 10.1019 26.1233C9.28479 27.4877 8.44458 28.7981 7.71229 30.1162C7.05708 31.4805 6.41729 32.8064 5.80062 34.0859C5.20708 35.3809 4.80625 36.699 4.33604 37.9323C4.1125 38.5567 3.87354 39.1502 3.68854 39.7515C3.53437 40.3604 3.38021 40.9617 3.22604 41.5475C2.93312 42.7115 2.64792 43.8214 2.38583 44.8544C2.06208 46.9741 1.76146 48.8241 1.56104 50.3503C1.40687 53.4259 1.31437 55.1757 1.31437 55.1757C1.29896 55.484 1.05229 55.7384 0.751666 55.7384C0.458749 55.7384 0.227499 55.484 0.242916 55.168C0.242916 55.168 0.335416 53.3797 0.489583 50.2501C0.689999 48.6931 0.998332 46.8122 1.32979 44.6539C1.59958 43.5902 1.88479 42.4648 2.18542 41.2777C2.33958 40.6842 2.49375 40.0752 2.65562 39.4509C2.84833 38.8342 3.095 38.2253 3.31854 37.5855C3.79646 36.329 4.21271 34.9878 4.81396 33.662C5.44604 32.3593 6.09354 31.0026 6.76417 29.6151C7.51187 28.2739 8.3675 26.9327 9.2 25.5452C9.59312 24.836 10.1019 24.1962 10.5952 23.5333C11.0885 22.8704 11.5896 22.2075 12.0906 21.5292C16.2454 16.249 21.6952 11.4005 27.9158 7.81621C34.121 4.20874 41.0585 1.90398 47.7108 0.978986C54.3708 0.0694125 60.7148 0.323785 65.995 1.3644C66.6656 1.44148 67.2977 1.61877 67.9221 1.78064C68.5465 1.94252 69.1554 2.09668 69.7489 2.25085C70.936 2.56689 72.0769 2.80584 73.0867 3.22209C74.1119 3.59979 75.0754 3.95437 75.9619 4.27812C76.4012 4.43999 76.8329 4.58645 77.2337 4.75603C77.6269 4.94874 77.9969 5.12603 78.3515 5.2879C79.7621 5.97393 80.8798 6.5058 81.6352 6.8758C82.0206 7.04538 82.2827 7.23809 82.4754 7.346C82.6604 7.45392 82.7606 7.51558 82.7606 7.51558C83.0304 7.67746 83.1306 8.01662 82.9842 8.27099C82.8454 8.51766 82.5139 8.59474 82.2519 8.43286Z" fill="#606161"/>
<path d="M79.6995 12.9579C79.6995 12.9579 79.6147 12.904 79.4529 12.8038C79.2833 12.7113 79.052 12.5417 78.7129 12.3875C78.0422 12.0638 77.0556 11.5936 75.7991 10.9923C75.4908 10.8382 75.1593 10.684 74.8124 10.5144C74.4579 10.368 74.0724 10.2446 73.6793 10.0982C72.8931 9.80526 72.0374 9.49693 71.1356 9.16548C70.2414 8.78777 69.2239 8.58736 68.1756 8.30215C67.6514 8.17111 67.1118 8.02465 66.5568 7.88591C66.0018 7.73945 65.4391 7.57758 64.8456 7.51591C60.1589 6.58321 54.5164 6.35967 48.6118 7.16904C42.7072 7.98611 36.5714 10.0211 31.0677 13.22C25.5485 16.3958 20.7154 20.697 17.0308 25.3836C16.5837 25.9849 16.1443 26.5784 15.7049 27.1642C15.2656 27.7501 14.8108 28.3205 14.4639 28.9448C13.7316 30.1782 12.9685 31.3575 12.2979 32.5523C11.7043 33.7856 11.1262 34.9804 10.5712 36.1366C10.0316 37.3083 9.67703 38.5031 9.24536 39.6131C9.04495 40.1758 8.82141 40.7153 8.65182 41.2626C8.51307 41.8176 8.37432 42.3495 8.24328 42.8814C7.97349 43.9374 7.71911 44.9318 7.47245 45.8722C7.18724 47.7915 6.93286 49.4642 6.73245 50.8363C6.5937 53.619 6.51661 55.2146 6.51661 55.2146C6.50891 55.3533 6.38557 55.4689 6.23911 55.4689C6.09266 55.4689 5.97703 55.3533 5.98474 55.2069C5.98474 55.2069 6.06953 53.6035 6.20828 50.79C6.39328 49.3948 6.67849 47.7067 6.95599 45.772C7.19495 44.8238 7.45703 43.8141 7.72682 42.7503C7.86557 42.2185 8.00432 41.6712 8.14307 41.1085C8.31266 40.5535 8.5362 40.0139 8.73661 39.4435C9.17599 38.3258 9.53057 37.1156 10.0779 35.9285C10.6406 34.7569 11.2264 33.5467 11.8277 32.2979C12.4983 31.0955 13.2691 29.9007 14.0168 28.6519C14.3637 28.0121 14.8262 27.4417 15.2733 26.8482C15.7204 26.2547 16.1597 25.6534 16.6145 25.0522C20.3377 20.3116 25.2324 15.9642 30.8056 12.7575C36.3633 9.52005 42.5762 7.46195 48.5424 6.63717C54.5164 5.82009 60.2129 6.04363 64.9458 6.97633C65.547 7.04571 66.1174 7.20758 66.6724 7.35404C67.2352 7.50049 67.7747 7.63924 68.3066 7.77799C69.3704 8.0632 70.3956 8.26361 71.2974 8.64902C72.2147 8.98819 73.0781 9.29652 73.872 9.58943C74.2652 9.74359 74.6583 9.86693 75.0129 10.0211C75.3597 10.1907 75.6989 10.3525 76.0149 10.5067C77.2868 11.1157 78.2812 11.5936 78.9595 11.925C79.3064 12.0792 79.5377 12.2488 79.7072 12.349C79.8768 12.4492 79.9616 12.5031 79.9616 12.5031C80.0849 12.5725 80.1235 12.7421 80.0464 12.8654C79.977 12.9888 79.8229 13.035 79.6995 12.9579Z" fill="#606161"/>
<path d="M4.4042 50.1265C4.38108 50.273 4.24233 50.3809 4.09587 50.3655L1.05108 50.0494C0.90462 50.034 0.804412 49.8953 0.827537 49.7411C0.850662 49.5869 0.989412 49.4713 1.13587 49.4867L4.18066 49.8336C4.32712 49.849 4.42733 49.9801 4.4042 50.1265Z" fill="#606161"/>
<path d="M24.3241 14.8614C24.2085 14.9461 24.0389 14.923 23.9464 14.8074L22.0733 12.387C21.9808 12.2714 22.0116 12.1018 22.135 12.0093C22.2583 11.9168 22.4356 11.9322 22.5204 12.0478L24.3704 14.4914C24.4629 14.607 24.4398 14.7766 24.3241 14.8614Z" fill="#606161"/>
<path d="M49.4651 4.60935C49.3186 4.63247 49.1876 4.52456 49.1721 4.38581L48.7944 1.34876C48.779 1.2023 48.8869 1.06355 49.0411 1.04043C49.1953 1.0173 49.334 1.11751 49.3494 1.26397L49.6963 4.30873C49.7194 4.45518 49.6115 4.58622 49.4651 4.60935Z" fill="#606161"/>
<path d="M54.9214 4.24758C54.7749 4.25529 54.6516 4.13966 54.6516 3.99321L54.5977 0.925322C54.5977 0.778865 54.721 0.655533 54.8829 0.647825C55.037 0.640117 55.1681 0.755741 55.1681 0.902197L55.1912 3.97008C55.1912 4.11654 55.0756 4.23987 54.9214 4.24758Z" fill="#606161"/>
<path d="M73.4925 7.47744C73.3538 7.42348 73.2844 7.26932 73.3307 7.13828L74.379 4.2631C74.4407 4.11665 74.5948 4.04727 74.749 4.10123C74.8955 4.15519 74.9726 4.30935 74.9263 4.4481L73.8394 7.31557C73.7855 7.45432 73.6313 7.52369 73.4925 7.47744Z" fill="#606161"/>
<path d="M9.97215 31.851C9.91048 31.9821 9.74861 32.036 9.61757 31.9744L6.89653 30.5638C6.76548 30.4944 6.71923 30.3248 6.7809 30.186C6.85028 30.0473 7.01215 29.9856 7.14319 30.055L9.84882 31.4887C9.97986 31.5581 10.0415 31.72 9.97215 31.851Z" fill="#606161"/>
<path d="M13.1336 26.5862C13.0488 26.7096 12.8715 26.7327 12.7559 26.6556L10.2199 24.929C10.0965 24.8442 10.0734 24.6823 10.1659 24.5513C10.2584 24.4202 10.4357 24.3894 10.5513 24.4742L13.0719 26.224C13.1953 26.3087 13.2184 26.4706 13.1336 26.5862Z" fill="#606161"/>
<path d="M83.2343 102.435C83.2343 102.435 83.612 102.211 84.3134 101.78C85.0149 101.348 86.0709 100.755 87.2811 99.791C88.4913 98.8429 90.0716 97.8254 91.6055 96.3223C92.3918 95.5977 93.2551 94.8423 94.1184 94.0098C94.9278 93.1233 95.7757 92.1829 96.6622 91.2117C100.092 87.2188 103.553 82.0312 106.005 75.8954C108.487 69.7827 109.913 62.7605 109.921 55.7229C109.913 48.6853 108.487 41.663 106.005 35.5504C103.546 29.4146 100.085 24.2347 96.6622 20.2341C95.7757 19.2629 94.9278 18.3225 94.1184 17.436C93.2474 16.6035 92.3918 15.8558 91.6055 15.1312C90.0716 13.6281 88.4913 12.6106 87.2811 11.6625C86.0709 10.699 85.0149 10.1132 84.3134 9.6815C83.612 9.24984 83.2343 9.01859 83.2343 9.01859C82.9645 8.85672 82.872 8.51755 83.0184 8.26318C83.1649 8.00881 83.5041 7.93173 83.7739 8.0936C83.7739 8.0936 84.1593 8.32485 84.8761 8.76422C85.593 9.20359 86.6722 9.80483 87.8978 10.7915C89.1311 11.755 90.7422 12.7956 92.307 14.3296C93.1164 15.0696 93.9874 15.8327 94.8738 16.6806C95.6986 17.5902 96.5697 18.5383 97.4716 19.5404C100.963 23.6103 104.494 28.9059 106.999 35.1573C109.527 41.3933 110.984 48.5542 110.984 55.7229C110.984 62.8993 109.527 70.0602 106.999 76.2962C104.494 82.5553 100.963 87.8355 97.4716 91.9131C96.5697 92.9075 95.6986 93.8633 94.8738 94.7652C93.9874 95.6131 93.1164 96.3839 92.307 97.1239C90.7422 98.6579 89.1311 99.6985 87.8978 100.662C86.6645 101.641 85.593 102.25 84.8761 102.689C84.1593 103.121 83.7739 103.36 83.7739 103.36C83.5041 103.522 83.1649 103.452 83.0184 103.198C82.872 102.936 82.9645 102.597 83.2343 102.435Z" fill="#606161"/>
<path d="M80.5743 97.9642C80.5743 97.9642 80.9134 97.7561 81.5532 97.3706C82.1853 96.9852 83.1488 96.4534 84.2357 95.5746C85.3303 94.719 86.7718 93.8017 88.1516 92.4374C88.8684 91.7822 89.6393 91.1038 90.4332 90.3561C91.1655 89.5468 91.9363 88.7066 92.738 87.8201C95.8368 84.1972 98.9663 79.5106 101.186 73.9684C103.429 68.4416 104.724 62.1054 104.724 55.7307C104.717 49.3559 103.429 43.0121 101.186 37.4929C98.9663 31.9507 95.8368 27.2641 92.738 23.6489C91.9363 22.7625 91.1655 21.9146 90.4332 21.1129C89.647 20.3652 88.8684 19.6869 88.1516 19.024C86.7718 17.6596 85.3303 16.75 84.2357 15.8867C83.1488 15.0157 82.1853 14.4838 81.5532 14.0907C80.9134 13.7053 80.5743 13.4972 80.5743 13.4972C80.4509 13.4278 80.4201 13.2582 80.4895 13.1349C80.5666 13.0038 80.7207 12.9653 80.8441 13.0424C80.8441 13.0424 81.1909 13.2505 81.8307 13.6359C82.4782 14.029 83.4418 14.5686 84.5441 15.4551C85.6541 16.3184 87.1032 17.2434 88.4984 18.6309C89.223 19.2938 90.0093 19.9798 90.8032 20.7352C91.5432 21.5523 92.3218 22.4079 93.1311 23.3021C96.2607 26.9635 99.4288 31.6963 101.672 37.3002C103.938 42.881 105.241 49.2943 105.249 55.7384C105.241 62.1825 103.938 68.5957 101.672 74.1765C99.4288 79.7804 96.2607 84.5133 93.1311 88.1747C92.3218 89.0689 91.5432 89.9245 90.8032 90.7416C90.0093 91.497 89.223 92.183 88.4984 92.8459C87.1032 94.2257 85.6463 95.1507 84.5441 96.0217C83.4495 96.9082 82.4782 97.44 81.8307 97.8331C81.1832 98.2263 80.8441 98.4344 80.8441 98.4344C80.7207 98.5038 80.5666 98.4652 80.4895 98.3419C80.4201 98.1954 80.4509 98.0336 80.5743 97.9642Z" fill="#606161"/>
<path d="M86.0262 14.2219C85.9106 14.1371 85.8797 13.9675 85.9722 13.8442L87.776 11.3621C87.8608 11.2465 88.0381 11.2234 88.1614 11.3159C88.2847 11.4084 88.3156 11.5779 88.2308 11.7013L86.4039 14.1602C86.3114 14.2835 86.1418 14.3067 86.0262 14.2219Z" fill="#606161"/>
<path d="M106.632 49.071C106.609 48.9245 106.709 48.7935 106.856 48.7704L109.893 48.3618C110.039 48.3464 110.178 48.4543 110.201 48.6085C110.224 48.7626 110.124 48.9014 109.978 48.9245L106.933 49.3022C106.794 49.3253 106.655 49.2174 106.632 49.071Z" fill="#606161"/>
<path d="M102.963 75.9952C103.025 75.8641 103.186 75.8025 103.325 75.8564L106.146 77.0512C106.285 77.1129 106.339 77.2747 106.27 77.4135C106.2 77.5522 106.039 77.6216 105.9 77.5677L103.086 76.3421C102.955 76.2804 102.901 76.1262 102.963 75.9952Z" fill="#606161"/>
<path d="M100.536 80.8904C100.613 80.767 100.774 80.7208 100.906 80.7902L103.588 82.2779C103.719 82.3472 103.758 82.5168 103.673 82.6478C103.596 82.7789 103.426 82.8328 103.295 82.7635L100.628 81.2449C100.497 81.1756 100.458 81.0137 100.536 80.8904Z" fill="#606161"/>
<path d="M88.4684 95.3816C88.5763 95.2814 88.7382 95.2968 88.8384 95.4047L90.8118 97.7557C90.9043 97.8714 90.8888 98.041 90.7732 98.1489C90.6576 98.2568 90.4803 98.2414 90.3878 98.1257L88.4453 95.7516C88.3374 95.6437 88.3605 95.4818 88.4684 95.3816Z" fill="#606161"/>
<path d="M99.0749 28.1655C98.9978 28.0422 99.0364 27.8726 99.1597 27.7955L101.734 26.1383C101.858 26.0535 102.027 26.0997 102.112 26.2385C102.197 26.3695 102.158 26.5468 102.035 26.6239L99.4372 28.258C99.3139 28.3274 99.152 28.2889 99.0749 28.1655Z" fill="#606161"/>
<path d="M102.045 33.5312C101.983 33.4002 102.037 33.2383 102.168 33.1767L104.928 31.8354C105.059 31.7738 105.221 31.8354 105.29 31.9742C105.36 32.1129 105.306 32.2825 105.175 32.3442L102.407 33.6546C102.269 33.7239 102.107 33.67 102.045 33.5312Z" fill="#606161"/>
<path d="M1.32242 56.2856C1.32242 56.2856 1.40721 58.0431 1.56908 61.1187C1.7695 62.6449 2.07013 64.4872 2.39388 66.607C2.65596 67.6476 2.94117 68.7499 3.23409 69.9215C3.38825 70.5074 3.54242 71.1009 3.69659 71.7098C3.88159 72.3111 4.12825 72.9123 4.34409 73.5367C4.81429 74.77 5.22284 76.0881 5.80867 77.3754C6.42534 78.6627 7.06513 79.9885 7.72034 81.3452C8.45263 82.6633 9.29284 83.9737 10.1099 85.338C10.4953 86.0318 10.9964 86.6638 11.482 87.3113C11.9676 87.9588 12.461 88.614 12.9543 89.2769C17.0243 94.4569 22.3739 99.2129 28.4712 102.728C34.553 106.266 41.3518 108.524 47.8808 109.426C54.4097 110.32 60.6381 110.066 65.8181 109.049C66.4733 108.972 67.0976 108.794 67.7066 108.64C68.3156 108.486 68.9168 108.324 69.4949 108.178C70.6589 107.869 71.7766 107.638 72.771 107.222C73.7808 106.852 74.7212 106.505 75.5922 106.189C76.0239 106.027 76.4478 105.881 76.841 105.719C77.2264 105.534 77.5887 105.364 77.9356 105.194C79.3231 104.524 80.4099 104 81.1576 103.645C81.5353 103.476 81.7974 103.291 81.9824 103.19C82.1597 103.082 82.2599 103.028 82.2599 103.028C82.522 102.867 82.8612 102.944 83.0076 103.198C83.1541 103.452 83.0539 103.792 82.7841 103.953C82.7841 103.953 82.6916 104.015 82.4989 104.123C82.3139 104.231 82.0441 104.416 81.6587 104.593C80.9033 104.956 79.7856 105.495 78.3749 106.173C78.0203 106.343 77.6503 106.52 77.2572 106.713C76.8564 106.883 76.4247 107.021 75.9853 107.191C75.0989 107.515 74.1353 107.869 73.1101 108.239C72.1003 108.663 70.9518 108.902 69.7724 109.218C69.1789 109.372 68.5699 109.527 67.9455 109.688C67.3212 109.85 66.6891 110.028 66.0185 110.105C60.7383 111.153 54.3943 111.407 47.7343 110.49C41.082 109.573 34.1445 107.268 27.9393 103.661C21.7187 100.076 16.2689 95.2354 12.1141 89.9476C11.6053 89.277 11.112 88.6063 10.6187 87.9434C10.1253 87.2805 9.61659 86.6407 9.22346 85.9316C8.39096 84.5441 7.53534 83.2106 6.78763 81.8616C6.117 80.4741 5.4695 79.1252 4.83742 77.8148C4.23617 76.4967 3.81992 75.1477 3.342 73.8913C3.11846 73.2592 2.87179 72.6503 2.67909 72.0259C2.51721 71.4015 2.36304 70.7926 2.20888 70.199C1.90825 69.012 1.62304 67.8866 1.35325 66.8228C1.02179 64.6645 0.721168 62.776 0.513043 61.2266C0.351168 58.0894 0.266376 56.301 0.266376 56.301C0.25096 55.985 0.474501 55.7306 0.775127 55.7306C1.05263 55.7229 1.307 55.9773 1.32242 56.2856Z" fill="#606161"/>
<path d="M6.5087 56.2392C6.5087 56.2392 6.58578 57.8271 6.72453 60.6098C6.93266 61.9895 7.17932 63.6545 7.46453 65.5739C7.70349 66.5143 7.95786 67.5086 8.23536 68.5647C8.36641 69.0888 8.50516 69.6361 8.64391 70.1834C8.81349 70.7307 9.03703 71.2703 9.23745 71.833C9.66911 72.943 10.0237 74.1455 10.5633 75.3094C11.1183 76.4656 11.6964 77.6681 12.2899 78.9014C12.9529 80.0885 13.7237 81.2756 14.456 82.5012C14.8029 83.1333 15.2577 83.7037 15.697 84.2895C16.1364 84.8753 16.5758 85.4689 17.0229 86.0624C20.7074 90.7567 25.5483 95.0502 31.0597 98.226C36.5635 101.425 42.6993 103.468 48.6039 104.285C54.5085 105.094 60.151 104.871 64.8299 103.946C65.4235 103.884 65.9862 103.722 66.5412 103.576C67.0962 103.437 67.6358 103.298 68.1599 103.159C69.2083 102.874 70.2258 102.674 71.1199 102.304C72.0295 101.972 72.8774 101.656 73.6637 101.371C74.0568 101.225 74.4422 101.101 74.7968 100.947C75.1437 100.777 75.4751 100.616 75.7835 100.469C77.0399 99.8679 78.0266 99.39 78.6972 99.0662C79.0441 98.9198 79.2754 98.7502 79.4372 98.6577C79.6068 98.5575 79.6839 98.5035 79.6839 98.5035C79.8072 98.4264 79.9614 98.4727 80.0308 98.6037C80.1079 98.7271 80.0616 98.8966 79.946 98.9737C79.946 98.9737 79.8612 99.0277 79.6916 99.1279C79.522 99.2204 79.2908 99.3977 78.9439 99.5441C78.2656 99.8679 77.2712 100.354 75.9993 100.962C75.6833 101.117 75.3518 101.279 74.9972 101.448C74.6427 101.602 74.2495 101.726 73.8564 101.872C73.0624 102.165 72.1991 102.481 71.2818 102.82C70.3799 103.206 69.347 103.406 68.291 103.691C67.7591 103.83 67.2118 103.969 66.6568 104.115C66.1018 104.262 65.5314 104.431 64.9301 104.485C60.1972 105.426 54.4931 105.649 48.5268 104.832C42.5606 104.007 36.3554 101.949 30.7899 98.7117C25.2168 95.505 20.322 91.1576 16.5989 86.417C16.1441 85.8157 15.697 85.2145 15.2577 84.621C14.8106 84.0274 14.3558 83.457 14.0012 82.8172C13.2612 81.5685 12.4904 80.3737 11.812 79.1712C11.2108 77.9302 10.6327 76.72 10.0622 75.5484C9.52266 74.369 9.16036 73.1588 8.72099 72.0334C8.52057 71.463 8.29703 70.9157 8.12745 70.3684C7.98099 69.8134 7.84224 69.2661 7.7112 68.7343C7.44141 67.6705 7.17932 66.6607 6.94036 65.7126C6.65516 63.7701 6.37766 62.0897 6.19266 60.6946C6.05391 57.881 5.96911 56.27 5.96911 56.27C5.96141 56.1313 6.07703 56.0157 6.22349 56.0079C6.37766 55.9771 6.50099 56.0927 6.5087 56.2392Z" fill="#606161"/>
<path d="M76.3504 102.859C76.4814 102.798 76.6356 102.852 76.6972 102.983L77.946 105.781C78.0077 105.912 77.9383 106.074 77.7995 106.143C77.6608 106.213 77.4912 106.159 77.4372 106.028L76.2116 103.214C76.1654 103.083 76.2193 102.921 76.3504 102.859Z" fill="#606161"/>
<path d="M35.8209 103.291C35.9596 103.345 36.029 103.491 35.975 103.63L34.8111 106.466C34.7571 106.597 34.5875 106.667 34.4411 106.613C34.2946 106.559 34.2175 106.405 34.2792 106.266L35.474 103.445C35.528 103.306 35.6898 103.244 35.8209 103.291Z" fill="#606161"/>
<path d="M14.4196 86.5711C14.5044 86.6867 14.4812 86.8563 14.3656 86.9488L11.9221 88.7988C11.8064 88.8836 11.6369 88.8605 11.5366 88.7371C11.4441 88.6061 11.4596 88.4365 11.5752 88.344L14.0419 86.5172C14.1652 86.4247 14.3271 86.4555 14.4196 86.5711Z" fill="#606161"/>
<path d="M11.3704 82.0315C11.4475 82.1549 11.4089 82.3245 11.2779 82.4015L8.64933 83.9817C8.526 84.0588 8.35642 84.0126 8.27162 83.8738C8.18683 83.7351 8.22537 83.5655 8.35642 83.4961L11.0004 81.9391C11.1237 81.862 11.2933 81.9082 11.3704 82.0315Z" fill="#606161"/>
<path d="M4.86937 64.3562C4.89249 64.5026 4.79228 64.6414 4.64583 64.6645L1.62416 65.1964C1.4777 65.2195 1.33895 65.1116 1.31583 64.9574C1.2927 64.8033 1.39291 64.6568 1.53166 64.6337L4.55333 64.1404C4.7152 64.1095 4.84624 64.2097 4.86937 64.3562Z" fill="#606161"/>
<path d="M57.7363 107.129C57.8828 107.122 58.0061 107.237 58.0138 107.384L58.1603 110.444C58.168 110.59 58.0447 110.721 57.8905 110.721C57.7363 110.729 57.5976 110.621 57.5976 110.467L57.4897 107.399C57.4742 107.26 57.5899 107.137 57.7363 107.129Z" fill="#606161"/>
<path d="M51.6035 107.036C51.7499 107.044 51.8655 107.168 51.8501 107.314L51.6266 110.374C51.6189 110.521 51.4801 110.636 51.326 110.621C51.1641 110.613 51.0485 110.49 51.0639 110.343L51.3183 107.291C51.326 107.144 51.457 107.029 51.6035 107.036Z" fill="#606161"/>
<path d="M32.7871 33.7617C29.511 33.7617 26.8594 36.4134 26.8594 39.6894C26.8594 42.9654 29.511 45.617 32.7871 45.617C36.0631 45.617 38.7148 42.9654 38.7148 39.6894C38.7148 36.4134 36.0631 33.7617 32.7871 33.7617ZM32.7871 49.5713C29.511 49.5713 26.8594 52.223 26.8594 55.499C26.8594 58.775 29.511 61.4266 32.7871 61.4266C36.0631 61.4266 38.7148 58.775 38.7148 55.499C38.7148 52.223 36.0631 49.5713 32.7871 49.5713ZM32.7871 65.381C29.511 65.381 26.8594 68.0326 26.8594 71.3086C26.8594 74.5846 29.511 77.2363 32.7871 77.2363C36.0631 77.2363 38.7148 74.5846 38.7148 71.3086C38.7148 68.0326 36.0631 65.381 32.7871 65.381ZM48.5969 43.6437H80.2165C82.3979 43.6437 84.1708 41.8785 84.1708 39.6894C84.1708 37.5079 82.4056 35.735 80.2165 35.735H48.5969C46.4154 35.735 44.6425 37.5002 44.6425 39.6894C44.6425 41.8708 46.4077 43.6437 48.5969 43.6437ZM80.2088 51.5447H48.5969C46.4154 51.5447 44.6425 53.3098 44.6425 55.499C44.6425 57.6881 46.4077 59.4533 48.5969 59.4533H80.2165C82.3979 59.4533 84.1708 57.6881 84.1708 55.499C84.1708 53.3098 82.3979 51.5447 80.2088 51.5447ZM80.2088 67.3543H48.5969C46.4154 67.3543 44.6425 69.1195 44.6425 71.3086C44.6425 73.49 46.4077 75.2629 48.5969 75.2629H80.2165C82.3979 75.2629 84.1708 73.4978 84.1708 71.3086C84.1631 69.1272 82.3979 67.3543 80.2088 67.3543Z" fill="#ED2224"/>
</g>
<defs>
<clipPath id="clip0_3703_2623">
<rect width="111" height="110.999" fill="white"/>
</clipPath>
</defs>
</svg>
