<svg width="111" height="111" viewBox="0 0 111 111" fill="none" xmlns="http://www.w3.org/2000/svg">
<g clip-path="url(#clip0_3703_2744)">
<path d="M82.2636 8.43286C82.2636 8.43286 82.1711 8.37891 81.9861 8.26328C81.8011 8.15537 81.539 7.97037 81.1613 7.8085C80.4213 7.45392 79.3267 6.92205 77.9392 6.25914C77.5923 6.08956 77.23 5.91998 76.8446 5.73498C76.4515 5.5731 76.0275 5.43436 75.5959 5.26477C74.7248 4.94103 73.7844 4.60186 72.7746 4.23187C71.7803 3.81562 70.6625 3.58438 69.4986 3.27605C68.9128 3.12959 68.3192 2.97542 67.7103 2.82126C67.1013 2.66709 66.4769 2.4898 65.8217 2.41272C60.6417 1.39523 54.4134 1.13315 47.8844 2.03502C41.3555 2.93688 34.5567 5.1954 28.4748 8.7412C22.3775 12.2562 17.028 17.0044 12.958 22.1844C12.4646 22.8473 11.9713 23.5025 11.4857 24.15C11.0078 24.7975 10.5067 25.4296 10.1136 26.1233C9.29651 27.4877 8.4563 28.7981 7.72401 30.1162C7.0688 31.4805 6.42901 32.8064 5.81234 34.0859C5.2188 35.3809 4.81797 36.699 4.34776 37.9323C4.12422 38.5567 3.88526 39.1502 3.70026 39.7515C3.54609 40.3604 3.39193 40.9617 3.23776 41.5475C2.94484 42.7115 2.65963 43.8214 2.39755 44.8544C2.0738 46.9741 1.77318 48.8241 1.57276 50.3503C1.41859 53.4259 1.32609 55.1757 1.32609 55.1757C1.31068 55.484 1.06401 55.7384 0.763385 55.7384C0.470468 55.7384 0.239218 55.484 0.254635 55.168C0.254635 55.168 0.347135 53.3797 0.501301 50.2501C0.701718 48.6931 1.01005 46.8122 1.34151 44.6539C1.6113 43.5902 1.89651 42.4648 2.19713 41.2777C2.3513 40.6842 2.50547 40.0752 2.66734 39.4509C2.86005 38.8342 3.10672 38.2253 3.33026 37.5855C3.80818 36.329 4.22443 34.9878 4.82568 33.662C5.45776 32.3593 6.10526 31.0026 6.77588 29.6151C7.52359 28.2739 8.37922 26.9327 9.21172 25.5452C9.60484 24.836 10.1136 24.1962 10.6069 23.5333C11.1003 22.8704 11.6013 22.2075 12.1023 21.5292C16.2571 16.249 21.7069 11.4005 27.9275 7.81621C34.1328 4.20874 41.0703 1.90398 47.7225 0.978986C54.3825 0.0694125 60.7265 0.323785 66.0067 1.3644C66.6773 1.44148 67.3094 1.61877 67.9338 1.78064C68.5582 1.94252 69.1671 2.09668 69.7607 2.25085C70.9478 2.56689 72.0886 2.80584 73.0984 3.22209C74.1236 3.59979 75.0871 3.95437 75.9736 4.27812C76.413 4.43999 76.8446 4.58645 77.2455 4.75603C77.6386 4.94874 78.0086 5.12603 78.3632 5.2879C79.7738 5.97393 80.8915 6.5058 81.6469 6.8758C82.0323 7.04538 82.2944 7.23809 82.4871 7.346C82.6721 7.45392 82.7723 7.51558 82.7723 7.51558C83.0421 7.67746 83.1423 8.01662 82.9959 8.27099C82.8571 8.51766 82.5257 8.59474 82.2636 8.43286Z" fill="#606161"/>
<path d="M79.7112 12.9579C79.7112 12.9579 79.6265 12.904 79.4646 12.8038C79.295 12.7113 79.0637 12.5417 78.7246 12.3875C78.054 12.0638 77.0673 11.5936 75.8108 10.9923C75.5025 10.8382 75.171 10.684 74.8242 10.5144C74.4696 10.368 74.0842 10.2446 73.691 10.0982C72.9048 9.80526 72.0492 9.49693 71.1473 9.16548C70.2531 8.78777 69.2356 8.58736 68.1873 8.30215C67.6631 8.17111 67.1235 8.02465 66.5685 7.88591C66.0135 7.73945 65.4508 7.57758 64.8573 7.51591C60.1706 6.58321 54.5281 6.35967 48.6235 7.16904C42.719 7.98611 36.5831 10.0211 31.0794 13.22C25.5602 16.3958 20.7271 20.697 17.0425 25.3836C16.5954 25.9849 16.156 26.5784 15.7167 27.1642C15.2773 27.7501 14.8225 28.3205 14.4756 28.9448C13.7433 30.1782 12.9802 31.3575 12.3096 32.5523C11.716 33.7856 11.1379 34.9804 10.5829 36.1366C10.0433 37.3083 9.68875 38.5031 9.25708 39.6131C9.05667 40.1758 8.83312 40.7153 8.66354 41.2626C8.52479 41.8176 8.38604 42.3495 8.255 42.8814C7.98521 43.9374 7.73083 44.9318 7.48417 45.8722C7.19896 47.7915 6.94458 49.4642 6.74417 50.8363C6.60542 53.619 6.52833 55.2146 6.52833 55.2146C6.52062 55.3533 6.39729 55.4689 6.25083 55.4689C6.10437 55.4689 5.98875 55.3533 5.99646 55.2069C5.99646 55.2069 6.08125 53.6035 6.22 50.79C6.405 49.3948 6.69021 47.7067 6.96771 45.772C7.20667 44.8238 7.46875 43.8141 7.73854 42.7503C7.87729 42.2185 8.01604 41.6712 8.15479 41.1085C8.32437 40.5535 8.54792 40.0139 8.74833 39.4435C9.18771 38.3258 9.54229 37.1156 10.0896 35.9285C10.6523 34.7569 11.2381 33.5467 11.8394 32.2979C12.51 31.0955 13.2808 29.9007 14.0285 28.6519C14.3754 28.0121 14.8379 27.4417 15.285 26.8482C15.7321 26.2547 16.1715 25.6534 16.6262 25.0522C20.3494 20.3116 25.2442 15.9642 30.8173 12.7575C36.375 9.52005 42.5879 7.46195 48.5542 6.63717C54.5281 5.82009 60.2246 6.04363 64.9575 6.97633C65.5587 7.04571 66.1292 7.20758 66.6842 7.35404C67.2469 7.50049 67.7865 7.63924 68.3183 7.77799C69.3821 8.0632 70.4073 8.26361 71.3092 8.64902C72.2265 8.98819 73.0898 9.29652 73.8837 9.58943C74.2769 9.74359 74.67 9.86693 75.0246 10.0211C75.3715 10.1907 75.7106 10.3525 76.0267 10.5067C77.2985 11.1157 78.2929 11.5936 78.9712 11.925C79.3181 12.0792 79.5494 12.2488 79.719 12.349C79.8885 12.4492 79.9733 12.5031 79.9733 12.5031C80.0967 12.5725 80.1352 12.7421 80.0581 12.8654C79.9887 12.9888 79.8346 13.035 79.7112 12.9579Z" fill="#606161"/>
<path d="M4.41592 50.1265C4.3928 50.273 4.25405 50.3809 4.10759 50.3655L1.0628 50.0494C0.916339 50.034 0.816131 49.8953 0.839256 49.7411C0.862381 49.5869 1.00113 49.4713 1.14759 49.4867L4.19238 49.8336C4.33884 49.849 4.43905 49.9801 4.41592 50.1265Z" fill="#606161"/>
<path d="M24.3359 14.8614C24.2202 14.9461 24.0507 14.923 23.9582 14.8074L22.085 12.387C21.9925 12.2714 22.0234 12.1018 22.1467 12.0093C22.27 11.9168 22.4473 11.9322 22.5321 12.0478L24.3821 14.4914C24.4746 14.607 24.4515 14.7766 24.3359 14.8614Z" fill="#606161"/>
<path d="M49.4768 4.60935C49.3303 4.63247 49.1993 4.52456 49.1839 4.38581L48.8062 1.34876C48.7907 1.2023 48.8987 1.06355 49.0528 1.04043C49.207 1.0173 49.3457 1.11751 49.3612 1.26397L49.708 4.30873C49.7312 4.45518 49.6232 4.58622 49.4768 4.60935Z" fill="#606161"/>
<path d="M54.9331 4.24758C54.7867 4.25529 54.6633 4.13966 54.6633 3.99321L54.6094 0.925322C54.6094 0.778865 54.7327 0.655533 54.8946 0.647825C55.0487 0.640117 55.1798 0.755741 55.1798 0.902197L55.2029 3.97008C55.2029 4.11654 55.0873 4.23987 54.9331 4.24758Z" fill="#606161"/>
<path d="M73.5043 7.47744C73.3655 7.42348 73.2961 7.26932 73.3424 7.13828L74.3907 4.2631C74.4524 4.11665 74.6066 4.04727 74.7607 4.10123C74.9072 4.15519 74.9843 4.30935 74.938 4.4481L73.8511 7.31557C73.7972 7.45432 73.643 7.52369 73.5043 7.47744Z" fill="#606161"/>
<path d="M9.98387 31.851C9.9222 31.9821 9.76033 32.036 9.62929 31.9744L6.90824 30.5638C6.7772 30.4944 6.73095 30.3248 6.79262 30.186C6.86199 30.0473 7.02387 29.9856 7.15491 30.055L9.86054 31.4887C9.99158 31.5581 10.0532 31.72 9.98387 31.851Z" fill="#606161"/>
<path d="M13.1453 26.5853C13.0605 26.7086 12.8832 26.7317 12.7676 26.6546L10.2316 24.928C10.1082 24.8432 10.0851 24.6813 10.1776 24.5503C10.2701 24.4192 10.4474 24.3884 10.563 24.4732L13.0837 26.223C13.207 26.3078 13.2301 26.4696 13.1453 26.5853Z" fill="#606161"/>
<path d="M83.246 102.435C83.246 102.435 83.6237 102.211 84.3252 101.78C85.0266 101.348 86.0826 100.755 87.2929 99.791C88.5031 98.8429 90.0833 97.8254 91.6172 96.3223C92.4035 95.5977 93.2668 94.8423 94.1302 94.0098C94.9395 93.1233 95.7874 92.1829 96.6739 91.2117C100.104 87.2188 103.565 82.0312 106.016 75.8954C108.498 69.7827 109.925 62.7605 109.932 55.7229C109.925 48.6853 108.498 41.663 106.016 35.5504C103.557 29.4146 100.096 24.2347 96.6739 20.2341C95.7874 19.2629 94.9395 18.3225 94.1302 17.436C93.2591 16.6035 92.4035 15.8558 91.6172 15.1312C90.0833 13.6281 88.5031 12.6106 87.2929 11.6625C86.0826 10.699 85.0266 10.1132 84.3252 9.6815C83.6237 9.24984 83.246 9.01859 83.246 9.01859C82.9762 8.85672 82.8837 8.51755 83.0302 8.26318C83.1766 8.00881 83.5158 7.93173 83.7856 8.0936C83.7856 8.0936 84.171 8.32485 84.8879 8.76422C85.6047 9.20359 86.6839 9.80483 87.9095 10.7915C89.1429 11.755 90.7539 12.7956 92.3187 14.3296C93.1281 15.0696 93.9991 15.8327 94.8856 16.6806C95.7104 17.5902 96.5814 18.5383 97.4833 19.5404C100.975 23.6103 104.506 28.9059 107.011 35.1573C109.539 41.3933 110.996 48.5542 110.996 55.7229C110.996 62.8993 109.539 70.0602 107.011 76.2962C104.506 82.5553 100.975 87.8355 97.4833 91.9131C96.5814 92.9075 95.7104 93.8633 94.8856 94.7652C93.9991 95.6131 93.1281 96.3839 92.3187 97.1239C90.7539 98.6579 89.1429 99.6985 87.9095 100.662C86.6762 101.641 85.6047 102.25 84.8879 102.689C84.171 103.121 83.7856 103.36 83.7856 103.36C83.5158 103.522 83.1766 103.452 83.0302 103.198C82.8837 102.936 82.9762 102.597 83.246 102.435Z" fill="#606161"/>
<path d="M80.586 97.9642C80.586 97.9642 80.9251 97.7561 81.5649 97.3706C82.197 96.9852 83.1606 96.4534 84.2474 95.5746C85.342 94.719 86.7835 93.8017 88.1633 92.4374C88.8801 91.7822 89.651 91.1038 90.4449 90.3561C91.1772 89.5468 91.9481 88.7066 92.7497 87.8201C95.8485 84.1972 98.9781 79.5106 101.198 73.9684C103.441 68.4416 104.736 62.1054 104.736 55.7307C104.728 49.3559 103.441 43.0121 101.198 37.4929C98.9781 31.9507 95.8485 27.2641 92.7497 23.6489C91.9481 22.7625 91.1772 21.9146 90.4449 21.1129C89.6587 20.3652 88.8801 19.6869 88.1633 19.024C86.7835 17.6596 85.342 16.75 84.2474 15.8867C83.1606 15.0157 82.197 14.4838 81.5649 14.0907C80.9251 13.7053 80.586 13.4972 80.586 13.4972C80.4627 13.4278 80.4318 13.2582 80.5012 13.1349C80.5783 13.0038 80.7324 12.9653 80.8558 13.0424C80.8558 13.0424 81.2026 13.2505 81.8424 13.6359C82.4899 14.029 83.4535 14.5686 84.5558 15.4551C85.6658 16.3184 87.1149 17.2434 88.5101 18.6309C89.2347 19.2938 90.021 19.9798 90.8149 20.7352C91.5549 21.5523 92.3335 22.4079 93.1429 23.3021C96.2724 26.9635 99.4406 31.6963 101.684 37.3002C103.95 42.881 105.253 49.2943 105.26 55.7384C105.253 62.1825 103.95 68.5957 101.684 74.1765C99.4406 79.7804 96.2724 84.5133 93.1429 88.1747C92.3335 89.0689 91.5549 89.9245 90.8149 90.7416C90.021 91.497 89.2347 92.183 88.5101 92.8459C87.1149 94.2257 85.6581 95.1507 84.5558 96.0217C83.4612 96.9082 82.4899 97.44 81.8424 97.8331C81.1949 98.2263 80.8558 98.4344 80.8558 98.4344C80.7324 98.5038 80.5783 98.4652 80.5012 98.3419C80.4318 98.1954 80.4627 98.0336 80.586 97.9642Z" fill="#606161"/>
<path d="M86.0379 14.2219C85.9223 14.1371 85.8915 13.9675 85.984 13.8442L87.7877 11.3621C87.8725 11.2465 88.0498 11.2234 88.1731 11.3159C88.2965 11.4084 88.3273 11.5779 88.2425 11.7013L86.4156 14.1602C86.3231 14.2835 86.1535 14.3067 86.0379 14.2219Z" fill="#606161"/>
<path d="M106.644 49.071C106.621 48.9245 106.721 48.7935 106.867 48.7704L109.905 48.3618C110.051 48.3464 110.19 48.4543 110.213 48.6085C110.236 48.7626 110.136 48.9014 109.989 48.9245L106.945 49.3022C106.806 49.3253 106.667 49.2174 106.644 49.071Z" fill="#606161"/>
<path d="M102.975 75.9962C103.036 75.8651 103.198 75.8035 103.337 75.8574L106.158 77.0522C106.297 77.1139 106.351 77.2757 106.282 77.4145C106.212 77.5532 106.05 77.6226 105.912 77.5686L103.098 76.343C102.967 76.2814 102.913 76.1272 102.975 75.9962Z" fill="#606161"/>
<path d="M100.547 80.8904C100.624 80.767 100.786 80.7208 100.917 80.7902L103.6 82.2779C103.731 82.3472 103.769 82.5168 103.685 82.6478C103.607 82.7789 103.438 82.8328 103.307 82.7635L100.64 81.2449C100.509 81.1756 100.47 81.0137 100.547 80.8904Z" fill="#606161"/>
<path d="M88.4801 95.3816C88.5881 95.2814 88.7499 95.2968 88.8501 95.4047L90.8235 97.7557C90.916 97.8714 90.9006 98.041 90.7849 98.1489C90.6693 98.2568 90.492 98.2414 90.3995 98.1257L88.457 95.7516C88.3491 95.6437 88.3722 95.4818 88.4801 95.3816Z" fill="#606161"/>
<path d="M99.0866 28.1655C99.0096 28.0422 99.0481 27.8726 99.1714 27.7955L101.746 26.1383C101.869 26.0535 102.039 26.0997 102.124 26.2385C102.209 26.3695 102.17 26.5468 102.047 26.6239L99.4489 28.258C99.3256 28.3274 99.1637 28.2889 99.0866 28.1655Z" fill="#606161"/>
<path d="M102.057 33.5312C101.995 33.4002 102.049 33.2383 102.18 33.1767L104.94 31.8354C105.071 31.7738 105.233 31.8354 105.302 31.9742C105.371 32.1129 105.317 32.2825 105.186 32.3442L102.419 33.6546C102.28 33.7239 102.118 33.67 102.057 33.5312Z" fill="#606161"/>
<path d="M1.33804 56.2856C1.33804 56.2856 1.42283 58.0431 1.58471 61.1187C1.78513 62.6449 2.08575 64.4872 2.4095 66.607C2.67159 67.6476 2.95679 68.7499 3.24971 69.9215C3.40388 70.5074 3.55804 71.1009 3.71221 71.7098C3.89721 72.3111 4.14388 72.9123 4.35971 73.5367C4.82992 74.77 5.23846 76.0881 5.82429 77.3754C6.44096 78.6627 7.08075 79.9885 7.73596 81.3452C8.46825 82.6633 9.30846 83.9737 10.1255 85.338C10.511 86.0318 11.012 86.6638 11.4976 87.3113C11.9833 87.9588 12.4766 88.614 12.9699 89.2769C17.0399 94.4569 22.3895 99.2129 28.4868 102.728C34.5687 106.266 41.3674 108.524 47.8964 109.426C54.4253 110.32 60.6537 110.066 65.8337 109.049C66.4889 108.972 67.1133 108.794 67.7222 108.64C68.3312 108.486 68.9324 108.324 69.5106 108.178C70.6745 107.869 71.7922 107.638 72.7866 107.222C73.7964 106.852 74.7368 106.505 75.6078 106.189C76.0395 106.027 76.4635 105.881 76.8566 105.719C77.242 105.534 77.6043 105.364 77.9512 105.194C79.3387 104.524 80.4256 104 81.1733 103.645C81.551 103.476 81.8131 103.291 81.9981 103.19C82.1753 103.082 82.2756 103.028 82.2756 103.028C82.5376 102.867 82.8768 102.944 83.0233 103.198C83.1697 103.452 83.0695 103.792 82.7997 103.953C82.7997 103.953 82.7072 104.015 82.5145 104.123C82.3295 104.231 82.0597 104.416 81.6743 104.593C80.9189 104.956 79.8012 105.495 78.3906 106.173C78.036 106.343 77.666 106.52 77.2728 106.713C76.872 106.883 76.4403 107.021 76.001 107.191C75.1145 107.515 74.151 107.869 73.1258 108.239C72.116 108.663 70.9674 108.902 69.7881 109.218C69.1945 109.372 68.5855 109.527 67.9612 109.688C67.3368 109.85 66.7047 110.028 66.0341 110.105C60.7539 111.153 54.4099 111.407 47.7499 110.49C41.0976 109.573 34.1601 107.268 27.9549 103.661C21.7343 100.076 16.2845 95.2354 12.1297 89.9476C11.621 89.277 11.1276 88.6063 10.6343 87.9434C10.141 87.2805 9.63221 86.6407 9.23909 85.9316C8.40659 84.5441 7.55096 83.2106 6.80325 81.8616C6.13263 80.4741 5.48513 79.1252 4.85304 77.8148C4.25179 76.4967 3.83554 75.1477 3.35763 73.8913C3.13409 73.2592 2.88742 72.6503 2.69471 72.0259C2.53284 71.4015 2.37867 70.7926 2.2245 70.199C1.92388 69.012 1.63867 67.8866 1.36888 66.8228C1.03742 64.6645 0.736793 62.776 0.528668 61.2266C0.366793 58.0894 0.282001 56.301 0.282001 56.301C0.266585 55.985 0.490126 55.7306 0.790752 55.7306C1.06825 55.7229 1.32263 55.9773 1.33804 56.2856Z" fill="#606161"/>
<path d="M6.52432 56.2392C6.52432 56.2392 6.60141 57.8271 6.74016 60.6098C6.94828 61.9895 7.19495 63.6545 7.48016 65.5739C7.71911 66.5143 7.97349 67.5086 8.25099 68.5647C8.38203 69.0888 8.52078 69.6361 8.65953 70.1834C8.82911 70.7307 9.05266 71.2703 9.25307 71.833C9.68474 72.943 10.0393 74.1455 10.5789 75.3094C11.1339 76.4656 11.712 77.6681 12.3056 78.9014C12.9685 80.0885 13.7393 81.2756 14.4716 82.5012C14.8185 83.1333 15.2733 83.7037 15.7127 84.2895C16.152 84.8753 16.5914 85.4689 17.0385 86.0624C20.7231 90.7567 25.5639 95.0502 31.0754 98.226C36.5791 101.425 42.7149 103.468 48.6195 104.285C54.5241 105.094 60.1666 104.871 64.8456 103.946C65.4391 103.884 66.0018 103.722 66.5568 103.576C67.1118 103.437 67.6514 103.298 68.1756 103.159C69.2239 102.874 70.2414 102.674 71.1356 102.304C72.0452 101.972 72.8931 101.656 73.6793 101.371C74.0724 101.225 74.4579 101.101 74.8124 100.947C75.1593 100.777 75.4908 100.616 75.7991 100.469C77.0556 99.8679 78.0422 99.39 78.7129 99.0662C79.0597 98.9198 79.291 98.7502 79.4529 98.6577C79.6224 98.5575 79.6995 98.5035 79.6995 98.5035C79.8229 98.4264 79.977 98.4727 80.0464 98.6037C80.1235 98.7271 80.0772 98.8966 79.9616 98.9737C79.9616 98.9737 79.8768 99.0277 79.7072 99.1279C79.5376 99.2204 79.3064 99.3977 78.9595 99.5441C78.2812 99.8679 77.2868 100.354 76.0149 100.962C75.6989 101.117 75.3674 101.279 75.0129 101.448C74.6583 101.602 74.2651 101.726 73.872 101.872C73.0781 102.165 72.2147 102.481 71.2974 102.82C70.3956 103.206 69.3626 103.406 68.3066 103.691C67.7747 103.83 67.2274 103.969 66.6724 104.115C66.1174 104.262 65.547 104.431 64.9458 104.485C60.2129 105.426 54.5087 105.649 48.5424 104.832C42.5762 104.007 36.371 101.949 30.8056 98.7117C25.2324 95.505 20.3377 91.1576 16.6145 86.417C16.1597 85.8157 15.7127 85.2145 15.2733 84.621C14.8262 84.0274 14.3714 83.457 14.0168 82.8172C13.2768 81.5685 12.506 80.3737 11.8277 79.1712C11.2264 77.9302 10.6483 76.72 10.0779 75.5484C9.53828 74.369 9.17599 73.1588 8.73661 72.0334C8.5362 71.463 8.31266 70.9157 8.14307 70.3684C7.99661 69.8134 7.85786 69.2661 7.72682 68.7343C7.45703 67.6705 7.19495 66.6607 6.95599 65.7126C6.67078 63.7701 6.39328 62.0897 6.20828 60.6946C6.06953 57.881 5.98474 56.27 5.98474 56.27C5.97703 56.1313 6.09266 56.0157 6.23911 56.0079C6.39328 55.9771 6.51661 56.0927 6.52432 56.2392Z" fill="#606161"/>
<path d="M76.366 102.859C76.497 102.798 76.6512 102.852 76.7129 102.983L77.9616 105.781C78.0233 105.912 77.9539 106.074 77.8152 106.143C77.6764 106.213 77.5068 106.159 77.4529 106.028L76.2272 103.214C76.181 103.083 76.235 102.921 76.366 102.859Z" fill="#606161"/>
<path d="M35.8365 103.291C35.9752 103.345 36.0446 103.491 35.9907 103.63L34.8267 106.466C34.7727 106.597 34.6032 106.667 34.4567 106.613C34.3102 106.559 34.2332 106.405 34.2948 106.266L35.4896 103.445C35.5436 103.306 35.7055 103.244 35.8365 103.291Z" fill="#606161"/>
<path d="M14.4352 86.5711C14.52 86.6867 14.4969 86.8563 14.3812 86.9488L11.9377 88.7988C11.8221 88.8836 11.6525 88.8605 11.5523 88.7371C11.4598 88.6061 11.4752 88.4365 11.5908 88.344L14.0575 86.5172C14.1808 86.4247 14.3427 86.4555 14.4352 86.5711Z" fill="#606161"/>
<path d="M11.386 82.0306C11.4631 82.1539 11.4245 82.3235 11.2935 82.4006L8.66496 83.9808C8.54162 84.0578 8.37204 84.0116 8.28725 83.8728C8.20246 83.7341 8.241 83.5645 8.37204 83.4951L11.016 81.9381C11.1393 81.861 11.3089 81.9072 11.386 82.0306Z" fill="#606161"/>
<path d="M4.88499 64.3562C4.90812 64.5026 4.80791 64.6414 4.66145 64.6645L1.63978 65.1964C1.49333 65.2195 1.35458 65.1116 1.33145 64.9574C1.30833 64.8033 1.40853 64.6568 1.54728 64.6337L4.56895 64.1404C4.73083 64.1095 4.86187 64.2097 4.88499 64.3562Z" fill="#606161"/>
<path d="M57.752 107.129C57.8984 107.122 58.0217 107.237 58.0295 107.384L58.1759 110.444C58.1836 110.59 58.0603 110.721 57.9061 110.721C57.752 110.729 57.6132 110.621 57.6132 110.467L57.5053 107.399C57.4899 107.26 57.6055 107.137 57.752 107.129Z" fill="#606161"/>
<path d="M51.6191 107.036C51.7655 107.044 51.8812 107.168 51.8658 107.314L51.6422 110.374C51.6345 110.521 51.4958 110.636 51.3416 110.621C51.1797 110.613 51.0641 110.49 51.0795 110.343L51.3339 107.291C51.3416 107.144 51.4726 107.029 51.6191 107.036Z" fill="#606161"/>
<path d="M77.9307 49.7566H37.0997L74.4388 32.9063C75.6953 32.3359 76.2503 30.8636 75.6876 29.6149L73.5986 24.9977C73.0282 23.7412 71.5636 23.1862 70.3072 23.7489L32.0738 41.0077C30.8174 41.5704 30.2624 43.0427 30.8251 44.2991L32.9141 48.9164C33.1838 49.5253 33.6772 49.9647 34.2399 50.2036C33.6463 50.6276 33.2532 51.329 33.2532 52.1153V74.4461C33.2532 76.8434 35.2034 78.7858 37.6007 78.7858H75.942C78.3393 78.7858 80.2895 76.8434 80.2895 74.4461V52.1076C80.2895 50.8126 79.2334 49.7566 77.9307 49.7566ZM63.678 29.0291L70.762 25.8301L67.9947 33.5307L60.7334 36.8067L63.678 29.0291ZM51.1751 34.6715L58.4749 31.3801L55.3838 39.2194L48.2459 42.4414L51.1751 34.6715ZM38.6799 40.3062L45.8178 37.0842L42.8809 44.8541L35.743 48.0762L38.6799 40.3062Z" fill="#ED2224"/>
</g>
<defs>
<clipPath id="clip0_3703_2744">
<rect width="111" height="110.999" fill="white"/>
</clipPath>
</defs>
</svg>
