<svg xmlns="http://www.w3.org/2000/svg" width="111" height="111" fill="none"><path fill="#fff" d="M0 0h111v111H0z"/><path fill="#4A4A49" d="M55.586 106.975h.011c6.7 0 13.498-1.35 19.66-3.903a51.104 51.104 0 0 0 8.887-4.755A51.767 51.767 0 0 0 98.322 84.14a51.21 51.21 0 0 0 4.755-8.887 51.814 51.814 0 0 0 3.902-19.67 51.81 51.81 0 0 0-3.902-19.67 51.186 51.186 0 0 0-4.755-8.888 51.779 51.779 0 0 0-14.178-14.178 51.13 51.13 0 0 0-8.887-4.755c-6.162-2.553-12.96-3.902-19.66-3.902h-.021c-6.7 0-13.498 1.35-19.66 3.902a51.158 51.158 0 0 0-8.887 4.755A51.772 51.772 0 0 0 12.85 27.023a51.146 51.146 0 0 0-4.754 8.888 51.809 51.809 0 0 0-3.903 19.67 51.819 51.819 0 0 0 3.903 19.67 51.174 51.174 0 0 0 4.754 8.888 51.868 51.868 0 0 0 6.396 7.783 51.847 51.847 0 0 0 7.783 6.395 51.104 51.104 0 0 0 8.887 4.755 51.82 51.82 0 0 0 19.66 3.903h.01Zm.011.65h-.022a52.482 52.482 0 0 1-19.908-3.952 51.81 51.81 0 0 1-9-4.815 52.507 52.507 0 0 1-7.88-6.475 52.51 52.51 0 0 1-6.477-7.881 51.812 51.812 0 0 1-4.815-9C4.908 69.257 3.54 62.37 3.543 55.581c-.002-6.789 1.365-13.677 3.952-19.92a51.787 51.787 0 0 1 4.815-9 52.547 52.547 0 0 1 6.475-7.881h.001a52.507 52.507 0 0 1 7.88-6.476 51.782 51.782 0 0 1 9-4.815c6.24-2.586 13.126-3.952 19.91-3.952h.02c6.786 0 13.67 1.366 19.91 3.952a51.758 51.758 0 0 1 9 4.815 52.553 52.553 0 0 1 7.881 6.476 52.546 52.546 0 0 1 6.476 7.88 51.787 51.787 0 0 1 4.815 9.001c2.586 6.243 3.953 13.131 3.952 19.92a52.496 52.496 0 0 1-3.952 19.92 51.816 51.816 0 0 1-4.815 9 52.54 52.54 0 0 1-6.476 7.88 52.51 52.51 0 0 1-7.88 6.476 51.786 51.786 0 0 1-9.001 4.815 52.48 52.48 0 0 1-19.909 3.952Z"/><path fill="#4A4A49" d="M28.777 96.945a48.929 48.929 0 0 0 17.444 7.026 49.894 49.894 0 0 0 18.805-.016c.186-.644.36-1.277.514-1.883.174-.689.339-1.388.49-2.077l.043-.2.198-.047a45.065 45.065 0 0 0 12.054-4.82 45.717 45.717 0 0 0 10.199-8.05 45.398 45.398 0 0 0 7.516-10.59c1.982-3.866 3.395-8 4.199-12.286l.037-.2.196-.054a62.131 62.131 0 0 0 2.051-.594 66.508 66.508 0 0 0 1.856-.61c.884-6.21.561-12.7-.938-18.781A49.268 49.268 0 0 0 95.532 26.7c-.59.09-1.223.2-1.927.33-.642.119-1.325.26-2.088.432l-.2.046-.126-.16a45.706 45.706 0 0 0-9.445-8.928 45.072 45.072 0 0 0-11.572-5.882A45.44 45.44 0 0 0 57.4 10.18a45.554 45.554 0 0 0-12.922 1.335l-.198.05-.131-.156a59.647 59.647 0 0 0-2.726-3.046 50.636 50.636 0 0 0-5.575 2.041 50.125 50.125 0 0 0-5.454 2.802 50.149 50.149 0 0 0-5.063 3.462 51.5 51.5 0 0 0-4.595 4.06 49.559 49.559 0 0 0-8.15 10.744 49.109 49.109 0 0 0-4.872 12.365c.494.426.996.848 1.495 1.255.553.446 1.12.888 1.683 1.313l.163.123-.04.2a45.573 45.573 0 0 0-.678 12.975 45.335 45.335 0 0 0 3.005 12.635 45.077 45.077 0 0 0 6.468 11.256 45.74 45.74 0 0 0 9.393 8.983l.166.119-.036.2a59.662 59.662 0 0 0-.557 4.049Zm26.802 8.563a50.13 50.13 0 0 1-9.482-.898 49.589 49.589 0 0 1-17.842-7.229l-.164-.107.019-.196a58.59 58.59 0 0 1 .548-4.092 46.374 46.374 0 0 1-9.36-8.99 45.714 45.714 0 0 1-6.56-11.419 45.98 45.98 0 0 1-3.049-12.815 46.276 46.276 0 0 1 .649-12.96A68.99 68.99 0 0 1 8.8 45.597a66.93 66.93 0 0 1-1.662-1.4l-.15-.13.047-.191a49.805 49.805 0 0 1 4.983-12.723 50.183 50.183 0 0 1 8.257-10.886h.001a52.232 52.232 0 0 1 4.654-4.113 50.69 50.69 0 0 1 5.13-3.507 50.635 50.635 0 0 1 5.528-2.84 51.181 51.181 0 0 1 5.84-2.125l.19-.057.136.143a59.52 59.52 0 0 1 2.762 3.066 46.216 46.216 0 0 1 12.91-1.304c4.421.174 8.78.979 12.957 2.392A45.701 45.701 0 0 1 82.12 17.89a46.334 46.334 0 0 1 9.452 8.894 59.91 59.91 0 0 1 4.058-.757l.194-.028.117.158a49.896 49.896 0 0 1 8.13 17.45 50.461 50.461 0 0 1 .922 19.227l-.028.195-.187.066a60.846 60.846 0 0 1-3.94 1.227 45.805 45.805 0 0 1-4.22 12.263 46.082 46.082 0 0 1-7.624 10.742 46.352 46.352 0 0 1-10.344 8.163 45.706 45.706 0 0 1-12.03 4.842c-.14.631-.29 1.27-.45 1.9a65.418 65.418 0 0 1-.576 2.095l-.055.19-.193.038a50.208 50.208 0 0 1-9.768.953Z"/><path fill="#4A4A49" d="m74.23 20.414-.406-.213 1.616-3.077.405.213-1.615 3.077ZM77.05 22.063l-.386-.244 1.857-2.938.387.244-1.857 2.938ZM79.736 23.938l-.365-.275 2.088-2.78.366.276-2.089 2.779ZM82.256 26.016l-.342-.303 2.304-2.602.343.304-2.305 2.6ZM84.606 28.297l-.317-.33 2.507-2.407.316.33-2.506 2.407ZM86.758 30.758l-.29-.354 2.692-2.198.29.354-2.692 2.198ZM88.709 33.375l-.26-.376 2.86-1.976.26.378-2.86 1.974ZM90.44 36.156l-.23-.396 3.01-1.737.23.396-3.01 1.737ZM91.945 39.07l-.195-.413 3.14-1.49.195.413-3.14 1.49ZM93.213 42.086l-.162-.428 3.25-1.232.162.428-3.25 1.232ZM94.228 45.188l-.126-.44 3.337-.966.128.439-3.339.967ZM94.995 48.367l-.093-.448 3.406-.695.092.448-3.406.695ZM95.5 51.61l-.055-.455 3.45-.419.056.455-3.45.418ZM95.745 54.867l-.018-.457 3.472-.14.018.458-3.472.14ZM95.727 58.133l.018-.457 3.472.14-.018.457-3.472-.14ZM95.445 61.386l.055-.454 3.45.42-.054.453-3.45-.42ZM94.906 64.625l.092-.448 3.406.695-.092.448-3.406-.695ZM94.102 67.783l.126-.44 3.339.968-.128.439-3.337-.967ZM93.05 70.892l.163-.427 3.25 1.233-.162.427-3.25-1.233ZM91.75 73.893l.195-.413 3.14 1.49-.195.413-3.14-1.49ZM90.21 76.778l.23-.396 3.01 1.738-.23.396-3.01-1.738ZM88.45 79.533l.259-.376 2.86 1.975-.26.376-2.86-1.975ZM86.469 82.138l.289-.354 2.692 2.198-.29.354-2.691-2.198ZM84.29 84.577l.316-.33 2.506 2.408-.316.33-2.507-2.408Z"/><path fill="#4A4A49" d="M55.15 14.458c-5.308 0-10.389.997-15.065 2.81l.088.352A41.233 41.233 0 0 1 55.15 14.82c22.853 0 41.445 18.592 41.445 41.445S78.003 97.71 55.15 97.71 13.705 79.117 13.705 56.264a41.191 41.191 0 0 1 3.367-16.355l-.35-.103a41.573 41.573 0 0 0-3.378 16.458c0 23.052 18.755 41.806 41.806 41.806 23.052 0 41.806-18.754 41.806-41.806 0-23.052-18.754-41.806-41.806-41.806Z"/><path fill="#4A4A49" d="M55.195 17.375c-.09 0-.09-4.3-.09-4.3.09 0 .09 4.3.09 4.3ZM56.76 17.406c-.09-.003.083-4.298.083-4.298.09.003-.082 4.298-.082 4.298ZM58.327 17.5c-.09-.007.256-4.292.256-4.292.09.007-.256 4.292-.256 4.292ZM59.885 17.664c-.09-.01.429-4.279.429-4.279.09.011-.429 4.28-.429 4.28ZM61.438 17.883c-.09-.015.6-4.257.6-4.257.09.014-.6 4.257-.6 4.257ZM62.975 18.172c-.088-.019.772-4.23.772-4.23.089.018-.772 4.23-.772 4.23ZM64.505 18.516c-.087-.022.942-4.196.942-4.196.087.022-.942 4.196-.942 4.196ZM66.016 18.914c-.086-.025 1.11-4.154 1.11-4.154.086.025-1.11 4.154-1.11 4.154ZM67.512 19.39c-.086-.028 1.275-4.106 1.275-4.106.086.03-1.275 4.107-1.275 4.107ZM68.988 19.922c-.085-.032 1.44-4.051 1.44-4.051.084.031-1.44 4.05-1.44 4.05ZM70.44 20.5c-.083-.035 1.603-3.99 1.603-3.99.083.035-1.603 3.99-1.603 3.99ZM71.87 21.14c-.081-.038 1.762-3.921 1.762-3.921.08.038-1.762 3.922-1.762 3.922ZM73.268 21.844c-.08-.041 1.918-3.848 1.918-3.848.08.042-1.918 3.848-1.918 3.848ZM74.643 22.602c-.078-.045 2.07-3.768 2.07-3.768.079.046-2.07 3.768-2.07 3.768ZM75.982 23.414c-.075-.048 2.222-3.682 2.222-3.682.075.048-2.222 3.682-2.222 3.682ZM77.287 24.281c-.074-.05 2.368-3.589 2.368-3.589.074.051-2.368 3.59-2.368 3.59ZM78.556 25.203c-.072-.053 2.51-3.49 2.51-3.49.072.054-2.51 3.49-2.51 3.49ZM79.79 26.164c-.07-.057 2.649-3.387 2.649-3.387.07.057-2.649 3.387-2.649 3.387ZM80.982 27.188c-.068-.06 2.782-3.278 2.782-3.278.068.06-2.782 3.277-2.782 3.277ZM82.13 28.25c-.065-.062 2.913-3.163 2.913-3.163.064.063-2.913 3.163-2.913 3.163ZM83.24 29.36c-.063-.065 3.037-3.043 3.037-3.043.062.065-3.038 3.042-3.038 3.042ZM84.298 30.508c-.06-.068 3.157-2.918 3.157-2.918.06.067-3.157 2.918-3.157 2.918ZM85.313 31.71c-.057-.07 3.273-2.787 3.273-2.787.057.07-3.273 2.788-3.273 2.788ZM86.278 32.938c-.054-.072 3.382-2.655 3.382-2.655.055.072-3.382 2.654-3.382 2.654ZM87.192 34.21c-.051-.073 3.487-2.515 3.487-2.515.05.075-3.487 2.516-3.487 2.516ZM88.055 35.523c-.048-.075 3.585-2.373 3.585-2.373.049.075-3.585 2.373-3.585 2.373ZM88.86 36.867c-.045-.078 3.678-2.227 3.678-2.227.045.078-3.678 2.227-3.678 2.227ZM89.618 38.227c-.042-.08 3.764-2.078 3.764-2.078.042.08-3.764 2.078-3.764 2.078ZM90.313 39.64c-.039-.081 3.845-1.924 3.845-1.924.038.08-3.845 1.925-3.845 1.925ZM90.957 41.07c-.035-.083 3.92-1.768 3.92-1.768.035.083-3.92 1.768-3.92 1.768ZM91.54 42.523c-.033-.084 3.986-1.609 3.986-1.609.033.085-3.987 1.61-3.987 1.61ZM92.063 44c-.029-.085 4.048-1.447 4.048-1.447.029.085-4.048 1.447-4.048 1.447ZM92.528 45.492c-.026-.086 4.103-1.282 4.103-1.282.025.086-4.103 1.282-4.103 1.282ZM92.934 47.008c-.022-.088 4.152-1.116 4.152-1.116.02.087-4.152 1.116-4.152 1.116ZM93.273 48.54c-.018-.09 4.194-.949 4.194-.949.018.088-4.194.948-4.194.948ZM93.555 50.078c-.015-.088 4.228-.778 4.228-.778.015.09-4.228.778-4.228.778ZM93.773 51.633c-.01-.09 4.257-.608 4.257-.608.011.09-4.257.608-4.257.608ZM93.93 53.188c-.007-.091 4.277-.437 4.277-.437.008.09-4.277.437-4.277.437ZM94.023 54.75c-.003-.09 4.292-.264 4.292-.264.004.09-4.292.264-4.292.264ZM98.35 56.32h-4.3c0-.09 4.3-.09 4.3-.09v.09ZM98.31 58.063l-4.294-.174c.004-.09 4.298.083 4.298.083l-.003.09ZM98.207 59.797l-4.285-.346c.007-.09 4.292.255 4.292.255l-.007.09ZM98.028 61.523l-4.266-.518c.01-.09 4.278.429 4.278.429l-.012.09ZM97.782 63.25l-4.243-.689c.015-.089 4.258.6 4.258.6l-.015.089ZM97.47 64.945l-4.212-.86c.018-.087 4.23.772 4.23.772l-.019.088ZM97.084 66.656l-4.174-1.028c.022-.088 4.195.94 4.195.94l-.02.088ZM96.633 68.336l-4.13-1.196c.027-.087 4.155 1.109 4.155 1.109l-.025.087ZM96.112 70l-4.077-1.362c.029-.085 4.106 1.276 4.106 1.276l-.029.086ZM95.527 71.633l-4.02-1.525c.034-.084 4.053 1.44 4.053 1.44l-.033.085ZM94.877 73.25l-3.955-1.686c.035-.082 3.99 1.603 3.99 1.603l-.035.083ZM94.16 74.828l-3.883-1.843c.039-.082 3.922 1.762 3.922 1.762l-.038.081ZM93.38 76.383l-3.806-1.997c.042-.08 3.848 1.917 3.848 1.917l-.041.08ZM92.54 77.914l-3.724-2.15c.045-.077 3.768 2.071 3.768 2.071l-.045.08ZM91.637 79.398l-3.633-2.297c.048-.076 3.682 2.222 3.682 2.222l-.049.075ZM90.678 80.852l-3.537-2.442c.05-.074 3.589 2.368 3.589 2.368l-.052.074ZM89.66 82.258l-3.437-2.583c.055-.072 3.491 2.511 3.491 2.511l-.054.072ZM88.584 83.625l-3.33-2.718c.057-.07 3.387 2.648 3.387 2.648l-.057.07ZM87.456 84.96l-3.218-2.85c.06-.067 3.278 2.783 3.278 2.783l-.06.068ZM86.276 86.234l-3.1-2.978c.062-.064 3.162 2.913 3.162 2.913l-.062.065ZM85.04 87.46l-2.978-3.1c.066-.062 3.044 3.038 3.044 3.038l-.065.063ZM83.765 88.633l-2.85-3.218c.067-.06 2.917 3.157 2.917 3.157l-.067.06ZM82.437 89.766l-2.718-3.33c.069-.057 2.788 3.272 2.788 3.272l-.07.058ZM81.067 90.836 78.484 87.4c.073-.055 2.655 3.382 2.655 3.382l-.072.054ZM79.652 91.852l-2.441-3.538c.073-.051 2.516 3.486 2.516 3.486l-.075.052ZM78.2 92.813l-2.298-3.634c.076-.048 2.373 3.585 2.373 3.585l-.076.049ZM76.712 93.703l-2.15-3.723c.078-.045 2.228 3.678 2.228 3.678l-.078.045ZM75.186 94.547l-1.999-3.806c.08-.042 2.078 3.765 2.078 3.765l-.08.04ZM73.628 95.32l-1.843-3.883c.081-.039 1.924 3.844 1.924 3.844l-.08.04ZM72.04 96.04l-1.684-3.955c.083-.036 1.768 3.919 1.768 3.919l-.084.035ZM70.427 96.672l-1.525-4.02c.085-.031 1.609 3.988 1.609 3.988l-.084.032ZM68.787 97.258l-1.361-4.077c.086-.03 1.447 4.048 1.447 4.048l-.086.029ZM67.126 97.781l-1.196-4.129c.085-.025 1.282 4.103 1.282 4.103l-.087.026ZM65.443 98.227l-1.029-4.174c.087-.022 1.116 4.151 1.116 4.151l-.087.023ZM63.747 98.61l-.86-4.213c.089-.018.948 4.194.948 4.194l-.088.018ZM62.033 98.914l-.69-4.243c.09-.014.78 4.228.78 4.228l-.09.015ZM60.315 99.164l-.518-4.267c.09-.012.608 4.256.608 4.256l-.09.011ZM58.58 99.344l-.346-4.285c.09-.007.436 4.278.436 4.278l-.09.007ZM56.845 99.438l-.173-4.296c.09-.003.264 4.292.264 4.292l-.09.004ZM55.195 99.477c-.09 0-.09-4.3-.09-4.3.09 0 .09 4.3.09 4.3ZM53.456 99.438c-.09-.004.083-4.299.083-4.299.09.003-.084 4.299-.084 4.299ZM51.718 99.344c-.09-.007.256-4.292.256-4.292.09.007-.256 4.292-.256 4.292ZM49.987 99.164c-.09-.011.428-4.279.428-4.279.09.011-.428 4.28-.428 4.28ZM48.266 98.914c-.09-.015.6-4.257.6-4.257.089.014-.6 4.257-.6 4.257ZM46.553 98.61c-.088-.02.772-4.231.772-4.231.089.018-.772 4.23-.772 4.23ZM44.857 98.227c-.088-.023.941-4.196.941-4.196.088.022-.941 4.196-.941 4.196ZM43.176 97.781c-.086-.026 1.11-4.154 1.11-4.154.086.025-1.11 4.154-1.11 4.154ZM41.512 97.258c-.086-.03 1.275-4.107 1.275-4.107.086.03-1.275 4.107-1.275 4.107ZM39.874 96.672c-.083-.032 1.441-4.051 1.441-4.051.084.031-1.44 4.05-1.44 4.05ZM38.26 96.04c-.083-.036 1.603-3.99 1.603-3.99.083.035-1.602 3.99-1.602 3.99ZM36.675 95.32c-.082-.039 1.761-3.922 1.761-3.922.081.039-1.761 3.922-1.761 3.922ZM35.116 94.547c-.08-.041 1.917-3.848 1.917-3.848.08.042-1.917 3.848-1.917 3.848ZM33.588 93.703c-.078-.045 2.072-3.768 2.072-3.768.077.045-2.072 3.768-2.072 3.768ZM32.1 92.805c-.077-.048 2.221-3.681 2.221-3.681.076.048-2.221 3.68-2.221 3.68ZM30.65 91.852c-.075-.052 2.368-3.59 2.368-3.59.073.052-2.368 3.59-2.368 3.59ZM29.236 90.836c-.072-.054 2.51-3.49 2.51-3.49.073.054-2.51 3.49-2.51 3.49ZM27.865 89.766c-.07-.057 2.648-3.386 2.648-3.386.07.056-2.648 3.386-2.648 3.386ZM26.54 88.633c-.067-.06 2.783-3.278 2.783-3.278.068.06-2.783 3.278-2.783 3.278ZM25.259 87.46c-.066-.061 2.913-3.161 2.913-3.161.065.062-2.913 3.162-2.913 3.162ZM24.024 86.234c-.062-.065 3.038-3.042 3.038-3.042.063.064-3.038 3.042-3.038 3.042ZM22.845 84.96c-.06-.067 3.157-2.917 3.157-2.917.06.067-3.157 2.918-3.157 2.918ZM21.716 83.625c-.058-.07 3.272-2.788 3.272-2.788.057.07-3.272 2.788-3.272 2.788ZM20.641 82.258c-.054-.072 3.382-2.655 3.382-2.655.055.072-3.382 2.655-3.382 2.655ZM19.625 80.852c-.05-.074 3.487-2.516 3.487-2.516.051.074-3.486 2.516-3.486 2.516ZM18.665 79.398c-.05-.075 3.585-2.373 3.585-2.373.048.076-3.585 2.373-3.585 2.373ZM17.762 77.914c-.045-.079 3.678-2.227 3.678-2.227.045.078-3.678 2.227-3.678 2.227ZM16.922 76.383c-.041-.08 3.765-2.077 3.765-2.077.041.079-3.765 2.077-3.765 2.077ZM16.14 74.828c-.038-.081 3.846-1.925 3.846-1.925.038.082-3.845 1.925-3.845 1.925ZM15.426 73.25c-.035-.083 3.92-1.768 3.92-1.768.035.082-3.92 1.768-3.92 1.768ZM14.777 71.633c-.032-.084 3.987-1.608 3.987-1.608.032.084-3.986 1.608-3.986 1.608ZM14.188 70c-.029-.086 4.048-1.447 4.048-1.447.029.085-4.048 1.447-4.048 1.447ZM13.672 68.336c-.024-.087 4.104-1.283 4.104-1.283.025.087-4.104 1.283-4.104 1.283ZM13.219 66.656c-.022-.087 4.152-1.116 4.152-1.116.022.088-4.152 1.116-4.152 1.116ZM12.832 64.945c-.017-.088 4.194-.947 4.194-.947.019.088-4.194.947-4.194.947ZM12.52 63.25c-.015-.088 4.228-.778 4.228-.778.015.09-4.228.778-4.228.778ZM12.274 61.523c-.01-.09 4.257-.607 4.257-.607.01.09-4.257.607-4.257.607ZM12.094 59.797c-.007-.09 4.277-.436 4.277-.436.008.09-4.277.436-4.277.436ZM11.988 58.063c-.003-.091 4.291-.264 4.291-.264.004.09-4.29.264-4.29.264ZM16.247 56.32H11.95c0-.09 4.298-.09 4.298-.09v.09ZM16.28 54.75l-4.296-.173c.004-.09 4.299.083 4.299.083l-.004.09ZM16.374 53.188l-4.284-.346c.007-.09 4.292.255 4.292.255l-.008.09ZM16.53 51.633l-4.268-.517c.01-.09 4.277.428 4.277.428l-.01.089ZM16.747 50.078l-4.243-.689c.015-.09 4.258.601 4.258.601l-.015.088ZM17.028 48.54l-4.212-.86c.018-.089 4.23.77 4.23.77l-.018.09ZM17.368 47.008l-4.173-1.03c.022-.086 4.195.942 4.195.942l-.022.088ZM17.774 45.492l-4.13-1.196c.026-.086 4.155 1.11 4.155 1.11l-.025.086ZM18.237 44l-4.077-1.362c.028-.085 4.106 1.277 4.106 1.277l-.029.085ZM18.761 42.523 14.742 41c.032-.085 4.051 1.44 4.051 1.44l-.032.084ZM19.346 41.07l-3.955-1.685c.035-.083 3.99 1.602 3.99 1.602l-.035.083ZM41.313 19.922l-1.524-4.02c.084-.031 1.608 3.988 1.608 3.988l-.084.032ZM42.79 19.39l-1.36-4.077c.086-.029 1.447 4.05 1.447 4.05l-.086.028ZM44.286 18.914l-1.196-4.129c.086-.025 1.282 4.104 1.282 4.104l-.086.025ZM45.798 18.516l-1.029-4.174c.088-.022 1.118 4.152 1.118 4.152l-.089.022ZM47.325 18.172l-.86-4.212c.089-.019.948 4.193.948 4.193l-.088.019ZM48.865 17.883l-.69-4.243c.09-.014.78 4.228.78 4.228l-.09.015ZM50.416 17.664l-.518-4.268c.09-.01.607 4.258.607 4.258l-.089.01ZM51.974 17.5l-.345-4.285c.09-.007.435 4.278.435 4.278l-.09.007ZM53.54 17.406l-.173-4.295c.09-.003.264 4.292.264 4.292l-.09.003Z"/><path fill="#FF0038" d="M44.14 59.191h19.733a1.974 1.974 0 0 1 0 3.947H44.14a1.974 1.974 0 0 1 0-3.947Zm0-7.893h19.733a1.974 1.974 0 0 1 0 3.947H44.14a1.974 1.974 0 0 1 0-3.947Zm0-7.894h19.733a1.974 1.974 0 0 1 0 3.947H44.14a1.974 1.974 0 0 1 0-3.947Zm19.733 27.627h-10.36a1.974 1.974 0 0 1 0-3.946h10.36a1.974 1.974 0 0 1 0 3.946Zm-22.2 9.867H66.34a5.432 5.432 0 0 0 5.427-5.427V38.964a5.432 5.432 0 0 0-5.427-5.426H41.673a5.431 5.431 0 0 0-5.427 5.426v36.507a5.432 5.432 0 0 0 5.427 5.427Z"/></svg>