<svg width="111" height="111" viewBox="0 0 111 111" fill="none" xmlns="http://www.w3.org/2000/svg">
<path d="M55.5114 110.999H55.4885C48.2047 110.99 40.9928 109.558 34.2577 106.785C30.897 105.393 27.682 103.673 24.6595 101.65C18.6064 97.594 13.4054 92.393 9.34948 86.34C7.32594 83.3175 5.60598 80.1024 4.21472 76.7417C-1.40494 63.1378 -1.4049 47.8614 4.21481 34.2575C5.60604 30.8968 7.32595 27.6818 9.34948 24.6594C11.3733 21.6406 13.6862 18.8261 16.2555 16.2556C18.826 13.6864 21.6408 11.3732 24.6596 9.34947C27.6821 7.32588 30.8971 5.60595 34.2579 4.21474C40.9932 1.44136 48.2053 0.00966225 55.4892 0H55.5109C62.7949 0.00958987 70.0069 1.44132 76.7423 4.21482C80.103 5.60603 83.318 7.32597 86.3405 9.34956C92.3936 13.4054 97.5946 18.6064 101.65 24.6595C103.674 27.682 105.394 30.897 106.785 34.2577C112.405 47.8615 112.405 63.138 106.785 76.7418C105.394 80.1025 103.674 83.3176 101.65 86.3401C97.5945 92.3931 92.3935 97.5941 86.3404 101.65C83.3179 103.673 80.1028 105.393 76.7421 106.785C70.007 109.558 62.7951 110.99 55.5114 110.999ZM55.4999 110.306H55.5112C62.704 110.296 69.8257 108.883 76.4767 106.144C79.7952 104.77 82.9699 103.072 85.9544 101.074C91.9321 97.0681 97.0685 91.9318 101.074 85.9541C103.072 82.9696 104.77 79.7949 106.144 76.4765C111.694 63.0425 111.694 47.957 106.144 34.5231C104.77 31.2046 103.072 28.03 101.074 25.0455C97.0686 19.0677 91.9322 13.9314 85.9545 9.92597C82.97 7.92782 79.7954 6.22949 76.4768 4.85573C69.8256 2.11701 62.7037 0.703228 55.5107 0.693738H55.4893C48.2964 0.70312 41.1745 2.11687 34.5233 4.85563C31.2048 6.22939 28.0301 7.92773 25.0455 9.92588C19.0678 13.9314 13.9314 19.0677 9.92589 25.0454C7.92782 28.0299 6.22953 31.2045 4.85577 34.5229C-0.693605 47.9568 -0.693639 63.0423 4.85567 76.4763C6.22943 79.7948 7.92773 82.9695 9.92584 85.954C13.9313 91.9317 19.0677 97.068 25.0454 101.074C28.03 103.072 31.2046 104.77 34.5231 106.144C41.1741 108.882 48.2958 110.296 55.4886 110.306L55.4999 110.306Z" fill="#4B4B4A"/>
<path d="M55.497 108.744C48.6419 108.753 41.8499 107.436 35.4953 104.864C32.301 103.57 29.2409 101.968 26.3585 100.078L26.1833 99.9634L26.2034 99.7549C26.2697 99.0677 26.3557 98.3356 26.4737 97.4509C26.5602 96.7982 26.6634 96.1223 26.788 95.3912C23.0278 92.6787 19.6677 89.451 16.8065 85.8027C10.964 78.3604 7.40467 69.3838 6.5595 59.96C6.13983 55.3434 6.37287 50.6907 7.25177 46.1392C6.7022 45.7221 6.15114 45.291 5.61117 44.8556C5.01752 44.3721 4.4216 43.8706 3.83857 43.3638L3.67969 43.2257L3.72879 43.021C6.01673 33.4847 10.9045 24.7698 17.8486 17.8449L17.8496 17.8439C19.4155 16.2849 21.0729 14.8204 22.8129 13.4582C28.0571 9.3676 34.0256 6.30236 40.4055 4.42311L40.6078 4.36304L40.7541 4.51514C41.2908 5.0731 41.8224 5.64363 42.3339 6.21089C42.7639 6.68873 43.2121 7.20495 43.7002 7.78477C52.818 5.5409 62.3864 5.94327 71.2836 8.94468C75.7415 10.4502 79.9579 12.5934 83.8014 15.3075C87.5895 17.9809 90.9825 21.174 93.8806 24.7929C94.6187 24.6284 95.2886 24.4909 95.9222 24.374C96.7634 24.2174 97.5115 24.0906 98.209 23.9863L98.4162 23.9553L98.54 24.1243C102.611 29.7058 105.556 36.0264 107.211 42.7333C108.851 49.4416 109.185 56.4028 108.194 63.2372L108.164 63.4454L107.965 63.5145C107.233 63.769 106.492 64.0131 105.765 64.2403C105.136 64.435 104.48 64.6262 103.763 64.8233C101.993 74.0431 97.6087 82.5592 91.1325 89.356C87.8887 92.7683 84.1741 95.6998 80.1012 98.0614C76.0921 100.383 71.7725 102.122 67.2727 103.225C67.1236 103.898 66.9624 104.578 66.7925 105.251C66.608 105.97 66.4016 106.722 66.1786 107.485L66.1197 107.687L65.9133 107.728C62.4827 108.406 58.994 108.746 55.497 108.744ZM26.9145 99.6129C32.573 103.289 38.8903 105.833 45.5169 107.105C52.1424 108.371 58.9482 108.365 65.5714 107.088C65.7698 106.402 65.9542 105.727 66.1202 105.08C66.3057 104.345 66.4812 103.599 66.6415 102.865L66.6878 102.653L66.8992 102.602C71.4096 101.517 75.7393 99.786 79.7535 97.461C87.825 92.7821 94.3824 85.8829 98.6454 77.5842C100.761 73.4553 102.269 69.0423 103.122 64.4821L103.162 64.2683L103.372 64.2113C104.162 63.996 104.878 63.7888 105.558 63.5779C106.213 63.3737 106.878 63.1554 107.538 62.9282C108.479 56.2488 108.139 49.4514 106.537 42.899C104.921 36.3488 102.057 30.1712 98.1041 24.7039C97.4739 24.8009 96.799 24.9165 96.0485 25.0561C95.3633 25.1826 94.635 25.3334 93.8214 25.5173L93.6089 25.5653L93.4735 25.395C90.5868 21.758 87.1952 18.5521 83.4016 15.8746C75.7777 10.4998 66.7606 7.44756 57.4396 7.08658C52.8014 6.90019 48.1604 7.37957 43.6582 8.51008L43.4473 8.5631L43.3078 8.39644C42.7704 7.75471 42.2832 7.19181 41.8184 6.67532C41.3585 6.16532 40.8821 5.65243 40.4003 5.14867C34.1795 7.00863 28.36 10.012 23.24 14.0048C21.522 15.3498 19.8856 16.7958 18.3393 18.3352C11.5362 25.1192 6.73181 33.645 4.45288 42.9783C4.97932 43.4332 5.51506 43.8828 6.04781 44.3166C6.6374 44.792 7.24161 45.2633 7.84244 45.7164L8.01606 45.8473L7.97388 46.0606C6.16465 55.2138 7.02585 64.6942 10.4549 73.3716C12.163 77.6843 14.4862 81.7272 17.3522 85.3745C20.2178 89.0283 23.5905 92.2541 27.3683 94.9541L27.5455 95.0808L27.5083 95.2956C27.3685 96.1004 27.255 96.8354 27.1612 97.5425C27.0563 98.3297 26.977 98.994 26.9145 99.6129Z" fill="#4B4B4A"/>
<path d="M77.1039 14.7092L76.6719 14.4829L74.9521 17.7662L75.3841 17.9925L77.1039 14.7092Z" fill="#4B4B4A"/>
<path d="M80.3731 16.6197L79.9609 16.3594L77.9815 19.4931L78.3937 19.7534L80.3731 16.6197Z" fill="#4B4B4A"/>
<path d="M83.4873 18.7885L83.0977 18.4954L80.8694 21.4574L81.259 21.7505L83.4873 18.7885Z" fill="#4B4B4A"/>
<path d="M86.404 21.1995L86.0391 20.8757L83.5795 23.6481L83.9444 23.9719L86.404 21.1995Z" fill="#4B4B4A"/>
<path d="M89.1229 23.8363L88.7852 23.4844L86.1109 26.0508L86.4486 26.4027L89.1229 23.8363Z" fill="#4B4B4A"/>
<path d="M91.6207 26.6837L91.3125 26.3059L88.4405 28.6488L88.7487 29.0266L91.6207 26.6837Z" fill="#4B4B4A"/>
<path d="M93.8744 29.7237L93.5977 29.322L90.5456 31.425L90.8224 31.8267L93.8744 29.7237Z" fill="#4B4B4A"/>
<path d="M95.8808 32.9324L95.6367 32.5103L92.4283 34.3652L92.6724 34.7873L95.8808 32.9324Z" fill="#4B4B4A"/>
<path d="M97.6304 36.2968L97.4219 35.8562L94.0718 37.4422L94.2804 37.8828L97.6304 36.2968Z" fill="#4B4B4A"/>
<path d="M99.0912 39.7856L98.918 39.3298L95.4533 40.6466L95.6265 41.1023L99.0912 39.7856Z" fill="#4B4B4A"/>
<path d="M100.272 43.3861L100.137 42.9175L96.5765 43.9478L96.7121 44.4164L100.272 43.3861Z" fill="#4B4B4A"/>
<path d="M101.16 47.0651L101.062 46.5876L97.4315 47.3322L97.5294 47.8096L101.16 47.0651Z" fill="#4B4B4A"/>
<path d="M101.75 50.8074L101.691 50.3232L98.0119 50.7704L98.0708 51.2545L101.75 50.8074Z" fill="#4B4B4A"/>
<path d="M102.035 54.5856L102.016 54.0981L98.3122 54.2437L98.3313 54.7311L102.035 54.5856Z" fill="#4B4B4A"/>
<path d="M98.3086 58.2216L98.3279 57.7341L102.031 57.8838L102.012 58.3712L98.3086 58.2216Z" fill="#4B4B4A"/>
<path d="M101.691 62.1442L101.75 61.6604L98.0706 61.2126L98.0117 61.6964L101.691 62.1442Z" fill="#4B4B4A"/>
<path d="M101.066 65.8798L101.164 65.4023L97.5331 64.6578L97.4352 65.1352L101.066 65.8798Z" fill="#4B4B4A"/>
<path d="M100.138 69.5492L100.273 69.0806L96.7128 68.0517L96.5773 68.5203L100.138 69.5492Z" fill="#4B4B4A"/>
<path d="M98.9246 73.1363L99.0977 72.6802L95.6322 71.3651L95.4591 71.8213L98.9246 73.1363Z" fill="#4B4B4A"/>
<path d="M97.4164 76.6107L97.625 76.1702L94.2752 74.5843L94.0666 75.0248L97.4164 76.6107Z" fill="#4B4B4A"/>
<path d="M95.6466 79.9573L95.8906 79.5352L92.6822 77.6802L92.4381 78.1024L95.6466 79.9573Z" fill="#4B4B4A"/>
<path d="M93.6021 83.1453L93.8789 82.7437L90.8269 80.6407L90.5501 81.0423L93.6021 83.1453Z" fill="#4B4B4A"/>
<path d="M91.3091 86.1613L91.6172 85.7837L88.7454 83.4409L88.4374 83.8186L91.3091 86.1613Z" fill="#4B4B4A"/>
<path d="M88.7873 88.984L89.125 88.6328L86.4534 86.0637L86.1156 86.4149L88.7873 88.984Z" fill="#4B4B4A"/>
<path d="M55.0359 11.6514C49.5417 11.6464 44.0943 12.6623 38.9713 14.6474L39.0642 15.0241C48.5837 11.3321 59.0877 11.0488 68.7924 14.2222C78.4971 17.3957 86.8042 23.8303 92.3032 32.4334C97.8021 41.0364 100.154 51.2776 98.959 61.4178C97.7642 71.5579 93.0966 80.972 85.7486 88.0614C78.4006 95.1507 68.8254 99.4783 58.6489 100.309C48.4724 101.14 38.3219 98.4231 29.9212 92.6196C21.5206 86.8162 15.3875 78.284 12.5636 68.4719C9.73967 58.6598 10.399 48.1728 14.4295 38.7917L14.0564 38.6831C10.2825 47.496 9.45018 57.2906 11.6828 66.6139C13.9154 75.9371 19.0939 84.2923 26.4502 90.4399C33.8065 96.5875 42.9487 100.2 52.5203 100.741C62.0919 101.283 71.583 98.7243 79.5856 93.4454C87.5883 88.1666 93.676 80.4486 96.9457 71.4366C100.215 62.4246 100.493 52.5986 97.7369 43.4164C94.981 34.2342 89.3385 26.185 81.6465 20.463C73.9545 14.741 64.6228 11.651 55.0359 11.6514Z" fill="#4B4B4A"/>
<path d="M55.0879 14.7504C54.9922 14.7504 54.9922 10.166 54.9922 10.166C55.088 10.166 55.0879 14.7504 55.0879 14.7504Z" fill="#4B4B4A"/>
<path d="M56.7545 14.7849C56.658 14.7813 56.8424 10.2012 56.8424 10.2012C56.9389 10.2047 56.7545 14.7849 56.7545 14.7849Z" fill="#4B4B4A"/>
<path d="M58.426 14.8886C58.3303 14.8808 58.6992 10.3113 58.6992 10.3113C58.795 10.3191 58.426 14.8886 58.426 14.8886Z" fill="#4B4B4A"/>
<path d="M60.0854 15.058C59.9896 15.0467 60.5423 10.4956 60.5423 10.4956C60.6381 10.507 60.0854 15.058 60.0854 15.058Z" fill="#4B4B4A"/>
<path d="M61.7429 15.2953C61.6478 15.279 62.3835 10.7549 62.3835 10.7549C62.4786 10.7705 61.7429 15.2953 61.7429 15.2953Z" fill="#4B4B4A"/>
<path d="M63.3818 15.5982C63.2875 15.5784 64.2048 11.0869 64.2048 11.0869C64.2991 11.1068 63.3818 15.5982 63.3818 15.5982Z" fill="#4B4B4A"/>
<path d="M65.0173 15.9669C64.9244 15.9435 66.0212 11.4924 66.0212 11.4924C66.1148 11.5158 65.0173 15.9669 65.0173 15.9669Z" fill="#4B4B4A"/>
<path d="M66.6259 16.4011C66.5336 16.3742 67.8092 11.9707 67.8092 11.9707C67.9014 11.9977 66.6259 16.4011 66.6259 16.4011Z" fill="#4B4B4A"/>
<path d="M68.2229 16.8999C68.1314 16.8694 69.583 12.5212 69.583 12.5212C69.6745 12.5517 68.2229 16.8999 68.2229 16.8999Z" fill="#4B4B4A"/>
<path d="M69.7966 17.4626C69.7065 17.4292 71.3325 13.1428 71.3325 13.1428C71.4219 13.1762 69.7966 17.4626 69.7966 17.4626Z" fill="#4B4B4A"/>
<path d="M71.343 18.0885C71.2543 18.0509 73.0515 13.8333 73.0515 13.8333C73.1401 13.8708 71.343 18.0885 71.343 18.0885Z" fill="#4B4B4A"/>
<path d="M72.8661 18.7754C72.7795 18.7342 74.7447 14.5925 74.7447 14.5925C74.8313 14.6344 72.8661 18.7754 72.8661 18.7754Z" fill="#4B4B4A"/>
<path d="M74.3619 19.5233C74.2767 19.4793 76.4072 15.4199 76.4072 15.4199C76.4923 15.4646 74.3619 19.5233 74.3619 19.5233Z" fill="#4B4B4A"/>
<path d="M75.8225 20.3315C75.7395 20.2833 78.031 16.314 78.031 16.314C78.1147 16.3622 75.8225 20.3315 75.8225 20.3315Z" fill="#4B4B4A"/>
<path d="M77.252 21.1975C77.1711 21.1464 79.6208 17.2715 79.6208 17.2715C79.7017 17.3225 77.252 21.1975 77.252 21.1975Z" fill="#4B4B4A"/>
<path d="M78.6424 22.1209C78.5636 22.0663 81.1673 18.2935 81.1673 18.2935C81.2468 18.3481 78.6424 22.1209 78.6424 22.1209Z" fill="#4B4B4A"/>
<path d="M79.9977 23.0982C79.9204 23.0407 82.6744 19.3757 82.6744 19.3757C82.751 19.4339 79.9977 23.0982 79.9977 23.0982Z" fill="#4B4B4A"/>
<path d="M81.3139 24.1306C81.2394 24.0695 84.1382 20.5188 84.1382 20.5188C84.2127 20.5798 81.3139 24.1306 81.3139 24.1306Z" fill="#4B4B4A"/>
<path d="M82.5872 25.2146C82.5148 25.1508 85.5548 21.7192 85.5548 21.7192C85.6271 21.7831 82.5872 25.2146 82.5872 25.2146Z" fill="#4B4B4A"/>
<path d="M83.8058 26.3487C83.7363 26.282 86.9118 22.9753 86.9118 22.9753C86.9813 23.0427 83.8058 26.3487 83.8058 26.3487Z" fill="#4B4B4A"/>
<path d="M84.9932 27.5316C84.9265 27.4628 88.2325 24.2866 88.2325 24.2866C88.2992 24.3561 84.9932 27.5316 84.9932 27.5316Z" fill="#4B4B4A"/>
<path d="M86.1259 28.761C86.062 28.6886 89.4928 25.6487 89.4928 25.6487C89.5574 25.721 86.1259 28.761 86.1259 28.761Z" fill="#4B4B4A"/>
<path d="M87.2039 30.0348C87.1429 29.9603 90.6936 27.0615 90.6936 27.0615C90.7547 27.136 87.2039 30.0348 87.2039 30.0348Z" fill="#4B4B4A"/>
<path d="M88.2351 31.3509C88.1769 31.2743 91.8419 28.5203 91.8419 28.5203C91.9001 28.5969 88.2351 31.3509 88.2351 31.3509Z" fill="#4B4B4A"/>
<path d="M89.2037 32.7075C89.1491 32.6288 92.922 30.0244 92.922 30.0244C92.9766 30.1039 89.2037 32.7075 89.2037 32.7075Z" fill="#4B4B4A"/>
<path d="M90.1216 34.1021C90.0705 34.0212 93.9447 31.5708 93.9447 31.5708C93.9965 31.6517 90.1216 34.1021 90.1216 34.1021Z" fill="#4B4B4A"/>
<path d="M90.9887 35.5332C90.9412 35.4502 94.9112 33.158 94.9112 33.158C94.9587 33.2417 90.9887 35.5332 90.9887 35.5332Z" fill="#4B4B4A"/>
<path d="M91.7933 36.9978C91.7486 36.9127 95.808 34.7822 95.808 34.7822C95.8527 34.8674 91.7933 36.9978 91.7933 36.9978Z" fill="#4B4B4A"/>
<path d="M92.5355 38.494C92.4943 38.4068 96.6361 36.4417 96.6361 36.4417C96.6772 36.5282 92.5355 38.494 92.5355 38.494Z" fill="#4B4B4A"/>
<path d="M93.2229 40.0178C93.1853 39.9291 97.4029 38.1321 97.4029 38.1321C97.4398 38.2207 93.2229 40.0178 93.2229 40.0178Z" fill="#4B4B4A"/>
<path d="M93.844 41.5687C93.8099 41.4786 98.0957 39.8525 98.0957 39.8525C98.1304 39.9427 93.844 41.5687 93.844 41.5687Z" fill="#4B4B4A"/>
<path d="M94.3986 43.1429C94.3681 43.0521 98.7163 41.5999 98.7163 41.5999C98.7469 41.6907 94.3986 43.1429 94.3986 43.1429Z" fill="#4B4B4A"/>
<path d="M94.8986 44.7386C94.8716 44.6464 99.2751 43.3708 99.2751 43.3708C99.3014 43.4631 94.8986 44.7386 94.8986 44.7386Z" fill="#4B4B4A"/>
<path d="M95.3321 46.3523C95.3087 46.2594 99.7598 45.1626 99.7598 45.1626C99.7825 45.2555 95.3321 46.3523 95.3321 46.3523Z" fill="#4B4B4A"/>
<path d="M95.6954 47.9824C95.6762 47.8887 100.168 46.9714 100.168 46.9714C100.187 47.0658 95.6954 47.9824 95.6954 47.9824Z" fill="#4B4B4A"/>
<path d="M95.9961 49.6262C95.9805 49.5318 100.505 48.7961 100.505 48.7961C100.521 48.8912 95.9961 49.6262 95.9961 49.6262Z" fill="#4B4B4A"/>
<path d="M96.2266 51.2808C96.2152 51.1857 100.766 50.6331 100.766 50.6331C100.778 50.7288 96.2266 51.2808 96.2266 51.2808Z" fill="#4B4B4A"/>
<path d="M96.3945 52.9434C96.3867 52.8469 100.956 52.478 100.956 52.478C100.964 52.5745 96.3945 52.9434 96.3945 52.9434Z" fill="#4B4B4A"/>
<path d="M96.4883 54.6118C96.4847 54.5153 101.065 54.3308 101.065 54.3308C101.068 54.4273 96.4883 54.6118 96.4883 54.6118Z" fill="#4B4B4A"/>
<path d="M101.107 56.2816H96.5234C96.5234 56.1858 101.107 56.1858 101.107 56.1858V56.2816Z" fill="#4B4B4A"/>
<path d="M101.068 58.1365L96.4883 57.952C96.4918 57.8555 101.072 58.04 101.072 58.04L101.068 58.1365Z" fill="#4B4B4A"/>
<path d="M100.956 59.989L96.3867 59.6201C96.3945 59.5236 100.964 59.8925 100.964 59.8925L100.956 59.989Z" fill="#4B4B4A"/>
<path d="M100.765 61.8343L96.2148 61.2817C96.2262 61.1859 100.777 61.7385 100.777 61.7385L100.765 61.8343Z" fill="#4B4B4A"/>
<path d="M100.501 63.6706L95.9766 62.9356C95.9922 62.8413 100.517 63.5762 100.517 63.5762L100.501 63.6706Z" fill="#4B4B4A"/>
<path d="M100.163 65.4958L95.6719 64.5785C95.691 64.4848 100.183 65.4015 100.183 65.4015L100.163 65.4958Z" fill="#4B4B4A"/>
<path d="M99.7557 67.3046L95.3047 66.2078C95.3281 66.1142 99.7784 67.2117 99.7784 67.2117L99.7557 67.3046Z" fill="#4B4B4A"/>
<path d="M99.2738 69.0968L94.8711 67.8212C94.8981 67.7283 99.3008 69.0039 99.3008 69.0039L99.2738 69.0968Z" fill="#4B4B4A"/>
<path d="M98.7193 70.8679L94.3711 69.4157C94.4016 69.3249 98.7498 70.7764 98.7498 70.7764L98.7193 70.8679Z" fill="#4B4B4A"/>
<path d="M98.0951 72.6148L93.8086 70.9887C93.8434 70.8986 98.1298 72.5247 98.1298 72.5247L98.0951 72.6148Z" fill="#4B4B4A"/>
<path d="M97.4051 74.3356L93.1875 72.5386C93.2251 72.4499 97.4422 74.2469 97.4422 74.2469L97.4051 74.3356Z" fill="#4B4B4A"/>
<path d="M96.6418 76.0263L92.5 74.0612C92.5411 73.9739 96.6829 75.9398 96.6829 75.9398L96.6418 76.0263Z" fill="#4B4B4A"/>
<path d="M95.8055 77.6847L91.7461 75.555C91.7908 75.4698 95.8503 77.6003 95.8503 77.6003L95.8055 77.6847Z" fill="#4B4B4A"/>
<path d="M94.9075 79.3093L90.9375 77.0171C90.985 76.9341 94.9551 79.2256 94.9551 79.2256L94.9075 79.3093Z" fill="#4B4B4A"/>
<path d="M93.9524 80.8956L90.0781 78.4458C90.1292 78.3643 94.0042 80.8147 94.0042 80.8147L93.9524 80.8956Z" fill="#4B4B4A"/>
<path d="M92.9252 82.4423L89.1523 79.8387C89.207 79.7599 92.9798 82.3636 92.9798 82.3636L92.9252 82.4423Z" fill="#4B4B4A"/>
<path d="M91.8446 83.947L88.1797 81.193C88.2379 81.1164 91.9027 83.8704 91.9027 83.8704L91.8446 83.947Z" fill="#4B4B4A"/>
<path d="M90.6953 85.4063L87.1445 82.5075C87.2055 82.433 90.7563 85.3318 90.7563 85.3318L90.6953 85.4063Z" fill="#4B4B4A"/>
<path d="M89.4855 86.8188L86.0547 83.7789C86.1185 83.7065 89.5501 86.7464 89.5501 86.7464L89.4855 86.8188Z" fill="#4B4B4A"/>
<path d="M88.2318 88.1809L84.9258 85.0048C84.9925 84.9359 88.2985 88.1114 88.2985 88.1114L88.2318 88.1809Z" fill="#4B4B4A"/>
<path d="M86.9177 89.492L83.7422 86.1853C83.8117 86.1186 86.9872 89.4246 86.9872 89.4246L86.9177 89.492Z" fill="#4B4B4A"/>
<path d="M85.5517 90.7484L82.5117 87.3168C82.5841 87.2529 85.624 90.6838 85.624 90.6838L85.5517 90.7484Z" fill="#4B4B4A"/>
<path d="M84.1409 91.9489L81.2422 88.3975C81.316 88.3372 84.2154 91.8879 84.2154 91.8879L84.1409 91.9489Z" fill="#4B4B4A"/>
<path d="M82.6798 93.091L79.9258 89.4267C80.0024 89.3685 82.7564 93.0335 82.7564 93.0335L82.6798 93.091Z" fill="#4B4B4A"/>
<path d="M81.1701 94.1745L78.5664 90.4017C78.6452 90.3471 81.2495 94.1199 81.2495 94.1199L81.1701 94.1745Z" fill="#4B4B4A"/>
<path d="M79.6215 95.1958L77.1719 91.3208C77.2528 91.2697 79.7025 95.1447 79.7025 95.1447L79.6215 95.1958Z" fill="#4B4B4A"/>
<path d="M78.0336 96.1538L75.7422 92.1838C75.8252 92.1355 78.1173 96.1056 78.1173 96.1056L78.0336 96.1538Z" fill="#4B4B4A"/>
<path d="M76.4039 97.0464L74.2734 92.9877C74.3586 92.943 76.489 97.0024 76.489 97.0024L76.4039 97.0464Z" fill="#4B4B4A"/>
<path d="M74.7425 97.8744L72.7773 93.7327C72.8639 93.6916 74.8291 97.8326 74.8291 97.8326L74.7425 97.8744Z" fill="#4B4B4A"/>
<path d="M73.0502 98.6334L71.2539 94.4165C71.3426 94.3789 73.1389 98.5958 73.1389 98.5958L73.0502 98.6334Z" fill="#4B4B4A"/>
<path d="M71.3253 99.3249L69.6992 95.0385C69.7893 95.0052 71.4146 99.2916 71.4146 99.2916L71.3253 99.3249Z" fill="#4B4B4A"/>
<path d="M69.5844 99.9462L68.1328 95.5981C68.2243 95.5669 69.6759 99.915 69.6759 99.915L69.5844 99.9462Z" fill="#4B4B4A"/>
<path d="M67.8108 100.496L66.5352 96.0929C66.6274 96.0659 67.903 100.469 67.903 100.469L67.8108 100.496Z" fill="#4B4B4A"/>
<path d="M66.0116 100.975L64.9141 96.5238C65.0077 96.5004 66.1046 100.951 66.1046 100.951L66.0116 100.975Z" fill="#4B4B4A"/>
<path d="M64.2063 101.381L63.2891 96.8887C63.3834 96.8696 64.3008 101.361 64.3008 101.361L64.2063 101.381Z" fill="#4B4B4A"/>
<path d="M62.3841 101.713L61.6484 97.1878C61.7435 97.1722 62.4792 101.697 62.4792 101.697L62.3841 101.713Z" fill="#4B4B4A"/>
<path d="M60.5488 101.972L59.9961 97.4207C60.0919 97.4093 60.6445 101.96 60.6445 101.96L60.5488 101.972Z" fill="#4B4B4A"/>
<path d="M58.7009 102.156L58.332 97.5864C58.4278 97.5786 58.7967 102.148 58.7967 102.148L58.7009 102.156Z" fill="#4B4B4A"/>
<path d="M56.8485 102.266L56.6641 97.6858C56.7605 97.6822 56.945 102.262 56.945 102.262L56.8485 102.266Z" fill="#4B4B4A"/>
<path d="M55.0879 102.301C54.9922 102.301 54.9922 97.717 54.9922 97.717C55.088 97.717 55.0879 102.301 55.0879 102.301Z" fill="#4B4B4A"/>
<path d="M53.2307 102.266C53.1349 102.262 53.3194 97.6821 53.3194 97.6821C53.4159 97.6857 53.2307 102.266 53.2307 102.266Z" fill="#4B4B4A"/>
<path d="M51.3831 102.156C51.2873 102.148 51.6562 97.5789 51.6562 97.5789C51.752 97.5867 51.3831 102.156 51.3831 102.156Z" fill="#4B4B4A"/>
<path d="M49.5346 101.971C49.4388 101.96 49.9914 97.4089 49.9914 97.4089C50.0865 97.4203 49.5346 101.971 49.5346 101.971Z" fill="#4B4B4A"/>
<path d="M47.696 101.713C47.6009 101.697 48.3359 97.1724 48.3359 97.1724C48.4309 97.188 47.696 101.713 47.696 101.713Z" fill="#4B4B4A"/>
<path d="M45.874 101.38C45.7796 101.361 46.697 96.8691 46.697 96.8691C46.7914 96.8883 45.874 101.38 45.874 101.38Z" fill="#4B4B4A"/>
<path d="M44.0643 100.975C43.9706 100.951 45.0681 96.5002 45.0681 96.5002C45.1618 96.5236 44.0643 100.975 44.0643 100.975Z" fill="#4B4B4A"/>
<path d="M42.2665 100.497C42.1743 100.469 43.4498 96.0662 43.4498 96.0662C43.542 96.0931 42.2665 100.497 42.2665 100.497Z" fill="#4B4B4A"/>
<path d="M40.4924 99.946C40.4009 99.9148 41.8524 95.5667 41.8524 95.5667C41.9439 95.5979 40.4924 99.946 40.4924 99.946Z" fill="#4B4B4A"/>
<path d="M38.7536 99.3252C38.6642 99.2918 40.2895 95.0054 40.2895 95.0054C40.3796 95.0387 38.7536 99.3252 38.7536 99.3252Z" fill="#4B4B4A"/>
<path d="M37.0227 98.6339C36.934 98.5963 38.731 94.3794 38.731 94.3794C38.8198 94.417 37.0227 98.6339 37.0227 98.6339Z" fill="#4B4B4A"/>
<path d="M35.3348 97.8748C35.2483 97.8329 37.2134 93.6919 37.2134 93.6919C37.2999 93.733 35.3348 97.8748 35.3348 97.8748Z" fill="#4B4B4A"/>
<path d="M33.6705 97.0467C33.5853 97.0028 35.7158 92.9434 35.7158 92.9434C35.8009 92.988 33.6705 97.0467 33.6705 97.0467Z" fill="#4B4B4A"/>
<path d="M32.0452 96.1538C31.9622 96.1055 34.2544 92.1355 34.2544 92.1355C34.3374 92.1837 32.0452 96.1538 32.0452 96.1538Z" fill="#4B4B4A"/>
<path d="M30.4629 95.1949C30.3813 95.1438 32.8318 91.2695 32.8318 91.2695C32.9126 91.3206 30.4629 95.1949 30.4629 95.1949Z" fill="#4B4B4A"/>
<path d="M28.908 94.1744C28.8286 94.1197 31.4329 90.3469 31.4329 90.3469C31.5116 90.4015 28.908 94.1744 28.908 94.1744Z" fill="#4B4B4A"/>
<path d="M27.4039 93.0906C27.3273 93.0331 30.0806 89.3682 30.0806 89.3682C30.158 89.4263 27.4039 93.0906 27.4039 93.0906Z" fill="#4B4B4A"/>
<path d="M25.9428 91.948C25.8683 91.8877 28.7671 88.3369 28.7671 88.3369C28.8416 88.3972 25.9428 91.948 25.9428 91.948Z" fill="#4B4B4A"/>
<path d="M24.5286 90.7483C24.4563 90.6838 27.4963 87.2529 27.4963 87.2529C27.5686 87.3168 24.5286 90.7483 24.5286 90.7483Z" fill="#4B4B4A"/>
<path d="M23.1613 89.4911C23.0918 89.4244 26.2672 86.1184 26.2672 86.1184C26.3368 86.1851 23.1613 89.4911 23.1613 89.4911Z" fill="#4B4B4A"/>
<path d="M21.8487 88.181C21.782 88.1115 25.0879 84.936 25.0879 84.936C25.1546 85.0049 21.8487 88.181 21.8487 88.181Z" fill="#4B4B4A"/>
<path d="M20.5907 86.8184C20.5269 86.746 23.9584 83.7061 23.9584 83.7061C24.0223 83.7784 20.5907 86.8184 20.5907 86.8184Z" fill="#4B4B4A"/>
<path d="M19.3836 85.4061C19.3226 85.3316 22.8733 82.4329 22.8733 82.4329C22.9343 82.5073 19.3836 85.4061 19.3836 85.4061Z" fill="#4B4B4A"/>
<path d="M18.239 83.9472C18.1808 83.8705 21.8457 81.1165 21.8457 81.1165C21.9032 81.1931 18.239 83.9472 18.239 83.9472Z" fill="#4B4B4A"/>
<path d="M17.149 82.4419C17.0944 82.3632 20.8672 79.7595 20.8672 79.7595C20.9218 79.8383 17.149 82.4419 17.149 82.4419Z" fill="#4B4B4A"/>
<path d="M16.1294 80.8958C16.0776 80.8149 19.9526 78.3645 19.9526 78.3645C20.0036 78.4461 16.1294 80.8958 16.1294 80.8958Z" fill="#4B4B4A"/>
<path d="M15.1684 79.3093C15.1202 79.2256 19.091 76.9341 19.091 76.9341C19.1385 77.0171 15.1684 79.3093 15.1684 79.3093Z" fill="#4B4B4A"/>
<path d="M14.2738 77.6846C14.2291 77.6002 18.2885 75.4697 18.2885 75.4697C18.3332 75.5542 14.2738 77.6846 14.2738 77.6846Z" fill="#4B4B4A"/>
<path d="M13.4417 76.0263C13.3999 75.9397 17.5416 73.9739 17.5416 73.9739C17.5828 74.0611 13.4417 76.0263 13.4417 76.0263Z" fill="#4B4B4A"/>
<path d="M12.676 74.3351C12.6384 74.2464 16.8561 72.4495 16.8561 72.4495C16.8937 72.5382 12.676 74.3351 12.676 74.3351Z" fill="#4B4B4A"/>
<path d="M11.9807 72.6143C11.9466 72.5242 16.2324 70.8989 16.2324 70.8989C16.2664 70.989 11.9807 72.6143 11.9807 72.6143Z" fill="#4B4B4A"/>
<path d="M11.3595 70.868C11.329 70.7764 15.6772 69.325 15.6772 69.325C15.7077 69.4158 11.3595 70.868 11.3595 70.868Z" fill="#4B4B4A"/>
<path d="M10.8048 69.0968C10.7786 69.0038 15.1813 67.7283 15.1813 67.7283C15.2083 67.8212 10.8048 69.0968 10.8048 69.0968Z" fill="#4B4B4A"/>
<path d="M10.3204 67.3049C10.297 67.212 14.7481 66.1145 14.7481 66.1145C14.7715 66.2081 10.3204 67.3049 10.3204 67.3049Z" fill="#4B4B4A"/>
<path d="M9.91412 65.4951C9.89567 65.4015 14.3872 64.4849 14.3872 64.4849C14.4063 64.5785 9.91412 65.4951 9.91412 65.4951Z" fill="#4B4B4A"/>
<path d="M9.57426 63.6702C9.55865 63.5758 14.0835 62.8408 14.0835 62.8408C14.0991 62.9352 9.57426 63.6702 9.57426 63.6702Z" fill="#4B4B4A"/>
<path d="M9.31643 61.8344C9.30507 61.7387 13.8562 61.186 13.8562 61.186C13.8676 61.2818 9.31643 61.8344 9.31643 61.8344Z" fill="#4B4B4A"/>
<path d="M9.12892 59.9886C9.12112 59.8921 13.6899 59.5239 13.6899 59.5239C13.6985 59.6204 9.12892 59.9886 9.12892 59.9886Z" fill="#4B4B4A"/>
<path d="M9.01172 58.1364C9.00817 58.0399 13.5883 57.8555 13.5883 57.8555C13.5919 57.952 9.01172 58.1364 9.01172 58.1364Z" fill="#4B4B4A"/>
<path d="M13.5525 56.2816H8.96875C8.96875 56.1858 13.5525 56.1858 13.5525 56.1858V56.2816Z" fill="#4B4B4A"/>
<path d="M13.584 54.6113L9.00391 54.4269C9.00745 54.3304 13.5876 54.5148 13.5876 54.5148L13.584 54.6113Z" fill="#4B4B4A"/>
<path d="M13.6899 52.9436L9.12109 52.5747C9.12889 52.4782 13.6984 52.8471 13.6984 52.8471L13.6899 52.9436Z" fill="#4B4B4A"/>
<path d="M13.8519 51.2806L9.30078 50.7287C9.31213 50.6329 13.8632 51.1856 13.8632 51.1856L13.8519 51.2806Z" fill="#4B4B4A"/>
<path d="M14.0873 49.6263L9.5625 48.8913C9.57811 48.7962 14.103 49.5319 14.103 49.5319L14.0873 49.6263Z" fill="#4B4B4A"/>
<path d="M14.386 47.9825L9.89453 47.0659C9.91298 46.9715 14.4052 47.8889 14.4052 47.8889L14.386 47.9825Z" fill="#4B4B4A"/>
<path d="M14.7472 46.3521L10.2969 45.2553C10.3196 45.1624 14.7706 46.2592 14.7706 46.2592L14.7472 46.3521Z" fill="#4B4B4A"/>
<path d="M15.1762 44.7383L10.7734 43.4628C10.7997 43.3706 15.2032 44.6461 15.2032 44.6461L15.1762 44.7383Z" fill="#4B4B4A"/>
<path d="M15.6724 43.1428L11.3242 41.6906C11.3547 41.5998 15.7029 43.052 15.7029 43.052L15.6724 43.1428Z" fill="#4B4B4A"/>
<path d="M16.231 41.5689L11.9453 39.9428C11.9794 39.8527 16.2651 41.4788 16.2651 41.4788L16.231 41.5689Z" fill="#4B4B4A"/>
<path d="M16.8583 40.0177L12.6406 38.2207C12.6782 38.132 16.8958 39.929 16.8958 39.929L16.8583 40.0177Z" fill="#4B4B4A"/>
<path d="M40.2816 17.4624L38.6562 13.176C38.7456 13.1426 40.3716 17.4291 40.3716 17.4291L40.2816 17.4624Z" fill="#4B4B4A"/>
<path d="M41.8538 16.8998L40.4023 12.5517C40.4939 12.5212 41.9453 16.8693 41.9453 16.8693L41.8538 16.8998Z" fill="#4B4B4A"/>
<path d="M43.4514 16.4009L42.1758 11.9974C42.268 11.9704 43.5436 16.374 43.5436 16.374L43.4514 16.4009Z" fill="#4B4B4A"/>
<path d="M45.0623 15.967L43.9648 11.516C44.0585 11.4926 45.156 15.9436 45.156 15.9436L45.0623 15.967Z" fill="#4B4B4A"/>
<path d="M46.6986 15.5977L45.7812 11.1063C45.8756 11.0864 46.7929 15.5779 46.7929 15.5779L46.6986 15.5977Z" fill="#4B4B4A"/>
<path d="M48.3373 15.2951L47.6016 10.7703C47.6966 10.7547 48.4323 15.2788 48.4323 15.2788L48.3373 15.2951Z" fill="#4B4B4A"/>
<path d="M49.9901 15.0584L49.4375 10.5073C49.5333 10.496 50.0852 15.047 50.0852 15.047L49.9901 15.0584Z" fill="#4B4B4A"/>
<path d="M51.6541 14.8891L51.2852 10.3196C51.3809 10.3118 51.7498 14.8813 51.7498 14.8813L51.6541 14.8891Z" fill="#4B4B4A"/>
<path d="M53.3212 14.7855L53.1367 10.2053C53.2332 10.2018 53.4176 14.7819 53.4176 14.7819L53.3212 14.7855Z" fill="#4B4B4A"/>
<path d="M79.3759 32.7981C79.2991 32.5097 79.1296 32.2546 78.8936 32.0719C78.6576 31.8893 78.3682 31.7892 78.0697 31.7871H72.5471C72.1809 31.7871 71.8297 31.9326 71.5708 32.1915C71.3119 32.4504 71.1664 32.8016 71.1664 33.1677C71.1664 33.5339 71.3119 33.8851 71.5708 34.144C71.8297 34.4029 72.1809 34.5484 72.5471 34.5484H75.7761L69.1827 41.9927C64.8106 46.9612 59.334 50.8348 53.1929 53.3022C47.0518 55.7696 40.4175 56.762 33.8232 56.1996C33.4585 56.1682 33.0962 56.2829 32.816 56.5185C32.5359 56.7542 32.3608 57.0915 32.3293 57.4562C32.2979 57.8209 32.4126 58.1832 32.6482 58.4634C32.8839 58.7436 33.2212 58.9186 33.5859 58.9501C34.8776 59.062 35.9674 59.1172 37.2551 59.1172C43.6802 59.1108 50.0312 57.7445 55.8905 55.1081C61.7499 52.4718 66.9848 48.625 71.2512 43.8208L76.6891 37.6834V38.6903C76.6891 39.0565 76.8345 39.4077 77.0935 39.6666C77.3524 39.9255 77.7036 40.071 78.0697 40.071C78.4359 40.071 78.7871 39.9255 79.046 39.6666C79.305 39.4077 79.4504 39.0565 79.4504 38.6903V34.5302L79.3759 32.7981Z" fill="#ED2224"/>
<path d="M78.07 76.1523H76.5972V45.1117C76.5972 44.8286 76.5102 44.5523 76.348 44.3204C76.1858 44.0884 75.9561 43.9119 75.6902 43.8148C75.4243 43.7176 75.1351 43.7046 74.8615 43.7774C74.5879 43.8502 74.3433 44.0053 74.1609 44.2218L73.3128 45.2289C71.9077 46.8966 70.39 48.4661 68.7704 49.9264C68.6265 50.0557 68.5115 50.214 68.4327 50.3907C68.354 50.5675 68.3133 50.7588 68.3133 50.9524V76.1523H65.552V55.2602C65.5522 55.0099 65.4843 54.7641 65.3555 54.5494C65.2267 54.3347 65.0419 54.159 64.821 54.0413C64.6 53.9235 64.3512 53.8681 64.1012 53.8809C63.8511 53.8938 63.6092 53.9744 63.4015 54.1142C61.6797 55.2701 59.886 56.3149 58.0312 57.2422C57.8018 57.3568 57.6088 57.5331 57.474 57.7513C57.3392 57.9694 57.2679 58.2208 57.2681 58.4773V76.1523H54.5067V60.8314C54.5068 60.6101 54.4537 60.3922 54.3519 60.1958C54.2501 59.9994 54.1026 59.8303 53.9217 59.7029C53.7409 59.5755 53.5321 59.4934 53.3129 59.4636C53.0937 59.4338 52.8706 59.4571 52.6623 59.5316C50.9039 60.1584 49.1109 60.6833 47.292 61.1037C46.9881 61.1743 46.7168 61.3457 46.5227 61.59C46.3286 61.8344 46.2229 62.1372 46.2228 62.4493V76.1524H43.4616V63.4012C43.4615 63.2068 43.4203 63.0145 43.3409 62.837C43.2614 62.6595 43.1454 62.5008 43.0004 62.3712C42.8559 62.2407 42.685 62.1428 42.4994 62.0839C42.3138 62.0251 42.1178 62.0067 41.9245 62.0301C40.1424 62.2329 38.3505 62.3359 36.5569 62.3388C36.1911 62.3393 35.8404 62.485 35.5818 62.7439C35.3232 63.0027 35.1778 63.3536 35.1777 63.7194V76.1524H33.7048C33.5235 76.1524 33.344 76.1881 33.1765 76.2575C33.009 76.3268 32.8568 76.4285 32.7286 76.5568C32.6004 76.685 32.4987 76.8372 32.4293 77.0047C32.3599 77.1722 32.3242 77.3517 32.3242 77.533C32.3242 77.7143 32.3599 77.8938 32.4293 78.0614C32.4987 78.2289 32.6004 78.3811 32.7286 78.5093C32.8568 78.6375 33.009 78.7392 33.1765 78.8086C33.344 78.8779 33.5235 78.9137 33.7048 78.9137H78.07C78.4362 78.9137 78.7873 78.7682 79.0462 78.5093C79.3051 78.2503 79.4506 77.8992 79.4506 77.533C79.4506 77.1668 79.3051 76.8157 79.0462 76.5568C78.7873 76.2978 78.4362 76.1523 78.07 76.1523Z" fill="#ED2224"/>
</svg>
