<svg width="111" height="111" viewBox="0 0 111 111" fill="none" xmlns="http://www.w3.org/2000/svg">
<path d="M55.5114 111H55.4885C48.2047 110.991 40.9928 109.559 34.2577 106.785C30.897 105.394 27.6819 103.674 24.6595 101.651C18.6064 97.5949 13.4053 92.3939 9.34944 86.3407C7.32591 83.3182 5.60598 80.1031 4.21472 76.7423C-1.40494 63.1383 -1.4049 47.8618 4.21481 34.2578C5.60604 30.8971 7.32596 27.6821 9.34949 24.6596C11.3733 21.6408 13.6862 18.8263 16.2555 16.2558C18.826 13.6865 21.6408 11.3733 24.6596 9.34955C27.6821 7.32595 30.8971 5.606 34.2579 4.21478C40.9932 1.44137 48.2053 0.00966234 55.4893 0H55.5109C62.7949 0.00958995 70.007 1.44133 76.7423 4.21486C80.103 5.60608 83.3181 7.32604 86.3405 9.34965C92.3936 13.4055 97.5946 18.6066 101.65 24.6597C103.674 27.6822 105.394 30.8972 106.785 34.258C112.405 47.862 112.405 63.1385 106.785 76.7425C105.394 80.1032 103.674 83.3183 101.65 86.3408C97.5945 92.3939 92.3935 97.595 86.3404 101.651C83.3179 103.674 80.1028 105.394 76.7421 106.786C70.0069 109.559 62.7951 110.991 55.5114 111ZM55.4999 110.307H55.5112C62.704 110.297 69.8257 108.883 76.4767 106.145C79.7952 104.771 82.9699 103.073 85.9544 101.074C91.9321 97.0689 97.0685 91.9326 101.074 85.9549C103.072 82.9703 104.77 79.7956 106.144 76.4771C111.694 63.0431 111.694 47.9575 106.144 34.5234C104.77 31.2049 103.072 28.0302 101.074 25.0457C97.0685 19.0679 91.9322 13.9316 85.9545 9.92606C82.97 7.92789 79.7954 6.22954 76.4769 4.85577C69.8257 2.11703 62.7037 0.703234 55.5107 0.693744H55.4894C48.2964 0.703126 41.1744 2.11689 34.5233 4.85568C31.2047 6.22945 28.03 7.9278 25.0455 9.92597C19.0678 13.9315 13.9314 19.0679 9.92589 25.0456C7.92782 28.0301 6.22952 31.2047 4.85575 34.5232C-0.693617 47.9573 -0.693651 63.0429 4.85566 76.4769C6.22942 79.7955 7.92773 82.9702 9.92584 85.9548C13.9313 91.9325 19.0677 97.0689 25.0454 101.074C28.0299 103.072 31.2046 104.771 34.5231 106.145C41.1741 108.883 48.2958 110.297 55.4886 110.307L55.4999 110.307Z" fill="#4B4B4A"/>
<path d="M55.4893 108.745C48.6342 108.754 41.8421 107.436 35.4876 104.865C32.2933 103.571 29.2331 101.968 26.3507 100.079L26.1755 99.9642L26.1957 99.7557C26.262 99.0685 26.3479 98.3364 26.4659 97.4517C26.5525 96.7989 26.6556 96.123 26.7802 95.3919C23.02 92.6795 19.6599 89.4517 16.7987 85.8033C10.9562 78.361 7.39687 69.3843 6.55169 59.9604C6.13203 55.3438 6.36508 50.6911 7.24398 46.1396C6.69442 45.7224 6.14336 45.2913 5.60339 44.8559C5.00975 44.3725 4.4138 43.8709 3.83077 43.3641L3.67188 43.226L3.72101 43.0213C6.00895 33.485 10.8967 24.7699 17.8408 17.845L17.8417 17.8441C19.4077 16.285 21.0651 14.8204 22.8051 13.4583C28.0493 9.36765 34.0177 6.30238 40.3977 4.42311L40.6 4.36304L40.7463 4.51514C41.283 5.07311 41.8146 5.64364 42.3261 6.21091C42.7561 6.68875 43.2043 7.20497 43.6924 7.7848C52.8101 5.54091 62.3787 5.94329 71.2758 8.94472C75.7337 10.4503 79.9501 12.5935 83.7937 15.3076C87.5818 17.981 90.9747 21.1741 93.8728 24.7931C94.611 24.6285 95.2808 24.4911 95.9145 24.3742C96.7556 24.2176 97.5037 24.0908 98.2012 23.9865L98.4084 23.9555L98.5322 24.1245C102.603 29.706 105.548 36.0266 107.203 42.7337C108.843 49.442 109.177 56.4032 108.186 63.2377L108.156 63.4459L107.957 63.515C107.225 63.7695 106.485 64.0136 105.757 64.2408C105.128 64.4355 104.472 64.6267 103.756 64.8238C101.986 74.0437 97.6009 82.5598 91.1247 89.3567C87.8809 92.769 84.1663 95.7005 80.0934 98.0621C76.0844 100.384 71.7648 102.123 67.265 103.226C67.1159 103.899 66.9546 104.579 66.7848 105.252C66.6003 105.971 66.3938 106.722 66.1709 107.486L66.112 107.688L65.9056 107.729C62.475 108.407 58.9862 108.747 55.4893 108.745ZM26.9067 99.6137C32.5653 103.29 38.8826 105.834 45.5092 107.106C52.1347 108.372 58.9404 108.366 65.5637 107.089C65.762 106.403 65.9464 105.728 66.1124 105.081C66.298 104.346 66.4735 103.6 66.6338 102.866L66.6801 102.653L66.8914 102.602C71.4019 101.518 75.7315 99.7867 79.7457 97.4617C87.8173 92.7828 94.3747 85.8835 98.6377 77.5848C100.753 73.4559 102.261 69.0428 103.114 64.4825L103.154 64.2688L103.364 64.2117C104.155 63.9965 104.87 63.7893 105.551 63.5783C106.205 63.3742 106.87 63.1559 107.53 62.9286C108.471 56.2492 108.131 49.4517 106.53 42.8993C104.913 36.349 102.05 30.1714 98.0963 24.7041C97.4661 24.801 96.7913 24.9166 96.0408 25.0563C95.3556 25.1827 94.6273 25.3336 93.8136 25.5174L93.6012 25.5655L93.4657 25.3951C90.579 21.7581 87.1875 18.5522 83.3939 15.8746C75.77 10.4998 66.7529 7.44754 57.4319 7.08656C52.7936 6.90017 48.1527 7.37955 43.6505 8.51007L43.4396 8.56309L43.3 8.39642C42.7626 7.75469 42.2754 7.19179 41.8106 6.67529C41.3508 6.16529 40.8744 5.6524 40.3926 5.14863C34.1718 7.00861 28.3523 10.012 23.2323 14.0048C21.5143 15.3498 19.8778 16.7959 18.3316 18.3353C11.5284 25.1193 6.72406 33.6452 4.44513 42.9786C4.97157 43.4335 5.50732 43.8831 6.04007 44.3169C6.62966 44.7923 7.23391 45.2636 7.83474 45.7167L8.00835 45.8476L7.96617 46.0609C6.15693 55.2142 7.01815 64.6947 10.4471 73.3721C12.1552 77.6849 14.4784 81.7278 17.3445 85.3751C20.21 89.029 23.5828 92.2548 27.3606 94.9549L27.5378 95.0816L27.5005 95.2963C27.3607 96.1011 27.2473 96.8362 27.1535 97.5433C27.0485 98.3304 26.9693 98.9948 26.9067 99.6137Z" fill="#4B4B4A"/>
<path d="M77.1117 14.7082L76.6797 14.4819L74.9599 17.7652L75.3919 17.9915L77.1117 14.7082Z" fill="#4B4B4A"/>
<path d="M80.3731 16.62L79.9609 16.3596L77.9815 19.4933L78.3937 19.7537L80.3731 16.62Z" fill="#4B4B4A"/>
<path d="M83.4874 18.7883L83.0977 18.4951L80.8694 21.4572L81.2591 21.7504L83.4874 18.7883Z" fill="#4B4B4A"/>
<path d="M86.4039 21.1984L86.0391 20.8748L83.5795 23.6472L83.9443 23.9708L86.4039 21.1984Z" fill="#4B4B4A"/>
<path d="M89.115 23.8355L88.7773 23.4836L86.1031 26.0501L86.4408 26.4019L89.115 23.8355Z" fill="#4B4B4A"/>
<path d="M91.6168 26.6835L91.3086 26.3057L88.4366 28.6486L88.7449 29.0264L91.6168 26.6835Z" fill="#4B4B4A"/>
<path d="M93.8666 29.7235L93.5898 29.3218L90.5378 31.4248L90.8146 31.8265L93.8666 29.7235Z" fill="#4B4B4A"/>
<path d="M95.873 32.9321L95.6289 32.51L92.4205 34.365L92.6645 34.7871L95.873 32.9321Z" fill="#4B4B4A"/>
<path d="M97.6226 36.297L97.4141 35.8564L94.064 37.4425L94.2726 37.883L97.6226 36.297Z" fill="#4B4B4A"/>
<path d="M99.099 39.7854L98.9258 39.3296L95.4611 40.6464L95.6343 41.1022L99.099 39.7854Z" fill="#4B4B4A"/>
<path d="M100.272 43.3863L100.137 42.9177L96.5765 43.948L96.7121 44.4166L100.272 43.3863Z" fill="#4B4B4A"/>
<path d="M101.153 47.0653L101.055 46.5879L97.4237 47.3324L97.5216 47.8099L101.153 47.0653Z" fill="#4B4B4A"/>
<path d="M101.75 50.8076L101.691 50.3235L98.0119 50.7706L98.0708 51.2548L101.75 50.8076Z" fill="#4B4B4A"/>
<path d="M102.031 54.5858L102.012 54.0984L98.3083 54.2439L98.3274 54.7313L102.031 54.5858Z" fill="#4B4B4A"/>
<path d="M98.3164 58.2213L98.3357 57.7339L102.039 57.8835L102.019 58.371L98.3164 58.2213Z" fill="#4B4B4A"/>
<path d="M101.683 62.1435L101.742 61.6597L98.0628 61.2119L98.0039 61.6957L101.683 62.1435Z" fill="#4B4B4A"/>
<path d="M101.066 65.881L101.164 65.4036L97.5331 64.659L97.4352 65.1365L101.066 65.881Z" fill="#4B4B4A"/>
<path d="M100.134 69.5492L100.27 69.0806L96.7089 68.0517L96.5735 68.5203L100.134 69.5492Z" fill="#4B4B4A"/>
<path d="M98.9246 73.1368L99.0977 72.6807L95.6322 71.3656L95.4591 71.8218L98.9246 73.1368Z" fill="#4B4B4A"/>
<path d="M97.4164 76.6107L97.625 76.1702L94.2752 74.5843L94.0666 75.0248L97.4164 76.6107Z" fill="#4B4B4A"/>
<path d="M95.6466 79.9573L95.8906 79.5352L92.6822 77.6802L92.4381 78.1023L95.6466 79.9573Z" fill="#4B4B4A"/>
<path d="M93.6021 83.1449L93.8789 82.7432L90.8269 80.6402L90.5501 81.0419L93.6021 83.1449Z" fill="#4B4B4A"/>
<path d="M91.3091 86.1618L91.6172 85.7842L88.7454 83.4414L88.4374 83.819L91.3091 86.1618Z" fill="#4B4B4A"/>
<path d="M88.7873 88.984L89.125 88.6328L86.4534 86.0637L86.1157 86.4149L88.7873 88.984Z" fill="#4B4B4A"/>
<path d="M55.0359 11.6511C49.5417 11.6461 44.0944 12.662 38.9713 14.6471L39.0642 15.0239C48.5837 11.3318 59.0877 11.0485 68.7924 14.222C78.4971 17.3955 86.8042 23.8302 92.3032 32.4333C97.8021 41.0364 100.154 51.2777 98.9591 61.418C97.7643 71.5582 93.0966 80.9724 85.7486 88.0618C78.4006 95.1512 68.8254 99.4788 58.6488 100.31C48.4723 101.141 38.3219 98.4236 29.9212 92.6201C21.5205 86.8166 15.3875 78.2843 12.5636 68.4721C9.73969 58.66 10.399 48.1729 14.4295 38.7917L14.0564 38.6831C10.2825 47.496 9.45018 57.2908 11.6828 66.6141C13.9154 75.9374 19.094 84.2927 26.4503 90.4404C33.8066 96.588 42.9487 100.201 52.5203 100.742C62.0919 101.283 71.583 98.7248 79.5857 93.4459C87.5883 88.167 93.6761 80.449 96.9458 71.4369C100.215 62.4247 100.493 52.5987 97.737 43.4164C94.981 34.2341 89.3385 26.1849 81.6465 20.4628C73.9545 14.7408 64.6228 11.6507 55.0359 11.6511Z" fill="#4B4B4A"/>
<path d="M55.088 14.75C54.9922 14.75 54.9922 10.1655 54.9922 10.1655C55.088 10.1655 55.088 14.75 55.088 14.75Z" fill="#4B4B4A"/>
<path d="M56.7623 14.7844C56.6658 14.7809 56.8503 10.2007 56.8503 10.2007C56.9468 10.2042 56.7623 14.7844 56.7623 14.7844Z" fill="#4B4B4A"/>
<path d="M58.4299 14.8884C58.3342 14.8806 58.7031 10.311 58.7031 10.311C58.7988 10.3188 58.4299 14.8884 58.4299 14.8884Z" fill="#4B4B4A"/>
<path d="M60.0854 15.058C59.9896 15.0467 60.5423 10.4956 60.5423 10.4956C60.638 10.507 60.0854 15.058 60.0854 15.058Z" fill="#4B4B4A"/>
<path d="M61.7389 15.2949C61.6439 15.2785 62.3796 10.7544 62.3796 10.7544C62.4746 10.77 61.7389 15.2949 61.7389 15.2949Z" fill="#4B4B4A"/>
<path d="M63.3779 15.5978C63.2835 15.5779 64.2009 11.0864 64.2009 11.0864C64.2952 11.1063 63.3779 15.5978 63.3779 15.5978Z" fill="#4B4B4A"/>
<path d="M65.0173 15.9664C64.9244 15.943 66.0212 11.4919 66.0212 11.4919C66.1148 11.5154 65.0173 15.9664 65.0173 15.9664Z" fill="#4B4B4A"/>
<path d="M66.6259 16.4009C66.5336 16.3739 67.8092 11.9705 67.8092 11.9705C67.9015 11.9974 66.6259 16.4009 66.6259 16.4009Z" fill="#4B4B4A"/>
<path d="M68.2229 16.8997C68.1314 16.8692 69.5829 12.521 69.5829 12.521C69.6744 12.5515 68.2229 16.8997 68.2229 16.8997Z" fill="#4B4B4A"/>
<path d="M69.7888 17.4621C69.6987 17.4288 71.3247 13.1423 71.3247 13.1423C71.4141 13.1757 69.7888 17.4621 69.7888 17.4621Z" fill="#4B4B4A"/>
<path d="M71.3508 18.0883C71.2621 18.0507 73.0592 13.833 73.0592 13.833C73.1479 13.8706 71.3508 18.0883 71.3508 18.0883Z" fill="#4B4B4A"/>
<path d="M72.87 18.7757C72.7834 18.7345 74.7486 14.5928 74.7486 14.5928C74.8351 14.6347 72.87 18.7757 72.87 18.7757Z" fill="#4B4B4A"/>
<path d="M74.358 19.5231C74.2728 19.4791 76.4033 15.4197 76.4033 15.4197C76.4884 15.4643 74.358 19.5231 74.358 19.5231Z" fill="#4B4B4A"/>
<path d="M75.8147 20.3311C75.7317 20.2828 78.0232 16.3135 78.0232 16.3135C78.1069 16.3617 75.8147 20.3311 75.8147 20.3311Z" fill="#4B4B4A"/>
<path d="M77.2481 21.1971C77.1672 21.146 79.6169 17.271 79.6169 17.271C79.6978 17.3221 77.2481 21.1971 77.2481 21.1971Z" fill="#4B4B4A"/>
<path d="M78.6346 22.1207C78.5558 22.066 81.1595 18.2932 81.1595 18.2932C81.2389 18.3478 78.6346 22.1207 78.6346 22.1207Z" fill="#4B4B4A"/>
<path d="M80.0016 23.0982C79.9243 23.0407 82.6783 19.3757 82.6783 19.3757C82.755 19.4339 80.0016 23.0982 80.0016 23.0982Z" fill="#4B4B4A"/>
<path d="M81.3139 24.1303C81.2394 24.0693 84.1382 20.5186 84.1382 20.5186C84.2127 20.5796 81.3139 24.1303 81.3139 24.1303Z" fill="#4B4B4A"/>
<path d="M82.5794 25.2144C82.507 25.1506 85.547 21.719 85.547 21.719C85.6193 21.7828 82.5794 25.2144 82.5794 25.2144Z" fill="#4B4B4A"/>
<path d="M83.8058 26.3485C83.7363 26.2818 86.9118 22.9751 86.9118 22.9751C86.9813 23.0425 83.8058 26.3485 83.8058 26.3485Z" fill="#4B4B4A"/>
<path d="M84.9932 27.5311C84.9265 27.4623 88.2325 24.2861 88.2325 24.2861C88.2992 24.3557 84.9932 27.5311 84.9932 27.5311Z" fill="#4B4B4A"/>
<path d="M86.1259 28.7608C86.062 28.6884 89.4929 25.6484 89.4929 25.6484C89.5574 25.7208 86.1259 28.7608 86.1259 28.7608Z" fill="#4B4B4A"/>
<path d="M87.2039 30.0346C87.1429 29.9601 90.6936 27.0613 90.6936 27.0613C90.7547 27.1358 87.2039 30.0346 87.2039 30.0346Z" fill="#4B4B4A"/>
<path d="M88.2312 31.3502C88.173 31.2736 91.838 28.5195 91.838 28.5195C91.8961 28.5961 88.2312 31.3502 88.2312 31.3502Z" fill="#4B4B4A"/>
<path d="M89.2115 32.7073C89.1569 32.6286 92.9297 30.0242 92.9297 30.0242C92.9844 30.1036 89.2115 32.7073 89.2115 32.7073Z" fill="#4B4B4A"/>
<path d="M90.1216 34.1023C90.0705 34.0215 93.9448 31.571 93.9448 31.571C93.9966 31.6519 90.1216 34.1023 90.1216 34.1023Z" fill="#4B4B4A"/>
<path d="M90.9887 35.5329C90.9412 35.4499 94.9112 33.1577 94.9112 33.1577C94.9588 33.2414 90.9887 35.5329 90.9887 35.5329Z" fill="#4B4B4A"/>
<path d="M91.7933 36.9976C91.7486 36.9124 95.8081 34.782 95.8081 34.782C95.8528 34.8671 91.7933 36.9976 91.7933 36.9976Z" fill="#4B4B4A"/>
<path d="M92.5355 38.4933C92.4943 38.4061 96.636 36.4409 96.636 36.4409C96.6772 36.5275 92.5355 38.4933 92.5355 38.4933Z" fill="#4B4B4A"/>
<path d="M93.2151 40.0175C93.1775 39.9288 97.3952 38.1318 97.3952 38.1318C97.432 38.2205 93.2151 40.0175 93.2151 40.0175Z" fill="#4B4B4A"/>
<path d="M93.8518 41.569C93.8177 41.4789 98.1034 39.8528 98.1034 39.8528C98.1382 39.9429 93.8518 41.569 93.8518 41.569Z" fill="#4B4B4A"/>
<path d="M94.4025 43.1427C94.372 43.0518 98.7202 41.5996 98.7202 41.5996C98.7507 41.6904 94.4025 43.1427 94.4025 43.1427Z" fill="#4B4B4A"/>
<path d="M94.8907 44.7379C94.8638 44.6457 99.2673 43.3701 99.2673 43.3701C99.2936 43.4623 94.8907 44.7379 94.8907 44.7379Z" fill="#4B4B4A"/>
<path d="M95.3243 46.3521C95.3009 46.2592 99.7519 45.1624 99.7519 45.1624C99.7747 45.2553 95.3243 46.3521 95.3243 46.3521Z" fill="#4B4B4A"/>
<path d="M95.6876 47.9826C95.6684 47.889 100.16 46.9717 100.16 46.9717C100.179 47.066 95.6876 47.9826 95.6876 47.9826Z" fill="#4B4B4A"/>
<path d="M95.9922 49.6257C95.9766 49.5313 100.501 48.7957 100.501 48.7957C100.517 48.8907 95.9922 49.6257 95.9922 49.6257Z" fill="#4B4B4A"/>
<path d="M96.2305 51.2805C96.2191 51.1855 100.77 50.6328 100.77 50.6328C100.782 50.7286 96.2305 51.2805 96.2305 51.2805Z" fill="#4B4B4A"/>
<path d="M96.3945 52.9439C96.3867 52.8474 100.956 52.4785 100.956 52.4785C100.964 52.575 96.3945 52.9439 96.3945 52.9439Z" fill="#4B4B4A"/>
<path d="M96.4961 54.611C96.4925 54.5146 101.073 54.3301 101.073 54.3301C101.076 54.4266 96.4961 54.611 96.4961 54.611Z" fill="#4B4B4A"/>
<path d="M101.107 56.2813H96.5234C96.5234 56.1856 101.107 56.1855 101.107 56.1855V56.2813Z" fill="#4B4B4A"/>
<path d="M101.068 58.1369L96.4883 57.9525C96.4918 57.856 101.072 58.0405 101.072 58.0405L101.068 58.1369Z" fill="#4B4B4A"/>
<path d="M100.948 59.9888L96.3789 59.6199C96.3867 59.5234 100.956 59.8923 100.956 59.8923L100.948 59.9888Z" fill="#4B4B4A"/>
<path d="M100.765 61.8345L96.2148 61.2819C96.2262 61.1861 100.777 61.7388 100.777 61.7388L100.765 61.8345Z" fill="#4B4B4A"/>
<path d="M100.501 63.6709L95.9766 62.9359C95.9922 62.8415 100.517 63.5765 100.517 63.5765L100.501 63.6709Z" fill="#4B4B4A"/>
<path d="M100.163 65.4961L95.6719 64.5787C95.691 64.4851 100.183 65.4017 100.183 65.4017L100.163 65.4961Z" fill="#4B4B4A"/>
<path d="M99.7557 67.3051L95.3047 66.2083C95.3281 66.1147 99.7784 67.2122 99.7784 67.2122L99.7557 67.3051Z" fill="#4B4B4A"/>
<path d="M99.2739 69.0973L94.8711 67.8217C94.8981 67.7288 99.3008 69.0044 99.3008 69.0044L99.2739 69.0973Z" fill="#4B4B4A"/>
<path d="M98.7193 70.8679L94.3711 69.4157C94.4016 69.3249 98.7498 70.7764 98.7498 70.7764L98.7193 70.8679Z" fill="#4B4B4A"/>
<path d="M98.095 72.6153L93.8086 70.9892C93.8434 70.8991 98.1298 72.5252 98.1298 72.5252L98.095 72.6153Z" fill="#4B4B4A"/>
<path d="M97.4051 74.3351L93.1875 72.5381C93.2251 72.4494 97.4421 74.2464 97.4421 74.2464L97.4051 74.3351Z" fill="#4B4B4A"/>
<path d="M96.6417 76.0263L92.5 74.0612C92.5411 73.9739 96.6829 75.9398 96.6829 75.9398L96.6417 76.0263Z" fill="#4B4B4A"/>
<path d="M95.8094 77.685L91.75 75.5552C91.7947 75.4701 95.8542 77.6005 95.8542 77.6005L95.8094 77.685Z" fill="#4B4B4A"/>
<path d="M94.9154 79.3093L90.9453 77.0171C90.9928 76.9341 94.9629 79.2256 94.9629 79.2256L94.9154 79.3093Z" fill="#4B4B4A"/>
<path d="M93.9524 80.8956L90.0781 78.4458C90.1292 78.3643 94.0042 80.8147 94.0042 80.8147L93.9524 80.8956Z" fill="#4B4B4A"/>
<path d="M92.9252 82.4426L89.1523 79.8389C89.207 79.7602 92.9798 82.3638 92.9798 82.3638L92.9252 82.4426Z" fill="#4B4B4A"/>
<path d="M91.8368 83.947L88.1719 81.193C88.23 81.1164 91.895 83.8704 91.895 83.8704L91.8368 83.947Z" fill="#4B4B4A"/>
<path d="M90.6875 85.4063L87.1367 82.5075C87.1977 82.433 90.7485 85.3318 90.7485 85.3318L90.6875 85.4063Z" fill="#4B4B4A"/>
<path d="M89.4777 86.8188L86.0469 83.7789C86.1107 83.7065 89.5423 86.7465 89.5423 86.7465L89.4777 86.8188Z" fill="#4B4B4A"/>
<path d="M88.224 88.1812L84.918 85.005C84.9847 84.9362 88.2907 88.1117 88.2907 88.1117L88.224 88.1812Z" fill="#4B4B4A"/>
<path d="M86.9255 89.4925L83.75 86.1858C83.8195 86.1191 86.995 89.4251 86.995 89.4251L86.9255 89.4925Z" fill="#4B4B4A"/>
<path d="M85.5517 90.7489L82.5117 87.3173C82.5841 87.2534 85.624 90.6843 85.624 90.6843L85.5517 90.7489Z" fill="#4B4B4A"/>
<path d="M84.1332 91.9485L81.2344 88.397C81.3082 88.3367 84.2077 91.8875 84.2077 91.8875L84.1332 91.9485Z" fill="#4B4B4A"/>
<path d="M82.6798 93.091L79.9258 89.4267C80.0024 89.3685 82.7565 93.0335 82.7565 93.0335L82.6798 93.091Z" fill="#4B4B4A"/>
<path d="M81.1701 94.175L78.5664 90.4022C78.6452 90.3476 81.2495 94.1204 81.2495 94.1204L81.1701 94.175Z" fill="#4B4B4A"/>
<path d="M79.6137 95.1963L77.1641 91.3213C77.2449 91.2702 79.6947 95.1452 79.6947 95.1452L79.6137 95.1963Z" fill="#4B4B4A"/>
<path d="M78.0259 96.1538L75.7344 92.1838C75.8174 92.1355 78.1096 96.1056 78.1096 96.1056L78.0259 96.1538Z" fill="#4B4B4A"/>
<path d="M76.4039 97.0474L74.2734 92.9886C74.3586 92.944 76.489 97.0034 76.489 97.0034L76.4039 97.0474Z" fill="#4B4B4A"/>
<path d="M74.7425 97.875L72.7773 93.7332C72.8639 93.6921 74.829 97.8331 74.829 97.8331L74.7425 97.875Z" fill="#4B4B4A"/>
<path d="M73.058 98.634L71.2617 94.417C71.3504 94.3794 73.1467 98.5963 73.1467 98.5963L73.058 98.634Z" fill="#4B4B4A"/>
<path d="M71.3253 99.325L69.6992 95.0385C69.7893 95.0052 71.4146 99.2916 71.4146 99.2916L71.3253 99.325Z" fill="#4B4B4A"/>
<path d="M69.5843 99.9467L68.1328 95.5986C68.2243 95.5673 69.6758 99.9155 69.6758 99.9155L69.5843 99.9467Z" fill="#4B4B4A"/>
<path d="M67.8107 100.497L66.5352 96.0936C66.6274 96.0666 67.903 100.469 67.903 100.469L67.8107 100.497Z" fill="#4B4B4A"/>
<path d="M66.0155 100.975L64.918 96.5235C65.0116 96.5001 66.1084 100.951 66.1084 100.951L66.0155 100.975Z" fill="#4B4B4A"/>
<path d="M64.1985 101.381L63.2812 96.8892C63.3756 96.8701 64.2929 101.362 64.2929 101.362L64.1985 101.381Z" fill="#4B4B4A"/>
<path d="M62.3763 101.713L61.6406 97.1883C61.7357 97.1727 62.4714 101.698 62.4714 101.698L62.3763 101.713Z" fill="#4B4B4A"/>
<path d="M60.5409 101.972L59.9883 97.4204C60.0841 97.4091 60.6367 101.96 60.6367 101.96L60.5409 101.972Z" fill="#4B4B4A"/>
<path d="M58.7009 102.156L58.332 97.5867C58.4278 97.5789 58.7967 102.148 58.7967 102.148L58.7009 102.156Z" fill="#4B4B4A"/>
<path d="M56.8407 102.266L56.6562 97.686C56.7527 97.6825 56.9372 102.263 56.9372 102.263L56.8407 102.266Z" fill="#4B4B4A"/>
<path d="M55.088 102.302C54.9922 102.302 54.9922 97.7175 54.9922 97.7175C55.088 97.7175 55.088 102.302 55.088 102.302Z" fill="#4B4B4A"/>
<path d="M53.2307 102.267C53.1349 102.263 53.3194 97.6829 53.3194 97.6829C53.4159 97.6864 53.2307 102.267 53.2307 102.267Z" fill="#4B4B4A"/>
<path d="M51.3752 102.157C51.2795 102.149 51.6484 97.5793 51.6484 97.5793C51.7442 97.5872 51.3752 102.157 51.3752 102.157Z" fill="#4B4B4A"/>
<path d="M49.5346 101.972C49.4388 101.961 49.9915 97.4097 49.9915 97.4097C50.0865 97.421 49.5346 101.972 49.5346 101.972Z" fill="#4B4B4A"/>
<path d="M47.696 101.713C47.6009 101.697 48.3359 97.1724 48.3359 97.1724C48.431 97.188 47.696 101.713 47.696 101.713Z" fill="#4B4B4A"/>
<path d="M45.8662 101.381C45.7718 101.361 46.6892 96.8699 46.6892 96.8699C46.7835 96.889 45.8662 101.381 45.8662 101.381Z" fill="#4B4B4A"/>
<path d="M44.0643 100.975C43.9706 100.951 45.0681 96.5002 45.0681 96.5002C45.1618 96.5236 44.0643 100.975 44.0643 100.975Z" fill="#4B4B4A"/>
<path d="M42.2587 100.497C42.1665 100.469 43.442 96.0664 43.442 96.0664C43.5342 96.0934 42.2587 100.497 42.2587 100.497Z" fill="#4B4B4A"/>
<path d="M40.4963 99.9463C40.4048 99.9151 41.8563 95.5669 41.8563 95.5669C41.9479 95.5981 40.4963 99.9463 40.4963 99.9463Z" fill="#4B4B4A"/>
<path d="M38.7457 99.3257C38.6564 99.2923 40.2817 95.0059 40.2817 95.0059C40.3718 95.0392 38.7457 99.3257 38.7457 99.3257Z" fill="#4B4B4A"/>
<path d="M37.0266 98.6345C36.9379 98.5969 38.735 94.3799 38.735 94.3799C38.8236 94.4175 37.0266 98.6345 37.0266 98.6345Z" fill="#4B4B4A"/>
<path d="M35.3348 97.8743C35.2483 97.8324 37.2134 93.6914 37.2134 93.6914C37.3 93.7326 35.3348 97.8743 35.3348 97.8743Z" fill="#4B4B4A"/>
<path d="M33.6705 97.0475C33.5853 97.0035 35.7158 92.9441 35.7158 92.9441C35.8009 92.9888 33.6705 97.0475 33.6705 97.0475Z" fill="#4B4B4A"/>
<path d="M32.0452 96.1543C31.9622 96.106 34.2544 92.136 34.2544 92.136C34.3374 92.1842 32.0452 96.1543 32.0452 96.1543Z" fill="#4B4B4A"/>
<path d="M30.4629 95.1952C30.3813 95.1441 32.8318 91.2698 32.8318 91.2698C32.9126 91.3209 30.4629 95.1952 30.4629 95.1952Z" fill="#4B4B4A"/>
<path d="M28.9002 94.1749C28.8208 94.1202 31.4251 90.3474 31.4251 90.3474C31.5039 90.402 28.9002 94.1749 28.9002 94.1749Z" fill="#4B4B4A"/>
<path d="M27.3961 93.0916C27.3195 93.0341 30.0728 89.3691 30.0728 89.3691C30.1502 89.4273 27.3961 93.0916 27.3961 93.0916Z" fill="#4B4B4A"/>
<path d="M25.9467 91.9485C25.8722 91.8882 28.771 88.3374 28.771 88.3374C28.8455 88.3977 25.9467 91.9485 25.9467 91.9485Z" fill="#4B4B4A"/>
<path d="M24.5208 90.7481C24.4484 90.6836 27.4884 87.2527 27.4884 87.2527C27.5608 87.3165 24.5208 90.7481 24.5208 90.7481Z" fill="#4B4B4A"/>
<path d="M23.1613 89.4911C23.0918 89.4244 26.2672 86.1184 26.2672 86.1184C26.3368 86.1851 23.1613 89.4911 23.1613 89.4911Z" fill="#4B4B4A"/>
<path d="M21.8487 88.1806C21.782 88.111 25.088 84.9355 25.088 84.9355C25.1547 85.0044 21.8487 88.1806 21.8487 88.1806Z" fill="#4B4B4A"/>
<path d="M20.5829 86.8189C20.5191 86.7465 23.9506 83.7065 23.9506 83.7065C24.0145 83.7789 20.5829 86.8189 20.5829 86.8189Z" fill="#4B4B4A"/>
<path d="M19.3836 85.4066C19.3226 85.3321 22.8733 82.4333 22.8733 82.4333C22.9344 82.5078 19.3836 85.4066 19.3836 85.4066Z" fill="#4B4B4A"/>
<path d="M18.2351 83.9472C18.1769 83.8706 21.8419 81.1165 21.8419 81.1165C21.8993 81.1931 18.2351 83.9472 18.2351 83.9472Z" fill="#4B4B4A"/>
<path d="M17.149 82.4424C17.0944 82.3637 20.8672 79.76 20.8672 79.76C20.9218 79.8388 17.149 82.4424 17.149 82.4424Z" fill="#4B4B4A"/>
<path d="M16.1216 80.8953C16.0698 80.8144 19.9448 78.364 19.9448 78.364C19.9959 78.4456 16.1216 80.8953 16.1216 80.8953Z" fill="#4B4B4A"/>
<path d="M15.1606 79.3093C15.1124 79.2256 19.0831 76.9341 19.0831 76.9341C19.1306 77.0171 15.1606 79.3093 15.1606 79.3093Z" fill="#4B4B4A"/>
<path d="M14.2738 77.6846C14.2291 77.6002 18.2885 75.4697 18.2885 75.4697C18.3332 75.5542 14.2738 77.6846 14.2738 77.6846Z" fill="#4B4B4A"/>
<path d="M13.4339 76.0263C13.3921 75.9398 17.5338 73.9739 17.5338 73.9739C17.5749 74.0611 13.4339 76.0263 13.4339 76.0263Z" fill="#4B4B4A"/>
<path d="M12.6838 74.3356C12.6462 74.2469 16.8639 72.45 16.8639 72.45C16.9015 72.5387 12.6838 74.3356 12.6838 74.3356Z" fill="#4B4B4A"/>
<path d="M11.9807 72.6148C11.9466 72.5247 16.2324 70.8994 16.2324 70.8994C16.2664 70.9895 11.9807 72.6148 11.9807 72.6148Z" fill="#4B4B4A"/>
<path d="M11.3517 70.868C11.3212 70.7765 15.6694 69.325 15.6694 69.325C15.6999 69.4158 11.3517 70.868 11.3517 70.868Z" fill="#4B4B4A"/>
<path d="M10.8048 69.0968C10.7786 69.0039 15.1814 67.7283 15.1814 67.7283C15.2083 67.8212 10.8048 69.0968 10.8048 69.0968Z" fill="#4B4B4A"/>
<path d="M10.3204 67.3054C10.297 67.2125 14.748 66.115 14.748 66.115C14.7715 66.2086 10.3204 67.3054 10.3204 67.3054Z" fill="#4B4B4A"/>
<path d="M9.90631 65.4951C9.88786 65.4015 14.3793 64.4849 14.3793 64.4849C14.3985 64.5785 9.90631 65.4951 9.90631 65.4951Z" fill="#4B4B4A"/>
<path d="M9.57426 63.6706C9.55865 63.5763 14.0835 62.8413 14.0835 62.8413C14.0991 62.9357 9.57426 63.6706 9.57426 63.6706Z" fill="#4B4B4A"/>
<path d="M9.30861 61.8349C9.29726 61.7392 13.8483 61.1865 13.8483 61.1865C13.8597 61.2823 9.30861 61.8349 9.30861 61.8349Z" fill="#4B4B4A"/>
<path d="M9.12892 59.9886C9.12112 59.8921 13.6899 59.5239 13.6899 59.5239C13.6985 59.6204 9.12892 59.9886 9.12892 59.9886Z" fill="#4B4B4A"/>
<path d="M9.00391 58.1369C9.00036 58.0404 13.5805 57.856 13.5805 57.856C13.5841 57.9524 9.00391 58.1369 9.00391 58.1369Z" fill="#4B4B4A"/>
<path d="M13.5525 56.2813H8.96875C8.96875 56.1856 13.5525 56.1855 13.5525 56.1855V56.2813Z" fill="#4B4B4A"/>
<path d="M13.5763 54.6118L8.99609 54.4273C8.99964 54.3309 13.5798 54.5153 13.5798 54.5153L13.5763 54.6118Z" fill="#4B4B4A"/>
<path d="M13.6899 52.9439L9.12109 52.5749C9.12889 52.4784 13.6984 52.8474 13.6984 52.8474L13.6899 52.9439Z" fill="#4B4B4A"/>
<path d="M13.8519 51.2804L9.30078 50.7284C9.31213 50.6327 13.8632 51.1853 13.8632 51.1853L13.8519 51.2804Z" fill="#4B4B4A"/>
<path d="M14.0873 49.6263L9.5625 48.8913C9.57811 48.7962 14.1029 49.5319 14.1029 49.5319L14.0873 49.6263Z" fill="#4B4B4A"/>
<path d="M14.386 47.9823L9.89453 47.0656C9.91298 46.9713 14.4052 47.8887 14.4052 47.8887L14.386 47.9823Z" fill="#4B4B4A"/>
<path d="M14.7472 46.3524L10.2969 45.2556C10.3196 45.1627 14.7706 46.2595 14.7706 46.2595L14.7472 46.3524Z" fill="#4B4B4A"/>
<path d="M15.1762 44.7381L10.7734 43.4625C10.7997 43.3703 15.2032 44.6459 15.2032 44.6459L15.1762 44.7381Z" fill="#4B4B4A"/>
<path d="M15.6724 43.1429L11.3242 41.6906C11.3547 41.5998 15.7029 43.052 15.7029 43.052L15.6724 43.1429Z" fill="#4B4B4A"/>
<path d="M16.2311 41.5686L11.9453 39.9426C11.9794 39.8525 16.2651 41.4785 16.2651 41.4785L16.2311 41.5686Z" fill="#4B4B4A"/>
<path d="M16.8583 40.0175L12.6406 38.2205C12.6782 38.1318 16.8959 39.9288 16.8959 39.9288L16.8583 40.0175Z" fill="#4B4B4A"/>
<path d="M40.2816 17.4624L38.6562 13.176C38.7456 13.1426 40.3716 17.4291 40.3716 17.4291L40.2816 17.4624Z" fill="#4B4B4A"/>
<path d="M41.8539 16.8996L40.4023 12.5514C40.4939 12.5209 41.9454 16.8691 41.9454 16.8691L41.8539 16.8996Z" fill="#4B4B4A"/>
<path d="M43.4435 16.4007L42.168 11.9972C42.2602 11.9702 43.5358 16.3738 43.5358 16.3738L43.4435 16.4007Z" fill="#4B4B4A"/>
<path d="M45.0624 15.9668L43.9648 11.5157C44.0585 11.4923 45.156 15.9434 45.156 15.9434L45.0624 15.9668Z" fill="#4B4B4A"/>
<path d="M46.6907 15.5975L45.7734 11.106C45.8678 11.0862 46.7851 15.5777 46.7851 15.5777L46.6907 15.5975Z" fill="#4B4B4A"/>
<path d="M48.3373 15.2947L47.6016 10.7698C47.6966 10.7542 48.4323 15.2783 48.4323 15.2783L48.3373 15.2947Z" fill="#4B4B4A"/>
<path d="M49.9902 15.0577L49.4375 10.5066C49.5333 10.4953 50.0852 15.0464 50.0852 15.0464L49.9902 15.0577Z" fill="#4B4B4A"/>
<path d="M51.6502 14.8886L51.2812 10.3191C51.377 10.3113 51.7459 14.8808 51.7459 14.8808L51.6502 14.8886Z" fill="#4B4B4A"/>
<path d="M53.3212 14.785L53.1367 10.2048C53.2332 10.2013 53.4177 14.7815 53.4177 14.7815L53.3212 14.785Z" fill="#4B4B4A"/>
<path d="M78.0852 49.6089C77.9279 49.1238 77.6316 48.6955 77.2331 48.3772C76.8346 48.059 76.3513 47.8648 75.8434 47.8188L61.6854 46.5334L56.0901 33.4337C55.8895 32.9638 55.5552 32.5632 55.1289 32.2817C54.7025 32.0002 54.2028 31.8501 53.6919 31.8501C53.181 31.8501 52.6814 32.0002 52.255 32.2817C51.8286 32.5632 51.4944 32.9638 51.2937 33.4337L45.6984 46.5334L31.5382 47.8188C31.0301 47.8657 30.5469 48.0605 30.1483 48.3791C29.7497 48.6977 29.4533 49.1262 29.2956 49.6115C29.138 50.0968 29.1261 50.6177 29.2614 51.1097C29.3967 51.6018 29.6732 52.0434 30.0568 52.3799L40.7591 61.7642L37.6035 75.6626C37.4896 76.1605 37.5244 76.6809 37.7037 77.1592C37.883 77.6375 38.1989 78.0526 38.6122 78.3528C39.0254 78.6531 39.5177 78.8253 40.028 78.8481C40.5383 78.8709 41.0441 78.7432 41.4824 78.481L53.6908 71.1812L65.897 78.481C66.3355 78.7428 66.8412 78.8702 67.3514 78.8473C67.8617 78.8244 68.354 78.6521 68.7672 78.352C69.1805 78.0519 69.4966 77.6371 69.6763 77.159C69.856 76.6809 69.8914 76.1606 69.7781 75.6626L66.6225 61.7642L77.3248 52.3799C77.7088 52.0431 77.9855 51.601 78.1206 51.1084C78.2558 50.6159 78.2434 50.0945 78.0852 49.6089Z" fill="#ED2224"/>
</svg>
