<svg width="111" height="111" viewBox="0 0 111 111" fill="none" xmlns="http://www.w3.org/2000/svg">
<path d="M55.5114 110.999H55.4884C48.2046 110.99 40.9928 109.558 34.2577 106.785C30.897 105.393 27.682 103.673 24.6595 101.65C18.6064 97.594 13.4054 92.393 9.34948 86.34C7.32594 83.3175 5.60598 80.1024 4.21472 76.7417C-1.40494 63.1378 -1.4049 47.8614 4.21481 34.2575C5.60604 30.8968 7.32595 27.6818 9.34948 24.6594C11.3733 21.6406 13.6862 18.8261 16.2555 16.2556C18.826 13.6864 21.6408 11.3732 24.6596 9.34947C27.6821 7.32588 30.8972 5.60595 34.2579 4.21474C40.9933 1.44136 48.2053 0.00966225 55.4892 0H55.5109C62.7949 0.00958987 70.0069 1.44132 76.7423 4.21482C80.103 5.60603 83.3181 7.32597 86.3405 9.34956C92.3936 13.4054 97.5946 18.6064 101.65 24.6595C103.674 27.682 105.394 30.897 106.785 34.2577C112.405 47.8615 112.405 63.138 106.785 76.7418C105.394 80.1025 103.674 83.3176 101.65 86.3401C97.5945 92.3931 92.3935 97.5941 86.3404 101.65C83.3179 103.673 80.1028 105.393 76.7421 106.785C70.007 109.558 62.7952 110.99 55.5114 110.999ZM55.4999 110.306H55.5112C62.704 110.296 69.8257 108.883 76.4767 106.144C79.7952 104.77 82.9699 103.072 85.9544 101.074C91.9321 97.0681 97.0685 91.9318 101.074 85.9541C103.072 82.9696 104.77 79.7949 106.144 76.4765C111.694 63.0425 111.694 47.957 106.144 34.5231C104.771 31.2046 103.072 28.03 101.074 25.0455C97.0686 19.0677 91.9322 13.9314 85.9545 9.92597C82.97 7.92782 79.7954 6.22949 76.4769 4.85573C69.8257 2.11701 62.7037 0.703228 55.5107 0.693738H55.4893C48.2964 0.70312 41.1744 2.11687 34.5233 4.85563C31.2047 6.22939 28.0301 7.92773 25.0455 9.92588C19.0678 13.9314 13.9314 19.0677 9.92589 25.0454C7.92782 28.0299 6.22953 31.2045 4.85577 34.5229C-0.693605 47.9568 -0.693639 63.0423 4.85567 76.4763C6.22943 79.7948 7.92773 82.9695 9.92584 85.954C13.9313 91.9317 19.0677 97.068 25.0454 101.074C28.03 103.072 31.2046 104.77 34.5231 106.144C41.174 108.882 48.2958 110.296 55.4885 110.306L55.4999 110.306Z" fill="#4B4B4A"/>
<path d="M55.4893 108.744C48.6342 108.753 41.8421 107.436 35.4876 104.864C32.2933 103.57 29.2331 101.967 26.3507 100.078L26.1755 99.9634L26.1956 99.7549C26.262 99.0676 26.3478 98.3355 26.4659 97.4509C26.5524 96.7981 26.6556 96.1222 26.7802 95.3911C23.02 92.6787 19.6599 89.4509 16.7987 85.8026C10.9562 78.3603 7.39685 69.3837 6.55168 59.9599C6.13202 55.3434 6.36506 50.6907 7.24395 46.1392C6.69439 45.722 6.14332 45.2909 5.60336 44.8555C5.00971 44.3721 4.41379 43.8706 3.83076 43.3637L3.67188 43.2256L3.72102 43.0209C6.00897 33.4847 10.8966 24.7697 17.8408 17.8449L17.8417 17.8439C19.4077 16.2849 21.0651 14.8204 22.8051 13.4582C28.0493 9.3676 34.0178 6.30236 40.3977 4.42311L40.6 4.36304L40.7463 4.51514C41.283 5.0731 41.8146 5.64363 42.3261 6.21089C42.7561 6.68873 43.2043 7.20495 43.6924 7.78477C52.8102 5.5409 62.3787 5.94327 71.2758 8.94468C75.7338 10.4502 79.9501 12.5934 83.7937 15.3075C87.5817 17.9809 90.9747 21.174 93.8728 24.7929C94.611 24.6284 95.2808 24.4909 95.9145 24.374C96.7556 24.2174 97.5037 24.0906 98.2011 23.9863L98.4084 23.9553L98.5322 24.1243C102.603 29.7058 105.548 36.0264 107.203 42.7333C108.843 49.4416 109.177 56.4028 108.186 63.2372L108.156 63.4454L107.957 63.5145C107.225 63.769 106.485 64.0131 105.757 64.2403C105.128 64.435 104.472 64.6262 103.756 64.8233C101.986 74.0431 97.6009 82.5592 91.1246 89.356C87.8809 92.7683 84.1663 95.6997 80.0934 98.0613C76.0844 100.383 71.7648 102.122 67.265 103.225C67.1159 103.898 66.9546 104.578 66.7848 105.251C66.6003 105.97 66.3938 106.722 66.1709 107.485L66.1119 107.687L65.9056 107.728C62.475 108.406 58.9862 108.746 55.4893 108.744ZM26.9067 99.6128C32.5653 103.289 38.8826 105.833 45.5092 107.105C52.1347 108.371 58.9404 108.365 65.5637 107.088C65.762 106.402 65.9464 105.727 66.1124 105.08C66.298 104.345 66.4735 103.599 66.6338 102.865L66.6801 102.652L66.8915 102.602C71.4019 101.517 75.7316 99.7859 79.7457 97.4609C87.8173 92.7821 94.3747 85.8828 98.6376 77.5842C100.753 73.4553 102.261 69.0423 103.114 64.482L103.154 64.2683L103.364 64.2112C104.155 63.996 104.87 63.7887 105.551 63.5778C106.205 63.3737 106.87 63.1554 107.53 62.9281C108.471 56.2487 108.131 49.4513 106.53 42.899C104.913 36.3487 102.05 30.1712 98.0963 24.7039C97.4661 24.8008 96.7913 24.9164 96.0407 25.0561C95.3556 25.1826 94.6273 25.3334 93.8136 25.5172L93.6012 25.5653L93.4657 25.3949C90.579 21.7579 87.1874 18.5521 83.3939 15.8745C75.77 10.4998 66.7529 7.44751 57.4318 7.08653C52.7936 6.90015 48.1527 7.37952 43.6505 8.51003L43.4397 8.56305L43.3 8.39639C42.7626 7.75466 42.2754 7.19177 41.8106 6.67527C41.3508 6.16527 40.8744 5.65239 40.3926 5.14862C34.1718 7.00858 28.3523 10.0119 23.2323 14.0047C21.5143 15.3497 19.8778 16.7958 18.3316 18.3352C11.5284 25.1191 6.72404 33.645 4.44512 42.9783C4.97156 43.4332 5.50729 43.8827 6.04005 44.3166C6.62963 44.792 7.2339 45.2632 7.83473 45.7163L8.00835 45.8472L7.96616 46.0606C6.15693 55.2138 7.01814 64.6942 10.4471 73.3715C12.1552 77.6843 14.4784 81.7271 17.3445 85.3744C20.21 89.0283 23.5827 92.2541 27.3606 94.9541L27.5378 95.0808L27.5005 95.2955C27.3607 96.1003 27.2472 96.8354 27.1535 97.5425C27.0485 98.3296 26.9693 98.994 26.9067 99.6128Z" fill="#4B4B4A"/>
<path d="M77.104 14.7092L76.6719 14.4829L74.9521 17.7662L75.3841 17.9925L77.104 14.7092Z" fill="#4B4B4A"/>
<path d="M80.3731 16.6197L79.9609 16.3594L77.9815 19.4931L78.3937 19.7534L80.3731 16.6197Z" fill="#4B4B4A"/>
<path d="M83.4874 18.7885L83.0977 18.4954L80.8694 21.4574L81.2591 21.7506L83.4874 18.7885Z" fill="#4B4B4A"/>
<path d="M86.4039 21.1994L86.0391 20.8757L83.5795 23.6481L83.9443 23.9718L86.4039 21.1994Z" fill="#4B4B4A"/>
<path d="M89.1229 23.8358L88.7852 23.4839L86.1109 26.0503L86.4486 26.4022L89.1229 23.8358Z" fill="#4B4B4A"/>
<path d="M91.6207 26.6837L91.3125 26.3059L88.4405 28.6488L88.7488 29.0266L91.6207 26.6837Z" fill="#4B4B4A"/>
<path d="M93.8745 29.7233L93.5977 29.3215L90.5456 31.4245L90.8224 31.8263L93.8745 29.7233Z" fill="#4B4B4A"/>
<path d="M95.8808 32.9324L95.6367 32.5103L92.4283 34.3652L92.6723 34.7873L95.8808 32.9324Z" fill="#4B4B4A"/>
<path d="M97.6304 36.2968L97.4219 35.8562L94.0718 37.4422L94.2804 37.8828L97.6304 36.2968Z" fill="#4B4B4A"/>
<path d="M99.0912 39.7856L98.918 39.3298L95.4533 40.6466L95.6265 41.1024L99.0912 39.7856Z" fill="#4B4B4A"/>
<path d="M100.272 43.3861L100.137 42.9175L96.5765 43.9478L96.7121 44.4164L100.272 43.3861Z" fill="#4B4B4A"/>
<path d="M101.16 47.0651L101.062 46.5876L97.4315 47.3322L97.5294 47.8096L101.16 47.0651Z" fill="#4B4B4A"/>
<path d="M101.75 50.8074L101.691 50.3232L98.0119 50.7704L98.0708 51.2545L101.75 50.8074Z" fill="#4B4B4A"/>
<path d="M102.035 54.5855L102.016 54.0981L98.3122 54.2437L98.3313 54.7311L102.035 54.5855Z" fill="#4B4B4A"/>
<path d="M98.3086 58.2216L98.3279 57.7341L102.031 57.8838L102.012 58.3712L98.3086 58.2216Z" fill="#4B4B4A"/>
<path d="M101.691 62.1442L101.75 61.6604L98.0706 61.2126L98.0117 61.6964L101.691 62.1442Z" fill="#4B4B4A"/>
<path d="M101.066 65.8798L101.164 65.4023L97.5331 64.6578L97.4352 65.1353L101.066 65.8798Z" fill="#4B4B4A"/>
<path d="M100.138 69.5492L100.273 69.0806L96.7128 68.0517L96.5773 68.5203L100.138 69.5492Z" fill="#4B4B4A"/>
<path d="M98.9246 73.1363L99.0977 72.6802L95.6322 71.3651L95.4591 71.8213L98.9246 73.1363Z" fill="#4B4B4A"/>
<path d="M97.4164 76.6107L97.625 76.1702L94.2752 74.5843L94.0666 75.0248L97.4164 76.6107Z" fill="#4B4B4A"/>
<path d="M95.6466 79.9573L95.8906 79.5352L92.6822 77.6802L92.4382 78.1023L95.6466 79.9573Z" fill="#4B4B4A"/>
<path d="M93.6021 83.1454L93.8789 82.7437L90.8269 80.6407L90.55 81.0424L93.6021 83.1454Z" fill="#4B4B4A"/>
<path d="M91.3092 86.1613L91.6172 85.7837L88.7454 83.4409L88.4374 83.8185L91.3092 86.1613Z" fill="#4B4B4A"/>
<path d="M88.7873 88.984L89.125 88.6328L86.4534 86.0637L86.1157 86.4149L88.7873 88.984Z" fill="#4B4B4A"/>
<path d="M55.0359 11.6514C49.5417 11.6464 44.0943 12.6623 38.9713 14.6474L39.0642 15.0241C48.5837 11.3321 59.0877 11.0488 68.7924 14.2222C78.4971 17.3957 86.8042 23.8303 92.3032 32.4334C97.8021 41.0364 100.154 51.2776 98.9591 61.4178C97.7643 71.5579 93.0966 80.972 85.7486 88.0614C78.4006 95.1507 68.8254 99.4783 58.6488 100.309C48.4723 101.14 38.3219 98.4231 29.9212 92.6196C21.5206 86.8162 15.3875 78.284 12.5636 68.4719C9.73967 58.6598 10.399 48.1728 14.4295 38.7917L14.0564 38.6831C10.2825 47.496 9.45018 57.2906 11.6828 66.6139C13.9154 75.9371 19.0939 84.2923 26.4502 90.4399C33.8065 96.5875 42.9487 100.2 52.5203 100.741C62.0919 101.283 71.583 98.7243 79.5857 93.4454C87.5883 88.1666 93.676 80.4486 96.9457 71.4366C100.215 62.4246 100.493 52.5986 97.737 43.4164C94.981 34.2342 89.3385 26.185 81.6465 20.463C73.9545 14.741 64.6228 11.651 55.0359 11.6514Z" fill="#4B4B4A"/>
<path d="M55.0841 14.7504C54.9883 14.7504 54.9883 10.166 54.9883 10.166C55.0841 10.166 55.0841 14.7504 55.0841 14.7504Z" fill="#4B4B4A"/>
<path d="M56.7545 14.7849C56.658 14.7813 56.8425 10.2012 56.8425 10.2012C56.939 10.2047 56.7545 14.7849 56.7545 14.7849Z" fill="#4B4B4A"/>
<path d="M58.426 14.8886C58.3303 14.8808 58.6992 10.3113 58.6992 10.3113C58.795 10.3191 58.426 14.8886 58.426 14.8886Z" fill="#4B4B4A"/>
<path d="M60.0854 15.058C59.9896 15.0467 60.5423 10.4956 60.5423 10.4956C60.638 10.507 60.0854 15.058 60.0854 15.058Z" fill="#4B4B4A"/>
<path d="M61.7429 15.2953C61.6478 15.279 62.3834 10.7549 62.3834 10.7549C62.4785 10.7705 61.7429 15.2953 61.7429 15.2953Z" fill="#4B4B4A"/>
<path d="M63.3818 15.5982C63.2875 15.5784 64.2048 11.0869 64.2048 11.0869C64.2991 11.1068 63.3818 15.5982 63.3818 15.5982Z" fill="#4B4B4A"/>
<path d="M65.0173 15.9669C64.9244 15.9435 66.0212 11.4924 66.0212 11.4924C66.1148 11.5158 65.0173 15.9669 65.0173 15.9669Z" fill="#4B4B4A"/>
<path d="M66.6259 16.4011C66.5336 16.3742 67.8092 11.9707 67.8092 11.9707C67.9014 11.9977 66.6259 16.4011 66.6259 16.4011Z" fill="#4B4B4A"/>
<path d="M68.2229 16.8999C68.1314 16.8694 69.5829 12.5212 69.5829 12.5212C69.6744 12.5517 68.2229 16.8999 68.2229 16.8999Z" fill="#4B4B4A"/>
<path d="M69.7966 17.4626C69.7065 17.4292 71.3325 13.1428 71.3325 13.1428C71.4219 13.1762 69.7966 17.4626 69.7966 17.4626Z" fill="#4B4B4A"/>
<path d="M71.343 18.0885C71.2543 18.0509 73.0514 13.8333 73.0514 13.8333C73.14 13.8708 71.343 18.0885 71.343 18.0885Z" fill="#4B4B4A"/>
<path d="M72.8661 18.7754C72.7795 18.7342 74.7446 14.5925 74.7446 14.5925C74.8312 14.6344 72.8661 18.7754 72.8661 18.7754Z" fill="#4B4B4A"/>
<path d="M74.3619 19.5233C74.2767 19.4793 76.4072 15.4199 76.4072 15.4199C76.4923 15.4646 74.3619 19.5233 74.3619 19.5233Z" fill="#4B4B4A"/>
<path d="M75.8225 20.3315C75.7395 20.2833 78.031 16.314 78.031 16.314C78.1148 16.3622 75.8225 20.3315 75.8225 20.3315Z" fill="#4B4B4A"/>
<path d="M77.252 21.1975C77.1711 21.1464 79.6208 17.2715 79.6208 17.2715C79.7017 17.3225 77.252 21.1975 77.252 21.1975Z" fill="#4B4B4A"/>
<path d="M78.6424 22.1209C78.5636 22.0663 81.1673 18.2935 81.1673 18.2935C81.2467 18.3481 78.6424 22.1209 78.6424 22.1209Z" fill="#4B4B4A"/>
<path d="M79.9977 23.0982C79.9204 23.0407 82.6744 19.3757 82.6744 19.3757C82.751 19.4339 79.9977 23.0982 79.9977 23.0982Z" fill="#4B4B4A"/>
<path d="M81.3139 24.1306C81.2394 24.0695 84.1382 20.5188 84.1382 20.5188C84.2127 20.5798 81.3139 24.1306 81.3139 24.1306Z" fill="#4B4B4A"/>
<path d="M82.5872 25.2146C82.5148 25.1508 85.5548 21.7192 85.5548 21.7192C85.6272 21.7831 82.5872 25.2146 82.5872 25.2146Z" fill="#4B4B4A"/>
<path d="M83.8058 26.3487C83.7363 26.282 86.9117 22.9753 86.9117 22.9753C86.9813 23.0427 83.8058 26.3487 83.8058 26.3487Z" fill="#4B4B4A"/>
<path d="M84.9932 27.5316C84.9265 27.4628 88.2325 24.2866 88.2325 24.2866C88.2992 24.3561 84.9932 27.5316 84.9932 27.5316Z" fill="#4B4B4A"/>
<path d="M86.1259 28.761C86.062 28.6886 89.4929 25.6487 89.4929 25.6487C89.5575 25.721 86.1259 28.761 86.1259 28.761Z" fill="#4B4B4A"/>
<path d="M87.2039 30.0348C87.1429 29.9603 90.6936 27.0615 90.6936 27.0615C90.7547 27.136 87.2039 30.0348 87.2039 30.0348Z" fill="#4B4B4A"/>
<path d="M88.2351 31.3509C88.1769 31.2743 91.8419 28.5203 91.8419 28.5203C91.9001 28.5969 88.2351 31.3509 88.2351 31.3509Z" fill="#4B4B4A"/>
<path d="M89.2037 32.7075C89.1491 32.6288 92.9219 30.0244 92.9219 30.0244C92.9765 30.1039 89.2037 32.7075 89.2037 32.7075Z" fill="#4B4B4A"/>
<path d="M90.1216 34.1021C90.0705 34.0212 93.9448 31.5708 93.9448 31.5708C93.9966 31.6517 90.1216 34.1021 90.1216 34.1021Z" fill="#4B4B4A"/>
<path d="M90.9887 35.5332C90.9412 35.4502 94.9112 33.158 94.9112 33.158C94.9588 33.2417 90.9887 35.5332 90.9887 35.5332Z" fill="#4B4B4A"/>
<path d="M91.7933 36.9978C91.7486 36.9127 95.8081 34.7822 95.8081 34.7822C95.8528 34.8674 91.7933 36.9978 91.7933 36.9978Z" fill="#4B4B4A"/>
<path d="M92.5355 38.494C92.4943 38.4068 96.6361 36.4417 96.6361 36.4417C96.6772 36.5282 92.5355 38.494 92.5355 38.494Z" fill="#4B4B4A"/>
<path d="M93.2229 40.0178C93.1853 39.9291 97.4029 38.1321 97.4029 38.1321C97.4398 38.2207 93.2229 40.0178 93.2229 40.0178Z" fill="#4B4B4A"/>
<path d="M93.844 41.5687C93.8099 41.4786 98.0956 39.8525 98.0956 39.8525C98.1304 39.9427 93.844 41.5687 93.844 41.5687Z" fill="#4B4B4A"/>
<path d="M94.3986 43.1429C94.3681 43.0521 98.7162 41.5999 98.7162 41.5999C98.7468 41.6907 94.3986 43.1429 94.3986 43.1429Z" fill="#4B4B4A"/>
<path d="M94.8986 44.7386C94.8716 44.6464 99.2751 43.3708 99.2751 43.3708C99.3013 43.4631 94.8986 44.7386 94.8986 44.7386Z" fill="#4B4B4A"/>
<path d="M95.3321 46.3523C95.3087 46.2594 99.7597 45.1626 99.7597 45.1626C99.7824 45.2555 95.3321 46.3523 95.3321 46.3523Z" fill="#4B4B4A"/>
<path d="M95.6954 47.9824C95.6762 47.8887 100.168 46.9714 100.168 46.9714C100.187 47.0658 95.6954 47.9824 95.6954 47.9824Z" fill="#4B4B4A"/>
<path d="M95.9961 49.6262C95.9805 49.5318 100.505 48.7961 100.505 48.7961C100.521 48.8912 95.9961 49.6262 95.9961 49.6262Z" fill="#4B4B4A"/>
<path d="M96.2266 51.2808C96.2152 51.1857 100.766 50.6331 100.766 50.6331C100.778 50.7288 96.2266 51.2808 96.2266 51.2808Z" fill="#4B4B4A"/>
<path d="M96.3945 52.9434C96.3867 52.8469 100.956 52.478 100.956 52.478C100.964 52.5745 96.3945 52.9434 96.3945 52.9434Z" fill="#4B4B4A"/>
<path d="M96.4883 54.6118C96.4847 54.5153 101.065 54.3308 101.065 54.3308C101.068 54.4273 96.4883 54.6118 96.4883 54.6118Z" fill="#4B4B4A"/>
<path d="M101.107 56.2816H96.5234C96.5234 56.1858 101.107 56.1858 101.107 56.1858V56.2816Z" fill="#4B4B4A"/>
<path d="M101.068 58.1365L96.4883 57.952C96.4918 57.8555 101.072 58.04 101.072 58.04L101.068 58.1365Z" fill="#4B4B4A"/>
<path d="M100.956 59.989L96.3867 59.6201C96.3945 59.5236 100.964 59.8925 100.964 59.8925L100.956 59.989Z" fill="#4B4B4A"/>
<path d="M100.765 61.8343L96.2148 61.2817C96.2262 61.1859 100.777 61.7385 100.777 61.7385L100.765 61.8343Z" fill="#4B4B4A"/>
<path d="M100.501 63.6706L95.9766 62.9356C95.9922 62.8413 100.517 63.5762 100.517 63.5762L100.501 63.6706Z" fill="#4B4B4A"/>
<path d="M100.163 65.4958L95.6719 64.5785C95.691 64.4848 100.182 65.4015 100.182 65.4015L100.163 65.4958Z" fill="#4B4B4A"/>
<path d="M99.7557 67.3046L95.3047 66.2078C95.3281 66.1142 99.7784 67.2117 99.7784 67.2117L99.7557 67.3046Z" fill="#4B4B4A"/>
<path d="M99.2739 69.0968L94.8711 67.8212C94.8981 67.7283 99.3009 69.0039 99.3009 69.0039L99.2739 69.0968Z" fill="#4B4B4A"/>
<path d="M98.7192 70.8679L94.3711 69.4157C94.4016 69.3249 98.7498 70.7764 98.7498 70.7764L98.7192 70.8679Z" fill="#4B4B4A"/>
<path d="M98.095 72.6148L93.8086 70.9887C93.8434 70.8986 98.1298 72.5247 98.1298 72.5247L98.095 72.6148Z" fill="#4B4B4A"/>
<path d="M97.4051 74.3356L93.1875 72.5386C93.2251 72.4499 97.4421 74.2469 97.4421 74.2469L97.4051 74.3356Z" fill="#4B4B4A"/>
<path d="M96.6418 76.0263L92.5 74.0612C92.5411 73.9739 96.6829 75.9398 96.6829 75.9398L96.6418 76.0263Z" fill="#4B4B4A"/>
<path d="M95.8055 77.6847L91.7461 75.555C91.7908 75.4698 95.8502 77.6003 95.8502 77.6003L95.8055 77.6847Z" fill="#4B4B4A"/>
<path d="M94.9076 79.3093L90.9375 77.0171C90.985 76.9341 94.9551 79.2256 94.9551 79.2256L94.9076 79.3093Z" fill="#4B4B4A"/>
<path d="M93.9524 80.8955L90.0781 78.4458C90.1292 78.3643 94.0042 80.8147 94.0042 80.8147L93.9524 80.8955Z" fill="#4B4B4A"/>
<path d="M92.9252 82.4423L89.1523 79.8387C89.207 79.7599 92.9798 82.3636 92.9798 82.3636L92.9252 82.4423Z" fill="#4B4B4A"/>
<path d="M91.8447 83.947L88.1797 81.193C88.2379 81.1164 91.9028 83.8704 91.9028 83.8704L91.8447 83.947Z" fill="#4B4B4A"/>
<path d="M90.6953 85.4063L87.1445 82.5075C87.2055 82.433 90.7563 85.3318 90.7563 85.3318L90.6953 85.4063Z" fill="#4B4B4A"/>
<path d="M89.4856 86.8188L86.0547 83.7789C86.1185 83.7065 89.5501 86.7464 89.5501 86.7464L89.4856 86.8188Z" fill="#4B4B4A"/>
<path d="M88.2318 88.1809L84.9258 85.0048C84.9925 84.9359 88.2984 88.1114 88.2984 88.1114L88.2318 88.1809Z" fill="#4B4B4A"/>
<path d="M86.9176 89.492L83.7422 86.1853C83.8117 86.1186 86.9872 89.4246 86.9872 89.4246L86.9176 89.492Z" fill="#4B4B4A"/>
<path d="M85.5517 90.7484L82.5117 87.3168C82.5841 87.2529 85.624 90.6838 85.624 90.6838L85.5517 90.7484Z" fill="#4B4B4A"/>
<path d="M84.141 91.9489L81.2422 88.3975C81.316 88.3372 84.2154 91.8879 84.2154 91.8879L84.141 91.9489Z" fill="#4B4B4A"/>
<path d="M82.6798 93.091L79.9258 89.4267C80.0024 89.3685 82.7565 93.0335 82.7565 93.0335L82.6798 93.091Z" fill="#4B4B4A"/>
<path d="M81.1701 94.1745L78.5664 90.4017C78.6452 90.3471 81.2495 94.1199 81.2495 94.1199L81.1701 94.1745Z" fill="#4B4B4A"/>
<path d="M79.6216 95.1958L77.1719 91.3208C77.2528 91.2697 79.7025 95.1447 79.7025 95.1447L79.6216 95.1958Z" fill="#4B4B4A"/>
<path d="M78.0337 96.1538L75.7422 92.1838C75.8252 92.1355 78.1174 96.1056 78.1174 96.1056L78.0337 96.1538Z" fill="#4B4B4A"/>
<path d="M76.4039 97.0464L74.2734 92.9877C74.3586 92.943 76.489 97.0024 76.489 97.0024L76.4039 97.0464Z" fill="#4B4B4A"/>
<path d="M74.7425 97.8744L72.7773 93.7327C72.8639 93.6916 74.8291 97.8326 74.8291 97.8326L74.7425 97.8744Z" fill="#4B4B4A"/>
<path d="M73.0502 98.6334L71.2539 94.4165C71.3426 94.3789 73.1389 98.5958 73.1389 98.5958L73.0502 98.6334Z" fill="#4B4B4A"/>
<path d="M71.3253 99.3249L69.6992 95.0385C69.7893 95.0052 71.4146 99.2916 71.4146 99.2916L71.3253 99.3249Z" fill="#4B4B4A"/>
<path d="M69.5843 99.9462L68.1328 95.5981C68.2243 95.5669 69.6759 99.915 69.6759 99.915L69.5843 99.9462Z" fill="#4B4B4A"/>
<path d="M67.8107 100.496L66.5352 96.0929C66.6274 96.0659 67.9029 100.469 67.9029 100.469L67.8107 100.496Z" fill="#4B4B4A"/>
<path d="M66.0116 100.975L64.9141 96.5238C65.0077 96.5004 66.1045 100.951 66.1045 100.951L66.0116 100.975Z" fill="#4B4B4A"/>
<path d="M64.2064 101.381L63.2891 96.8887C63.3834 96.8696 64.3007 101.361 64.3007 101.361L64.2064 101.381Z" fill="#4B4B4A"/>
<path d="M62.3841 101.713L61.6484 97.1878C61.7435 97.1722 62.4792 101.697 62.4792 101.697L62.3841 101.713Z" fill="#4B4B4A"/>
<path d="M60.5487 101.972L59.9961 97.4207C60.0919 97.4093 60.6445 101.96 60.6445 101.96L60.5487 101.972Z" fill="#4B4B4A"/>
<path d="M58.7009 102.156L58.332 97.5864C58.4278 97.5786 58.7967 102.148 58.7967 102.148L58.7009 102.156Z" fill="#4B4B4A"/>
<path d="M56.8485 102.266L56.6641 97.6858C56.7605 97.6822 56.945 102.262 56.945 102.262L56.8485 102.266Z" fill="#4B4B4A"/>
<path d="M55.0841 102.301C54.9883 102.301 54.9883 97.717 54.9883 97.717C55.0841 97.717 55.0841 102.301 55.0841 102.301Z" fill="#4B4B4A"/>
<path d="M53.2307 102.266C53.1349 102.262 53.3194 97.6821 53.3194 97.6821C53.4159 97.6857 53.2307 102.266 53.2307 102.266Z" fill="#4B4B4A"/>
<path d="M51.3831 102.156C51.2873 102.148 51.6562 97.5789 51.6562 97.5789C51.752 97.5867 51.3831 102.156 51.3831 102.156Z" fill="#4B4B4A"/>
<path d="M49.5268 101.971C49.431 101.96 49.9837 97.4089 49.9837 97.4089C50.0787 97.4203 49.5268 101.971 49.5268 101.971Z" fill="#4B4B4A"/>
<path d="M47.696 101.713C47.6009 101.697 48.3359 97.1724 48.3359 97.1724C48.431 97.188 47.696 101.713 47.696 101.713Z" fill="#4B4B4A"/>
<path d="M45.8662 101.38C45.7718 101.361 46.6891 96.8691 46.6891 96.8691C46.7835 96.8883 45.8662 101.38 45.8662 101.38Z" fill="#4B4B4A"/>
<path d="M44.0604 100.975C43.9667 100.951 45.0642 96.5002 45.0642 96.5002C45.1578 96.5236 44.0604 100.975 44.0604 100.975Z" fill="#4B4B4A"/>
<path d="M42.2665 100.497C42.1743 100.469 43.4499 96.0662 43.4499 96.0662C43.5421 96.0931 42.2665 100.497 42.2665 100.497Z" fill="#4B4B4A"/>
<path d="M40.4924 99.946C40.4009 99.9148 41.8524 95.5667 41.8524 95.5667C41.944 95.5979 40.4924 99.946 40.4924 99.946Z" fill="#4B4B4A"/>
<path d="M38.7457 99.3252C38.6564 99.2918 40.2817 95.0054 40.2817 95.0054C40.3718 95.0387 38.7457 99.3252 38.7457 99.3252Z" fill="#4B4B4A"/>
<path d="M37.0227 98.6339C36.934 98.5963 38.731 94.3794 38.731 94.3794C38.8197 94.417 37.0227 98.6339 37.0227 98.6339Z" fill="#4B4B4A"/>
<path d="M35.3348 97.8748C35.2483 97.8329 37.2134 93.6919 37.2134 93.6919C37.3 93.733 35.3348 97.8748 35.3348 97.8748Z" fill="#4B4B4A"/>
<path d="M33.6705 97.0467C33.5853 97.0028 35.7158 92.9434 35.7158 92.9434C35.8009 92.988 33.6705 97.0467 33.6705 97.0467Z" fill="#4B4B4A"/>
<path d="M32.0452 96.1538C31.9622 96.1055 34.2544 92.1355 34.2544 92.1355C34.3374 92.1837 32.0452 96.1538 32.0452 96.1538Z" fill="#4B4B4A"/>
<path d="M30.4551 95.1949C30.3735 95.1438 32.8239 91.2695 32.8239 91.2695C32.9048 91.3206 30.4551 95.1949 30.4551 95.1949Z" fill="#4B4B4A"/>
<path d="M28.908 94.1744C28.8286 94.1197 31.433 90.3469 31.433 90.3469C31.5117 90.4015 28.908 94.1744 28.908 94.1744Z" fill="#4B4B4A"/>
<path d="M27.3961 93.0906C27.3195 93.0331 30.0729 89.3682 30.0729 89.3682C30.1502 89.4263 27.3961 93.0906 27.3961 93.0906Z" fill="#4B4B4A"/>
<path d="M25.9389 91.948C25.8644 91.8877 28.7632 88.3369 28.7632 88.3369C28.8377 88.3972 25.9389 91.948 25.9389 91.948Z" fill="#4B4B4A"/>
<path d="M24.5286 90.7483C24.4563 90.6838 27.4962 87.2529 27.4962 87.2529C27.5686 87.3168 24.5286 90.7483 24.5286 90.7483Z" fill="#4B4B4A"/>
<path d="M23.1535 89.4911C23.0839 89.4244 26.2594 86.1184 26.2594 86.1184C26.329 86.1851 23.1535 89.4911 23.1535 89.4911Z" fill="#4B4B4A"/>
<path d="M21.8487 88.181C21.782 88.1115 25.088 84.936 25.088 84.936C25.1547 85.0049 21.8487 88.181 21.8487 88.181Z" fill="#4B4B4A"/>
<path d="M20.5829 86.8184C20.5191 86.746 23.9506 83.7061 23.9506 83.7061C24.0145 83.7784 20.5829 86.8184 20.5829 86.8184Z" fill="#4B4B4A"/>
<path d="M19.3836 85.4061C19.3226 85.3316 22.8733 82.4329 22.8733 82.4329C22.9343 82.5073 19.3836 85.4061 19.3836 85.4061Z" fill="#4B4B4A"/>
<path d="M18.2351 83.9472C18.1769 83.8705 21.8419 81.1165 21.8419 81.1165C21.8993 81.1931 18.2351 83.9472 18.2351 83.9472Z" fill="#4B4B4A"/>
<path d="M17.149 82.4419C17.0944 82.3632 20.8672 79.7595 20.8672 79.7595C20.9219 79.8383 17.149 82.4419 17.149 82.4419Z" fill="#4B4B4A"/>
<path d="M16.1216 80.8958C16.0698 80.8149 19.9448 78.3645 19.9448 78.3645C19.9959 78.4461 16.1216 80.8958 16.1216 80.8958Z" fill="#4B4B4A"/>
<path d="M15.1606 79.3093C15.1124 79.2256 19.0831 76.9341 19.0831 76.9341C19.1306 77.0171 15.1606 79.3093 15.1606 79.3093Z" fill="#4B4B4A"/>
<path d="M14.266 77.6846C14.2213 77.6002 18.2807 75.4697 18.2807 75.4697C18.3254 75.5542 14.266 77.6846 14.266 77.6846Z" fill="#4B4B4A"/>
<path d="M13.4339 76.0263C13.3921 75.9397 17.5338 73.9739 17.5338 73.9739C17.5749 74.0611 13.4339 76.0263 13.4339 76.0263Z" fill="#4B4B4A"/>
<path d="M12.676 74.3351C12.6384 74.2464 16.8561 72.4495 16.8561 72.4495C16.8937 72.5382 12.676 74.3351 12.676 74.3351Z" fill="#4B4B4A"/>
<path d="M11.9729 72.6143C11.9388 72.5242 16.2245 70.8989 16.2245 70.8989C16.2586 70.989 11.9729 72.6143 11.9729 72.6143Z" fill="#4B4B4A"/>
<path d="M11.3517 70.868C11.3212 70.7764 15.6694 69.325 15.6694 69.325C15.6999 69.4158 11.3517 70.868 11.3517 70.868Z" fill="#4B4B4A"/>
<path d="M10.797 69.0968C10.7708 69.0038 15.1735 67.7283 15.1735 67.7283C15.2005 67.8212 10.797 69.0968 10.797 69.0968Z" fill="#4B4B4A"/>
<path d="M10.3204 67.3049C10.297 67.212 14.7481 66.1145 14.7481 66.1145C14.7715 66.2081 10.3204 67.3049 10.3204 67.3049Z" fill="#4B4B4A"/>
<path d="M9.90631 65.4951C9.88786 65.4015 14.3793 64.4849 14.3793 64.4849C14.3985 64.5785 9.90631 65.4951 9.90631 65.4951Z" fill="#4B4B4A"/>
<path d="M9.57426 63.6702C9.55865 63.5758 14.0835 62.8408 14.0835 62.8408C14.0991 62.9352 9.57426 63.6702 9.57426 63.6702Z" fill="#4B4B4A"/>
<path d="M9.30861 61.8344C9.29726 61.7387 13.8484 61.186 13.8484 61.186C13.8598 61.2818 9.30861 61.8344 9.30861 61.8344Z" fill="#4B4B4A"/>
<path d="M9.1211 59.9886C9.11331 59.8921 13.6821 59.5239 13.6821 59.5239C13.6906 59.6204 9.1211 59.9886 9.1211 59.9886Z" fill="#4B4B4A"/>
<path d="M9.00391 58.1364C9.00036 58.0399 13.5805 57.8555 13.5805 57.8555C13.5841 57.952 9.00391 58.1364 9.00391 58.1364Z" fill="#4B4B4A"/>
<path d="M13.5525 56.2816H8.96875C8.96875 56.1858 13.5525 56.1858 13.5525 56.1858V56.2816Z" fill="#4B4B4A"/>
<path d="M13.584 54.6113L9.00391 54.4269C9.00745 54.3304 13.5876 54.5148 13.5876 54.5148L13.584 54.6113Z" fill="#4B4B4A"/>
<path d="M13.6821 52.9436L9.11328 52.5747C9.12108 52.4782 13.6906 52.8471 13.6906 52.8471L13.6821 52.9436Z" fill="#4B4B4A"/>
<path d="M13.8441 51.2806L9.29297 50.7287C9.30432 50.6329 13.8554 51.1856 13.8554 51.1856L13.8441 51.2806Z" fill="#4B4B4A"/>
<path d="M14.0795 49.6263L9.55469 48.8913C9.5703 48.7962 14.0951 49.5319 14.0951 49.5319L14.0795 49.6263Z" fill="#4B4B4A"/>
<path d="M14.386 47.9825L9.89453 47.0659C9.91298 46.9715 14.4052 47.8889 14.4052 47.8889L14.386 47.9825Z" fill="#4B4B4A"/>
<path d="M14.7472 46.3521L10.2969 45.2553C10.3196 45.1624 14.7706 46.2592 14.7706 46.2592L14.7472 46.3521Z" fill="#4B4B4A"/>
<path d="M15.1762 44.7383L10.7734 43.4628C10.7997 43.3706 15.2032 44.6461 15.2032 44.6461L15.1762 44.7383Z" fill="#4B4B4A"/>
<path d="M15.6724 43.1426L11.3242 41.6904C11.3547 41.5996 15.7029 43.0518 15.7029 43.0518L15.6724 43.1426Z" fill="#4B4B4A"/>
<path d="M16.231 41.5689L11.9453 39.9428C11.9794 39.8527 16.2651 41.4788 16.2651 41.4788L16.231 41.5689Z" fill="#4B4B4A"/>
<path d="M16.8505 40.0177L12.6328 38.2207C12.6704 38.132 16.8881 39.929 16.8881 39.929L16.8505 40.0177Z" fill="#4B4B4A"/>
<path d="M40.2816 17.4624L38.6562 13.176C38.7456 13.1426 40.3716 17.4291 40.3716 17.4291L40.2816 17.4624Z" fill="#4B4B4A"/>
<path d="M41.8539 16.8998L40.4023 12.5517C40.4939 12.5212 41.9454 16.8693 41.9454 16.8693L41.8539 16.8998Z" fill="#4B4B4A"/>
<path d="M43.4514 16.4009L42.1758 11.9974C42.268 11.9704 43.5436 16.374 43.5436 16.374L43.4514 16.4009Z" fill="#4B4B4A"/>
<path d="M45.0624 15.967L43.9648 11.516C44.0585 11.4926 45.156 15.9436 45.156 15.9436L45.0624 15.967Z" fill="#4B4B4A"/>
<path d="M46.6908 15.5977L45.7734 11.1063C45.8678 11.0864 46.7851 15.5779 46.7851 15.5779L46.6908 15.5977Z" fill="#4B4B4A"/>
<path d="M48.3372 15.2951L47.6016 10.7703C47.6966 10.7547 48.4323 15.2788 48.4323 15.2788L48.3372 15.2951Z" fill="#4B4B4A"/>
<path d="M49.9901 15.0584L49.4375 10.5073C49.5333 10.496 50.0852 15.047 50.0852 15.047L49.9901 15.0584Z" fill="#4B4B4A"/>
<path d="M51.6501 14.8891L51.2812 10.3196C51.377 10.3118 51.7459 14.8813 51.7459 14.8813L51.6501 14.8891Z" fill="#4B4B4A"/>
<path d="M53.3212 14.7855L53.1367 10.2053C53.2332 10.2018 53.4177 14.7819 53.4177 14.7819L53.3212 14.7855Z" fill="#4B4B4A"/>
<path d="M48.0644 33.996C47.9146 33.996 47.8396 33.921 47.6898 33.921C46.3273 33.962 45.0198 34.4674 43.9839 35.3533C42.948 36.2393 42.246 37.4526 41.9942 38.7922C41.994 40.0052 42.3682 41.1888 43.0656 42.1813C43.7631 43.1738 44.7498 43.9269 45.8912 44.3378C46.0853 44.423 46.2397 44.5787 46.3232 44.7736C46.4067 44.9684 46.4131 45.1877 46.3408 45.387C46.274 45.5333 46.1693 45.6591 46.0375 45.7513C45.9058 45.8435 45.7518 45.8989 45.5914 45.9116C45.4858 45.9227 45.3796 45.8962 45.2916 45.8367C44.1601 45.431 43.145 44.7544 42.335 43.8661C41.5251 42.9778 40.945 41.9048 40.6453 40.7407C40.0548 41.1838 39.5645 41.7466 39.2063 42.3921C38.8481 43.0376 38.6301 43.7514 38.5664 44.4869C38.5028 45.2224 38.595 45.963 38.837 46.6605C39.079 47.3579 39.4653 47.9965 39.9708 48.5345C39.3713 49.4461 39.0581 50.5161 39.0715 51.6071C39.0867 52.7859 39.4519 53.9337 40.1207 54.9045C40.4517 53.9453 41.0265 53.0887 41.7885 52.4186C42.5505 51.7486 43.4736 51.2881 44.4673 51.0825C44.5707 51.0577 44.678 51.0535 44.7831 51.0701C44.8881 51.0868 44.9888 51.1241 45.0795 51.1797C45.1701 51.2354 45.2489 51.3083 45.3113 51.3945C45.3737 51.4806 45.4185 51.5782 45.4431 51.6817C45.4678 51.7851 45.4717 51.8924 45.4549 51.9975C45.438 52.1025 45.4005 52.2031 45.3447 52.2937C45.2889 52.3842 45.2157 52.4628 45.1295 52.525C45.0432 52.5872 44.9455 52.6319 44.842 52.6563C43.9269 52.8407 43.0936 53.3097 42.4611 53.9961C41.8285 54.6825 41.429 55.5513 41.3197 56.4783C41.3172 57.7872 41.6717 59.0721 42.3452 60.1946C43.0187 61.317 43.9856 62.2345 45.1417 62.8483V62.6984C45.1831 61.871 45.501 61.0815 46.0445 60.4565C46.5881 59.8314 47.3258 59.4069 48.1394 59.2511C48.8967 59.0632 49.6953 59.139 50.4038 59.466C51.1122 59.7929 51.688 60.3515 52.0363 61.0497C52.2488 61.4125 52.3529 61.8286 52.3361 62.2487C52.3365 62.3572 52.3154 62.4647 52.2741 62.565C52.2328 62.6653 52.1721 62.7565 52.0956 62.8333C52.019 62.9101 51.928 62.971 51.8278 63.0126C51.7277 63.0542 51.6202 63.0756 51.5118 63.0756C51.4033 63.0756 51.2959 63.0542 51.1957 63.0126C51.0956 62.971 51.0045 62.9101 50.928 62.8333C50.8514 62.7565 50.7907 62.6653 50.7494 62.565C50.7082 62.4647 50.6871 62.3572 50.6874 62.2487C50.6718 62.0895 50.6207 61.9358 50.5375 61.7991C50.3579 61.4161 50.0492 61.1085 49.6655 60.9304C49.2818 60.7522 48.8477 60.7149 48.4392 60.8248C47.9683 60.8944 47.5371 61.128 47.2218 61.4845C46.9064 61.841 46.7271 62.2975 46.7155 62.7733C46.7118 63.4047 46.7873 64.0342 46.9403 64.6468C47.3359 65.706 48.0402 66.6222 48.962 67.2768C49.8839 67.9314 50.9809 68.2945 52.1113 68.3189C52.9821 68.3267 53.8381 68.0933 54.5844 67.6444V31.9725C53.8665 31.446 53.0016 31.1577 52.1113 31.1482C51.2406 31.2066 50.4027 31.5031 49.689 32.0053C48.9754 32.5075 48.4134 33.1961 48.0644 33.996ZM45.8912 39.0919C45.9145 38.9879 45.9584 38.8896 46.0203 38.8028C46.0823 38.716 46.161 38.6425 46.2518 38.5866C46.3426 38.5307 46.4437 38.4936 46.5491 38.4775C46.6545 38.4613 46.762 38.4664 46.8654 38.4924C47.7164 38.7219 48.5086 39.1307 49.1886 39.6915C49.4779 39.2974 49.6808 38.8468 49.7841 38.369C49.8874 37.8912 49.8888 37.397 49.7881 36.9186C49.7633 36.8152 49.7591 36.7079 49.7757 36.6028C49.7924 36.4978 49.8296 36.3971 49.8853 36.3064C49.9409 36.2158 50.0139 36.137 50.1001 36.0746C50.1862 36.0122 50.2838 35.9674 50.3873 35.9428C50.4907 35.9181 50.5981 35.9141 50.7031 35.931C50.8081 35.9479 50.9088 35.9854 50.9993 36.0412C51.0898 36.097 51.1684 36.1702 51.2307 36.2565C51.2929 36.3427 51.3375 36.4404 51.3619 36.5439C51.3619 36.6938 51.8865 39.0919 50.3127 40.8156C50.3876 40.8905 50.4626 40.9654 50.4626 41.0404C51.3876 42.6805 51.6299 44.6188 51.1371 46.4361C51.1057 46.6098 51.0125 46.7662 50.8748 46.8764C50.737 46.9866 50.5639 47.0432 50.3877 47.0357H50.2378C50.1337 47.0123 50.0354 46.9684 49.9486 46.9065C49.8618 46.8445 49.7883 46.7658 49.7324 46.675C49.6766 46.5842 49.6394 46.4832 49.6233 46.3778C49.6071 46.2724 49.6122 46.1648 49.6382 46.0614C49.8441 45.3669 49.9104 44.6384 49.8332 43.9181C49.756 43.1978 49.5369 42.4999 49.1885 41.8647C48.5939 40.9203 47.6519 40.2474 46.5656 39.9912C46.4611 39.9792 46.3602 39.9459 46.269 39.8935C46.1777 39.8412 46.0981 39.7707 46.035 39.6866C45.9719 39.6024 45.9266 39.5063 45.9019 39.4041C45.8771 39.3018 45.8735 39.1956 45.8912 39.0919ZM47.6148 55.9537H47.4649C47.2778 55.957 47.0965 55.8892 46.9574 55.764C46.8183 55.6388 46.7319 55.4656 46.7155 55.2792C46.6978 55.1755 46.7015 55.0693 46.7262 54.9671C46.751 54.8648 46.7963 54.7687 46.8594 54.6846C46.9225 54.6004 47.0021 54.53 47.0933 54.4776C47.1846 54.4252 47.2855 54.392 47.39 54.3799C48.2314 54.233 48.9857 53.7722 49.5004 53.0905C50.0151 52.4089 50.2519 51.5573 50.1629 50.7078C50.1529 50.4991 50.2263 50.295 50.3668 50.1404C50.5074 49.9858 50.7036 49.8934 50.9123 49.8835C51.121 49.8735 51.3251 49.9469 51.4797 50.0874C51.6343 50.228 51.7267 50.4242 51.7366 50.6329C51.8217 51.8709 51.4489 53.0971 50.6889 54.0781C49.9289 55.0592 48.8348 55.7267 47.6148 55.9537Z" fill="#ED2224"/>
<path d="M63.0473 33.996C63.1971 33.996 63.2721 33.921 63.4219 33.921C64.7844 33.962 66.0919 34.4674 67.1278 35.3533C68.1637 36.2393 68.8657 37.4526 69.1175 38.7922C69.1177 40.0052 68.7435 41.1888 68.0461 42.1813C67.3486 43.1738 66.3619 43.9269 65.2205 44.3378C65.0264 44.423 64.872 44.5787 64.7885 44.7736C64.7049 44.9684 64.6986 45.1877 64.7708 45.387C64.8377 45.5333 64.9424 45.6591 65.0742 45.7513C65.2059 45.8435 65.3599 45.8989 65.5203 45.9116C65.6259 45.9227 65.7321 45.8962 65.8201 45.8367C66.9516 45.431 67.9667 44.7544 68.7766 43.8661C69.5865 42.9778 70.1667 41.9048 70.4664 40.7407C71.0568 41.1838 71.5472 41.7466 71.9054 42.3921C72.2636 43.0376 72.4816 43.7514 72.5452 44.4869C72.6089 45.2224 72.5167 45.963 72.2747 46.6605C72.0327 47.3579 71.6464 47.9965 71.1409 48.5345C71.7404 49.4461 72.0536 50.5161 72.0402 51.6071C72.025 52.7859 71.6598 53.9337 70.991 54.9045C70.66 53.9453 70.0852 53.0887 69.3232 52.4186C68.5612 51.7486 67.6381 51.2881 66.6444 51.0825C66.4359 51.0333 66.2164 51.0689 66.034 51.1813C65.8517 51.2938 65.7214 51.474 65.6718 51.6824C65.6222 51.8909 65.6573 52.1104 65.7694 52.293C65.8815 52.4756 66.0614 52.6062 66.2697 52.6563C67.1848 52.8407 68.018 53.3097 68.6506 53.9961C69.2832 54.6825 69.6827 55.5513 69.792 56.4783C69.7945 57.7872 69.4399 59.0721 68.7665 60.1946C68.093 61.317 67.1261 62.2345 65.97 62.8483V62.6984C65.9286 61.871 65.6107 61.0815 65.0672 60.4565C64.5236 59.8314 63.7859 59.4069 62.9723 59.2511C62.215 59.0632 61.4164 59.139 60.7079 59.466C59.9995 59.7929 59.4237 60.3515 59.0754 61.0497C58.8628 61.4125 58.7588 61.8286 58.7756 62.2487C58.7756 62.4674 58.8624 62.677 59.017 62.8316C59.1716 62.9862 59.3813 63.0731 59.5999 63.0731C59.8186 63.0731 60.0282 62.9862 60.1828 62.8316C60.3374 62.677 60.4243 62.4674 60.4243 62.2487C60.4399 62.0895 60.491 61.9358 60.5741 61.7991C60.7538 61.4161 61.0625 61.1085 61.4462 60.9304C61.8299 60.7522 62.264 60.7149 62.6725 60.8248C63.1434 60.8944 63.5746 61.128 63.8899 61.4845C64.2053 61.841 64.3846 62.2975 64.3962 62.7733C64.3999 63.4047 64.3244 64.0342 64.1714 64.6468C63.7758 65.706 63.0715 66.6222 62.1497 67.2768C61.2278 67.9314 60.1308 68.2945 59.0004 68.3189C58.1296 68.3267 57.2736 68.0933 56.5273 67.6444V31.9725C57.2452 31.446 58.1101 31.1577 59.0004 31.1482C59.8711 31.2066 60.709 31.5031 61.4227 32.0053C62.1363 32.5075 62.6983 33.1961 63.0473 33.996ZM65.2205 39.0919C65.1972 38.9879 65.1533 38.8896 65.0913 38.8028C65.0294 38.716 64.9507 38.6425 64.8599 38.5866C64.7691 38.5307 64.668 38.4936 64.5626 38.4775C64.4572 38.4613 64.3497 38.4664 64.2463 38.4924C63.3953 38.7219 62.6031 39.1307 61.9231 39.6915C61.6338 39.2974 61.4309 38.8468 61.3276 38.369C61.2243 37.8912 61.2229 37.397 61.3236 36.9186C61.3484 36.8152 61.3526 36.7079 61.336 36.6028C61.3193 36.4978 61.2821 36.3971 61.2264 36.3064C61.1708 36.2158 61.0978 36.137 61.0116 36.0746C60.9255 36.0122 60.8279 35.9674 60.7244 35.9428C60.6209 35.9181 60.5136 35.9141 60.4086 35.931C60.3036 35.9479 60.203 35.9854 60.1125 36.0412C60.0219 36.097 59.9433 36.1702 59.8811 36.2565C59.8189 36.3427 59.7743 36.4404 59.7498 36.5439C59.7498 36.6938 59.2252 39.0919 60.799 40.8156C60.724 40.8905 60.6491 40.9654 60.6491 41.0404C59.7241 42.6805 59.4818 44.6188 59.9746 46.4361C60.006 46.6098 60.0992 46.7662 60.2369 46.8764C60.3747 46.9866 60.5478 47.0432 60.724 47.0357H60.8739C60.978 47.0123 61.0763 46.9684 61.1631 46.9065C61.2499 46.8445 61.3234 46.7658 61.3793 46.675C61.4351 46.5842 61.4723 46.4832 61.4884 46.3778C61.5046 46.2724 61.4995 46.1648 61.4735 46.0614C61.2676 45.3669 61.2014 44.6384 61.2786 43.9181C61.3557 43.1978 61.5748 42.4999 61.9231 41.8647C62.5178 40.9203 63.4598 40.2474 64.5461 39.9912C64.6506 39.9792 64.7515 39.9459 64.8427 39.8935C64.934 39.8412 65.0135 39.7707 65.0767 39.6866C65.1398 39.6024 65.1851 39.5063 65.2098 39.4041C65.2346 39.3019 65.2382 39.1956 65.2205 39.0919ZM63.4969 55.9537H63.6468C63.8339 55.957 64.0152 55.8892 64.1543 55.764C64.2934 55.6388 64.3798 55.4656 64.3962 55.2792C64.4139 55.1755 64.4102 55.0693 64.3855 54.9671C64.3607 54.8648 64.3155 54.7687 64.2523 54.6845C64.1892 54.6004 64.1096 54.53 64.0184 54.4776C63.9271 54.4252 63.8262 54.392 63.7217 54.3799C62.8803 54.233 62.126 53.7722 61.6113 53.0905C61.0966 52.4089 60.8598 51.5573 60.9488 50.7078C60.9582 50.4995 60.8845 50.2959 60.744 50.1418C60.6035 49.9877 60.4076 49.8956 60.1993 49.8857C59.991 49.8757 59.7873 49.9488 59.6327 50.0889C59.4782 50.229 59.3856 50.4246 59.3751 50.6329C59.29 51.8709 59.6628 53.0971 60.4228 54.0781C61.1828 55.0592 62.2768 55.7267 63.4969 55.9537Z" fill="#ED2224"/>
<path d="M47.9336 70.4143V71.9374C47.9336 73.9571 48.7359 75.8941 50.1641 77.3222C51.5922 78.7504 53.5292 79.5527 55.5489 79.5527C57.5687 79.5527 59.5056 78.7504 60.9338 77.3222C62.3619 75.8941 63.1643 73.9571 63.1643 71.9374V70.4143H47.9336Z" fill="#ED2224"/>
<path d="M74.8331 41.0605C74.5547 41.0607 74.2835 40.9714 74.0599 40.8056C73.8362 40.6398 73.6718 40.4064 73.591 40.14C73.5102 39.8735 73.5173 39.5882 73.6112 39.3261C73.7051 39.064 73.881 38.8391 74.1126 38.6846L76.7062 36.9555C76.8478 36.8611 77.0068 36.7955 77.1738 36.7624C77.3409 36.7294 77.5128 36.7296 77.6798 36.763C77.8467 36.7964 78.0055 36.8623 78.147 36.9571C78.2885 37.0518 78.41 37.1735 78.5044 37.3152C78.5989 37.4569 78.6645 37.6158 78.6975 37.7829C78.7306 37.9499 78.7304 38.1219 78.697 38.2888C78.6636 38.4558 78.5976 38.6146 78.5029 38.7561C78.4081 38.8976 78.2864 39.019 78.1447 39.1135L75.5512 40.8425C75.3387 40.9847 75.0888 41.0606 74.8331 41.0605Z" fill="#ED2224"/>
<path d="M77.4243 62.6733C77.1686 62.6734 76.9187 62.5975 76.7062 62.4553L74.1126 60.7263C73.9709 60.6318 73.8492 60.5104 73.7545 60.3689C73.6597 60.2274 73.5937 60.0686 73.5603 59.9017C73.5269 59.7347 73.5268 59.5627 73.5598 59.3957C73.5929 59.2286 73.6585 59.0697 73.7529 58.9281C73.8474 58.7864 73.9688 58.6647 74.1103 58.5699C74.2518 58.4751 74.4106 58.4092 74.5776 58.3758C74.7446 58.3424 74.9165 58.3422 75.0835 58.3752C75.2506 58.4083 75.4095 58.4739 75.5512 58.5684L78.1447 60.2974C78.3764 60.4518 78.5522 60.6767 78.6461 60.9388C78.7401 61.2009 78.7472 61.4863 78.6664 61.7527C78.5856 62.0192 78.4212 62.2525 78.1975 62.4183C77.9738 62.5841 77.7028 62.6735 77.4243 62.6733Z" fill="#ED2224"/>
<path d="M36.272 41.0604C36.0163 41.0605 35.7664 40.9847 35.5538 40.8425L32.9603 39.1135C32.6742 38.9227 32.4755 38.6261 32.408 38.2888C32.3405 37.9516 32.4098 37.6014 32.6006 37.3152C32.7914 37.0291 33.088 36.8304 33.4252 36.763C33.7625 36.6955 34.1127 36.7648 34.3989 36.9556L36.9924 38.6846C37.2241 38.839 37.3999 39.0639 37.4938 39.326C37.5878 39.5881 37.5949 39.8735 37.5141 40.1399C37.4333 40.4064 37.2689 40.6397 37.0452 40.8055C36.8215 40.9713 36.5504 41.0607 36.272 41.0604Z" fill="#ED2224"/>
<path d="M33.6808 62.6734C33.4023 62.6736 33.1312 62.5842 32.9075 62.4184C32.6838 62.2527 32.5194 62.0193 32.4386 61.7529C32.3578 61.4864 32.3649 61.201 32.4589 60.9389C32.5528 60.6768 32.7286 60.4519 32.9603 60.2975L35.5538 58.5684C35.6955 58.4735 35.8545 58.4075 36.0218 58.3742C36.189 58.3408 36.3611 58.3408 36.5284 58.374C36.6956 58.4073 36.8547 58.4732 36.9964 58.5681C37.1381 58.6629 37.2598 58.7847 37.3544 58.9266C37.449 59.0684 37.5146 59.2276 37.5476 59.3949C37.5806 59.5622 37.5803 59.7344 37.5467 59.9016C37.5131 60.0687 37.4468 60.2276 37.3517 60.3691C37.2566 60.5107 37.1345 60.6321 36.9924 60.7263L34.3988 62.4554C34.1863 62.5976 33.9364 62.6735 33.6808 62.6734Z" fill="#ED2224"/>
<path d="M36.2732 51.0022H33.6796C33.3357 51.0022 33.0058 50.8656 32.7626 50.6224C32.5194 50.3792 32.3828 50.0494 32.3828 49.7054C32.3828 49.3615 32.5194 49.0317 32.7626 48.7885C33.0058 48.5453 33.3357 48.4087 33.6796 48.4087H36.2732C36.6171 48.4087 36.9469 48.5453 37.1901 48.7885C37.4333 49.0317 37.5699 49.3615 37.5699 49.7054C37.5699 50.0494 37.4333 50.3792 37.1901 50.6224C36.9469 50.8656 36.6171 51.0022 36.2732 51.0022Z" fill="#ED2224"/>
<path d="M77.4255 51.0022H74.8319C74.488 51.0022 74.1582 50.8656 73.915 50.6224C73.6718 50.3792 73.5352 50.0494 73.5352 49.7054C73.5352 49.3615 73.6718 49.0317 73.915 48.7885C74.1582 48.5453 74.488 48.4087 74.8319 48.4087H77.4255C77.7695 48.4087 78.0993 48.5453 78.3425 48.7885C78.5857 49.0317 78.7223 49.3615 78.7223 49.7054C78.7223 50.0494 78.5857 50.3792 78.3425 50.6224C78.0993 50.8656 77.7695 51.0022 77.4255 51.0022Z" fill="#ED2224"/>
</svg>
