<svg width="111" height="111" viewBox="0 0 111 111" fill="none" xmlns="http://www.w3.org/2000/svg">
<mask id="mask0_3703_2881" style="mask-type:alpha" maskUnits="userSpaceOnUse" x="0" y="0" width="111" height="111">
<rect width="111" height="111" fill="#D9D9D9"/>
</mask>
<g mask="url(#mask0_3703_2881)">
<path d="M54.336 110.721C45.4869 110.721 36.9615 108.694 28.991 104.693C17.8987 99.1353 9.14208 90.3324 3.65375 79.2478L4.76375 78.7005C10.1365 89.5384 18.7004 98.1486 29.546 103.591C37.3392 107.499 45.6796 109.48 54.336 109.48C75.4415 109.48 94.4271 97.7709 103.893 78.9163C107.801 71.1155 109.782 62.7751 109.782 54.1263C109.782 34.709 99.4529 16.4788 82.8337 6.55048L83.4581 5.47902C100.455 15.6232 111.015 34.2619 111.015 54.1186C111.015 62.9678 108.988 71.4932 104.995 79.4636C95.329 98.7421 75.9117 110.721 54.336 110.721ZM0.755417 72.2949C0.485625 71.5009 0.238958 70.6992 0 69.9053L1.18708 69.5584C1.41833 70.3446 1.65729 71.1309 1.92708 71.894L0.755417 72.2949ZM80.6908 5.33257C80.2052 5.07048 79.7119 4.81611 79.2185 4.56944C77.5227 3.71381 75.7652 2.95069 74 2.27236L74.4394 1.1084C76.2431 1.79444 78.0392 2.58069 79.7735 3.45173C80.2823 3.70611 80.7833 3.9759 81.2844 4.23798L80.6908 5.33257Z" fill="#ED2224"/>
<path d="M54.3811 98.4263C29.9226 98.4263 10.0273 78.531 10.0273 54.0725C10.0273 29.614 29.9226 9.71875 54.3811 9.71875C78.8319 9.71875 98.7348 29.614 98.7348 54.0725C98.7348 78.531 78.8319 98.4263 54.3811 98.4263Z" fill="#ED2224"/>
<path d="M54.3834 105.571C46.968 105.571 39.4909 103.922 32.7461 100.807L34.8351 96.298C40.9246 99.1192 47.6771 100.599 54.3757 100.599C80.0367 100.599 100.903 79.7251 100.903 54.0717C100.903 28.4107 80.0367 7.54424 54.3757 7.54424L54.3217 2.58008H54.3757C82.7732 2.58008 105.875 25.682 105.875 54.0795C105.875 82.477 82.7732 105.571 54.3834 105.571Z" fill="#ED2224"/>
<path d="M24.2968 79.0561C25.2141 79.0561 26.1005 78.6938 26.748 78.0386L46.2809 58.5057L54.2436 66.4684C55.6003 67.8251 57.7972 67.8251 59.1539 66.4684L80.9993 44.623V52.4392C80.9993 54.3586 82.5564 55.908 84.468 55.908C86.3797 55.908 87.9368 54.3509 87.9368 52.4392V36.2363C87.9368 34.317 86.3797 32.7676 84.468 32.7676H68.2651C66.3457 32.7676 64.7964 34.3247 64.7964 36.2363C64.7964 38.1557 66.3534 39.7051 68.2651 39.7051H76.0814L56.6949 59.107L48.7322 51.1442C47.3755 49.7876 45.1786 49.7876 43.822 51.1442L21.8378 73.1361C20.4811 74.4928 20.4811 76.6897 21.8378 78.0463C22.493 78.6938 23.3718 79.0561 24.2968 79.0561Z" fill="white"/>
</g>
</svg>
