<svg width="111" height="111" viewBox="0 0 111 111" fill="none" xmlns="http://www.w3.org/2000/svg">
<mask id="mask0_3703_2883" style="mask-type:alpha" maskUnits="userSpaceOnUse" x="0" y="0" width="111" height="111">
<rect width="111" height="111" fill="#D9D9D9"/>
</mask>
<g mask="url(#mask0_3703_2883)">
</g>
<g clip-path="url(#clip0_3703_2883)">
<path d="M54.5119 110.306C45.6628 110.306 37.1373 108.279 29.1669 104.278C18.0746 98.7202 9.31797 89.9173 3.82964 78.8327L4.93964 78.2854C10.3123 89.1234 18.8763 97.7336 29.7219 103.176C37.5151 107.084 45.8555 109.065 54.5119 109.065C75.6173 109.065 94.603 97.3559 104.069 78.5013C107.977 70.7004 109.958 62.36 109.958 53.7113C109.958 34.294 99.6288 16.0638 83.0096 6.13544L83.6417 5.07169C100.639 15.2159 111.199 33.8546 111.199 53.7113C111.199 62.5604 109.172 71.0859 105.179 79.0563C95.5048 98.3271 76.0953 110.306 54.5119 110.306ZM0.93901 71.8798C0.669219 71.0859 0.422552 70.2842 0.183594 69.4902L1.37068 69.1434C1.60193 69.9296 1.84089 70.7159 2.11068 71.479L0.93901 71.8798ZM80.8667 4.91753C80.3811 4.65544 79.8878 4.40107 79.3944 4.1544C77.6986 3.29878 75.9411 2.53565 74.1759 1.85732L74.6153 0.693359C76.419 1.3794 78.2151 2.16565 79.9494 3.03669C80.4582 3.29107 80.9592 3.56086 81.4603 3.82294L80.8667 4.91753Z" fill="#ED2224"/>
<path d="M54.5569 98.0112C30.0983 98.0112 10.2031 78.116 10.2031 53.6575C10.2031 29.1989 30.0983 9.30371 54.5569 9.30371C79.0077 9.30371 98.9106 29.1989 98.9106 53.6575C98.9106 78.116 79.0077 98.0112 54.5569 98.0112Z" fill="#ED2224"/>
<path d="M54.5592 105.157C47.1437 105.157 39.6667 103.507 32.9219 100.393L35.0108 95.8839C41.1004 98.7052 47.8529 100.185 54.5515 100.185C80.2125 100.185 101.079 79.311 101.079 53.6577C101.079 27.9966 80.2125 7.13018 54.5515 7.13018L54.4975 2.16602H54.5515C82.949 2.16602 106.051 25.2679 106.051 53.6654C106.051 82.0629 82.9567 105.157 54.5592 105.157Z" fill="#ED2224"/>
<path d="M80.5599 32.5747C80.1591 32.2587 79.6272 32.1431 79.1262 32.2587L55.4924 37.9166L31.8587 32.2664C31.3577 32.1508 30.8258 32.2664 30.4249 32.5824C30.0241 32.8985 29.7852 33.3918 29.7852 33.9006V71.3554C29.7852 72.1339 30.317 72.8122 31.0802 72.9895C31.3345 73.0512 54.9837 78.7091 55.1302 78.7399C55.3074 78.7785 55.5002 78.7785 55.4924 78.7785C55.6158 78.7785 55.7777 78.7554 55.8856 78.7322L79.9124 72.9895C80.6679 72.8045 81.2074 72.1339 81.2074 71.3554V33.9006C81.1997 33.3841 80.9608 32.8985 80.5599 32.5747ZM53.5885 65.5279C53.3727 66.4297 52.4631 66.9924 51.5612 66.7766L34.626 62.722C33.7241 62.5062 33.1614 61.5966 33.3772 60.6947C33.5931 59.7929 34.5027 59.2302 35.4045 59.446L52.3397 63.5006C53.2416 63.7164 53.8043 64.626 53.5885 65.5279ZM53.5885 58.1818C53.3727 59.0837 52.4631 59.6464 51.5612 59.4306L34.626 55.376C33.7241 55.1602 33.1614 54.2506 33.3772 53.3487C33.5931 52.4468 34.5027 51.8841 35.4045 52.0999L52.3397 56.1545C53.2416 56.3704 53.8043 57.2722 53.5885 58.1818ZM53.5885 50.8281C53.3727 51.7299 52.4631 52.2927 51.5612 52.0768L34.6183 48.0222C33.7164 47.8064 33.1537 46.8968 33.3695 45.9949C33.5854 45.0931 34.4949 44.5304 35.3968 44.7462L52.332 48.8008C53.2416 49.0166 53.8043 49.9262 53.5885 50.8281ZM76.4591 62.722L59.5239 66.7766C58.622 66.9924 57.7124 66.4375 57.4966 65.5279C57.2808 64.626 57.8358 63.7164 58.7454 63.5006L75.6806 59.446C76.5824 59.2302 77.492 59.7852 77.7079 60.6947C77.9237 61.5966 77.361 62.5062 76.4591 62.722ZM76.4591 55.376L59.5239 59.4306C58.622 59.6464 57.7124 59.0914 57.4966 58.1818C57.2808 57.28 57.8358 56.3704 58.7454 56.1545L75.6806 52.0999C76.5824 51.8841 77.492 52.4391 77.7079 53.3487C77.9237 54.2506 77.361 55.1602 76.4591 55.376ZM76.4591 48.0222L59.5239 52.0768C58.622 52.2927 57.7124 51.7377 57.4966 50.8281C57.2808 49.9262 57.8358 49.0166 58.7454 48.8008L75.6806 44.7462C76.5824 44.5304 77.492 45.0854 77.7079 45.9949C77.9237 46.9045 77.361 47.8064 76.4591 48.0222Z" fill="white"/>
</g>
<defs>
<clipPath id="clip0_3703_2883">
<rect width="111" height="111" fill="white"/>
</clipPath>
</defs>
</svg>
