<svg width="111" height="111" viewBox="0 0 111 111" fill="none" xmlns="http://www.w3.org/2000/svg">
<g clip-path="url(#clip0_3703_2663)">
<path d="M82.2831 8.43286C82.2831 8.43286 82.1906 8.37891 82.0056 8.26328C81.8206 8.15537 81.5585 7.97037 81.1808 7.8085C80.4408 7.45392 79.3462 6.92205 77.9587 6.25914C77.6119 6.08956 77.2496 5.91998 76.8642 5.73498C76.471 5.5731 76.0471 5.43436 75.6154 5.26477C74.7444 4.94103 73.804 4.60186 72.7942 4.23187C71.7998 3.81562 70.6821 3.58438 69.5181 3.27605C68.9323 3.12959 68.3387 2.97542 67.7298 2.82126C67.1208 2.66709 66.4965 2.4898 65.8412 2.41272C60.6612 1.39523 54.4329 1.13315 47.904 2.03502C41.375 2.93688 34.5762 5.1954 28.4944 8.7412C22.3971 12.2562 17.0475 17.0044 12.9775 22.1844C12.4842 22.8473 11.9908 23.5025 11.5052 24.15C11.0273 24.7975 10.5262 25.4296 10.1331 26.1233C9.31604 27.4877 8.47583 28.7981 7.74354 30.1162C7.08833 31.4805 6.44854 32.8064 5.83187 34.0859C5.23833 35.3809 4.8375 36.699 4.36729 37.9323C4.14375 38.5567 3.90479 39.1502 3.71979 39.7515C3.56562 40.3604 3.41146 40.9617 3.25729 41.5475C2.96437 42.7115 2.67917 43.8214 2.41708 44.8544C2.09333 46.9741 1.79271 48.8241 1.59229 50.3503C1.43812 53.4259 1.34562 55.1757 1.34562 55.1757C1.33021 55.484 1.08354 55.7384 0.782916 55.7384C0.489999 55.7384 0.258749 55.484 0.274166 55.168C0.274166 55.168 0.366666 53.3797 0.520833 50.2501C0.721249 48.6931 1.02958 46.8122 1.36104 44.6539C1.63083 43.5902 1.91604 42.4648 2.21667 41.2777C2.37083 40.6842 2.525 40.0752 2.68687 39.4509C2.87958 38.8342 3.12625 38.2253 3.34979 37.5855C3.82771 36.329 4.24396 34.9878 4.84521 33.662C5.47729 32.3593 6.12479 31.0026 6.79542 29.6151C7.54312 28.2739 8.39875 26.9327 9.23125 25.5452C9.62437 24.836 10.1331 24.1962 10.6265 23.5333C11.1198 22.8704 11.6208 22.2075 12.1219 21.5292C16.2767 16.249 21.7265 11.4005 27.9471 7.81621C34.1523 4.20874 41.0898 1.90398 47.7421 0.978986C54.4021 0.0694125 60.746 0.323785 66.0262 1.3644C66.6969 1.44148 67.329 1.61877 67.9533 1.78064C68.5777 1.94252 69.1867 2.09668 69.7802 2.25085C70.9673 2.56689 72.1081 2.80584 73.1179 3.22209C74.1431 3.59979 75.1067 3.95437 75.9931 4.27812C76.4325 4.43999 76.8642 4.58645 77.265 4.75603C77.6581 4.94874 78.0281 5.12603 78.3827 5.2879C79.7933 5.97393 80.911 6.5058 81.6665 6.8758C82.0519 7.04538 82.314 7.23809 82.5067 7.346C82.6917 7.45392 82.7919 7.51558 82.7919 7.51558C83.0617 7.67746 83.1619 8.01662 83.0154 8.27099C82.8767 8.51766 82.5452 8.59474 82.2831 8.43286Z" fill="#606161"/>
<path d="M79.7308 12.9579C79.7308 12.9579 79.646 12.904 79.4841 12.8038C79.3145 12.7113 79.0833 12.5417 78.7441 12.3875C78.0735 12.0638 77.0868 11.5936 75.8304 10.9923C75.522 10.8382 75.1906 10.684 74.8437 10.5144C74.4891 10.368 74.1037 10.2446 73.7106 10.0982C72.9243 9.80526 72.0687 9.49693 71.1668 9.16548C70.2727 8.78777 69.2552 8.58736 68.2068 8.30215C67.6827 8.17111 67.1431 8.02465 66.5881 7.88591C66.0331 7.73945 65.4704 7.57758 64.8768 7.51591C60.1902 6.58321 54.5477 6.35967 48.6431 7.16904C42.7385 7.98611 36.6027 10.0211 31.0989 13.22C25.5797 16.3958 20.7466 20.697 17.062 25.3836C16.6149 25.9849 16.1756 26.5784 15.7362 27.1642C15.2968 27.7501 14.842 28.3205 14.4952 28.9448C13.7629 30.1782 12.9997 31.3575 12.3291 32.5523C11.7356 33.7856 11.1574 34.9804 10.6024 36.1366C10.0629 37.3083 9.70828 38.5031 9.27661 39.6131C9.0762 40.1758 8.85266 40.7153 8.68307 41.2626C8.54432 41.8176 8.40557 42.3495 8.27453 42.8814C8.00474 43.9374 7.75036 44.9318 7.5037 45.8722C7.21849 47.7915 6.96411 49.4642 6.7637 50.8363C6.62495 53.619 6.54786 55.2146 6.54786 55.2146C6.54016 55.3533 6.41682 55.4689 6.27036 55.4689C6.12391 55.4689 6.00828 55.3533 6.01599 55.2069C6.01599 55.2069 6.10078 53.6035 6.23953 50.79C6.42453 49.3948 6.70974 47.7067 6.98724 45.772C7.2262 44.8238 7.48828 43.8141 7.75807 42.7503C7.89682 42.2185 8.03557 41.6712 8.17432 41.1085C8.34391 40.5535 8.56745 40.0139 8.76786 39.4435C9.20724 38.3258 9.56182 37.1156 10.1091 35.9285C10.6718 34.7569 11.2577 33.5467 11.8589 32.2979C12.5295 31.0955 13.3004 29.9007 14.0481 28.6519C14.3949 28.0121 14.8574 27.4417 15.3045 26.8482C15.7516 26.2547 16.191 25.6534 16.6458 25.0522C20.3689 20.3116 25.2637 15.9642 30.8368 12.7575C36.3945 9.52005 42.6074 7.46195 48.5737 6.63717C54.5477 5.82009 60.2441 6.04363 64.977 6.97633C65.5783 7.04571 66.1487 7.20758 66.7037 7.35404C67.2664 7.50049 67.806 7.63924 68.3379 7.77799C69.4016 8.0632 70.4268 8.26361 71.3287 8.64902C72.246 8.98819 73.1093 9.29652 73.9033 9.58943C74.2964 9.74359 74.6895 9.86693 75.0441 10.0211C75.391 10.1907 75.7302 10.3525 76.0462 10.5067C77.3181 11.1157 78.3124 11.5936 78.9908 11.925C79.3377 12.0792 79.5689 12.2488 79.7385 12.349C79.9081 12.4492 79.9929 12.5031 79.9929 12.5031C80.1162 12.5725 80.1547 12.7421 80.0777 12.8654C80.0083 12.9888 79.8541 13.035 79.7308 12.9579Z" fill="#606161"/>
<path d="M4.43545 50.1265C4.41233 50.273 4.27358 50.3809 4.12712 50.3655L1.08233 50.0494C0.93587 50.034 0.835662 49.8953 0.858787 49.7411C0.881912 49.5869 1.02066 49.4713 1.16712 49.4867L4.21191 49.8336C4.35837 49.849 4.45858 49.9801 4.43545 50.1265Z" fill="#606161"/>
<path d="M24.3554 14.8614C24.2398 14.9461 24.0702 14.923 23.9777 14.8074L22.1046 12.387C22.0121 12.2714 22.0429 12.1018 22.1662 12.0093C22.2896 11.9168 22.4669 11.9322 22.5516 12.0478L24.4016 14.4914C24.4941 14.607 24.471 14.7766 24.3554 14.8614Z" fill="#606161"/>
<path d="M49.4963 4.60935C49.3498 4.63247 49.2188 4.52456 49.2034 4.38581L48.8257 1.34876C48.8103 1.2023 48.9182 1.06355 49.0723 1.04043C49.2265 1.0173 49.3653 1.11751 49.3807 1.26397L49.7276 4.30873C49.7507 4.45518 49.6428 4.58622 49.4963 4.60935Z" fill="#606161"/>
<path d="M54.9527 4.24758C54.8062 4.25529 54.6829 4.13966 54.6829 3.99321L54.6289 0.925322C54.6289 0.778865 54.7522 0.655533 54.9141 0.647825C55.0683 0.640117 55.1993 0.755741 55.1993 0.902197L55.2224 3.97008C55.2224 4.11654 55.1068 4.23987 54.9527 4.24758Z" fill="#606161"/>
<path d="M73.5238 7.47744C73.385 7.42348 73.3157 7.26932 73.3619 7.13828L74.4103 4.2631C74.4719 4.11665 74.6261 4.04727 74.7803 4.10123C74.9267 4.15519 75.0038 4.30935 74.9576 4.4481L73.8707 7.31557C73.8167 7.45432 73.6625 7.52369 73.5238 7.47744Z" fill="#606161"/>
<path d="M10.0034 31.851C9.94173 31.9821 9.77986 32.036 9.64882 31.9744L6.92778 30.5638C6.79673 30.4944 6.75048 30.3248 6.81215 30.186C6.88153 30.0473 7.0434 29.9856 7.17444 30.055L9.88007 31.4887C10.0111 31.5581 10.0728 31.72 10.0034 31.851Z" fill="#606161"/>
<path d="M13.1649 26.5853C13.0801 26.7086 12.9028 26.7317 12.7872 26.6546L10.2511 24.928C10.1278 24.8432 10.1047 24.6813 10.1972 24.5503C10.2897 24.4192 10.4669 24.3884 10.5826 24.4732L13.1032 26.223C13.2265 26.3078 13.2497 26.4696 13.1649 26.5853Z" fill="#606161"/>
<path d="M83.2655 102.435C83.2655 102.435 83.6432 102.211 84.3447 101.78C85.0461 101.348 86.1022 100.755 87.3124 99.791C88.5226 98.8429 90.1028 97.8254 91.6368 96.3223C92.423 95.5977 93.2863 94.8423 94.1497 94.0098C94.9591 93.1233 95.807 92.1829 96.6934 91.2117C100.124 87.2188 103.585 82.0312 106.036 75.8954C108.518 69.7827 109.944 62.7605 109.952 55.7229C109.944 48.6853 108.518 41.663 106.036 35.5504C103.577 29.4146 100.116 24.2347 96.6934 20.2341C95.807 19.2629 94.9591 18.3225 94.1497 17.436C93.2786 16.6035 92.423 15.8558 91.6368 15.1312C90.1028 13.6281 88.5226 12.6106 87.3124 11.6625C86.1022 10.699 85.0461 10.1132 84.3447 9.6815C83.6432 9.24984 83.2655 9.01859 83.2655 9.01859C82.9957 8.85672 82.9032 8.51755 83.0497 8.26318C83.1961 8.00881 83.5353 7.93173 83.8051 8.0936C83.8051 8.0936 84.1905 8.32485 84.9074 8.76422C85.6243 9.20359 86.7034 9.80483 87.9291 10.7915C89.1624 11.755 90.7734 12.7956 92.3382 14.3296C93.1476 15.0696 94.0186 15.8327 94.9051 16.6806C95.7299 17.5902 96.6009 18.5383 97.5028 19.5404C100.995 23.6103 104.525 28.9059 107.03 35.1573C109.559 41.3933 111.016 48.5542 111.016 55.7229C111.016 62.8993 109.559 70.0602 107.03 76.2962C104.525 82.5553 100.995 87.8355 97.5028 91.9131C96.6009 92.9075 95.7299 93.8633 94.9051 94.7652C94.0186 95.6131 93.1476 96.3839 92.3382 97.1239C90.7734 98.6579 89.1624 99.6985 87.9291 100.662C86.6957 101.641 85.6243 102.25 84.9074 102.689C84.1905 103.121 83.8051 103.36 83.8051 103.36C83.5353 103.522 83.1961 103.452 83.0497 103.198C82.9032 102.936 82.9957 102.597 83.2655 102.435Z" fill="#606161"/>
<path d="M80.6055 97.9642C80.6055 97.9642 80.9447 97.7561 81.5845 97.3706C82.2166 96.9852 83.1801 96.4534 84.267 95.5746C85.3616 94.719 86.803 93.8017 88.1828 92.4374C88.8997 91.7822 89.6705 91.1038 90.4645 90.3561C91.1968 89.5468 91.9676 88.7066 92.7693 87.8201C95.868 84.1972 98.9976 79.5106 101.218 73.9684C103.461 68.4416 104.756 62.1054 104.756 55.7307C104.748 49.3559 103.461 43.0121 101.218 37.4929C98.9976 31.9507 95.868 27.2641 92.7693 23.6489C91.9676 22.7625 91.1968 21.9146 90.4645 21.1129C89.6782 20.3652 88.8997 19.6869 88.1828 19.024C86.803 17.6596 85.3616 16.75 84.267 15.8867C83.1801 15.0157 82.2166 14.4838 81.5845 14.0907C80.9447 13.7053 80.6055 13.4972 80.6055 13.4972C80.4822 13.4278 80.4513 13.2582 80.5207 13.1349C80.5978 13.0038 80.752 12.9653 80.8753 13.0424C80.8753 13.0424 81.2222 13.2505 81.862 13.6359C82.5095 14.029 83.473 14.5686 84.5753 15.4551C85.6853 16.3184 87.1345 17.2434 88.5297 18.6309C89.2543 19.2938 90.0405 19.9798 90.8345 20.7352C91.5745 21.5523 92.353 22.4079 93.1624 23.3021C96.292 26.9635 99.4601 31.6963 101.703 37.3002C103.969 42.881 105.272 49.2943 105.28 55.7384C105.272 62.1825 103.969 68.5957 101.703 74.1765C99.4601 79.7804 96.292 84.5133 93.1624 88.1747C92.353 89.0689 91.5745 89.9245 90.8345 90.7416C90.0405 91.497 89.2543 92.183 88.5297 92.8459C87.1345 94.2257 85.6776 95.1507 84.5753 96.0217C83.4807 96.9082 82.5095 97.44 81.862 97.8331C81.2145 98.2263 80.8753 98.4344 80.8753 98.4344C80.752 98.5038 80.5978 98.4652 80.5207 98.3419C80.4513 98.1954 80.4822 98.0336 80.6055 97.9642Z" fill="#606161"/>
<path d="M86.0574 14.2219C85.9418 14.1371 85.911 13.9675 86.0035 13.8442L87.8072 11.3621C87.892 11.2465 88.0693 11.2234 88.1926 11.3159C88.316 11.4084 88.3468 11.5779 88.262 11.7013L86.4352 14.1602C86.3427 14.2835 86.1731 14.3067 86.0574 14.2219Z" fill="#606161"/>
<path d="M106.663 49.071C106.64 48.9245 106.741 48.7935 106.887 48.7704L109.924 48.3618C110.071 48.3464 110.209 48.4543 110.232 48.6085C110.256 48.7626 110.155 48.9014 110.009 48.9245L106.964 49.3022C106.825 49.3253 106.687 49.2174 106.663 49.071Z" fill="#606161"/>
<path d="M102.994 75.9962C103.056 75.8651 103.218 75.8035 103.356 75.8574L106.178 77.0522C106.316 77.1139 106.37 77.2757 106.301 77.4145C106.232 77.5532 106.07 77.6226 105.931 77.5686L103.118 76.343C102.986 76.2814 102.933 76.1272 102.994 75.9962Z" fill="#606161"/>
<path d="M100.567 80.8904C100.644 80.767 100.806 80.7208 100.937 80.7902L103.619 82.2779C103.75 82.3472 103.789 82.5168 103.704 82.6478C103.627 82.7789 103.457 82.8328 103.326 82.7635L100.659 81.2449C100.528 81.1756 100.49 81.0137 100.567 80.8904Z" fill="#606161"/>
<path d="M88.4997 95.3816C88.6076 95.2814 88.7695 95.2968 88.8697 95.4047L90.843 97.7557C90.9355 97.8714 90.9201 98.041 90.8045 98.1489C90.6888 98.2568 90.5115 98.2414 90.419 98.1257L88.4765 95.7516C88.3686 95.6437 88.3918 95.4818 88.4997 95.3816Z" fill="#606161"/>
<path d="M99.1062 28.1655C99.0291 28.0422 99.0676 27.8726 99.191 27.7955L101.766 26.1383C101.889 26.0535 102.058 26.0997 102.143 26.2385C102.228 26.3695 102.19 26.5468 102.066 26.6239L99.4685 28.258C99.3451 28.3274 99.1833 28.2889 99.1062 28.1655Z" fill="#606161"/>
<path d="M102.076 33.5303C102.015 33.3992 102.069 33.2374 102.2 33.1757L104.959 31.8345C105.09 31.7728 105.252 31.8345 105.321 31.9732C105.391 32.1119 105.337 32.2815 105.206 32.3432L102.439 33.6536C102.3 33.723 102.138 33.669 102.076 33.5303Z" fill="#606161"/>
<path d="M1.34195 56.2856C1.34195 56.2856 1.42674 58.0431 1.58862 61.1187C1.78903 62.6449 2.08966 64.4872 2.41341 66.607C2.67549 67.6476 2.9607 68.7499 3.25362 69.9215C3.40778 70.5074 3.56195 71.1009 3.71612 71.7098C3.90112 72.3111 4.14778 72.9123 4.36362 73.5367C4.83382 74.77 5.24237 76.0881 5.8282 77.3754C6.44487 78.6627 7.08466 79.9885 7.73987 81.3452C8.47216 82.6633 9.31237 83.9737 10.1295 85.338C10.5149 86.0318 11.0159 86.6638 11.5015 87.3113C11.9872 87.9588 12.4805 88.614 12.9738 89.2769C17.0438 94.4569 22.3934 99.2129 28.4907 102.728C34.5726 106.266 41.3713 108.524 47.9003 109.426C54.4292 110.32 60.6576 110.066 65.8376 109.049C66.4928 108.972 67.1172 108.794 67.7261 108.64C68.3351 108.486 68.9363 108.324 69.5145 108.178C70.6784 107.869 71.7961 107.638 72.7905 107.222C73.8003 106.852 74.7407 106.505 75.6117 106.189C76.0434 106.027 76.4674 105.881 76.8605 105.719C77.2459 105.534 77.6082 105.364 77.9551 105.194C79.3426 104.524 80.4295 104 81.1772 103.645C81.5549 103.476 81.817 103.291 82.002 103.19C82.1792 103.082 82.2795 103.028 82.2795 103.028C82.5415 102.867 82.8807 102.944 83.0272 103.198C83.1736 103.452 83.0734 103.792 82.8036 103.953C82.8036 103.953 82.7111 104.015 82.5184 104.123C82.3334 104.231 82.0636 104.416 81.6782 104.593C80.9228 104.956 79.8051 105.495 78.3945 106.173C78.0399 106.343 77.6699 106.52 77.2768 106.713C76.8759 106.883 76.4442 107.021 76.0049 107.191C75.1184 107.515 74.1549 107.869 73.1297 108.239C72.1199 108.663 70.9713 108.902 69.792 109.218C69.1984 109.372 68.5895 109.527 67.9651 109.688C67.3407 109.85 66.7086 110.028 66.038 110.105C60.7578 111.153 54.4138 111.407 47.7538 110.49C41.1015 109.573 34.164 107.268 27.9588 103.661C21.7382 100.076 16.2884 95.2354 12.1336 89.9476C11.6249 89.277 11.1315 88.6063 10.6382 87.9434C10.1449 87.2805 9.63612 86.6407 9.24299 85.9316C8.41049 84.5441 7.55487 83.2106 6.80716 81.8616C6.13653 80.4741 5.48903 79.1252 4.85695 77.8148C4.2557 76.4967 3.83945 75.1477 3.36153 73.8913C3.13799 73.2592 2.89132 72.6503 2.69862 72.0259C2.53674 71.4015 2.38257 70.7926 2.22841 70.199C1.92778 69.012 1.64257 67.8866 1.37278 66.8228C1.04132 64.6645 0.740699 62.776 0.532574 61.2266C0.370699 58.0894 0.285908 56.301 0.285908 56.301C0.270491 55.985 0.494033 55.7306 0.794658 55.7306C1.07216 55.7229 1.32653 55.9773 1.34195 56.2856Z" fill="#606161"/>
<path d="M6.52823 56.2392C6.52823 56.2392 6.60531 57.8271 6.74406 60.6098C6.95219 61.9895 7.19885 63.6545 7.48406 65.5739C7.72302 66.5143 7.9774 67.5086 8.2549 68.5647C8.38594 69.0888 8.52469 69.6361 8.66344 70.1834C8.83302 70.7307 9.05656 71.2703 9.25698 71.833C9.68865 72.943 10.0432 74.1455 10.5828 75.3094C11.1378 76.4656 11.7159 77.6681 12.3095 78.9014C12.9724 80.0885 13.7432 81.2756 14.4755 82.5012C14.8224 83.1333 15.2772 83.7037 15.7166 84.2895C16.1559 84.8753 16.5953 85.4689 17.0424 86.0624C20.727 90.7567 25.5678 95.0502 31.0793 98.226C36.583 101.425 42.7188 103.468 48.6234 104.285C54.528 105.094 60.1705 104.871 64.8495 103.946C65.443 103.884 66.0057 103.722 66.5607 103.576C67.1157 103.437 67.6553 103.298 68.1795 103.159C69.2278 102.874 70.2453 102.674 71.1395 102.304C72.0491 101.972 72.897 101.656 73.6832 101.371C74.0763 101.225 74.4618 101.101 74.8163 100.947C75.1632 100.777 75.4947 100.616 75.803 100.469C77.0595 99.8679 78.0461 99.39 78.7168 99.0662C79.0636 98.9198 79.2949 98.7502 79.4568 98.6577C79.6263 98.5575 79.7034 98.5035 79.7034 98.5035C79.8268 98.4264 79.9809 98.4727 80.0503 98.6037C80.1274 98.7271 80.0811 98.8966 79.9655 98.9737C79.9655 98.9737 79.8807 99.0277 79.7111 99.1279C79.5416 99.2204 79.3103 99.3977 78.9634 99.5441C78.2851 99.8679 77.2907 100.354 76.0188 100.962C75.7028 101.117 75.3713 101.279 75.0168 101.448C74.6622 101.602 74.2691 101.726 73.8759 101.872C73.082 102.165 72.2186 102.481 71.3014 102.82C70.3995 103.206 69.3666 103.406 68.3105 103.691C67.7786 103.83 67.2314 103.969 66.6764 104.115C66.1214 104.262 65.5509 104.431 64.9497 104.485C60.2168 105.426 54.5126 105.649 48.5463 104.832C42.5801 104.007 36.3749 101.949 30.8095 98.7117C25.2363 95.505 20.3416 91.1576 16.6184 86.417C16.1636 85.8157 15.7166 85.2145 15.2772 84.621C14.8301 84.0274 14.3753 83.457 14.0207 82.8172C13.2807 81.5685 12.5099 80.3737 11.8316 79.1712C11.2303 77.9302 10.6522 76.72 10.0818 75.5484C9.54219 74.369 9.1799 73.1588 8.74052 72.0334C8.5401 71.463 8.31656 70.9157 8.14698 70.3684C8.00052 69.8134 7.86177 69.2661 7.73073 68.7343C7.46094 67.6705 7.19885 66.6607 6.9599 65.7126C6.67469 63.7701 6.39719 62.0897 6.21219 60.6946C6.07344 57.881 5.98865 56.27 5.98865 56.27C5.98094 56.1313 6.09656 56.0157 6.24302 56.0079C6.39719 55.9771 6.52052 56.0927 6.52823 56.2392Z" fill="#606161"/>
<path d="M76.3699 102.858C76.5009 102.797 76.6551 102.851 76.7168 102.982L77.9655 105.78C78.0272 105.911 77.9578 106.073 77.8191 106.142C77.6803 106.212 77.5107 106.158 77.4568 106.027L76.2311 103.213C76.1849 103.082 76.2389 102.92 76.3699 102.858Z" fill="#606161"/>
<path d="M35.8404 103.291C35.9791 103.345 36.0485 103.491 35.9946 103.63L34.8306 106.466C34.7766 106.597 34.6071 106.667 34.4606 106.613C34.3141 106.559 34.2371 106.405 34.2987 106.266L35.4935 103.445C35.5475 103.306 35.7094 103.244 35.8404 103.291Z" fill="#606161"/>
<path d="M14.4391 86.5711C14.5239 86.6867 14.5008 86.8563 14.3851 86.9488L11.9416 88.7988C11.826 88.8836 11.6564 88.8605 11.5562 88.7371C11.4637 88.6061 11.4791 88.4365 11.5947 88.344L14.0614 86.5172C14.1847 86.4247 14.3466 86.4555 14.4391 86.5711Z" fill="#606161"/>
<path d="M11.3899 82.0306C11.467 82.1539 11.4284 82.3235 11.2974 82.4006L8.66886 83.9808C8.54553 84.0578 8.37595 84.0116 8.29116 83.8728C8.20636 83.7341 8.24491 83.5645 8.37595 83.4951L11.0199 81.9381C11.1432 81.861 11.3128 81.9072 11.3899 82.0306Z" fill="#606161"/>
<path d="M4.8889 64.3562C4.91202 64.5026 4.81181 64.6414 4.66536 64.6645L1.64369 65.1964C1.49723 65.2195 1.35848 65.1116 1.33536 64.9574C1.31223 64.8033 1.41244 64.6568 1.55119 64.6337L4.57286 64.1404C4.73473 64.1095 4.86577 64.2097 4.8889 64.3562Z" fill="#606161"/>
<path d="M57.7559 107.129C57.9023 107.122 58.0257 107.237 58.0334 107.384L58.1798 110.444C58.1875 110.59 58.0642 110.721 57.91 110.721C57.7559 110.729 57.6171 110.621 57.6171 110.467L57.5092 107.399C57.4938 107.26 57.6094 107.137 57.7559 107.129Z" fill="#606161"/>
<path d="M51.623 107.036C51.7695 107.044 51.8851 107.168 51.8697 107.314L51.6461 110.374C51.6384 110.521 51.4997 110.636 51.3455 110.621C51.1836 110.613 51.068 110.49 51.0834 110.343L51.3378 107.291C51.3455 107.144 51.4765 107.029 51.623 107.036Z" fill="#606161"/>
<path d="M75.5378 32.29H35.5007C33.6122 32.29 32.0859 33.824 32.0859 35.7048V40.5841C32.0859 42.4726 33.6199 43.9989 35.5007 43.9989H75.5455C77.4341 43.9989 78.9603 42.4649 78.9603 40.5841V35.7048C78.9603 33.824 77.4264 32.29 75.5378 32.29Z" fill="#ED2224"/>
<path d="M35.5008 79.1721H50.1466C52.0351 79.1721 53.5614 77.6382 53.5614 75.7574V51.3376C53.5614 49.4491 52.0274 47.9229 50.1466 47.9229H35.5008C33.6122 47.9229 32.086 49.4568 32.086 51.3376V75.7496C32.0783 77.6382 33.6122 79.1721 35.5008 79.1721Z" fill="#ED2224"/>
<path d="M75.5372 47.915H60.8914C59.0028 47.915 57.4766 49.449 57.4766 51.3298V58.167C57.4766 60.0555 59.0105 61.5818 60.8914 61.5818H75.5372C77.4257 61.5818 78.952 60.0478 78.952 58.167V51.3375C78.9597 49.449 77.4257 47.915 75.5372 47.915Z" fill="#ED2224"/>
<path d="M75.5372 65.4971H60.8914C59.0028 65.4971 57.4766 67.031 57.4766 68.9118V75.749C57.4766 77.6376 59.0105 79.1638 60.8914 79.1638H75.5372C77.4257 79.1638 78.952 77.6299 78.952 75.749V68.9118C78.9597 67.031 77.4257 65.4971 75.5372 65.4971Z" fill="#ED2224"/>
</g>
<defs>
<clipPath id="clip0_3703_2663">
<rect width="111" height="110.999" fill="white"/>
</clipPath>
</defs>
</svg>
