<svg xmlns="http://www.w3.org/2000/svg" width="111" height="111" fill="none"><path fill="#fff" d="M0 0h111v111H0z"/><path fill="#DB0319" d="M55.381 94.469c-22.898 0-41.522-18.63-41.522-41.522s18.624-41.522 41.522-41.522c22.892 0 41.517 18.63 41.517 41.522S78.273 94.469 55.38 94.469Z"/><path fill="#DB0319" d="M104.469 36.181a52.627 52.627 0 0 0-2.1-5.205l1.052-.493a53.248 53.248 0 0 1 2.146 5.321l-1.098.377ZM5.157 69.971A52.767 52.767 0 0 1 2.363 53.06l1.158-.006A51.756 51.756 0 0 0 6.255 69.6l-1.098.372Zm50.224 35.99c-20.542 0-39.415-12.034-48.09-30.664l1.053-.487c8.486 18.219 26.95 29.992 47.037 29.992 28.59 0 51.854-23.263 51.854-51.859v-.227h1.164v.227c0 29.233-23.785 53.018-53.018 53.018Z"/><path fill="#DB0319" d="M55.38 101.148c-26.59 0-48.212-21.628-48.212-48.212 0-5.016.776-9.977 2.311-14.755l4.43 1.425a43.38 43.38 0 0 0-2.096 13.33c0 24.018 19.544 43.562 43.567 43.562 24.017 0 43.562-19.544 43.562-43.562 0-24.023-19.544-43.562-43.561-43.562h-.333l-.05-4.65h.383c26.583 0 48.211 21.628 48.211 48.212 0 26.584-21.628 48.212-48.212 48.212Z"/><path fill="#fff" d="M60.611 65.64V67h-10.46V65.64H27.07c0 1.935 1.125 2.437 2.507 2.437H81.18c1.382 0 2.508-.502 2.508-2.437H60.611ZM75.647 34.301H35.12a3.437 3.437 0 0 0-3.432 3.432v23.53c0 1.89 1.54 3.432 3.432 3.432h40.524a3.437 3.437 0 0 0 3.433-3.432V37.734a3.435 3.435 0 0 0-3.43-3.433Z"/><path fill="#DB0319" d="M48.163 40.072a2.502 2.502 0 1 1 0 5.005 2.502 2.502 0 0 1 0-5.005ZM55.382 40.072a2.502 2.502 0 1 1 0 5.005 2.502 2.502 0 0 1 0-5.005ZM62.6 40.072a2.502 2.502 0 1 1 0 5.005 2.502 2.502 0 0 1 0-5.005ZM48.163 47.283a2.502 2.502 0 1 1 0 5.005 2.502 2.502 0 0 1 0-5.005ZM55.382 47.283a2.502 2.502 0 1 1 0 5.005 2.502 2.502 0 0 1 0-5.005ZM60.098 49.786a2.502 2.502 0 1 1 5.004 0 2.502 2.502 0 0 1-5.004 0ZM48.163 54.51a2.502 2.502 0 1 1 0 5.004 2.502 2.502 0 0 1 0-5.004ZM55.382 54.51a2.502 2.502 0 1 1 0 5.004 2.502 2.502 0 0 1 0-5.004ZM62.6 54.51a2.502 2.502 0 1 1 0 5.004 2.502 2.502 0 0 1 0-5.004Z"/></svg>