<svg xmlns="http://www.w3.org/2000/svg" width="111" height="111" fill="none"><path fill="#fff" d="M0 0h111v111H0z"/><path fill="#4A4A49" d="m8.501 56.04.167 3.313c.042.539.027 1.146.124 1.804l.328 2.15c.13.773.217 1.614.41 2.491.223.872.462 1.797.713 2.775 1.099 3.864 2.813 8.538 5.962 13.22 3.09 4.683 7.436 9.481 13.198 13.343 5.763 3.825 12.912 6.664 20.798 7.606.98.156 1.985.13 2.986.204l1.51.076a9.407 9.407 0 0 0 1.52.007c2.03-.128 4.1-.11 6.148-.518 4.142-.497 8.232-1.825 12.207-3.5l2.936-1.414c.976-.485 1.88-1.112 2.828-1.664l1.411-.857c.45-.318.887-.658 1.331-.986.876-.675 1.798-1.299 2.644-2.022 3.407-2.876 6.397-6.29 8.975-10.029 2.507-3.797 4.424-7.992 5.829-12.366 1.319-4.414 1.915-9.018 2.025-13.633-.11-4.615-.706-9.22-2.025-13.633-1.405-4.375-3.322-8.57-5.829-12.366-2.578-3.74-5.568-7.153-8.975-10.03-.846-.722-1.768-1.347-2.644-2.021-.444-.329-.88-.669-1.33-.986l-1.412-.857c-.948-.552-1.852-1.18-2.828-1.664l-2.936-1.414c-3.975-1.676-8.065-3.004-12.207-3.5-2.049-.408-4.118-.39-6.148-.52a9.513 9.513 0 0 0-1.52.009l-1.51.075c-1.001.075-2.007.05-2.986.204-7.886.942-15.035 3.782-20.798 7.606-5.762 3.863-10.108 8.66-13.198 13.344-3.15 4.68-4.863 9.355-5.962 13.22l-.714 2.774c-.192.877-.278 1.719-.409 2.491l-.328 2.15c-.097.658-.082 1.266-.124 1.804l-.167 3.314H8.02l.168-3.347c.04-.544.027-1.158.124-1.823l.331-2.172c.132-.78.22-1.63.414-2.517l.72-2.802c1.111-3.905 2.843-8.628 6.024-13.356 3.123-4.732 7.512-9.579 13.334-13.48 5.82-3.865 13.044-6.734 21.012-7.685.99-.157 2.005-.132 3.016-.207l1.525-.076a9.619 9.619 0 0 1 1.536-.007c2.051.128 4.141.113 6.21.523 4.185.504 8.317 1.844 12.334 3.537l2.966 1.428c.986.49 1.899 1.123 2.858 1.681l1.425.866c.455.32.895.664 1.345.996.885.682 1.816 1.313 2.67 2.043 3.442 2.906 6.463 6.354 9.067 10.132 2.532 3.835 4.47 8.073 5.889 12.493 1.333 4.46 1.936 9.112 2.045 13.773-.109 4.661-.712 9.314-2.045 13.773-1.42 4.42-3.357 8.657-5.89 12.493-2.603 3.778-5.624 7.226-9.067 10.132-.853.73-1.784 1.36-2.67 2.043-.449.33-.889.675-1.344.995l-1.425.866c-.96.558-1.872 1.191-2.858 1.681l-2.966 1.429c-4.017 1.693-8.15 3.033-12.333 3.536-2.07.411-4.16.395-6.21.524a9.843 9.843 0 0 1-1.537-.007l-1.525-.078c-1.011-.074-2.026-.049-3.016-.205-7.968-.951-15.191-3.821-21.012-7.685-5.822-3.902-10.212-8.748-13.334-13.48-3.18-4.73-4.913-9.451-6.024-13.356l-.72-2.803c-.194-.886-.282-1.736-.414-2.516l-.33-2.172c-.098-.665-.084-1.279-.125-1.824L8.02 56.04H8.5Z"/><path fill="#4A4A49" d="m13.082 36.461-.648 1.345-1.132 3.083c-.458 1.106-.72 2.274-.944 3.141l-.371 1.447-.94-.218.38-1.476c.228-.885.497-2.077.963-3.207l1.156-3.147.66-1.373.876.405ZM37.233 13.52l-3.293 1.588c-1.913 1.064-4.45 2.541-6.736 4.373-1.212.826-2.237 1.88-3.265 2.785-.494.474-1.027.878-1.435 1.358l-1.19 1.311c-.725.824-1.383 1.463-1.755 1.985l-.601.807-1.524-1.183.627-.838c.388-.543 1.07-1.213 1.826-2.07l1.241-1.363c.426-.499.978-.922 1.494-1.415 1.07-.945 2.14-2.038 3.4-2.902 2.382-1.906 5.023-3.446 7.017-4.554l3.431-1.653.763 1.772ZM58.395 9.892l-1.089-.055-1.115-.057a7.706 7.706 0 0 0-1.279-.002l-3.482.175-.168-1.922s1.813-.09 3.625-.183a8.25 8.25 0 0 1 1.331.003l1.162.058 1.133.057-.118 1.926ZM84.793 19.578l-2.88-2.154c-1.817-1.158-4.249-2.71-6.89-3.866-1.27-.682-2.652-1.103-3.912-1.581-.635-.226-1.24-.471-1.83-.654a1960.51 1960.51 0 0 1-4.212-1.083c-.617-.119-.975-.16-.975-.16l.175-.95s.366.044.996.165c.622.16 1.51.39 2.577.663l1.722.443c.602.186 1.22.437 1.868.666 1.287.488 2.697.92 3.995 1.615 2.694 1.18 5.177 2.763 7.031 3.946l2.94 2.198-.605.752ZM97.579 35.656l-.742-1.539c-.169-.394-.414-.746-.575-1.023l-.278-.456.836-.484.282.466c.164.283.413.642.587 1.044l.757 1.571-.867.421ZM102.229 54.46l-.108-2.144-.052-1.039-.175-1.147c-.12-.796-.25-1.644-.38-2.494-.095-.855-.321-1.684-.528-2.463l-.547-2.13-.219-.852c-.079-.249-.165-.46-.227-.638L99.789 41l.914-.31.207.565c.064.181.151.398.232.651l.223.87c.165.636.355 1.379.56 2.175.21.794.439 1.641.538 2.514l.388 2.545.178 1.172.053 1.06.111 2.188-.964.032ZM102.055 62.497l.248-1.629.084-1.645.481.032-.084 1.662-.251 1.645-.478-.065ZM93.594 83.182l.382-.511c.26-.314.563-.81.92-1.408.693-1.206 1.773-2.73 2.506-4.443l1.184-2.457c.318-.81.583-1.578.826-2.23l.798-2.18.921.287-.813 2.225c-.248.665-.52 1.45-.844 2.276-.387.8-.798 1.655-1.208 2.508-.751 1.747-1.85 3.305-2.56 4.535-.363.61-.672 1.116-.937 1.436l-.39.522-.785-.56ZM66.938 100.873l.772-.199c.486-.146 1.208-.261 2.023-.567 1.624-.623 3.853-1.304 5.904-2.404 2.14-.916 4.05-2.26 5.556-3.128.724-.48 1.285-.946 1.698-1.24l.638-.478 1.17 1.534-.666.498c-.43.308-1.015.79-1.769 1.29-1.566.91-3.559 2.302-5.787 3.26-2.139 1.143-4.458 1.859-6.152 2.503-.85.318-1.602.441-2.108.593l-.805.207-.475-1.869ZM48.871 102.301l1.885.286c1.143.059 2.667.135 4.191.212.762.077 1.524-.044 2.238-.055l1.953-.098c1.146-.024 1.897-.17 1.897-.17l.113.958s-.767.148-1.936.174l-1.993.1c-.729.011-1.507.133-2.284.056l-4.276-.216-1.925-.292.137-.955ZM31.883 95.804l1.17.712c.696.437 1.716.853 2.693 1.346.984.482 1.967.97 2.755 1.213l1.285.47-.656 1.814-1.34-.491c-.82-.256-1.845-.761-2.87-1.262-1.019-.513-2.08-.95-2.805-1.405l-1.22-.74.988-1.657ZM23.007 89.638l1.858 1.688-.633.729-1.896-1.724.67-.693ZM15.2 79.686l.707 1.164.724 1.194c.276.43.625.85.944 1.292l1.794 2.4.91 1.013-.726.634s-.372-.413-.928-1.035L16.792 83.9c-.325-.45-.68-.88-.962-1.318l-.74-1.218-.723-1.188.832-.489ZM11.974 73.742c-.075.032 1.153 2.542 1.153 2.542l-.435.208s-1.24-2.536-1.165-2.568l.447-.182ZM9.451 60.56s0 .097.02.266c.024.168.061.407.105.696l.323 2.11c.134.765.196 1.543.358 2.104l.243.94-1.878.441-.25-.98c-.17-.583-.237-1.394-.376-2.19l-.335-2.2-.11-.725c-.02-.174-.02-.276-.02-.276l1.92-.187ZM15.608 26.155l-.726.972c-.226.313-.521.679-.822 1.124l-.94 1.543c-.675 1.138-1.543 2.421-2.207 3.942-.36.746-.73 1.517-1.106 2.3-.201.386-.369.79-.51 1.208l-.455 1.242c-.303.828-.606 1.658-.903 2.475-.265.826-.447 1.665-.662 2.463l-.592 2.312c-.165.74-.24 1.456-.351 2.107l-.474 3.165-.063 1.21-.48-.036.063-1.222.478-3.195c.113-.659.188-1.381.354-2.128l.598-2.334c.218-.807.401-1.654.668-2.488.302-.824.607-1.662.913-2.5l.46-1.253c.142-.422.312-.83.513-1.22l1.117-2.322c.672-1.535 1.547-2.831 2.23-3.98l.95-1.558c.302-.45.6-.82.828-1.135l.733-.98.386.288Z"/><path fill="#4A4A49" d="m28.237 20.806-1.004.748c-.569.491-1.3 1.179-2.045 1.848-.37.337-.742.673-1.09.988-.339.326-.617.667-.874.94l-.842.928-.359-.322.851-.938c.261-.276.542-.62.884-.95l1.102-.999c.753-.677 1.492-1.371 2.066-1.867l1.015-.757.296.381ZM29.836 13.303l-1.24.754-.85.52c-.235.14-.372.259-.372.259l-.272-.398s.138-.12.374-.262c.235-.142.547-.334.86-.524l1.252-.762.248.413ZM50.484 6.029s-.239.023-.654.089l-1.721.26-2.433.374c-.883.17-1.807.445-2.74.672-.925.255-1.87.447-2.722.742l-2.312.844-1.635.601c-.4.134-.608.256-.608.256l-.19-.442s.21-.124.613-.26l1.65-.607 2.336-.852c.859-.297 1.813-.492 2.748-.748.941-.23 1.874-.508 2.766-.679l2.456-.378c.72-.11 1.318-.2 1.738-.263.419-.065.66-.09.66-.09l.048.48ZM62.252 6.266l-.956-.144c-.571-.117-1.345-.129-2.116-.174l-3.086-.154.005-.482 3.116.155c.779.046 1.56.059 2.135.175l.965.146-.063.478ZM91.124 29.25l-.569-.76c-.182-.24-.393-.541-.655-.87l-.952-1.043-1.124-1.238c-.398-.44-.807-.915-1.305-1.33-.974-.852-1.947-1.838-3.031-2.69-1.115-.814-2.197-1.675-3.263-2.407l-3.022-1.835c-.886-.535-1.698-.845-2.23-1.126l-.856-.412.202-.438.864.416c.539.285 1.359.598 2.255 1.138l3.055 1.856c1.078.739 2.171 1.609 3.297 2.432 1.097.862 2.08 1.858 3.065 2.719.503.42.917.9 1.318 1.345l1.136 1.251.962 1.055c.266.332.479.636.664.878l.574.769-.385.29ZM97.735 41.688l-.834-2.28a10.485 10.485 0 0 0-.654-1.532l-.329-.683.436-.204.334.69c.21.41.472.964.66 1.55l.844 2.303-.457.156ZM99.656 49.867l-.344-2.268.474-.091.348 2.293-.478.066ZM105.378 62.307s.219-1.142.261-2.882c.042-.867.092-1.88.147-2.964.026-1.085-.086-2.242-.129-3.399-.018-2.324-.519-4.602-.747-6.324-.103-.866-.326-1.56-.443-2.052l-.197-.773.468-.116.2.78c.117.498.342 1.198.445 2.072.233 1.739.737 4.039.756 6.384.043 1.168.155 2.337.129 3.431l-.148 2.994c-.043 1.756-.263 2.91-.263 2.91l-.479-.06ZM101.168 77.04l.608-1.267c.322-.778.689-1.843 1.082-2.897.391-1.055.787-2.109.96-2.937l.351-1.362.468.12-.356 1.375c-.175.837-.573 1.9-.969 2.966-.396 1.064-.766 2.14-1.093 2.925l-.613 1.28-.438-.202ZM80.133 93.246l.135-.082c.088-.052.22-.127.371-.249.308-.23.749-.56 1.276-.957l1.808-1.35c.639-.521 1.268-1.14 1.926-1.724 1.356-1.132 2.495-2.48 3.387-3.454.92-.951 1.419-1.679 1.419-1.679l.378.3s-.506.735-1.434 1.698c-.902.984-2.054 2.346-3.423 3.49-.666.591-1.302 1.216-1.947 1.743L82.2 92.346l-1.29.968c-.152.122-.285.198-.375.252l-.137.082-.266-.402ZM60.031 100.442l.712-.104c.452-.07 1.098-.17 1.873-.288l1.252-.19.684-.106c.227-.06.46-.12.698-.181l2.974-.765c.514-.107.999-.305 1.482-.482l1.419-.52c.916-.346 1.796-.612 2.485-.992l2.356-1.134.22.428-2.379 1.147c-.698.383-1.587.653-2.513 1.003l-1.434.526c-.489.18-.98.378-1.499.486l-3.007.773-.706.184a88.49 88.49 0 0 0-.69.108l-1.266.191-1.894.29c-.457.07-.719.106-.719.106l-.048-.48ZM50.492 100.359s.233.048.586.078l1.303.063 1.894.096-.013.482-1.915-.097-1.316-.063a5.577 5.577 0 0 1-.593-.08l.054-.479ZM38.7 103.385c-.059.175 7.882 2.361 7.933 2.113l-.085.475c-.051.249-8.07-1.957-8.009-2.134l.162-.454ZM28.15 98.186l2.883 1.75c.705.468 1.502.764 2.06 1.061l.95.458-.206.436-.96-.462c-.562-.3-1.367-.6-2.08-1.071l-2.91-1.767.263-.405ZM6.63 67.604l.851 3.3c.33.966.752 2.083 1.188 3.284.237.593.412 1.234.718 1.833l.88 1.832.885 1.831c.287.607.671 1.148.99 1.702.67 1.087 1.265 2.122 1.833 2.97l2.037 2.729-.378.298-2.057-2.755c-.575-.856-1.176-1.9-1.852-2.998-.32-.56-.708-1.106-.998-1.718l-.894-1.85-.888-1.85c-.31-.604-.487-1.252-.726-1.85-.441-1.212-.866-2.34-1.198-3.317l-.86-3.33.468-.111ZM14.09 70.049l.405 1.104c.266.654.512 1.57.936 2.412l1.639 3.392-.424.23-1.657-3.429c-.429-.85-.678-1.777-.947-2.438l-.41-1.117.457-.154ZM31.967 31.527l-.685.624c-.406.38-.973.86-1.5 1.381l-1.995 2.196s-.533-.023-1.286.022c-.765.034-1.804.104-2.874.216-1.073.105-2.172.255-2.943.432-.8.174-1.332.288-1.332.288l-.833 1.374c-.123.207-.264.427-.398.669l-.378.781-.82 1.702c-.604 1.138-.99 2.37-1.332 3.27l-.55 1.51-.31.15-.641.352c-.468.267-.934.536-.934.536l-.72 2.813.11.178.325.469c.269.385.63.89.995 1.38.73.984 1.471 1.892 1.471 1.892l-.119.783c-.054.471-.065 1.106-.104 1.737l-.127 2.53h-.2l.125-2.503c.035-.626.056-1.252.097-1.72l.117-.775s-.742-.91-1.47-1.897c-.365-.49-.726-.997-.996-1.383-.27-.387-.441-.65-.441-.65l.764-2.99.935-.538c.453-.267.96-.501.96-.501s.22-.607.553-1.517c.337-.908.74-2.14 1.344-3.284l.825-1.709c.133-.272.26-.535.383-.784l.403-.67.838-1.38 1.332-.29c.772-.18 1.884-.322 2.954-.433a52.382 52.382 0 0 1 2.877-.222c.754-.047 1.294-.019 1.294-.019l1.959-2.157c.517-.51 1.074-.982 1.472-1.355l.673-.613-.007-.408c0-.255-.022-.65.006-1.072.04-.865.122-2.043.257-3.26.067-.607.146-1.224.23-1.808.092-.572.209-1.082.305-1.539l.353-1.523 1.022-.619c.598-.4 1.47-.796 2.33-1.214.864-.407 1.716-.846 2.38-1.117l1.12-.414.073.187-1.105.407c-.654.265-1.492.7-2.343 1.1-.844.415-1.709.794-2.296 1.19l-1.006.609-.351 1.52a43.85 43.85 0 0 0-.307 1.532c-.083.583-.16 1.199-.226 1.806a52.135 52.135 0 0 0-.252 3.255c-.026.424-.013.806-.01 1.065l.01.408ZM93.536 50.273l-.238-.928c-.163-.587-.344-1.443-.655-2.44l-1.228-3.355c-.58-1.17-1.147-2.447-1.804-3.675l-1.08-1.779c-.365-.58-.679-1.182-1.095-1.689-.796-1.035-1.482-2.05-2.17-2.835l-1.7-1.871-.476-.524c-.107-.125-.178-.176-.178-.176s.04-1.443-.01-2.969a56.895 56.895 0 0 0-.103-2.125 8.754 8.754 0 0 0-.064-.701l-.032-.26-.964-.725-1.11-.83c-.434-.31-.896-.702-1.472-1.026-2.218-1.409-5.283-3.168-8.602-4.337-.828-.296-1.647-.618-2.47-.88l-2.457-.637c-1.584-.47-3.118-.622-4.417-.836-.652-.086-1.246-.216-1.78-.236l-1.38-.074-1.205-.06s-.683.62-1.322 1.242c-.32.298-.633.67-.863.917l-.38.426s-4.014.168-4.002.287l-1.087-.85c-.567-.42-1.133-.842-1.133-.842l-.886.138c-.536.055-1.225.267-1.922.435-1.39.358-2.777.723-2.777.723l-.06-.191s1.414-.373 2.83-.737c.71-.177 1.414-.38 1.96-.439l.903-.139s.569.42 1.136.842l1.09.85.599-.091c.36-.05.846-.053 1.33-.085.967-.05 1.935-.098 1.935-.098s.602-.697 1.247-1.35c.64-.623 1.325-1.243 1.325-1.243l1.217.061c.773.04 1.883.065 3.194.306 1.313.22 2.865.367 4.465.841l2.485.643c.831.263 1.659.59 2.495.89 1.693.548 3.264 1.384 4.767 2.099.763.336 1.436.78 2.09 1.17l1.835 1.117c1.122.713 1.972 1.432 2.605 1.88l.975.733s.06.37.093.969c.04.59.082 1.366.106 2.127.052 1.529.013 2.974.013 2.974s.066.057.174.18l.477.526 1.702 1.874c.68.795 1.374 1.805 2.17 2.844.417.507.723 1.116 1.093 1.695l1.082 1.78c.65 1.235 1.226 2.51 1.801 3.686l1.23 3.36c.31 1 .492 1.857.655 2.445l.24.93-.197.043ZM47.03 93.28l.335.087c.222.048.537.161.955.23l3.471.517c2.897.22 6.801.22 10.61-.537 3.8-.79 7.387-2.306 9.953-3.66 1.23-.77 2.29-1.36 2.986-1.843.677-.51 1.065-.8 1.065-.8l1.033.243c.616.13 1.5.345 2.337.446 1.68.228 3.491.343 3.491.343l.445-.406c.298-.244.658-.657 1.101-1.143l1.51-1.662c.287-.295.545-.632.799-.981l.783-1.047c1.107-1.366 1.965-2.898 2.652-4.019l.465-.767c.13-.232.222-.448.308-.619l.262-.542s1.124-.34 2.278-.751c.576-.203 1.16-.42 1.597-.59l.689-.308.614-1.667.62-1.712c.198-.634.357-1.328.54-2.014.177-.688.352-1.377.517-2.023.167-.644.218-1.266.313-1.79l.268-1.754s-.997-1.41-2.213-2.683c-1.17-1.285-2.348-2.415-2.348-2.415l.012-.228c.004-.146.03-.354.007-.603l-.092-1.828-.092-1.828c-.051-.496-.114-.823-.114-.823l.199-.024s.061.324.114.816l.091 1.81.092 1.812c.02.247.01.453 0 .597l-.012.226s1.178 1.134 2.347 2.422c.572.638 1.195 1.311 1.57 1.823l.65.866-.272 1.79c-.096.534-.152 1.168-.316 1.826-.168.658-.348 1.36-.526 2.062-.188.7-.347 1.408-.554 2.054l-.633 1.744-.625 1.7s-.272.13-.697.306c-.44.17-1.022.388-1.599.593-1.156.413-2.28.755-2.28.755l-.264.546c-.15.356-.436.826-.783 1.388l-1.172 1.93-.328.536-.384.516-.787 1.053-.788 1.052-.386.515-.422.466-1.517 1.67c-.44.493-.814.897-1.112 1.144l-.447.407s-1.813-.111-3.496-.338c-.847-.11-1.727-.316-2.346-.448l-1.035-.241-1.066.8c-.704.473-1.758 1.072-2.992 1.841-2.573 1.35-6.165 2.864-9.971 3.656-3.813.755-7.721.765-10.621.541-1.441-.188-2.635-.397-3.476-.512-.421-.055-.735-.177-.957-.223l-.337-.087s-1.167.874-2.464 1.717c-.651.443-1.305.802-1.807 1.07-.51.267-.849.447-.849.447l-.752-.276c-.472-.194-1.182-.385-1.967-.77l-2.692-1.296c-.975-.493-1.943-1.151-2.948-1.741l-.746-.454-.696-.516-1.35-1.008c-.431-.336-.874-.629-1.247-.962l-1.046-.949-1.563-1.422c-.357-.363-.546-.585-.546-.585s.053-.82.13-1.614c.075-.797.175-1.566.175-1.566s-.29-.3-.69-.778l-1.37-1.833-.732-.979-.552-.911-.54-.89s-1.034-.184-2.1-.422c-1.03-.252-2.048-.583-2.048-.583l-1.09-2.268a87.256 87.256 0 0 1-.88-2.357s.498-.996 1.017-1.928a40.762 40.762 0 0 1 1.182-1.852l-.392-1.524-.19-.738c-.056-.265-.087-.55-.136-.84l-.278-1.83c-.25-1.238-.221-2.506-.292-3.448-.05-.944-.081-1.573-.081-1.573h.2l.082 1.576c.068.944.045 2.214.296 3.455.214 1.243.317 2.508.61 3.412l.393 1.527-.376.566c-.218.34-.54.812-.8 1.28-.52.93-1.018 1.923-1.018 1.923s.405 1.144.847 2.272a9723.3 9723.3 0 0 1 1.052 2.186s1.023.326 2.038.583c1.065.237 2.098.418 2.098.418l.549.904.561.927.742.996c.507.678 1.014 1.355 1.392 1.864.415.48.706.787.706.787s-.1.768-.176 1.564c-.079.792-.133 1.61-.133 1.61s.048.055.14.154c.096.094.212.257.404.42l1.542 1.403 1.031.937c.374.323.807.616 1.234.945l1.332.996.687.509.736.447c.992.583 1.948 1.23 2.908 1.72l2.657 1.28a7.87 7.87 0 0 0 1.085.45l.853.314.743.272.847-.449c.503-.274 1.15-.618 1.8-1.062a50.803 50.803 0 0 0 2.458-1.72Z"/><path fill="#4A4A49" d="m77.652 21.805-1.023-.62c-.596-.4-1.47-.793-2.33-1.212-.866-.407-1.716-.848-2.38-1.116-.674-.248-1.122-.415-1.122-.415l.287-.749 1.143.423c.677.273 1.543.722 2.425 1.137.876.426 1.766.828 2.374 1.235l1.042.63-.416.687ZM32.378 28.125l-.75-.148.13-1.334.167-1.361.75.148-.167 1.36-.13 1.335ZM91.805 45.492l-.64-1.751c-.485-1.008-1.108-2.367-1.798-3.689L88.23 38.18c-.366-.596-.684-1.169-1.042-1.602l-1.117-1.494.635-.49 1.14 1.525c.364.442.69 1.025 1.063 1.634l1.162 1.912c.704 1.349 1.342 2.735 1.835 3.764l.654 1.788-.754.275ZM66.738 92.046l1.597-.584c.237-.092.504-.166.769-.292l.826-.402 1.8-.864c1.197-.646 2.333-1.401 3.217-1.91l1.36-1.023 1.46.341 1.032.214c.289.06.465.077.465.077s.004.197-.006.38l-.02.37-1.356-.272-1.316-.3-.373.28c-.244.168-.562.455-.998.718l-1.486.9-.838.511-.43.264-.459.218-1.796.864-.825.4c-.268.113-.531.197-.769.287L67 92.805l-.262-.76ZM58.996 93.788l2.155-.333.133.792-2.204.339-.084-.798ZM33.036 91.72s.223.14.56.346c.338.205.788.48 1.238.752.45.275.9.548 1.239.753.331.216.577.314.577.314l-.377.709s-.25-.101-.59-.321c-.344-.21-.804-.488-1.264-.766l-1.262-.769c-.344-.21-.571-.354-.571-.354l.45-.664ZM17.645 73.71l.326.884.407.85-.73.33-.417-.867-.333-.902.747-.295ZM18.634 65.423l.081.537c.03.325.155.743.262 1.163l.433 1.681-.833 1.266-.67-.33.656-1.005-.406-1.575c-.106-.394-.206-.787-.237-1.092l-.076-.503.79-.142ZM21.717 36.503l-1.077.21-1.093.237-.399.656c-.229.399-.577.907-.85 1.456-.535 1.105-1.068 2.211-1.068 2.211l-.73-.337 1.161-2.4c.67-1.152 1.372-2.287 1.372-2.287l1.256-.277.852-.17.404-.06.074.375.098.386ZM15.454 55.567l-.067 1.3-.801-.038.068-1.327.8.065ZM45.951 17.98s-.581.15-1.455.373l-1.492.386c-.54.16-1.097.388-1.664.588-.565.206-1.13.414-1.658.608-.264.1-.523.187-.76.287l-.657.314-1.354.651-.177-.36 1.368-.658.663-.317c.24-.101.501-.189.766-.29l1.675-.613c.572-.202 1.136-.432 1.68-.594l1.506-.39 1.47-.377.09.392Z"/><path fill="#4A4A49" d="M95.9 58.898s.007-.078-.004-.225l-.03-.634-.115-2.264c-.005-.94-.194-2.02-.372-3.18l-.274-1.787c-.12-.604-.299-1.205-.448-1.812-.309-1.213-.592-2.434-1.042-3.52l-.582-1.588c-.181-.507-.353-.985-.573-1.401l-1.358-2.818.354-.19 1.371 2.847c.222.42.395.902.58 1.413l.587 1.605c.453 1.098.74 2.33 1.054 3.555.15.613.33 1.221.45 1.83l.277 1.805c.18 1.171.37 2.261.377 3.212.047.945.086 1.734.115 2.286l.03.64c.011.148.004.226.004.226H95.9ZM54.386 92.08l.414.022.475.028.617-.033 1.542-.081c.562-.046 1.173-.007 1.764-.136l1.746-.269c.555-.09 1.084-.133 1.514-.275l1.454-.377.104.388-1.472.381c-.435.144-.97.187-1.533.278l-1.767.273c-.597.13-1.215.09-1.784.137l-1.562.082-.623.033-.481-.027a88.44 88.44 0 0 0-.419-.023l.011-.402ZM28.356 90.14s.62.606 1.333 1.1l1.385 1.037-.236.325-1.398-1.047c-.72-.499-1.346-1.11-1.346-1.11l.262-.304ZM35.27 19.475l-.925.45c-.45.246-.884.52-.884.52l-.273-.48s.44-.277.896-.526l.935-.455.25.491ZM36.18 19.034l-.432.208-.244-.495.437-.211.24.498ZM39.59 17.569l-1.564.587-1.506.719-.235-.5 1.526-.728 1.582-.594.197.516ZM35.874 18.033l-1.53.74-.07-.133 1.535-.744.065.137ZM65.334 17.531l-.904-.23c-.536-.166-1.28-.248-2.015-.369l-2.027-.308a152.18 152.18 0 0 0-.668-.1c-.161-.023-.255-.02-.255-.02l.026-.268s.094-.002.257.022c.162.024.394.06.672.1l2.04.31c.74.122 1.488.204 2.028.371l.909.232-.063.26ZM66.513 17.844l-.638-.165.067-.259.642.165-.07.259ZM99.531 65.777l.063-.413.43.064-.063.416-.43-.067ZM98.887 69.111s.182-.681.337-1.367l.218-1.39.428.073-.22 1.403c-.156.693-.34 1.38-.34 1.38l-.423-.099ZM98.574 70.326l.208-.809.423.104-.21.817-.42-.112ZM97.578 73.583l.39-1.078c.107-.268.184-.543.234-.753.055-.208.09-.347.09-.347l.418.122-.092.35c-.05.212-.128.49-.235.76l-.394 1.09-.41-.144ZM86.043 83.528l1.484-1.985.574.406-1.51 2.02-.548-.441ZM85.316 84.404l.39-.43.543.448-.398.437-.535-.455ZM84.144 85.693l.659-.724.526.466-.671.737-.514-.479ZM35.966 91.368l.954.58-.277.497-.967-.588.29-.49ZM33.85 90.046l.238.18a286.117 286.117 0 0 0 1.376.837l-.298.484-.829-.503-.568-.347-.242-.182.322-.469ZM33.1 89.486l.398.299-.327.465-.405-.304.333-.46ZM11.797 48.553s-.401 1.51-.359 1.517l-.622-.123c-.044-.008.363-1.54.363-1.54l.618.146ZM12.049 47.585l-.147.571-.617-.15.149-.581.615.16ZM12.29 45.985l-.168.64-.45-.127.17-.647.448.134Z"/><path fill="red" d="M71.82 53.935c0 5.581.012 11.161-.006 16.741-.008 2.993-1.91 5.353-4.75 5.95-.421.087-.86.122-1.292.123-7.92.007-15.839.008-23.758.003-3.345-.002-5.991-2.585-6-5.926-.022-8.464-.014-16.927-.003-25.391.002-1.774.678-3.225 2.017-4.459 2.87-2.646 5.666-5.375 8.478-8.086 1.313-1.264 2.827-1.905 4.677-1.89 4.851.042 9.702.014 14.553.017 3.477.001 6.08 2.6 6.082 6.084.006 5.612.002 11.223.002 16.834Z"/><path fill="#fff" d="M55.033 56.529a2.22 2.22 0 0 1-2.362-2.362 2.233 2.233 0 0 1 2.077-2.077 2.22 2.22 0 0 1 2.361 2.362 2.234 2.234 0 0 1-2.076 2.077Zm.124 1.904a4.133 4.133 0 0 1-4.39-4.39 4.14 4.14 0 0 1 3.852-3.853 4.133 4.133 0 0 1 4.39 4.39 4.152 4.152 0 0 1-3.852 3.853Zm-.27-9.974c-3.75 0-7.153 2.053-9.663 5.387a.777.777 0 0 0 0 .927c2.51 3.338 5.913 5.391 9.664 5.391 3.752 0 7.154-2.053 9.665-5.387a.777.777 0 0 0 0-.927c-2.51-3.338-5.913-5.391-9.665-5.391Z"/></svg>