<svg width="111" height="111" viewBox="0 0 111 111" fill="none" xmlns="http://www.w3.org/2000/svg">
<g clip-path="url(#clip0_3703_2540)">
<path d="M82.287 8.43286C82.287 8.43286 82.1945 8.37891 82.0095 8.26328C81.8245 8.15537 81.5624 7.97037 81.1847 7.8085C80.4447 7.45392 79.3501 6.92205 77.9626 6.25914C77.6158 6.08956 77.2535 5.91998 76.8681 5.73498C76.4749 5.5731 76.051 5.43436 75.6193 5.26477C74.7483 4.94103 73.8079 4.60186 72.7981 4.23187C71.8037 3.81562 70.686 3.58438 69.522 3.27605C68.9362 3.12959 68.3427 2.97542 67.7337 2.82126C67.1247 2.66709 66.5004 2.4898 65.8452 2.41272C60.6652 1.39523 54.4368 1.13315 47.9079 2.03502C41.3789 2.93688 34.5802 5.1954 28.4983 8.7412C22.401 12.2562 17.0514 17.0044 12.9814 22.1844C12.4881 22.8473 11.9947 23.5025 11.5091 24.15C11.0312 24.7975 10.5302 25.4296 10.137 26.1233C9.31995 27.4877 8.47974 28.7981 7.74745 30.1162C7.09224 31.4805 6.45245 32.8064 5.83578 34.0859C5.24224 35.3809 4.84141 36.699 4.3712 37.9323C4.14766 38.5567 3.9087 39.1502 3.7237 39.7515C3.56953 40.3604 3.41536 40.9617 3.2612 41.5475C2.96828 42.7115 2.68307 43.8214 2.42099 44.8544C2.09724 46.9741 1.79661 48.8241 1.5962 50.3503C1.44203 53.4259 1.34953 55.1757 1.34953 55.1757C1.33411 55.484 1.08745 55.7384 0.786822 55.7384C0.493905 55.7384 0.262655 55.484 0.278072 55.168C0.278072 55.168 0.370572 53.3797 0.524739 50.2501C0.725155 48.6931 1.03349 46.8122 1.36495 44.6539C1.63474 43.5902 1.91995 42.4648 2.22057 41.2777C2.37474 40.6842 2.52891 40.0752 2.69078 39.4509C2.88349 38.8342 3.13016 38.2253 3.3537 37.5855C3.83161 36.329 4.24786 34.9878 4.84911 33.662C5.4812 32.3593 6.1287 31.0026 6.79932 29.6151C7.54703 28.2739 8.40265 26.9327 9.23515 25.5452C9.62828 24.836 10.137 24.1962 10.6304 23.5333C11.1237 22.8704 11.6247 22.2075 12.1258 21.5292C16.2806 16.249 21.7304 11.4005 27.951 7.81621C34.1562 4.20874 41.0937 1.90398 47.746 0.978986C54.406 0.0694125 60.7499 0.323785 66.0302 1.3644C66.7008 1.44148 67.3329 1.61877 67.9572 1.78064C68.5816 1.94252 69.1906 2.09668 69.7841 2.25085C70.9712 2.56689 72.112 2.80584 73.1218 3.22209C74.147 3.59979 75.1106 3.95437 75.997 4.27812C76.4364 4.43999 76.8681 4.58645 77.2689 4.75603C77.662 4.94874 78.032 5.12603 78.3866 5.2879C79.7972 5.97393 80.9149 6.5058 81.6704 6.8758C82.0558 7.04538 82.3179 7.23809 82.5106 7.346C82.6956 7.45392 82.7958 7.51558 82.7958 7.51558C83.0656 7.67746 83.1658 8.01662 83.0193 8.27099C82.8806 8.51766 82.5491 8.59474 82.287 8.43286Z" fill="#606161"/>
<path d="M79.7347 12.9579C79.7347 12.9579 79.6499 12.904 79.488 12.8038C79.3184 12.7113 79.0872 12.5417 78.748 12.3875C78.0774 12.0638 77.0907 11.5936 75.8343 10.9923C75.5259 10.8382 75.1945 10.684 74.8476 10.5144C74.493 10.368 74.1076 10.2446 73.7145 10.0982C72.9282 9.80526 72.0726 9.49693 71.1707 9.16548C70.2766 8.78777 69.2591 8.58736 68.2107 8.30215C67.6866 8.17111 67.147 8.02465 66.592 7.88591C66.037 7.73945 65.4743 7.57758 64.8807 7.51591C60.1941 6.58321 54.5516 6.35967 48.647 7.16904C42.7424 7.98611 36.6066 10.0211 31.1028 13.22C25.5836 16.3958 20.7505 20.697 17.0659 25.3836C16.6189 25.9849 16.1795 26.5784 15.7401 27.1642C15.3007 27.7501 14.8459 28.3205 14.4991 28.9448C13.7668 30.1782 13.0036 31.3575 12.333 32.5523C11.7395 33.7856 11.1614 34.9804 10.6064 36.1366C10.0668 37.3083 9.71219 38.5031 9.28052 39.6131C9.0801 40.1758 8.85656 40.7153 8.68698 41.2626C8.54823 41.8176 8.40948 42.3495 8.27844 42.8814C8.00865 43.9374 7.75427 44.9318 7.5076 45.8722C7.2224 47.7915 6.96802 49.4642 6.7676 50.8363C6.62885 53.619 6.55177 55.2146 6.55177 55.2146C6.54406 55.3533 6.42073 55.4689 6.27427 55.4689C6.12781 55.4689 6.01219 55.3533 6.0199 55.2069C6.0199 55.2069 6.10469 53.6035 6.24344 50.79C6.42844 49.3948 6.71365 47.7067 6.99115 45.772C7.2301 44.8238 7.49219 43.8141 7.76198 42.7503C7.90073 42.2185 8.03948 41.6712 8.17823 41.1085C8.34781 40.5535 8.57135 40.0139 8.77177 39.4435C9.21115 38.3258 9.56573 37.1156 10.113 35.9285C10.6757 34.7569 11.2616 33.5467 11.8628 32.2979C12.5334 31.0955 13.3043 29.9007 14.052 28.6519C14.3989 28.0121 14.8614 27.4417 15.3084 26.8482C15.7555 26.2547 16.1949 25.6534 16.6497 25.0522C20.3728 20.3116 25.2676 15.9642 30.8407 12.7575C36.3984 9.52005 42.6114 7.46195 48.5776 6.63717C54.5516 5.82009 60.248 6.04363 64.9809 6.97633C65.5822 7.04571 66.1526 7.20758 66.7076 7.35404C67.2703 7.50049 67.8099 7.63924 68.3418 7.77799C69.4055 8.0632 70.4307 8.26361 71.3326 8.64902C72.2499 8.98819 73.1132 9.29652 73.9072 9.58943C74.3003 9.74359 74.6934 9.86693 75.048 10.0211C75.3949 10.1907 75.7341 10.3525 76.0501 10.5067C77.322 11.1157 78.3164 11.5936 78.9947 11.925C79.3416 12.0792 79.5728 12.2488 79.7424 12.349C79.912 12.4492 79.9968 12.5031 79.9968 12.5031C80.1201 12.5725 80.1586 12.7421 80.0816 12.8654C80.0122 12.9888 79.858 13.035 79.7347 12.9579Z" fill="#606161"/>
<path d="M4.43936 50.1265C4.41623 50.273 4.27748 50.3809 4.13103 50.3655L1.08624 50.0494C0.939777 50.034 0.839568 49.8953 0.862693 49.7411C0.885818 49.5869 1.02457 49.4713 1.17103 49.4867L4.21582 49.8336C4.36228 49.849 4.46248 49.9801 4.43936 50.1265Z" fill="#606161"/>
<path d="M24.3593 14.8614C24.2437 14.9461 24.0741 14.923 23.9816 14.8074L22.1085 12.387C22.016 12.2714 22.0468 12.1018 22.1701 12.0093C22.2935 11.9168 22.4708 11.9322 22.5556 12.0478L24.4056 14.4914C24.4981 14.607 24.4749 14.7766 24.3593 14.8614Z" fill="#606161"/>
<path d="M49.5002 4.60935C49.3538 4.63247 49.2227 4.52456 49.2073 4.38581L48.8296 1.34876C48.8142 1.2023 48.9221 1.06355 49.0763 1.04043C49.2304 1.0173 49.3692 1.11751 49.3846 1.26397L49.7315 4.30873C49.7546 4.45518 49.6467 4.58622 49.5002 4.60935Z" fill="#606161"/>
<path d="M54.9566 4.24758C54.8101 4.25529 54.6868 4.13966 54.6868 3.99321L54.6328 0.925322C54.6328 0.778865 54.7561 0.655533 54.918 0.647825C55.0722 0.640117 55.2032 0.755741 55.2032 0.902197L55.2264 3.97008C55.2264 4.11654 55.1107 4.23987 54.9566 4.24758Z" fill="#606161"/>
<path d="M73.5277 7.47647C73.389 7.42251 73.3196 7.26834 73.3658 7.1373L74.4142 4.26213C74.4758 4.11567 74.63 4.04629 74.7842 4.10025C74.9306 4.15421 75.0077 4.30838 74.9615 4.44712L73.8746 7.31459C73.8206 7.45334 73.6665 7.52272 73.5277 7.47647Z" fill="#606161"/>
<path d="M10.0073 31.8501C9.94564 31.9811 9.78377 32.035 9.65272 31.9734L6.93168 30.5628C6.80064 30.4934 6.75439 30.3238 6.81606 30.1851C6.88543 30.0463 7.04731 29.9847 7.17835 30.054L9.88397 31.4878C10.015 31.5571 10.0767 31.719 10.0073 31.8501Z" fill="#606161"/>
<path d="M13.161 26.5853C13.0762 26.7086 12.8989 26.7317 12.7832 26.6546L10.2472 24.928C10.1239 24.8432 10.1007 24.6813 10.1932 24.5503C10.2857 24.4192 10.463 24.3884 10.5787 24.4732L13.0993 26.223C13.2226 26.3078 13.2457 26.4696 13.161 26.5853Z" fill="#606161"/>
<path d="M83.2616 102.435C83.2616 102.435 83.6393 102.211 84.3408 101.78C85.0422 101.348 86.0983 100.755 87.3085 99.791C88.5187 98.8429 90.0989 97.8254 91.6329 96.3223C92.4191 95.5977 93.2824 94.8423 94.1458 94.0098C94.9552 93.1233 95.8031 92.1829 96.6895 91.2117C100.12 87.2188 103.581 82.0312 106.032 75.8954C108.514 69.7827 109.94 62.7605 109.948 55.7229C109.94 48.6853 108.514 41.663 106.032 35.5504C103.573 29.4146 100.112 24.2347 96.6895 20.2341C95.8031 19.2629 94.9552 18.3225 94.1458 17.436C93.2747 16.6035 92.4191 15.8558 91.6329 15.1312C90.0989 13.6281 88.5187 12.6106 87.3085 11.6625C86.0983 10.699 85.0422 10.1132 84.3408 9.6815C83.6393 9.24984 83.2616 9.01859 83.2616 9.01859C82.9918 8.85672 82.8993 8.51755 83.0458 8.26318C83.1922 8.00881 83.5314 7.93173 83.8012 8.0936C83.8012 8.0936 84.1866 8.32485 84.9035 8.76422C85.6204 9.20359 86.6995 9.80483 87.9252 10.7915C89.1585 11.755 90.7695 12.7956 92.3343 14.3296C93.1437 15.0696 94.0147 15.8327 94.9012 16.6806C95.726 17.5902 96.597 18.5383 97.4989 19.5404C100.991 23.6103 104.521 28.9059 107.026 35.1573C109.555 41.3933 111.012 48.5542 111.012 55.7229C111.012 62.8993 109.555 70.0602 107.026 76.2962C104.521 82.5553 100.991 87.8355 97.4989 91.9131C96.597 92.9075 95.726 93.8633 94.9012 94.7652C94.0147 95.6131 93.1437 96.3839 92.3343 97.1239C90.7695 98.6579 89.1585 99.6985 87.9252 100.662C86.6918 101.641 85.6204 102.25 84.9035 102.689C84.1866 103.121 83.8012 103.36 83.8012 103.36C83.5314 103.522 83.1922 103.452 83.0458 103.198C82.8993 102.936 82.9918 102.597 83.2616 102.435Z" fill="#606161"/>
<path d="M80.6016 97.9642C80.6016 97.9642 80.9408 97.7561 81.5806 97.3706C82.2126 96.9852 83.1762 96.4534 84.2631 95.5746C85.3577 94.719 86.7991 93.8017 88.1789 92.4374C88.8958 91.7822 89.6666 91.1038 90.4606 90.3561C91.1929 89.5468 91.9637 88.7066 92.7654 87.8201C95.8641 84.1972 98.9937 79.5106 101.214 73.9684C103.457 68.4416 104.752 62.1054 104.752 55.7307C104.744 49.3559 103.457 43.0121 101.214 37.4929C98.9937 31.9507 95.8641 27.2641 92.7654 23.6489C91.9637 22.7625 91.1929 21.9146 90.4606 21.1129C89.6743 20.3652 88.8958 19.6869 88.1789 19.024C86.7991 17.6596 85.3577 16.75 84.2631 15.8867C83.1762 15.0157 82.2126 14.4838 81.5806 14.0907C80.9408 13.7053 80.6016 13.4972 80.6016 13.4972C80.4783 13.4278 80.4474 13.2582 80.5168 13.1349C80.5939 13.0038 80.7481 12.9653 80.8714 13.0424C80.8714 13.0424 81.2183 13.2505 81.8581 13.6359C82.5056 14.029 83.4691 14.5686 84.5714 15.4551C85.6814 16.3184 87.1306 17.2434 88.5258 18.6309C89.2504 19.2938 90.0366 19.9798 90.8306 20.7352C91.5706 21.5523 92.3491 22.4079 93.1585 23.3021C96.2881 26.9635 99.4562 31.6963 101.699 37.3002C103.966 42.881 105.268 49.2943 105.276 55.7384C105.268 62.1825 103.966 68.5957 101.699 74.1765C99.4562 79.7804 96.2881 84.5133 93.1585 88.1747C92.3491 89.0689 91.5706 89.9245 90.8306 90.7416C90.0366 91.497 89.2504 92.183 88.5258 92.8459C87.1306 94.2257 85.6737 95.1507 84.5714 96.0217C83.4768 96.9082 82.5056 97.44 81.8581 97.8331C81.2106 98.2263 80.8714 98.4344 80.8714 98.4344C80.7481 98.5038 80.5939 98.4652 80.5168 98.3419C80.4474 98.1954 80.4783 98.0336 80.6016 97.9642Z" fill="#606161"/>
<path d="M86.0535 14.2219C85.9379 14.1371 85.9071 13.9675 85.9996 13.8442L87.8033 11.3621C87.8881 11.2465 88.0654 11.2234 88.1887 11.3159C88.3121 11.4084 88.3429 11.5779 88.2581 11.7013L86.4312 14.1602C86.3387 14.2835 86.1692 14.3067 86.0535 14.2219Z" fill="#606161"/>
<path d="M106.656 49.071C106.633 48.9245 106.733 48.7935 106.879 48.7704L109.916 48.3618C110.063 48.3464 110.201 48.4543 110.225 48.6085C110.248 48.7626 110.148 48.9014 110.001 48.9245L106.956 49.3022C106.818 49.3253 106.679 49.2174 106.656 49.071Z" fill="#606161"/>
<path d="M102.99 75.9962C103.052 75.8651 103.214 75.8035 103.353 75.8574L106.174 77.0522C106.313 77.1139 106.367 77.2757 106.297 77.4145C106.228 77.5532 106.066 77.6226 105.927 77.5686L103.114 76.343C102.983 76.2814 102.929 76.1272 102.99 75.9962Z" fill="#606161"/>
<path d="M100.563 80.8904C100.64 80.767 100.802 80.7208 100.933 80.7902L103.615 82.2779C103.746 82.3472 103.785 82.5168 103.7 82.6478C103.623 82.7789 103.454 82.8328 103.322 82.7635L100.655 81.2449C100.524 81.1756 100.486 81.0137 100.563 80.8904Z" fill="#606161"/>
<path d="M88.4958 95.3816C88.6037 95.2814 88.7656 95.2968 88.8658 95.4047L90.8391 97.7557C90.9316 97.8714 90.9162 98.041 90.8006 98.1489C90.6849 98.2568 90.5076 98.2414 90.4151 98.1257L88.4726 95.7516C88.3647 95.6437 88.3879 95.4818 88.4958 95.3816Z" fill="#606161"/>
<path d="M99.1023 28.1655C99.0252 28.0422 99.0637 27.8726 99.1871 27.7955L101.762 26.1383C101.885 26.0535 102.055 26.0997 102.139 26.2385C102.224 26.3695 102.186 26.5468 102.062 26.6239L99.4646 28.258C99.3412 28.3274 99.1794 28.2889 99.1023 28.1655Z" fill="#606161"/>
<path d="M102.072 33.5312C102.011 33.4002 102.065 33.2383 102.196 33.1767L104.955 31.8354C105.086 31.7738 105.248 31.8354 105.318 31.9742C105.387 32.1129 105.333 32.2825 105.202 32.3442L102.435 33.6546C102.296 33.7239 102.134 33.67 102.072 33.5312Z" fill="#606161"/>
<path d="M1.33804 56.2856C1.33804 56.2856 1.42283 58.0431 1.58471 61.1187C1.78513 62.6449 2.08575 64.4872 2.4095 66.607C2.67159 67.6476 2.95679 68.7499 3.24971 69.9215C3.40388 70.5074 3.55804 71.1009 3.71221 71.7098C3.89721 72.3111 4.14388 72.9123 4.35971 73.5367C4.82992 74.77 5.23846 76.0881 5.82429 77.3754C6.44096 78.6627 7.08075 79.9885 7.73596 81.3452C8.46825 82.6633 9.30846 83.9737 10.1255 85.338C10.511 86.0318 11.012 86.6638 11.4976 87.3113C11.9833 87.9588 12.4766 88.614 12.9699 89.2769C17.0399 94.4569 22.3895 99.2129 28.4868 102.728C34.5687 106.266 41.3674 108.524 47.8964 109.426C54.4253 110.32 60.6537 110.066 65.8337 109.049C66.4889 108.972 67.1133 108.794 67.7222 108.64C68.3312 108.486 68.9324 108.324 69.5106 108.178C70.6745 107.869 71.7922 107.638 72.7866 107.222C73.7964 106.852 74.7368 106.505 75.6078 106.189C76.0395 106.027 76.4635 105.881 76.8566 105.719C77.242 105.534 77.6043 105.364 77.9512 105.194C79.3387 104.524 80.4256 104 81.1733 103.645C81.551 103.476 81.8131 103.291 81.9981 103.19C82.1753 103.082 82.2756 103.028 82.2756 103.028C82.5376 102.867 82.8768 102.944 83.0233 103.198C83.1697 103.452 83.0695 103.792 82.7997 103.953C82.7997 103.953 82.7072 104.015 82.5145 104.123C82.3295 104.231 82.0597 104.416 81.6743 104.593C80.9189 104.956 79.8012 105.495 78.3906 106.173C78.036 106.343 77.666 106.52 77.2728 106.713C76.872 106.883 76.4403 107.021 76.001 107.191C75.1145 107.515 74.151 107.869 73.1258 108.239C72.116 108.663 70.9674 108.902 69.7881 109.218C69.1945 109.372 68.5855 109.527 67.9612 109.688C67.3368 109.85 66.7047 110.028 66.0341 110.105C60.7539 111.153 54.4099 111.407 47.7499 110.49C41.0976 109.573 34.1601 107.268 27.9549 103.661C21.7343 100.076 16.2845 95.2354 12.1297 89.9476C11.621 89.277 11.1276 88.6063 10.6343 87.9434C10.141 87.2805 9.63221 86.6407 9.23909 85.9316C8.40659 84.5441 7.55096 83.2106 6.80325 81.8616C6.13263 80.4741 5.48513 79.1252 4.85304 77.8148C4.25179 76.4967 3.83554 75.1477 3.35763 73.8913C3.13409 73.2592 2.88742 72.6503 2.69471 72.0259C2.53284 71.4015 2.37867 70.7926 2.2245 70.199C1.92388 69.012 1.63867 67.8866 1.36888 66.8228C1.03742 64.6645 0.736793 62.776 0.528668 61.2266C0.366793 58.0894 0.282001 56.301 0.282001 56.301C0.266585 55.985 0.490126 55.7306 0.790752 55.7306C1.06825 55.7229 1.32263 55.9773 1.33804 56.2856Z" fill="#606161"/>
<path d="M6.52432 56.2392C6.52432 56.2392 6.60141 57.8271 6.74016 60.6098C6.94828 61.9895 7.19495 63.6545 7.48016 65.5739C7.71911 66.5143 7.97349 67.5086 8.25099 68.5647C8.38203 69.0888 8.52078 69.6361 8.65953 70.1834C8.82911 70.7307 9.05266 71.2703 9.25307 71.833C9.68474 72.943 10.0393 74.1455 10.5789 75.3094C11.1339 76.4656 11.712 77.6681 12.3056 78.9014C12.9685 80.0885 13.7393 81.2756 14.4716 82.5012C14.8185 83.1333 15.2733 83.7037 15.7127 84.2895C16.152 84.8753 16.5914 85.4689 17.0385 86.0624C20.7231 90.7567 25.5639 95.0502 31.0754 98.226C36.5791 101.425 42.7149 103.468 48.6195 104.285C54.5241 105.094 60.1666 104.871 64.8456 103.946C65.4391 103.884 66.0018 103.722 66.5568 103.576C67.1118 103.437 67.6514 103.298 68.1756 103.159C69.2239 102.874 70.2414 102.674 71.1356 102.304C72.0452 101.972 72.8931 101.656 73.6793 101.371C74.0724 101.225 74.4579 101.101 74.8124 100.947C75.1593 100.777 75.4908 100.616 75.7991 100.469C77.0556 99.8679 78.0422 99.39 78.7129 99.0662C79.0597 98.9198 79.291 98.7502 79.4529 98.6577C79.6224 98.5575 79.6995 98.5035 79.6995 98.5035C79.8229 98.4264 79.977 98.4727 80.0464 98.6037C80.1235 98.7271 80.0772 98.8966 79.9616 98.9737C79.9616 98.9737 79.8768 99.0277 79.7072 99.1279C79.5376 99.2204 79.3064 99.3977 78.9595 99.5441C78.2812 99.8679 77.2868 100.354 76.0149 100.962C75.6989 101.117 75.3674 101.279 75.0129 101.448C74.6583 101.602 74.2651 101.726 73.872 101.872C73.0781 102.165 72.2147 102.481 71.2974 102.82C70.3956 103.206 69.3626 103.406 68.3066 103.691C67.7747 103.83 67.2274 103.969 66.6724 104.115C66.1174 104.262 65.547 104.431 64.9458 104.485C60.2129 105.426 54.5087 105.649 48.5424 104.832C42.5762 104.007 36.371 101.949 30.8056 98.7117C25.2324 95.505 20.3377 91.1576 16.6145 86.417C16.1597 85.8157 15.7127 85.2145 15.2733 84.621C14.8262 84.0274 14.3714 83.457 14.0168 82.8172C13.2768 81.5685 12.506 80.3737 11.8277 79.1712C11.2264 77.9302 10.6483 76.72 10.0779 75.5484C9.53828 74.369 9.17599 73.1588 8.73661 72.0334C8.5362 71.463 8.31266 70.9157 8.14307 70.3684C7.99661 69.8134 7.85786 69.2661 7.72682 68.7343C7.45703 67.6705 7.19495 66.6607 6.95599 65.7126C6.67078 63.7701 6.39328 62.0897 6.20828 60.6946C6.06953 57.881 5.98474 56.27 5.98474 56.27C5.97703 56.1313 6.09266 56.0157 6.23911 56.0079C6.39328 55.9771 6.51661 56.0927 6.52432 56.2392Z" fill="#606161"/>
<path d="M76.366 102.859C76.497 102.798 76.6512 102.852 76.7129 102.983L77.9616 105.781C78.0233 105.912 77.9539 106.074 77.8152 106.143C77.6764 106.213 77.5068 106.159 77.4529 106.028L76.2272 103.214C76.181 103.083 76.235 102.921 76.366 102.859Z" fill="#606161"/>
<path d="M35.8365 103.291C35.9752 103.345 36.0446 103.491 35.9907 103.63L34.8267 106.466C34.7727 106.597 34.6032 106.667 34.4567 106.613C34.3102 106.559 34.2332 106.405 34.2948 106.266L35.4896 103.445C35.5436 103.306 35.7055 103.244 35.8365 103.291Z" fill="#606161"/>
<path d="M14.4352 86.5711C14.52 86.6867 14.4969 86.8563 14.3812 86.9488L11.9377 88.7988C11.8221 88.8836 11.6525 88.8605 11.5523 88.7371C11.4598 88.6061 11.4752 88.4365 11.5908 88.344L14.0575 86.5172C14.1808 86.4247 14.3427 86.4555 14.4352 86.5711Z" fill="#606161"/>
<path d="M11.386 82.0315C11.4631 82.1549 11.4245 82.3245 11.2935 82.4015L8.66496 83.9817C8.54162 84.0588 8.37204 84.0126 8.28725 83.8738C8.20246 83.7351 8.241 83.5655 8.37204 83.4961L11.016 81.9391C11.1393 81.862 11.3089 81.9082 11.386 82.0315Z" fill="#606161"/>
<path d="M4.88499 64.3562C4.90812 64.5026 4.80791 64.6414 4.66145 64.6645L1.63978 65.1964C1.49333 65.2195 1.35458 65.1116 1.33145 64.9574C1.30833 64.8033 1.40853 64.6568 1.54728 64.6337L4.56895 64.1404C4.73083 64.1095 4.86187 64.2097 4.88499 64.3562Z" fill="#606161"/>
<path d="M57.752 107.129C57.8984 107.122 58.0217 107.237 58.0295 107.384L58.1759 110.444C58.1836 110.59 58.0603 110.721 57.9061 110.721C57.752 110.729 57.6132 110.621 57.6132 110.467L57.5053 107.399C57.4899 107.26 57.6055 107.137 57.752 107.129Z" fill="#606161"/>
<path d="M51.6191 107.036C51.7655 107.044 51.8812 107.168 51.8658 107.314L51.6422 110.374C51.6345 110.521 51.4958 110.636 51.3416 110.621C51.1797 110.613 51.0641 110.49 51.0795 110.343L51.3339 107.291C51.3416 107.144 51.4726 107.029 51.6191 107.036Z" fill="#606161"/>
<path d="M58.5183 61.1416C58.3333 60.9411 58.0327 60.9103 57.7937 61.0413C54.0706 63.1226 49.3531 61.1107 48.2739 56.9714C48.2046 56.7093 47.9733 56.5166 47.6958 56.5166H39.101C38.7464 56.5166 38.4689 56.8249 38.5075 57.1795C39.4248 65.2501 46.3006 71.5477 54.6179 71.5477C58.1869 71.5477 61.5939 70.3915 64.3998 68.2717C64.685 68.0559 64.7158 67.6473 64.4692 67.3852L58.5183 61.1416Z" fill="#ED2224"/>
<path d="M54.6352 59.4841C56.934 59.4841 58.7977 57.6205 58.7977 55.3216C58.7977 53.0228 56.934 51.1592 54.6352 51.1592C52.3363 51.1592 50.4727 53.0228 50.4727 55.3216C50.4727 57.6205 52.3363 59.4841 54.6352 59.4841Z" fill="#ED2224"/>
<path d="M47.7035 54.1264C47.981 54.1264 48.2123 53.9414 48.2817 53.6716C49.1989 50.1258 52.8989 47.9829 56.4679 49.0389C56.73 49.116 57.0152 49.0158 57.1539 48.7769L61.5939 41.4001C61.7789 41.0994 61.6556 40.6986 61.3319 40.5522C51.3573 36.012 39.7562 42.5409 38.5075 53.4635C38.4689 53.8181 38.7464 54.1264 39.101 54.1264H47.7035Z" fill="#ED2224"/>
<path d="M90.2471 54.8824C84.7819 41.0847 70.4675 31.8193 54.6269 31.8193C38.7863 31.8193 24.4719 41.0847 19.0067 54.8824C18.8988 55.1676 18.8988 55.476 19.0067 55.7612C24.4719 69.5589 38.7863 78.8243 54.6269 78.8243C70.4675 78.8243 84.7819 69.5589 90.2471 55.7612C90.355 55.476 90.355 55.1599 90.2471 54.8824ZM71.0534 68.3642C70.0282 69.6514 68.2707 70.0754 66.7753 69.3971C63.399 72.3108 59.1209 73.9064 54.6346 73.9064C44.3825 73.9064 36.0421 65.5661 36.0421 55.3141C36.0421 45.0621 44.3825 36.7218 54.6346 36.7218C57.7103 36.7218 60.7165 37.4772 63.4067 38.9186C64.7171 37.9243 66.5363 37.9628 67.8005 38.988C76.8115 46.2723 78.1913 59.384 71.0534 68.3642Z" fill="#ED2224"/>
<path d="M66.299 40.8459C65.7286 40.3912 64.9038 40.5453 64.5338 41.162L59.2073 50.011C59.0686 50.2423 59.0994 50.5429 59.2844 50.7356C61.4196 52.9016 61.7742 56.2239 60.1863 58.7753C60.0398 59.0066 60.0629 59.3072 60.2557 59.5076L67.3859 66.9846C67.8869 67.5088 68.7348 67.4702 69.1896 66.8921C75.5182 58.9218 74.2232 47.2438 66.299 40.8459Z" fill="#ED2224"/>
</g>
<defs>
<clipPath id="clip0_3703_2540">
<rect width="111" height="110.999" fill="white"/>
</clipPath>
</defs>
</svg>
