<svg xmlns="http://www.w3.org/2000/svg" width="1447" height="96" fill="none"><path fill="#11101099" d="m20.154 31.135.197.46.002-.001-.199-.46Zm-5.445 3.984-.379-.326.379.326ZM11.986 60.32l-.46.194v.004l.46-.198Zm5.711 6.94-.272.42h.002l.27-.42Zm15.639 1.925.091.492h.005l-.096-.492Zm5.611-1.394h.5v-.675l-.646.197.146.478Zm0 4.914.176.468.324-.121v-.347h-.5Zm-5.578 1.461-.078-.494-.006.001.084.493Zm-19.324-2.557-.265.425.004.002.26-.427ZM6.607 62.91l-.458.2.001.003.457-.203Zm-.93-23.308-.473-.162v.002l.474.16Zm4.516-7.903-.371-.334-.002.002.373.332Zm7.305-5.113.192.462.002-.001-.194-.461Zm17.067-1.096-.105.49.105-.49Zm6.175 2.092.452.213.21-.444-.44-.217-.222.448Zm-2.258 4.781-.207.455.449.205.21-.446-.452-.214Zm-5.113-1.826-.139.48.007.002.132-.482Zm-5.976-1.297c-2.737 0-5.22.475-7.437 1.436l.397.918c2.076-.9 4.42-1.354 7.04-1.354v-1Zm-7.435 1.435a15.223 15.223 0 0 0-5.628 4.118l.758.652a14.22 14.22 0 0 1 5.263-3.85l-.393-.92Zm-5.628 4.118c-1.532 1.784-2.702 3.936-3.517 6.447l.952.309c.779-2.403 1.889-4.434 3.323-6.104l-.758-.652Zm-3.517 6.447c-.815 2.516-1.22 5.336-1.22 8.455h1c0-3.034.394-5.748 1.172-8.146l-.952-.309Zm-1.22 8.455c0 4.124.64 7.734 1.932 10.819l.922-.387c-1.23-2.936-1.853-6.41-1.853-10.432h-1Zm1.934 10.823c1.32 3.071 3.285 5.465 5.898 7.161l.544-.839c-2.433-1.58-4.275-3.812-5.523-6.717l-.92.395Zm5.9 7.162c2.644 1.702 5.921 2.537 9.8 2.537v-1c-3.736 0-6.813-.803-9.26-2.378l-.54.841Zm9.8 2.537c2.196 0 4.263-.18 6.2-.54l-.182-.983c-1.87.348-3.876.523-6.018.523v1Zm6.205-.54a56.68 56.68 0 0 0 5.661-1.408l-.292-.956a55.63 55.63 0 0 1-5.561 1.382l.192.981Zm5.015-1.886v4.914h1v-4.914h-1Zm.325 4.446a28.169 28.169 0 0 1-5.481 1.435l.157.988c1.98-.315 3.871-.81 5.675-1.487l-.351-.936Zm-5.487 1.436c-1.912.326-4.196.491-6.855.491v1c2.697 0 5.04-.167 7.023-.505l-.168-.986Zm-6.855.491c-4.869 0-8.9-1.004-12.124-2.98l-.522.852c3.417 2.096 7.642 3.128 12.646 3.128v-1Zm-12.12-2.979c-3.21-2.003-5.624-4.823-7.246-8.478l-.914.406c1.699 3.827 4.243 6.806 7.63 8.92l.53-.848ZM7.065 62.71C5.461 59.045 4.65 54.7 4.65 49.662h-1c0 5.144.828 9.631 2.5 13.449l.915-.401ZM4.65 49.662c0-3.628.503-6.927 1.502-9.901l-.948-.319c-1.038 3.091-1.554 6.5-1.554 10.22h1Zm1.501-9.9c1.02-2.996 2.494-5.571 4.416-7.73l-.747-.665c-2.018 2.268-3.556 4.961-4.616 8.073l.947.323Zm4.414-7.728c1.94-2.156 4.313-3.818 7.125-4.986l-.384-.924c-2.943 1.223-5.44 2.97-7.484 5.24l.743.67Zm7.127-4.987c2.828-1.187 6.08-1.787 9.767-1.787v-1c-3.795 0-7.183.617-10.154 1.865l.387.922Zm9.767-1.787c2.424 0 4.757.24 7.001.72l.209-.979a34.43 34.43 0 0 0-7.21-.741v1Zm7.001.72c2.245.479 4.263 1.163 6.059 2.05l.443-.896c-1.88-.928-3.978-1.638-6.293-2.133l-.209.978Zm5.828 1.389-2.258 4.78.904.428 2.258-4.781-.904-.427Zm-1.598 4.54c-1.577-.721-3.307-1.339-5.189-1.854l-.264.964c1.837.503 3.515 1.103 5.038 1.799l.415-.91Zm-5.182-1.852c-1.888-.546-3.927-.817-6.115-.817v1c2.105 0 4.05.26 5.837.777l.278-.96Zm38.261-3.106-.18.467.005.002.175-.469Zm6.375 18.627.44.24v-.003l-.44-.237Zm-8.467 6.607-.16-.473-.592.2.326.534.426-.26ZM82.992 74v.5h.89l-.463-.76-.427.26Zm-6.574 0-.432.253.145.247h.287V74ZM64.53 53.746l.431-.253-.145-.247h-.286v.5Zm-10.094 0v-.5h-.5v.5h.5Zm0 20.254v.5h.5V74h-.5Zm-5.644 0h-.5v.5h.5V74Zm0-48.543v-.5h-.5v.5h.5Zm5.644 4.88v-.5h-.5v.5h.5Zm0 18.628h-.5v.5h.5v-.5Zm16.436-2.424-.326-.38-.002.003.328.377Zm-.166-14.144-.286.41.002.001.284-.411Zm-8.8-6.44c3.948 0 7.17.494 9.683 1.46l.359-.933c-2.667-1.025-6.02-1.527-10.041-1.527v1Zm9.688 1.463c2.527.942 4.38 2.374 5.596 4.282l.844-.537c-1.352-2.12-3.395-3.677-6.091-4.682l-.35.937Zm5.596 4.282c1.22 1.913 1.848 4.38 1.848 7.435h1c0-3.188-.656-5.856-2.004-7.972l-.844.537Zm1.848 7.435c0 2.51-.455 4.57-1.335 6.204l.88.474c.98-1.818 1.455-4.053 1.455-6.678h-1Zm-1.334 6.202c-.895 1.64-2.062 2.965-3.501 3.981l.576.817c1.571-1.109 2.839-2.552 3.803-4.32l-.878-.478Zm-3.501 3.981a18.169 18.169 0 0 1-4.686 2.392l.32.947a19.176 19.176 0 0 0 4.942-2.522l-.576-.817Zm-4.953 3.126L82.565 74.26l.854-.52-13.315-21.815-.853.521ZM82.99 73.5h-6.573v1h6.574v-1Zm-6.142.247L64.962 53.493l-.862.506 11.886 20.254.863-.506Zm-12.318-20.5H54.437v1h10.094v-1Zm-10.594.5V74h1V53.746h-1Zm.5 19.753h-5.644v1h5.644v-1Zm-5.144.5V25.457h-1V74h1Zm-.5-48.043h13.115v-1H48.793v1Zm12.783 3.88h-7.139v1h7.139v-1Zm-7.639.5v18.628h1V30.338h-1Zm.5 19.128h7.703v-1h-7.703v1Zm7.703 0c4.014 0 7.07-.816 9.06-2.547l-.655-.754c-1.727 1.5-4.494 2.3-8.405 2.3v1Zm9.058-2.545c2.02-1.735 2.997-4.27 2.997-7.518h-1c0 3.04-.905 5.263-2.648 6.76l.651.758Zm2.997-7.518c0-3.397-1.03-5.92-3.205-7.417l-.567.823c1.81 1.248 2.772 3.395 2.772 6.594h1Zm-3.202-7.416c-2.095-1.46-5.263-2.148-9.417-2.148v1c4.08 0 7 .683 8.845 1.969l.572-.82ZM120.529 74l-.466.18.123.32h.343V74Zm-5.977-15.406.466-.181-.124-.32h-.342v.5Zm-19.457 0v-.5h-.343l-.123.32.466.18ZM89.152 74v.5h.343l.123-.32-.466-.18Zm-5.711 0-.466-.181-.266.681h.732V74Zm18.992-48.742v-.5h-.342l-.124.318.466.182Zm5.08 0 .466-.18-.123-.32h-.343v.5ZM126.372 74v.5h.73l-.263-.68-.467.18Zm-13.513-20.42v.5h.719l-.25-.674-.469.174Zm-5.678-15.307-.474.159.002.008.003.007.469-.174Zm-.664-1.959-.477.152.004.01.473-.161Zm-1.66-5.18.474-.157-.549-1.647-.411 1.686.486.119Zm-.731 2.723-.48-.14-.002.008.482.132Zm-.73 2.49.476.155.001-.004-.477-.15Zm-.631 1.926.468.177.003-.01.003-.008-.474-.159ZM96.988 53.58l-.468-.176-.255.676h.723v-.5Zm24.007 20.24-5.977-15.407-.932.362 5.977 15.406.932-.362Zm-6.443-15.726H95.095v1h19.457v-1Zm-19.923.32L88.685 73.82l.933.36 5.944-15.406-.933-.36ZM89.152 73.5H83.44v1h5.71v-1Zm-5.245.681 18.992-48.742-.932-.363-18.992 48.742.932.364Zm18.526-48.423h5.08v-1h-5.08v1Zm4.614-.32 18.859 48.742.933-.36-18.86-48.743-.932.361ZM126.372 73.5h-5.843v1h5.843v-1Zm-13.044-20.094L107.65 38.1l-.938.347 5.678 15.307.938-.348Zm-5.673-15.29c-.133-.401-.355-1.056-.665-1.963l-.946.323c.31.907.53 1.559.663 1.956l.948-.317Zm-.661-1.953-.897-2.822-.953.303c.31.974.609 1.914.896 2.822l.954-.303Zm-.897-2.822c-.31-.975-.566-1.764-.766-2.364l-.949.316c.199.595.452 1.378.762 2.35l.953-.302Zm-1.726-2.325c-.219.9-.461 1.8-.725 2.701l.96.28c.268-.914.513-1.829.737-2.744l-.972-.237Zm-.727 2.709c-.242.88-.484 1.704-.725 2.473l.954.3c.245-.782.491-1.617.735-2.508l-.964-.265Zm-.724 2.469a245.45 245.45 0 0 1-.629 1.921l.948.317c.178-.534.389-1.177.633-1.93l-.952-.308Zm-.623 1.903L96.52 53.403l.935.354 5.778-15.307-.936-.353Zm-5.31 15.983h15.872v-1H96.988v1ZM138.078 74v.5h.5V74h-.5Zm-5.644 0h-.5v.5h.5V74Zm0-48.543v-.5h-.5v.5h.5Zm27.027 0h.5v-.5h-.5v.5Zm0 4.98v.5h.5v-.5h-.5Zm-21.383 0v-.5h-.5v.5h.5Zm0 17.797h-.5v.5h.5v-.5Zm20.088 0h.5v-.5h-.5v.5Zm0 4.948v.5h.5v-.5h-.5Zm-20.088 0v-.5h-.5v.5h.5Zm0 20.318h-5.644v1h5.644v-1Zm-5.144.5V25.457h-1V74h1Zm-.5-48.043h27.027v-1h-27.027v1Zm26.527-.5v4.98h1v-4.98h-1Zm.5 4.48h-21.383v1h21.383v-1Zm-21.883.5v17.797h1V30.437h-1Zm.5 18.297h20.088v-1h-20.088v1Zm19.588-.5v4.948h1v-4.948h-1Zm.5 4.448h-20.088v1h20.088v-1Zm-20.588.5V74h1V53.182h-1ZM181.79 74v.5h.5V74h-.5Zm-5.678 0h-.5v.5h.5V74Zm0-43.563h.5v-.5h-.5v.5Zm-15.273 0h-.5v.5h.5v-.5Zm0-4.98v-.5h-.5v.5h.5Zm36.158 0h.5v-.5h-.5v.5Zm0 4.98v.5h.5v-.5h-.5Zm-15.207 0v-.5h-.5v.5h.5Zm0 43.063h-5.678v1h5.678v-1Zm-5.178.5V30.437h-1V74h1Zm-.5-44.063h-15.273v1h15.273v-1Zm-14.773.5v-4.98h-1v4.98h1Zm-.5-4.48h36.158v-1h-36.158v1Zm35.658-.5v4.98h1v-4.98h-1Zm.5 4.48H181.79v1h15.207v-1Zm-15.707.5V74h1V30.437h-1ZM203.655 74h-.5v.5h.5V74Zm0-48.543v-.5h-.5v.5h.5Zm5.644 0h.5v-.5h-.5v.5Zm0 48.543v.5h.5V74h-.5Zm-5.144 0V25.457h-1V74h1Zm-.5-48.043h5.644v-1h-5.644v1Zm5.144-.5V74h1V25.457h-1Zm.5 48.043h-5.644v1h5.644v-1Zm50.619.5v.5h.5V74h-.5Zm-6.508 0-.419.272.148.228h.271V74Zm-26.463-40.773.42-.273-.148-.227h-.272v.5Zm-.265 0v-.5h-.532l.033.53.499-.03Zm.232 3.718-.499.032.499-.032Zm.199 4.416-.499.014v.008l.499-.022Zm.1 32.639v.5h.5V74h-.5Zm-5.246 0h-.5v.5h.5V74Zm0-48.543v-.5h-.5v.5h.5Zm6.474 0 .42-.272-.148-.228h-.272v.5Zm26.364 40.64-.42.273.148.228h.272v-.5Zm.232 0v.5h.53l-.031-.528-.499.029Zm-.166-3.286-.499.023.499-.024Zm-.199-4.616-.5.014v.007l.5-.02Zm-.066-32.738v-.5h-.5v.5h.5Zm5.312 0h.5v-.5h-.5v.5Zm0 48.043h-6.508v1h6.508v-1Zm-6.088.228-26.463-40.774-.839.545 26.463 40.773.839-.544Zm-26.883-41.001h-.265v1h.265v-1Zm-.764.53c.066 1.085.144 2.325.232 3.72l.998-.063c-.088-1.395-.166-2.634-.232-3.718l-.998.061Zm.232 3.72c.088 1.366.154 2.832.199 4.398l.999-.028a121.81 121.81 0 0 0-.2-4.434l-.998.065Zm.199 4.406c.066 1.542.099 3.117.099 4.726h1c0-1.622-.033-3.212-.1-4.77l-.999.044Zm.099 4.726V74h1V46.11h-1Zm.5 27.391h-5.246v1h5.246v-1Zm-4.746.5V25.457h-1V74h1Zm-.5-48.043h6.474v-1h-6.474v1Zm6.055-.228 26.363 40.64.839-.543-26.363-40.641-.839.544Zm26.783 40.869h.232v-1h-.232v1Zm.731-.529c-.044-.772-.099-1.866-.165-3.282l-.999.047c.066 1.417.122 2.515.166 3.292l.998-.057Zm-.165-3.282a739.745 739.745 0 0 1-.199-4.612l-1 .04c.067 1.64.133 3.179.2 4.619l.999-.047Zm-.199-4.605c-.044-1.657-.066-3.19-.066-4.602h-1c0 1.422.022 2.965.066 4.629l1-.027Zm-.066-4.602V25.457h-1V53.58h1Zm-.5-27.623h5.312v-1h-5.312v1Zm4.812-.5V74h1V25.457h-1Zm33.82 23.11v-.5h-.5v.5h.5Zm16.967 0h.5v-.5h-.5v.5Zm0 23.54.16.474.34-.115v-.359h-.5Zm-7.869 1.926-.077-.494h-.001l.078.494Zm-21.782-2.39-.251.431.001.001.25-.432Zm-7.869-8.6-.451.216.001.001.45-.217Zm.266-26.463-.441-.235-.001.002.442.233Zm8.6-8.7.241.439-.241-.438Zm21.216-2.357-.103.49h.005l.098-.49Zm6.774 2.092.458.201.201-.459-.459-.2-.2.458Zm-2.158 4.914-.199.46.456.196.2-.455-.457-.2Zm-5.944-1.992-.125.484h.002l.123-.484Zm-16.867 1.627-.25-.433-.002.001.252.432Zm-6.475 6.94-.446-.225-.001.002.447.222Zm-.265 21.216-.459.2h.001l.458-.2Zm6.109 6.973-.257.429.257-.429Zm16.336 2.125.077.494.006-.001-.083-.493Zm4.283-.93.133.482.367-.101v-.38h-.5Zm0-14.875h.5v-.5h-.5v.5Zm-11.322 0h-.5v.5h.5v-.5Zm0-4.547h16.967v-1h-16.967v1Zm16.467-.5v23.541h1v-23.54h-1Zm.339 23.068a46.466 46.466 0 0 1-7.785 1.905l.154.988a47.439 47.439 0 0 0 7.952-1.946l-.321-.947Zm-7.786 1.905c-2.648.416-5.62.625-8.92.625v1c3.34 0 6.366-.212 9.075-.637l-.155-.988Zm-8.92.625c-4.981 0-9.151-.994-12.533-2.954l-.501.865c3.568 2.069 7.921 3.09 13.034 3.09v-1Zm-12.532-2.953c-3.364-1.963-5.919-4.753-7.67-8.385l-.901.434c1.835 3.806 4.525 6.748 8.068 8.815l.503-.864Zm-7.67-8.384c-1.754-3.66-2.64-8.02-2.64-13.099h-1c0 5.193.906 9.709 2.738 13.531l.902-.432Zm-2.64-13.099c0-4.958.972-9.258 2.897-12.915l-.884-.466c-2.015 3.825-3.013 8.29-3.013 13.381h1Zm2.896-12.913c1.946-3.654 4.743-6.484 8.4-8.496l-.483-.876c-3.825 2.105-6.761 5.075-8.799 8.902l.882.47Zm8.4-8.497c3.675-2.031 8.103-3.058 13.305-3.058v-1c-5.334 0-9.936 1.053-13.788 3.183l.483.875Zm13.305-3.058c2.669 0 5.191.251 7.567.753l.207-.979c-2.45-.517-5.042-.774-7.774-.774v1Zm7.572.754c2.403.48 4.627 1.168 6.672 2.06l.4-.917c-2.117-.923-4.409-1.63-6.876-2.124l-.196.98Zm6.414 1.4-2.158 4.914.915.402 2.159-4.914-.916-.402Zm-1.502 4.656c-1.82-.786-3.827-1.458-6.018-2.017l-.247.969c2.147.547 4.103 1.203 5.868 1.966l.397-.918Zm-6.017-2.017a27.131 27.131 0 0 0-6.799-.846v1c2.262 0 4.445.272 6.549.814l.25-.968Zm-6.799-.846c-4.031 0-7.519.834-10.443 2.524l.5.866c2.743-1.586 6.051-2.39 9.943-2.39v-1Zm-10.445 2.525c-2.897 1.688-5.122 4.075-6.669 7.147l.893.45c1.463-2.905 3.555-5.145 6.28-6.733l-.504-.864Zm-6.67 7.15c-1.525 3.07-2.277 6.692-2.277 10.846h1c0-4.035.73-7.497 2.172-10.402l-.895-.445Zm-2.277 10.846c0 4.104.661 7.705 2 10.791l.917-.398c-1.273-2.934-1.917-6.395-1.917-10.393h-1Zm2.001 10.792c1.347 3.083 3.453 5.487 6.31 7.202l.514-.858c-2.676-1.606-4.643-3.85-5.908-6.744l-.916.4Zm6.31 7.202c2.867 1.72 6.528 2.561 10.949 2.561v-1c-4.301 0-7.768-.819-10.435-2.419l-.514.858Zm10.949 2.561c2.208 0 4.116-.122 5.721-.37l-.153-.99c-1.539.24-3.394.36-5.568.36v1Zm5.727-.372a43.792 43.792 0 0 0 4.333-.94l-.266-.965a42.797 42.797 0 0 1-4.233.919l.166.986Zm4.7-1.423V53.613h-1v14.875h1Zm-.5-15.375h-11.322v1h11.322v-1Zm-10.822.5v-5.047h-1v5.047h1Zm69.759 14.842-.408-.288h-.001l.409.288Zm-28.388 3.951h-.5v.318l.288.135.212-.453Zm0-5.412.191-.462-.691-.286v.748h.5Zm6.076 1.926-.122.485.005.001.117-.486Zm13.679-.1.179.468.005-.003-.184-.465Zm3.819-2.822-.407-.29h-.001l.408.29Zm.232-8.6-.42.272.003.004.417-.276Zm-3.652-3.054-.242.437.007.004.235-.441Zm-6.906-2.955.167-.471-.167.47Zm-5.446-2.391-.245.436.005.002.24-.438Zm-6.375-6.84-.47.171.003.006.467-.177Zm1.162-11.654-.407-.29.407.29Zm5.479-4.25.193.461h.002l-.195-.461Zm15.24-.764-.108.488h.001l.107-.488Zm6.076 1.96.47.17.159-.438-.425-.19-.204.457Zm-1.759 4.847-.193.461.484.202.179-.492-.47-.171Zm-5.579-1.826-.121.485h.001l.12-.485Zm-11.322.199.194.46h.004l-.198-.46Zm-3.32 10.758-.424.266.004.005.42-.271Zm3.453 3.021-.246.436.008.004.238-.44Zm6.309 2.723-.172.47.172-.47Zm7.271 3.32-.254.431.004.002.25-.433Zm4.549 4.25-.425.263.001.003.424-.266Zm1.06 6.342c0 2.79-.696 5.143-2.066 7.083l.817.577c1.507-2.134 2.249-4.695 2.249-7.66h-1Zm-2.067 7.083c-1.355 1.927-3.267 3.41-5.759 4.441l.383.924c2.644-1.094 4.716-2.688 6.194-4.79l-.818-.575Zm-5.759 4.441c-2.494 1.032-5.447 1.556-8.873 1.556v1c3.525 0 6.614-.539 9.256-1.632l-.383-.924Zm-8.873 1.556a48.05 48.05 0 0 1-5.159-.263l-.107.995c1.657.179 3.413.268 5.266.268v-1Zm-5.159-.263a34.95 34.95 0 0 1-4.452-.752l-.235.972c1.397.338 2.923.596 4.58.775l.107-.995Zm-4.452-.752c-1.347-.326-2.52-.726-3.525-1.196l-.423.906c1.076.504 2.315.924 3.713 1.262l.235-.972Zm-3.236-.743v-5.412h-1v5.412h1Zm-.691-4.95c1.689.698 3.739 1.347 6.145 1.949l.243-.97c-2.375-.594-4.376-1.229-6.006-1.903l-.382.924Zm6.15 1.95c2.431.585 4.972.877 7.621.877v-1c-2.575 0-5.037-.283-7.387-.85l-.234.973Zm7.621.877c2.475 0 4.598-.326 6.354-.996l-.357-.934c-1.609.614-3.603.93-5.997.93v1Zm6.359-.998c1.753-.692 3.112-1.686 4.043-2.998l-.816-.578c-.796 1.123-1.983 2.01-3.594 2.646l.367.93Zm4.042-2.996c.953-1.336 1.421-2.924 1.421-4.74h-1c0 1.637-.418 3.015-1.235 4.158l.814.582Zm1.421-4.74c0-1.734-.382-3.22-1.179-4.426l-.834.55c.664 1.008 1.013 2.289 1.013 3.876h1Zm-1.176-4.422c-.792-1.225-2.088-2.293-3.837-3.225l-.47.883c1.66.884 2.799 1.852 3.467 2.885l.84-.543Zm-3.83-3.22c-1.716-.95-4.047-1.945-6.981-2.99l-.335.943c2.91 1.036 5.183 2.01 6.832 2.921l.484-.875Zm-6.981-2.99c-2.039-.723-3.828-1.51-5.372-2.357l-.481.876c1.599.879 3.44 1.686 5.518 2.424l.335-.943Zm-5.367-2.355c-1.537-.865-2.813-1.832-3.836-2.898l-.722.692c1.102 1.148 2.46 2.172 4.067 3.078l.491-.872Zm-3.836-2.898a10.76 10.76 0 0 1-2.317-3.683l-.935.354a11.744 11.744 0 0 0 2.53 4.021l.722-.693Zm-2.315-3.677c-.507-1.396-.767-3.007-.767-4.843h-1c0 1.928.272 3.66.827 5.185l.94-.342Zm-.767-4.843c0-2.502.63-4.61 1.867-6.35l-.815-.58c-1.375 1.934-2.052 4.253-2.052 6.93h1Zm1.866-6.35c1.269-1.776 3.017-3.137 5.265-4.079l-.386-.922c-2.401 1.006-4.305 2.478-5.693 4.42l.814.581Zm5.267-4.08c2.274-.965 4.895-1.454 7.873-1.454v-1c-3.087 0-5.845.507-8.264 1.534l.391.92Zm7.873-1.454c2.559 0 4.913.24 7.064.718l.217-.976c-2.232-.496-4.66-.742-7.281-.742v1Zm7.065.719c2.184.48 4.177 1.123 5.98 1.927l.407-.913c-1.872-.835-3.93-1.498-6.172-1.991l-.215.977Zm5.713 1.3-1.759 4.847.94.342 1.759-4.848-.94-.341Zm-1.097 4.556a38.76 38.76 0 0 0-5.651-1.85l-.24.971a37.824 37.824 0 0 1 5.506 1.802l.385-.923Zm-5.649-1.85a25.325 25.325 0 0 0-6.165-.745v1c2.042 0 4.015.24 5.922.716l.243-.97Zm-6.165-.745c-2.127 0-3.959.317-5.477.97l.396.92c1.359-.586 3.048-.89 5.081-.89v-1Zm-5.473.97c-1.492.629-2.659 1.538-3.473 2.735l.827.563c.69-1.016 1.693-1.812 3.034-2.377l-.388-.922Zm-3.473 2.735c-.817 1.201-1.216 2.62-1.216 4.233h1c0-1.442.354-2.658 1.043-3.67l-.827-.563Zm-1.216 4.233c0 1.772.369 3.288 1.139 4.516l.847-.532c-.646-1.03-.986-2.348-.986-3.984h-1Zm1.143 4.521c.787 1.216 2.008 2.274 3.628 3.186l.49-.871c-1.524-.86-2.604-1.816-3.278-2.858l-.84.543Zm3.635 3.19c1.623.88 3.751 1.796 6.375 2.753l.343-.94c-2.6-.947-4.678-1.845-6.242-2.692l-.476.879Zm6.375 2.753c2.836 1.033 5.23 2.127 7.189 3.281l.508-.862c-2.025-1.192-4.479-2.311-7.354-3.359l-.343.94Zm7.193 3.283c1.932 1.117 3.383 2.479 4.374 4.08l.85-.526c-1.09-1.763-2.672-3.234-4.724-4.42l-.5.866Zm4.375 4.083c.977 1.56 1.484 3.574 1.484 6.076h1c0-2.633-.533-4.846-1.636-6.607l-.848.53ZM389.811 74v.5h.5V74h-.5Zm-5.677 0h-.5v.5h.5V74Zm0-43.563h.5v-.5h-.5v.5Zm-15.274 0h-.5v.5h.5v-.5Zm0-4.98v-.5h-.5v.5h.5Zm36.158 0h.5v-.5h-.5v.5Zm0 4.98v.5h.5v-.5h-.5Zm-15.207 0v-.5h-.5v.5h.5Zm0 43.063h-5.677v1h5.677v-1Zm-5.177.5V30.437h-1V74h1Zm-.5-44.063H368.86v1h15.274v-1Zm-14.774.5v-4.98h-1v4.98h1Zm-.5-4.48h36.158v-1H368.86v1Zm35.658-.5v4.98h1v-4.98h-1Zm.5 4.48h-15.207v1h15.207v-1Zm-15.707.5V74h1V30.437h-1ZM452.35 59.89l.477.148h.001l-.478-.148Zm-4.25 7.902-.381-.324.381.324Zm-6.939 5.08.198.46-.198-.46Zm-19.491 0-.197.46h.002l.195-.46Zm-6.972-5.113-.385.32.002.001.383-.321Zm-4.151-7.936-.479.142.001.003.478-.145Zm8.534-32.008-.265-.424h-.001l.266.424Zm24.669-.033-.266.424h.002l.264-.424Zm7.471 8.7-.456.204.002.004.454-.209Zm-28.953 30.845-.281.414.002.001.279-.415Zm18.494 0-.281-.413h-.001l.282.413Zm3.121-32.34-.402.297.002.003.4-.3Zm-21.549-2.888-.276-.417.276.417Zm-5.445 6.906-.464-.186-.001.002.465.184Zm36.389 10.658c0 3.699-.471 7.057-1.406 10.079l.956.295c.969-3.131 1.45-6.59 1.45-10.374h-1Zm-1.405 10.078c-.934 2.997-2.32 5.57-4.154 7.727l.762.648c1.929-2.27 3.377-4.965 4.346-8.078l-.954-.297Zm-4.154 7.727c-1.807 2.13-4.057 3.779-6.757 4.945l.397.918c2.834-1.224 5.211-2.963 7.122-5.215l-.762-.647Zm-6.757 4.945c-2.692 1.163-5.832 1.752-9.43 1.752v1c3.706 0 6.986-.606 9.827-1.834l-.397-.918Zm-9.43 1.752c-3.711 0-6.929-.59-9.666-1.753l-.391.92c2.885 1.227 6.242 1.833 10.057 1.833v-1Zm-9.665-1.752c-2.72-1.167-4.98-2.825-6.786-4.976l-.766.643c1.912 2.277 4.301 4.027 7.158 5.252l.394-.92Zm-6.785-4.974c-1.789-2.156-3.143-4.74-4.056-7.76l-.957.289c.946 3.133 2.359 5.84 4.244 8.11l.769-.638Zm-4.055-7.757c-.892-3.024-1.341-6.385-1.341-10.085h-1c0 3.78.459 7.238 1.382 10.368l.959-.283Zm-1.341-10.085c0-4.904.81-9.183 2.415-12.849l-.916-.4c-1.671 3.816-2.499 8.236-2.499 13.249h1Zm2.415-12.849c1.6-3.653 4.014-6.484 7.245-8.509l-.531-.847c-3.409 2.136-5.953 5.127-7.63 8.955l.916.401Zm7.244-8.508c3.244-2.02 7.329-3.046 12.286-3.046v-1c-5.092 0-9.374 1.055-12.815 3.197l.529.849Zm12.286-3.046c4.732 0 8.674 1.014 11.853 3.012l.532-.847c-3.372-2.12-7.51-3.165-12.385-3.165v1Zm11.855 3.012c3.209 2.004 5.635 4.825 7.279 8.48l.912-.41c-1.72-3.826-4.275-6.804-7.662-8.918l-.529.848Zm7.281 8.484c1.668 3.64 2.511 7.96 2.511 12.973h1c0-5.124-.862-9.592-2.602-13.39l-.909.417Zm-36.138 12.973c0 4.163.593 7.791 1.794 10.873l.932-.363c-1.145-2.94-1.726-6.438-1.726-10.51h-1Zm1.794 10.873c1.206 3.094 3.059 5.504 5.564 7.205l.562-.828c-2.32-1.575-4.053-3.813-5.194-6.74l-.932.363Zm5.566 7.206c2.537 1.707 5.73 2.542 9.543 2.542v-1c-3.669 0-6.652-.803-8.985-2.372l-.558.83Zm9.543 2.542c3.834 0 7.017-.835 9.513-2.544l-.565-.825c-2.286 1.566-5.256 2.37-8.948 2.37v1Zm9.511-2.543c2.506-1.702 4.348-4.112 5.532-7.208l-.934-.357c-1.119 2.925-2.84 5.163-5.16 6.737l.562.828Zm5.532-7.208c1.178-3.08 1.759-6.708 1.759-10.87h-1c0 4.072-.569 7.573-1.693 10.513l.934.357Zm1.759-10.87c0-6.328-1.329-11.34-4.05-14.975l-.801.599c2.547 3.403 3.851 8.175 3.851 14.376h1Zm-4.048-14.972c-2.731-3.703-6.986-5.516-12.655-5.516v1c5.444 0 9.357 1.728 11.85 5.11l.805-.594Zm-12.655-5.516c-3.833 0-7.036.823-9.573 2.507l.553.833c2.332-1.548 5.328-2.34 9.02-2.34v-1Zm-9.573 2.507c-2.528 1.678-4.404 4.065-5.633 7.137l.928.372c1.162-2.904 2.916-5.122 5.258-6.676l-.553-.833Zm-5.634 7.139c-1.202 3.04-1.795 6.658-1.795 10.842h1c0-4.094.581-7.581 1.725-10.474l-.93-.368Zm70.475-11.869-.18.467.005.002.175-.469Zm6.375 18.627.439.24.001-.003-.44-.237Zm-8.467 6.607-.16-.473-.593.2.326.534.427-.26ZM498.121 74v.5h.891l-.464-.76-.427.26Zm-6.574 0-.431.253.145.247h.286V74ZM479.66 53.746l.432-.253-.145-.247h-.287v.5Zm-10.093 0v-.5h-.5v.5h.5Zm0 20.254v.5h.5V74h-.5Zm-5.645 0h-.5v.5h.5V74Zm0-48.543v-.5h-.5v.5h.5Zm5.645 4.88v-.5h-.5v.5h.5Zm0 18.628h-.5v.5h.5v-.5Zm16.435-2.424-.326-.38-.002.003.328.377Zm-.166-14.144-.286.41.002.001.284-.411Zm-8.799-6.44c3.948 0 7.169.494 9.682 1.46l.359-.933c-2.666-1.025-6.02-1.527-10.041-1.527v1Zm9.687 1.463c2.528.942 4.381 2.374 5.597 4.282l.843-.537c-1.352-2.12-3.395-3.677-6.091-4.682l-.349.937Zm5.597 4.282c1.219 1.913 1.847 4.38 1.847 7.435h1c0-3.188-.655-5.856-2.004-7.972l-.843.537Zm1.847 7.435c0 2.51-.454 4.57-1.335 6.204l.881.474c.979-1.818 1.454-4.053 1.454-6.678h-1Zm-1.333 6.202c-.895 1.64-2.063 2.965-3.502 3.981l.577.817c1.571-1.109 2.838-2.552 3.803-4.32l-.878-.478Zm-3.502 3.981a18.183 18.183 0 0 1-4.686 2.392l.32.947a19.186 19.186 0 0 0 4.943-2.522l-.577-.817Zm-4.953 3.126 13.314 21.814.854-.52-13.314-21.815-.854.521ZM498.121 73.5h-6.574v1h6.574v-1Zm-6.143.247-11.886-20.254-.863.506 11.887 20.254.862-.506Zm-12.318-20.5h-10.093v1h10.093v-1Zm-10.593.5V74h1V53.746h-1Zm.5 19.753h-5.645v1h5.645v-1Zm-5.145.5V25.457h-1V74h1Zm-.5-48.043h13.115v-1h-13.115v1Zm12.783 3.88h-7.138v1h7.138v-1Zm-7.638.5v18.628h1V30.338h-1Zm.5 19.128h7.703v-1h-7.703v1Zm7.703 0c4.013 0 7.069-.816 9.06-2.547l-.656-.754c-1.727 1.5-4.494 2.3-8.404 2.3v1Zm9.058-2.545c2.02-1.735 2.996-4.27 2.996-7.518h-1c0 3.04-.905 5.263-2.648 6.76l.652.758Zm2.996-7.518c0-3.397-1.031-5.92-3.204-7.417l-.568.823c1.811 1.248 2.772 3.395 2.772 6.594h1Zm-3.202-7.416c-2.095-1.46-5.263-2.148-9.417-2.148v1c4.08 0 7 .683 8.845 1.969l.572-.82ZM505.211 74h-.5v.5h.5V74Zm0-48.543v-.5h-.5v.5h.5Zm5.644 0h.5v-.5h-.5v.5Zm0 48.543v.5h.5V74h-.5Zm-5.144 0V25.457h-1V74h1Zm-.5-48.043h5.644v-1h-5.644v1Zm5.144-.5V74h1V25.457h-1Zm.5 48.043h-5.644v1h5.644v-1Zm39.695.5v.5h.5V74h-.5Zm-27.027 0h-.5v.5h.5V74Zm0-48.543v-.5h-.5v.5h.5Zm27.027 0h.5v-.5h-.5v.5Zm0 4.98v.5h.5v-.5h-.5Zm-21.383 0v-.5h-.5v.5h.5Zm0 15.706h-.5v.5h.5v-.5Zm20.155 0h.5v-.5h-.5v.5Zm0 4.914v.5h.5v-.5h-.5Zm-20.155 0v-.5h-.5v.5h.5Zm0 17.962h-.5v.5h.5v-.5Zm21.383 0h.5v-.5h-.5v.5Zm0 4.481h-27.027v1h27.027v-1Zm-26.527.5V25.457h-1V74h1Zm-.5-48.043h27.027v-1h-27.027v1Zm26.527-.5v4.98h1v-4.98h-1Zm.5 4.48h-21.383v1h21.383v-1Zm-21.883.5v15.706h1V30.437h-1Zm.5 16.206h20.155v-1h-20.155v1Zm19.655-.5v4.914h1v-4.914h-1Zm.5 4.414h-20.155v1h20.155v-1Zm-20.655.5v17.962h1V51.057h-1Zm.5 18.462h21.383v-1h-21.383v1Zm20.883-.5V74h1v-4.98h-1Zm35.812-.564-.408-.288.408.288Zm-28.388 3.951h-.5v.318l.288.135.212-.453Zm0-5.412.191-.462-.691-.286v.748h.5Zm6.076 1.926-.121.485.004.001.117-.486Zm13.68-.1.178.468.005-.003-.183-.465Zm3.818-2.822-.407-.29h-.001l.408.29Zm.232-8.6-.419.272.002.004.417-.276Zm-3.652-3.054-.242.437.007.004.235-.441Zm-6.906-2.955.168-.471h-.001l-.167.47Zm-5.445-2.391-.246.436.005.002.241-.438Zm-6.375-6.84-.47.171.002.006.468-.177Zm1.162-11.654-.407-.29h-.001l.408.29Zm5.478-4.25.193.461h.003l-.196-.461Zm15.24-.764-.108.488h.001l.107-.488Zm6.077 1.96.47.17.158-.438-.425-.19-.203.457Zm-1.76 4.847-.193.461.484.202.179-.492-.47-.171Zm-5.578-1.826-.122.485h.002l.12-.485Zm-11.323.199.195.46h.003l-.198-.46Zm-3.32 10.758-.423.266.003.005.42-.271Zm3.453 3.021-.245.436.007.004.238-.44Zm6.309 2.723-.171.47.171-.47Zm7.271 3.32-.253.431.003.002.25-.433Zm4.549 4.25-.425.263.001.003.424-.266Zm1.061 6.342c0 2.79-.697 5.143-2.067 7.083l.817.577c1.507-2.134 2.25-4.695 2.25-7.66h-1Zm-2.067 7.083c-1.356 1.927-3.268 3.41-5.759 4.441l.382.924c2.644-1.094 4.716-2.688 6.194-4.79l-.817-.575Zm-5.759 4.441c-2.494 1.032-5.448 1.556-8.874 1.556v1c3.525 0 6.615-.539 9.256-1.632l-.382-.924Zm-8.874 1.556c-1.821 0-3.54-.088-5.159-.263l-.107.995c1.658.179 3.413.268 5.266.268v-1Zm-5.159-.263a34.934 34.934 0 0 1-4.451-.752l-.236.972c1.397.338 2.924.596 4.58.775l.107-.995Zm-4.451-.752c-1.347-.326-2.521-.726-3.525-1.196l-.424.906c1.076.504 2.316.924 3.713 1.262l.236-.972Zm-3.237-.743v-5.412h-1v5.412h1Zm-.691-4.95c1.689.698 3.739 1.347 6.146 1.949l.242-.97c-2.375-.594-4.375-1.229-6.006-1.903l-.382.924Zm6.15 1.95c2.431.585 4.972.877 7.621.877v-1c-2.575 0-5.037-.283-7.387-.85l-.234.973Zm7.621.877c2.476 0 4.599-.326 6.354-.996l-.357-.934c-1.609.614-3.603.93-5.997.93v1Zm6.359-.998c1.753-.692 3.113-1.686 4.043-2.998l-.816-.578c-.796 1.123-1.983 2.01-3.594 2.646l.367.93Zm4.042-2.996c.954-1.336 1.421-2.924 1.421-4.74h-1c0 1.637-.418 3.015-1.235 4.158l.814.582Zm1.421-4.74c0-1.734-.382-3.22-1.178-4.426l-.835.55c.665 1.008 1.013 2.289 1.013 3.876h1Zm-1.176-4.422c-.792-1.225-2.088-2.293-3.837-3.225l-.47.883c1.66.884 2.799 1.852 3.468 2.885l.839-.543Zm-3.83-3.22c-1.716-.95-4.046-1.945-6.98-2.99l-.336.943c2.91 1.036 5.184 2.01 6.832 2.921l.484-.875Zm-6.981-2.99c-2.038-.723-3.828-1.51-5.372-2.357l-.481.876c1.599.879 3.44 1.686 5.519 2.424l.334-.943Zm-5.367-2.355c-1.536-.865-2.813-1.832-3.836-2.898l-.721.692c1.101 1.148 2.459 2.172 4.066 3.078l.491-.872Zm-3.836-2.898a10.76 10.76 0 0 1-2.317-3.683l-.935.354a11.761 11.761 0 0 0 2.531 4.021l.721-.693Zm-2.315-3.677c-.507-1.396-.766-3.007-.766-4.843h-1c0 1.928.272 3.66.827 5.185l.939-.342Zm-.766-4.843c0-2.502.629-4.61 1.866-6.35l-.815-.58c-1.375 1.934-2.051 4.253-2.051 6.93h1Zm1.866-6.35c1.268-1.776 3.017-3.137 5.264-4.079l-.386-.922c-2.401 1.006-4.305 2.478-5.692 4.42l.814.581Zm5.267-4.08c2.274-.965 4.895-1.454 7.873-1.454v-1c-3.088 0-5.845.507-8.264 1.534l.391.92Zm7.873-1.454c2.558 0 4.912.24 7.063.718l.217-.976c-2.232-.496-4.66-.742-7.28-.742v1Zm7.064.719c2.185.48 4.177 1.123 5.98 1.927l.407-.913c-1.872-.835-3.93-1.498-6.172-1.991l-.215.977Zm5.714 1.3-1.76 4.847.94.342 1.76-4.848-.94-.341Zm-1.097 4.556a38.8 38.8 0 0 0-5.651-1.85l-.24.971a37.77 37.77 0 0 1 5.505 1.802l.386-.923Zm-5.65-1.85a25.323 25.323 0 0 0-6.164-.745v1c2.041 0 4.015.24 5.921.716l.243-.97Zm-6.164-.745c-2.128 0-3.959.317-5.477.97l.395.92c1.36-.586 3.048-.89 5.082-.89v-1Zm-5.474.97c-1.492.629-2.658 1.538-3.473 2.735l.827.563c.691-1.016 1.693-1.812 3.035-2.377l-.389-.922Zm-3.473 2.735c-.817 1.201-1.215 2.62-1.215 4.233h1c0-1.442.353-2.658 1.042-3.67l-.827-.563Zm-1.215 4.233c0 1.772.368 3.288 1.139 4.516l.847-.532c-.647-1.03-.986-2.348-.986-3.984h-1Zm1.142 4.521c.787 1.216 2.009 2.274 3.628 3.186l.491-.871c-1.524-.86-2.605-1.816-3.279-2.858l-.84.543Zm3.635 3.19c1.624.88 3.751 1.796 6.376 2.753l.342-.94c-2.6-.947-4.678-1.845-6.242-2.692l-.476.879Zm6.376 2.753c2.835 1.033 5.229 2.127 7.189 3.281l.507-.862c-2.025-1.192-4.478-2.311-7.354-3.359l-.342.94Zm7.192 3.283c1.933 1.117 3.384 2.479 4.374 4.08l.85-.526c-1.09-1.763-2.672-3.234-4.724-4.42l-.5.866Zm4.375 4.083c.978 1.56 1.485 3.574 1.485 6.076h1c0-2.633-.534-4.846-1.637-6.607l-.848.53ZM644.7 74l-.466.18.123.32h.343V74Zm-5.977-15.406.466-.181-.123-.32h-.343v.5Zm-19.457 0v-.5h-.343l-.123.32.466.18ZM613.323 74v.5h.343l.123-.32-.466-.18Zm-5.711 0-.466-.181-.266.681h.732V74Zm18.992-48.742v-.5h-.342l-.124.318.466.182Zm5.08 0 .466-.18-.123-.32h-.343v.5ZM650.544 74v.5h.729l-.263-.68-.466.18ZM637.03 53.58v.5h.719l-.25-.674-.469.174Zm-5.678-15.307-.474.159.002.008.003.007.469-.174Zm-.664-1.959-.477.152.004.01.473-.161Zm-1.66-5.18.474-.157-.549-1.647-.411 1.686.486.119Zm-.731 2.723-.48-.14-.002.008.482.132Zm-.73 2.49.476.155.001-.004-.477-.15Zm-.631 1.926.468.177.003-.01.003-.008-.474-.159Zm-5.777 15.307-.468-.176-.255.676h.723v-.5Zm24.007 20.24-5.977-15.407-.932.362 5.977 15.406.932-.362Zm-6.443-15.726h-19.457v1h19.457v-1Zm-19.923.32-5.944 15.406.933.36 5.944-15.406-.933-.36ZM613.323 73.5h-5.711v1h5.711v-1Zm-5.245.681L627.07 25.44l-.932-.363-18.992 48.742.932.364Zm18.526-48.423h5.08v-1h-5.08v1Zm4.614-.32 18.859 48.742.933-.36-18.86-48.743-.932.361ZM650.544 73.5H644.7v1h5.844v-1Zm-13.045-20.094L631.821 38.1l-.938.347 5.678 15.307.938-.348Zm-5.673-15.29c-.133-.401-.355-1.056-.665-1.963l-.946.323c.31.907.531 1.559.663 1.956l.948-.317Zm-.661-1.953-.897-2.822-.953.303c.31.974.609 1.914.896 2.822l.954-.303Zm-.897-2.822c-.31-.975-.566-1.764-.766-2.364l-.948.316c.198.595.452 1.378.761 2.35l.953-.302Zm-1.726-2.325c-.219.9-.461 1.8-.724 2.701l.959.28c.268-.914.513-1.829.737-2.744l-.972-.237Zm-.727 2.709c-.242.88-.484 1.704-.725 2.473l.954.3c.245-.782.491-1.617.736-2.508l-.965-.265Zm-.724 2.469a245.45 245.45 0 0 1-.629 1.921l.948.317c.178-.534.389-1.177.633-1.93l-.952-.308Zm-.623 1.903-5.777 15.306.936.354 5.777-15.307-.936-.353Zm-5.309 15.983h15.871v-1h-15.871v1ZM694.555 74v.5h.5V74h-.5Zm-6.508 0-.419.272.148.228h.271V74Zm-26.463-40.773.42-.273-.148-.227h-.272v.5Zm-.265 0v-.5h-.532l.033.53.499-.03Zm.232 3.718-.499.032.499-.032Zm.199 4.416-.5.014.001.008.499-.022Zm.1 32.639v.5h.5V74h-.5Zm-5.246 0h-.5v.5h.5V74Zm0-48.543v-.5h-.5v.5h.5Zm6.474 0 .42-.272-.148-.228h-.272v.5Zm26.364 40.64-.42.273.148.228h.272v-.5Zm.232 0v.5h.529l-.03-.528-.499.029Zm-.166-3.286-.499.023.499-.024Zm-.199-4.616-.5.014v.007l.5-.02Zm-.067-32.738v-.5h-.5v.5h.5Zm5.313 0h.5v-.5h-.5v.5Zm0 48.043h-6.508v1h6.508v-1Zm-6.088.228-26.463-40.774-.839.545 26.463 40.773.839-.544Zm-26.883-41.001h-.265v1h.265v-1Zm-.764.53c.066 1.085.143 2.325.232 3.72l.998-.063a1263.11 1263.11 0 0 1-.232-3.718l-.998.061Zm.232 3.72c.088 1.366.154 2.832.198 4.398l1-.028a121.81 121.81 0 0 0-.2-4.434l-.998.065Zm.199 4.406c.066 1.542.099 3.117.099 4.726h1c0-1.622-.033-3.212-.1-4.77l-.999.044Zm.099 4.726V74h1V46.11h-1Zm.5 27.391h-5.246v1h5.246v-1Zm-4.746.5V25.457h-1V74h1Zm-.5-48.043h6.474v-1h-6.474v1Zm6.055-.228 26.363 40.64.839-.543-26.363-40.641-.839.544Zm26.783 40.869h.232v-1h-.232v1Zm.731-.529c-.044-.772-.099-1.866-.165-3.282l-.999.047c.066 1.417.121 2.515.166 3.292l.998-.057Zm-.165-3.282a821.626 821.626 0 0 1-.2-4.612l-.999.04c.067 1.64.133 3.179.2 4.619l.999-.047Zm-.199-4.605c-.045-1.657-.067-3.19-.067-4.602h-1c0 1.422.023 2.965.067 4.629l1-.027Zm-.067-4.602V25.457h-1V53.58h1Zm-.5-27.623h5.313v-1h-5.313v1Zm4.813-.5V74h1V25.457h-1Zm48.629 37.52.438.239.001-.001-.439-.238Zm-8.666 8.267.219.45.001-.001-.22-.449ZM707.123 74h-.5v.5h.5V74Zm0-48.543v-.5h-.5v.5h.5Zm27.393 2.723-.227.445.002.001.225-.446Zm8.234 8.002-.439.238.001.004.438-.242Zm-5.213 2.49-.446.226.002.003.444-.23Zm-6.375-6.309-.224.447.005.003.219-.45Zm-18.394-2.091v-.5h-.5v.5h.5Zm0 38.88h-.5v.5h.5v-.5Zm21.914-4.947-.35-.357-.002.001.352.356Zm10.49-14.941c0 5.409-.986 9.892-2.928 13.474l.879.477c2.042-3.767 3.049-8.426 3.049-13.951h-1Zm-2.927 13.473c-1.942 3.56-4.754 6.244-8.448 8.058l.441.898c3.876-1.904 6.842-4.733 8.884-8.477l-.877-.479Zm-8.447 8.058c-3.678 1.796-8.17 2.705-13.493 2.705v1c5.434 0 10.084-.928 13.932-2.807l-.439-.898ZM720.305 73.5h-13.182v1h13.182v-1Zm-12.682.5V25.457h-1V74h1Zm-.5-48.043h14.643v-1h-14.643v1Zm14.643 0c4.875 0 9.044.896 12.523 2.668l.453-.89c-3.648-1.86-7.98-2.778-12.976-2.778v1Zm12.525 2.67c3.472 1.746 6.142 4.34 8.02 7.793l.878-.477c-1.974-3.63-4.793-6.37-8.449-8.21l-.449.893Zm8.021 7.797c1.897 3.427 2.86 7.698 2.86 12.84h1c0-5.263-.985-9.712-2.985-13.325l-.875.485Zm-2.084 13.039c0-4.413-.738-8.095-2.247-11.02l-.888.458c1.413 2.741 2.135 6.253 2.135 10.562h1Zm-2.245-11.017c-1.487-2.93-3.691-5.111-6.602-6.532l-.438.899c2.712 1.323 4.758 3.347 6.148 6.085l.892-.453Zm-6.597-6.53c-2.876-1.438-6.378-2.145-10.484-2.145v1c3.996 0 7.334.688 10.036 2.04l.448-.895Zm-10.484-2.145h-8.134v1h8.134v-1Zm-8.634.5v38.881h1v-38.88h-1Zm.5 39.381h6.873v-1h-6.873v1Zm6.873 0c6.76 0 11.922-1.668 15.392-5.091l-.703-.712c-3.215 3.173-8.08 4.803-14.689 4.803v1Zm15.391-5.09c3.492-3.424 5.196-8.488 5.196-15.1h-1c0 6.45-1.66 11.213-4.896 14.386l.7.714Zm51.249-33.427.196.46.002-.001-.198-.46Zm-5.446 3.984-.379-.326.379.326Zm-2.722 25.201-.462.194.002.004.46-.198Zm5.71 6.94-.272.42h.002l.27-.42Zm15.639 1.925.092.492h.004l-.096-.492Zm5.611-1.394h.5v-.675l-.645.197.145.478Zm0 4.914.176.468.324-.121v-.347h-.5Zm-5.578 1.461-.078-.494-.006.001.084.493Zm-19.324-2.557-.265.425.004.002.261-.427Zm-7.437-8.699-.458.2.001.003.457-.203Zm-.93-23.308-.473-.162-.001.002.474.16Zm4.516-7.903-.372-.334-.002.002.374.332Zm7.304-5.113.192.462.002-.001-.194-.461Zm17.067-1.096-.105.49.105-.49Zm6.175 2.092.453.213.209-.444-.44-.217-.222.448Zm-2.257 4.781-.208.455.449.205.211-.446-.452-.214Zm-5.114-1.826-.139.48.007.002.132-.482Zm-5.976-1.297c-2.737 0-5.219.475-7.437 1.436l.397.918c2.076-.9 4.42-1.354 7.04-1.354v-1Zm-7.435 1.435a15.222 15.222 0 0 0-5.628 4.118l.758.652a14.218 14.218 0 0 1 5.263-3.85l-.393-.92Zm-5.628 4.118c-1.532 1.784-2.702 3.936-3.516 6.447l.951.309c.779-2.403 1.889-4.434 3.323-6.104l-.758-.652Zm-3.516 6.447c-.816 2.516-1.22 5.336-1.22 8.455h1c0-3.034.393-5.748 1.171-8.146l-.951-.309Zm-1.22 8.455c0 4.124.639 7.734 1.931 10.819l.923-.387c-1.231-2.936-1.854-6.41-1.854-10.432h-1Zm1.933 10.823c1.32 3.071 3.285 5.465 5.898 7.161l.545-.839c-2.434-1.58-4.276-3.812-5.524-6.717l-.919.395Zm5.9 7.162c2.645 1.702 5.921 2.537 9.8 2.537v-1c-3.736 0-6.813-.803-9.259-2.378l-.541.841Zm9.8 2.537c2.196 0 4.263-.18 6.201-.54l-.183-.983c-1.87.348-3.876.523-6.018.523v1Zm6.205-.54a56.675 56.675 0 0 0 5.661-1.408l-.291-.956a55.599 55.599 0 0 1-5.562 1.382l.192.981Zm5.015-1.886v4.914h1v-4.914h-1Zm.325 4.446a28.17 28.17 0 0 1-5.481 1.435l.157.988c1.98-.315 3.872-.81 5.675-1.487l-.351-.936Zm-5.487 1.436c-1.912.326-4.196.491-6.855.491v1c2.697 0 5.04-.167 7.023-.505l-.168-.986Zm-6.855.491c-4.868 0-8.9-1.004-12.123-2.98l-.523.852c3.417 2.096 7.642 3.128 12.646 3.128v-1Zm-12.12-2.979c-3.209-2.003-5.623-4.823-7.245-8.478l-.914.406c1.698 3.827 4.242 6.806 7.629 8.92l.53-.848Zm-7.244-8.475c-1.605-3.665-2.415-8.01-2.415-13.048h-1c0 5.144.827 9.631 2.499 13.449l.916-.401Zm-2.415-13.048c0-3.628.502-6.927 1.501-9.901l-.948-.319c-1.038 3.091-1.553 6.5-1.553 10.22h1Zm1.5-9.9c1.021-2.996 2.494-5.571 4.416-7.73l-.747-.665c-2.018 2.268-3.555 4.961-4.615 8.073l.946.323Zm4.414-7.728c1.94-2.156 4.313-3.818 7.125-4.986l-.384-.924c-2.943 1.223-5.44 2.97-7.484 5.24l.743.67Zm7.127-4.987c2.828-1.187 6.08-1.787 9.767-1.787v-1c-3.795 0-7.183.617-10.154 1.865l.387.922Zm9.767-1.787c2.424 0 4.757.24 7.001.72l.209-.979a34.432 34.432 0 0 0-7.21-.741v1Zm7.001.72c2.245.479 4.264 1.163 6.059 2.05l.443-.896c-1.879-.928-3.978-1.638-6.293-2.133l-.209.978Zm5.828 1.389-2.257 4.78.904.428 2.258-4.781-.905-.427Zm-1.597 4.54c-1.577-.721-3.308-1.339-5.19-1.854l-.264.964c1.837.503 3.516 1.103 5.038 1.799l.416-.91Zm-5.183-1.852c-1.887-.546-3.927-.817-6.115-.817v1c2.106 0 4.051.26 5.837.777l.278-.96Zm55.959 29.832.477.148-.477-.148Zm-4.25 7.902-.381-.324h-.001l.382.324Zm-6.94 5.08.199.46-.199-.46Zm-19.49 0-.197.46h.001l.196-.46Zm-6.973-5.113-.384.32.002.001.382-.321Zm-4.15-7.936-.48.142.001.003.479-.145Zm8.533-32.008-.264-.424h-.001l.265.424Zm24.67-.033-.266.424h.001l.265-.424Zm7.471 8.7-.456.204.001.004.455-.209Zm-28.953 30.845-.281.414.002.001.279-.415Zm18.494 0-.281-.413h-.002l.283.413Zm3.121-32.34-.402.297.002.003.4-.3Zm-21.549-2.888-.276-.417.276.417Zm-5.445 6.906-.464-.186-.001.002.465.184Zm36.388 10.658c0 3.699-.47 7.057-1.405 10.079l.955.295c.969-3.131 1.45-6.59 1.45-10.374h-1Zm-1.405 10.078c-.933 2.997-2.32 5.57-4.153 7.727l.762.648c1.929-2.27 3.376-4.965 4.346-8.078l-.955-.297Zm-4.154 7.727c-1.807 2.13-4.056 3.779-6.756 4.945l.397.918c2.834-1.224 5.21-2.963 7.122-5.215l-.763-.647Zm-6.756 4.945c-2.693 1.163-5.832 1.752-9.431 1.752v1c3.707 0 6.986-.606 9.828-1.834l-.397-.918Zm-9.431 1.752c-3.711 0-6.929-.59-9.665-1.753l-.392.92c2.886 1.227 6.242 1.833 10.057 1.833v-1Zm-9.664-1.752c-2.721-1.167-4.98-2.825-6.787-4.976l-.765.643c1.912 2.277 4.301 4.027 7.158 5.252l.394-.92Zm-6.785-4.974c-1.79-2.156-3.144-4.74-4.056-7.76l-.958.289c.947 3.133 2.36 5.84 4.245 8.11l.769-.638Zm-4.055-7.757c-.892-3.024-1.341-6.385-1.341-10.085h-1c0 3.78.458 7.238 1.381 10.368l.96-.283Zm-1.341-10.085c0-4.904.81-9.183 2.415-12.849l-.916-.4c-1.671 3.816-2.499 8.236-2.499 13.249h1Zm2.415-12.849c1.599-3.653 4.013-6.484 7.245-8.509l-.531-.847c-3.409 2.136-5.954 5.127-7.63 8.955l.916.401Zm7.243-8.508c3.244-2.02 7.33-3.046 12.287-3.046v-1c-5.093 0-9.374 1.055-12.815 3.197l.528.849Zm12.287-3.046c4.732 0 8.674 1.014 11.853 3.012l.532-.847c-3.373-2.12-7.51-3.165-12.385-3.165v1Zm11.854 3.012c3.21 2.004 5.636 4.825 7.28 8.48l.912-.41c-1.721-3.826-4.275-6.804-7.662-8.918l-.53.848Zm7.281 8.484c1.668 3.64 2.511 7.96 2.511 12.973h1c0-5.124-.861-9.592-2.602-13.39l-.909.417Zm-36.137 12.973c0 4.163.593 7.791 1.794 10.873l.932-.363c-1.146-2.94-1.726-6.438-1.726-10.51h-1Zm1.794 10.873c1.206 3.094 3.058 5.504 5.564 7.205l.562-.828c-2.321-1.575-4.054-3.813-5.194-6.74l-.932.363Zm5.566 7.206c2.537 1.707 5.729 2.542 9.542 2.542v-1c-3.668 0-6.652-.803-8.984-2.372l-.558.83Zm9.542 2.542c3.834 0 7.018-.835 9.513-2.544l-.565-.825c-2.286 1.566-5.256 2.37-8.948 2.37v1Zm9.512-2.543c2.506-1.702 4.348-4.112 5.532-7.208l-.935-.357c-1.118 2.925-2.84 5.163-5.159 6.737l.562.828Zm5.532-7.208c1.178-3.08 1.759-6.708 1.759-10.87h-1c0 4.072-.569 7.573-1.694 10.513l.935.357Zm1.759-10.87c0-6.328-1.33-11.34-4.051-14.975l-.8.599c2.547 3.403 3.851 8.175 3.851 14.376h1Zm-4.049-14.972c-2.73-3.703-6.985-5.516-12.654-5.516v1c5.443 0 9.356 1.728 11.85 5.11l.804-.594Zm-12.654-5.516c-3.833 0-7.036.823-9.573 2.507l.553.833c2.332-1.548 5.327-2.34 9.02-2.34v-1Zm-9.573 2.507c-2.528 1.678-4.404 4.065-5.633 7.137l.928.372c1.162-2.904 2.916-5.122 5.258-6.676l-.553-.833Zm-5.634 7.139c-1.202 3.04-1.795 6.658-1.795 10.842h1c0-4.094.58-7.581 1.725-10.474l-.93-.368ZM905.116 74v.5h.5V74h-.5Zm-6.508 0-.419.272.147.228h.272V74Zm-26.463-40.773.42-.273-.148-.227h-.272v.5Zm-.265 0v-.5h-.532l.032.53.5-.03Zm.232 3.718-.499.032.499-.032Zm.199 4.416-.5.014.001.008.499-.022Zm.1 32.639v.5h.5V74h-.5Zm-5.246 0h-.5v.5h.5V74Zm0-48.543v-.5h-.5v.5h.5Zm6.474 0 .42-.272-.148-.228h-.272v.5Zm26.364 40.64-.42.273.148.228h.272v-.5Zm.232 0v.5h.529l-.03-.528-.499.029Zm-.166-3.286-.499.023.499-.024Zm-.199-4.616-.5.014v.007l.5-.02Zm-.067-32.738v-.5h-.5v.5h.5Zm5.313 0h.5v-.5h-.5v.5Zm0 48.043h-6.508v1h6.508v-1Zm-6.089.228-26.462-40.774-.839.545 26.463 40.773.838-.544Zm-26.882-41.001h-.265v1h.265v-1Zm-.765.53c.067 1.085.144 2.325.233 3.72l.998-.063a1263.11 1263.11 0 0 1-.232-3.718l-.999.061Zm.233 3.72c.088 1.366.154 2.832.198 4.398l1-.028a121.81 121.81 0 0 0-.2-4.434l-.998.065Zm.199 4.406c.066 1.542.099 3.117.099 4.726h1c0-1.622-.034-3.212-.1-4.77l-.999.044Zm.099 4.726V74h1V46.11h-1Zm.5 27.391h-5.246v1h5.246v-1Zm-4.746.5V25.457h-1V74h1Zm-.5-48.043h6.474v-1h-6.474v1Zm6.055-.228 26.363 40.64.839-.543-26.363-40.641-.839.544Zm26.783 40.869h.232v-1h-.232v1Zm.731-.529a368.57 368.57 0 0 1-.166-3.282l-.998.047c.066 1.417.121 2.515.166 3.292l.998-.057Zm-.166-3.282a934.336 934.336 0 0 1-.199-4.612l-.999.04c.067 1.64.133 3.179.2 4.619l.998-.047Zm-.198-4.605c-.045-1.657-.067-3.19-.067-4.602h-1c0 1.422.023 2.965.067 4.629l1-.027Zm-.067-4.602V25.457h-1V53.58h1Zm-.5-27.623h5.313v-1h-5.313v1Zm4.813-.5V74h1V25.457h-1Zm46.968 0 .471.169.24-.669h-.711v.5ZM934.153 74v.5h.351l.119-.331-.47-.169Zm-5.678 0-.471.169.119.331h.352V74Zm-17.432-48.543v-.5h-.711l.241.669.47-.169Zm5.91 0 .472-.167-.119-.333h-.353v.5Zm11.356 31.975-.471.167.001.003.47-.17Zm1.228 3.685-.478.145.002.008.476-.153Zm.997 3.387-.484.128.484-.128Zm.763 3.154-.488.106h.977l-.489-.106Zm.764-3.154.483.128.001-.002-.484-.126Zm.996-3.42.476.153.001-.003-.477-.15Zm1.262-3.752.471.168v-.001l-.471-.167Zm11.289-31.875v-.5h-.354l-.118.333.472.167Zm5.506-.169-17.432 48.543.941.338 17.432-48.543-.941-.338ZM934.153 73.5h-5.678v1h5.678v-1Zm-5.208.331-17.431-48.543-.941.338 17.431 48.543.941-.338Zm-17.902-47.874h5.91v-1h-5.91v1Zm5.439-.333L927.838 57.6l.942-.335-11.355-31.974-.943.334Zm11.357 31.978a72.154 72.154 0 0 1 1.22 3.66l.957-.29a71.88 71.88 0 0 0-1.237-3.71l-.94.34Zm1.222 3.668a68.29 68.29 0 0 1 .989 3.362l.967-.256a70.312 70.312 0 0 0-1.003-3.412l-.953.306Zm.989 3.362c.286 1.078.539 2.122.759 3.132l.977-.212a72.93 72.93 0 0 0-.769-3.176l-.967.256Zm1.736 3.132a70.32 70.32 0 0 1 .758-3.132l-.966-.256a71.507 71.507 0 0 0-.769 3.176l.977.212Zm.759-3.134c.285-1.097.614-2.228.988-3.393l-.952-.306a63.828 63.828 0 0 0-1.004 3.447l.968.252Zm.989-3.396c.374-1.189.793-2.434 1.256-3.734l-.942-.336c-.467 1.312-.89 2.568-1.268 3.77l.954.3Zm1.256-3.735 11.289-31.875-.943-.334-11.289 31.875.943.334Zm10.818-31.542h5.976v-1h-5.976v1ZM984.605 74v.5h.5V74h-.5Zm-27.027 0h-.5v.5h.5V74Zm0-48.543v-.5h-.5v.5h.5Zm27.027 0h.5v-.5h-.5v.5Zm0 4.98v.5h.5v-.5h-.5Zm-21.382 0v-.5h-.5v.5h.5Zm0 15.706h-.5v.5h.5v-.5Zm20.154 0h.5v-.5h-.5v.5Zm0 4.914v.5h.5v-.5h-.5Zm-20.154 0v-.5h-.5v.5h.5Zm0 17.962h-.5v.5h.5v-.5Zm21.382 0h.5v-.5h-.5v.5Zm0 4.481h-27.027v1h27.027v-1Zm-26.527.5V25.457h-1V74h1Zm-.5-48.043h27.027v-1h-27.027v1Zm26.527-.5v4.98h1v-4.98h-1Zm.5 4.48h-21.382v1h21.382v-1Zm-21.882.5v15.706h1V30.437h-1Zm.5 16.206h20.154v-1h-20.154v1Zm19.654-.5v4.914h1v-4.914h-1Zm.5 4.414h-20.154v1h20.154v-1Zm-20.654.5v17.962h1V51.057h-1Zm.5 18.462h21.382v-1h-21.382v1Zm20.882-.5V74h1v-4.98h-1Zm33.555-42.068-.18.467.01.002.17-.469Zm6.37 18.627.44.24.01-.003-.45-.237Zm-8.46 6.607-.16-.473-.59.2.32.534.43-.26ZM1028.88 74v.5h.89l-.46-.76-.43.26Zm-6.57 0-.43.253.14.247h.29V74Zm-11.89-20.254.43-.253-.14-.247h-.29v.5Zm-10.09 0v-.5h-.502v.5h.502Zm0 20.254v.5h.5V74h-.5Zm-5.647 0h-.5v.5h.5V74Zm0-48.543v-.5h-.5v.5h.5Zm5.647 4.88v-.5h-.502v.5h.502Zm0 18.628h-.502v.5h.502v-.5Zm16.43-2.424-.32-.38v.003l.32.377Zm-.16-14.144-.29.41v.001l.29-.411Zm-8.8-6.44c3.95 0 7.17.494 9.68 1.46l.36-.933c-2.67-1.025-6.02-1.527-10.04-1.527v1Zm9.69 1.463c2.52.942 4.38 2.374 5.59 4.282l.85-.537c-1.36-2.12-3.4-3.677-6.1-4.682l-.34.937Zm5.59 4.282c1.22 1.913 1.85 4.38 1.85 7.435h1c0-3.188-.66-5.856-2-7.972l-.85.537Zm1.85 7.435c0 2.51-.46 4.57-1.34 6.204l.89.474c.97-1.818 1.45-4.053 1.45-6.678h-1Zm-1.33 6.202c-.9 1.64-2.07 2.965-3.51 3.981l.58.817c1.57-1.109 2.84-2.552 3.8-4.32l-.87-.478Zm-3.51 3.981a17.989 17.989 0 0 1-4.68 2.392l.32.947a19.12 19.12 0 0 0 4.94-2.522l-.58-.817Zm-4.95 3.126 13.32 21.814.85-.52-13.32-21.815-.85.521Zm13.74 21.054h-6.57v1h6.57v-1Zm-6.14.247-11.89-20.254-.86.506 11.89 20.254.86-.506Zm-12.32-20.5h-10.09v1h10.09v-1Zm-10.592.5V74h1.002V53.746h-1.002Zm.502 19.753h-5.647v1h5.647v-1Zm-5.147.5V25.457h-1V74h1Zm-.5-48.043h13.117v-1h-13.117v1Zm12.787 3.88h-7.14v1h7.14v-1Zm-7.642.5v18.628h1.002V30.338h-1.002Zm.502 19.128h7.7v-1h-7.7v1Zm7.7 0c4.01 0 7.07-.816 9.06-2.547l-.65-.754c-1.73 1.5-4.5 2.3-8.41 2.3v1Zm9.06-2.545c2.02-1.735 3-4.27 3-7.518h-1c0 3.04-.91 5.263-2.65 6.76l.65.758Zm3-7.518c0-3.397-1.04-5.92-3.21-7.417l-.57.823c1.81 1.248 2.78 3.395 2.78 6.594h1Zm-3.21-7.416c-2.09-1.46-5.26-2.148-9.41-2.148v1c4.08 0 7 .683 8.84 1.969l.57-.82Zm44.33 36.47-.41-.29v.001l.41.288Zm-28.39 3.95h-.5v.318l.29.135.21-.453Zm0-5.412.19-.462-.69-.286v.748h.5Zm6.07 1.926-.12.485.01.001.11-.486Zm13.68-.1.18.468.01-.003-.19-.465Zm3.82-2.822-.4-.29h-.01l.41.29Zm.23-8.6-.42.272.01.004.41-.276Zm-3.65-3.054-.24.437.01.004.23-.441Zm-6.9-2.955.16-.471-.16.47Zm-5.45-2.391-.24.436v.002l.24-.438Zm-6.37-6.84-.47.171v.006l.47-.177Zm1.16-11.654-.41-.29.41.29Zm5.48-4.25.19.461-.19-.461Zm15.24-.764-.11.488.11-.488Zm6.07 1.96.47.17.16-.438-.42-.19-.21.457Zm-1.76 4.847-.19.461.48.202.18-.492-.47-.171Zm-5.58-1.826-.12.485.12-.485Zm-11.32.199.2.46-.2-.46Zm-3.32 10.758-.42.266v.005l.42-.271Zm3.46 3.021-.25.436.01.004.24-.44Zm6.3 2.723-.17.47.17-.47Zm7.28 3.32-.26.431.01.002.25-.433Zm4.54 4.25-.42.263v.003l.42-.266Zm1.06 6.342c0 2.79-.69 5.143-2.06 7.083l.81.577c1.51-2.134 2.25-4.695 2.25-7.66h-1Zm-2.06 7.083c-1.36 1.927-3.27 3.41-5.76 4.441l.38.924c2.64-1.094 4.72-2.688 6.2-4.79l-.82-.575Zm-5.76 4.441c-2.5 1.032-5.45 1.556-8.87 1.556v1c3.52 0 6.61-.539 9.25-1.632l-.38-.924Zm-8.87 1.556c-1.83 0-3.55-.088-5.16-.263l-.11.995c1.66.179 3.41.268 5.27.268v-1Zm-5.16-.263a35.147 35.147 0 0 1-4.46-.752l-.23.972c1.4.338 2.92.596 4.58.775l.11-.995Zm-4.46-.752c-1.34-.326-2.52-.726-3.52-1.196l-.42.906c1.07.504 2.31.924 3.71 1.262l.23-.972Zm-3.23-.743v-5.412h-1v5.412h1Zm-.69-4.95c1.69.698 3.74 1.347 6.14 1.949l.25-.97c-2.38-.594-4.38-1.229-6.01-1.903l-.38.924Zm6.15 1.95c2.43.585 4.97.877 7.62.877v-1c-2.58 0-5.04-.283-7.39-.85l-.23.973Zm7.62.877c2.47 0 4.6-.326 6.35-.996l-.35-.934c-1.61.614-3.61.93-6 .93v1Zm6.36-.998c1.75-.692 3.11-1.686 4.04-2.998l-.82-.578c-.79 1.123-1.98 2.01-3.59 2.646l.37.93Zm4.04-2.996c.95-1.336 1.42-2.924 1.42-4.74h-1c0 1.637-.42 3.015-1.23 4.158l.81.582Zm1.42-4.74c0-1.734-.38-3.22-1.18-4.426l-.83.55c.66 1.008 1.01 2.289 1.01 3.876h1Zm-1.18-4.422c-.79-1.225-2.08-2.293-3.83-3.225l-.47.883c1.66.884 2.8 1.852 3.46 2.885l.84-.543Zm-3.83-3.22c-1.71-.95-4.04-1.945-6.98-2.99l-.33.943c2.91 1.036 5.18 2.01 6.83 2.921l.48-.875Zm-6.98-2.99c-2.04-.723-3.83-1.51-5.37-2.357l-.48.876c1.6.879 3.44 1.686 5.52 2.424l.33-.943Zm-5.36-2.355c-1.54-.865-2.82-1.832-3.84-2.898l-.72.692c1.1 1.148 2.46 2.172 4.07 3.078l.49-.872Zm-3.84-2.898a10.843 10.843 0 0 1-2.32-3.683l-.93.354a11.654 11.654 0 0 0 2.53 4.021l.72-.693Zm-2.31-3.677c-.51-1.396-.77-3.007-.77-4.843h-1c0 1.928.27 3.66.83 5.185l.94-.342Zm-.77-4.843c0-2.502.63-4.61 1.87-6.35l-.82-.58c-1.37 1.934-2.05 4.253-2.05 6.93h1Zm1.86-6.35c1.27-1.776 3.02-3.137 5.27-4.079l-.39-.922c-2.4 1.006-4.3 2.478-5.69 4.42l.81.581Zm5.27-4.08c2.28-.965 4.9-1.454 7.87-1.454v-1c-3.08 0-5.84.507-8.26 1.534l.39.92Zm7.87-1.454c2.56 0 4.92.24 7.07.718l.21-.976c-2.23-.496-4.65-.742-7.28-.742v1Zm7.07.719c2.18.48 4.18 1.123 5.98 1.927l.41-.913c-1.88-.835-3.93-1.498-6.18-1.991l-.21.977Zm5.71 1.3-1.76 4.847.94.342 1.76-4.848-.94-.341Zm-1.09 4.556a38.88 38.88 0 0 0-5.66-1.85l-.24.971a37.6 37.6 0 0 1 5.51 1.802l.39-.923Zm-5.65-1.85a25.378 25.378 0 0 0-6.17-.745v1c2.04 0 4.02.24 5.92.716l.25-.97Zm-6.17-.745c-2.13 0-3.96.317-5.48.97l.4.92c1.36-.586 3.05-.89 5.08-.89v-1Zm-5.47.97c-1.49.629-2.66 1.538-3.48 2.735l.83.563c.69-1.016 1.7-1.812 3.04-2.377l-.39-.922Zm-3.48 2.735c-.81 1.201-1.21 2.62-1.21 4.233h1c0-1.442.35-2.658 1.04-3.67l-.83-.563Zm-1.21 4.233c0 1.772.37 3.288 1.14 4.516l.85-.532c-.65-1.03-.99-2.348-.99-3.984h-1Zm1.14 4.521c.79 1.216 2.01 2.274 3.63 3.186l.49-.871c-1.52-.86-2.6-1.816-3.28-2.858l-.84.543Zm3.64 3.19c1.62.88 3.75 1.796 6.37 2.753l.34-.94c-2.59-.947-4.67-1.845-6.24-2.692l-.47.879Zm6.37 2.753c2.84 1.033 5.23 2.127 7.19 3.281l.51-.862c-2.03-1.192-4.48-2.311-7.36-3.359l-.34.94Zm7.2 3.283c1.93 1.117 3.38 2.479 4.37 4.08l.85-.526c-1.09-1.763-2.67-3.234-4.72-4.42l-.5.866Zm4.37 4.083c.98 1.56 1.48 3.574 1.48 6.076h1c0-2.633-.53-4.846-1.63-6.607l-.85.53ZM1103.06 74l-.47.18.13.32h.34V74Zm-5.98-15.406.47-.181-.12-.32h-.35v.5Zm-19.45 0v-.5h-.35l-.12.32.47.18ZM1071.68 74v.5h.35l.12-.32-.47-.18Zm-5.71 0-.46-.181-.27.681h.73V74Zm18.99-48.742v-.5h-.34l-.12.318.46.182Zm5.08 0 .47-.18-.12-.32h-.35v.5ZM1108.9 74v.5h.73l-.26-.68-.47.18Zm-13.51-20.42v.5h.72l-.25-.674-.47.174Zm-5.68-15.307-.47.159v.015l.47-.174Zm-.66-1.959-.48.152v.01l.48-.161Zm-1.66-5.18.47-.157-.55-1.647-.41 1.686.49.119Zm-.73 2.723-.48-.14v.008l.48.132Zm-.73 2.49.47.155v-.004l-.47-.15Zm-.63 1.926.46.177.01-.01v-.008l-.47-.159Zm-5.78 15.307-.47-.176-.25.676h.72v-.5Zm24.01 20.24-5.98-15.407-.93.362 5.97 15.406.94-.362Zm-6.45-15.726h-19.45v1h19.45v-1Zm-19.92.32-5.94 15.406.93.36 5.94-15.406-.93-.36Zm-5.48 15.086h-5.71v1h5.71v-1Zm-5.24.681 18.99-48.742-.93-.363-18.99 48.742.93.364Zm18.52-48.423h5.08v-1h-5.08v1Zm4.62-.32 18.86 48.742.93-.36-18.86-48.743-.93.361ZM1108.9 73.5h-5.84v1h5.84v-1Zm-13.04-20.094-5.68-15.306-.94.347 5.68 15.307.94-.348Zm-5.67-15.29c-.14-.401-.36-1.056-.67-1.963l-.95.323c.31.907.54 1.559.67 1.956l.95-.317Zm-.67-1.953c-.28-.907-.58-1.848-.89-2.822l-.96.303.9 2.822.95-.303Zm-.89-2.822c-.31-.975-.57-1.764-.77-2.364l-.95.316c.2.595.46 1.378.76 2.35l.96-.302Zm-1.73-2.325c-.22.9-.46 1.8-.72 2.701l.96.28c.26-.914.51-1.829.73-2.744l-.97-.237Zm-.72 2.709c-.25.88-.49 1.704-.73 2.473l.95.3c.25-.782.49-1.617.74-2.508l-.96-.265Zm-.73 2.469c-.24.752-.45 1.392-.63 1.921l.95.317c.18-.534.39-1.177.63-1.93l-.95-.308Zm-.62 1.903-5.78 15.306.94.354 5.77-15.307-.93-.353Zm-5.31 15.983h15.87v-1h-15.87v1ZM1129.87 74v.5h.5V74h-.5Zm-5.68 0h-.5v.5h.5V74Zm0-43.563h.5v-.5h-.5v.5Zm-15.27 0h-.5v.5h.5v-.5Zm0-4.98v-.5h-.5v.5h.5Zm36.16 0h.5v-.5h-.5v.5Zm0 4.98v.5h.5v-.5h-.5Zm-15.21 0v-.5h-.5v.5h.5Zm0 43.063h-5.68v1h5.68v-1Zm-5.18.5V30.437h-1V74h1Zm-.5-44.063h-15.27v1h15.27v-1Zm-14.77.5v-4.98h-1v4.98h1Zm-.5-4.48h36.16v-1h-36.16v1Zm35.66-.5v4.98h1v-4.98h-1Zm.5 4.48h-15.21v1h15.21v-1Zm-15.71.5V74h1V30.437h-1ZM1151.74 74h-.5v.5h.5V74Zm0-48.543v-.5h-.5v.5h.5Zm5.64 0h.5v-.5h-.5v.5Zm0 48.543v.5h.5V74h-.5Zm-5.14 0V25.457h-1V74h1Zm-.5-48.043h5.64v-1h-5.64v1Zm5.14-.5V74h1V25.457h-1Zm.5 48.043h-5.64v1h5.64v-1Zm53.34-13.611.48.148-.48-.148Zm-4.25 7.902-.38-.324.38.324Zm-6.94 5.08.2.46-.2-.46Zm-19.49 0-.19.46.19-.46Zm-6.97-5.113-.38.32v.001l.38-.321Zm-4.15-7.936-.48.142v.003l.48-.145Zm8.53-32.008-.26-.424.26.424Zm24.67-.033-.26.424.26-.424Zm7.47 8.7-.45.204v.004l.45-.209Zm-28.95 30.845-.28.414v.001l.28-.415Zm18.49 0-.28-.413.28.413Zm3.13-32.34-.41.297.01.003.4-.3Zm-21.55-2.888-.28-.417.28.417Zm-5.45 6.906-.46-.186v.002l.46.184Zm36.39 10.658c0 3.699-.47 7.057-1.4 10.079l.95.295c.97-3.131 1.45-6.59 1.45-10.374h-1Zm-1.4 10.078c-.94 2.997-2.32 5.57-4.16 7.727l.76.648c1.93-2.27 3.38-4.965 4.35-8.078l-.95-.297Zm-4.16 7.727c-1.81 2.13-4.06 3.779-6.75 4.945l.39.918c2.84-1.224 5.21-2.963 7.12-5.215l-.76-.647Zm-6.75 4.945c-2.7 1.163-5.84 1.752-9.44 1.752v1c3.71 0 6.99-.606 9.83-1.834l-.39-.918Zm-9.44 1.752c-3.71 0-6.92-.59-9.66-1.753l-.39.92c2.88 1.227 6.24 1.833 10.05 1.833v-1Zm-9.66-1.752c-2.72-1.167-4.98-2.825-6.79-4.976l-.76.643c1.91 2.277 4.3 4.027 7.16 5.252l.39-.92Zm-6.78-4.974c-1.79-2.156-3.15-4.74-4.06-7.76l-.96.289c.95 3.133 2.36 5.84 4.25 8.11l.77-.638Zm-4.06-7.757c-.89-3.024-1.34-6.385-1.34-10.085h-1c0 3.78.46 7.238 1.38 10.368l.96-.283Zm-1.34-10.085c0-4.904.81-9.183 2.41-12.849l-.91-.4c-1.67 3.816-2.5 8.236-2.5 13.249h1Zm2.41-12.849c1.6-3.653 4.02-6.484 7.25-8.509l-.53-.847c-3.41 2.136-5.96 5.127-7.63 8.955l.91.401Zm7.25-8.508c3.24-2.02 7.33-3.046 12.28-3.046v-1c-5.09 0-9.37 1.055-12.81 3.197l.53.849Zm12.28-3.046c4.74 0 8.68 1.014 11.86 3.012l.53-.847c-3.37-2.12-7.51-3.165-12.39-3.165v1Zm11.86 3.012c3.21 2.004 5.63 4.825 7.28 8.48l.91-.41c-1.72-3.826-4.28-6.804-7.66-8.918l-.53.848Zm7.28 8.484c1.67 3.64 2.51 7.96 2.51 12.973h1c0-5.124-.86-9.592-2.6-13.39l-.91.417ZM1173 49.662c0 4.163.59 7.791 1.8 10.873l.93-.363c-1.15-2.94-1.73-6.438-1.73-10.51h-1Zm1.8 10.873c1.2 3.094 3.05 5.504 5.56 7.205l.56-.828c-2.32-1.575-4.05-3.813-5.19-6.74l-.93.363Zm5.56 7.206c2.54 1.707 5.73 2.542 9.54 2.542v-1c-3.66 0-6.65-.803-8.98-2.372l-.56.83Zm9.54 2.542c3.84 0 7.02-.835 9.52-2.544l-.57-.825c-2.28 1.566-5.25 2.37-8.95 2.37v1Zm9.52-2.543c2.5-1.702 4.34-4.112 5.53-7.208l-.94-.357c-1.11 2.925-2.84 5.163-5.16 6.737l.57.828Zm5.53-7.208c1.18-3.08 1.76-6.708 1.76-10.87h-1c0 4.072-.57 7.573-1.7 10.513l.94.357Zm1.76-10.87c0-6.328-1.33-11.34-4.05-14.975l-.8.599c2.54 3.403 3.85 8.175 3.85 14.376h1Zm-4.05-14.972c-2.73-3.703-6.99-5.516-12.66-5.516v1c5.45 0 9.36 1.728 11.85 5.11l.81-.594ZM1190 29.174c-3.83 0-7.03.823-9.57 2.507l.55.833c2.34-1.548 5.33-2.34 9.02-2.34v-1Zm-9.57 2.507c-2.53 1.678-4.4 4.065-5.63 7.137l.93.372c1.16-2.904 2.91-5.122 5.25-6.676l-.55-.833Zm-5.63 7.139c-1.21 3.04-1.8 6.658-1.8 10.842h1c0-4.094.58-7.581 1.73-10.474l-.93-.368ZM1260.25 74v.5h.5V74h-.5Zm-6.51 0-.42.272.15.228h.27V74Zm-26.46-40.773.41-.273-.14-.227h-.27v.5Zm-.27 0v-.5h-.53l.03.53.5-.03Zm.23 3.718-.5.032.5-.032Zm.2 4.416-.5.014v.008l.5-.022Zm.1 32.639v.5h.5V74h-.5Zm-5.25 0h-.5v.5h.5V74Zm0-48.543v-.5h-.5v.5h.5Zm6.48 0 .42-.272-.15-.228h-.27v.5Zm26.36 40.64-.42.273.15.228h.27v-.5Zm.23 0v.5h.53l-.03-.528-.5.029Zm-.16-3.286-.5.023.5-.024Zm-.2-4.616-.5.014v.007l.5-.02Zm-.07-32.738v-.5h-.5v.5h.5Zm5.32 0h.5v-.5h-.5v.5Zm0 48.043h-6.51v1h6.51v-1Zm-6.09.228-26.47-40.774-.83.545 26.46 40.773.84-.544Zm-26.88-41.001h-.27v1h.27v-1Zm-.77.53c.07 1.085.14 2.325.23 3.72l1-.063c-.09-1.395-.17-2.634-.23-3.718l-1 .061Zm.23 3.72c.09 1.366.16 2.832.2 4.398l1-.028c-.04-1.577-.11-3.055-.2-4.434l-1 .065Zm.2 4.406c.07 1.542.1 3.117.1 4.726h1c0-1.622-.03-3.212-.1-4.77l-1 .044Zm.1 4.726V74h1V46.11h-1Zm.5 27.391h-5.25v1h5.25v-1Zm-4.75.5V25.457h-1V74h1Zm-.5-48.043h6.48v-1h-6.48v1Zm6.06-.228 26.36 40.64.84-.543-26.36-40.641-.84.544Zm26.78 40.869h.23v-1h-.23v1Zm.73-.529c-.04-.772-.1-1.866-.16-3.282l-1 .047c.07 1.417.12 2.515.17 3.292l.99-.057Zm-.16-3.282c-.07-1.437-.13-2.975-.2-4.612l-1 .04c.07 1.64.13 3.179.2 4.619l1-.047Zm-.2-4.605c-.04-1.657-.07-3.19-.07-4.602h-1c0 1.422.03 2.965.07 4.629l1-.027Zm-.07-4.602V25.457h-1V53.58h1Zm-.5-27.623h5.32v-1h-5.32v1Zm4.82-.5V74h1V25.457h-1Zm38.3 42.998-.41-.288.41.288Zm-28.39 3.951h-.5v.318l.29.135.21-.453Zm0-5.412.19-.462-.69-.286v.748h.5Zm6.08 1.926-.13.485.01.001.12-.486Zm13.68-.1.17.468.01-.003-.18-.465Zm3.81-2.822-.4-.29.4.29Zm.24-8.6-.42.272v.004l.42-.276Zm-3.66-3.054-.24.437.01.004.23-.441Zm-6.9-2.955.17-.471h-.01l-.16.47Zm-5.45-2.391-.24.436v.002l.24-.438Zm-6.37-6.84-.47.171v.006l.47-.177Zm1.16-11.654-.41-.29.41.29Zm5.48-4.25.19.461-.19-.461Zm15.24-.764-.11.488.11-.488Zm6.07 1.96.47.17.16-.438-.42-.19-.21.457Zm-1.76 4.847-.19.461.49.202.17-.492-.47-.171Zm-5.57-1.826-.12.485.12-.485Zm-11.33.199.2.46-.2-.46Zm-3.32 10.758-.42.266v.005l.42-.271Zm3.46 3.021-.25.436.01.004.24-.44Zm6.31 2.723-.18.47.18-.47Zm7.27 3.32-.26.431.01.002.25-.433Zm4.55 4.25-.43.263v.003l.43-.266Zm1.06 6.342c0 2.79-.7 5.143-2.07 7.083l.82.577c1.5-2.134 2.25-4.695 2.25-7.66h-1Zm-2.07 7.083c-1.36 1.927-3.27 3.41-5.76 4.441l.38.924c2.65-1.094 4.72-2.688 6.2-4.79l-.82-.575Zm-5.76 4.441c-2.49 1.032-5.45 1.556-8.87 1.556v1c3.52 0 6.61-.539 9.25-1.632l-.38-.924Zm-8.87 1.556c-1.82 0-3.54-.088-5.16-.263l-.11.995c1.66.179 3.41.268 5.27.268v-1Zm-5.16-.263a34.676 34.676 0 0 1-4.45-.752l-.24.972c1.4.338 2.92.596 4.58.775l.11-.995Zm-4.45-.752c-1.35-.326-2.52-.726-3.53-1.196l-.42.906c1.07.504 2.31.924 3.71 1.262l.24-.972Zm-3.24-.743v-5.412h-1v5.412h1Zm-.69-4.95c1.69.698 3.74 1.347 6.14 1.949l.25-.97c-2.38-.594-4.38-1.229-6.01-1.903l-.38.924Zm6.15 1.95c2.43.585 4.97.877 7.62.877v-1c-2.58 0-5.04-.283-7.39-.85l-.23.973Zm7.62.877c2.48 0 4.6-.326 6.35-.996l-.35-.934c-1.61.614-3.61.93-6 .93v1Zm6.36-.998c1.75-.692 3.11-1.686 4.04-2.998l-.81-.578c-.8 1.123-1.99 2.01-3.6 2.646l.37.93Zm4.04-2.996c.95-1.336 1.42-2.924 1.42-4.74h-1c0 1.637-.42 3.015-1.23 4.158l.81.582Zm1.42-4.74c0-1.734-.38-3.22-1.18-4.426l-.83.55c.66 1.008 1.01 2.289 1.01 3.876h1Zm-1.17-4.422c-.8-1.225-2.09-2.293-3.84-3.225l-.47.883c1.66.884 2.8 1.852 3.47 2.885l.84-.543Zm-3.83-3.22c-1.72-.95-4.05-1.945-6.98-2.99l-.34.943c2.91 1.036 5.18 2.01 6.83 2.921l.49-.875Zm-6.99-2.99c-2.03-.723-3.82-1.51-5.37-2.357l-.48.876c1.6.879 3.44 1.686 5.52 2.424l.33-.943Zm-5.36-2.355c-1.54-.865-2.81-1.832-3.84-2.898l-.72.692c1.1 1.148 2.46 2.172 4.07 3.078l.49-.872Zm-3.84-2.898a10.843 10.843 0 0 1-2.32-3.683l-.93.354a11.804 11.804 0 0 0 2.53 4.021l.72-.693Zm-2.31-3.677c-.51-1.396-.77-3.007-.77-4.843h-1c0 1.928.27 3.66.83 5.185l.94-.342Zm-.77-4.843c0-2.502.63-4.61 1.87-6.35l-.82-.58c-1.37 1.934-2.05 4.253-2.05 6.93h1Zm1.87-6.35c1.27-1.776 3.01-3.137 5.26-4.079l-.39-.922c-2.4 1.006-4.3 2.478-5.69 4.42l.82.581Zm5.26-4.08c2.28-.965 4.9-1.454 7.88-1.454v-1c-3.09 0-5.85.507-8.27 1.534l.39.92Zm7.88-1.454c2.56 0 4.91.24 7.06.718l.22-.976c-2.24-.496-4.66-.742-7.28-.742v1Zm7.06.719c2.19.48 4.18 1.123 5.98 1.927l.41-.913c-1.87-.835-3.93-1.498-6.17-1.991l-.22.977Zm5.71 1.3-1.76 4.847.94.342 1.76-4.848-.94-.341Zm-1.09 4.556a39.148 39.148 0 0 0-5.65-1.85l-.24.971c1.94.481 3.78 1.082 5.5 1.802l.39-.923Zm-5.65-1.85a25.378 25.378 0 0 0-6.17-.745v1c2.04 0 4.02.24 5.93.716l.24-.97Zm-6.17-.745c-2.12 0-3.96.317-5.47.97l.39.92c1.36-.586 3.05-.89 5.08-.89v-1Zm-5.47.97c-1.49.629-2.66 1.538-3.47 2.735l.82.563c.69-1.016 1.7-1.812 3.04-2.377l-.39-.922Zm-3.47 2.735c-.82 1.201-1.22 2.62-1.22 4.233h1c0-1.442.36-2.658 1.04-3.67l-.82-.563Zm-1.22 4.233c0 1.772.37 3.288 1.14 4.516l.85-.532c-.65-1.03-.99-2.348-.99-3.984h-1Zm1.14 4.521c.79 1.216 2.01 2.274 3.63 3.186l.49-.871c-1.52-.86-2.6-1.816-3.28-2.858l-.84.543Zm3.64 3.19c1.62.88 3.75 1.796 6.37 2.753l.35-.94c-2.6-.947-4.68-1.845-6.24-2.692l-.48.879Zm6.37 2.753c2.84 1.033 5.23 2.127 7.19 3.281l.51-.862c-2.02-1.192-4.48-2.311-7.35-3.359l-.35.94Zm7.2 3.283c1.93 1.117 3.38 2.479 4.37 4.08l.85-.526c-1.09-1.763-2.67-3.234-4.72-4.42l-.5.866Zm4.37 4.083c.98 1.56 1.49 3.574 1.49 6.076h1c0-2.633-.54-4.846-1.64-6.607l-.85.53Z"/><path fill="#EF001C" d="M1377.82 26.6h4.94L1368.41 63h-4.94l14.35-36.4Z"/><path fill="#EF001C" d="M1377.82 26.6h4.94L1368.41 63h-4.94l14.35-36.4Z"/></svg>