<svg width="30" height="30" viewBox="0 0 30 30" fill="none" xmlns="http://www.w3.org/2000/svg">
<path d="M0.515146 1.27391C0.110548 0.720648 0.800376 0.0308216 1.35364 0.43542L14.7256 10.2143C14.9365 10.3685 15.223 10.3685 15.4339 10.2143L28.8058 0.43542C29.3591 0.0308194 30.0489 0.720649 29.6443 1.27391L19.8654 14.6458C19.7112 14.8567 19.7112 15.1433 19.8654 15.3542L29.6443 28.7261C30.0489 29.2794 29.3591 29.9692 28.8058 29.5646L15.4339 19.7857C15.223 19.6315 14.9365 19.6315 14.7256 19.7857L1.35363 29.5646C0.800375 29.9692 0.110549 29.2794 0.515147 28.7261L10.294 15.3542C10.4483 15.1433 10.4483 14.8567 10.294 14.6458L0.515146 1.27391Z" fill="#111010"/>
</svg>
