<svg width="48" height="48" viewBox="0 0 48 48" fill="none" xmlns="http://www.w3.org/2000/svg">
<path d="M22.3301 26.345C22.3301 25.7624 21.8534 25.2867 21.2722 25.2867H15.9823V29.5187C15.9823 30.2976 15.3498 30.9297 14.5713 30.9297C13.7928 30.9297 13.1604 30.2976 13.1604 29.5187V25.2867H7.87042C7.28781 25.2867 6.8125 25.7624 6.8125 26.345V39.7468C6.8125 40.329 7.28781 40.8047 7.87042 40.8047H21.2722C21.8534 40.8047 22.3301 40.329 22.3301 39.7468V26.345Z" fill="#EF001C"/>
<path d="M40.6739 26.345C40.6739 25.7624 40.1971 25.2867 39.6156 25.2867H34.3256V29.5187C34.3256 30.2976 33.6936 30.9297 32.9151 30.9297C32.1362 30.9297 31.5041 30.2976 31.5041 29.5187V25.2867H26.2142C25.6316 25.2867 25.1562 25.7624 25.1562 26.345V39.7468C25.1562 40.329 25.6316 40.8047 26.2142 40.8047H39.6156C40.1971 40.8047 40.6739 40.329 40.6739 39.7468V26.345Z" fill="#EF001C"/>
<path d="M31.502 8.00121C31.502 7.42007 31.0252 6.94329 30.4441 6.94329H25.1541V11.1753C25.1541 11.9539 24.5217 12.5863 23.7432 12.5863C22.9647 12.5863 22.3323 11.9539 22.3323 11.1753V6.94329H17.0423C16.4597 6.94329 15.9844 7.42007 15.9844 8.00121V21.403C15.9844 21.9856 16.4597 22.4609 17.0423 22.4609H30.4441C31.0252 22.4609 31.502 21.9856 31.502 21.403V8.00121Z" fill="#EF001C"/>
</svg>
