<svg xmlns="http://www.w3.org/2000/svg" width="48" height="48" fill="none"><path fill="#EF001C" d="M38.49 21.965a3.41 3.41 0 0 1-2.28 3.217v8.293c0 .17-.059.318-.145.456a.9.9 0 0 1-.426.366c-.006.003-.009.009-.015.012a.93.93 0 0 1-.298.05c-.13 0-.25-.03-.363-.077-.024-.012-.048-.036-.075-.05a.931.931 0 0 1-.217-.17c-.009-.012-.021-.015-.03-.024a18.907 18.907 0 0 0-10.825-6.446c-.25-.027-.5-.06-.753-.072h-2.458l.003.006h-6.213l-.003-.006h-.56a.927.927 0 0 1-.927-.926v-.926h-2.778a.925.925 0 0 1-.924-.927V19.19c0-.512.414-.926.924-.926h2.778v-.927c0-.509.415-.926.927-.926h9.222c.256-.012.51-.045.762-.072a18.916 18.916 0 0 0 10.825-6.446c.009-.005.018-.008.027-.014a.871.871 0 0 1 .387-.253c.033-.01.065-.012.098-.018.06-.012.113-.036.173-.036.086 0 .167.027.247.05.018.004.033-.006.051 0 .006.004.009.01.015.012.149.057.27.158.37.283.023.027.038.054.056.084a.845.845 0 0 1 .146.456v8.292a3.411 3.411 0 0 1 2.278 3.217Z"/><path fill="#EF001C" d="M21.122 37.876a1.714 1.714 0 0 1-2.044-1.177l-2.676-8.914a1.714 1.714 0 0 1 1.64-2.207h1.526a1.71 1.71 0 0 1 1.698 1.492l1.154 8.917a1.717 1.717 0 0 1-1.298 1.889Z"/></svg>