<svg xmlns="http://www.w3.org/2000/svg" width="48" height="48" fill="none"><path fill="#EF001C" d="M26.944 22.11a1.09 1.09 0 0 1-.779.325h-4.82c-.609 0-1.105-.497-1.105-1.106a1.105 1.105 0 0 1 1.106-1.103h4.82a1.102 1.102 0 0 1 .778 1.885Zm-5.919-9.222v-2.04h5.433v2.04c0 .039 0 .074.007.109h-5.447c.007-.035.007-.07.007-.11Zm10.689.109h-2.547c.007-.035.007-.07.007-.11v-2.04a2.72 2.72 0 0 0-2.716-2.715h-5.433a2.72 2.72 0 0 0-2.716 2.716v2.04c0 .039 0 .074.007.109h-2.522a8.327 8.327 0 0 0-8.325 8.325v9.71a8.328 8.328 0 0 0 8.325 8.327h15.92a8.326 8.326 0 0 0 8.325-8.328v-9.71a8.325 8.325 0 0 0-8.325-8.324Z"/></svg>