<svg xmlns="http://www.w3.org/2000/svg" width="190" height="44" fill="none" viewBox="0 0 190 44"><path fill="#CA0007" d="M0 21.96a22 22 0 0 0 22 21.97v-8.69A13.3 13.3 0 0 1 8.7 21.96 13.3 13.3 0 0 1 22 8.7V0A22 22 0 0 0 0 21.96Z"/><path fill="#FD1214" d="M22 0v8.7a13.3 13.3 0 0 1 13.3 13.27H44A22 22 0 0 0 22 .01ZM33.9 33.85l-.15-.16-.65-.64-1.7-1.7c-2.41 2.4-5.73 3.89-9.4 3.89V43.93c6.07 0 11.56-2.46 15.55-6.44l-3.65-3.64Z"/><path fill="#FC5D3E" d="M38.83 21.96H35.3c0 3.66-1.5 6.98-3.9 9.38l1.7 1.7.65.65.16.16 3.64 3.63A21.87 21.87 0 0 0 44 21.96h-5.16Z"/><path fill="#D5452F" d="M22 8.7V6.3a15.68 15.68 0 1 0 0 31.34v-2.4A13.3 13.3 0 0 1 8.7 21.97 13.3 13.3 0 0 1 22 8.7Z"/><path fill="#FC553B" d="M22 6.3v2.4a13.3 13.3 0 0 1 13.3 13.27h2.4C37.7 13.31 30.67 6.3 22 6.3ZM31.4 31.35c-2.41 2.4-5.74 3.89-9.4 3.89v2.4c4.33 0 8.26-1.75 11.1-4.59l-1.7-1.7Z"/><path fill="#FB8463" d="M37.7 21.97h-2.41c0 3.66-1.5 6.98-3.9 9.38l1.7 1.7a15.61 15.61 0 0 0 4.6-11.08Z"/><path fill="#D5452F" d="M22 5.16A16.85 16.85 0 0 0 5.16 21.97h.22c0-9.15 7.45-16.6 16.62-16.6v-.21Z"/><path fill="#D5452F" d="M5.38 21.97h-.22c0 9.27 7.55 16.81 16.84 16.81v-.22a16.63 16.63 0 0 1-16.62-16.6Z"/><path fill="#FC553B" d="M22 5.16v.22c9.16 0 16.62 7.44 16.62 16.59h.22c0-9.27-7.55-16.81-16.84-16.81ZM33.75 33.7c-3.01 3-7.17 4.86-11.75 4.86v.22a16.8 16.8 0 0 0 11.9-4.93l-.15-.15Z"/><path fill="#FB8463" d="M38.85 21.97h-.22c0 4.57-1.86 8.72-4.87 11.72l.15.16a16.75 16.75 0 0 0 4.94-11.88Z"/><path fill="#111010" d="M60.36 16.05v3.53h.05c.72-2.05 2-3.94 4.43-3.94l.86.05v2.23h-.48c-1.78 0-3.03.86-3.89 2.37a5.98 5.98 0 0 0-.74 3.23v7.6h-2.32V16.04h2.09ZM78.17 22.05c.03-2.5-1.36-4.6-4.03-4.6-2.53 0-4.16 2.23-4.25 4.6h8.28ZM80.5 27a6.59 6.59 0 0 1-6.42 4.42c-4.57 0-6.91-3.62-6.91-7.83 0-4.15 2.46-7.91 6.98-7.91 4.69 0 6.7 3.9 6.59 8.09H69.77c0 1.18.06 2.28.62 3.4a4.34 4.34 0 0 0 3.86 2.29 4.15 4.15 0 0 0 4.04-2.9l2.2.44ZM93.81 22.19c0-1.04-.15-2.1-.77-3a4.19 4.19 0 0 0-3.38-1.69c-1.31 0-2.41.8-3.07 1.9a7.76 7.76 0 0 0-.88 3.92c0 2.45.65 6.16 3.88 6.16 1.34 0 2.56-.74 3.33-1.8.71-.99.9-1.96.9-3.09v-2.4Zm0-11.42h2.32v20.34h-2.11v-2.67h-.06a4.96 4.96 0 0 1-4.72 2.97c-1.99 0-3.5-.95-4.6-2.55a9.41 9.41 0 0 1-1.43-5.28c0-3.76 1.87-7.91 6.24-7.91 1.93 0 3.3.91 4.36 2.43v-7.33ZM109.4 24.8c.06 1.01.27 2.14.86 3.03.72 1.04 2 1.72 3.27 1.72 3.09 0 3.98-3.3 3.98-5.78 0-2.52-.77-6.23-3.98-6.23-2.38 0-4.07 2.4-4.13 4.6v2.67Zm-1.19 6.32h-1.12V10.78h2.31v7.77h.12c.95-1.78 2.29-2.88 4.42-2.88 1.85 0 3.63.98 4.64 2.47 1 1.48 1.42 3.5 1.42 5.24 0 3.83-1.84 8.04-6.3 8.04a5.33 5.33 0 0 1-4.63-2.88l-.86 2.58ZM133.46 23.53h-1.94c-2.37 0-6.11.33-6.11 3.44 0 1.87 1.6 2.64 3.26 2.64 2.85 0 4.79-2.43 4.79-5.1v-.98Zm0-1.75v-.65c0-2.64-1.16-3.65-3.83-3.65-1.9 0-3.72.6-4.13 2.67l-2.17-.36c.41-3.14 3.74-4.11 6.5-4.11 1.64 0 3.5.17 4.64 1.48 1.24 1.33 1.24 3.23 1.24 4.95v5.84c0 1.1.03 2.2.33 3.17h-2.32l-.26-2.82c-1.08 2.17-2.89 3.12-5.3 3.12-2.81 0-5.25-1.57-5.25-4.57 0-1.8 1.13-3.44 2.8-4.18 1.69-.8 3.92-.89 5.79-.89h1.96ZM141.56 18.84h.06a5.15 5.15 0 0 1 4.7-3.17c1.8 0 3.32.77 4.27 2.34.77 1.27.71 3.29.71 4.77v8.33H149v-9.3c0-.9.03-2.02-.42-2.8a3.08 3.08 0 0 0-2.58-1.36c-1.22 0-2.32.56-3.12 1.51-.98 1.19-1.19 2.55-1.19 4.07v7.88h-2.31V16.05h2.2v2.79ZM163.8 20.8c0-1.9-1.51-3.3-3.36-3.3a3.24 3.24 0 0 0-3.38 3.33c0 2.04 1.34 3.32 3.38 3.32 2.02 0 3.36-1.34 3.36-3.35Zm-2.56 9.96-3.62-.24c-.89.42-1.63.98-1.63 2.05 0 2.07 3.2 2.43 4.75 2.43 1.13 0 2.88-.18 3.89-.65.83-.36 1.3-.86 1.3-1.78 0-1.54-2.04-1.75-3.2-1.78l-1.48-.03Zm5.74-17.05.6.03.02 1.87h-.24c-1.36 0-2.43.15-2.67 1.72.92 1 1.46 2.34 1.46 3.7 0 1.49-.8 2.88-1.93 3.77a6.28 6.28 0 0 1-3.83 1.16c-.36 0-.72 0-1.07-.1-.24-.02-.72-.14-.98-.14-.72 0-1.6.62-1.6 1.4 0 .7.47 1.09 1.12 1.27 1.04.24 2.5.2 3.56.24 1.31.05 3.24.08 4.43.53a3.55 3.55 0 0 1 2.31 3.32c0 3.82-4.54 4.33-7.45 4.33-1.4 0-3.12-.1-4.42-.6-1.46-.59-2.59-1.66-2.59-3.32 0-1.57.87-2.55 2.29-3.05-.86-.56-1.46-1.25-1.46-2.37 0-1.48.87-2.14 2.08-2.7a4.88 4.88 0 0 1-1.96-3.97c0-3.26 2.77-5.13 5.8-5.13 1.03 0 2.1.2 3.05.65.39-2.13 1.43-2.6 3.48-2.6ZM170.6 10.77h2.32v20.34h-2.32V10.77ZM187.44 22.05c.03-2.5-1.37-4.6-4.04-4.6-2.53 0-4.16 2.23-4.25 4.6h8.29Zm2.31 4.95a6.59 6.59 0 0 1-6.41 4.42c-4.57 0-6.92-3.62-6.92-7.83 0-4.15 2.46-7.91 6.98-7.91 4.69 0 6.7 3.9 6.6 8.09h-10.97c0 1.18.06 2.28.63 3.4a4.34 4.34 0 0 0 3.86 2.29 4.15 4.15 0 0 0 4.03-2.9l2.2.44ZM187.17 7.58c.45 0 .7-.23.7-.65 0-.35-.25-.57-.65-.57h-1v1.22h.95Zm.75 1.81-.7-1.48h-1v1.48h-.38V6h1.36c.62 0 1.1.41 1.1.95 0 .4-.26.74-.66.86l.74 1.6h-.46Zm-2.77-3.41a2.56 2.56 0 0 0 1.9 4.28 2.56 2.56 0 1 0-1.9-4.28ZM190 7.69a2.94 2.94 0 1 1-5.88 0 2.94 2.94 0 0 1 5.88 0Z"/></svg>