<svg xmlns="http://www.w3.org/2000/svg" width="956" height="75" fill="none" viewBox="0 0 956 75"><path fill="#fff" d="M41.48 40.368c0 12.988-6.8 19.312-18.088 19.312-11.356 0-18.156-6.324-18.156-19.312V12.08h7.684v29.172c0 8.16 3.944 12.104 10.472 12.104s10.404-3.944 10.404-12.104V12.08h7.684v28.288ZM59.4 59h-7.684V12.08h15.232l16.66 45.424V12.08h7.684V59H76.06L59.4 13.576V59Zm70.72 0h-28.084V12.08h7.684v40.596h20.4V59Zm34.325 0h-28.492V12.08h27.948v6.324h-20.264v13.328h19.652v6.324h-19.652v14.62h20.808V59Zm11.129 0h-7.888l15.504-46.92h14.62L213.246 59h-7.82l-4.352-13.192h-21.148L175.574 59Zm14.892-45.424-8.5 25.84h17l-8.5-25.84Zm62.826 32.504c0 7.82-7.616 13.6-18.496 13.6-12.444 0-19.176-8.704-19.924-17.204h7.956c.476 6.12 5.44 10.88 12.036 10.88 5.984 0 10.404-2.584 10.404-6.936 0-3.808-2.856-5.848-8.908-7.276l-6.8-1.564c-9.18-2.176-13.736-6.46-13.736-12.988 0-7.888 7.752-13.192 17.204-13.192 11.968 0 18.088 6.528 18.904 14.62h-7.956c-.612-5.576-5.304-8.296-10.812-8.296-5.372 0-9.248 2.312-9.248 6.324 0 3.196 2.38 4.692 9.316 6.324l6.8 1.632c8.84 2.04 13.26 6.664 13.26 14.076ZM268.566 59h-7.684V12.08h7.684v19.856h20.128V12.08h7.684V59h-7.684V38.26h-20.128V59Zm77.067 0h-14.62l-15.504-46.92h7.888l14.892 45.424 14.96-45.424h7.82L345.633 59Zm28.471 0h-7.684V12.08h7.684V59Zm46.053-12.92c0 7.82-7.616 13.6-18.496 13.6-12.444 0-19.176-8.704-19.924-17.204h7.956c.476 6.12 5.44 10.88 12.036 10.88 5.984 0 10.404-2.584 10.404-6.936 0-3.808-2.856-5.848-8.908-7.276l-6.8-1.564c-9.18-2.176-13.736-6.46-13.736-12.988 0-7.888 7.752-13.192 17.204-13.192 11.968 0 18.088 6.528 18.904 14.62h-7.956c-.612-5.576-5.304-8.296-10.812-8.296-5.372 0-9.248 2.312-9.248 6.324 0 3.196 2.38 4.692 9.316 6.324l6.8 1.632c8.84 2.04 13.26 6.664 13.26 14.076Zm43.359-5.712c0 12.988-6.8 19.312-18.088 19.312-11.356 0-18.156-6.324-18.156-19.312V12.08h7.684v29.172c0 8.16 3.944 12.104 10.472 12.104s10.404-3.944 10.404-12.104V12.08h7.684v28.288ZM475.603 59h-7.888l15.504-46.92h14.62L513.275 59h-7.82l-4.352-13.192h-21.148L475.603 59Zm14.892-45.424-8.5 25.84h17l-8.5-25.84ZM546.776 59h-28.084V12.08h7.684v40.596h20.4V59Zm26.584 0h-7.684V12.08h7.684V59Zm18.445 0h-7.684V12.08h15.028l11.084 45.424 11.084-45.424h15.028V59h-7.684V13.576L617.645 59h-14.824l-11.016-45.424V59Zm62.937 0h-7.684V12.08h16.048c11.764 0 19.108 5.304 19.108 14.348 0 9.112-7.344 14.416-19.108 14.416h-8.364V59Zm9.112-40.596h-9.112V34.52h9.112c6.596 0 10.336-2.924 10.336-8.092 0-5.168-3.74-8.024-10.336-8.024ZM688.605 59h-7.888l15.504-46.92h14.62L726.277 59h-7.82l-4.352-13.192h-21.148L688.605 59Zm14.892-45.424-8.5 25.84h17l-8.5-25.84ZM771.493 42c-1.632 10.744-10.336 17.68-21.148 17.68-12.988 0-22.168-10.336-22.168-24.14 0-13.396 8.976-24.14 21.964-24.14 10.812 0 19.448 7.004 21.012 17.748h-7.956c-1.292-7.344-5.848-11.424-12.784-11.424-8.568 0-14.144 7.004-14.144 17.816 0 10.948 5.78 17.816 14.62 17.816 6.664 0 11.492-4.148 12.648-11.356h7.956Zm24.29 17h-7.684V18.404h-15.232V12.08h38.08v6.324h-15.164V59ZM871.46 68.4V11.7h6.93v56.7h-6.93Z"/></svg>