<svg xmlns="http://www.w3.org/2000/svg" width="354" height="28" fill="none" viewBox="0 0 354 28"><path fill="#fff" d="M15.86 14.876c0 4.966-2.6 7.384-6.916 7.384-4.342 0-6.942-2.418-6.942-7.384V4.06H4.94v11.154c0 3.12 1.508 4.628 4.004 4.628 2.496 0 3.978-1.508 3.978-4.628V4.06h2.938v10.816ZM22.712 22h-2.938V4.06h5.824l6.37 17.368V4.06h2.938V22h-5.824l-6.37-17.368V22Zm27.04 0H39.014V4.06h2.938v15.522h7.8V22Zm13.124 0H51.982V4.06h10.686v2.418H54.92v5.096h7.514v2.418H54.92v5.59h7.956V22Zm4.255 0h-3.016l5.928-17.94h5.59L81.535 22h-2.99l-1.664-5.044h-8.086L67.131 22Zm5.694-17.368-3.25 9.88h6.5l-3.25-9.88ZM96.847 17.06c0 2.99-2.912 5.2-7.072 5.2-4.758 0-7.332-3.328-7.618-6.578h3.042c.182 2.34 2.08 4.16 4.602 4.16 2.288 0 3.978-.988 3.978-2.652 0-1.456-1.092-2.236-3.406-2.782l-2.6-.598c-3.51-.832-5.252-2.47-5.252-4.966 0-3.016 2.964-5.044 6.578-5.044 4.576 0 6.916 2.496 7.228 5.59h-3.042c-.234-2.132-2.028-3.172-4.134-3.172-2.054 0-3.536.884-3.536 2.418 0 1.222.91 1.794 3.562 2.418l2.6.624c3.38.78 5.07 2.548 5.07 5.382Zm5.84 4.94h-2.938V4.06h2.938v7.592h7.696V4.06h2.938V22h-2.938v-7.93h-7.696V22Zm29.467 0h-5.59l-5.928-17.94h3.016l5.694 17.368 5.72-17.368h2.99L132.154 22Zm10.886 0h-2.938V4.06h2.938V22Zm17.608-4.94c0 2.99-2.912 5.2-7.072 5.2-4.758 0-7.332-3.328-7.618-6.578H149c.182 2.34 2.08 4.16 4.602 4.16 2.288 0 3.978-.988 3.978-2.652 0-1.456-1.092-2.236-3.406-2.782l-2.6-.598c-3.51-.832-5.252-2.47-5.252-4.966 0-3.016 2.964-5.044 6.578-5.044 4.576 0 6.916 2.496 7.228 5.59h-3.042c-.234-2.132-2.028-3.172-4.134-3.172-2.054 0-3.536.884-3.536 2.418 0 1.222.91 1.794 3.562 2.418l2.6.624c3.38.78 5.07 2.548 5.07 5.382Zm16.579-2.184c0 4.966-2.6 7.384-6.916 7.384-4.342 0-6.942-2.418-6.942-7.384V4.06h2.938v11.154c0 3.12 1.508 4.628 4.004 4.628 2.496 0 3.978-1.508 3.978-4.628V4.06h2.938v10.816ZM181.848 22h-3.016l5.928-17.94h5.59L196.252 22h-2.99l-1.664-5.044h-8.086L181.848 22Zm5.694-17.368-3.25 9.88h6.5l-3.25-9.88ZM209.062 22h-10.738V4.06h2.938v15.522h7.8V22Zm10.164 0h-2.938V4.06h2.938V22Zm7.052 0h-2.938V4.06h5.746l4.238 17.368 4.238-17.368h5.746V22h-2.938V4.632L236.158 22h-5.668l-4.212-17.368V22Zm24.065 0h-2.938V4.06h6.136c4.498 0 7.306 2.028 7.306 5.486 0 3.484-2.808 5.512-7.306 5.512h-3.198V22Zm3.484-15.522h-3.484v6.162h3.484c2.522 0 3.952-1.118 3.952-3.094 0-1.976-1.43-3.068-3.952-3.068ZM263.29 22h-3.016l5.928-17.94h5.59L277.694 22h-2.99l-1.664-5.044h-8.086L263.29 22Zm5.694-17.368-3.25 9.88h6.5l-3.25-9.88ZM294.983 15.5c-.624 4.108-3.952 6.76-8.086 6.76-4.966 0-8.476-3.952-8.476-9.23 0-5.122 3.432-9.23 8.398-9.23 4.134 0 7.436 2.678 8.034 6.786h-3.042c-.494-2.808-2.236-4.368-4.888-4.368-3.276 0-5.408 2.678-5.408 6.812 0 4.186 2.21 6.812 5.59 6.812 2.548 0 4.394-1.586 4.836-4.342h3.042Zm9.287 6.5h-2.938V6.478h-5.824V4.06h14.56v2.418h-5.798V22ZM327.686 25.074V4.324h2.536v20.75h-2.536Z"/></svg>