<svg width="24" height="24" viewBox="0 0 24 24" fill="none" xmlns="http://www.w3.org/2000/svg">
<g clip-path="url(#clip0_326_1058)">
<mask id="mask0_326_1058" style="mask-type:luminance" maskUnits="userSpaceOnUse" x="3" y="3" width="18" height="18">
<path d="M21 12C21 16.9706 16.9706 21.0001 11.9999 21.0001C7.02944 21.0001 3 16.9706 3 12C3 7.02952 7.02944 3 11.9999 3C16.9706 3 21 7.02952 21 12Z" fill="white"/>
</mask>
<g mask="url(#mask0_326_1058)">
<path d="M25.9074 8.99287H-1.61719V2.92188H25.9074V8.99287Z" fill="#FF9933"/>
<path d="M25.9074 15.0709H-1.61719V9H25.9074V15.0709Z" fill="white"/>
<path d="M25.9073 21.1646H-1.61719V15.0938H25.9073V21.1646Z" fill="#108808"/>
<path d="M12.1525 14.2141C10.9729 14.2141 10.0167 13.258 10.0167 12.0784C10.0167 10.8988 10.9729 9.94248 12.1525 9.94248C13.332 9.94248 14.2883 10.8988 14.2883 12.0784C14.2883 13.258 13.332 14.2141 12.1525 14.2141ZM12.1525 9.64844C10.8105 9.64844 9.72266 10.7363 9.72266 12.0784C9.72266 13.4203 10.8105 14.5082 12.1525 14.5082C13.4944 14.5082 14.5823 13.4203 14.5823 12.0784C14.5823 10.7363 13.4944 9.64844 12.1525 9.64844Z" fill="#060088"/>
<path d="M12.6044 12.0931C12.6044 12.3345 12.4088 12.5302 12.1674 12.5302C11.9261 12.5302 11.7305 12.3345 11.7305 12.0931C11.7305 11.8518 11.9261 11.6562 12.1674 11.6562C12.4088 11.6562 12.6044 11.8518 12.6044 12.0931Z" fill="#060088"/>
<path d="M12.1494 11.6999L12.1005 11.3732C12.1005 11.3732 12.0678 11.2098 12.1005 10.9158C12.1331 10.6217 12.1576 9.97656 12.1576 9.97656L12.223 10.9322C12.223 10.9322 12.2556 11.1936 12.223 11.3651L12.174 11.6999H12.1494Z" fill="#060088"/>
<path d="M12.0513 11.7136L11.9194 11.4108C11.9194 11.4108 11.8456 11.2614 11.8011 10.969C11.7566 10.6765 11.6133 10.0469 11.6133 10.0469L11.9237 10.953C11.9237 10.953 12.0228 11.1969 12.0357 11.3711L12.075 11.7073L12.0513 11.7136Z" fill="#060088"/>
<path d="M11.96 11.7543L11.7542 11.4959C11.7542 11.4959 11.6442 11.3709 11.5256 11.0998C11.4068 10.8289 11.1055 10.2578 11.1055 10.2578L11.6398 11.0528C11.6398 11.0528 11.7988 11.2627 11.8563 11.4276L11.9813 11.742L11.96 11.7543Z" fill="#060088"/>
<path d="M11.8807 11.8181L11.6152 11.6218C11.6152 11.6218 11.4764 11.5294 11.2916 11.2983C11.1069 11.0673 10.668 10.5938 10.668 10.5938L11.3898 11.2232C11.3898 11.2232 11.5978 11.385 11.6959 11.5294L11.8981 11.8008L11.8807 11.8181Z" fill="#060088"/>
<path d="M11.8243 11.9L11.5169 11.7791C11.5169 11.7791 11.3591 11.7257 11.1207 11.5504C10.8825 11.3751 10.3359 11.0312 10.3359 11.0312L11.1961 11.4525C11.1961 11.4525 11.4388 11.5549 11.5711 11.6689L11.8366 11.8788L11.8243 11.9Z" fill="#060088"/>
<path d="M11.7915 11.993L11.4632 11.9558C11.4632 11.9558 11.2969 11.945 11.0214 11.8374C10.7458 11.7297 10.1289 11.5391 10.1289 11.5391L11.0689 11.7232C11.0689 11.7232 11.3298 11.7594 11.487 11.8353L11.7978 11.9693L11.7915 11.993Z" fill="#060088"/>
<path d="M11.782 12.088L11.4553 12.1371C11.4553 12.1371 11.2919 12.1697 10.9979 12.1371C10.7039 12.1043 10.0586 12.0798 10.0586 12.0798L11.0143 12.0145C11.0143 12.0145 11.2755 11.9818 11.447 12.0145L11.782 12.0635V12.088Z" fill="#060088"/>
<path d="M11.7956 12.1877L11.4927 12.3196C11.4927 12.3196 11.3434 12.3934 11.0509 12.438C10.7585 12.4826 10.1289 12.6259 10.1289 12.6259L11.035 12.3155C11.035 12.3155 11.279 12.2163 11.4531 12.2035L11.7893 12.1641L11.7956 12.1877Z" fill="#060088"/>
<path d="M11.8364 12.279L11.5779 12.4849C11.5779 12.4849 11.4528 12.5948 11.1818 12.7135C10.9109 12.8322 10.3398 13.1336 10.3398 13.1336L11.1347 12.5992C11.1347 12.5992 11.3448 12.4403 11.5097 12.3828L11.8241 12.2578L11.8364 12.279Z" fill="#060088"/>
<path d="M11.9002 12.3534L11.7038 12.619C11.7038 12.619 11.6114 12.7575 11.3804 12.9423C11.1494 13.1272 10.6758 13.5661 10.6758 13.5661L11.3053 12.8442C11.3053 12.8442 11.4671 12.6363 11.6114 12.5381L11.8828 12.3359L11.9002 12.3534Z" fill="#060088"/>
<path d="M11.9821 12.4107L11.8611 12.7181C11.8611 12.7181 11.8077 12.8759 11.6324 13.1143C11.4571 13.3526 11.1133 13.8991 11.1133 13.8991L11.5345 13.0389C11.5345 13.0389 11.6368 12.7962 11.7509 12.6639L11.9608 12.3984L11.9821 12.4107Z" fill="#060088"/>
<path d="M12.075 12.4438L12.0379 12.772C12.0379 12.772 12.0271 12.9383 11.9194 13.2139C11.8118 13.4895 11.6211 14.1064 11.6211 14.1064L11.8054 13.1664C11.8054 13.1664 11.8414 12.9054 11.9175 12.7483L12.0514 12.4375L12.075 12.4438Z" fill="#060088"/>
<path d="M12.174 12.4609L12.223 12.7876C12.223 12.7876 12.2556 12.951 12.223 13.245C12.1903 13.539 12.1658 14.1843 12.1658 14.1843L12.1005 13.2286C12.1005 13.2286 12.0678 12.9674 12.1005 12.7959L12.1494 12.4609H12.174Z" fill="#060088"/>
<path d="M12.2698 12.4375L12.4017 12.7404C12.4017 12.7404 12.4755 12.8898 12.5201 13.1822C12.5646 13.4747 12.708 14.1042 12.708 14.1042L12.3975 13.1981C12.3975 13.1981 12.2983 12.9542 12.2854 12.78L12.2461 12.4439L12.2698 12.4375Z" fill="#060088"/>
<path d="M12.3611 12.3984L12.5668 12.6569C12.5668 12.6569 12.6768 12.782 12.7956 13.053C12.9143 13.3239 13.2157 13.8949 13.2157 13.8949L12.6813 13.1001C12.6813 13.1001 12.5222 12.89 12.4648 12.7252L12.3398 12.4107L12.3611 12.3984Z" fill="#060088"/>
<path d="M12.4353 12.3359L12.7009 12.5323C12.7009 12.5323 12.8396 12.6248 13.0244 12.8558C13.2092 13.0867 13.6481 13.5604 13.6481 13.5604L12.9261 12.9308C12.9261 12.9308 12.7183 12.7692 12.6201 12.6248L12.418 12.3534L12.4353 12.3359Z" fill="#060088"/>
<path d="M12.4966 12.2578L12.8041 12.3787C12.8041 12.3787 12.962 12.4322 13.2002 12.6073C13.4384 12.7827 13.985 13.1266 13.985 13.1266L13.1248 12.7054C13.1248 12.7054 12.8821 12.6029 12.7499 12.4889L12.4844 12.279L12.4966 12.2578Z" fill="#060088"/>
<path d="M12.5297 12.1641L12.858 12.2013C12.858 12.2013 13.0242 12.212 13.2998 12.3197C13.5753 12.4273 14.1922 12.618 14.1922 12.618L13.2522 12.4338C13.2522 12.4338 12.9914 12.3977 12.8341 12.3218L12.5234 12.1877L12.5297 12.1641Z" fill="#060088"/>
<path d="M12.5391 12.0635L12.8658 12.0145C12.8658 12.0145 13.0291 11.9818 13.3231 12.0145C13.6171 12.0472 14.2624 12.0717 14.2624 12.0717L13.3068 12.1371C13.3068 12.1371 13.0454 12.1697 12.8739 12.1371L12.5391 12.088V12.0635Z" fill="#060088"/>
<path d="M12.5234 11.9694L12.8264 11.8375C12.8264 11.8375 12.9757 11.7637 13.2681 11.7192C13.5606 11.6745 14.1901 11.5312 14.1901 11.5312L13.2841 11.8417C13.2841 11.8417 13.04 11.9409 12.866 11.9538L12.5297 11.9931L12.5234 11.9694Z" fill="#060088"/>
<path d="M12.4844 11.8781L12.7428 11.6723C12.7428 11.6723 12.8679 11.5623 13.1389 11.4435C13.41 11.3248 13.9809 11.0234 13.9809 11.0234L13.1861 11.5578C13.1861 11.5578 12.9761 11.7168 12.8111 11.7743L12.4966 11.8993L12.4844 11.8781Z" fill="#060088"/>
<path d="M12.418 11.7988L12.6143 11.5331C12.6143 11.5331 12.7067 11.3945 12.9378 11.2097C13.1688 11.0249 13.6424 10.5859 13.6424 10.5859L13.0128 11.3079C13.0128 11.3079 12.8511 11.5158 12.7067 11.614L12.4353 11.8161L12.418 11.7988Z" fill="#060088"/>
<path d="M12.3398 11.7383L12.4608 11.4309C12.4608 11.4309 12.5141 11.2732 12.6894 11.0349C12.8647 10.7965 13.2086 10.25 13.2086 10.25L12.7873 11.1103C12.7873 11.1103 12.685 11.353 12.571 11.4851L12.3611 11.7506L12.3398 11.7383Z" fill="#060088"/>
<path d="M12.2461 11.7094L12.2833 11.3812C12.2833 11.3812 12.2941 11.2149 12.4017 10.9394C12.5094 10.6638 12.7 10.0469 12.7 10.0469L12.5158 10.9868C12.5158 10.9868 12.4797 11.2478 12.4038 11.405L12.2698 11.7157L12.2461 11.7094Z" fill="#060088"/>
<path d="M11.9857 9.95001C11.9857 10.0086 11.9382 10.0562 11.8796 10.0562C11.8209 10.0562 11.7734 10.0086 11.7734 9.95001C11.7734 9.89126 11.8209 9.84375 11.8796 9.84375C11.9382 9.84375 11.9857 9.89126 11.9857 9.95001Z" fill="#060088"/>
<path d="M11.4393 10.0709C11.4544 10.1276 11.4207 10.1858 11.3642 10.201C11.3075 10.2161 11.2492 10.1825 11.2341 10.1259C11.2189 10.0692 11.2525 10.011 11.3092 9.99578C11.3658 9.98074 11.424 10.0143 11.4393 10.0709Z" fill="#060088"/>
<path d="M10.9404 10.3266C10.9696 10.3773 10.9522 10.4422 10.9015 10.4716C10.8507 10.5009 10.7857 10.4836 10.7564 10.4327C10.7272 10.3819 10.7445 10.317 10.7952 10.2876C10.8461 10.2584 10.911 10.2758 10.9404 10.3266Z" fill="#060088"/>
<path d="M10.5249 10.703C10.5665 10.7444 10.5665 10.8117 10.5249 10.8532C10.4835 10.8946 10.4163 10.8946 10.3749 10.8532C10.3334 10.8117 10.3334 10.7444 10.3749 10.703C10.4163 10.6615 10.4835 10.6615 10.5249 10.703Z" fill="#060088"/>
<path d="M10.2217 11.1705C10.2726 11.1998 10.29 11.2648 10.2606 11.3156C10.2313 11.3664 10.1663 11.3837 10.1156 11.3544C10.0648 11.3251 10.0474 11.2601 10.0768 11.2093C10.106 11.1586 10.171 11.1412 10.2217 11.1705Z" fill="#060088"/>
<path d="M10.0517 11.699C10.1083 11.7142 10.1419 11.7724 10.1268 11.829C10.1116 11.8857 10.0534 11.9193 9.99667 11.9041C9.94004 11.8889 9.90648 11.8307 9.92159 11.774C9.93682 11.7173 9.995 11.6838 10.0517 11.699Z" fill="#060088"/>
<path d="M10.0241 12.2578C10.0827 12.2578 10.1302 12.3053 10.1302 12.3639C10.1302 12.4226 10.0827 12.4701 10.0241 12.4701C9.96548 12.4701 9.91797 12.4226 9.91797 12.3639C9.91797 12.3053 9.96548 12.2578 10.0241 12.2578Z" fill="#060088"/>
<path d="M10.1412 12.8083C10.1979 12.7932 10.2561 12.8268 10.2714 12.8835C10.2864 12.94 10.2528 12.9984 10.1962 13.0135C10.1395 13.0286 10.0813 12.9951 10.0661 12.9384C10.0511 12.8817 10.0846 12.8236 10.1412 12.8083Z" fill="#060088"/>
<path d="M10.3969 13.3033C10.4476 13.2739 10.5125 13.2914 10.5419 13.3422C10.5712 13.3929 10.5538 13.4579 10.503 13.4872C10.4522 13.5164 10.3873 13.4991 10.358 13.4484C10.3286 13.3976 10.3461 13.3326 10.3969 13.3033Z" fill="#060088"/>
<path d="M10.7733 13.7186C10.8147 13.6771 10.882 13.6771 10.9235 13.7186C10.9649 13.76 10.9649 13.8273 10.9235 13.8687C10.882 13.9102 10.8147 13.9102 10.7733 13.8687C10.7318 13.8273 10.7318 13.76 10.7733 13.7186Z" fill="#060088"/>
<path d="M11.2447 14.0219C11.274 13.971 11.3389 13.9537 11.3897 13.983C11.4405 14.0123 11.4579 14.0773 11.4286 14.128C11.3992 14.1788 11.3343 14.1962 11.2835 14.167C11.2328 14.1376 11.2154 14.0726 11.2447 14.0219Z" fill="#060088"/>
<path d="M11.7771 14.1959C11.7923 14.1392 11.8505 14.1057 11.9071 14.1208C11.9638 14.1359 11.9974 14.1942 11.9822 14.2509C11.9671 14.3075 11.9088 14.3411 11.8522 14.326C11.7956 14.3107 11.7619 14.2526 11.7771 14.1959Z" fill="#060088"/>
<path d="M12.3359 14.2233C12.3359 14.1647 12.3834 14.1172 12.4421 14.1172C12.5007 14.1172 12.5483 14.1647 12.5483 14.2233C12.5483 14.282 12.5007 14.3296 12.4421 14.3296C12.3834 14.3296 12.3359 14.282 12.3359 14.2233Z" fill="#060088"/>
<path d="M12.8825 14.1025C12.8674 14.0457 12.901 13.9875 12.9576 13.9724C13.0143 13.9573 13.0725 13.9908 13.0877 14.0475C13.1028 14.1042 13.0692 14.1623 13.0126 14.1776C12.9559 14.1926 12.8977 14.1591 12.8825 14.1025Z" fill="#060088"/>
<path d="M13.3815 13.8468C13.3521 13.796 13.3695 13.7311 13.4203 13.7017C13.4711 13.6724 13.5359 13.6898 13.5653 13.7406C13.5947 13.7914 13.5773 13.8563 13.5265 13.8856C13.4756 13.915 13.4107 13.8975 13.3815 13.8468Z" fill="#060088"/>
<path d="M13.7928 13.4703C13.7514 13.4289 13.7514 13.3616 13.7928 13.3201C13.8342 13.2787 13.9015 13.2787 13.943 13.3201C13.9844 13.3616 13.9844 13.4289 13.943 13.4703C13.9015 13.5118 13.8342 13.5118 13.7928 13.4703Z" fill="#060088"/>
<path d="M14.0961 13.0029C14.0453 12.9735 14.0279 12.9086 14.0572 12.8578C14.0866 12.8069 14.1515 12.7897 14.2023 12.8189C14.2531 12.8483 14.2704 12.9132 14.2412 12.964C14.2118 13.0147 14.1469 13.0321 14.0961 13.0029Z" fill="#060088"/>
<path d="M14.2701 12.4666C14.2134 12.4514 14.1799 12.3931 14.1951 12.3366C14.2102 12.2799 14.2685 12.2462 14.3251 12.2615C14.3817 12.2767 14.4154 12.3348 14.4002 12.3915C14.385 12.4482 14.3268 12.4818 14.2701 12.4666Z" fill="#060088"/>
<path d="M14.2975 11.9076C14.239 11.9076 14.1914 11.8601 14.1914 11.8014C14.1914 11.7428 14.239 11.6953 14.2975 11.6953C14.3563 11.6953 14.4038 11.7428 14.4038 11.8014C14.4038 11.8601 14.3563 11.9076 14.2975 11.9076Z" fill="#060088"/>
<path d="M14.1767 11.365C14.12 11.3802 14.0617 11.3465 14.0466 11.2899C14.0314 11.2333 14.065 11.175 14.1216 11.1599C14.1783 11.1447 14.2365 11.1782 14.2518 11.2349C14.2669 11.2916 14.2332 11.3498 14.1767 11.365Z" fill="#060088"/>
<path d="M13.921 10.8622C13.8702 10.8916 13.8053 10.8742 13.7759 10.8234C13.7467 10.7726 13.764 10.7077 13.8148 10.6783C13.8656 10.649 13.9305 10.6664 13.9599 10.7172C13.9892 10.768 13.9718 10.8329 13.921 10.8622Z" fill="#060088"/>
<path d="M13.5445 10.4546C13.5031 10.4961 13.4358 10.4961 13.3944 10.4546C13.3529 10.4132 13.3529 10.3459 13.3944 10.3045C13.4358 10.2631 13.5031 10.2631 13.5445 10.3045C13.586 10.3459 13.586 10.4132 13.5445 10.4546Z" fill="#060088"/>
<path d="M13.0771 10.1515C13.0477 10.2023 12.9828 10.2196 12.932 10.1904C12.8813 10.161 12.8638 10.0961 12.8931 10.0453C12.9225 9.99455 12.9874 9.97713 13.0382 10.0064C13.089 10.0358 13.1063 10.1007 13.0771 10.1515Z" fill="#060088"/>
<path d="M12.5447 9.9774C12.5296 10.0341 12.4713 10.0677 12.4147 10.0525C12.3581 10.0374 12.3244 9.97913 12.3396 9.9225C12.3548 9.86586 12.413 9.83218 12.4696 9.84741C12.5263 9.86258 12.5599 9.92083 12.5447 9.9774Z" fill="#060088"/>
</g>
</g>
<defs>
<clipPath id="clip0_326_1058">
<rect width="18" height="18" fill="white" transform="translate(3 3)"/>
</clipPath>
</defs>
</svg>
