<svg width="196" height="172" viewBox="0 0 196 172" fill="none" xmlns="http://www.w3.org/2000/svg">
<path d="M194.943 55.5772C194.804 55.3569 194.639 55.1436 194.445 54.9508L103.356 2.60076C100.053 -0.0490919 95.3461 -0.0353259 92.0495 2.62141L1.47207 55.0197C1.26474 55.2262 1.09196 55.4602 0.953738 55.7011C0.359379 56.4926 0 57.4768 0 58.5436V167.256C0 168.716 0.66347 170.023 1.70705 170.891C2.53639 171.579 3.60762 171.999 4.76869 171.999H191.231C192.392 171.999 193.464 171.579 194.293 170.891C195.337 170.016 196 168.716 196 167.256V58.5368C196 57.4149 195.599 56.3893 194.949 55.5772H194.943Z" fill="#FF9A9A"/>
<path d="M174.284 154.875V8.84476C174.284 3.95994 170.324 0 165.44 0H30.5518C25.667 0 21.707 3.95994 21.707 8.84476V154.875C21.707 157.08 23.5017 158.867 25.7155 158.867H170.276C172.49 158.867 174.284 157.08 174.284 154.875Z" fill="#EF001C"/>
<path d="M195.993 58.5368V167.25C195.993 168.709 195.33 170.016 194.286 170.884C193.457 171.572 192.385 171.992 191.224 171.992H4.76869C3.60762 171.992 2.53639 171.572 1.70705 170.884C0.66347 170.01 0 168.709 0 167.25V58.5368C0 57.1327 0.622003 55.8663 1.60338 54.9922L84.0671 122.168L91.7592 127.942C95.4567 130.709 100.543 130.709 104.234 127.942L111.926 122.168L194.39 54.9922C195.371 55.8663 195.993 57.1327 195.993 58.5368Z" fill="#FFE6E6"/>
<path d="M194.293 170.89C193.464 171.578 192.392 171.998 191.231 171.998H4.76867C3.6076 171.998 2.53637 171.578 1.70703 170.89L94.0883 110.315C96.4588 108.76 99.5343 108.76 101.912 110.315L194.293 170.89Z" fill="#FFC0C0"/>
<path d="M75.332 57.6491L89.0161 71.5129L120.946 39.1641" stroke="white" stroke-width="6.19134" stroke-linecap="round" stroke-linejoin="round"/>
</svg>
