<svg width="192" height="192" viewBox="0 0 192 192" fill="none" xmlns="http://www.w3.org/2000/svg">
<g clip-path="url(#clip0_4371_2073)">
<path d="M176.47 49.5518L152.935 39.0824L142.456 15.5382L116.844 18.213L96.006 3.10156L75.1563 18.213L49.5557 15.5382L39.0848 39.0718L15.5406 49.5518L18.2169 75.1645L3.10547 96.0021L18.2169 116.852L15.5406 142.452L39.0757 152.922L49.5557 176.466L75.1684 173.791L96.006 188.903L116.856 173.791L142.456 176.466L152.926 152.931L176.47 142.452L173.793 116.84L188.906 96.0021L173.793 75.1524L176.47 49.5518ZM77.4259 133.162L51.1343 106.871L59.8982 98.1386L77.4259 115.635L129.976 63.0847L138.74 71.847L77.4259 133.162Z" fill="#74F67C"/>
<circle cx="96" cy="96" r="96" fill="#24D327"/>
<path d="M135.136 68L82.011 121.125L57.8633 96.9773" stroke="white" stroke-width="9.65909" stroke-linecap="round" stroke-linejoin="round"/>
</g>
<defs>
<clipPath id="clip0_4371_2073">
<rect width="192" height="192" fill="white"/>
</clipPath>
</defs>
</svg>
