<svg width="75" height="10" viewBox="0 0 75 10" fill="none" xmlns="http://www.w3.org/2000/svg">
<g clip-path="url(#clip0_4735_976)">
<path d="M75 1.89966H0.25V5.22188H75V1.89966Z" fill="#FFF860"/>
<path fill-rule="evenodd" clip-rule="evenodd" d="M8.06722 5.74309H6.23072V7.39047H8.11861C8.82039 7.39047 9.24306 7.13367 9.24306 6.57744V6.55579C9.24306 6.05318 8.88206 5.74309 8.06722 5.74309ZM8.84095 3.56046C8.84095 3.06851 8.46966 2.7904 7.79904 2.7904H6.23072V4.37383H7.69594C8.39708 4.37383 8.84095 4.13834 8.84095 3.58211V3.56046ZM4.68359 1.34619H8.03607C8.86182 1.34619 9.51157 1.58134 9.92397 2.00934C10.2545 2.35141 10.4192 2.76875 10.4192 3.28235V3.304C10.4192 4.149 9.98628 4.61963 9.47014 4.91907C10.3058 5.25081 10.8217 5.75375 10.8217 6.7593V6.78061C10.8217 8.15021 9.7486 8.83467 8.11861 8.83467H4.68359V1.34619Z" fill="black"/>
<path fill-rule="evenodd" clip-rule="evenodd" d="M8.06722 5.74309H6.23072V7.39047H8.11861C8.82039 7.39047 9.24306 7.13367 9.24306 6.57744V6.55579C9.24306 6.05318 8.88206 5.74309 8.06722 5.74309ZM8.84095 3.56046C8.84095 3.06851 8.46966 2.7904 7.79904 2.7904H6.23072V4.37383H7.69594C8.39708 4.37383 8.84095 4.13834 8.84095 3.58211V3.56046ZM4.68359 1.34619H8.03607C8.86182 1.34619 9.51157 1.58134 9.92397 2.00934C10.2545 2.35141 10.4192 2.76875 10.4192 3.28235V3.304C10.4192 4.149 9.98628 4.61963 9.47014 4.91907C10.3058 5.25081 10.8217 5.75375 10.8217 6.7593V6.78061C10.8217 8.15021 9.7486 8.83467 8.11861 8.83467H4.68359V1.34619Z" stroke="black" stroke-width="0.359907"/>
<path fill-rule="evenodd" clip-rule="evenodd" d="M17.8484 4.98335C18.6221 4.98335 19.0657 4.55568 19.0657 3.92418V3.90286C19.0657 3.19708 18.5913 2.83303 17.8172 2.83303H16.2389V4.98335H17.8484ZM14.6504 1.34619H17.9515C18.8697 1.34619 19.5815 1.61365 20.0558 2.1056C20.4583 2.52294 20.6751 3.11148 20.6751 3.81726V3.83858C20.6751 5.04763 20.0459 5.80737 19.1273 6.1601L20.8919 8.83467H19.0345L17.4874 6.43821H16.2389V8.83467H14.6504V1.34619Z" fill="black"/>
<path fill-rule="evenodd" clip-rule="evenodd" d="M17.8484 4.98335C18.6221 4.98335 19.0657 4.55568 19.0657 3.92418V3.90286C19.0657 3.19708 18.5913 2.83303 17.8172 2.83303H16.2389V4.98335H17.8484ZM14.6504 1.34619H17.9515C18.8697 1.34619 19.5815 1.61365 20.0558 2.1056C20.4583 2.52294 20.6751 3.11148 20.6751 3.81726V3.83858C20.6751 5.04763 20.0459 5.80737 19.1273 6.1601L20.8919 8.83467H19.0345L17.4874 6.43821H16.2389V8.83467H14.6504V1.34619Z" stroke="black" stroke-width="0.359907"/>
<path fill-rule="evenodd" clip-rule="evenodd" d="M25.7246 5.62551V1.34619H27.3132V5.58255C27.3132 6.80226 27.9012 7.43344 28.8712 7.43344C29.8405 7.43344 30.4286 6.82391 30.4286 5.63617V1.34619H32.0175V5.57189C32.0175 7.83978 30.7899 8.95258 28.8503 8.95258C26.9107 8.95258 25.7246 7.82913 25.7246 5.62551Z" fill="black"/>
<path fill-rule="evenodd" clip-rule="evenodd" d="M25.7246 5.62551V1.34619H27.3132V5.58255C27.3132 6.80226 27.9012 7.43344 28.8712 7.43344C29.8405 7.43344 30.4286 6.82391 30.4286 5.63617V1.34619H32.0175V5.57189C32.0175 7.83978 30.7899 8.95258 28.8503 8.95258C26.9107 8.95258 25.7246 7.82913 25.7246 5.62551Z" stroke="black" stroke-width="0.359907"/>
<path fill-rule="evenodd" clip-rule="evenodd" d="M36.2461 5.24015V5.21883C36.2461 3.08983 37.7935 1.34619 40.0116 1.34619C41.3734 1.34619 42.1882 1.81682 42.8589 2.50129L41.8478 3.71034C41.2909 3.18609 40.7233 2.865 40.001 2.865C38.7837 2.865 37.9072 3.91385 37.9072 5.19718V5.21883C37.9072 6.5025 38.7635 7.57233 40.001 7.57233C40.8268 7.57233 41.332 7.23026 41.8995 6.69501L42.9106 7.75418C42.1677 8.57787 41.3423 9.09147 39.9496 9.09147C37.8244 9.09147 36.2461 7.39047 36.2461 5.24015Z" fill="black"/>
<path fill-rule="evenodd" clip-rule="evenodd" d="M36.2461 5.24015V5.21883C36.2461 3.08983 37.7935 1.34619 40.0116 1.34619C41.3734 1.34619 42.1882 1.81682 42.8589 2.50129L41.8478 3.71034C41.2909 3.18609 40.7233 2.865 40.001 2.865C38.7837 2.865 37.9072 3.91385 37.9072 5.19718V5.21883C37.9072 6.5025 38.7635 7.57233 40.001 7.57233C40.8268 7.57233 41.332 7.23026 41.8995 6.69501L42.9106 7.75418C42.1677 8.57787 41.3423 9.09147 39.9496 9.09147C37.8244 9.09147 36.2461 7.39047 36.2461 5.24015Z" stroke="black" stroke-width="0.359907"/>
<path fill-rule="evenodd" clip-rule="evenodd" d="M47.3184 8.83467H48.9069V1.34619H47.3184V8.83467Z" fill="black"/>
<path fill-rule="evenodd" clip-rule="evenodd" d="M47.3184 8.83467H48.9069V1.34619H47.3184V8.83467Z" stroke="black" stroke-width="0.359907"/>
<path fill-rule="evenodd" clip-rule="evenodd" d="M56.6081 4.98335C57.3819 4.98335 57.8254 4.55568 57.8254 3.92418V3.90286C57.8254 3.19708 57.351 2.83303 56.577 2.83303H54.9987V4.98335H56.6081ZM53.4102 1.34619H56.7112C57.6295 1.34619 58.3412 1.61365 58.8159 2.1056C59.2181 2.52294 59.4349 3.11148 59.4349 3.81726V3.83858C59.4349 5.04763 58.8057 5.80737 57.8871 6.1601L59.6516 8.83467H57.7943L56.2471 6.43821H54.9987V8.83467H53.4102V1.34619Z" fill="black"/>
<path fill-rule="evenodd" clip-rule="evenodd" d="M56.6081 4.98335C57.3819 4.98335 57.8254 4.55568 57.8254 3.92418V3.90286C57.8254 3.19708 57.351 2.83303 56.577 2.83303H54.9987V4.98335H56.6081ZM53.4102 1.34619H56.7112C57.6295 1.34619 58.3412 1.61365 58.8159 2.1056C59.2181 2.52294 59.4349 3.11148 59.4349 3.81726V3.83858C59.4349 5.04763 58.8057 5.80737 57.8871 6.1601L59.6516 8.83467H57.7943L56.2471 6.43821H54.9987V8.83467H53.4102V1.34619Z" stroke="black" stroke-width="0.359907"/>
<path fill-rule="evenodd" clip-rule="evenodd" d="M68.696 5.75375L67.7366 3.32531L66.7769 5.75375H68.696ZM67.0249 1.34619H68.4895L71.5844 8.8883H69.9235L69.2635 7.20861H66.2097L65.5494 8.8883H63.9297L67.0249 1.34619Z" fill="black"/>
<path fill-rule="evenodd" clip-rule="evenodd" d="M68.696 5.75375L67.7366 3.32531L66.7769 5.75375H68.696ZM67.0249 1.34619H68.4895L71.5844 8.8883H69.9235L69.2635 7.20861H66.2097L65.5494 8.8883H63.9297L67.0249 1.34619Z" stroke="black" stroke-width="0.359907"/>
</g>
<defs>
<clipPath id="clip0_4735_976">
<rect width="74.75" height="8.85926" fill="white" transform="translate(0.25 0.79248)"/>
</clipPath>
</defs>
</svg>
