<svg xmlns="http://www.w3.org/2000/svg" width="171" height="37" fill="none" viewBox="0 0 171 37"><g clip-path="url(#a)"><path fill="#59595C" d="M61.05 10.04c.76 0 1.52.08 2.27.25.65.14 1.28.37 1.86.7v2.22c-.64-.25-1.31-.46-1.99-.62a8.43 8.43 0 0 0-1.86-.2c-.67 0-1.34.1-1.98.32-.66.22-1.26.59-1.76 1.07-.56.57-1 1.25-1.26 2a8.6 8.6 0 0 0-.48 3.06c0 .83.11 1.65.36 2.44a5.5 5.5 0 0 0 1.05 1.94c.48.56 1.08 1 1.75 1.28.77.31 1.6.47 2.43.45a11.27 11.27 0 0 0 4-.84v2.23a8.64 8.64 0 0 1-1.82.64 12.07 12.07 0 0 1-2.49.29 9.67 9.67 0 0 1-3.13-.5 7 7 0 0 1-2.58-1.53 7.22 7.22 0 0 1-1.7-2.62 10 10 0 0 1-.65-3.76c0-.98.1-1.96.34-2.9.2-.8.5-1.57.9-2.28a6.97 6.97 0 0 1 3.05-2.8c.59-.3 1.2-.5 1.84-.64.61-.13 1.23-.2 1.85-.2ZM79.5 25.03h-.06a6.06 6.06 0 0 1-1.99 1.54 7.05 7.05 0 0 1-5.26.34 4.7 4.7 0 0 1-2.82-2.7 5.85 5.85 0 0 1-.4-2.21c-.01-.76.14-1.5.44-2.2.28-.62.7-1.18 1.23-1.63a5.6 5.6 0 0 1 1.9-1.03c.8-.25 1.63-.38 2.47-.37a12.36 12.36 0 0 1 4.3.75h.07v-1.14c0-.4-.03-.8-.1-1.2a3.16 3.16 0 0 0-.28-.9 3.5 3.5 0 0 0-1.44-1.37 5.59 5.59 0 0 0-2.67-.55c-.78 0-1.57.07-2.34.24-.74.15-1.47.37-2.17.64V11a11.13 11.13 0 0 1 3.47-.9c.45-.04.91-.06 1.38-.06 1.65 0 3 .3 4.06.88a5.23 5.23 0 0 1 2.26 2.32c.18.4.3.8.37 1.23.08.48.11.96.11 1.45v10.91H79.8l-.28-1.8Zm-.13-5.38c-.5-.14-1.08-.27-1.75-.4a13.7 13.7 0 0 0-2.23-.2c-1.14 0-2.03.24-2.67.72-.64.49-.96 1.23-.96 2.23 0 .45.08.9.24 1.31.15.36.37.69.66.95.29.25.63.44 1 .55.4.13.8.19 1.22.18.55 0 1.08-.09 1.6-.26a6.8 6.8 0 0 0 2.3-1.28l.59-.53v-3.27ZM100.6 18.46c.01 1.02-.1 2.04-.34 3.03-.2.8-.5 1.58-.9 2.3a6.4 6.4 0 0 1-1.29 1.65 7.2 7.2 0 0 1-3.16 1.65 7.16 7.16 0 0 1-4.16-.31 5.98 5.98 0 0 1-2-1.46h-.05v9.53h-2.6V10.47h2.01l.57 1.86h.05c.17-.24.36-.47.58-.67a6.28 6.28 0 0 1 4.2-1.6c.9-.01 1.8.15 2.66.46A5.9 5.9 0 0 1 98.44 12c.7.75 1.24 1.64 1.58 2.6.42 1.25.62 2.56.58 3.86Zm-2.8.04c.02-.86-.08-1.73-.3-2.57a5.58 5.58 0 0 0-.9-1.93 4.1 4.1 0 0 0-1.5-1.24 4.64 4.64 0 0 0-2.04-.43 4.94 4.94 0 0 0-2.76.8c-.35.2-.67.45-.95.74-.23.22-.45.45-.65.7v8.56a6.61 6.61 0 0 0 1.93 1.37c.74.33 1.53.5 2.34.5.55-.01 1.1-.1 1.61-.29.6-.2 1.14-.55 1.58-1.02.53-.57.93-1.25 1.19-1.98.34-1.04.5-2.12.46-3.2ZM104.5 6.66V3.68h2.68v2.98h-2.67Zm.08 20.18V10.47h2.67v16.36h-2.67ZM111.93 26.83V1.9h2.67v24.94h-2.67ZM118.85 26.83V1.9h2.67v24.94h-2.67ZM136.04 25.03h-.07a5.45 5.45 0 0 1-1.99 1.54 7.18 7.18 0 0 1-5.26.34 4.7 4.7 0 0 1-2.82-2.7 5.91 5.91 0 0 1 .04-4.4c.28-.63.7-1.2 1.23-1.64a5.6 5.6 0 0 1 1.9-1.03c.8-.25 1.63-.38 2.47-.37a12.4 12.4 0 0 1 4.3.75h.07v-1.14c0-.4-.03-.8-.1-1.2a3.09 3.09 0 0 0-.28-.9 3.51 3.51 0 0 0-1.44-1.37 5.54 5.54 0 0 0-2.66-.55c-.78 0-1.57.07-2.34.24-.74.15-1.47.37-2.18.64V11a11.16 11.16 0 0 1 3.47-.9c.47-.04.92-.06 1.38-.06 1.66 0 3.01.3 4.06.88a5.24 5.24 0 0 1 2.27 2.32c.18.4.3.8.37 1.23.08.48.11.96.11 1.45v10.91h-2.24l-.3-1.8Zm-.14-5.38c-.5-.14-1.08-.26-1.75-.4-.74-.13-1.49-.2-2.24-.2-1.13 0-2.01.24-2.66.72-.64.49-.96 1.23-.96 2.23 0 .45.08.9.25 1.31a2.56 2.56 0 0 0 1.65 1.5 4.95 4.95 0 0 0 2.82-.08 6.9 6.9 0 0 0 2.3-1.3l.59-.52v-3.26ZM151.88 12.64h-.21c-.63 0-1.25.06-1.86.17-.6.11-1.17.29-1.72.53-.52.22-1 .51-1.44.86-.43.34-.8.76-1.08 1.22v11.41h-2.68V10.47h2.07l.53 2.6h.05a6.7 6.7 0 0 1 5.68-3.03h.35l.32.02-.01 2.58ZM154.77 10.48h2.68l5.08 12.83h.1l5.23-12.83h2.67l-10.15 24.37h-2.65l3.5-8.33-6.46-16.04Z"/><path fill="url(#b)" fill-rule="evenodd" d="M24.34 4.69c.84.59 1.94 1.37 2.84 2.07C38.86.63 46.28 10.8 39.03 17.32c-.94.81-1.97 1.52-3.06 2.1-3.69 2.09-9.16 4.96-10.4 9.47-.66 2.37.07 5.17 2.04 6.66a6.24 6.24 0 0 0 5.19.95c6.71-1.4 8.57-8.56 6.56-14.17l-.05.03c.97-.61 1.9-1.28 2.8-2.01 16-13.2.6-28.02-17.77-15.66ZM35.8 24.37c.65 6.57-6.16 10.26-8.75 8.3-2.6-1.96 3.83-5.67 7.2-7.47l1.55-.83Z" clip-rule="evenodd"/><path fill="url(#c)" fill-rule="evenodd" d="M35.15 4.93V.26c-3.3.48-7 1.87-10.81 4.44.84.59 1.94 1.37 2.84 2.07 3-1.58 5.71-2.08 7.97-1.84Z" clip-rule="evenodd"/><path fill="url(#d)" fill-rule="evenodd" d="m39.36 22.32-3.56 2.04c.1 1 .02 2-.23 2.97v8.11c4.37-2.52 5.54-8.35 3.79-13.12Z" clip-rule="evenodd"/><path fill="url(#e)" fill-rule="evenodd" d="M27.64 7.12c-1.07-.84-2.1-1.73-3.23-2.5C5.1-8.47-11.03 9.04 9.66 22.45c.51-1.36 1.13-2.68 1.84-3.94C1.47 12.28 9.34.2 21.65 6.76c.86.41 10.53 6.17 13 13.42 1-.57 2.04-1.11 3.04-1.8-1.91-3.46-5.94-7.91-10.05-11.26Z" clip-rule="evenodd"/><path fill="url(#f)" fill-rule="evenodd" d="M32.77 11.92a9.34 9.34 0 0 1-1.64 1.3l-.64.42-.03.02a18.66 18.66 0 0 1 4.19 6.5c1-.56 2.04-1.1 3.04-1.8a35.35 35.35 0 0 0-4.92-6.44Z" clip-rule="evenodd"/><path fill="url(#g)" fill-rule="evenodd" d="M7.22 13.43c-.4.35-.83.67-1.28.95-.45.28-.92.55-1.38.82l-.7.4-.34.2-.34.22-.41.3a26.83 26.83 0 0 0 6.89 6.13 27.5 27.5 0 0 1 1.84-3.94c-2.37-1.47-3.73-3.27-4.28-5.08Z" clip-rule="evenodd"/><path fill="url(#h)" fill-rule="evenodd" d="M7.22 13.43c-.4.35-.83.67-1.28.95-.45.28-.92.55-1.38.82l-.7.4-.34.2-.34.22-.41.3a26.83 26.83 0 0 0 6.89 6.13 27.5 27.5 0 0 1 1.84-3.94c-2.37-1.47-3.73-3.27-4.28-5.08Z" clip-rule="evenodd"/><path fill="url(#i)" fill-rule="evenodd" d="m14.59 20.26.23-.49c1.89-3.9 5.87-8.29 9.67-11.2l-.74-.53c-.65-.46-1.33-.87-2.04-1.23a50.53 50.53 0 0 0-7.52 7.6c-2.49 3.24-5.53 7.37-5.53 12.72 0 4.32 2.25 8.3 7.37 9.37 1.78.4 3.86.17 5.36-.96a6.3 6.3 0 0 0 2.04-6.65c-1.4-4.64-8.84-8.63-8.84-8.63Zm7.39 12.23c-2.14 2.24-8.55-.89-8.93-6.36-.05-.56 0-1.12.13-1.67 1.08.53 11.22 5.46 8.8 8.02Z" clip-rule="evenodd"/><path fill="url(#j)" fill-rule="evenodd" d="M16.72 12.03a48.1 48.1 0 0 0 2.06 1.5l.26.16a39.83 39.83 0 0 1 5.46-5.13l-.74-.53c-.65-.46-1.33-.87-2.04-1.23a54.6 54.6 0 0 0-5.29 5l.3.23Z" clip-rule="evenodd"/><path fill="url(#k)" fill-rule="evenodd" d="M14.6 20.25a23.11 23.11 0 0 0-1.4 4.21 46.3 46.3 0 0 1 6.21 3.6h3.72c-1.94-4.28-8.52-7.8-8.52-7.8Z" clip-rule="evenodd"/><path fill="url(#l)" fill-rule="evenodd" d="M14.6 20.25a23.11 23.11 0 0 0-1.4 4.21 46.3 46.3 0 0 1 6.21 3.6h3.72c-1.94-4.28-8.52-7.8-8.52-7.8Z" clip-rule="evenodd"/></g><defs><linearGradient id="b" x1="41.49" x2="27.2" y1="-9.01" y2="39.17" gradientUnits="userSpaceOnUse"><stop stop-color="#F05A24"/><stop offset=".2" stop-color="#F05D24"/><stop offset=".32" stop-color="#F58E16"/><stop offset=".52" stop-color="#FDDB00"/><stop offset=".55" stop-color="#EAD707"/><stop offset=".65" stop-color="#AACA1F"/><stop offset=".75" stop-color="#78C031"/><stop offset=".83" stop-color="#54B83F"/><stop offset=".9" stop-color="#3EB447"/><stop offset=".94" stop-color="#36B24A"/></linearGradient><linearGradient id="c" x1="26.27" x2="32.92" y1="7.85" y2="2.01" gradientUnits="userSpaceOnUse"><stop stop-color="#CF4F27"/><stop offset=".32" stop-color="#D95226" stop-opacity=".69"/><stop offset="1" stop-color="#F05A24" stop-opacity="0"/></linearGradient><linearGradient id="d" x1="34.98" x2="37.12" y1="24.11" y2="28.21" gradientUnits="userSpaceOnUse"><stop stop-color="#76933C"/><stop offset="1" stop-color="#2E9C48" stop-opacity="0"/></linearGradient><linearGradient id="e" x1="10.24" x2="22.3" y1="-3.62" y2="22.26" gradientUnits="userSpaceOnUse"><stop stop-color="#1687C8"/><stop offset=".29" stop-color="#1687C8"/><stop offset=".3" stop-color="#1688C7"/><stop offset=".46" stop-color="#22979A"/><stop offset=".61" stop-color="#2AA377"/><stop offset=".76" stop-color="#31AB5E"/><stop offset=".89" stop-color="#35B04F"/><stop offset="1" stop-color="#36B24A"/></linearGradient><linearGradient id="f" x1="33.11" x2="36.9" y1="14.57" y2="20.32" gradientUnits="userSpaceOnUse"><stop stop-color="#36B24A" stop-opacity="0"/><stop offset=".14" stop-color="#2DAF4A" stop-opacity=".21"/><stop offset=".46" stop-color="#1AA84A" stop-opacity=".63"/><stop offset=".68" stop-color="#0EA44A" stop-opacity=".9"/><stop offset=".8" stop-color="#09A24A"/></linearGradient><linearGradient id="g" x1="14.22" x2="2.66" y1="21.51" y2="14.37" gradientUnits="userSpaceOnUse"><stop offset=".26" stop-color="#0EAB4B"/><stop offset=".39" stop-color="#10A366" stop-opacity=".78"/><stop offset=".67" stop-color="#148FAB" stop-opacity=".23"/><stop offset=".78" stop-color="#1687C8" stop-opacity="0"/></linearGradient><linearGradient id="h" x1="14.22" x2="2.66" y1="21.51" y2="14.37" gradientUnits="userSpaceOnUse"><stop offset=".26" stop-color="#038A45"/><stop offset=".41" stop-color="#088968" stop-opacity=".73"/><stop offset=".76" stop-color="#1587C2" stop-opacity=".05"/><stop offset=".78" stop-color="#1687C8" stop-opacity="0"/></linearGradient><linearGradient id="i" x1="25.74" x2="14.56" y1="38.79" y2="14.72" gradientUnits="userSpaceOnUse"><stop stop-color="#FDDB00"/><stop offset=".34" stop-color="#FDD901"/><stop offset=".52" stop-color="#FCD104"/><stop offset=".67" stop-color="#FAC308"/><stop offset=".79" stop-color="#F8B00F"/><stop offset=".9" stop-color="#F69818"/><stop offset=".98" stop-color="#F38020"/></linearGradient><linearGradient id="j" x1="22.59" x2="19.53" y1="7.24" y2="11.48" gradientUnits="userSpaceOnUse"><stop stop-color="#CF4F27"/><stop offset=".18" stop-color="#D75226" stop-opacity=".75"/><stop offset=".38" stop-color="#E05525" stop-opacity=".48"/><stop offset=".58" stop-color="#E75725" stop-opacity=".27"/><stop offset=".75" stop-color="#EC5924" stop-opacity=".12"/><stop offset=".9" stop-color="#EF5A24" stop-opacity=".03"/><stop offset="1" stop-color="#F05A24" stop-opacity="0"/></linearGradient><linearGradient id="k" x1="13.65" x2="20.41" y1="21.54" y2="27.8" gradientUnits="userSpaceOnUse"><stop stop-color="#67BB46"/><stop offset=".38" stop-color="#A9D033"/><stop offset=".56" stop-color="#CBDB2A"/><stop offset=".71" stop-color="#D8D91F"/><stop offset=".98" stop-color="#FAD502"/><stop offset="1" stop-color="#FDD500"/></linearGradient><linearGradient id="l" x1="13.65" x2="20.41" y1="21.54" y2="27.8" gradientUnits="userSpaceOnUse"><stop stop-color="#029347"/><stop offset=".17" stop-color="#3DA83E" stop-opacity=".7"/><stop offset=".34" stop-color="#70BA37" stop-opacity=".45"/><stop offset=".51" stop-color="#98C931" stop-opacity=".25"/><stop offset=".67" stop-color="#B4D32D" stop-opacity=".11"/><stop offset=".84" stop-color="#C5D92B" stop-opacity=".03"/><stop offset="1" stop-color="#CBDB2A" stop-opacity="0"/></linearGradient><clipPath id="a"><path fill="#fff" d="M0 0h170.53v36.68H0z"/></clipPath></defs></svg>