<svg xmlns="http://www.w3.org/2000/svg" width="144" height="36" fill="none"><path fill="#1E5AF6" d="M63.801 4h-4.974v25.636h4.974V4ZM20.136 26.337l-.127.177-.08.104-.053.068a7.222 7.222 0 0 1-.698.749c-.273.255-.568.498-.884.733-1.29.915-3.097 1.83-5.713 1.83C7.238 29.999 3 25.789 3 20.66c0-5.127 4.238-9.338 9.581-9.338 2.616 0 4.423.915 5.713 1.83.736.55 1.362 1.136 1.842 1.831l-3.132 3.114a6.018 6.018 0 0 0-.481-.515 7.083 7.083 0 0 0-.402-.353l-.138-.11-.093-.071-.066-.05c-.775-.55-1.88-1.098-3.243-1.098-2.58 0-4.607 2.013-4.607 4.76s2.028 4.762 4.607 4.762c1.364 0 2.468-.55 3.243-1.1.144-.106.283-.217.417-.332a6.22 6.22 0 0 0 .763-.766l3.132 3.113Z"/><path fill="#1E5AF6" fill-rule="evenodd" d="M31.373 11.322c5.345 0 9.582 4.211 9.582 9.338 0 5.128-4.237 9.339-9.582 9.339-5.343 0-9.581-4.21-9.581-9.339 0-5.127 4.238-9.338 9.581-9.338Zm4.607 9.338c0-2.746-2.027-4.76-4.607-4.76-2.579 0-4.607 2.014-4.607 4.76 0 2.747 2.028 4.762 4.607 4.762 2.58 0 4.607-2.015 4.607-4.762ZM83.864 27.996c-.272.187-.56.365-.864.539A11.738 11.738 0 0 1 77.252 30c-5.345 0-9.583-4.212-9.583-9.34 0-5.127 4.238-9.338 9.398-9.338 4.975 0 9.028 4.028 9.028 8.973 0 .54-.043.948-.082 1.292v.01l-.029.272-.073.623H72.83c.553 1.648 2.027 3.113 4.79 3.113 1.586 0 2.728-.44 3.575-.988.48-.294.885-.624 1.217-1.026l2.579 3.478c-.334.334-.71.64-1.126.927Zm-2.928-9.166c-.552-1.648-1.99-3.113-4.053-3.113-2.064 0-3.501 1.465-4.054 3.112h8.107ZM99.728 27.437h.185v2.196h4.974V18.464c0-3.993-3.132-7.142-7.738-7.142-2.397 0-4.202.878-5.492 1.759a9.454 9.454 0 0 0-1.879 1.72l2.949 2.931a5.473 5.473 0 0 1 1.069-.99 4.768 4.768 0 0 1 2.984-1.025c1.88 0 2.948 1.098 3.133 2.38L94.2 19.123c-3.353.586-5.343 2.82-5.343 5.75S91.068 30 94.385 30c1.733 0 3.095-.585 3.98-1.282.516-.366.959-.805 1.363-1.281Zm-3.87-5.128 4.055-.732v.366c0 2.38-1.658 4.029-3.87 4.029-1.474 0-2.21-.696-2.21-1.832 0-.916.736-1.574 2.025-1.831Z" clip-rule="evenodd"/><path fill="#1E5AF6" d="M109.675 11.688h4.974v2.564h.185a8.792 8.792 0 0 1 1.364-1.465c.884-.732 2.211-1.465 3.98-1.465h.369v5.31l-.407-.073-.184-.025c-.272-.037-.622-.084-1.069-.084-2.393 0-4.238 1.83-4.238 4.76v8.423h-4.974V11.688ZM128.656 11.688h-4.974v17.945h4.974v-9.522c0-2.38 1.659-4.028 3.871-4.028 2.063 0 3.317 1.282 3.317 3.48v10.07h4.973V18.83c0-4.577-2.948-7.508-6.633-7.508-1.03 0-1.911.249-2.641.6-.522.253-.97.559-1.339.865-.515.44-.958.915-1.362 1.465h-.186v-2.564Z"/><path fill="#FEE643" d="m52.466 20.646-6.08 4.755v-9.509l6.08 4.754Z"/></svg>