<svg xmlns="http://www.w3.org/2000/svg" width="66" height="66" fill="none" viewBox="0 0 66 66"><g clip-path="url(#a)"><path fill="#fff" d="M32.997 65.34c17.865 0 32.343-14.478 32.343-32.337C65.34 15.143 50.862.66 32.997.66 15.137.66.66 15.143.66 33.003c0 17.86 14.478 32.337 32.337 32.337Z"/><path fill="#3B73B9" d="M40.255 24.58c0-3.678 2.49-7.244 3.848-6.572 1.548.776-1.16 4.24-3.848 6.572Zm-16.93 1.34c0-2.957 2.918-8.575 4.7-7.981 2.107.702-1.745 6.369-4.7 7.98Zm-2.957 21.146c-1.341.06-2.24-.797-2.24-2.23 0-3.847 5.34-7.523 9.373-9.497-.716 5.373-2.53 11.52-7.133 11.727Zm24.634-12.539c-3.046 0-5.373 2.24-5.373 4.926 0 2.24 1.346 4.032 3.132 4.032.633 0 1.258-.36 1.258-1.16 0-1.171-1.544-1.453-1.428-3.194.078-1.148 1.16-1.916 2.235-1.916 2.148 0 3.152 2.081 3.152 4.23-.087 3.316-2.529 5.62-5.39 5.62-3.765 0-6.184-3.58-6.184-7.433 0-5.737 3.765-7.976 5.737-8.51.019 0 5.15.912 4.991-1.35-.074-.996-1.554-1.379-2.623-1.42-1.19-.046-2.39.382-2.39.382-.623-.317-1.056-.936-1.324-1.649 3.673-2.78 6.271-5.465 6.271-8.511 0-1.612-1.077-3.046-3.138-3.046-3.673 0-6.45 4.659-6.45 8.87 0 .714 0 1.433.184 2.059-2.33 1.7-4.064 2.76-7.196 4.64 0-.391.081-1.404.345-2.713 1.074-1.166 2.548-2.912 2.548-4.257 0-.626-.355-1.166-1.078-1.166-1.789 0-3.13 2.69-3.49 4.572-.806.99-2.419 2.244-3.765 2.244-1.073 0-1.434-.986-1.525-1.347 3.406-1.165 7.617-5.824 7.617-10.034 0-.894-.36-2.868-3.045-2.868-4.032 0-7.432 6.005-7.432 10.658-1.438 0-1.972-1.52-1.972-2.686 0-1.167.447-2.327.447-2.688 0-.359-.18-.805-.72-.805-1.34 0-2.147 1.791-2.147 3.852.093 2.867 1.972 4.664 4.479 4.84.359 1.703 1.88 3.316 3.76 3.316 1.166 0 2.598-.359 3.585-1.252a50.939 50.939 0 0 1-.267 1.7c-3.944 2.064-6.811 3.496-9.41 5.825-2.054 1.884-3.22 4.39-3.22 6.358 0 2.692 1.7 5.199 5.193 5.199 4.118 0 7.257-3.314 8.782-7.885.714-2.147 1-5.276 1.184-8.147 4.116-2.332 6.07-3.676 8.22-5.202.269.447.54.805.895 1.073-1.88.986-6.359 3.765-6.359 10.303 0 4.658 3.133 9.856 9.318 9.856 5.106 0 8.599-4.212 8.599-8.245-.002-3.67-2.062-7.07-6.007-7.07Zm15.403 7.696c-.014.028-.064.065-.165.032-.08-.028-.097-.065-.097-.117.004-.05 1.083-3.239 1.073-6.893-.009-3.95-1.611-6.369-3.667-6.369-1.258 0-2.152.9-2.152 2.246 0 2.418 2.954 2.599 2.954 7.883 0 2.147-.448 4.208-1.16 6.447-3.32 11.196-13.89 16.394-24.187 16.394-4.75 0-8.125-.977-9.128-1.427-.04-.024-.079-.102-.046-.18.022-.06.092-.106.133-.088.407.157 3.304 1.07 6.89 1.07 3.94 0 6.27-1.612 6.27-3.586a2.218 2.218 0 0 0-2.238-2.238c-2.42 0-2.603 3.045-7.797 3.045-2.239 0-4.211-.448-6.538-1.167C9.438 53.872 4.149 43.394 4.153 33.003c.004-5.064 1.424-9.096 1.446-9.133.019-.027.082-.056.16-.027.08.027.097.091.093.115-.128.42-1.07 3.31-1.07 6.894 0 3.945 1.612 6.272 3.673 6.272 1.161 0 2.147-.894 2.147-2.148 0-2.422-2.958-2.69-2.958-7.887 0-2.24.452-4.212 1.166-6.54C12.215 9.442 22.699 4.236 33 4.155c4.788-.037 8.976 1.397 9.137 1.525.028.023.056.084.028.157-.038.087-.094.096-.12.09-.05-.003-2.775-1.142-6.898-1.142-3.852-.004-6.272 1.609-6.272 3.672 0 1.162.9 2.148 2.24 2.148 2.419 0 2.598-2.955 7.796-2.955 2.234 0 4.207.443 6.534 1.162 11.202 3.404 16.298 13.975 16.395 24.19.053 5.232-1.422 9.189-1.436 9.222ZM33.003 2.185C15.98 2.185 2.186 15.976 2.186 33c0 17.022 13.795 30.813 30.817 30.813 17.017 0 30.812-13.791 30.812-30.813 0-16.933-13.795-30.816-30.812-30.816Zm0 63.155C15.175 65.34.66 50.918.66 33.003.66 15.169 15.175.66 33.003.66 50.825.66 65.34 15.17 65.34 33.003c0 17.915-14.515 32.337-32.337 32.337Z"/></g><defs><clipPath id="a"><path fill="#fff" d="M0 0h66v66H0z"/></clipPath></defs></svg>