<svg xmlns="http://www.w3.org/2000/svg" width="105" height="33" fill="none" viewBox="0 0 105 33"><path fill="#0D68B3" fill-rule="evenodd" d="M39.446.144c1.52 0 2.754 1.131 2.754 2.526 0 1.403-1.234 2.534-2.754 2.534-1.527 0-2.77-1.131-2.77-2.534 0-1.395 1.243-2.526 2.77-2.526Zm-2.308 7.543h4.667v15.781h-4.667V7.687Z" clip-rule="evenodd"/><path fill="#F36B21" fill-rule="evenodd" d="M11.492 16.573c-.554 5.212-7.412 4.923-6.48-1.965.285-2.125 1.695-4.124 4.205-3.452 2.04.553 2.544 2.874 2.275 5.417Zm-.042 4.676c.504 6.114-4.373 7.033-8.487 5.46-.537-.213-1.04-.545-1.527-.715v3.98c.428.578 2.963.918 3.861.969 4.105.246 8.218-.748 10.065-4.558 1.243-2.55.94-5.816.94-8.894V7.619h-4.835L11.46 9.48c-.487-.366-1.033-1.794-3.366-2.151-1.612-.255-3.35.127-4.517.867C1.42 9.575.026 12.134 0 15.807c-.017 3.64 1.285 6.31 3.635 7.475 1.293.646 3.165.833 4.684.39 2.116-.628 2.653-2.023 3.131-2.423Z" clip-rule="evenodd"/><path fill="#0D68B3" fill-rule="evenodd" d="M82.04 16.496c-.167 1.148-.57 2.16-1.15 2.755-.579.595-1.796 1.063-2.98.782-2.467-.578-2.476-3.426-2.341-5.425.142-2.142 1.72-4.022 4.138-3.477 2.09.476 2.686 2.95 2.334 5.365Zm-11.257 7.04h4.844v-1.862c.353.204.982 1.744 3.358 2.152 1.637.272 3.417-.094 4.592-.86 2.157-1.428 3.442-3.893 3.517-7.61.067-3.537-1.158-6.453-3.576-7.559-1.973-.901-4.844-.722-6.556.774-.554.485-1.226 1.386-1.326 1.454-.042-1.522.1-9.353-.05-10.025h-4.76c-.143.638-.042 10.178-.042 11.7v11.837ZM55.934 16.496c-.647 4.71-5.07 4.405-6.179 1.735-.386-.953-.37-2.492-.294-3.631.135-2.143 1.738-4.022 4.147-3.47 2.074.485 2.67 2.892 2.326 5.366Zm-11.258 7.04 4.836-.008.008-1.854c.403.281.32.596 1.368 1.352 2.947 2.126 9.931.936 10.09-7.67.076-3.537-1.14-6.479-3.609-7.567-2.325-1.029-5.557-.604-7.194 1.454-.168.204-.462.655-.655.782L49.512.017 44.676 0v23.537ZM96.673 20.11c-2.729 0-3.728-1.735-3.728-4.524 0-2.678 1.1-4.532 3.728-4.532 2.837 0 3.366 2.321 3.366 4.753 0 2.373-.966 4.303-3.366 4.303Zm-8.605-3.3c.495 4.898 4.306 7.61 9.68 7.033 4.784-.519 7.705-4.15 7.193-9.558-.957-10.102-18.09-9.66-16.873 2.526Z" clip-rule="evenodd"/><path fill="#F36B21" fill-rule="evenodd" d="M23.144 16.573c-.621-6.08 4.088-6.225 5.826-4.788 1.704 1.412 2.082 7.5-1.385 8.248-1.175.255-2.56-.068-3.224-.68-.713-.663-1.083-1.53-1.217-2.78Zm2.51-9.26c-4.902.493-7.908 3.8-7.446 9.294.411 4.99 4.13 7.72 9.444 7.253 4.92-.434 7.824-3.929 7.463-9.345-.336-4.898-4.206-7.73-9.46-7.202Z" clip-rule="evenodd"/><path fill="#231F20" d="M79.64 31.062c0-.323.1-.595.31-.825a.916.916 0 0 1 .73-.348c.286 0 .538.11.74.348.2.23.302.502.302.825 0 .323-.101.604-.303.833a.95.95 0 0 1-.738.34.933.933 0 0 1-.73-.34c-.21-.23-.311-.51-.311-.833Zm7.84-.655v1.412c-.68.28-1.3.416-1.863.416-.974 0-1.746-.297-2.326-.884-.579-.587-.873-1.369-.873-2.338 0-.944.294-1.735.882-2.347.587-.612 1.326-.918 2.233-.918.587 0 1.209.127 1.863.4v1.462c-.478-.28-.948-.417-1.41-.417-.52 0-.932.162-1.25.485-.311.331-.462.773-.462 1.318 0 .553.15 1.003.453 1.343.302.34.705.502 1.192.502.37 0 .89-.145 1.561-.434Zm3.627-4.66c.865 0 1.603.281 2.2.86.604.57.906 1.368.906 2.389 0 1.029-.31 1.828-.924 2.39-.612.569-1.334.85-2.182.85-.915 0-1.662-.298-2.242-.902-.579-.604-.873-1.386-.873-2.347 0-.978.294-1.768.89-2.355.588-.595 1.335-.884 2.225-.884Zm.008 5.323c.823 0 1.243-.705 1.243-2.125 0-1.344-.42-2.024-1.243-2.024-.403 0-.713.179-.932.536-.226.357-.344.867-.344 1.539 0 1.386.428 2.075 1.276 2.075Zm5.658-5.195v.8c.588-.621 1.226-.927 1.914-.927.949 0 1.604.433 1.981 1.317.672-.884 1.394-1.317 2.174-1.317.638 0 1.151.212 1.553.654.403.434.605.995.605 1.7V32.1h-1.738v-3.647c0-.443-.092-.783-.268-1.03-.177-.246-.429-.365-.748-.365-.503 0-.957.349-1.359 1.054V32.1h-1.738v-3.69c0-.434-.093-.774-.294-1.003-.185-.238-.445-.349-.764-.349-.453 0-.89.28-1.318.859v4.183h-1.737v-6.224h1.737Z"/><path fill="#0D68B3" fill-rule="evenodd" d="M65.62.144c1.529 0 2.763 1.131 2.763 2.526 0 1.403-1.234 2.534-2.762 2.534-1.52 0-2.762-1.131-2.762-2.534 0-1.395 1.242-2.526 2.762-2.526Zm-2.3 7.543h4.66v15.781h-4.66V7.687Z" clip-rule="evenodd"/></svg>