<svg width="154" height="30" viewBox="0 0 154 30" fill="none" xmlns="http://www.w3.org/2000/svg">
<mask id="mask0_1686_59" style="mask-type:luminance" maskUnits="userSpaceOnUse" x="-4" y="-1" width="158" height="31">
<path d="M153.156 -1H-4V29.5993H153.156V-1Z" fill="white"/>
</mask>
<g mask="url(#mask0_1686_59)">
<path d="M11.5204 29.5983C20.0927 29.5983 27.0419 22.7484 27.0419 14.2987C27.0419 5.8489 20.0927 -1.00098 11.5204 -1.00098C2.94803 -1.00098 -4.00122 5.8489 -4.00122 14.2987C-4.00122 22.7484 2.94803 29.5983 11.5204 29.5983Z" fill="#EF4438"/>
<path d="M11.5204 -1.00098C2.96228 -1.00098 -4.00122 5.86295 -4.00122 14.2987C-4.00122 22.7344 2.96228 29.5983 11.5204 29.5983C20.0785 29.5983 27.042 22.7355 27.042 14.2987C27.042 5.86181 20.0785 -1.00098 11.5204 -1.00098ZM1.82906 22.976C1.12485 22.2123 0.511985 21.3643 0.00782683 20.4501C-0.193385 20.0843 -0.378391 19.7082 -0.543754 19.3218C-0.587688 19.2203 -0.625853 19.1155 -0.667485 19.0129H5.0726V22.1029C5.0726 22.3582 5.28191 22.5646 5.54093 22.5646H8.27456C8.53357 22.5646 8.74288 22.3582 8.74288 22.1029V15.752H14.2968V22.1029C14.2968 22.3582 14.506 22.5646 14.7651 22.5646H17.4987C17.7577 22.5646 17.967 22.3582 17.967 22.1029V12.4898H24.4817C24.5663 13.0814 24.6124 13.6843 24.6124 14.2987C24.6124 21.4259 18.751 27.2035 11.5204 27.2035C7.67899 27.2035 4.22385 25.5725 1.82906 22.976ZM4.73152 3.2619C5.09109 3.04648 5.46231 2.84702 5.84396 2.66578C6.22546 2.48456 6.61747 2.32156 7.01876 2.1768C7.21879 2.10386 7.42228 2.03662 7.62699 1.97392C8.0374 1.84854 8.45603 1.7414 8.88163 1.65591C9.73383 1.4838 10.6162 1.39376 11.5204 1.39376C12.6502 1.39376 13.7463 1.53509 14.7928 1.79953C18.877 2.83561 22.1865 5.7672 23.7082 9.58448H17.9682V6.4944C17.9682 6.23908 17.7589 6.03277 17.4999 6.03277H14.7662C14.5072 6.03277 14.2979 6.23908 14.2979 6.4944V12.8454H8.74395V6.4944C8.74395 6.23908 8.53472 6.03277 8.27571 6.03277H5.54208C5.28306 6.03277 5.07375 6.23908 5.07375 6.4944V16.1076H-1.44108C-1.52549 15.5159 -1.57174 14.913 -1.57174 14.2987C-1.57174 13.185 -1.42836 12.1045 -1.16009 11.073C-0.998196 10.4541 -0.792367 9.85342 -0.543754 9.27433C-0.460505 9.08175 -0.373774 8.89023 -0.281267 8.70227C0.821887 6.44538 2.57144 4.55331 4.73152 3.26077V3.2619Z" fill="white"/>
<path d="M43.9581 7.35266H42.1323C41.9345 7.35266 41.8027 7.48263 41.8027 7.67756V13.9647H35.4243V7.67756C35.4243 7.48263 35.2925 7.35266 35.0948 7.35266H33.2689C33.0712 7.35266 32.9612 7.48263 32.9612 7.67756V22.202C32.9612 22.397 33.0712 22.5269 33.2689 22.5269H35.0948C35.2925 22.5269 35.4243 22.397 35.4243 22.202V16.1099H41.8027V22.202C41.8027 22.397 41.9345 22.5269 42.1323 22.5269H43.9581C44.1558 22.5269 44.2657 22.397 44.2657 22.202V7.67756C44.2657 7.48263 44.1558 7.35266 43.9581 7.35266Z" fill="#333333"/>
<path d="M52.3593 11.6417C49.0822 11.6417 46.8828 14.0479 46.8828 17.1699C46.8828 20.2918 49.1701 22.7846 52.6889 22.7846C54.206 22.7846 55.5925 22.3514 56.5372 21.4407C56.7129 21.2674 56.7568 21.1376 56.6251 20.9631L56.0087 20.1391C55.9208 20.0091 55.789 19.9874 55.6571 20.074C54.7992 20.6383 53.9423 20.8981 52.8865 20.8981C50.7531 20.8981 49.4777 19.7709 49.192 18.0806H56.4493C57.2633 18.0806 57.4611 17.6258 57.4611 16.6934C57.4611 14.0491 55.5913 11.6417 52.3581 11.6417H52.3593ZM49.1701 16.389C49.4117 14.6338 50.6652 13.6148 52.3593 13.6148C54.0533 13.6148 55.2189 14.6554 55.3507 16.389H49.1713H49.1701Z" fill="#333333"/>
<path d="M70.264 11.9027H68.6589C68.4613 11.9027 68.3514 12.0326 68.3514 12.2276L68.3075 13.658C67.5593 12.4225 66.2839 11.6417 64.5031 11.6417C61.4238 11.6417 59.3123 14.0695 59.3123 17.2131C59.3123 20.3567 61.4238 22.7845 64.5031 22.7845C66.263 22.7845 67.5385 22.0254 68.3075 20.7897L68.3514 22.1986C68.3514 22.3936 68.4613 22.5234 68.6589 22.5234H70.264C70.4618 22.5234 70.5717 22.3936 70.5717 22.1986V12.2265C70.5717 12.0315 70.4618 11.9015 70.264 11.9015V11.9027ZM64.9633 20.6394C63.0276 20.6394 61.6204 19.2738 61.6204 17.2142C61.6204 15.1546 63.0276 13.7891 64.9633 13.7891C66.899 13.7891 68.2185 15.1763 68.2185 17.2359C68.2185 19.2955 66.8771 20.6394 64.9633 20.6394Z" fill="#333333"/>
<path d="M75.5883 7.01978H73.828C73.6309 7.01978 73.5204 7.14975 73.5204 7.34467V22.194C73.5204 22.389 73.6309 22.5189 73.828 22.5189H75.5883C75.7861 22.5189 75.8958 22.389 75.8958 22.194V7.34467C75.8958 7.14975 75.7861 7.01978 75.5883 7.01978Z" fill="#333333"/>
<path d="M83.7928 11.9045H82.0563V9.41173C82.0563 9.21689 81.9466 9.08691 81.7487 9.08691H79.9663C79.7691 9.08691 79.6587 9.21689 79.6587 9.41173V11.9045H78.2735C78.0756 11.9045 77.9659 12.0344 77.9659 12.2293V13.4432C77.9659 13.6382 78.0756 13.768 78.2735 13.768H79.6587V19.9253C79.6587 21.8984 80.8682 22.6562 82.4735 22.6562C83.1339 22.6562 84.1003 22.5264 84.1003 22.0921V20.9215C84.1003 20.705 83.9684 20.5966 83.7053 20.6399C83.4637 20.6616 83.1999 20.6616 83.0227 20.6616C82.4076 20.6616 82.0548 20.3584 82.0548 19.6426V13.768H83.792C83.9891 13.768 84.121 13.6382 84.121 13.4432V12.2293C84.121 12.0344 83.9899 11.9045 83.7928 11.9045Z" fill="#333333"/>
<path d="M92.1675 11.636C90.474 11.636 89.3971 12.46 88.7805 13.5441V7.34467C88.7805 7.14975 88.6708 7.01978 88.4729 7.01978H86.7134C86.5156 7.01978 86.4059 7.14975 86.4059 7.34467V22.194C86.4059 22.389 86.5156 22.5189 86.7134 22.5189H88.4729C88.6708 22.5189 88.7805 22.389 88.7805 22.194V16.4277C88.7805 14.7579 89.8366 13.805 91.3537 13.805C92.8708 13.805 93.7069 14.759 93.7069 16.4277V22.194C93.7069 22.389 93.8165 22.5189 94.0144 22.5189H95.7509C95.9488 22.5189 96.0807 22.389 96.0807 22.194V15.9935C96.0807 13.1964 94.4539 11.636 92.1652 11.636H92.1675Z" fill="#333333"/>
<path d="M100.22 6.91907C99.4278 6.91907 98.835 7.52546 98.835 8.26296C98.835 9.00038 99.4286 9.62847 100.22 9.62847C101.011 9.62847 101.583 9.022 101.583 8.26296C101.583 7.50383 100.989 6.91907 100.22 6.91907Z" fill="#333333"/>
<path d="M101.101 11.8972H99.3197C99.1218 11.8972 99.0121 12.0272 99.0121 12.222V22.1943C99.0121 22.3891 99.1218 22.5191 99.3197 22.5191H101.101C101.299 22.5191 101.409 22.3891 101.409 22.1943V12.222C101.409 12.0272 101.299 11.8972 101.101 11.8972Z" fill="#333333"/>
<path d="M120.98 11.9017H119.198C119.022 11.9017 118.89 11.9884 118.824 12.1615L115.898 19.8359L112.995 12.1615C112.929 11.9884 112.798 11.9017 112.622 11.9017H107.457V10.298C107.457 9.43059 107.699 8.78088 108.843 8.78088C109.084 8.78088 109.348 8.8242 109.679 8.86753C109.811 8.88923 109.943 8.86753 109.943 8.716V7.24214C109.943 7.09055 109.898 7.00397 109.745 6.93902C109.305 6.7224 108.886 6.67908 108.381 6.67908C106.27 6.67908 105.083 7.74139 105.083 9.90935V11.9039H103.784C103.586 11.9039 103.477 12.0339 103.477 12.2288V13.4427C103.477 13.6377 103.586 13.7676 103.784 13.7676H105.083V22.201C105.083 22.3959 105.193 22.5258 105.39 22.5258H107.15C107.348 22.5258 107.457 22.3959 107.457 22.201V13.7676H111.18L114.732 22.5475L113.193 26.2975C113.083 26.514 113.193 26.644 113.435 26.644H115.15C115.325 26.644 115.479 26.5573 115.545 26.3841L121.22 12.271C121.306 12.0328 121.22 11.9029 120.978 11.9029L120.98 11.9017Z" fill="#333333"/>
<path d="M123.351 22.2425V7.62563C123.351 7.42957 123.462 7.29846 123.661 7.29846H125.896C126.072 7.29846 126.207 7.36349 126.273 7.51622L131.362 19.7987L136.474 7.51622C136.54 7.36349 136.651 7.29846 136.828 7.29846H139.063C139.262 7.29846 139.395 7.42957 139.395 7.62563V22.2425C139.395 22.4386 139.262 22.5696 139.063 22.5696H137.226C137.027 22.5696 136.916 22.4386 136.916 22.2425V11.7266L132.6 22.3075C132.534 22.4818 132.402 22.5696 132.225 22.5696H130.52C130.343 22.5696 130.189 22.4818 130.122 22.3075L125.828 11.7266V22.2425C125.828 22.4386 125.695 22.5696 125.496 22.5696H123.659C123.46 22.5696 123.349 22.4386 123.349 22.2425H123.351Z" fill="#EF4438"/>
<path d="M141.786 17.1897C141.786 14.0484 143.999 11.6262 147.297 11.6262C150.594 11.6262 152.432 14.0484 152.432 16.7098C152.432 17.6479 152.233 18.1061 151.414 18.1061H144.111C144.399 19.8078 145.683 20.9419 147.83 20.9419C148.893 20.9419 149.755 20.6798 150.619 20.1133C150.752 20.0256 150.884 20.0483 150.973 20.1783L151.593 21.0069C151.726 21.1813 151.682 21.3124 151.503 21.4868C150.552 22.4031 149.157 22.8398 147.63 22.8398C144.089 22.8398 141.786 20.3743 141.786 17.1897ZM150.307 16.4043C150.173 14.6593 149.001 13.6118 147.297 13.6118C145.593 13.6118 144.33 14.6377 144.088 16.4043H150.307Z" fill="#EF4438"/>
</g>
</svg>
