<svg xmlns="http://www.w3.org/2000/svg" width="148" height="38" fill="none"><g clip-path="url(#a)"><path fill="#00D273" d="M28.597 9.84H10.614L19.605.706h18.126L28.597 9.84Z"/><path fill="#FF6429" d="M19.607 36.962H1.482l9.134-9.135h17.982l-8.99 9.134Z"/><path fill="#14B4EF" d="M1.482 9.84v27.116l9.134-9.134V.706L1.482 9.84Z"/><path fill="#B066FF" d="M28.6 9.84v27.116l9.134-9.134V.706L28.6 9.84Z"/><path fill="#2D003C" d="M46.727 5.276h3.996v23.263h13.273v3.996H46.727V5.275ZM75.416 32.825a10.24 10.24 0 0 1-4.14-.857c-1.284-.57-2.425-1.284-3.282-2.283-.999-1-1.712-1.998-2.283-3.283-.571-1.284-.856-2.569-.856-4.139 0-1.427.285-2.854.856-4.139.57-1.284 1.284-2.426 2.283-3.282 1-1 1.998-1.713 3.283-2.284 1.284-.57 2.569-.856 4.139-.856 1.427 0 2.854.286 4.139.856 1.284.571 2.426 1.285 3.282 2.284 1 .999 1.713 1.998 2.284 3.283.57 1.284.856 2.568.856 4.138 0 1.427-.286 2.855-.856 4.14-.571 1.284-1.285 2.425-2.284 3.282-.999.999-1.998 1.712-3.282 2.283-1.428.571-2.712.857-4.14.857Zm0-3.711c.856 0 1.712-.143 2.569-.571.713-.285 1.427-.856 1.998-1.427.57-.571.999-1.285 1.427-2.141.428-.856.57-1.713.57-2.569 0-.856-.142-1.855-.57-2.569-.286-.856-.856-1.57-1.427-2.14-.571-.572-1.285-1.142-1.998-1.428-.857-.285-1.57-.57-2.57-.57-.856 0-1.712.142-2.568.57-.714.286-1.427.856-1.998 1.427-.571.571-1 1.285-1.428 2.141a8.08 8.08 0 0 0-.428 2.569c0 1 .143 1.855.428 2.569.286.856.714 1.57 1.428 2.14.57.572 1.284 1.143 1.998 1.428.713.285 1.57.57 2.569.57ZM98.388 32.825c-1.427 0-2.854-.286-4.139-.857-1.284-.57-2.426-1.284-3.282-2.283-1-1-1.713-1.998-2.284-3.283-.57-1.284-.856-2.569-.856-4.139 0-1.427.286-2.854.856-4.139.571-1.284 1.285-2.426 2.284-3.282.999-1 1.998-1.713 3.282-2.284a10.238 10.238 0 0 1 4.14-.856c1.141 0 2.14.143 3.139.428.999.286 1.855.714 2.712 1.285.856.57 1.57 1.142 2.141 1.998a14.18 14.18 0 0 1 1.569 2.426l-3.568 1.57c-.57-1.284-1.284-2.14-2.283-2.854-.999-.714-2.284-1-3.568-1-.999 0-1.855.143-2.569.571-.856.286-1.427.857-1.998 1.428-.57.57-.999 1.284-1.427 2.14-.286.857-.571 1.713-.571 2.57 0 .856.143 1.855.57 2.568.286.857.857 1.57 1.428 2.141.57.57 1.285 1.142 2.14 1.427.857.286 1.713.571 2.57.571 1.427 0 2.711-.428 3.71-1.142.999-.713 1.713-1.712 2.284-2.854l3.711 1.57c-.857 1.855-1.998 3.425-3.711 4.567-1.998 1.142-3.996 1.713-6.28 1.713ZM118.657 32.82c-2.712 0-4.71-.856-6.137-2.426-1.428-1.57-2.141-3.71-2.141-6.565v-11.56h4.139v11.417c0 1.713.428 3.14 1.284 4.139.857.999 2.141 1.57 3.854 1.57.713 0 1.427-.143 2.14-.428a5.128 5.128 0 0 0 1.713-1.142c.428-.428.856-1.142 1.142-1.855.285-.714.428-1.57.428-2.427V12.411h3.996v20.124h-4.139v-2.712c-.713.999-1.57 1.713-2.711 2.283-.999.429-2.284.714-3.568.714ZM147.201 23.834a4.917 4.917 0 0 0-1.713-1.712c-.713-.428-1.427-.857-2.283-1-.856-.285-1.712-.427-2.569-.713-1.57-.285-2.711-.713-3.568-.999-.856-.285-1.284-.856-1.284-1.712 0-.714.285-1.285.856-1.856.571-.428 1.57-.713 2.712-.713 1.142 0 1.998.142 2.712.57.713.429 1.426 1 1.854 1.713l2.855-2.854c-.714-.857-1.57-1.428-2.569-1.998-1.284-.714-2.854-1-4.852-1-1.142 0-2.284.143-3.283.429-.999.285-1.712.713-2.426 1.284-.713.571-1.142 1.142-1.57 1.998-.428.714-.571 1.427-.571 2.284 0 .999.143 1.855.571 2.569a6.08 6.08 0 0 0 1.57 1.712c.714.428 1.427.714 2.284 1 .856.285 1.712.428 2.569.713.713.143 1.284.285 1.855.428.571.143 1.142.285 1.57.428.428.143.856.428 1.142.714.285.285.427.713.427 1.142 0 .713-.285 1.427-.998 1.998-.714.57-1.713.856-2.997.856-1.285 0-2.284-.285-3.14-.714-.857-.57-1.57-1.284-2.284-2.14l-2.997 2.997a7.867 7.867 0 0 0 2.855 2.426c1.427.713 3.282 1.142 5.423 1.142 1.427 0 2.569-.143 3.568-.571.998-.428 1.855-.857 2.568-1.427.714-.571 1.142-1.285 1.57-1.998.286-.714.571-1.57.571-2.284.143-1.142 0-1.998-.428-2.712Z"/></g><defs><clipPath id="a"><path fill="#fff" d="M.77 0h147v37.107H.77z"/></clipPath></defs></svg>