<svg xmlns="http://www.w3.org/2000/svg" width="141" height="30" fill="none" viewBox="0 0 141 30"><g clip-path="url(#a)"><path fill="#737373" d="M58.48 5.95v17.87h-3.1V9.8h-.05L49.8 23.82h-2.07L42.05 9.8H42v14.02h-2.85V5.95h4.47l5.13 13.24h.08l5.43-13.24h4.22Zm2.56 1.37c0-.5.17-.91.54-1.24.38-.33.79-.5 1.29-.5.53 0 .99.17 1.32.5.33.33.54.74.54 1.24s-.17.9-.54 1.24c-.37.33-.79.5-1.32.5-.54 0-.96-.17-1.29-.5a1.87 1.87 0 0 1-.54-1.24ZM64.4 11v12.82h-3.02V11h3.02Zm9.15 10.63c.45 0 .95-.09 1.49-.33.53-.21 1.03-.5 1.49-.83v2.81c-.5.29-1.04.5-1.66.62-.62.13-1.28.2-2.03.2a6.08 6.08 0 0 1-6.37-6.32 7.3 7.3 0 0 1 1.82-5.09c1.2-1.32 2.9-1.98 5.13-1.98.58 0 1.16.08 1.7.2.58.13 1.03.34 1.36.5v2.9a4.76 4.76 0 0 0-2.9-1.08c-1.2 0-2.15.37-2.9 1.16a4.34 4.34 0 0 0-1.07 3.14c0 1.28.38 2.32 1.08 3.02.7.7 1.65 1.08 2.86 1.08Zm11.54-10.84a3.35 3.35 0 0 1 1.16.17v3.06a1.86 1.86 0 0 0-.7-.33 4.25 4.25 0 0 0-1.12-.17c-.74 0-1.36.33-1.86.95-.5.62-.79 1.57-.79 2.9v6.45h-3.02V11h3.02v2.02h.04c.3-.7.7-1.24 1.25-1.65a3.65 3.65 0 0 1 2.02-.58Zm1.33 6.83c0-2.11.62-3.8 1.78-5.05 1.2-1.24 2.85-1.86 4.96-1.86 2 0 3.56.58 4.68 1.78a6.82 6.82 0 0 1 1.7 4.84 7 7 0 0 1-1.78 4.96c-1.2 1.24-2.82 1.86-4.88 1.86-2 0-3.56-.58-4.72-1.74a6.63 6.63 0 0 1-1.74-4.8Zm3.14-.13c0 1.32.3 2.36.91 3.06.63.7 1.5 1.08 2.61 1.08 1.08 0 1.95-.33 2.53-1.08.58-.7.87-1.74.87-3.14 0-1.37-.3-2.4-.87-3.14a3.1 3.1 0 0 0-2.49-1.08c-1.11 0-1.94.37-2.56 1.12-.7.78-1 1.82-1 3.18Zm14.5-3.1c0 .41.11.79.4 1.03.3.25.87.54 1.83.91a6.3 6.3 0 0 1 2.52 1.62c.5.62.75 1.32.75 2.19 0 1.2-.46 2.15-1.41 2.9-.91.74-2.2 1.07-3.77 1.07a9.83 9.83 0 0 1-3.43-.7v-2.98c.53.37 1.16.7 1.78.9.62.21 1.2.34 1.73.34.67 0 1.2-.08 1.5-.3.33-.2.5-.49.5-.94 0-.42-.17-.75-.5-1.08-.34-.29-1-.62-1.9-.99-1.13-.46-1.91-1-2.37-1.57a3.5 3.5 0 0 1-.7-2.23c0-1.16.45-2.11 1.36-2.86a5.47 5.47 0 0 1 3.56-1.12c.46 0 .96.05 1.5.17.53.12 1.03.25 1.4.37v2.94c-.41-.25-.87-.5-1.4-.7a4.38 4.38 0 0 0-1.58-.3c-.58 0-1.03.13-1.32.34-.3.29-.46.58-.46.99Zm6.78 3.23c0-2.11.62-3.8 1.78-5.05 1.2-1.24 2.85-1.86 4.97-1.86 1.98 0 3.56.58 4.67 1.78a6.82 6.82 0 0 1 1.7 4.84 7 7 0 0 1-1.78 4.96c-1.2 1.24-2.81 1.86-4.88 1.86-1.99 0-3.56-.58-4.72-1.74a6.81 6.81 0 0 1-1.74-4.8Zm3.14-.13c0 1.32.3 2.36.92 3.06a3.3 3.3 0 0 0 2.6 1.08c1.08 0 1.95-.33 2.53-1.08.58-.7.87-1.74.87-3.14 0-1.37-.3-2.4-.87-3.14a3.1 3.1 0 0 0-2.48-1.08c-1.12 0-1.95.37-2.57 1.12-.66.78-1 1.82-1 3.18Zm20.04-4.01h-4.51v10.34h-3.07V13.48h-2.15V11h2.15V9.22c0-1.32.46-2.44 1.33-3.3a4.52 4.52 0 0 1 3.35-1.29c.37 0 .7.04 1 .04.28 0 .53.08.74.17v2.6a5.12 5.12 0 0 0-.54-.2 2.76 2.76 0 0 0-.87-.13c-.62 0-1.11.2-1.45.58-.33.37-.5 1-.5 1.74v1.53h4.52v-2.9l3.02-.9v3.8h3.06v2.48h-3.06v6c0 .78.17 1.32.41 1.65.3.33.75.5 1.37.5.17 0 .37-.05.62-.13s.46-.16.62-.29v2.48c-.2.13-.5.21-.95.3-.46.08-.87.12-1.33.12-1.28 0-2.23-.33-2.85-1-.62-.66-.95-1.7-.95-3.06l.04-6.53Z"/><path fill="#F25022" d="M14.52 0H.37v14.15h14.15V0Z"/><path fill="#7FBA00" d="M30.17 0H16.02v14.15h14.15V0Z"/><path fill="#00A4EF" d="M14.52 15.63H.37v14.14h14.15V15.63Z"/><path fill="#FFB900" d="M30.17 15.63H16.02v14.14h14.15V15.63Z"/></g><defs><clipPath id="a"><path fill="#fff" d="M.37 0H140.1v29.78H.37z"/></clipPath></defs></svg>