<svg xmlns="http://www.w3.org/2000/svg" width="91" height="46" fill="none" viewBox="0 0 91 46"><g clip-path="url(#a)"><path fill="#014185" d="M.9 45.06h45.43L90.9.56H.9v44.5Z"/><path fill="#fff" fill-rule="evenodd" d="M54.27 8.92h-8.81v21.04L37.71 8.91h-7.57l-6.7 17.6c-.7-4.43-5.28-5.96-8.98-7.1-2.29-.78-4.93-1.91-4.75-3.15 0-1.03 1.23-1.97 3.87-1.83 1.76.1 3.35.24 6.52 1.75l3.17-5.36c-3-1.45-6.87-2.37-10.04-2.38-3.88 0-7.05 1.22-8.98 3.24a7.9 7.9 0 0 0-2.12 5.16 7.38 7.38 0 0 0 3 6.19 22.19 22.19 0 0 0 6.16 2.75c2.47.76 4.4 1.42 4.4 2.84 0 .52-.17 1-.52 1.38-.7.63-1.59.87-3 .9-2.46.04-4.22-.35-7.22-2.1l-2.82 5.43c3 1.69 6.52 2.68 10.04 2.68h.53c3-.06 5.64-.95 7.57-2.57.18-.1.18-.18.36-.27l-.88 2.36h8.1l1.23-4.1c1.41.48 3 .75 4.76.75 1.76 0 3.17-.26 4.58-.71l1.4 4.06h13.04v-8.5h3c6.86 0 10.91-3.52 10.91-9.42 0-6.58-3.87-9.6-12.5-9.6ZM33.84 26.94a7.95 7.95 0 0 1-2.82-.5l2.82-8.86 2.81 8.88c-.88.3-1.76.48-2.81.48Zm20.96-5.1h-1.94v-7.13h1.94c2.64 0 4.75.86 4.75 3.53 0 2.74-2.11 3.6-4.75 3.6Z" clip-rule="evenodd"/><path fill="#014185" d="M57.43 42.21c0-1.36 1.06-2.4 2.3-2.4a2.34 2.34 0 0 1 2.28 2.4 2.34 2.34 0 0 1-2.29 2.43 2.34 2.34 0 0 1-2.29-2.43Zm2.3 2.91c1.58 0 2.98-1.23 2.98-2.9 0-1.66-1.4-2.88-2.99-2.88-1.58 0-3 1.22-3 2.87 0 1.68 1.42 2.91 3 2.91Zm-.54-2.67h.53l.88 1.44h.53l-.88-1.47c.35-.06.88-.31.88-.9 0-.67-.53-.96-1.23-.96h-1.24v3.33h.53v-1.44Zm0-.43v-1.04h.7c.18 0 .71.08.71.5 0 .5-.53.54-.88.54h-.53Z"/></g><defs><clipPath id="a"><path fill="#fff" d="M.9.56h90v44.57H.9z"/></clipPath></defs></svg>