<svg xmlns="http://www.w3.org/2000/svg" width="174" height="34" fill="none" viewBox="0 0 174 34"><g clip-path="url(#a)"><path fill="#000" d="M56.56 6.616c-2.285 0-4.05.843-5.402 2.212-1.973 2.004-1.976 4.53-1.976 8.111 0 3.478-.102 6.007 1.976 8.115 1.454 1.474 3.117 2.21 5.403 2.21.624 0 1.143-.104 1.661-.21h6.754l-1.973-3.478c.934-1.79.934-3.898.934-6.635 0-3.478 0-6.005-1.976-8.111-1.35-1.475-3.114-2.214-5.4-2.214Zm40.94 0c-2.287 0-4.054.738-5.404 2.212-2.079 2.108-1.976 4.635-1.976 8.111 0 3.582.002 6.113 1.976 8.115 1.35 1.368 3.117 2.21 5.403 2.21 2.286 0 4.049-.736 5.4-2.212 1.975-2.106 1.976-4.637 1.976-8.113 0-3.58-.001-6.107-1.976-8.11-1.454-1.37-3.114-2.213-5.4-2.213Zm-79.385.106c-4.363 0-6.958 2.53-6.958 6.111 0 1.685.518 3.055 1.454 4.004.832.843 2.182 1.474 3.843 1.683l2.39.317c.936.21 1.35.317 1.766.737.416.423.624.949.624 1.686 0 1.684-1.247 2.53-3.533 2.53-1.766 0-3.531-.424-4.779-1.689l-2.494 2.53c1.974 2.001 4.26 2.633 7.273 2.633 4.158 0 7.482-2.212 7.482-6.111 0-1.79-.521-3.263-1.56-4.316-.83-.843-1.973-1.37-3.843-1.58l-2.39-.318c-.832-.21-1.455-.42-1.87-.841a2.078 2.078 0 0 1-.625-1.475c0-1.368 1.04-2.529 3.12-2.529 1.245 0 2.802.104 4.05 1.367l2.494-2.421c-1.662-1.686-3.742-2.318-6.444-2.318Zm12.679.108v20.222h13.195v-3.478H34.74v-4.947h7.896v-3.58h-7.895v-4.744h9.248V6.83L30.794 6.83Zm38.96 0V20.1c0 4.32 3.328 7.163 7.38 7.163 4.051 0 7.271-2.843 7.271-7.163V6.83h-3.844v13.165c0 2.318-1.349 3.687-3.427 3.687-2.078 0-3.43-1.369-3.43-3.686V6.83h-3.95Zm40.836 0v20.222h3.845V6.826l-3.845.004Zm15.999 0-7.273 20.222h4.053l1.249-3.582h7.063l1.143 3.582h4.053l-7.275-20.226-3.013.004ZM56.457 10.2c1.038 0 1.976.42 2.494 1.051.727.843.933 1.79.933 5.69 0 3.896-.206 4.846-.933 5.69-.518.63-1.454 1.05-2.494 1.05-1.039 0-1.977-.42-2.495-1.05-.727-.844-.936-1.794-.936-5.69 0-3.9.209-4.847.936-5.69.52-.631 1.454-1.051 2.495-1.051Zm41.042 0c1.039 0 1.972.42 2.492 1.051.727.843.935 1.79.935 5.69 0 3.896-.208 4.846-.935 5.69-.52.63-1.453 1.05-2.492 1.05-1.038 0-1.976-.42-2.494-1.05-.727-.844-.936-1.794-.936-5.69 0-3.9.209-4.847.936-5.69.518-.631 1.454-1.051 2.494-1.051Zm30.651 2.526 2.494 7.375h-4.99l2.496-7.375Z"/><path fill="#50B848" d="M144.772 6.83v18.434l2.495-2.53V6.83h-2.495Zm4.989 0v13.377l2.493-2.529V6.828l-2.493.002Zm4.988 0v8.32l2.494-2.527V6.83h-2.494Zm4.985 0v5.054h4.986V6.83h-4.986Zm-.725 7.583-2.495 2.526h8.206v-2.526h-5.711Zm-4.989 5.055-2.492 2.53h13.192v-2.53h-10.7Zm-4.986 5.057-2.496 2.527h18.182v-2.529l-15.686.002Z"/></g><defs><clipPath id="a"><path fill="#fff" d="M10 6h155v22H10z"/></clipPath></defs></svg>