<svg xmlns="http://www.w3.org/2000/svg" width="139" height="42" fill="none" viewBox="0 0 139 42"><path fill="#FC8019" d="M14.228 40.581c-.025-.018-.054-.042-.083-.068-.482-.596-3.458-4.32-6.49-9.098-.91-1.522-1.5-2.71-1.386-3.016.296-.799 5.582-1.235 7.21-.512.495.22.483.51.483.68 0 .73-.036 2.692-.036 2.692a.735.735 0 1 0 1.47-.003l-.008-4.886c0-.424-.465-.53-.552-.547-.85-.005-2.575-.01-4.428-.01-4.088 0-5.002.168-5.696-.286C3.207 24.544.746 17.917.689 14.19.607 8.93 3.726 4.377 8.12 2.12A13.532 13.532 0 0 1 14.213.678c6.952 0 12.676 5.242 13.438 11.987 0 .005 0 .012.002.018.14 1.63-8.855 1.976-10.634 1.502-.273-.073-.343-.352-.343-.472l-.01-4.729a.736.736 0 0 0-1.472.003l.016 6.428a.548.548 0 0 0 .445.532l5.582-.002c2.978 0 4.23.345 5.062.978.553.422.768 1.229.58 2.278-1.67 9.334-12.254 20.898-12.652 21.38ZM42.93 18.797c2.67 1.144 4.324 2.412 4.324 5.196 0 2.845-2.156 4.682-5.493 4.682-2.704 0-4.874-1.224-5.955-3.358l-.175-.344 3.18-1.84.208.34c.715 1.169 1.516 1.667 2.676 1.667 1.001 0 1.673-.443 1.673-1.103 0-.73-.486-1.005-1.99-1.663l-.765-.327c-2.04-.869-3.93-2.076-3.93-5 0-2.627 2.016-4.462 4.902-4.462 2.187 0 3.686.846 4.718 2.66l.191.338-3.08 1.977-.212-.38c-.515-.92-1-1.104-1.616-1.104-.645 0-1.06.355-1.06.905 0 .633.306.91 1.639 1.488l.765.328Zm22.502.539 2.244-6.253h3.852l-5.709 15.85h-.855L61.5 21.51c-.161-.34-.327-.762-.47-1.15-.146.389-.317.812-.478 1.152l-3.598 7.421h-.85l-5.8-15.85h4.115l2.269 6.253c.145.398.293.885.423 1.336.154-.466.34-.969.533-1.374l2.98-6.345h.824l3.026 6.346c.193.405.38.908.533 1.373.13-.451.28-.938.424-1.336Zm10.588 9.142V12.759h3.888v15.719H76.02Zm16.635-5.281v-3.513h7.218v7.045l-.149.123c-.826.677-3.015 1.823-5.981 1.823-5.004 0-8.497-3.312-8.497-8.056 0-4.655 3.37-8.034 8.015-8.034 2.554 0 4.426.72 5.722 2.2l.253.288-2.65 2.622-.288-.297c-.74-.762-1.507-1.235-3.037-1.235-2.38 0-4.04 1.833-4.04 4.456 0 2.733 1.774 4.5 4.522 4.5.911 0 1.86-.157 2.506-.407v-1.515h-3.594Zm19.701 0v-3.513h7.219v7.045l-.149.123c-.827.677-3.016 1.823-5.981 1.823-5.004 0-8.498-3.312-8.498-8.056 0-4.655 3.372-8.034 8.015-8.034 2.555 0 4.427.72 5.722 2.2l.254.288-2.649 2.622-.289-.297c-.74-.762-1.507-1.235-3.038-1.235-2.379 0-4.04 1.833-4.04 4.456 0 2.733 1.775 4.5 4.523 4.5.911 0 1.86-.157 2.506-.407v-1.515h-3.595ZM133.82 12.76h4.063l-5.577 10.46v5.258h-3.909v-5.036l-5.941-10.682h4.335l2.747 5.011c.295.545.603 1.266.836 1.851.223-.58.518-1.294.811-1.846l2.635-5.016Z"/></svg>