<svg width="157" height="41" viewBox="0 0 157 41" fill="none" xmlns="http://www.w3.org/2000/svg">
<g clip-path="url(#clip0_565_536)">
<path fill-rule="evenodd" clip-rule="evenodd" d="M94.5534 9.04492H75.679V15.2001H81.9873V28.369H88.1408V15.2001H94.5534V9.04492ZM112.996 28.3185L107.048 9.04492H99.5577L93.6102 28.3185H99.7646L103.303 14.6145L106.843 28.3185H112.996ZM131.839 9.04492H112.965V15.2001H119.274V28.369H125.426V15.2001H131.839V9.04492ZM150.075 28.3185L144.125 9.04492H136.637L130.687 28.3185H136.844L140.382 14.6145L143.92 28.3185H150.075ZM29.7892 29.7121C31.1298 24.0171 32.1243 18.4581 32.1243 18.4581C32.1243 18.4581 32.6244 16.6247 31.6242 15.3744C30.624 14.1241 27.5403 14.5412 27.5403 14.5412C27.5403 14.5412 22.7502 14.5982 17.8681 15.1863C13.5203 15.7108 9.08372 16.5734 7.4482 16.9049C7.10627 18.0733 6.93106 19.2842 6.92773 20.5017C6.92773 29.0825 15.5028 36.3625 27.4076 38.9632C28.0323 36.6923 28.9714 33.181 29.7892 29.7121Z" fill="#2D509F"/>
<path fill-rule="evenodd" clip-rule="evenodd" d="M38.6357 26.1275C38.5787 19.2262 38.7718 12.7901 38.7718 12.7901C38.7718 12.7901 38.5502 11.8208 39.1684 11.3468C39.8013 10.8621 41.2723 10.8735 41.2723 10.8735C41.2723 10.8735 46.9787 11.034 53.3733 11.8542C58.0421 12.4545 63.0903 13.4172 65.3701 13.8725C61.1787 6.3726 50.0787 1.01318 37.0426 1.01318C23.9552 1.01318 12.8234 6.41577 8.66943 13.9597C10.6682 13.5573 16.1018 12.4976 21.1052 11.855C27.4999 11.0348 33.2047 10.8743 33.2047 10.8743C33.2047 10.8743 34.6773 10.8629 35.3093 11.3476C35.9275 11.8216 35.706 12.7909 35.706 12.7909C35.706 12.7909 35.8998 19.2271 35.842 26.1283C35.7964 31.4177 35.6335 36.9653 35.5341 39.9634C36.0334 39.9797 36.5351 39.9887 37.0418 39.9887C37.6803 39.9887 38.3132 39.9716 38.942 39.9455C38.8434 36.9416 38.6814 31.4063 38.6357 26.1275Z" fill="#2D509F"/>
<path fill-rule="evenodd" clip-rule="evenodd" d="M56.6098 15.1853C51.7277 14.5972 46.9368 14.5402 46.9368 14.5402C46.9368 14.5402 43.8539 14.124 42.852 15.3734C41.8526 16.6237 42.3536 18.4571 42.3536 18.4571C42.3536 18.4571 43.3473 24.0161 44.6879 29.7111C45.4951 33.1393 46.422 36.6075 47.0467 38.8807C58.7592 36.2116 67.1559 28.9902 67.1559 20.5007C67.1559 19.2415 66.9645 18.0132 66.6127 16.8208C64.7247 16.4437 60.6285 15.6699 56.6098 15.1853Z" fill="#2D509F"/>
</g>
<defs>
<clipPath id="clip0_565_536">
<rect width="157" height="40.3714" fill="white" transform="translate(0 0.314453)"/>
</clipPath>
</defs>
</svg>
