<svg width="68" height="22" viewBox="0 0 68 22" fill="none" xmlns="http://www.w3.org/2000/svg">
<g clip-path="url(#clip0_4735_924)">
<mask id="mask0_4735_924" style="mask-type:luminance" maskUnits="userSpaceOnUse" x="0" y="0" width="68" height="22">
<path d="M67.75 0H0.25V21.0749H67.75V0Z" fill="white"/>
</mask>
<g mask="url(#mask0_4735_924)">
<path d="M0.25 20.9808V7.30592H2.86527V8.85889C3.17415 8.28388 3.62829 7.79983 4.18245 7.45494C4.73396 7.1373 5.36189 6.97666 5.99819 6.99042C6.58693 6.96035 7.17483 7.06428 7.71758 7.29439C8.26033 7.52449 8.74379 7.87476 9.13153 8.31881C9.88539 9.20441 10.2622 10.4387 10.2619 12.0217C10.3283 13.343 9.92459 14.6451 9.12239 15.6972C8.76393 16.1447 8.30633 16.5027 7.78574 16.743C7.26515 16.9832 6.69582 17.0992 6.12272 17.0816C5.46427 17.1025 4.81089 16.9599 4.22105 16.6665C3.66734 16.357 3.20599 15.9056 2.88436 15.3589C2.91591 15.5946 2.93999 15.8516 2.95659 16.1297C2.97237 16.4075 2.97942 16.725 2.97942 17.0845V20.9838L0.25 20.9808ZM2.74073 11.9935C2.69688 12.7097 2.92089 13.4166 3.36922 13.9769C3.59012 14.2169 3.86145 14.405 4.1637 14.5277C4.46594 14.6504 4.79161 14.7045 5.1173 14.6864C5.4431 14.7045 5.76888 14.6503 6.07126 14.5276C6.37363 14.405 6.64511 14.2169 6.86621 13.9769C7.31424 13.4165 7.53795 12.7096 7.49387 11.9935C7.53489 11.2688 7.30794 10.5544 6.85624 9.98636C6.63661 9.74065 6.36474 9.54724 6.0606 9.42031C5.75646 9.29338 5.42776 9.23616 5.09862 9.25284C4.77487 9.23885 4.45212 9.29793 4.15432 9.42571C3.85652 9.55348 3.59131 9.74666 3.37836 9.99092C2.92776 10.5578 2.70088 11.2704 2.74073 11.9935Z" fill="#44A3AC"/>
<path d="M14.4884 9.72327C14.6838 8.94296 15.0935 8.23281 15.6711 7.67298C16.2 7.21345 16.8828 6.97047 17.5831 6.9926C17.8694 7.00438 18.1545 7.03629 18.4362 7.08808C18.513 7.10136 18.5699 7.1105 18.6081 7.11631L18.1963 10.0491C17.9966 9.9674 17.7896 9.90471 17.5782 9.86192C17.362 9.81972 17.1421 9.799 16.9219 9.80007C16.0916 9.80007 15.4944 10.0123 15.1302 10.4369C14.766 10.8614 14.5838 11.5721 14.5835 12.5689V16.7081H11.8516V7.30892H14.5445L14.4884 9.72327Z" fill="#44A3AC"/>
<path d="M28.772 16.7085H26.1277L26.165 15.3573C25.8435 15.9039 25.3825 16.3551 24.8292 16.665C24.2394 16.9584 23.586 17.101 22.9275 17.0801C22.3518 17.098 21.7798 16.9819 21.2566 16.741C20.7334 16.5 20.2734 16.1407 19.9129 15.6915C19.1093 14.6422 18.7037 13.3419 18.7684 12.0218C18.7684 10.4383 19.1434 9.20398 19.8934 8.31894C20.2801 7.87463 20.7628 7.52413 21.3051 7.29398C21.8473 7.06384 22.4347 6.96007 23.023 6.99055C23.6658 6.977 24.3001 7.13934 24.8574 7.46006C25.4142 7.80307 25.872 8.28522 26.1858 8.85902V7.30605H28.7733L28.772 16.7085ZM26.2813 11.9936C26.3208 11.2707 26.0943 10.5584 25.6445 9.99105C25.4314 9.74685 25.1661 9.55372 24.8682 9.42595C24.5704 9.29819 24.2476 9.23907 23.9238 9.25297C23.5961 9.23681 23.269 9.29431 22.9665 9.42125C22.664 9.5482 22.3938 9.74134 22.1757 9.98649C21.7239 10.5545 21.4969 11.269 21.5381 11.9936C21.4939 12.7098 21.7178 13.4168 22.1662 13.977C22.3857 14.2162 22.6554 14.4039 22.956 14.5266C23.2565 14.6492 23.5805 14.7038 23.9047 14.6865C24.2314 14.7056 24.5582 14.6518 24.8615 14.5291C25.1648 14.4064 25.4371 14.2179 25.6586 13.977C26.1036 13.4153 26.3254 12.7089 26.2813 11.9936Z" fill="#949498"/>
<path d="M37.7778 16.4302C37.4144 16.6511 37.0205 16.8175 36.6088 16.9242C36.1703 17.033 35.7198 17.086 35.268 17.0819C34.5996 17.1078 33.933 16.9959 33.3098 16.753C32.6865 16.5102 32.1199 16.1417 31.6452 15.6705C31.1758 15.1841 30.8098 14.6077 30.5694 13.976C30.329 13.3443 30.219 12.6704 30.2462 11.995C30.2205 11.3288 30.3323 10.6645 30.5748 10.0435C30.8172 9.42249 31.185 8.85809 31.6552 8.38552C32.1375 7.91813 32.7098 7.55353 33.3372 7.31377C33.9646 7.07402 34.6342 6.96411 35.3053 6.99071C35.7568 6.98531 36.2074 7.03381 36.6474 7.13517C37.0436 7.23132 37.4242 7.3831 37.7778 7.58599L37.7583 10.3258C37.4731 10.0331 37.1319 9.80078 36.7551 9.64267C36.3782 9.48456 35.9734 9.40389 35.5648 9.40547C35.226 9.38993 34.8876 9.4446 34.5709 9.56605C34.2542 9.68749 33.9661 9.87308 33.7245 10.1112C33.4908 10.3599 33.3093 10.6529 33.1908 10.973C33.0723 11.2931 33.0192 11.6337 33.0346 11.9747C33.0091 12.3231 33.0591 12.673 33.1812 13.0004C33.3033 13.3277 33.4947 13.6249 33.7422 13.8715C33.9897 14.1181 34.2875 14.3083 34.6154 14.4292C34.9432 14.5502 35.2932 14.5989 35.6416 14.5721C36.0454 14.5792 36.4458 14.4973 36.8143 14.3321C37.1792 14.1542 37.5013 13.8993 37.7583 13.5849L37.7778 16.4302Z" fill="#949498"/>
<path d="M39.6798 16.7086V9.44399H38.3672V7.30611H39.6798V4.18481H42.4105V7.30611H43.7239V9.44357H42.4105V16.7082L39.6798 16.7086Z" fill="#949498"/>
<path d="M44.7853 3.44741C44.7828 3.23839 44.8233 3.03109 44.9041 2.83831C44.9849 2.64553 45.1044 2.47137 45.2552 2.32658C45.3999 2.17579 45.5741 2.05631 45.7669 1.97556C45.9597 1.8948 46.167 1.85447 46.376 1.85708C46.5868 1.85419 46.7961 1.89384 46.9912 1.97365C47.1864 2.05346 47.3634 2.17181 47.5118 2.3216C47.6647 2.46612 47.7859 2.6408 47.8678 2.83459C47.9497 3.02838 47.9904 3.23705 47.9875 3.44741C47.9904 3.65825 47.9498 3.86742 47.8683 4.06189C47.7868 4.25636 47.6662 4.43197 47.5139 4.57779C47.3662 4.72893 47.1894 4.84851 46.9942 4.92929C46.799 5.01006 46.5893 5.05035 46.3781 5.0477C46.1683 5.04986 45.9603 5.00839 45.7673 4.92593C45.5744 4.84346 45.4007 4.7218 45.2573 4.56865C45.1076 4.42301 44.9889 4.24868 44.9081 4.05611C44.8274 3.86353 44.7863 3.65664 44.7873 3.44783M45.0273 7.30846H47.7484V16.7089H45.0273V7.30846Z" fill="#949498"/>
<path d="M56.9555 16.4301C56.5921 16.651 56.1982 16.8174 55.7865 16.9241C55.3478 17.033 54.897 17.086 54.4449 17.0818C53.7766 17.1077 53.1102 16.9957 52.4871 16.7529C51.864 16.51 51.2975 16.1416 50.8229 15.6704C50.3535 15.1841 49.9876 14.6076 49.7471 13.9759C49.5067 13.3442 49.3968 12.6703 49.424 11.9949C49.3986 11.3292 49.5106 10.6654 49.753 10.0448C49.9954 9.42424 50.363 8.86024 50.8329 8.38796C51.3153 7.92057 51.8875 7.55597 52.5149 7.31621C53.1424 7.07646 53.8119 6.96656 54.4831 6.99315C54.9346 6.98783 55.3851 7.03632 55.8252 7.13761C56.2213 7.23337 56.6018 7.38473 56.9555 7.58719L56.936 10.327C56.651 10.0341 56.3098 9.80169 55.9329 9.64357C55.5561 9.48545 55.1512 9.40488 54.7425 9.40667C54.4037 9.39093 54.0653 9.4455 53.7486 9.56696C53.4318 9.68841 53.1437 9.87411 52.9023 10.1124C52.6685 10.3611 52.487 10.6541 52.3685 10.9742C52.25 11.2943 52.1969 11.6349 52.2124 11.9759C52.1868 12.3242 52.2367 12.674 52.3587 13.0013C52.4807 13.3286 52.672 13.6257 52.9194 13.8723C53.1668 14.1189 53.4645 14.3092 53.7922 14.4302C54.1198 14.5511 54.4698 14.6 54.8181 14.5733C55.2223 14.5804 55.6231 14.4985 55.992 14.3333C56.357 14.1554 56.679 13.9005 56.936 13.5861L56.9555 16.4301Z" fill="#949498"/>
<path d="M67.7023 12.6837H60.6403C60.699 13.2612 60.9604 13.7993 61.378 14.2026C61.8186 14.5572 62.3748 14.7364 62.9396 14.7057C63.3866 14.7175 63.8295 14.6187 64.229 14.4181C64.6032 14.2131 64.916 13.9122 65.1352 13.5463L67.3383 14.6484C66.8896 15.4116 66.249 16.0441 65.4802 16.4829C64.6794 16.8998 63.7857 17.1061 62.8832 17.0823C62.22 17.1164 61.5569 17.0131 60.9354 16.779C60.314 16.545 59.7476 16.1851 59.2716 15.722C58.8166 15.2316 58.4643 14.6551 58.2356 14.0264C58.0068 13.3977 57.9063 12.7296 57.9399 12.0614C57.9162 11.392 58.0275 10.7247 58.267 10.0992C58.5066 9.47365 58.8696 8.90272 59.3343 8.42038C60.2943 7.51889 61.557 7.00953 62.8737 6.99262C64.1905 6.97572 65.4659 7.4525 66.4487 8.32905C67.3168 9.2199 67.751 10.4351 67.7513 11.9747C67.7513 12.0577 67.7484 12.1498 67.7418 12.2478C67.7351 12.3458 67.7231 12.4927 67.7036 12.6841M65.0016 11.0365C64.964 10.5218 64.7329 10.0405 64.3548 9.68941C63.9414 9.36709 63.4252 9.20573 62.9019 9.23526C62.3734 9.20855 61.8525 9.3694 61.4311 9.68941C61.0393 10.0372 60.7882 10.5163 60.7254 11.0365H65.0016Z" fill="#949498"/>
<path d="M9.59907 2.84746H8.97266V2.36592H9.59907V0.991455H10.1952V2.36592H10.8216V2.84746H10.1952V5.77614H9.59907V2.84746Z" fill="#939396"/>
<path d="M11.4844 5.77642V0H12.0543V2.89215C12.1864 2.68696 12.3685 2.5188 12.5836 2.40355C12.8056 2.29334 13.051 2.23851 13.2989 2.24373C13.6431 2.22323 13.9817 2.33842 14.242 2.56462C14.3581 2.68075 14.4484 2.82012 14.5068 2.97357C14.5653 3.12703 14.5906 3.29111 14.5812 3.45506V5.77642H13.9851V3.76764C14.0069 3.49328 13.9292 3.22023 13.7663 2.99842C13.6799 2.90947 13.5748 2.84075 13.4587 2.79719C13.3426 2.75362 13.2182 2.73629 13.0946 2.74644C12.9314 2.74455 12.7696 2.77693 12.6197 2.84151C12.4812 2.9018 12.3592 2.99448 12.264 3.11175C12.191 3.20132 12.138 3.30551 12.1087 3.41728C12.0703 3.61367 12.0547 3.81384 12.0622 4.01381V5.77642H11.4844Z" fill="#939396"/>
<path d="M18.7812 4.15871H16.0792V4.21226C16.0647 4.53652 16.1768 4.85374 16.3918 5.09688C16.4956 5.20827 16.6222 5.29603 16.763 5.35419C16.9037 5.41235 17.0553 5.43955 17.2075 5.43396C17.428 5.43697 17.6442 5.37236 17.8269 5.24882C18.0306 5.10324 18.1976 4.91222 18.3146 4.69089L18.758 4.98936C18.6111 5.27929 18.3842 5.52108 18.1042 5.68616C17.8243 5.85123 17.5029 5.93269 17.178 5.9209C16.9436 5.92999 16.71 5.8888 16.4928 5.80008C16.2756 5.71137 16.08 5.57719 15.919 5.40656C15.5882 5.03715 15.4153 4.55281 15.4374 4.05742C15.4193 3.57467 15.5908 3.10399 15.9152 2.74605C16.0714 2.57848 16.2616 2.44631 16.4732 2.35845C16.6847 2.27059 16.9126 2.22907 17.1415 2.23669C17.3642 2.22582 17.5866 2.26348 17.7933 2.34705C18.0001 2.43063 18.1862 2.55813 18.3387 2.72073C18.6495 3.08933 18.8078 3.56272 18.7812 4.04413V4.15871ZM18.1548 3.68588C18.1534 3.55559 18.1261 3.42689 18.0745 3.30724C18.0229 3.18759 17.948 3.07938 17.8543 2.98889C17.6477 2.81703 17.3837 2.72982 17.1154 2.7448C16.8537 2.73347 16.598 2.82565 16.4038 3.00139C16.2096 3.17713 16.0924 3.42229 16.0776 3.68381L18.1548 3.68588Z" fill="#939396"/>
<path d="M9.54263 19.9037V20.9831H9.26367V18.5799H9.76763C9.89775 18.5762 10.0279 18.5855 10.1562 18.6077C10.2336 18.6238 10.3071 18.655 10.3725 18.6995C10.4515 18.757 10.5136 18.8347 10.5522 18.9245C10.595 19.0245 10.617 19.1322 10.617 19.241C10.617 19.3498 10.595 19.4575 10.5522 19.5575C10.5134 19.6471 10.4514 19.7247 10.3725 19.7821C10.3078 19.8277 10.2345 19.8595 10.157 19.8755C10.0285 19.898 9.89804 19.9075 9.76763 19.9037H9.54263ZM9.54263 19.6443H9.6871C9.85659 19.6596 10.0271 19.6299 10.1815 19.5584C10.2265 19.5231 10.2618 19.477 10.2841 19.4244C10.3064 19.3717 10.315 19.3142 10.3089 19.2574C10.3152 19.197 10.3065 19.1359 10.2838 19.0796C10.2611 19.0232 10.225 18.9733 10.1786 18.934C10.0268 18.8574 9.85645 18.8251 9.6871 18.8406H9.54263V19.6443Z" fill="#949498"/>
<path d="M11.0245 18.5801H11.3151V20.0745C11.299 20.2657 11.3541 20.4562 11.4699 20.6092C11.608 20.7196 11.7795 20.7798 11.9563 20.7798C12.133 20.7798 12.3045 20.7196 12.4426 20.6092C12.5585 20.4562 12.6138 20.2658 12.5978 20.0745V18.5801H12.8884V20.0745C12.909 20.3385 12.8257 20.6 12.6564 20.8035C12.5625 20.8902 12.4518 20.9566 12.331 20.9985C12.2103 21.0403 12.0822 21.0568 11.9548 21.0467C11.8281 21.0566 11.7007 21.0402 11.5806 20.9985C11.4606 20.9569 11.3504 20.8909 11.257 20.8047C11.0875 20.6013 11.0041 20.3398 11.0245 20.0758V18.5801Z" fill="#949498"/>
<path d="M13.5234 20.9814V18.5799H14.0245C14.1549 18.5762 14.2853 18.5853 14.4139 18.6069C14.4998 18.623 14.5805 18.6598 14.649 18.7141C14.7175 18.7684 14.7718 18.8386 14.807 18.9186C14.8498 19.0095 14.8715 19.1088 14.8705 19.2092C14.8746 19.3222 14.8428 19.4335 14.7796 19.5272C14.7147 19.6157 14.6211 19.6789 14.5147 19.7061C14.6479 19.723 14.769 19.7918 14.8518 19.8975C14.9378 20.0125 14.9817 20.1534 14.9764 20.2968C14.9768 20.3913 14.9589 20.4849 14.9236 20.5725C14.891 20.6566 14.8414 20.733 14.7779 20.7971C14.7084 20.8646 14.6226 20.9132 14.5289 20.9382C14.3638 20.9718 14.1953 20.9858 14.027 20.9797L13.5234 20.9814ZM13.8028 18.8277V19.6314H14.0245C14.1733 19.644 14.3226 19.6132 14.4541 19.5426C14.498 19.507 14.5323 19.4611 14.5541 19.409C14.5758 19.3569 14.5843 19.3003 14.5787 19.2441C14.5851 19.1848 14.5781 19.1248 14.558 19.0687C14.538 19.0125 14.5054 18.9616 14.4629 18.9199C14.3297 18.8447 14.1766 18.8125 14.0245 18.8277H13.8028ZM13.8028 19.856V20.7319H14.0245C14.1344 20.7346 14.2443 20.7286 14.3533 20.714C14.4111 20.7057 14.4663 20.6844 14.5147 20.6518C14.5659 20.6143 14.606 20.5639 14.631 20.5056C14.6596 20.4403 14.6738 20.3695 14.6725 20.2981C14.6743 20.219 14.657 20.1406 14.6218 20.0698C14.5885 20.0059 14.5369 19.9535 14.4737 19.9191C14.4327 19.8949 14.3877 19.8783 14.3408 19.8701C14.2634 19.8582 14.185 19.8532 14.1067 19.8551H13.8016L13.8028 19.856Z" fill="#949498"/>
<path d="M15.4805 20.9811V18.5796H15.7661V20.7087H16.6727V20.9811H15.4805Z" fill="#949498"/>
<path d="M17.3672 18.5801H17.082V20.9816H17.3672V18.5801Z" fill="#949498"/>
<path d="M19.9618 19.154C19.859 19.0383 19.7341 18.9443 19.5944 18.8775C19.4588 18.8167 19.3116 18.7863 19.1631 18.7883C19.0352 18.7889 18.9088 18.8149 18.7911 18.8648C18.6733 18.9146 18.5667 18.9874 18.4773 19.0788C18.3874 19.1701 18.3169 19.2785 18.2698 19.3977C18.2226 19.5221 18.1992 19.6543 18.2008 19.7875C18.2 19.8917 18.2139 19.9956 18.2424 20.0959C18.2694 20.1885 18.3115 20.276 18.3669 20.3549C18.4582 20.4872 18.5801 20.5956 18.7222 20.6708C18.8581 20.741 19.0082 20.7788 19.1611 20.7815C19.3139 20.7842 19.4653 20.7516 19.6035 20.6862C19.7419 20.6177 19.8643 20.521 19.963 20.4022V20.7817C19.7277 20.953 19.4438 21.0449 19.1527 21.044C19.027 21.0441 18.902 21.025 18.782 20.9876C18.6618 20.9493 18.5479 20.8933 18.4441 20.8215C18.2753 20.7082 18.1375 20.5544 18.0432 20.3743C17.949 20.1941 17.9013 19.9932 17.9044 19.7899C17.9021 19.6174 17.9335 19.446 17.997 19.2856C18.0617 19.13 18.158 18.9895 18.2797 18.8729C18.3965 18.7587 18.5348 18.6687 18.6865 18.6081C18.842 18.5483 19.0073 18.5184 19.1739 18.5201C19.3109 18.5198 19.4471 18.5412 19.5774 18.5836C19.7151 18.6291 19.8451 18.6952 19.963 18.7795L19.9618 19.154Z" fill="#949498"/>
<path d="M21.5742 20.9814V18.5799H22.1384C22.2569 18.5762 22.3755 18.5852 22.4921 18.6069C22.5637 18.6236 22.631 18.6552 22.6897 18.6995C22.7633 18.7587 22.8205 18.8359 22.8557 18.9237C22.8963 19.0222 22.9165 19.128 22.9151 19.2346C22.9208 19.3168 22.9089 19.3993 22.8803 19.4766C22.8516 19.5539 22.8069 19.6242 22.749 19.6829C22.6138 19.7942 22.4409 19.8492 22.2662 19.8365H22.2152L23.1322 20.9814H22.7698L21.8939 19.8365H21.8524V20.9814H21.5742ZM21.8532 18.8228V19.6265H22.0715C22.2259 19.6419 22.3815 19.6119 22.519 19.5401C22.5602 19.5024 22.5919 19.4556 22.6116 19.4034C22.6313 19.3512 22.6384 19.295 22.6324 19.2396C22.6388 19.1802 22.6317 19.1202 22.6115 19.064C22.5913 19.0078 22.5585 18.957 22.5157 18.9154C22.3807 18.8396 22.2256 18.8073 22.0715 18.8228H21.8532Z" fill="#949498"/>
<path d="M23.4375 20.9811V18.5796H24.7036V18.8407H23.7231V19.5294H24.7036V19.7951H23.7231V20.7146H24.7036V20.9802L23.4375 20.9811Z" fill="#949498"/>
<path d="M25.2578 20.9811V18.5796H25.5434V20.7087H26.45V20.9811H25.2578Z" fill="#949498"/>
<path d="M27.6162 18.4851L28.7088 20.9816H28.3987L28.087 20.2452H27.15L26.8383 20.9816H26.5273L27.6162 18.4851ZM27.6162 19.1161L27.2331 20.0007H27.9977L27.6162 19.1161Z" fill="#949498"/>
<path d="M29.2592 20.9811V18.8519H28.5801V18.5796H30.224V18.8519H29.5477V20.9811H29.2592Z" fill="#949498"/>
<path d="M30.8965 18.5801H30.6113V20.9816H30.8965V18.5801Z" fill="#949498"/>
<path d="M34.0045 19.7853C34.0057 19.9519 33.9733 20.1171 33.9095 20.271C33.8455 20.4234 33.7511 20.5613 33.6322 20.6761C33.3886 20.9129 33.0623 21.0454 32.7226 21.0454C32.383 21.0454 32.0567 20.9129 31.8131 20.6761C31.6936 20.5608 31.5988 20.4224 31.5345 20.2692C31.4703 20.116 31.438 19.9514 31.4395 19.7853C31.4386 19.6183 31.4712 19.4529 31.5354 19.2988C31.6001 19.1454 31.6953 19.0069 31.8152 18.8915C31.935 18.7747 32.0768 18.6827 32.2324 18.6209C32.548 18.4936 32.9006 18.4936 33.2162 18.6209C33.3721 18.6826 33.5142 18.7746 33.6343 18.8915C33.7534 19.0064 33.8478 19.1444 33.9116 19.2971C33.9754 19.4519 34.0077 19.6178 34.0066 19.7853M32.7231 20.7762C32.8513 20.7764 32.9784 20.751 33.0967 20.7014C33.2167 20.6508 33.3256 20.577 33.4171 20.4843C33.5099 20.3932 33.5834 20.2844 33.6333 20.1643C33.6833 20.0442 33.7086 19.9153 33.7077 19.7853C33.7083 19.6537 33.6829 19.5234 33.633 19.4017C33.5326 19.1595 33.3408 18.9667 33.0992 18.8649C32.9798 18.8157 32.8518 18.7906 32.7226 18.7911C32.5925 18.7905 32.4636 18.8156 32.3432 18.8649C32.2241 18.9143 32.1163 18.9874 32.0265 19.08C31.9337 19.1725 31.8603 19.2825 31.8104 19.4037C31.7605 19.5248 31.7352 19.6547 31.7359 19.7857C31.735 19.9151 31.7599 20.0433 31.809 20.163C31.9114 20.4056 32.1037 20.599 32.3457 20.7027C32.4641 20.752 32.5911 20.7771 32.7193 20.7766" fill="#949498"/>
<path d="M34.5371 20.9809V18.4844L36.2939 20.4035V18.5794H36.5662V21.0743L34.8094 19.1785V20.983L34.5371 20.9809Z" fill="#949498"/>
<path d="M38.0808 19.6476C38.2208 19.7019 38.3431 19.7939 38.4341 19.9133C38.5148 20.028 38.5565 20.1655 38.5532 20.3056C38.5574 20.4044 38.5408 20.503 38.5045 20.5949C38.4682 20.6869 38.4129 20.7702 38.3423 20.8395C38.1995 20.9598 38.0214 21.0304 37.8349 21.0408C37.6484 21.0511 37.4636 21.0005 37.3083 20.8967C37.1761 20.7939 37.0842 20.6478 37.0488 20.4841L37.3083 20.3563C37.3317 20.4817 37.3919 20.5973 37.4814 20.6884C37.5634 20.7641 37.672 20.8045 37.7836 20.8009C37.9113 20.8063 38.0362 20.7616 38.1315 20.6763C38.1754 20.6352 38.2101 20.5851 38.233 20.5295C38.2559 20.4738 38.2666 20.4139 38.2643 20.3538C38.2664 20.2528 38.2337 20.1541 38.1717 20.0744C38.0969 19.9851 38.0008 19.916 37.8924 19.8735L37.6018 19.7489C37.4618 19.6968 37.3384 19.6079 37.2448 19.4916C37.1653 19.3821 37.1241 19.2494 37.1277 19.1142C37.1259 19.0339 37.142 18.9543 37.1749 18.881C37.2078 18.8078 37.2566 18.7428 37.3178 18.6908C37.4534 18.5769 37.6266 18.5177 37.8035 18.5247C37.934 18.5217 38.0629 18.5534 38.1771 18.6165C38.2853 18.6798 38.3721 18.774 38.4262 18.8871L38.1896 19.0382C38.146 18.9563 38.0844 18.8853 38.0094 18.8307C37.9426 18.7853 37.8635 18.7616 37.7828 18.7626C37.7346 18.7608 37.6865 18.7686 37.6413 18.7854C37.5961 18.8023 37.5548 18.828 37.5196 18.861C37.4585 18.9233 37.4223 19.0058 37.418 19.0929C37.4136 19.18 37.4413 19.2658 37.4959 19.3338C37.5639 19.4069 37.6474 19.4637 37.7404 19.4999L38.0808 19.6476Z" fill="#949498"/>
</g>
</g>
<defs>
<clipPath id="clip0_4735_924">
<rect width="67.5" height="21.0749" fill="white" transform="translate(0.25)"/>
</clipPath>
</defs>
</svg>
