<svg xmlns="http://www.w3.org/2000/svg" width="107" height="38" fill="none"><g clip-path="url(#a)"><path fill="#FF5A5F" d="M35.012-.002H3.355A3.166 3.166 0 0 0 .189 3.163v31.658a3.166 3.166 0 0 0 3.166 3.166h31.657a3.166 3.166 0 0 0 3.166-3.166V3.163a3.166 3.166 0 0 0-3.166-3.165Z"/><path fill="#060606" d="m55.27 25.767 6.212-15.48h-2.385L54.6 21.896l-4.498-11.61h-2.427l6.234 15.48h1.36ZM66.495 29.637l6.401-15.46h-2.343l-3.493 8.996-3.41-8.995h-2.343l4.623 11.359-1.695 4.1h2.26ZM91.624 25.768v-7.03c0-2.991-1.715-4.874-4.728-4.874-1.84 0-2.992.628-3.828 1.946-.586-1.213-2.092-1.946-3.599-1.946-1.506 0-2.384.46-3.326 1.57h-.041v-1.256h-2.009v11.59h2.176v-6.506c0-2.28.941-3.41 2.866-3.41 1.569 0 2.636.9 2.636 3.18v6.736h2.175V19.24c0-2.322.837-3.39 2.762-3.39 1.82 0 2.74 1.235 2.74 3.431v6.486h2.176ZM105.882 20.057c.042-3.682-2.971-6.193-6.171-6.193-3.557 0-6.339 2.615-6.339 6.15 0 3.264 2.908 6.046 6.171 6.046 3.703 0 6.297-2.907 6.339-6.003Zm-2.176-.126a4.111 4.111 0 0 1-4.142 4.142c-2.196 0-4.016-1.925-4.016-4.121 0-2.26 1.882-4.1 4.058-4.1 2.28 0 4.1 1.82 4.1 4.079Z"/><path fill="#fff" d="M18.569 18.728h-5.876c-.739 0-1.341.604-1.341 1.343 0 .738.603 1.344 1.34 1.344h4.537v4.978c0 .739.605 1.343 1.34 1.343.738 0 1.342-.604 1.342-1.343v-6.322c0-.739-.604-1.343-1.342-1.343Z"/><path fill="#fff" d="M25.593 14.302v14.213c0 .023 0 .046-.002.07a1.347 1.347 0 0 1-1.34 1.278 1.345 1.345 0 0 1-1.341-1.342V15.65H10.206c-.737 0-1.34-.605-1.34-1.343 0-.74.603-1.342 1.34-1.342H24.25c.374 0 .713.156.956.405l.044.045a1.407 1.407 0 0 1 .281.493l.001.003c.02.061.034.125.045.19v.002c.006.043.01.087.014.13l.001.068Z"/><path fill="#fff" d="m31.604 31.13-.001.07a1.346 1.346 0 0 1-1.34 1.274 1.349 1.349 0 0 1-1.325-1.134 1.342 1.342 0 0 1-.015-.203l-.03-21.153v-.11L7.92 9.902c-.738 0-1.34-.603-1.34-1.342 0-.738.602-1.344 1.34-1.344l22.314-.03h.015a1.346 1.346 0 0 1 1.338 1.281l.003.063c0 .026-.015.048-.016.074l.031 22.527Z"/><path fill="#fff" d="M31.603 31.202a1.346 1.346 0 0 1-1.34 1.279 1.346 1.346 0 0 1-1.282-.95c.171.545.683.945 1.282.945.715 0 1.304-.567 1.34-1.274ZM17.23 21.411v4.98c0 .738.604 1.342 1.342 1.342a1.345 1.345 0 0 0 1.34-1.342v-6.323c0-.383-.165-.723-.423-.969l-2.309 2.312h.05ZM28.924 31.134a1.353 1.353 0 0 0-.001-.006L28.895 9.98l.029 21.153Z"/></g><defs><clipPath id="a"><path fill="#fff" d="M.19 0h106.58v37.989H.19z"/></clipPath></defs></svg>