<svg xmlns="http://www.w3.org/2000/svg" width="83" height="66" fill="none" viewBox="0 0 83 66"><g clip-path="url(#a)"><path fill="#2A4C87" d="M77.402 21.6a3.274 3.274 0 0 1 4.04 2.324 3.275 3.275 0 0 1-2.327 4.042 3.282 3.282 0 0 1-4.045-2.325c-.463-1.759.593-3.559 2.332-4.042ZM67.86 27.573c-.326-1.186.399-2.414 1.58-2.745 1.188-.33 2.422.394 2.748 1.58.331 1.186-.394 2.414-1.581 2.745-1.209.305-2.438-.399-2.748-1.58ZM61.988 29.135a1.65 1.65 0 0 1 1.166-2.021 1.65 1.65 0 0 1 2.023 1.16 1.645 1.645 0 0 1-1.166 2.02 1.65 1.65 0 0 1-2.023-1.16Z"/><path fill="#2E4E88" d="M57.615 30.315a1.07 1.07 0 0 1 .746-1.27c.551-.132 1.145.194 1.276.745.132.551-.2 1.118-.746 1.275-.572.132-1.145-.2-1.276-.75Z"/><path fill="#1F3D70" d="M73.721 14.888c1.429-.835 3.252-.33 4.087 1.097.835 1.422.331 3.249-1.098 4.078-1.429.834-3.252.33-4.087-1.097-.835-1.422-.33-3.249 1.098-4.078ZM66.777 19.909c1.013-.572 2.285-.242 2.857.771.573 1.008.242 2.278-.767 2.85-1.014.572-2.285.242-2.857-.766a2.101 2.101 0 0 1 .767-2.855ZM63.352 24.305a1.478 1.478 0 0 1-.551 2.037 1.482 1.482 0 0 1-2.044-.546 1.484 1.484 0 0 1 .552-2.042c.725-.393 1.644-.152 2.043.551ZM58.427 27.15c.263.462.084 1.055-.373 1.317a.975.975 0 0 1-1.32-.372c-.267-.462-.089-1.055.374-1.318a.975.975 0 0 1 1.32.373Z"/><path fill="#194C88" d="M68.495 13.109a2.675 2.675 0 0 1 0-3.8 2.684 2.684 0 0 1 3.798 0 2.675 2.675 0 0 1 0 3.8c-1.056 1.055-2.768 1.055-3.798 0ZM65.717 18.592a1.92 1.92 0 0 1-2.747 0 1.91 1.91 0 0 1 0-2.74c.746-.772 1.975-.772 2.747 0a1.919 1.919 0 0 1 0 2.74ZM60.61 20.985c.526.504.526 1.36 0 1.89a1.358 1.358 0 0 1-1.911 0 1.355 1.355 0 0 1 0-1.91 1.34 1.34 0 0 1 1.912.02ZM55.366 24.92a.905.905 0 0 1 1.277 0 .896.896 0 0 1 0 1.27.905.905 0 0 1-1.277 0 .895.895 0 0 1 0-1.27Z"/><path fill="#3468A3" d="M62.815 8.583a2.499 2.499 0 0 1-.919-3.464 2.549 2.549 0 0 1 3.472-.924 2.542 2.542 0 0 1 .92 3.47 2.547 2.547 0 0 1-3.473.918ZM60.73 12.207c.856.51 1.166 1.606.657 2.462-.505.855-1.602 1.16-2.459.656-.856-.504-1.166-1.6-.662-2.456a1.798 1.798 0 0 1 2.464-.662ZM57.53 20.112a1.184 1.184 0 0 1-1.624.436 1.18 1.18 0 0 1-.441-1.622 1.195 1.195 0 0 1 1.628-.44c.567.33.767 1.054.436 1.626ZM54.622 24.386a.82.82 0 0 1-1.12.31.817.817 0 0 1-.31-1.119.82.82 0 1 1 1.43.808Z"/><path fill="#4C8DCB" d="M54.445 2.749c.326-1.276 1.644-2.021 2.92-1.69a2.37 2.37 0 0 1 1.692 2.918 2.372 2.372 0 0 1-2.92 1.69 2.367 2.367 0 0 1-1.692-2.918ZM52.95 11.155a1.65 1.65 0 0 1 2.022-1.165 1.65 1.65 0 0 1 1.166 2.02 1.65 1.65 0 0 1-2.022 1.16 1.663 1.663 0 0 1-1.166-2.015ZM51.746 17.735a1.115 1.115 0 0 1 2.154.572 1.11 1.11 0 0 1-1.36.787c-.594-.173-.946-.787-.794-1.359ZM51.71 22.26c.394.11.636.524.525.918a.757.757 0 0 1-.925.53.76.76 0 0 1-.525-.923c.089-.394.504-.636.925-.525Z"/><path fill="#3498B3" d="M48.892 4.577a2.242 2.242 0 1 0-2.244-2.241 2.242 2.242 0 0 0 2.244 2.24ZM48.89 12.335a1.491 1.491 0 1 0 .002-2.983 1.491 1.491 0 0 0-.002 2.983ZM48.884 18.554a1.055 1.055 0 1 0 0-2.11 1.055 1.055 0 0 0 0 2.11ZM48.886 23.336a.683.683 0 1 0 .001-1.366.683.683 0 0 0 0 1.366Z"/><path fill="#0AA496" d="M38.998 3.935a2.082 2.082 0 0 1 1.47-2.566 2.086 2.086 0 0 1 2.575 1.47 2.088 2.088 0 0 1-1.476 2.566c-1.098.284-2.26-.373-2.569-1.47ZM42.883 10.3a1.33 1.33 0 0 1 1.65.94c.199.725-.221 1.45-.947 1.649-.724.199-1.45-.22-1.649-.945-.194-.704.242-1.449.946-1.643ZM44.715 17.1a.945.945 0 0 1 1.183.682.94.94 0 0 1-.678 1.181.947.947 0 0 1-1.188-.677c-.131-.53.152-1.055.683-1.186ZM46.14 22.433a.58.58 0 0 1 .725.42.58.58 0 0 1-.415.724.587.587 0 0 1-.726-.42.59.59 0 0 1 .416-.724Z"/><path fill="#00AA75" d="M32.04 7.38a1.964 1.964 0 0 1 .725-2.656 1.97 1.97 0 0 1 2.658.724c.53.924.2 2.13-.725 2.656-.924.53-2.106.22-2.658-.725ZM36.965 14.378a1.183 1.183 0 0 1 .44-1.622 1.186 1.186 0 0 1 1.624.441c.331.567.131 1.291-.441 1.622-.567.33-1.319.131-1.623-.44ZM40.518 20.003c-.241-.441-.11-.987.326-1.229.442-.24.994-.11 1.235.326.242.44.105.992-.33 1.233-.421.242-.968.084-1.23-.33ZM44.118 24.48a.538.538 0 0 1-.705-.199.556.556 0 0 1 .195-.724.557.557 0 0 1 .725.2c.158.24.069.571-.215.724Z"/><path fill="#4FBA6A" d="M26.145 12.515a1.798 1.798 0 0 1 0-2.545 1.802 1.802 0 0 1 2.548 0 1.798 1.798 0 0 1 0 2.545c-.683.704-1.823.704-2.548 0ZM34.216 18.001c-.394.42-1.056.42-1.471 0-.42-.393-.42-1.05 0-1.47a1.025 1.025 0 0 1 1.47 0c.395.394.395 1.056 0 1.47ZM38.767 22.548a.81.81 0 0 1-1.167 0 .808.808 0 0 1 0-1.165.82.82 0 0 1 1.167 0c.31.33.31.835 0 1.165ZM42.17 25.927a.471.471 0 0 1-.615 0 .427.427 0 0 1-.02-.614.42.42 0 0 1 .614-.021.463.463 0 0 1 .021.635Z"/><path fill="#7EC45F" d="M21.156 16.664a1.649 1.649 0 0 1 2.244-.593 1.641 1.641 0 0 1 .593 2.24 1.644 1.644 0 0 1-2.243.594c-.788-.462-1.056-1.47-.594-2.241ZM30.78 22.235a.906.906 0 0 1-1.235.33c-.415-.262-.573-.787-.326-1.228a.923.923 0 0 1 1.23-.33.916.916 0 0 1 .331 1.228ZM36.435 25.486c-.2.351-.662.462-1.014.267a.734.734 0 0 1-.284-1.013.728.728 0 0 1 1.01-.283c.352.22.483.677.288 1.029Z"/><path fill="#4C609B" d="M79.307 36.244a3.602 3.602 0 0 0 3.604-3.601c0-1.989-1.614-3.6-3.604-3.6a3.602 3.602 0 0 0-3.604 3.6c0 1.989 1.614 3.6 3.604 3.6ZM70.78 35.212a2.568 2.568 0 1 0-2.57-2.567 2.568 2.568 0 0 0 2.57 2.567ZM64.12 34.404a1.759 1.759 0 1 0 0-3.518 1.759 1.759 0 0 0 0 3.518Z"/><path fill="#54669F" d="M58.95 33.788a1.145 1.145 0 1 0 0-2.29 1.145 1.145 0 0 0 0 2.29Z"/><path fill="#746FA7" d="M81.427 41.31v.026c-.483 1.753-2.285 2.808-4.04 2.325-1.76-.483-2.816-2.284-2.332-4.042.483-1.753 2.285-2.808 4.045-2.325 1.733.483 2.79 2.283 2.327 4.015ZM67.861 37.687c.331-1.18 1.56-1.905 2.748-1.58 1.187.33 1.912 1.559 1.58 2.745-.325 1.186-1.56 1.91-2.747 1.58a2.234 2.234 0 0 1-1.58-2.745ZM61.987 36.132a1.65 1.65 0 0 1 2.023-1.165 1.645 1.645 0 0 1 1.166 2.02 1.65 1.65 0 0 1-2.023 1.16 1.667 1.667 0 0 1-1.166-2.015ZM57.592 34.969c.152-.572.725-.903 1.271-.746.573.153.904.725.752 1.27-.158.573-.725.903-1.277.746-.573-.152-.898-.745-.746-1.27Z"/><path fill="#99558E" d="M77.808 49.277c-.835 1.428-2.658 1.932-4.087 1.102-1.429-.834-1.933-2.655-1.098-4.083.835-1.428 2.658-1.931 4.087-1.097a2.999 2.999 0 0 1 1.098 4.078ZM66.797 45.353c-1.009-.572-1.34-1.842-.767-2.855.572-1.008 1.844-1.338 2.858-.766 1.008.572 1.34 1.842.766 2.855-.593.987-1.864 1.338-2.857.766ZM61.309 41.511a1.484 1.484 0 0 1-.552-2.042 1.482 1.482 0 0 1 2.044-.545c.725.414.966 1.317.551 2.041-.42.698-1.318.94-2.043.546ZM57.13 38.456h-.02c-.463-.289-.642-.877-.353-1.339a.998.998 0 0 1 1.34-.351.995.995 0 0 1 .353 1.338.968.968 0 0 1-1.32.352Z"/><path fill="#AF3379" d="M72.271 52.153a2.675 2.675 0 0 1 0 3.8 2.69 2.69 0 0 1-3.803 0 2.685 2.685 0 0 1 0-3.8c1.056-1.029 2.768-1.029 3.803 0ZM62.97 49.413a1.916 1.916 0 0 1 0-2.745c.746-.772 1.975-.772 2.747 0 .767.745.767 1.973 0 2.745-.772.766-2.001.766-2.747 0ZM58.699 44.274c-.526-.504-.526-1.359 0-1.89a1.358 1.358 0 0 1 1.912 0c.525.531.525 1.386 0 1.911a1.33 1.33 0 0 1-1.912-.02ZM55.366 39.05a.905.905 0 0 1 1.277 0 .896.896 0 0 1 0 1.27.905.905 0 0 1-1.277 0 .895.895 0 0 1 0-1.27Z"/><path fill="#BE266A" d="M66.297 57.596a2.542 2.542 0 0 1-.92 3.469 2.549 2.549 0 0 1-3.471-.924 2.536 2.536 0 0 1 .919-3.464 2.547 2.547 0 0 1 3.472.919ZM60.715 53.079c-.883.504-1.96.2-2.464-.662-.505-.876-.195-1.952.662-2.456a1.792 1.792 0 0 1 2.458.661c.504.856.2 1.953-.657 2.457ZM55.465 46.338a1.18 1.18 0 0 1 .44-1.622 1.189 1.189 0 0 1 1.624.436c.331.572.131 1.297-.436 1.627a1.195 1.195 0 0 1-1.628-.44ZM54.622 40.873a.82.82 0 0 1-.305 1.118c-.4.22-.904.09-1.124-.304a.822.822 0 1 1 1.43-.814Z"/><path fill="#D4525C" d="M59.057 61.283c.352 1.27-.415 2.567-1.691 2.919-1.277.351-2.57-.415-2.921-1.69-.352-1.27.415-2.567 1.691-2.919a2.372 2.372 0 0 1 2.921 1.69ZM52.95 54.083a1.663 1.663 0 0 1 1.166-2.015 1.65 1.65 0 0 1 2.023 1.16c.241.876-.29 1.78-1.167 2.02a1.633 1.633 0 0 1-2.022-1.165ZM53.107 48.308a1.112 1.112 0 0 1-1.36-.787 1.115 1.115 0 0 1 2.153-.572c.179.614-.173 1.228-.793 1.36ZM51.686 42.998a.748.748 0 0 1-.925-.524.76.76 0 0 1 .526-.924c.4-.105.814.136.925.53a.751.751 0 0 1-.526.918Z"/><path fill="#E0654F" d="M48.892 65.173a2.242 2.242 0 1 0-2.244-2.241 2.242 2.242 0 0 0 2.244 2.24ZM48.89 55.903a1.491 1.491 0 1 0 .002-2.983 1.491 1.491 0 0 0-.002 2.983ZM48.884 48.8a1.055 1.055 0 1 0 .001-2.11 1.055 1.055 0 0 0-.001 2.11ZM48.886 43.286a.683.683 0 1 0 .001-1.365.683.683 0 0 0 0 1.365Z"/><path fill="#F57F2A" d="M43.05 62.425c-.31 1.097-1.45 1.78-2.575 1.475-1.097-.31-1.78-1.449-1.47-2.572.31-1.097 1.45-1.774 2.568-1.47a2.088 2.088 0 0 1 1.477 2.567ZM44.532 54.002a1.344 1.344 0 0 1-2.595-.703c.2-.704.925-1.145 1.65-.945.724.2 1.145.944.945 1.648ZM45.896 47.483c-.131.504-.657.809-1.182.677a.969.969 0 0 1-.683-1.186c.13-.504.657-.808 1.187-.677.526.152.836.677.678 1.186ZM46.168 42.825c-.31-.068-.484-.414-.42-.724.068-.31.42-.483.725-.415.31.063.504.394.42.725a.586.586 0 0 1-.725.414Z"/><path fill="#F89828" d="M35.4 59.815a1.971 1.971 0 0 1-2.658.703 1.963 1.963 0 0 1-.704-2.656 1.96 1.96 0 0 1 2.658-.703c.924.546 1.255 1.732.704 2.656ZM39.03 52.067a1.189 1.189 0 0 1-1.624.435 1.183 1.183 0 0 1-.441-1.622 1.186 1.186 0 0 1 1.623-.44c.572.33.772 1.055.441 1.627ZM40.542 45.26c.241-.436.788-.572 1.23-.33.441.24.572.792.33 1.233-.241.435-.793.566-1.23.325-.44-.242-.572-.787-.33-1.228ZM44.369 41.49a.497.497 0 0 1-.704.2.496.496 0 0 1-.2-.704.497.497 0 0 1 .704-.2c.242.153.331.483.2.704Z"/><path fill="#FEC127" d="M28.724 52.745a1.802 1.802 0 1 1-2.548 0 1.802 1.802 0 0 1 2.548 0ZM34.216 47.26c.42.393.394 1.049 0 1.469a1.025 1.025 0 0 1-1.471 0 1.014 1.014 0 0 1 0-1.47 1.016 1.016 0 0 1 1.47 0ZM38.767 42.713a.808.808 0 0 1 0 1.165.82.82 0 0 1-1.167 0 .808.808 0 0 1 0-1.165.81.81 0 0 1 1.167 0ZM42.17 39.97a.46.46 0 0 1-.615 0 .427.427 0 0 1-.02-.615.429.429 0 0 1 .614-.02.463.463 0 0 1 .021.634Z"/><path fill="#FED627" d="M24.044 46.91c.462.787.2 1.78-.594 2.236-.788.462-1.776.2-2.238-.593a1.619 1.619 0 0 1 .594-2.236c.788-.462 1.802-.2 2.238.593ZM30.78 43.03a.916.916 0 0 1-.33 1.228.912.912 0 0 1-1.23-.33.908.908 0 0 1 .325-1.228.92.92 0 0 1 1.235.33ZM36.404 39.778a.72.72 0 0 1-.263 1.007.722.722 0 0 1-1.01-.262.72.72 0 0 1 .264-1.008.722.722 0 0 1 1.009.263Z"/><path fill="#351A55" fill-rule="evenodd" d="M18.459 27.414h2.637v10.14H18.46v-10.14Zm2.68-2.656a1.522 1.522 0 0 1-1.866 1.076 1.518 1.518 0 0 1-1.077-1.863 1.517 1.517 0 0 1 1.865-1.076c.814.2 1.298 1.055 1.077 1.863Zm8.11 13.017c-.64 0-1.276-.11-1.87-.373a3.56 3.56 0 0 1-1.34-1.076v6.298H23.47v-15.21h2.548v1.407c.331-.504.788-.898 1.34-1.187a4.204 4.204 0 0 1 1.87-.435c.636 0 1.25.131 1.844.372a4.835 4.835 0 0 1 1.56 1.05 5.176 5.176 0 0 1 1.077 1.67c.284.703.415 1.427.394 2.172a5.45 5.45 0 0 1-.415 2.194 5.825 5.825 0 0 1-1.098 1.67 4.6 4.6 0 0 1-3.34 1.448Zm-.53-2.457c.372 0 .75-.068 1.097-.22.331-.152.641-.352.904-.614a2.67 2.67 0 0 0 .594-.903 3.043 3.043 0 0 0 0-2.236c-.132-.33-.352-.635-.594-.903a3.203 3.203 0 0 0-.904-.614 2.73 2.73 0 0 0-1.098-.215c-.745 0-1.47.305-2.022.83a2.707 2.707 0 0 0-.588.902 2.937 2.937 0 0 0 0 2.215c.131.33.325.64.588.903.552.567 1.277.876 2.022.855Zm7.275-7.904h2.548v1.559a2.725 2.725 0 0 1 1.098-1.318 3.345 3.345 0 0 1 1.718-.414c.326 0 .636.042.94.11a3.1 3.1 0 0 1 .772.283l-.945 2.546a2.827 2.827 0 0 0-.573-.262 3.394 3.394 0 0 0-.788-.11 2.361 2.361 0 0 0-1.607.55c-.394.373-.594.987-.594 1.822v5.353h-2.569v-10.12Zm12.813 10.36a5.55 5.55 0 0 1-2.133-.414 5.66 5.66 0 0 1-1.712-1.144 5.242 5.242 0 0 1-1.54-3.732c0-.703.132-1.401.394-2.063a5.161 5.161 0 0 1 1.12-1.69 5.5 5.5 0 0 1 7.648 0 5.283 5.283 0 0 1 1.56 3.732c0 .703-.131 1.407-.415 2.042a5.625 5.625 0 0 1-1.124 1.69 5.096 5.096 0 0 1-1.713 1.139c-.635.288-1.36.44-2.085.44Zm.02-2.456c.374 0 .747-.068 1.099-.22.33-.152.614-.352.877-.593.263-.263.462-.572.594-.903a2.939 2.939 0 0 0 0-2.215 2.652 2.652 0 0 0-.594-.897 2.5 2.5 0 0 0-.877-.593 2.662 2.662 0 0 0-2.175 0 3.47 3.47 0 0 0-.883.593 2.635 2.635 0 0 0-.588.897 2.939 2.939 0 0 0 0 2.215c.131.33.326.64.588.903.268.262.552.462.883.593.331.131.704.22 1.077.22ZM.11 27.414h2.638L4.79 33.89l2.417-6.477h2.285l2.374 6.477L14 27.414h2.637l-3.451 10.14h-2.438l-2.422-6.608-2.437 6.608H3.403L.11 27.414Z" clip-rule="evenodd"/></g><defs><clipPath id="a"><path fill="#fff" d="M.055.09H82.95v65.083H.055z"/></clipPath></defs></svg>