<svg width="64" height="64" viewBox="0 0 64 64" fill="none" xmlns="http://www.w3.org/2000/svg">
<rect width="64" height="64" rx="6" fill="white"/>
<g clip-path="url(#clip0_4297_983)">
<path fill-rule="evenodd" clip-rule="evenodd" d="M25.5882 10.3984C23.1501 10.3984 20.812 11.3669 19.0881 13.0908L10.7695 21.4091V25.2167C10.7695 27.9067 11.9251 30.3269 13.7668 32.0079C11.9251 33.6889 10.7695 36.109 10.7695 38.7991V42.6067L19.0881 50.925C20.812 52.6489 23.1501 53.6174 25.5882 53.6174C28.2783 53.6174 30.6985 52.4619 32.3795 50.6201C34.0606 52.4619 36.4808 53.6174 39.1709 53.6174C41.6089 53.6174 43.947 52.6489 45.671 50.925L53.9895 42.6067V38.7991C53.9895 36.109 52.834 33.6889 50.9922 32.0079C52.834 30.3269 53.9895 27.9067 53.9895 25.2167V21.4091L45.671 13.0908C43.947 11.3669 41.6089 10.3984 39.1709 10.3984C36.4808 10.3984 34.0606 11.5539 32.3795 13.3957C30.6985 11.5539 28.2783 10.3984 25.5882 10.3984ZM38.6019 32.0079C38.4983 31.9133 38.3966 31.8162 38.297 31.7166L32.3795 25.7993L26.4621 31.7166C26.3624 31.8162 26.2608 31.9133 26.1571 32.0079C26.2608 32.1024 26.3624 32.1996 26.4621 32.2992L32.3795 38.2165L38.297 32.2992C38.3966 32.1996 38.4983 32.1024 38.6019 32.0079ZM34.7806 42.6067V44.4251C34.7806 46.8497 36.7463 48.8153 39.1709 48.8153C40.3353 48.8153 41.452 48.3527 42.2753 47.5294L49.1874 40.6175V38.7991C49.1874 36.3745 47.2217 34.4089 44.7971 34.4089C43.6327 34.4089 42.516 34.8715 41.6927 35.6948L34.7806 42.6067ZM29.9784 42.6067L23.0664 35.6948C22.243 34.8715 21.1264 34.4089 19.962 34.4089C17.5373 34.4089 15.5717 36.3745 15.5717 38.7991V40.6175L22.4838 47.5294C23.3071 48.3527 24.4238 48.8153 25.5882 48.8153C28.0128 48.8153 29.9784 46.8497 29.9784 44.4251V42.6067ZM29.9784 19.5907V21.4091L23.0664 28.321C22.243 29.1443 21.1264 29.6069 19.962 29.6069C17.5373 29.6069 15.5717 27.6413 15.5717 25.2167V23.3982L22.4838 16.4864C23.3071 15.6631 24.4238 15.2005 25.5882 15.2005C28.0128 15.2005 29.9784 17.1661 29.9784 19.5907ZM41.6927 28.321L34.7806 21.4091V19.5907C34.7806 17.1661 36.7463 15.2005 39.1709 15.2005C40.3353 15.2005 41.452 15.6631 42.2753 16.4864L49.1874 23.3982V25.2167C49.1874 27.6413 47.2217 29.6069 44.7971 29.6069C43.6327 29.6069 42.516 29.1443 41.6927 28.321Z" fill="#FF630B"/>
</g>
<defs>
<clipPath id="clip0_4297_983">
<rect width="43.22" height="44.2994" fill="white" transform="translate(10.7812 9.84766)"/>
</clipPath>
</defs>
</svg>
