<svg width="64" height="64" viewBox="0 0 64 64" fill="none" xmlns="http://www.w3.org/2000/svg">
<rect width="64" height="64" rx="6" fill="white"/>
<path fill-rule="evenodd" clip-rule="evenodd" d="M34.0622 15.3001C34.0622 14.1658 33.7981 13.0472 33.2908 12.0327C32.8523 11.1557 32.5949 10.1995 32.5337 9.22097L32.3871 6.875L32.2405 9.22088C32.1793 10.1994 31.9218 11.1557 31.4834 12.0326C30.9761 13.0472 30.712 14.1659 30.712 15.3001V48.7024C30.712 49.8366 30.9761 50.9554 31.4834 51.9699C31.9218 52.8468 32.1793 53.8031 32.2405 54.7817L32.3871 57.1275L32.5337 54.7816C32.5949 53.803 32.8523 52.8468 33.2908 51.9698C33.7981 50.9554 34.0622 49.8367 34.0622 48.7024V15.3001ZM24.9154 15.3828C25.4227 16.3973 25.6867 17.5161 25.6867 18.6503V45.3522C25.6867 46.4865 25.4227 47.6052 24.9154 48.6198C24.4769 49.4967 24.2195 50.4529 24.1582 51.4314L24.0117 53.7774L23.8651 51.4314C23.8038 50.4529 23.5464 49.4967 23.1079 48.6198C22.6006 47.6052 22.3366 46.4865 22.3366 45.3522V18.6503C22.3366 17.5161 22.6006 16.3973 23.1079 15.3828C23.5464 14.5059 23.8038 13.5497 23.8651 12.5711L24.0117 10.2252L24.1582 12.5711C24.2195 13.5497 24.4769 14.5059 24.9154 15.3828ZM21.499 22.0005C21.499 20.8661 21.235 19.7475 20.7276 18.733C20.2892 17.856 20.0317 16.8998 19.9706 15.9213L19.8239 13.5753L19.6773 15.9213C19.6162 16.8998 19.3587 17.856 18.9202 18.733C18.4129 19.7475 18.1489 20.8661 18.1489 22.0005V42.002C18.1489 43.1363 18.4129 44.255 18.9202 45.2695C19.3587 46.1465 19.6162 47.1027 19.6773 48.0812L19.8239 50.4272L19.9706 48.0812C20.0317 47.1027 20.2892 46.1465 20.7276 45.2695C21.235 44.255 21.499 43.1363 21.499 42.002V22.0005ZM16.54 25.4333C17.0472 26.4478 17.3113 27.5665 17.3113 28.7008V35.3017C17.3113 36.4359 17.0472 37.5547 16.54 38.5692C16.1015 39.4462 15.844 40.4023 15.7829 41.3809L15.6362 43.7269L15.4896 41.3809C15.4284 40.4023 15.171 39.4462 14.7325 38.5692C14.2252 37.5547 13.9611 36.4359 13.9611 35.3017V28.7008C13.9611 27.5665 14.2252 26.4478 14.7325 25.4333C15.171 24.5564 15.4284 23.6001 15.4896 22.6216L15.6362 20.2757L15.7829 22.6216C15.844 23.6001 16.1015 24.5564 16.54 25.4333ZM13.1234 32.0013L13.1236 32.051V31.9515L13.1234 32.0013ZM9.77344 32.051L9.77361 32.0013C9.7812 33.1185 10.0449 34.2194 10.5448 35.219C10.9833 36.096 11.2407 37.0522 11.3019 38.0307L11.4485 40.3767L11.5951 38.0307C11.6563 37.0522 11.9138 36.096 12.3523 35.219C12.8521 34.2194 13.1158 33.1185 13.1234 32.0013C13.1158 30.884 12.8521 29.7831 12.3523 28.7835C11.9138 27.9065 11.6563 26.9504 11.5951 25.9718L11.4485 23.6258L11.3019 25.9718C11.2407 26.9504 10.9833 27.9065 10.5448 28.7835C10.0449 29.7831 9.7812 30.884 9.77361 32.0013L9.77344 31.9515V32.051ZM29.1031 12.0326C29.6104 13.0472 29.8744 14.1659 29.8744 15.3001V48.7024C29.8744 49.8367 29.6104 50.9554 29.1031 51.9698C28.6646 52.8468 28.4072 53.803 28.3459 54.7816L28.1994 57.1275L28.0528 54.7816C27.9915 53.803 27.7341 52.8468 27.2957 51.9698C26.7883 50.9554 26.5243 49.8367 26.5243 48.7024V15.3001C26.5243 14.1659 26.7883 13.0472 27.2957 12.0326C27.7341 11.1557 27.9915 10.1995 28.0528 9.22092L28.1994 6.875L28.3459 9.22092C28.4072 10.1995 28.6646 11.1557 29.1031 12.0326ZM37.4785 12.0326C37.9858 13.0472 38.2499 14.1659 38.2499 15.3001V48.7024C38.2499 49.8367 37.9858 50.9554 37.4785 51.9698C37.04 52.8468 36.7826 53.803 36.7214 54.7816L36.5748 57.1275L36.4282 54.7816C36.367 53.803 36.1095 52.8468 35.6711 51.9698C35.1637 50.9554 34.8997 49.8367 34.8997 48.7024V15.3001C34.8997 14.1659 35.1637 13.0472 35.6711 12.0326C36.1095 11.1557 36.367 10.1995 36.4282 9.22092L36.5748 6.875L36.7214 9.22092C36.7826 10.1995 37.04 11.1557 37.4785 12.0326ZM42.4376 18.6503C42.4376 17.5161 42.1735 16.3973 41.6662 15.3828C41.2277 14.5059 40.9703 13.5497 40.9091 12.5711L40.7625 10.2252L40.6159 12.5711C40.5547 13.5497 40.2972 14.5059 39.8588 15.3828C39.3514 16.3973 39.0874 17.5161 39.0874 18.6503V45.3522C39.0874 46.4865 39.3514 47.6052 39.8588 48.6198C40.2972 49.4967 40.5547 50.4529 40.6159 51.4314L40.7625 53.7774L40.9091 51.4314C40.9703 50.4529 41.2277 49.4967 41.6662 48.6198C42.1735 47.6052 42.4376 46.4865 42.4376 45.3522V18.6503ZM45.8539 18.733C46.3613 19.7475 46.6253 20.8661 46.6253 22.0005V42.002C46.6253 43.1363 46.3613 44.255 45.8539 45.2695C45.4155 46.1465 45.158 47.1027 45.0968 48.0812L44.9502 50.4272L44.8036 48.0812C44.7424 47.1027 44.485 46.1465 44.0465 45.2695C43.5393 44.255 43.2751 43.1363 43.2751 42.002V22.0005C43.2751 20.8661 43.5393 19.7475 44.0465 18.733C44.485 17.856 44.7424 16.8998 44.8036 15.9213L44.9502 13.5753L45.0968 15.9213C45.158 16.8998 45.4155 17.856 45.8539 18.733ZM50.813 28.7008C50.813 27.5665 50.549 26.4478 50.0416 25.4333C49.6032 24.5564 49.3457 23.6001 49.2845 22.6216L49.1379 20.2757L48.9913 22.6216C48.9301 23.6001 48.6727 24.5564 48.2342 25.4333C47.727 26.4478 47.4628 27.5665 47.4628 28.7008V35.3017C47.4628 36.4359 47.727 37.5547 48.2342 38.5692C48.6727 39.4462 48.9301 40.4023 48.9913 41.3809L49.1379 43.7269L49.2845 41.3809C49.3457 40.4023 49.6032 39.4462 50.0416 38.5692C50.549 37.5547 50.813 36.4359 50.813 35.3017V28.7008ZM55.0005 32.0013C55.0006 32.0178 55.0007 32.0343 55.0007 32.051V31.9515C55.0007 31.9682 55.0006 31.9847 55.0005 32.0013ZM51.6507 32.0013C51.6583 33.1185 51.922 34.2194 52.4219 35.219C52.8604 36.096 53.1178 37.0522 53.1791 38.0307L53.3256 40.3767L53.4722 38.0307C53.5334 37.0522 53.7909 36.096 54.2293 35.219C54.7292 34.2194 54.993 33.1185 55.0005 32.0013C54.993 30.884 54.7292 29.7831 54.2293 28.7835C53.7909 27.9065 53.5334 26.9504 53.4722 25.9718L53.3256 23.6258L53.1791 25.9718C53.1178 26.9504 52.8604 27.9065 52.4219 28.7835C51.922 29.7831 51.6583 30.884 51.6507 32.0013ZM51.6507 32.0013C51.6506 31.9847 51.6505 31.9682 51.6505 31.9515V32.051C51.6505 32.0343 51.6506 32.0178 51.6507 32.0013Z" fill="#3D9696"/>
</svg>
