<svg width="64" height="64" viewBox="0 0 64 64" fill="none" xmlns="http://www.w3.org/2000/svg">
<rect width="64" height="64" rx="6" fill="white"/>
<path fill-rule="evenodd" clip-rule="evenodd" d="M12.1992 32.4624L12.2013 32.2483L12.2055 32.0341L12.212 31.8199L12.2206 31.6056L12.2315 31.3914L12.2445 31.1772L12.2598 30.9631L12.2772 30.749L12.2969 30.535L12.3188 30.321L12.3428 30.1073L12.3691 29.8936L12.3975 29.6801L12.4282 29.4669L12.461 29.2538L12.4961 29.0411L12.5334 28.8285L12.5728 28.6163L12.6144 28.4043L12.6583 28.1927L12.7043 27.9813L12.7525 27.7704L12.8028 27.56L12.8554 27.3498L12.9101 27.1402L12.967 26.9309L13.0261 26.7221L13.0873 26.5139L13.1507 26.3062L13.2162 26.099L13.2839 25.8924L13.3538 25.6863L13.4258 25.4808L13.4999 25.276L13.5761 25.0718L13.6545 24.8683L13.735 24.6655L13.8175 24.4634L13.9022 24.2621L13.989 24.0614L14.0779 23.8615L14.1689 23.6625L14.2619 23.4643L14.357 23.2668L14.4542 23.0702L14.5534 22.8746L14.6547 22.6798L14.758 22.4859L14.8633 22.2931L14.9707 22.1011L15.08 21.91L15.1914 21.7201L15.3047 21.5311L15.42 21.3431L15.5374 21.1563L15.6566 20.9705L15.7778 20.7859L15.901 20.6022L16.0261 20.4198L16.1531 20.2385L16.282 20.0584L16.4128 19.8795L16.5454 19.7017L16.68 19.5253L16.8164 19.3501L16.9547 19.1761L17.0948 19.0034L17.2367 18.8321L17.3805 18.6621L17.526 18.4934L17.6733 18.326L17.8224 18.1601L17.9733 17.9956L18.1259 17.8324L18.2802 17.6707L18.4362 17.5105L18.594 17.3517L18.7534 17.1944L18.9145 17.0386L19.0773 16.8844L19.2417 16.7317L19.4077 16.5805L19.5754 16.4309L19.7446 16.2829L19.9154 16.1364L20.0878 15.9916L20.2618 15.8485L20.4372 15.707L20.6142 15.5671L20.7927 15.4289L20.9727 15.2925L21.1542 15.1577L21.3371 15.0247L21.5214 14.8934L21.7071 14.7639L21.8943 14.6362L22.0828 14.5102L22.2726 14.386L22.4639 14.2637L22.6565 14.1431L22.8503 14.0245L23.0455 13.9076L23.2419 13.7927L23.4395 13.6796L23.6385 13.5684L23.8386 13.4592L24.0399 13.3518L24.2424 13.2464L24.446 13.1429L24.6508 13.0414L24.8567 12.9419L25.0638 12.8443L25.2718 12.7487L25.481 12.6552L25.6911 12.5636L25.9024 12.4741L26.1145 12.3866L26.3277 12.3012L26.5418 12.2178L26.7569 12.1365L26.9728 12.0572L27.1897 11.9801L27.4074 11.905L27.626 11.8321L27.8454 11.7613L28.0656 11.6925L28.2866 11.626L28.5085 11.5615L28.7309 11.4993L28.9542 11.4391L29.1781 11.3812L29.4027 11.3254L29.6279 11.2718L29.8539 11.2204L30.0804 11.1712L30.3075 11.1241L30.5351 11.0793L30.7634 11.0367L30.9921 10.9964L31.2214 10.9582L31.4511 10.9223L31.6812 10.8886L31.9118 10.8572L32.1428 10.828L32.3742 10.8011L32.606 10.7764L32.838 10.754L33.0704 10.7339L33.3031 10.716L33.536 10.7004L34.7886 10.6289L34.8601 16.6641L34.901 16.6636L35.074 16.6633L35.247 16.6648L35.42 16.668L35.5932 16.6728L35.7662 16.6794L35.9394 16.6876L36.1126 16.6976L36.2858 16.7093L36.4589 16.7226L36.6321 16.7377L36.8051 16.7545L36.978 16.773L37.1508 16.7932L37.3236 16.8151L37.4961 16.8388L37.6686 16.8641L37.8408 16.8911L38.0129 16.9199L38.1847 16.9503L38.3564 16.9825L38.5278 17.0163L38.6988 17.0519L38.8698 17.0891L39.0403 17.128L39.2105 17.1687L39.3805 17.211L39.55 17.255L39.7192 17.3007L39.888 17.3481L40.0565 17.3972L40.2244 17.448L40.392 17.5004L40.5591 17.5545L40.7257 17.6103L40.8919 17.6677L41.0575 17.7268L41.2227 17.7875L41.3872 17.8499L41.5512 17.914L41.7147 17.9797L41.8775 18.047L42.0397 18.116L42.2013 18.1866L42.3623 18.2588L42.5226 18.3326L42.6822 18.408L42.8412 18.4851L42.9994 18.5637L43.1569 18.644L43.3137 18.7258L43.4697 18.8092L43.6249 18.8942L43.7793 18.9807L43.9329 19.0688L44.0857 19.1585L44.2376 19.2497L44.3887 19.3424L44.5389 19.4366L44.6882 19.5325L44.8366 19.6297L44.984 19.7285L45.1306 19.8289L45.2761 19.9306L45.4208 20.0339L45.5644 20.1386L45.7069 20.2448L45.8486 20.3525L45.9891 20.4616L46.1286 20.5722L46.267 20.684L46.4044 20.7974L46.5406 20.9122L46.6758 21.0284L46.8099 21.1459L46.9428 21.2648L47.0744 21.3851L47.205 21.5068L47.3344 21.6298L47.4626 21.7541L47.5895 21.8797L47.7152 22.0066L47.8397 22.1349L47.963 22.2644L48.0849 22.3952L48.2056 22.5273L48.325 22.6606L48.4431 22.7951L48.5598 22.9309L48.6752 23.0679L48.7893 23.206L48.902 23.3455L49.0134 23.486L49.1233 23.6276L49.2319 23.7705L49.339 23.9145L49.4447 24.0596L49.549 24.2059L49.6518 24.3532L49.7531 24.5015L49.853 24.651L49.9514 24.8015L50.0484 24.9531L50.1437 25.1057L50.2376 25.2592L50.3299 25.4138L50.4207 25.5694L50.5099 25.7259L50.5976 25.8834L50.6837 26.0418L50.7683 26.2011L50.8512 26.3614L50.9325 26.5225L51.0122 26.6845L51.0903 26.8474L51.1668 27.0111L51.2416 27.1757L51.3148 27.341L51.3862 27.5072L51.456 27.6742L51.5242 27.8418L51.5906 28.0103L51.6554 28.1794L51.7184 28.3494L51.7797 28.5199L51.8393 28.6913L51.8973 28.8632L51.9535 29.0359L52.0078 29.2091L52.0605 29.3829L52.1114 29.5574L52.1605 29.7324L52.2078 29.908L52.2535 30.0842L52.2972 30.2608L52.3393 30.4381L52.3794 30.6158L52.4178 30.794L52.4544 30.9725L52.4892 31.1517L52.5221 31.3312L52.5533 31.5111L52.5825 31.6913L52.61 31.872L52.6356 32.0531L52.6594 32.2344L52.6813 32.4161L52.7014 32.5981L52.7195 32.7804L52.7359 32.9629L52.7504 33.1457L52.763 33.3287L52.7737 33.5119L52.7826 33.6953L52.7896 33.8789L52.7946 34.0626L52.7979 34.2465L52.7992 34.4304L52.7987 34.6145L52.7962 34.7987L52.7918 34.983L52.7856 35.1672L52.7775 35.3515L52.7676 35.5358L52.7556 35.7201L52.7418 35.9044L52.7261 36.0886L52.7085 36.2728L52.6891 36.4569L52.6676 36.6408L52.6443 36.8247L52.6192 37.0083L52.592 37.1919L52.5631 37.3752L52.5322 37.5584L52.4994 37.7413L52.4648 37.924L52.4283 38.1065L52.3898 38.2886L52.3494 38.4705L52.3072 38.6521L52.2632 38.8333L52.2171 39.0142L52.1693 39.1946L52.1196 39.3748L52.068 39.5545L52.0146 39.7338L51.9592 39.9127L51.902 40.091L51.843 40.269L51.7821 40.4464L51.7193 40.6233L51.6547 40.7997L51.5883 40.9755L51.52 41.1507L51.4499 41.3254L51.378 41.4994L51.3043 41.6728L51.2287 41.8457L51.1514 42.0177L51.0722 42.1892L50.9912 42.3599L50.9085 42.5299L50.8239 42.6993L50.7377 42.8678L50.6496 43.0356L50.5598 43.2025L50.4681 43.3687L50.3749 43.534L50.2798 43.6986L50.183 43.8623L50.0845 44.025L49.9842 44.1869L49.8822 44.3479L49.7786 44.5079L49.6733 44.667L49.5663 44.8251L49.4576 44.9823L49.3473 45.1385L49.2353 45.2936L49.1216 45.4478L49.0063 45.6009L48.8894 45.7529L48.7709 45.9038L48.6509 46.0537L48.5292 46.2024L48.4059 46.35L48.281 46.4964L48.1546 46.6418L48.0266 46.7859L47.8971 46.9288L47.7661 47.0706L47.6336 47.2111L47.4995 47.3504L47.3641 47.4884L47.227 47.6251L47.0885 47.7606L46.9487 47.8948L46.8073 48.0277L46.6646 48.1592L46.5203 48.2895L46.3747 48.4182L46.2278 48.5457L46.0794 48.6719L45.9297 48.7965L45.7786 48.9197L45.6263 49.0416L45.4725 49.162L45.3175 49.281L45.1612 49.3984L45.0036 49.5144L44.8448 49.6289L44.6847 49.7419L44.5233 49.8534L44.3608 49.9634L44.1971 50.0717L44.0322 50.1785L43.8661 50.2839L43.6989 50.3875L43.5306 50.4897L43.361 50.5901L43.1904 50.689L43.0188 50.7863L42.8459 50.8818L42.6722 50.9758L42.4973 51.068L42.3214 51.1586L42.1445 51.2476L41.9666 51.3348L41.7878 51.4203L41.6079 51.5041L41.4272 51.5862L41.2455 51.6665L41.0629 51.7451L40.8795 51.8219L40.6952 51.897L40.51 51.9703L40.324 52.0418L40.1371 52.1115L39.9495 52.1794L39.7611 52.2455L39.572 52.3097L39.3821 52.3722L39.1914 52.4328L39 52.4916L38.808 52.5485L38.6154 52.6035L38.422 52.6567L38.2281 52.7081L38.0334 52.7575L37.8383 52.805L37.6426 52.8508L37.4462 52.8945L37.2494 52.9364L37.0521 52.9763L36.8542 53.0143L36.6559 53.0505L36.4572 53.0845L36.2579 53.1168L36.0583 53.1472L35.8582 53.1755L35.6579 53.2019L35.4571 53.2263L35.256 53.2488L35.0546 53.2693L34.8528 53.2879L34.6509 53.3044L34.4487 53.3191L34.2462 53.3317L34.0434 53.3424L33.8405 53.351L33.6375 53.3576L33.4342 53.3623L33.2309 53.365L33.0273 53.3658L32.8238 53.3645L32.6202 53.3612L32.4164 53.3559L32.2127 53.3485L32.0089 53.3393L31.8052 53.328L31.6015 53.3147L31.3978 53.2994L31.1943 53.2821L30.9907 53.2628L30.7873 53.2415L30.5841 53.2182L30.381 53.1929L30.178 53.1655L29.9753 53.1361L29.7727 53.1048L29.5705 53.0715L29.3684 53.0363L29.1666 52.9989L28.9652 52.9595L28.764 52.9183L28.5633 52.8749L28.3627 52.8296L28.1627 52.7824L27.963 52.7331L27.7638 52.6819L27.5649 52.6286L27.3666 52.5735L27.1688 52.5164L26.9713 52.4573L26.7745 52.3962L26.5782 52.3331L26.3825 52.2682L26.1873 52.2012L25.9927 52.1323L25.7988 52.0615L25.6056 51.9888L25.4129 51.9141L25.221 51.8375L25.0298 51.759L24.8393 51.6785L24.6495 51.5962L24.4605 51.512L24.2723 51.4259L24.0849 51.3379L23.8983 51.248L23.7126 51.1563L23.5277 51.0627L23.3437 50.9673L23.1607 50.8699L22.9784 50.7709L22.7972 50.6699L22.617 50.5671L22.4377 50.4625L22.2594 50.3561L22.0821 50.248L21.9058 50.1379L21.7306 50.0263L21.5566 49.9127L21.3835 49.7975L21.2116 49.6804L21.0408 49.5617L20.8712 49.4413L20.7027 49.3191L20.5354 49.1953L20.3693 49.0696L20.2044 48.9424L20.0408 48.8135L19.8784 48.6829L19.7173 48.5507L19.5575 48.4168L19.3989 48.2813L19.2417 48.1443L19.0859 48.0055L18.9314 47.8652L18.7783 47.7234L18.6266 47.5799L18.4762 47.4351L18.3273 47.2885L18.1799 47.1405L18.0339 46.991L17.8894 46.8399L17.7463 46.6875L17.6048 46.5335L17.4648 46.3781L17.3263 46.2212L17.1894 46.063L17.054 45.9033L16.9202 45.7422L16.7881 45.5797L16.6575 45.416L16.5285 45.2508L16.4012 45.0843L16.2756 44.9165L16.1516 44.7473L16.0293 44.5769L15.9087 44.4052L15.7898 44.2324L15.6727 44.0582L15.5573 43.8828L15.4436 43.7063L15.3317 43.5285L15.2215 43.3495L15.1132 43.1695L15.0067 42.9882L14.9019 42.8059L14.799 42.6225L14.698 42.4379L14.5988 42.2522L14.5014 42.0656L14.406 41.878L14.3124 41.6893L14.2207 41.4997L14.1309 41.3089L14.043 41.1174L13.9571 40.9247L13.8731 40.7313L13.7911 40.5369L13.711 40.3417L13.6329 40.1455L13.5567 39.9485L13.4826 39.7508L13.4104 39.5521L13.3403 39.3528L13.2722 39.1527L13.2061 38.9517L13.142 38.7501L13.08 38.5477L13.02 38.3447L12.9621 38.141L12.9062 37.9366L12.8524 37.7317L12.8007 37.5261L12.7511 37.3199L12.7036 37.1131L12.6582 36.9058L12.6149 36.698L12.5737 36.4896L12.5346 36.2808L12.4976 36.0715L12.4628 35.8618L12.4301 35.6516L12.3996 35.4411L12.3712 35.2301L12.3449 35.0187L12.3208 34.8071L12.2989 34.5951L12.2791 34.3829L12.2615 34.1703L12.2461 33.9575L12.2329 33.7444L12.2218 33.5312L12.2129 33.3177L12.2062 33.1041L12.2017 32.8903L12.1994 32.6764L12.1992 32.4624ZM32.9032 16.7905L32.8545 12.6768L32.8082 12.6813L32.5958 12.7039L32.3839 12.7286L32.1722 12.7553L31.9613 12.7841L31.7506 12.8149L31.5401 12.8478L31.3303 12.8827L31.1206 12.9197L30.9121 12.9586L30.7032 12.9997L30.4958 13.0427L30.2881 13.0878L30.0815 13.1348L29.8751 13.184L29.6696 13.235L29.4647 13.288L29.2603 13.3431L29.0566 13.4001L28.8538 13.459L28.6513 13.52L28.4499 13.5828L28.249 13.6477L28.0492 13.7143L27.8498 13.7831L27.6514 13.8537L27.4539 13.9262L27.257 14.0006L27.0612 14.0768L26.8664 14.1549L26.6722 14.235L26.4789 14.3169L26.2866 14.4007L26.0953 14.4863L25.905 14.5737L25.7158 14.6629L25.5272 14.754L25.34 14.8468L25.1538 14.9414L24.9687 15.0378L24.7846 15.136L24.6018 15.2358L24.4197 15.3375L24.2388 15.441L24.0595 15.5459L23.8808 15.6529L23.7038 15.7613L23.5279 15.8714L23.3529 15.9834L23.1793 16.0969L23.0069 16.2121L22.8362 16.3286L22.6661 16.4473L22.4977 16.5671L22.3306 16.6887L22.1647 16.8119L22.0003 16.9366L21.8373 17.0627L21.6754 17.1907L21.5152 17.3199L21.3562 17.4507L21.1987 17.583L21.0426 17.7168L20.8882 17.8519L20.7348 17.9887L20.5832 18.1268L20.4329 18.2664L20.2844 18.4072L20.1372 18.5495L19.9916 18.6931L19.8475 18.8381L19.7049 18.9847L19.5641 19.1322L19.4248 19.281L19.2868 19.4315L19.1508 19.583L19.0164 19.7356L18.8833 19.8898L18.7522 20.0449L18.6226 20.2014L18.4947 20.359L18.3685 20.5179L18.2439 20.6778L18.1212 20.8388L18 21.001L17.8805 21.1645L17.763 21.3287L17.647 21.4943L17.5329 21.6608L17.4205 21.8283L17.3099 21.9969L17.201 22.1665L17.094 22.3369L16.9888 22.5084L16.8854 22.6807L16.7838 22.8541L16.684 23.0285L16.5861 23.2035L16.49 23.3794L16.3957 23.5564L16.3034 23.7341L16.2128 23.9126L16.1243 24.0918L16.0375 24.2718L15.9527 24.4526L15.8697 24.6342L15.7887 24.8164L15.7095 24.9994L15.6322 25.183L15.557 25.3672L15.4836 25.5522L15.4121 25.7378L15.3426 25.9239L15.275 26.1106L15.2095 26.2978L15.1458 26.4858L15.0841 26.6741L15.0243 26.863L14.9666 27.0522L14.9107 27.2422L14.8569 27.4324L14.8051 27.6231L14.7552 27.8141L14.7073 28.0057L14.6614 28.1975L14.6175 28.3897L14.5755 28.5822L14.5356 28.7751L14.4977 28.9681L14.4617 29.1615L14.4278 29.3551L14.3959 29.549L14.366 29.7431L14.338 29.9373L14.3121 30.1318L14.2882 30.3263L14.2663 30.521L14.2464 30.7159L14.2285 30.9107L14.2126 31.1056L14.1987 31.3007L14.1868 31.4958L14.1769 31.6908L14.169 31.8859L14.1632 32.0809L14.1593 32.2759L14.1574 32.4707L14.1575 32.6656L14.1597 32.8603L14.1638 33.055L14.1699 33.2494L14.178 33.4437L14.1881 33.6378L14.2001 33.8316L14.2141 34.0253L14.2302 34.2187L14.2482 34.4119L14.2681 34.6048L14.29 34.7973L14.3139 34.9897L14.3397 35.1815L14.3675 35.3731L14.3973 35.5644L14.4289 35.7551L14.4626 35.9455L14.4981 36.1354L14.5356 36.3249L14.575 36.514L14.6163 36.7024L14.6595 36.8905L14.7046 37.078L14.7516 37.265L14.8005 37.4514L14.8513 37.6371L14.904 37.8224L14.9585 38.007L15.0149 38.191L15.0732 38.3743L15.1332 38.5569L15.1952 38.7389L15.2589 38.9201L15.3245 39.1006L15.3919 39.2803L15.4611 39.4594L15.5321 39.6376L15.6048 39.8151L15.6794 39.9917L15.7557 40.1674L15.8338 40.3424L15.9136 40.5166L15.9952 40.6898L16.0785 40.8621L16.1635 41.0335L16.2503 41.204L16.3387 41.3736L16.4288 41.5422L16.5206 41.7098L16.6141 41.8764L16.7092 42.042L16.8059 42.2066L16.9043 42.3701L17.0043 42.5326L17.106 42.694L17.2092 42.8543L17.314 43.0136L17.4203 43.1717L17.5283 43.3287L17.6377 43.4846L17.7488 43.6393L17.8613 43.7928L17.9754 43.9452L18.0909 44.0962L18.208 44.2461L18.3264 44.3948L18.4464 44.5422L18.5678 44.6885L18.6906 44.8333L18.8149 44.9769L18.9405 45.1193L19.0676 45.2603L19.196 45.3999L19.3257 45.5383L19.4568 45.6753L19.5893 45.8109L19.7231 45.9452L19.8581 46.0781L19.9945 46.2096L20.1321 46.3396L20.2709 46.4683L20.4111 46.5956L20.5524 46.7213L20.6949 46.8456L20.8387 46.9685L20.9837 47.0898L21.1296 47.2097L21.277 47.3282L21.4252 47.445L21.5747 47.5604L21.7253 47.6743L21.877 47.7866L22.0297 47.8973L22.1834 48.0064L22.3381 48.114L22.494 48.2201L22.6507 48.3245L22.8086 48.4274L22.9673 48.5287L23.127 48.6283L23.2877 48.7263L23.4492 48.8227L23.6117 48.9175L23.7749 49.0105L23.9391 49.102L24.1041 49.1917L24.27 49.2799L24.4366 49.3663L24.604 49.4512L24.7723 49.5342L24.9413 49.6156L25.111 49.6953L25.2814 49.7733L25.4524 49.8495L25.6244 49.924L25.7968 49.9968L25.97 50.068L26.1437 50.1373L26.3181 50.2048L26.4931 50.2707L26.6685 50.3349L26.8446 50.3971L27.0213 50.4577L27.1985 50.5166L27.3761 50.5736L27.5541 50.6289L27.7329 50.6824L27.9118 50.7341L28.0913 50.784L28.2713 50.8322L28.4515 50.8786L28.6322 50.9231L28.8131 50.9659L28.9945 51.0069L29.1761 51.046L29.358 51.0834L29.5402 51.119L29.7227 51.1527L29.9054 51.1847L30.0883 51.2148L30.2715 51.2431L30.4548 51.2696L30.6383 51.2943L30.8219 51.3173L31.0057 51.3383L31.1895 51.3575L31.3735 51.3751L31.5576 51.3907L31.7417 51.4046L31.9258 51.4165L32.11 51.4268L32.2941 51.4351L32.4782 51.4417L32.6623 51.4465L32.8463 51.4494L33.0302 51.4506L33.2141 51.45L33.3979 51.4475L33.5814 51.4433L33.7649 51.4373L33.9482 51.4295L34.1313 51.4198L34.3141 51.4084L34.4968 51.3953L34.6793 51.3803L34.8615 51.3635L35.0433 51.3449L35.225 51.3246L35.4062 51.3026L35.5872 51.2788L35.7677 51.2532L35.948 51.2258L36.1278 51.1967L36.3073 51.1659L36.4864 51.1333L36.6649 51.099L36.843 51.063L37.0207 51.0252L37.1978 50.9857L37.3744 50.9445L37.5506 50.9015L37.7261 50.857L37.9012 50.8106L38.0755 50.7626L38.2495 50.713L38.4227 50.6616L38.5953 50.6086L38.7672 50.554L38.9386 50.4976L39.1092 50.4397L39.279 50.3801L39.4483 50.3187L39.6168 50.2559L39.7846 50.1914L39.9516 50.1253L40.1177 50.0577L40.2831 49.9884L40.4477 49.9175L40.6115 49.8451L40.7744 49.7712L40.9365 49.6956L41.0978 49.6185L41.258 49.54L41.4175 49.4597L41.576 49.3781L41.7336 49.295L41.8903 49.2102L42.0459 49.1241L42.2006 49.0365L42.3542 48.9475L42.5071 48.8569L42.6586 48.765L42.8095 48.6715L42.959 48.5768L43.1075 48.4805L43.255 48.3829L43.4015 48.2837L43.5466 48.1835L43.6907 48.0817L43.8338 47.9786L43.9757 47.8742L44.1165 47.7683L44.2559 47.6613L44.3945 47.5528L44.5316 47.4432L44.6675 47.3323L44.8024 47.22L44.936 47.1064L45.0681 46.9918L45.1992 46.8757L45.3289 46.7586L45.4575 46.6403L45.5847 46.5207L45.7105 46.4001L45.8351 46.2781L45.9584 46.155L46.0803 46.0308L46.201 45.9055L46.3201 45.7792L46.4378 45.6519L46.5545 45.523L46.6695 45.3935L46.7833 45.2627L46.8954 45.1311L47.0063 44.9983L47.1158 44.8646L47.2237 44.7299L47.3303 44.5941L47.4353 44.4576L47.5391 44.3199L47.6411 44.1814L47.7418 44.0419L47.8412 43.9014L47.9386 43.7603L48.0349 43.6181L48.1295 43.4753L48.2226 43.3314L48.3144 43.1866L48.4044 43.0413L48.4928 42.8951L48.5799 42.7478L48.6652 42.6002L48.7491 42.4516L48.8314 42.3023L48.912 42.1525L48.9911 42.0016L49.0687 41.8501L49.1445 41.6985L49.2188 41.5456L49.2916 41.3922L49.3626 41.2383L49.4321 41.0838L49.4999 40.9287L49.5661 40.7731L49.6307 40.6167L49.6936 40.4599L49.7549 40.3029L49.8145 40.1448L49.8724 39.9867L49.9288 39.8278L49.9835 39.6686L50.0365 39.5089L50.0877 39.3491L50.1375 39.1882L50.1853 39.0275L50.2316 38.8663L50.2762 38.7049L50.3192 38.5428L50.3603 38.3807L50.4 38.2181L50.4378 38.0552L50.474 37.8921L50.5085 37.7287L50.5412 37.5653L50.5723 37.4012L50.6017 37.2375L50.6294 37.0732L50.6553 36.9088L50.6796 36.7443L50.7022 36.5796L50.7231 36.415L50.7423 36.2498L50.7597 36.0851L50.7755 35.9199L50.7895 35.7551L50.8019 35.5897L50.8126 35.4249L50.8216 35.2596L50.8288 35.0943L50.8344 34.9293L50.8383 34.7646L50.8405 34.5994L50.841 34.4344L50.8398 34.2696L50.837 34.105L50.8324 33.9404L50.8261 33.7764L50.8182 33.6117L50.8085 33.4478L50.7972 33.2839L50.7843 33.1206L50.7696 32.9569L50.7534 32.7939L50.7355 32.6309L50.7158 32.4684L50.6945 32.306L50.6717 32.1441L50.647 31.9822L50.6208 31.8209L50.593 31.6602L50.5635 31.4994L50.5323 31.3392L50.4997 31.1796L50.4652 31.0198L50.4295 30.8613L50.3917 30.7025L50.3527 30.5448L50.3118 30.3869L50.2695 30.2302L50.2256 30.0736L50.1801 29.9174L50.1331 29.7622L50.0845 29.6075L50.0341 29.4529L49.9825 29.2995L49.9291 29.1461L49.8744 28.9938L49.818 28.8417L49.7602 28.6908L49.7007 28.54L49.6398 28.3901L49.5775 28.2412L49.5137 28.0929L49.4481 27.9448L49.3816 27.7981L49.3131 27.6515L49.2434 27.5063L49.1722 27.3617L49.0995 27.2175L49.0256 27.0746L48.95 26.9323L48.873 26.7906L48.795 26.6503L48.7152 26.5103L48.6342 26.3716L48.5516 26.2334L48.4681 26.0967L48.3827 25.9602L48.2964 25.8251L48.2084 25.6905L48.1193 25.5572L48.029 25.425L47.9372 25.2934L47.8441 25.163L47.7499 25.0335L47.6542 24.9051L47.5574 24.7776L47.4594 24.6513L47.3601 24.5259L47.2596 24.4016L47.1578 24.2784L47.0549 24.1562L46.9507 24.0351L46.8454 23.9152L46.7391 23.7963L46.6315 23.6786L46.5226 23.5618L46.4131 23.4466L46.3017 23.3321L46.1899 23.2192L46.0767 23.1071L45.9626 22.9964L45.847 22.8866L45.731 22.7785L45.6134 22.6712L45.495 22.5652L45.3758 22.4606L45.2555 22.3572L45.1338 22.2547L45.0115 22.1538L44.8883 22.0541L44.764 21.9557L44.6388 21.8584L44.513 21.7628L44.3857 21.6679L44.258 21.5749L44.1293 21.483L43.9996 21.3923L43.8694 21.3031L43.7377 21.2149L43.6061 21.1286L43.473 21.0432L43.3394 20.9594L43.2048 20.8768L43.0696 20.7956L42.9337 20.7159L42.7973 20.6377L42.6596 20.5604L42.5219 20.485L42.383 20.4107L42.2435 20.338L42.1036 20.2667L41.9628 20.1967L41.8214 20.1281L41.6795 20.0611L41.5369 19.9954L41.3939 19.9313L41.2502 19.8685L41.1014 19.8053L40.9614 19.7475L40.8158 19.6889L40.6704 19.6322L40.5238 19.5765L40.3772 19.5227L40.23 19.4701L40.0824 19.4191L39.9343 19.3694L39.786 19.3215L39.637 19.2749L39.4878 19.2298L39.3384 19.1863L39.1884 19.1442L39.0378 19.1035L38.8875 19.0645L38.7369 19.0269L38.5853 18.9908L38.4342 18.9563L38.2824 18.9231L38.1305 18.8916L37.9782 18.8615L37.826 18.833L37.6735 18.806L37.521 18.7805L37.3678 18.7565L37.215 18.734L37.0619 18.7131L36.9086 18.6936L36.7553 18.6757L36.602 18.6593L36.4485 18.6444L36.295 18.631L36.1414 18.6192L35.9876 18.6088L35.8343 18.6L35.6809 18.5927L35.5269 18.5868L35.3738 18.5825L35.2204 18.5797L35.0671 18.5785L34.9135 18.5787L34.8828 18.579L34.9312 22.6627L35.0182 22.6623L35.1303 22.663L35.2424 22.6647L35.3546 22.6676L35.4669 22.6715L35.5792 22.6766L35.6914 22.6828L35.8038 22.6901L35.9162 22.6985L36.0286 22.708L36.141 22.7187L36.2533 22.7305L36.3657 22.7434L36.478 22.7574L36.5902 22.7725L36.7024 22.7888L36.8145 22.8061L36.9264 22.8246L37.0384 22.8443L37.1502 22.865L37.2618 22.8869L37.3734 22.9099L37.4848 22.9339L37.596 22.9591L37.707 22.9855L37.8179 23.013L37.9285 23.0415L38.039 23.0712L38.1492 23.102L38.2593 23.1339L38.3691 23.1669L38.4786 23.201L38.5878 23.2363L38.6968 23.2726L38.8056 23.3101L38.9139 23.3487L39.022 23.3883L39.1297 23.429L39.2372 23.4709L39.3443 23.5139L39.451 23.5579L39.5573 23.6031L39.6633 23.6492L39.7689 23.6966L39.874 23.7448L39.9787 23.7943L40.0831 23.8448L40.1869 23.8965L40.2904 23.9491L40.3934 24.0029L40.4958 24.0576L40.5978 24.1135L40.6993 24.1703L40.8003 24.2282L40.9009 24.2872L41.0009 24.3472L41.1002 24.4082L41.199 24.4703L41.2973 24.5334L41.3951 24.5976L41.4922 24.6626L41.5888 24.7288L41.6848 24.796L41.7801 24.864L41.8747 24.9331L41.9687 25.0033L42.0622 25.0744L42.1549 25.1465L42.247 25.2196L42.3383 25.2935L42.429 25.3685L42.519 25.4445L42.6083 25.5213L42.6969 25.5991L42.7847 25.6778L42.8718 25.7575L42.958 25.8381L43.0436 25.9196L43.1283 26.002L43.2123 26.0853L43.2955 26.1695L43.3779 26.2547L43.4595 26.3406L43.5402 26.4274L43.6201 26.5152L43.6992 26.6037L43.7774 26.693L43.8547 26.7833L43.9312 26.8744L44.0069 26.9662L44.0815 27.059L44.1554 27.1525L44.2282 27.2468L44.3002 27.3419L44.3713 27.4378L44.4414 27.5344L44.5106 27.6319L44.5788 27.7301L44.6461 27.829L44.7123 27.9287L44.7776 28.029L44.8419 28.1302L44.9053 28.232L44.9677 28.3345L45.029 28.4377L45.0893 28.5416L45.1486 28.6461L45.2068 28.7514L45.264 28.8572L45.3202 28.9638L45.3753 29.0709L45.4292 29.1787L45.4822 29.2872L45.5342 29.3962L45.5849 29.5057L45.6346 29.6159L45.6832 29.7266L45.7308 29.8379L45.7771 29.9498L45.8224 30.0622L45.8666 30.1751L45.9095 30.2885L45.9514 30.4025L45.9921 30.5169L46.0317 30.6319L46.0702 30.7473L46.1074 30.8632L46.1435 30.9794L46.1784 31.0962L46.2122 31.2134L46.2448 31.3311L46.2761 31.4491L46.3063 31.5675L46.3353 31.6863L46.3631 31.8054L46.3897 31.925L46.415 32.0449L46.4391 32.1651L46.462 32.2856L46.4837 32.4065L46.5042 32.5277L46.5234 32.6491L46.5414 32.7709L46.5581 32.8928L46.5736 33.015L46.588 33.1375L46.6009 33.2603L46.6126 33.3832L46.6232 33.5064L46.6324 33.6297L46.6404 33.7532L46.647 33.8768L46.6525 34.0006L46.6567 34.1247L46.6595 34.2487L46.6611 34.373L46.6615 34.4973L46.6605 34.6217L46.6583 34.7462L46.6547 34.8707L46.6499 34.9954L46.6438 35.12L46.6365 35.2447L46.6278 35.3695L46.6179 35.4942L46.6065 35.6189L46.594 35.7435L46.5802 35.8681L46.5651 35.9928L46.5486 36.1173L46.5309 36.2417L46.5119 36.3661L46.4916 36.4904L46.47 36.6145L46.447 36.7386L46.4229 36.8625L46.3973 36.9862L46.3705 37.1098L46.3425 37.2332L46.3132 37.3564L46.2825 37.4794L46.2505 37.6023L46.2173 37.7248L46.1828 37.8471L46.147 37.9692L46.1099 38.091L46.0716 38.2125L46.0318 38.3338L45.9909 38.4547L45.9487 38.5753L45.9053 38.6956L45.8606 38.8155L45.8145 38.935L45.7673 39.0543L45.7188 39.1731L45.669 39.2915L45.6179 39.4095L45.5657 39.5271L45.5122 39.6443L45.4573 39.761L45.4014 39.8773L45.3441 39.9931L45.2855 40.1084L45.2258 40.2232L45.1649 40.3374L45.1027 40.4512L45.0394 40.5645L44.9748 40.6772L44.909 40.7893L44.842 40.9009L44.7739 41.0118L44.7045 41.1223L44.6339 41.232L44.5622 41.3412L44.4893 41.4496L44.4152 41.5576L44.34 41.6648L44.2636 41.7714L44.186 41.8772L44.1074 41.9825L44.0276 42.087L43.9466 42.1907L43.8645 42.2937L43.7813 42.3961L43.697 42.4976L43.6117 42.5984L43.5251 42.6984L43.4375 42.7977L43.3488 42.8961L43.2591 42.9937L43.1683 43.0905L43.0765 43.1866L42.9835 43.2817L42.8896 43.376L42.7945 43.4694L42.6986 43.562L42.6015 43.6537L42.5035 43.7444L42.4044 43.8344L42.3043 43.9233L42.2034 44.0113L42.1013 44.0985L41.9984 44.1846L41.8945 44.2699L41.7897 44.354L41.6838 44.4373L41.5771 44.5195L41.4695 44.6008L41.3609 44.6811L41.2514 44.7604L41.1411 44.8387L41.0299 44.9158L40.9178 44.992L40.8048 45.0671L40.691 45.1412L40.5764 45.2141L40.461 45.286L40.3446 45.3568L40.2276 45.4265L40.1097 45.4951L39.9911 45.5625L39.8716 45.6289L39.7514 45.6942L39.6305 45.7583L39.5088 45.8212L39.3864 45.883L39.2633 45.9435L39.1395 46.003L39.0149 46.0613L38.8897 46.1183L38.7638 46.1742L38.6373 46.2289L38.51 46.2823L38.3823 46.3346L38.2538 46.3857L38.1248 46.4354L37.9952 46.484L37.8649 46.5314L37.7342 46.5774L37.6027 46.6222L37.4709 46.6658L37.3384 46.708L37.2055 46.749L37.0721 46.7888L36.9381 46.8271L36.8037 46.8643L36.6687 46.9001L36.5334 46.9346L36.3976 46.9678L36.2613 46.9998L36.1246 47.0303L35.9876 47.0596L35.8501 47.0875L35.7123 47.1141L35.5741 47.1394L35.4356 47.1634L35.2967 47.1859L35.1576 47.2071L35.018 47.2269L34.8782 47.2454L34.7381 47.2626L34.5978 47.2783L34.4572 47.2927L34.3164 47.3058L34.1754 47.3174L34.0341 47.3277L33.8927 47.3365L33.751 47.344L33.6092 47.3501L33.4672 47.3548L33.3251 47.3581L33.1829 47.36L33.0405 47.3606L32.8981 47.3597L32.7556 47.3574L32.613 47.3537L32.4704 47.3486L32.3277 47.3421L32.185 47.3342L32.0424 47.3249L31.8996 47.3142L31.757 47.302L31.6144 47.2885L31.4717 47.2735L31.3292 47.2572L31.1868 47.2394L31.0443 47.2202L30.9021 47.1996L30.76 47.1776L30.618 47.1542L30.4762 47.1293L30.3345 47.1031L30.193 47.0754L30.0518 47.0463L29.9106 47.0158L29.7698 46.984L29.6292 46.9506L29.4888 46.9159L29.3488 46.8798L29.2089 46.8423L29.0694 46.8034L28.9303 46.7631L28.7914 46.7215L28.6528 46.6784L28.5146 46.6338L28.3769 46.588L28.2394 46.5408L28.1025 46.4922L27.9659 46.4422L27.8297 46.3908L27.694 46.338L27.5587 46.2839L27.4239 46.2284L27.2896 46.1715L27.1558 46.1134L27.0226 46.0538L26.8898 45.9929L26.7576 45.9307L26.626 45.8671L26.4949 45.8022L26.3643 45.7359L26.2345 45.6684L26.1053 45.5995L25.9766 45.5293L25.8486 45.4578L25.7213 45.385L25.5945 45.3109L25.4686 45.2355L25.3433 45.1588L25.2187 45.0809L25.0948 45.0016L24.9718 44.9212L24.8494 44.8393L24.7278 44.7563L24.607 44.6721L24.487 44.5866L24.3678 44.4999L24.2494 44.412L24.1318 44.3227L24.0151 44.2324L23.8993 44.1408L23.7843 44.0479L23.6702 43.954L23.557 43.8588L23.4447 43.7626L23.3333 43.665L23.2229 43.5664L23.1134 43.4666L23.0049 43.3658L22.8973 43.2637L22.7907 43.1605L22.6851 43.0562L22.5806 42.9509L22.4771 42.8444L22.3745 42.7369L22.273 42.6282L22.1727 42.5186L22.0734 42.4078L21.9751 42.2961L21.8779 42.1832L21.7818 42.0694L21.6869 41.9546L21.593 41.8387L21.5004 41.7219L21.4088 41.604L21.3184 41.4852L21.2292 41.3655L21.141 41.2448L21.0542 41.1231L20.9686 41.0006L20.8841 40.8771L20.8009 40.7527L20.7189 40.6275L20.6381 40.5013L20.5586 40.3743L20.4803 40.2464L20.4033 40.1176L20.3276 39.9882L20.2532 39.8577L20.1801 39.7266L20.1083 39.5946L20.0378 39.4619L19.9686 39.3283L19.9007 39.194L19.8342 39.059L19.769 38.9232L19.7052 38.7867L19.6428 38.6494L19.5817 38.5116L19.522 38.373L19.4637 38.2337L19.4068 38.0938L19.3514 37.9534L19.2973 37.8121L19.2446 37.6703L19.1934 37.528L19.1436 37.385L19.0952 37.2415L19.0483 37.0973L19.0028 36.9527L18.9588 36.8076L18.9163 36.6618L18.8752 36.5157L18.8357 36.369L18.7976 36.2218L18.761 36.0742L18.7259 35.9261L18.6922 35.7776L18.6601 35.6287L18.6296 35.4794L18.6005 35.3297L18.5729 35.1796L18.5469 35.0292L18.5224 34.8784L18.4995 34.7274L18.478 34.576L18.4582 34.4242L18.4398 34.2722L18.4231 34.12L18.4078 33.9675L18.3942 33.8147L18.3821 33.6617L18.3715 33.5086L18.3626 33.3552L18.3552 33.2017L18.3493 33.048L18.3451 32.8942L18.3424 32.7402L18.3413 32.586L18.3418 32.4319L18.3439 32.2776L18.3476 32.1233L18.3528 31.9689L18.3597 31.8144L18.3681 31.66L18.3782 31.5055L18.3898 31.3511L18.403 31.1967L18.4178 31.0424L18.4342 30.888L18.4522 30.7338L18.4718 30.5796L18.493 30.4256L18.5158 30.2716L18.5401 30.1179L18.5661 29.9642L18.5937 29.8108L18.6228 29.6575L18.6536 29.5044L18.6859 29.3516L18.7198 29.1989L18.7553 29.0466L18.7924 28.8944L18.8311 28.7426L18.8714 28.5911L18.9132 28.4398L18.9567 28.2889L19.0017 28.1384L19.0482 27.9882L19.0964 27.8383L19.1461 27.6889L19.1973 27.5399L19.2502 27.3913L19.3045 27.2431L19.3605 27.0953L19.418 26.9481L19.477 26.8013L19.5376 26.655L19.5997 26.5093L19.6633 26.364L19.7285 26.2193L19.7951 26.0752L19.8634 25.9316L19.9331 25.7886L20.0043 25.6463L20.077 25.5045L20.1513 25.3635L20.227 25.223L20.3042 25.0833L20.3828 24.9441L20.463 24.8057L20.5446 24.6681L20.6277 24.5311L20.7122 24.3949L20.7982 24.2594L20.8856 24.1247L20.9745 23.9908L21.0647 23.8577L21.1564 23.7254L21.2495 23.5939L21.3439 23.4632L21.4399 23.3335L21.5371 23.2045L21.6358 23.0765L21.7358 22.9494L21.8372 22.8232L21.9399 22.698L22.044 22.5736L22.1494 22.4502L22.2562 22.3278L22.3642 22.2064L22.4736 22.086L22.5842 21.9666L22.6961 21.8482L22.8094 21.7308L22.9238 21.6145L23.0395 21.4992L23.1565 21.385L23.2748 21.272L23.3942 21.1599L23.5149 21.0491L23.6368 20.9393L23.7599 20.8307L23.884 20.7232L24.0094 20.6169L24.136 20.5118L24.2637 20.4078L24.3926 20.3051L24.5226 20.2036L24.6537 20.1032L24.7859 20.0042L24.9192 19.9063L25.0535 19.8097L25.1889 19.7144L25.3254 19.6204L25.4629 19.5277L25.6014 19.4363L25.741 19.3462L25.8815 19.2574L26.0231 19.1699L26.1656 19.0838L26.3091 18.999L26.4535 18.9156L26.5989 18.8336L26.7451 18.7529L26.8923 18.6737L27.0403 18.5958L27.1893 18.5194L27.3391 18.4444L27.4897 18.3708L27.6412 18.2987L27.7936 18.228L27.9467 18.1587L28.1006 18.091L28.2553 18.0247L28.4108 17.9599L28.567 17.8966L28.7238 17.8348L28.8815 17.7745L29.0399 17.7157L29.199 17.6584L29.3587 17.6027L29.5191 17.5485L29.6801 17.4959L29.8416 17.4448L30.0039 17.3952L30.1667 17.3473L30.3302 17.3009L30.4941 17.2561L30.6586 17.2129L30.8237 17.1713L30.9893 17.1312L31.1554 17.0928L31.3219 17.056L31.4889 17.0208L31.6563 16.9872L31.8243 16.9553L31.9926 16.925L32.1613 16.8963L32.3304 16.8693L32.4999 16.8439L32.6696 16.8202L32.8397 16.7981L32.9032 16.7905ZM32.975 22.8475L32.9261 18.7189L32.7866 18.7384L32.6367 18.7608L32.4867 18.7848L32.3377 18.8101L32.1884 18.837L32.0399 18.8653L31.8917 18.895L31.7441 18.9261L31.5967 18.9587L31.4497 18.9927L31.3031 19.0281L31.1572 19.0649L31.0113 19.1032L30.8713 19.1414L30.722 19.1839L30.5779 19.2263L30.4344 19.2701L30.2916 19.3152L30.1492 19.3618L30.0073 19.4097L29.8661 19.459L29.7256 19.5095L29.5856 19.5615L29.4463 19.6148L29.3075 19.6695L29.1698 19.7253L29.0321 19.7827L28.8954 19.8413L28.7594 19.9011L28.6244 19.9622L28.4896 20.0247L28.3557 20.0885L28.2229 20.1533L28.0903 20.2197L27.9591 20.2871L27.8281 20.356L27.6984 20.4258L27.5689 20.4973L27.4407 20.5695L27.3133 20.6431L27.1866 20.718L27.0608 20.794L26.9357 20.8713L26.8119 20.9495L26.6886 21.0291L26.5665 21.1098L26.4452 21.1915L26.3248 21.2745L26.2051 21.3587L26.0869 21.4437L25.9692 21.5301L25.8526 21.6175L25.737 21.706L25.6224 21.7954L25.5086 21.8861L25.3961 21.9777L25.2846 22.0703L25.1739 22.1642L25.0646 22.2588L24.9561 22.3546L24.8486 22.4514L24.7423 22.5491L24.6371 22.6477L24.5328 22.7475L24.4299 22.8479L24.3279 22.9494L24.227 23.052L24.1273 23.1553L24.0287 23.2597L23.9312 23.3648L23.835 23.4708L23.7398 23.5777L23.6456 23.6857L23.5531 23.7941L23.4614 23.9036L23.3709 24.014L23.2817 24.125L23.1938 24.2367L23.1068 24.3496L23.0213 24.4629L22.9368 24.5771L22.8537 24.6921L22.7718 24.8078L22.6912 24.9241L22.6118 25.0412L22.5336 25.159L22.4567 25.2775L22.3812 25.3965L22.3069 25.5163L22.2338 25.6369L22.162 25.7579L22.0916 25.8795L22.0224 26.0019L21.9547 26.1245L21.8881 26.248L21.8227 26.3722L21.7589 26.4966L21.6963 26.6218L21.6351 26.7474L21.5751 26.8734L21.5166 27.0001L21.4593 27.1271L21.4035 27.2547L21.3489 27.3827L21.2958 27.5111L21.2439 27.64L21.1934 27.7694L21.1443 27.8991L21.0966 28.0291L21.0501 28.1597L21.0053 28.2903L20.9616 28.4215L20.9194 28.5531L20.8784 28.6849L20.839 28.817L20.8009 28.9493L20.7642 29.0819L20.7289 29.2149L20.6949 29.3481L20.6624 29.4815L20.6313 29.6152L20.6015 29.7489L20.5731 29.883L20.5462 30.0172L20.5206 30.1515L20.4965 30.2861L20.4737 30.4208L20.4523 30.5556L20.4324 30.6903L20.4138 30.8254L20.3967 30.9604L20.3809 31.0956L20.3665 31.2307L20.3535 31.366L20.342 31.5013L20.3318 31.6364L20.323 31.7718L20.3156 31.907L20.3096 32.0422L20.305 32.1774L20.3018 32.3124L20.3 32.4475L20.2996 32.5825L20.3005 32.7173L20.3029 32.8521L20.3066 32.9867L20.3117 33.1211L20.3181 33.2555L20.326 33.3897L20.3352 33.5236L20.3458 33.6574L20.3577 33.791L20.371 33.9243L20.3857 34.0575L20.4017 34.1904L20.4191 34.3231L20.4378 34.4553L20.4579 34.5875L20.4793 34.7191L20.502 34.8507L20.5261 34.9819L20.5515 35.1125L20.5783 35.2431L20.6063 35.3731L20.6357 35.5029L20.6663 35.6321L20.6983 35.7611L20.7316 35.8896L20.7661 36.0177L20.8019 36.1453L20.8391 36.2725L20.8775 36.3992L20.9172 36.5255L20.9581 36.6514L21.0003 36.7766L21.0438 36.9013L21.0885 37.0255L21.1344 37.1493L21.1816 37.2724L21.23 37.395L21.2796 37.517L21.3305 37.6385L21.3825 37.7593L21.4358 37.8795L21.4902 37.9992L21.5459 38.1181L21.6027 38.2365L21.6606 38.3542L21.7198 38.4712L21.7801 38.5877L21.8415 38.7034L21.9041 38.8183L21.9678 38.9327L22.0326 39.0462L22.0986 39.1591L22.1657 39.2711L22.2338 39.3826L22.3031 39.4932L22.3734 39.603L22.4448 39.7122L22.5172 39.8203L22.5908 39.9279L22.6653 40.0345L22.7409 40.1404L22.8175 40.2454L22.8952 40.3496L22.9738 40.4529L23.0535 40.5555L23.1341 40.6571L23.2157 40.7578L23.2983 40.8577L23.3818 40.9568L23.4664 41.0548L23.5518 41.1521L23.6382 41.2483L23.7255 41.3437L23.8136 41.438L23.9027 41.5315L23.9927 41.624L24.0836 41.7156L24.1753 41.8062L24.2679 41.8958L24.3614 41.9845L24.4555 42.0721L24.5507 42.1589L24.6465 42.2444L24.7432 42.3291L24.8408 42.4127L24.9391 42.4953L25.0381 42.5769L25.1379 42.6574L25.2384 42.7369L25.3397 42.8153L25.4418 42.8928L25.5445 42.9691L25.6479 43.0443L25.7519 43.1184L25.8567 43.1915L25.9622 43.2635L26.0684 43.3344L26.1751 43.4042L26.2825 43.4729L26.3905 43.5406L26.4991 43.607L26.6083 43.6724L26.7181 43.7366L26.8284 43.7996L26.9394 43.8616L27.0507 43.9224L27.1628 43.9821L27.2753 44.0407L27.3882 44.0979L27.5018 44.1543L27.6159 44.2093L27.7303 44.2632L27.8452 44.3159L27.9607 44.3675L28.0764 44.4178L28.1926 44.467L28.3093 44.5151L28.4264 44.5619L28.5437 44.6075L28.6616 44.6519L28.7797 44.6952L28.8982 44.7373L29.017 44.7781L29.1363 44.8178L29.2557 44.8562L29.3755 44.8935L29.4956 44.9295L29.6159 44.9643L29.7364 44.998L29.8572 45.0304L29.9783 45.0617L30.0995 45.0916L30.221 45.1203L30.3427 45.1479L30.4646 45.1743L30.5866 45.1994L30.7088 45.2232L30.8312 45.2459L30.9535 45.2673L31.0762 45.2876L31.1988 45.3065L31.3216 45.3244L31.4445 45.341L31.5673 45.3563L31.6903 45.3704L31.8133 45.3834L31.9364 45.395L32.0595 45.4055L32.1825 45.4147L32.3056 45.4228L32.4286 45.4295L32.5516 45.4352L32.6747 45.4396L32.7975 45.4428L32.9203 45.4447L33.043 45.4454L33.1657 45.445L33.2882 45.4433L33.4107 45.4405L33.5329 45.4365L33.6551 45.4312L33.777 45.4247L33.8988 45.4171L34.0204 45.4083L34.1419 45.3982L34.2631 45.387L34.3841 45.3746L34.505 45.361L34.6255 45.3463L34.7458 45.3304L34.8658 45.3134L34.9855 45.2951L35.105 45.2757L35.224 45.2551L35.3429 45.2334L35.4614 45.2105L35.5796 45.1866L35.6975 45.1613L35.8148 45.1351L35.9319 45.1077L36.0486 45.0791L36.165 45.0495L36.2809 45.0187L36.3964 44.9868L36.5115 44.9538L36.6261 44.9197L36.7402 44.8845L36.8539 44.8482L36.9672 44.8108L37.08 44.7723L37.1923 44.7328L37.304 44.6922L37.4152 44.6505L37.5259 44.6078L37.6361 44.564L37.7458 44.5191L37.8549 44.4733L37.9633 44.4264L38.0714 44.3785L38.1786 44.3296L38.2855 44.2796L38.3917 44.2286L38.497 44.1768L38.6021 44.1237L38.7063 44.0698L38.8101 44.0148L38.9128 43.9591L39.0152 43.9022L39.1169 43.8444L39.2178 43.7856L39.3181 43.7259L39.4177 43.6653L39.5164 43.6038L39.6147 43.5413L39.7119 43.478L39.8086 43.4137L39.9047 43.3484L39.9997 43.2824L40.094 43.2156L40.1878 43.1477L40.2805 43.0792L40.3726 43.0097L40.464 42.9392L40.5542 42.8682L40.644 42.7961L40.7329 42.7232L40.8206 42.6497L40.908 42.575L40.9942 42.4999L41.0796 42.4241L41.1644 42.347L41.248 42.2697L41.3309 42.1913L41.4129 42.1123L41.4939 42.0326L41.5742 41.952L41.6536 41.8708L41.732 41.7889L41.8093 41.7063L41.8859 41.6229L41.9617 41.539L42.0363 41.4545L42.1102 41.369L42.183 41.2831L42.2548 41.1965L42.3258 41.1091L42.3957 41.0215L42.4647 40.933L42.5328 40.844L42.5999 40.7542L42.6659 40.664L42.7308 40.5734L42.7951 40.4819L42.8581 40.3901L42.9202 40.2977L42.9814 40.2046L43.0412 40.1113L43.1004 40.0173L43.1584 39.9228L43.2155 39.8279L43.2714 39.7325L43.3265 39.6364L43.3802 39.5404L43.4332 39.4434L43.485 39.3462L43.5357 39.2487L43.5856 39.1504L43.6341 39.0523L43.6818 38.9532L43.7282 38.8543L43.7739 38.7545L43.8182 38.6548L43.8617 38.5542L43.904 38.4538L43.9451 38.3529L43.9853 38.2517L44.0244 38.15L44.0622 38.0484L44.0993 37.9462L44.135 37.8438L44.1697 37.7413L44.2033 37.6384L44.2359 37.5352L44.2674 37.4319L44.2978 37.3284L44.3271 37.2246L44.3552 37.1207L44.3823 37.0166L44.4083 36.9123L44.4332 36.808L44.457 36.7032L44.4796 36.5985L44.5013 36.4937L44.5217 36.3889L44.5412 36.2838L44.5594 36.1784L44.5766 36.0734L44.5928 35.968L44.6077 35.8626L44.6216 35.7573L44.6345 35.6519L44.6462 35.5461L44.6568 35.4411L44.6664 35.3352L44.6748 35.2297L44.6821 35.1245L44.6884 35.0189L44.6935 34.9136L44.6976 34.8083L44.7006 34.7028L44.7024 34.5979L44.7033 34.4925L44.7029 34.3875L44.7017 34.2825L44.6992 34.1779L44.6957 34.0731L44.6911 33.9685L44.6854 33.8643L44.6787 33.7598L44.6709 33.6556L44.6621 33.552L44.6522 33.448L44.6412 33.3447L44.6291 33.2412L44.6161 33.1382L44.602 33.0353L44.5868 32.9325L44.5706 32.8302L44.5534 32.7281L44.5351 32.6263L44.5158 32.5248L44.4953 32.4232L44.474 32.3223L44.4516 32.2218L44.4282 32.1214L44.4038 32.0212L44.3785 31.9218L44.352 31.8221L44.3246 31.7233L44.2962 31.6246L44.2668 31.5265L44.2365 31.4285L44.2051 31.331L44.1728 31.234L44.1396 31.1375L44.1052 31.041L44.0701 30.9454L44.0339 30.85L43.9968 30.7552L43.9588 30.6606L43.9198 30.5665L43.8799 30.4732L43.839 30.3801L43.7973 30.2876L43.7547 30.1958L43.7111 30.1041L43.6666 30.013L43.6214 29.9227L43.575 29.8326L43.528 29.7434L43.48 29.6547L43.4311 29.5661L43.3815 29.4786L43.3309 29.3915L43.2795 29.305L43.2271 29.2189L43.1742 29.1337L43.1202 29.0488L43.0656 28.9648L43.01 28.8814L42.9537 28.7986L42.8965 28.7162L42.8385 28.6347L42.78 28.5539L42.7204 28.4735L42.6602 28.394L42.5991 28.315L42.5376 28.2369L42.475 28.1592L42.4117 28.0824L42.3477 28.0062L42.2831 27.9307L42.2178 27.8561L42.1515 27.782L42.0849 27.7088L42.0174 27.6361L41.9494 27.5646L41.8804 27.4933L41.811 27.4231L41.7407 27.3533L41.67 27.2846L41.5987 27.2167L41.5267 27.1494L41.454 27.0828L41.3807 27.0172L41.3069 26.9524L41.2322 26.888L41.1575 26.825L41.0817 26.7623L41.0056 26.7006L40.9288 26.6398L40.8515 26.5796L40.7737 26.5204L40.6956 26.4622L40.6165 26.4045L40.5369 26.3475L40.4574 26.2919L40.3767 26.2366L40.2961 26.1827L40.2148 26.1292L40.133 26.0767L40.0506 26.025L39.9681 25.9743L39.8848 25.9243L39.8013 25.8754L39.7171 25.8271L39.6331 25.78L39.5482 25.7336L39.463 25.688L39.3774 25.6433L39.2916 25.5997L39.2053 25.5568L39.1185 25.5148L39.0317 25.4738L38.9446 25.4337L38.8565 25.3943L38.7689 25.356L38.6807 25.3186L38.592 25.282L38.5032 25.2464L38.4143 25.2118L38.325 25.178L38.2351 25.145L38.1455 25.1132L38.0553 25.0821L37.9649 25.052L37.8747 25.0228L37.7839 24.9946L37.6932 24.9672L37.6018 24.9407L37.5106 24.9153L37.4193 24.8907L37.3277 24.8671L37.2361 24.8444L37.144 24.8226L37.0521 24.8017L36.9602 24.7819L36.8679 24.7628L36.7754 24.7447L36.6834 24.7277L36.5907 24.7114L36.4983 24.6962L36.4055 24.6817L36.3132 24.6684L36.2201 24.6558L36.1277 24.6443L36.0349 24.6337L35.9422 24.6239L35.8496 24.6152L35.7567 24.6073L35.6643 24.6003L35.5714 24.5943L35.4788 24.5892L35.3865 24.5851L35.2936 24.5817L35.2014 24.5794L35.109 24.578L35.0168 24.5775L34.9538 24.5777L35.0016 28.6114L35.0301 28.6115L35.0831 28.6122L35.1362 28.6135L35.1894 28.6152L35.2426 28.6177L35.2959 28.6206L35.3492 28.624L35.4027 28.6281L35.4561 28.6327L35.5096 28.6378L35.5631 28.6434L35.6167 28.6496L35.6703 28.6565L35.7238 28.6639L35.7775 28.6718L35.8311 28.6803L35.8847 28.6894L35.9383 28.699L35.9919 28.7093L36.0454 28.7199L36.0989 28.7314L36.1525 28.7432L36.206 28.7557L36.2593 28.7688L36.3127 28.7823L36.366 28.7966L36.4193 28.8113L36.4725 28.8266L36.5256 28.8425L36.5786 28.8589L36.6314 28.876L36.6843 28.8937L36.737 28.9118L36.7897 28.9305L36.8421 28.9499L36.8945 28.9697L36.9467 28.9902L36.9989 29.0112L37.0508 29.0328L37.1026 29.0549L37.1543 29.0777L37.2058 29.1009L37.2572 29.1248L37.3084 29.1492L37.3594 29.1741L37.4102 29.1997L37.4608 29.2258L37.5112 29.2524L37.5614 29.2797L37.6114 29.3075L37.6612 29.3358L37.7108 29.3646L37.76 29.394L37.8092 29.424L37.858 29.4546L37.9066 29.4857L37.9549 29.5172L38.003 29.5494L38.0508 29.5822L38.0984 29.6154L38.1456 29.6492L38.1926 29.6834L38.2393 29.7183L38.2857 29.7536L38.3317 29.7895L38.3776 29.826L38.423 29.8629L38.4681 29.9003L38.5129 29.9384L38.5574 29.9768L38.6015 30.0158L38.6453 30.0554L38.6887 30.0954L38.7317 30.1359L38.7744 30.177L38.8168 30.2185L38.8587 30.2605L38.9002 30.303L38.9415 30.346L38.9822 30.3895L39.0226 30.4335L39.0625 30.4779L39.1022 30.5228L39.1413 30.5682L39.1799 30.614L39.2183 30.6603L39.2561 30.7071L39.2935 30.7543L39.3305 30.802L39.367 30.8502L39.4031 30.8987L39.4387 30.9477L39.4738 30.9971L39.5085 31.047L39.5427 31.0973L39.5763 31.148L39.6096 31.1991L39.6424 31.2507L39.6745 31.3026L39.7063 31.355L39.7374 31.4078L39.7681 31.4609L39.7983 31.5144L39.8279 31.5684L39.8571 31.6226L39.8857 31.6773L39.9137 31.7324L39.9413 31.7877L39.9682 31.8435L39.9946 31.8997L40.0205 31.9561L40.0458 32.0129L40.0706 32.0701L40.0947 32.1276L40.1183 32.1854L40.1413 32.2435L40.1637 32.3019L40.1857 32.3607L40.2069 32.4198L40.2275 32.4792L40.2476 32.5388L40.2671 32.5987L40.2859 32.659L40.3041 32.7195L40.3218 32.7803L40.3388 32.8414L40.3552 32.9026L40.371 32.9641L40.3861 33.026L40.4006 33.0881L40.4145 33.1503L40.4278 33.2129L40.4404 33.2756L40.4522 33.3384L40.4635 33.4017L40.4742 33.465L40.4843 33.5285L40.4936 33.5923L40.5022 33.6562L40.5102 33.7203L40.5176 33.7846L40.5243 33.849L40.5303 33.9135L40.5357 33.9783L40.5404 34.0432L40.5443 34.1082L40.5476 34.1734L40.5502 34.2387L40.5522 34.3041L40.5534 34.3695L40.554 34.4351L40.5538 34.5007L40.5531 34.5666L40.5516 34.6325L40.5493 34.6984L40.5465 34.7644L40.5428 34.8305L40.5386 34.8966L40.5335 34.9627L40.5278 35.029L40.5214 35.0952L40.5143 35.1615L40.5064 35.2277L40.4978 35.294L40.4887 35.3604L40.4787 35.4266L40.468 35.4929L40.4566 35.5591L40.4445 35.6254L40.4317 35.6916L40.4182 35.7577L40.4039 35.8239L40.389 35.8899L40.3734 35.9559L40.3569 36.0219L40.3398 36.0878L40.3221 36.1535L40.3035 36.2192L40.2843 36.2847L40.2643 36.3502L40.2437 36.4156L40.2223 36.4807L40.2002 36.5459L40.1774 36.6109L40.1538 36.6756L40.1296 36.7404L40.1047 36.8048L40.079 36.8692L40.0526 36.9333L40.0256 36.9973L39.9978 37.0611L39.9693 37.1248L39.9401 37.1881L39.9102 37.2513L39.8795 37.3143L39.8484 37.377L39.8163 37.4395L39.7836 37.5018L39.7502 37.5638L39.7161 37.6256L39.6814 37.6871L39.6459 37.7483L39.6097 37.8093L39.5729 37.8699L39.5353 37.9304L39.4972 37.9904L39.4583 38.0501L39.4186 38.1097L39.3785 38.1687L39.3375 38.2276L39.296 38.2861L39.2537 38.3442L39.2108 38.402L39.1672 38.4594L39.123 38.5164L39.0781 38.5731L39.0326 38.6294L38.9865 38.6853L38.9397 38.7409L38.8922 38.796L38.844 38.8507L38.7953 38.905L38.746 38.9589L38.696 39.0124L38.6454 39.0654L38.5941 39.118L38.5423 39.1702L38.4899 39.2218L38.4369 39.2731L38.3831 39.3238L38.3288 39.374L38.274 39.4238L38.2186 39.4732L38.1626 39.522L38.106 39.5703L38.0488 39.6181L37.991 39.6654L37.9327 39.7122L37.8738 39.7583L37.8144 39.8041L37.7545 39.8493L37.6939 39.8939L37.6329 39.9379L37.5712 39.9814L37.5092 40.0245L37.4464 40.0668L37.3833 40.1087L37.3196 40.1498L37.2554 40.1905L37.1907 40.2306L37.1255 40.27L37.0598 40.3088L36.9936 40.347L36.927 40.3846L36.8598 40.4216L36.7922 40.458L36.7242 40.4937L36.6557 40.5289L36.5867 40.5633L36.5173 40.5972L36.4475 40.6303L36.3772 40.6628L36.3065 40.6946L36.2354 40.7257L36.1639 40.7562L36.092 40.7861L36.0197 40.8151L35.9469 40.8435L35.8738 40.8713L35.8003 40.8983L35.7265 40.9247L35.6523 40.9504L35.5778 40.9753L35.5029 40.9995L35.4277 41.0229L35.3521 41.0457L35.2762 41.0678L35.2 41.0891L35.1235 41.1097L35.0467 41.1294L34.9695 41.1486L34.8921 41.1668L34.8144 41.1845L34.7364 41.2012L34.6582 41.2174L34.5796 41.2327L34.5009 41.2472L34.4219 41.261L34.3427 41.274L34.2633 41.2862L34.1836 41.2976L34.1038 41.3083L34.0236 41.3182L33.9434 41.3273L33.8629 41.3355L33.7823 41.3431L33.7015 41.3498L33.6205 41.3557L33.5393 41.3608L33.4581 41.3651L33.3767 41.3687L33.2952 41.3713L33.2135 41.3732L33.1317 41.3742L33.0499 41.3745L32.9679 41.374L32.8859 41.3726L32.8037 41.3704L32.7216 41.3674L32.6393 41.3635L32.5569 41.3588L32.4745 41.3534L32.3922 41.3471L32.3098 41.3399L32.2273 41.3319L32.1449 41.3231L32.0624 41.3134L31.9801 41.303L31.8976 41.2916L31.8152 41.2796L31.7328 41.2665L31.6506 41.2527L31.5683 41.2381L31.4861 41.2226L31.404 41.2064L31.3219 41.1892L31.24 41.1712L31.1581 41.1523L31.0764 41.1327L30.9947 41.1122L30.9131 41.0909L30.8318 41.0687L30.7505 41.0457L30.6695 41.0219L30.5886 40.9972L30.5078 40.9716L30.4272 40.9454L30.3468 40.9182L30.2666 40.8902L30.1866 40.8614L30.1068 40.8317L30.0273 40.8012L29.9479 40.7699L29.8689 40.7378L29.79 40.7049L29.7115 40.6711L29.6332 40.6365L29.5551 40.6011L29.4774 40.5649L29.3998 40.5278L29.3227 40.49L29.2459 40.4513L29.1694 40.4119L29.0932 40.3716L29.0173 40.3306L28.9418 40.2887L28.8667 40.2461L28.7918 40.2026L28.7174 40.1584L28.6434 40.1134L28.5698 40.0675L28.4965 40.021L28.4236 39.9736L28.3512 39.9254L28.2792 39.8765L28.2077 39.8268L28.1365 39.7764L28.0658 39.7252L27.9956 39.6732L27.9258 39.6205L27.8566 39.5671L27.7878 39.5128L27.7195 39.4579L27.6517 39.4022L27.5844 39.3458L27.5176 39.2887L27.4514 39.2308L27.3856 39.1722L27.3205 39.1129L27.2558 39.0529L27.1917 38.9922L27.1283 38.9307L27.0652 38.8687L27.0029 38.8058L26.9412 38.7424L26.88 38.6782L26.8194 38.6134L26.7594 38.5478L26.7001 38.4817L26.6414 38.4149L26.5834 38.3474L26.5259 38.2793L26.469 38.2105L26.413 38.1411L26.3575 38.0711L26.3027 38.0005L26.2485 37.9292L26.1951 37.8573L26.1424 37.7849L26.0904 37.7118L26.039 37.6381L25.9884 37.5638L25.9385 37.489L25.8893 37.4136L25.8409 37.3376L25.7932 37.2611L25.7463 37.1841L25.7 37.1064L25.6546 37.0283L25.6099 36.9496L25.566 36.8704L25.5229 36.7907L25.4805 36.7105L25.439 36.6297L25.3982 36.5485L25.3582 36.4669L25.3191 36.3846L25.2808 36.302L25.2433 36.2189L25.2066 36.1353L25.1707 36.0512L25.1357 35.9668L25.1015 35.8819L25.0681 35.7966L25.0357 35.7108L25.0041 35.6247L24.9734 35.5382L24.9435 35.4513L24.9144 35.364L24.8863 35.2763L24.859 35.1883L24.8327 35.0999L24.8071 35.0111L24.7825 34.922L24.7589 34.8326L24.7361 34.7429L24.7143 34.6528L24.6933 34.5625L24.6732 34.4718L24.6541 34.3809L24.636 34.2896L24.6187 34.1982L24.6023 34.1064L24.5869 34.0144L24.5725 33.9222L24.5589 33.8297L24.5463 33.737L24.5348 33.6441L24.5241 33.551L24.5144 33.4576L24.5056 33.3642L24.4978 33.2705L24.491 33.1767L24.4851 33.0826L24.4802 32.9885L24.4762 32.8943L24.4732 32.7998L24.4713 32.7053L24.4704 32.6107L24.4702 32.5159L24.4712 32.4211L24.4732 32.3262L24.4761 32.2312L24.4801 32.1361L24.485 32.041L24.4909 31.9459L24.4977 31.8507L24.5056 31.7555L24.5145 31.6603L24.5243 31.5652L24.5352 31.47L24.5471 31.3748L24.5599 31.2797L24.5738 31.1846L24.5886 31.0895L24.6045 30.9945L24.6213 30.8995L24.6392 30.8046L24.6581 30.7099L24.6779 30.6152L24.6988 30.5207L24.7206 30.4262L24.7434 30.332L24.7673 30.2377L24.7922 30.1437L24.818 30.0499L24.8448 29.9562L24.8726 29.8626L24.9015 29.7694L24.9313 29.6762L24.962 29.5832L24.9939 29.4906L25.0267 29.3981L25.0604 29.3059L25.0952 29.2139L25.131 29.1222L25.1677 29.0308L25.2054 28.9395L25.2441 28.8487L25.2837 28.7581L25.3245 28.6678L25.366 28.5778L25.4086 28.4882L25.4521 28.399L25.4967 28.31L25.5421 28.2214L25.5886 28.1333L25.6359 28.0455L25.6843 27.9581L25.7335 27.871L25.7838 27.7843L25.8349 27.6982L25.8871 27.6124L25.9401 27.5271L25.9941 27.4422L26.0491 27.3577L26.1048 27.2737L26.1616 27.1903L26.2193 27.1073L26.2778 27.0248L26.3373 26.9428L26.3977 26.8613L26.4589 26.7803L26.5211 26.7L26.5841 26.6201L26.6481 26.5408L26.713 26.4619L26.7786 26.3838L26.8451 26.3062L26.9126 26.2291L26.9808 26.1527L27.05 26.0769L27.1199 26.0018L27.1908 25.9272L27.2625 25.8533L27.3349 25.78L27.4082 25.7073L27.4823 25.6353L27.5572 25.564L27.633 25.4934L27.7095 25.4234L27.7867 25.3542L27.8648 25.2856L27.9438 25.2179L28.0234 25.1507L28.1038 25.0843L28.1849 25.0187L28.2669 24.9538L28.3495 24.8897L28.4329 24.8263L28.517 24.7637L28.6018 24.7018L28.6874 24.6408L28.7736 24.5806L28.8606 24.5211L28.9483 24.4624L29.0366 24.4046L29.1256 24.3476L29.2153 24.2914L29.3056 24.2361L29.3966 24.1816L29.4882 24.128L29.5805 24.0752L29.6734 24.0233L29.7668 23.9722L29.861 23.9221L29.9556 23.8728L30.0509 23.8244L30.1468 23.777L30.2432 23.7304L30.3403 23.6848L30.4378 23.64L30.5359 23.5962L30.6345 23.5534L30.7338 23.5114L30.8334 23.4704L30.9336 23.4304L31.0343 23.3913L31.1355 23.3532L31.2371 23.316L31.3392 23.2799L31.4419 23.2446L31.5449 23.2104L31.6484 23.1772L31.7523 23.1449L31.8567 23.1137L31.9614 23.0835L32.0665 23.0543L32.1721 23.0261L32.2779 22.9989L32.3843 22.9727L32.4909 22.9476L32.5979 22.9235L32.7052 22.9005L32.8129 22.8785L32.9208 22.8575L32.975 22.8475ZM34.3019 30.6045L33.0704 30.8988L32.9981 24.7986L32.94 24.8117L32.8526 24.8323L32.7654 24.8538L32.6787 24.876L32.5922 24.8991L32.5062 24.923L32.4202 24.9479L32.335 24.9733L32.2496 24.9998L32.1653 25.0268L32.0808 25.0549L31.9968 25.0838L31.9133 25.1134L31.8301 25.1437L31.7476 25.1748L31.6652 25.2069L31.5833 25.2396L31.5018 25.273L31.4205 25.3074L31.3403 25.3422L31.2601 25.3781L31.1806 25.4146L31.1012 25.452L31.0226 25.4899L30.9441 25.5287L30.8666 25.5681L30.7893 25.6083L30.7126 25.6492L30.6364 25.6908L30.5607 25.7331L30.4855 25.7761L30.4111 25.8197L30.3366 25.8643L30.2631 25.9093L30.1903 25.955L30.1178 26.0013L30.0458 26.0485L29.9745 26.0962L29.9038 26.1446L29.8336 26.1936L29.7642 26.2431L29.695 26.2935L29.6267 26.3444L29.5589 26.3959L29.4917 26.4481L29.4253 26.5006L29.3594 26.5539L29.2941 26.6079L29.2293 26.6625L29.1654 26.7174L29.1021 26.7731L29.0394 26.8292L28.9773 26.8859L28.9158 26.9433L28.8552 27.0011L28.7951 27.0593L28.7356 27.1183L28.6769 27.1776L28.6189 27.2375L28.5617 27.2978L28.5048 27.3589L28.4489 27.4201L28.3937 27.482L28.3391 27.5444L28.2854 27.607L28.2322 27.6703L28.1799 27.7338L28.1281 27.7981L28.0772 27.8625L28.0269 27.9276L27.9774 27.9931L27.9287 28.0588L27.8806 28.1249L27.8334 28.1915L27.7868 28.2586L27.741 28.3259L27.696 28.3938L27.6518 28.4617L27.6083 28.5301L27.5655 28.599L27.5236 28.668L27.4822 28.7377L27.4418 28.8072L27.4021 28.8774L27.3631 28.9478L27.3251 29.0185L27.2877 29.0894L27.2511 29.1607L27.2152 29.2324L27.1803 29.3039L27.146 29.3762L27.1126 29.4484L27.08 29.5209L27.048 29.5937L27.0169 29.6668L26.9867 29.7399L26.9572 29.8134L26.9286 29.887L26.9006 29.9608L26.8736 30.0346L26.8473 30.1089L26.8217 30.1833L26.7971 30.2577L26.7731 30.3323L26.75 30.4072L26.7277 30.4821L26.7063 30.557L26.6856 30.6322L26.6656 30.7075L26.6466 30.7829L26.6284 30.8583L26.6108 30.9338L26.5942 31.0095L26.5783 31.0852L26.5633 31.1609L26.549 31.2366L26.5355 31.3126L26.5229 31.3883L26.511 31.4642L26.4999 31.5403L26.4897 31.616L26.4803 31.6921L26.4716 31.7678L26.4637 31.8438L26.4567 31.9199L26.4504 31.9956L26.4449 32.0715L26.4402 32.1473L26.4362 32.223L26.4332 32.2986L26.4308 32.3742L26.4293 32.4498L26.4284 32.5252L26.4286 32.6006L26.4293 32.6758L26.4309 32.751L26.4333 32.826L26.4364 32.9009L26.4402 32.9757L26.4449 33.0503L26.4504 33.1247L26.4565 33.1991L26.4635 33.2732L26.4712 33.3474L26.4796 33.421L26.4888 33.4948L26.4988 33.5681L26.5095 33.6415L26.521 33.7145L26.5332 33.7874L26.5461 33.8601L26.5598 33.9325L26.5742 34.0047L26.5892 34.0765L26.6052 34.1483L26.6217 34.2196L26.639 34.2909L26.657 34.3616L26.6758 34.4325L26.6951 34.5027L26.7152 34.5729L26.736 34.6425L26.7575 34.7121L26.7797 34.7812L26.8026 34.8499L26.8262 34.9186L26.8505 34.9868L26.8754 35.0545L26.9009 35.1221L26.9272 35.1893L26.9541 35.2561L26.9817 35.3226L27.0098 35.3886L27.0387 35.4544L27.0682 35.5198L27.0983 35.5848L27.1291 35.6493L27.1604 35.7134L27.1926 35.7774L27.2251 35.8407L27.2583 35.9036L27.2922 35.9662L27.3267 36.0283L27.3617 36.09L27.3973 36.1514L27.4335 36.212L27.4704 36.2725L27.5077 36.3324L27.5456 36.3919L27.5842 36.4509L27.6232 36.5095L27.6628 36.5677L27.7029 36.6251L27.7436 36.6824L27.7848 36.739L27.8265 36.7951L27.8689 36.8508L27.9116 36.906L27.9549 36.9606L27.9987 37.0147L28.043 37.0685L28.0877 37.1215L28.1331 37.1742L28.1788 37.2263L28.225 37.2778L28.2719 37.3289L28.3189 37.3792L28.3666 37.4293L28.4146 37.4787L28.463 37.5275L28.5121 37.5758L28.5614 37.6235L28.6112 37.6708L28.6615 37.7173L28.7121 37.7634L28.7632 37.8089L28.8146 37.8538L28.8664 37.8981L28.9185 37.9419L28.9711 37.9851L29.0241 38.0277L29.0775 38.0697L29.131 38.111L29.1851 38.1519L29.2395 38.1921L29.2942 38.2318L29.3492 38.2708L29.4045 38.3092L29.4602 38.3471L29.5162 38.3842L29.5724 38.4208L29.6289 38.4568L29.686 38.4923L29.743 38.5269L29.8004 38.5611L29.8582 38.5946L29.916 38.6274L29.9741 38.6597L30.0328 38.6914L30.0914 38.7224L30.1503 38.7527L30.2094 38.7824L30.2689 38.8116L30.3283 38.84L30.3882 38.8679L30.4482 38.8952L30.5082 38.9217L30.5687 38.9476L30.6293 38.9729L30.6898 38.9976L30.7507 39.0217L30.8118 39.045L30.8731 39.0677L30.9342 39.0898L30.9958 39.1113L31.0573 39.132L31.1189 39.1522L31.1808 39.1718L31.2428 39.1907L31.3047 39.2089L31.3668 39.2265L31.4291 39.2434L31.4914 39.2597L31.5537 39.2753L31.6161 39.2904L31.6785 39.3047L31.741 39.3184L31.8036 39.3315L31.8662 39.3439L31.9288 39.3558L31.9914 39.3669L32.0541 39.3774L32.1168 39.3873L32.1795 39.3966L32.242 39.4051L32.3048 39.413L32.3674 39.4204L32.4301 39.4271L32.4927 39.4331L32.5553 39.4386L32.6178 39.4434L32.6802 39.4475L32.7427 39.4511L32.805 39.4539L32.8672 39.4563L32.9296 39.4579L32.9915 39.459L33.0535 39.4594L33.1155 39.4592L33.1772 39.4584L33.2391 39.4569L33.3007 39.4549L33.3621 39.4523L33.4234 39.449L33.4848 39.4452L33.5457 39.4407L33.6067 39.4357L33.6674 39.43L33.7281 39.4238L33.7886 39.4169L33.8487 39.4095L33.909 39.4015L33.9688 39.3928L34.0284 39.3836L34.0882 39.3739L34.1475 39.3636L34.2066 39.3527L34.2655 39.3411L34.3243 39.329L34.3826 39.3164L34.4408 39.3033L34.4989 39.2895L34.5567 39.2752L34.6142 39.2605L34.6714 39.2451L34.7284 39.2292L34.7853 39.2126L34.8417 39.1956L34.8977 39.1781L34.9539 39.1599L35.0095 39.1413L35.0648 39.1223L35.1198 39.1026L35.1745 39.0825L35.2291 39.0617L35.2833 39.0406L35.337 39.0189L35.3906 38.9968L35.4438 38.974L35.4968 38.9508L35.5491 38.9272L35.6015 38.9031L35.6533 38.8785L35.7047 38.8534L35.756 38.8279L35.8066 38.8019L35.8572 38.7754L35.9073 38.7484L35.9569 38.721L36.0062 38.6932L36.0552 38.6649L36.1039 38.6362L36.1519 38.607L36.1997 38.5774L36.2471 38.5474L36.2941 38.517L36.3408 38.4862L36.387 38.455L36.4328 38.4232L36.4782 38.3912L36.5231 38.3588L36.5677 38.3259L36.6118 38.2927L36.6555 38.259L36.6988 38.225L36.7417 38.1906L36.784 38.156L36.826 38.121L36.8675 38.0855L36.9085 38.0497L36.9492 38.0136L36.9894 37.9771L37.0291 37.9403L37.0682 37.9032L37.1071 37.8657L37.1455 37.8279L37.1834 37.7899L37.2208 37.7515L37.2576 37.7127L37.2941 37.6738L37.3302 37.6344L37.3656 37.595L37.4007 37.555L37.4352 37.5149L37.4692 37.4746L37.503 37.4338L37.5359 37.393L37.5686 37.3517L37.6007 37.3104L37.6322 37.2687L37.6634 37.2267L37.694 37.1847L37.7241 37.1422L37.7538 37.0996L37.7829 37.0569L37.8115 37.0138L37.8397 36.9706L37.8672 36.9272L37.8943 36.8836L37.9209 36.8398L37.947 36.7958L37.9726 36.7517L37.9976 36.7074L38.0222 36.6629L38.0462 36.6181L38.0698 36.5735L38.0927 36.5285L38.1153 36.4834L38.1373 36.4382L38.1588 36.3927L38.1797 36.3473L38.2001 36.3017L38.22 36.2561L38.2394 36.2101L38.2582 36.1643L38.2767 36.118L38.2944 36.0722L38.3119 36.0256L38.3285 35.9798L38.3449 35.9332L38.3607 35.8866L38.3759 35.8402L38.3906 35.7936L38.4048 35.7472L38.4186 35.7002L38.4316 35.6538L38.4444 35.6067L38.4565 35.5603L38.4682 35.5133L38.4793 35.4663L38.4899 35.4196L38.4999 35.373L38.5095 35.3258L38.5186 35.2791L38.5271 35.232L38.5352 35.1854L38.5427 35.1386L38.5498 35.0917L38.5563 35.0448L38.5623 34.998L38.5679 34.9514L38.5729 34.9049L38.5774 34.858L38.5814 34.8116L38.5849 34.765L38.5879 34.7185L38.5905 34.6721L38.5925 34.6259L38.594 34.5798L38.5951 34.5334L38.5957 34.4872L38.5958 34.4413L38.5954 34.3955L38.5946 34.3498L38.5932 34.3042L38.5914 34.2583L38.589 34.2133L38.5862 34.1674L38.583 34.1226L38.5793 34.0777L38.5751 34.0324L38.5704 33.9876L38.5654 33.9432L38.5597 33.8983L38.5537 33.8542L38.5472 33.8099L38.5404 33.7662L38.5329 33.7221L38.5251 33.6783L38.5169 33.6349L38.5082 33.5916L38.499 33.5482L38.4894 33.5054L38.4795 33.4626L38.469 33.42L38.4582 33.3778L38.4468 33.3353L38.4353 33.2936L38.4231 33.2515L38.4106 33.2102L38.3976 33.1689L38.3843 33.1278L38.3705 33.0869L38.3563 33.0461L38.3419 33.0059L38.3269 32.9659L38.3115 32.9257L38.2958 32.8861L38.2797 32.8464L38.2633 32.8076L38.2464 32.7684L38.2293 32.7298L38.2116 32.6916L38.1937 32.6533L38.1754 32.6155L38.1567 32.5779L38.1377 32.5405L38.1184 32.5035L38.0986 32.4668L38.0786 32.4304L38.0582 32.3941L38.0374 32.3582L38.0164 32.3227L37.9951 32.2874L37.9733 32.2523L37.9513 32.2177L37.9289 32.1833L37.9063 32.1493L37.8833 32.1154L37.8601 32.0821L37.8365 32.0488L37.8127 32.016L37.7885 31.9835L37.7641 31.9514L37.7395 31.9195L37.7144 31.8879L37.6892 31.8568L37.6636 31.826L37.6379 31.7954L37.6118 31.7652L37.5856 31.7354L37.559 31.7059L37.5322 31.6767L37.5052 31.6477L37.478 31.6193L37.4504 31.5912L37.4226 31.5633L37.3947 31.536L37.3665 31.509L37.3382 31.4822L37.3094 31.4557L37.2807 31.4298L37.2517 31.404L37.2225 31.3788L37.193 31.3538L37.1634 31.3294L37.1336 31.3051L37.1037 31.2813L37.0736 31.2578L37.0432 31.2346L37.0128 31.2119L36.9821 31.1895L36.9512 31.1675L36.9203 31.1459L36.8893 31.1245L36.8581 31.1037L36.8266 31.0832L36.795 31.063L36.7635 31.0432L36.7316 31.0238L36.6997 31.0048L36.6678 30.9862L36.6356 30.9679L36.6032 30.95L36.571 30.9324L36.5386 30.9152L36.506 30.8985L36.4735 30.8821L36.4406 30.866L36.4079 30.8504L36.375 30.8352L36.3421 30.8202L36.3091 30.8057L36.2759 30.7915L36.243 30.7778L36.2096 30.7645L36.1763 30.7514L36.1431 30.7388L36.1097 30.7265L36.0764 30.7147L36.043 30.7031L36.0095 30.6919L35.9762 30.6812L35.9426 30.6708L35.9091 30.6607L35.8757 30.6511L35.842 30.6418L35.8087 30.633L35.7751 30.6244L35.7416 30.6162L35.708 30.6084L35.6746 30.6009L35.641 30.5939L35.6076 30.5871L35.5742 30.5807L35.5409 30.5747L35.5074 30.5691L35.4742 30.5638L35.4407 30.5589L35.4077 30.5543L35.3743 30.55L35.3412 30.5462L35.3083 30.5427L35.2752 30.5396L35.2423 30.5367L35.2094 30.5342L35.1766 30.5321L35.1438 30.5303L35.1111 30.5289L35.0787 30.5278L35.0461 30.527L35.0137 30.5265L34.9814 30.5264L34.9492 30.5268L34.9171 30.5273L34.8851 30.5281L34.8532 30.5294L34.8215 30.5309L34.7897 30.5328L34.7583 30.535L34.7269 30.5374L34.6956 30.5403L34.6645 30.5434L34.6333 30.5468L34.6025 30.5506L34.5717 30.5546L34.5412 30.559L34.5106 30.5637L34.4804 30.5686L34.4502 30.5739L34.4203 30.5794L34.3903 30.5853L34.3607 30.5914L34.3311 30.5978L34.3019 30.6045Z" fill="#43505C"/>
</svg>
