<svg width="64" height="64" viewBox="0 0 64 64" fill="none" xmlns="http://www.w3.org/2000/svg">
<rect width="64" height="64" rx="6" fill="white"/>
<g clip-path="url(#clip0_4297_996)">
<path fill-rule="evenodd" clip-rule="evenodd" d="M38.34 47.1358C39.93 47.1358 41.5044 46.8226 42.9733 46.2142C44.4423 45.6057 45.777 44.714 46.9013 43.5897C48.0256 42.4654 48.9174 41.1307 49.5259 39.6617C50.1343 38.1928 50.4475 36.6183 50.4475 35.0284C50.4475 30.2118 48.534 25.5923 45.1282 22.1865C41.7224 18.7806 37.1029 16.8672 32.2862 16.8672C27.4696 16.8672 22.8501 18.7806 19.4443 22.1865C16.0384 25.5923 14.125 30.2118 14.125 35.0284C14.125 36.6183 14.4382 38.1928 15.0466 39.6617C15.6551 41.1307 16.5469 42.4654 17.6712 43.5897C18.7955 44.714 20.1302 45.6057 21.5992 46.2142C23.0681 46.8226 24.6425 47.1358 26.2325 47.1358H38.34ZM32.2862 21.7102C28.754 21.7102 25.3665 23.1133 22.8688 25.611C20.3711 28.1086 18.968 31.4962 18.968 35.0284C18.968 35.9823 19.1559 36.927 19.521 37.8084C19.8861 38.6898 20.4211 39.4906 21.0958 40.1651C21.7703 40.8397 22.5711 41.3748 23.4525 41.7399C24.3339 42.105 25.2786 42.2929 26.2325 42.2929H38.34C39.2939 42.2929 40.2386 42.105 41.12 41.7399C42.0014 41.3748 42.8022 40.8397 43.4767 40.1651C44.1514 39.4906 44.6864 38.6898 45.0515 37.8084C45.4166 36.927 45.6045 35.9823 45.6045 35.0284C45.6045 31.4962 44.2014 28.1086 41.7037 25.611C39.206 23.1133 35.8185 21.7102 32.2862 21.7102Z" fill="#86BD64"/>
<path fill-rule="evenodd" clip-rule="evenodd" d="M23.8101 53.1886C21.7431 53.1886 19.6964 52.7188 17.7867 51.8062C15.8771 50.8935 14.142 49.5558 12.6804 47.8693C11.2188 46.1829 10.0594 44.1809 9.26843 41.9775C8.47744 39.774 8.07031 37.4124 8.07031 35.0274C8.07031 28.6053 10.6215 22.4461 15.1627 17.9049C19.7039 13.3637 25.8631 10.8125 32.2853 10.8125C38.7075 10.8125 44.8667 13.3637 49.4079 17.9049C53.9491 22.4461 56.5003 28.6053 56.5003 35.0274C56.5003 37.4124 56.0931 39.774 55.3022 41.9775C54.5112 44.1809 53.3518 46.1829 51.8903 47.8693C50.4286 49.5558 48.6935 50.8935 46.7839 51.8062C44.8742 52.7188 42.8276 53.1886 40.7606 53.1886H23.8101ZM18.5872 21.3294C22.2202 17.6965 27.1475 15.6555 32.2853 15.6555C37.4231 15.6555 42.3504 17.6965 45.9834 21.3294C49.6164 24.9624 51.6573 29.8896 51.6573 35.0274C51.6573 36.8652 51.343 38.6726 50.744 40.3411C50.1451 42.0096 49.2813 43.485 48.2304 44.6975C47.1807 45.9088 45.9722 46.8264 44.6955 47.4366C43.4219 48.0454 42.0872 48.3456 40.7606 48.3456H23.8101C22.4834 48.3456 21.1487 48.0454 19.8751 47.4366C18.5984 46.8264 17.3899 45.9088 16.3402 44.6975C15.2893 43.485 14.4256 42.0096 13.8266 40.3411C13.2276 38.6726 12.9133 36.8652 12.9133 35.0274C12.9133 29.8896 14.9543 24.9624 18.5872 21.3294Z" fill="#86BD64"/>
<path d="M38.3409 41.0831H32.2819C31.875 41.0827 31.4713 41.0413 31.0764 40.9608C30.3112 40.8046 29.5796 40.5009 28.924 40.0628C27.9284 39.3976 27.1524 38.4522 26.6942 37.346C26.5457 36.9872 26.4326 36.6169 26.3557 36.2401C26.1954 35.4549 26.1919 34.6418 26.3498 33.8483C26.5833 32.674 27.1599 31.5953 28.0066 30.7487C28.8531 29.9021 29.9318 29.3255 31.1061 29.092C31.1429 29.0846 31.1796 29.0777 31.2164 29.071C31.5713 29.0073 31.9297 28.9756 32.2872 28.9756C33.0784 28.9756 33.8658 29.1307 34.6038 29.4364C35.71 29.8946 36.6555 30.6705 37.3206 31.666C37.9859 32.6616 38.3409 33.832 38.3409 35.0293H33.4979C33.4979 34.7899 33.427 34.5558 33.2939 34.3566C33.1609 34.1576 32.9717 34.0024 32.7505 33.9107C32.5293 33.8191 32.2859 33.7951 32.051 33.8418C31.8161 33.8886 31.6003 34.0038 31.4311 34.1732C31.2617 34.3425 31.1464 34.5582 31.0997 34.7931C31.0529 35.028 31.0769 35.2715 31.1686 35.4927C31.2602 35.7139 31.4154 35.903 31.6145 36.0361C31.8137 36.1691 32.0477 36.2401 32.2872 36.2401H38.3409C38.4999 36.2401 38.6574 36.2087 38.8043 36.1479C38.9512 36.087 39.0846 35.9979 39.1971 35.8855C39.3095 35.773 39.3986 35.6396 39.4595 35.4927C39.5203 35.3458 39.5517 35.1883 39.5517 35.0293C39.5517 33.1027 38.7864 31.255 37.4239 29.8926C36.0616 28.5302 34.2139 27.7649 32.2872 27.7649C32.0782 27.7649 31.8702 27.7738 31.6637 27.7916C31.156 27.8353 30.6569 27.9322 30.1744 28.0789C29.6997 28.2231 29.2409 28.4158 28.8054 28.6535C28.3066 28.926 27.8383 29.2577 27.4115 29.6442C27.3226 29.7246 27.2356 29.8074 27.1505 29.8926C26.5544 30.4886 26.0726 31.1776 25.7192 31.9253C25.5426 32.2992 25.3979 32.6878 25.2872 33.0868C25.1606 33.543 25.0783 34.0128 25.0428 34.4898C25.0295 34.6688 25.0227 34.8487 25.0227 35.0293C25.0227 35.9787 25.2088 36.9237 25.5756 37.8093C26.1256 39.1368 27.0566 40.2713 28.2513 41.0695C28.2581 41.0741 28.2648 41.0786 28.2716 41.0831H26.2334C25.4385 41.0831 24.6512 40.9265 23.9168 40.6223C23.1823 40.318 22.515 39.8721 21.9528 39.3099C21.3907 38.7478 20.9448 38.0804 20.6405 37.346C20.3362 36.6115 20.1797 35.8243 20.1797 35.0293C20.1797 31.8182 21.4553 28.7387 23.7259 26.468C25.9965 24.1975 29.076 22.9219 32.2872 22.9219C35.4983 22.9219 38.5779 24.1975 40.8485 26.468C43.119 28.7387 44.3947 31.8182 44.3947 35.0293C44.3947 35.8243 44.2381 36.6115 43.9339 37.346C43.6296 38.0804 43.1837 38.7478 42.6215 39.3099C42.0594 39.8721 41.392 40.318 40.6576 40.6223C39.9231 40.9265 39.1359 41.0831 38.3409 41.0831Z" fill="#86BD64"/>
</g>
<defs>
<clipPath id="clip0_4297_996">
<rect width="48.43" height="42.3761" fill="white" transform="translate(8.07031 10.8125)"/>
</clipPath>
</defs>
</svg>
