<svg width="64" height="64" viewBox="0 0 64 64" fill="none" xmlns="http://www.w3.org/2000/svg">
<rect width="64" height="64" rx="6" fill="white"/>
<path d="M8.56137 48.1178V40H7.23047V48.1178H8.56137Z" fill="#152C4F"/>
<path d="M9.375 45.4111C9.375 47.0696 10.4877 48.2479 12.1786 48.2479C13.8695 48.2479 14.9822 47.0696 14.9822 45.4111C14.9822 43.7526 13.8695 42.5742 12.1786 42.5742C10.4877 42.5742 9.375 43.7526 9.375 45.4111ZM10.7168 45.4111C10.7168 44.44 11.295 43.7635 12.1786 43.7635C13.0622 43.7635 13.6404 44.44 13.6404 45.4111C13.6404 46.3712 13.0622 47.0586 12.1786 47.0586C11.295 47.0586 10.7168 46.3712 10.7168 45.4111Z" fill="#152C4F"/>
<path d="M15.4297 45.3043C15.4297 46.8755 16.4442 48.0103 17.9606 48.0103C18.746 48.0103 19.4224 47.6938 19.7605 47.1701V48.0866C19.7605 48.9704 19.2042 49.5596 18.2769 49.5596C17.4478 49.5596 16.8806 49.1559 16.8042 48.4467H15.4624C15.6369 49.8542 16.7169 50.7707 18.2006 50.7707C19.946 50.7707 21.0587 49.6251 21.0587 47.8466V42.7293H19.8806L19.8042 43.4603C19.4769 42.8929 18.8006 42.5547 18.0042 42.5547C16.466 42.5547 15.4297 43.7222 15.4297 45.3043ZM16.7824 45.2715C16.7824 44.3768 17.3497 43.7222 18.1897 43.7222C19.106 43.7222 19.7169 44.3878 19.7169 45.2715C19.7169 46.1663 19.106 46.8537 18.1897 46.8537C17.3606 46.8537 16.7824 46.1772 16.7824 45.2715Z" fill="#152C4F"/>
<path d="M21.7188 45.4111C21.7188 47.0696 22.8315 48.2479 24.5224 48.2479C26.2132 48.2479 27.326 47.0696 27.326 45.4111C27.326 43.7526 26.2132 42.5742 24.5224 42.5742C22.8315 42.5742 21.7188 43.7526 21.7188 45.4111ZM23.0605 45.4111C23.0605 44.44 23.6387 43.7635 24.5224 43.7635C25.406 43.7635 25.9842 44.44 25.9842 45.4111C25.9842 46.3712 25.406 47.0586 24.5224 47.0586C23.6387 47.0586 23.0605 46.3712 23.0605 45.4111Z" fill="#152C4F"/>
<path d="M28.7659 41.6251C29.2023 41.6251 29.5623 41.2759 29.5623 40.8285C29.5623 40.3921 29.2023 40.043 28.7659 40.043C28.3187 40.043 27.9805 40.3921 27.9805 40.8285C27.9805 41.2759 28.3187 41.6251 28.7659 41.6251ZM28.1005 48.1171H29.4314V42.7271H28.1005V48.1171Z" fill="#152C4F"/>
<path d="M30.5977 50.6149H31.8958V47.3743C32.234 47.9307 32.9649 48.2581 33.7722 48.2581C35.3649 48.2581 36.314 47.036 36.2921 45.3557C36.2594 43.6645 35.2885 42.5625 33.7612 42.5625C32.9431 42.5625 32.2012 42.9226 31.874 43.5445L31.7976 42.7262H30.5977V50.6149ZM31.9503 45.4212C31.9503 44.4501 32.5395 43.7736 33.4667 43.7736C34.394 43.7736 34.9503 44.461 34.9503 45.4212C34.9503 46.3814 34.394 47.0578 33.4667 47.0578C32.5395 47.0578 31.9503 46.3923 31.9503 45.4212Z" fill="#152C4F"/>
<path d="M36.6289 46.5014C36.6726 47.5707 37.5016 48.2581 38.7889 48.2581C40.0543 48.2581 40.9161 47.5816 40.9161 46.5341C40.9161 45.7595 40.4362 45.2357 39.5525 45.0175L38.6034 44.7883C38.1998 44.6792 37.9271 44.5374 37.9271 44.1883C37.9271 43.8173 38.2216 43.5554 38.7016 43.5554C39.2035 43.5554 39.5307 43.8391 39.5307 44.3083H40.7416C40.698 43.239 39.9016 42.5625 38.7343 42.5625C37.578 42.5625 36.7162 43.239 36.7162 44.2646C36.7162 44.963 37.1198 45.5412 38.1562 45.814L39.0944 46.054C39.4434 46.1523 39.6616 46.3159 39.6616 46.6214C39.6616 47.047 39.258 47.2433 38.7671 47.2433C38.178 47.2433 37.8398 46.9706 37.8398 46.5014H36.6289Z" fill="#152C4F"/>
<path d="M43.6777 48.2584C44.4086 48.2584 45.1067 47.9202 45.4231 47.4183L45.5104 48.1166H46.754V42.7266H45.4231V45.5525C45.4231 46.5236 45.0522 47.0691 44.1795 47.0691C43.5031 47.0691 43.034 46.7418 43.034 45.6289V42.7266H41.7031V46.0981C41.7031 47.3855 42.4013 48.2584 43.6777 48.2584Z" fill="#152C4F"/>
<path d="M49.2606 48.1162V45.0175C49.2606 44.1446 49.7733 43.73 50.406 43.73C51.0387 43.73 51.4533 44.1337 51.4533 44.8975V48.1162H52.7515V45.0284C52.7515 44.1446 53.2532 43.73 53.886 43.73C54.5296 43.73 54.9442 44.1337 54.9442 44.8975V48.1162H56.2314V44.592C56.2314 43.3481 55.5441 42.5625 54.2351 42.5625C53.4169 42.5625 52.7733 42.9553 52.5115 43.5882C52.2169 42.9553 51.6278 42.5625 50.7333 42.5625C50.1006 42.5625 49.5333 42.8571 49.2169 43.3372L49.1515 42.7262H47.9297V48.1162H49.2606Z" fill="#152C4F"/>
<path d="M28.4922 32.6533C26.7389 35.8086 23.169 37.3098 19.5592 37.3098H5.07617C20.1531 35.4252 30.6531 27.8867 31.9992 17.3867C33.3454 27.8867 43.8454 35.4252 58.9223 37.3098H44.4393C40.8295 37.3098 37.2596 35.8086 35.5062 32.6533C33.6085 29.2383 32.3994 25.3739 31.9992 21.1559C31.5991 25.3739 30.39 29.2383 28.4922 32.6533Z" fill="#1A4688"/>
<path d="M20.2092 31.5373C19.3635 32.0134 18.4738 32.4607 17.5423 32.8773C17.0131 31.0494 16.8184 29.1317 16.9737 27.2214C17.1791 24.6941 17.9908 22.2576 19.3367 20.1278C20.6827 17.998 22.5214 16.2406 24.69 15.0112C26.8586 13.7819 29.2902 13.1185 31.7693 13.0799C34.2484 13.0413 36.6986 13.6287 38.9028 14.7899C41.107 15.9512 42.9971 17.6505 44.4058 19.7374C45.8145 21.8244 46.6983 24.2344 46.9789 26.7541C47.2083 28.815 47.0285 30.8974 46.4553 32.8773C45.5238 32.4607 44.6341 32.0134 43.7884 31.5372C44.1449 30.0897 44.2449 28.5839 44.0787 27.0919C43.8525 25.06 43.1398 23.1166 42.0038 21.4337C40.8678 19.7508 39.3436 18.3805 37.5662 17.444C35.7887 16.5076 33.8129 16.0339 31.8137 16.0651C29.8145 16.0962 27.8537 16.6311 26.105 17.6225C24.3562 18.6138 22.8735 20.031 21.7881 21.7485C20.7027 23.466 20.0482 25.4307 19.8826 27.4687C19.7712 28.8386 19.883 30.2132 20.2092 31.5373Z" fill="#7FB5E6"/>
</svg>
