<svg width="64" height="64" viewBox="0 0 64 64" fill="none" xmlns="http://www.w3.org/2000/svg">
<rect width="64" height="64" rx="6" fill="white"/>
<g clip-path="url(#clip0_4297_1013)">
<path fill-rule="evenodd" clip-rule="evenodd" d="M38.1113 22.8538C36.3023 21.6452 34.1756 21 32 21V10C36.3512 10 40.6046 11.2903 44.2225 13.7077C47.8404 16.1251 50.6602 19.561 52.3254 23.5809C53.9904 27.6009 54.4261 32.0244 53.5773 36.292C52.7284 40.5595 50.6331 44.4796 47.5563 47.5563C44.4796 50.6331 40.5595 52.7284 36.292 53.5773C32.0244 54.4261 27.6009 53.9904 23.5809 52.3254C19.561 50.6602 16.1251 47.8404 13.7077 44.2225C11.2903 40.6046 10 36.3512 10 32H21C21 34.1756 21.6452 36.3023 22.8538 38.1113C24.0625 39.9202 25.7805 41.3301 27.7905 42.1627C29.8004 42.9953 32.0122 43.2131 34.146 42.7886C36.2798 42.3642 38.2398 41.3166 39.7782 39.7782C41.3166 38.2398 42.3642 36.2798 42.7886 34.146C43.2131 32.0122 42.9953 29.8004 42.1627 27.7905C41.3301 25.7805 39.9202 24.0625 38.1113 22.8538Z" fill="#007DFC"/>
<path fill-rule="evenodd" clip-rule="evenodd" d="M21 10C21 11.4445 20.7155 12.8749 20.1627 14.2095C19.6099 15.5441 18.7996 16.7567 17.7782 17.7782C16.7567 18.7996 15.5441 19.6099 14.2095 20.1627C12.8749 20.7155 11.4445 21 10 21L10 32C12.8891 32 15.7499 31.431 18.419 30.3254C21.0882 29.2198 23.5135 27.5992 25.5563 25.5563C27.5992 23.5135 29.2197 21.0882 30.3254 18.419C31.431 15.7499 32 12.8891 32 10L21 10Z" fill="#007DFC"/>
</g>
<defs>
<clipPath id="clip0_4297_1013">
<rect width="44" height="44" fill="white" transform="translate(10 10)"/>
</clipPath>
</defs>
</svg>
