<svg width="60" height="60" viewBox="0 0 60 60" fill="none" xmlns="http://www.w3.org/2000/svg">
<g clip-path="url(#clip0_4776_3259)">
<path d="M2.07266 30.2333C2.07266 30.2333 2.10599 30.9166 2.17266 32.1999C2.19766 32.5208 2.18932 32.8791 2.24349 33.2666C2.30182 33.6583 2.36849 34.0833 2.43932 34.5416C2.51432 34.9999 2.56849 35.4999 2.68099 36.0208C2.81432 36.5374 2.95599 37.0874 3.10599 37.6666C3.75599 39.9583 4.77266 42.7291 6.63932 45.5041C8.47266 48.2791 11.0477 51.1249 14.4643 53.4166C17.881 55.6833 22.1185 57.3666 26.7935 57.9249C27.3727 58.0166 27.9685 57.9999 28.5643 58.0458L29.4602 58.0916C29.7602 58.1124 30.0602 58.1208 30.3602 58.0957C31.5643 58.0208 32.7893 58.0291 34.006 57.7874C36.4643 57.4916 38.8852 56.7041 41.2435 55.7124C41.8227 55.4333 42.4018 55.1541 42.9852 54.8749C43.5643 54.5874 44.1018 54.2166 44.6602 53.8874L45.4977 53.3791C45.7643 53.1916 46.0227 52.9874 46.2852 52.7958C46.806 52.3958 47.3518 52.0249 47.8518 51.5999C49.8727 49.8958 51.6435 47.8708 53.1727 45.6541C54.6602 43.4041 55.7935 40.9166 56.6268 38.3208C57.4102 35.7041 57.7602 32.9749 57.8268 30.2374C57.7643 27.5041 57.4102 24.7749 56.6268 22.1583C55.7935 19.5624 54.656 17.0791 53.1727 14.8249C51.6435 12.6083 49.8727 10.5833 47.8518 8.87909C47.3518 8.44992 46.8018 8.07909 46.2852 7.67909C46.0227 7.48326 45.7643 7.28326 45.4977 7.09576L44.6602 6.58742C44.0977 6.25826 43.5643 5.88742 42.9852 5.59992C42.4018 5.32076 41.8227 5.04159 41.2435 4.76242C38.8852 3.77076 36.4643 2.98326 34.006 2.68742C32.7935 2.44576 31.5643 2.45409 30.3602 2.37909C30.0602 2.35409 29.756 2.36242 29.4602 2.37909L28.5643 2.42492C27.9685 2.47076 27.3727 2.45409 26.7935 2.54576C22.1185 3.10409 17.881 4.78742 14.4643 7.05826C11.0477 9.34576 8.47266 12.1916 6.63932 14.9666C4.77266 17.7416 3.75599 20.5124 3.10599 22.8041C2.95599 23.3833 2.81432 23.9333 2.68099 24.4499C2.56849 24.9708 2.51432 25.4666 2.43932 25.9249C2.36849 26.3833 2.30599 26.8083 2.24349 27.1999C2.18516 27.5916 2.19349 27.9499 2.17266 28.2708C2.10599 29.5499 2.07266 30.2333 2.07266 30.2333H1.78516C1.78516 30.2333 1.81849 29.5416 1.88516 28.2499C1.91016 27.9249 1.90182 27.5624 1.96016 27.1708C2.01849 26.7749 2.08516 26.3458 2.15599 25.8833C2.23516 25.4208 2.28516 24.9166 2.40182 24.3916C2.53516 23.8708 2.67682 23.3166 2.82682 22.7291C3.48516 20.4124 4.51432 17.6166 6.39766 14.8124C8.24766 12.0083 10.8518 9.13326 14.306 6.82076C17.756 4.52909 22.0393 2.82909 26.7643 2.26659C27.3518 2.17076 27.9518 2.18742 28.5518 2.14159C28.8518 2.12492 29.156 2.11242 29.456 2.09576C29.7602 2.07492 30.0602 2.06659 30.3643 2.09159C31.581 2.16659 32.8185 2.15826 34.0477 2.39992C36.5268 2.69992 38.9768 3.49576 41.3602 4.49576C41.9435 4.77492 42.531 5.05826 43.1185 5.34576C43.7018 5.63742 44.2435 6.01242 44.8102 6.34159L45.656 6.85409C45.9268 7.04576 46.1893 7.24992 46.4518 7.44576C46.9768 7.84992 47.5268 8.22492 48.0352 8.65826C50.0768 10.3833 51.8685 12.4249 53.4102 14.6624C54.9102 16.9374 56.0602 19.4499 56.9018 22.0708C57.6935 24.7124 58.0477 27.4749 58.1143 30.2374C58.0477 32.9999 57.6935 35.7583 56.9018 38.4041C56.0602 41.0208 54.9102 43.5374 53.4102 45.8124C51.8685 48.0499 50.0768 50.0958 48.0352 51.8166C47.5268 52.2499 46.9768 52.6208 46.4518 53.0291C46.1852 53.2249 45.9227 53.4291 45.656 53.6208L44.8102 54.1333C44.2435 54.4624 43.7018 54.8374 43.1185 55.1291C42.531 55.4124 41.9435 55.6958 41.3602 55.9791C38.981 56.9833 36.5268 57.7791 34.0477 58.0749C32.8185 58.3208 31.581 58.3083 30.3643 58.3874C30.0602 58.4124 29.756 58.4041 29.456 58.3833C29.1518 58.3666 28.8518 58.3541 28.5518 58.3374C27.9518 58.2916 27.3518 58.3083 26.7643 58.2166C22.0393 57.6541 17.756 55.9499 14.306 53.6624C10.856 51.3499 8.25182 48.4749 6.39766 45.6708C4.51432 42.8666 3.48516 40.0666 2.82682 37.7499C2.67682 37.1624 2.53516 36.6083 2.40182 36.0874C2.28516 35.5624 2.23516 35.0583 2.15599 34.5958C2.08516 34.1291 2.01849 33.6999 1.96016 33.3083C1.90182 32.9124 1.91016 32.5499 1.88516 32.2291C1.81849 30.9333 1.78516 30.2416 1.78516 30.2416H2.07266V30.2333Z" fill="#606161"/>
<path d="M4.7862 18.6206C4.7862 18.6206 4.63203 18.9414 4.40286 19.4206C4.21953 19.9164 3.9737 20.5831 3.73203 21.2456C3.4612 21.8997 3.30703 22.5956 3.1737 23.1081C3.04036 23.6206 2.95286 23.9664 2.95286 23.9664L2.39453 23.8372C2.39453 23.8372 2.4862 23.4872 2.61953 22.9622C2.75286 22.4372 2.91536 21.7289 3.19036 21.0622C3.44036 20.3831 3.6862 19.7081 3.8737 19.1956C4.10703 18.7081 4.26536 18.3831 4.26536 18.3831L4.7862 18.6247V18.6206Z" fill="#606161"/>
<path d="M19.1089 5.01655C19.1089 5.01655 18.3297 5.39155 17.1547 5.95822C16.0214 6.59155 14.5172 7.46655 13.163 8.54989C12.4422 9.04155 11.838 9.66655 11.2255 10.1999C10.9339 10.4791 10.6172 10.7207 10.3755 11.0041C10.1255 11.2791 9.88802 11.5416 9.67135 11.7832C9.24219 12.2707 8.85052 12.6499 8.62969 12.9582C8.40469 13.2624 8.27135 13.4374 8.27135 13.4374L7.36719 12.7332C7.36719 12.7332 7.50052 12.5541 7.73802 12.2374C7.96719 11.9166 8.37135 11.5207 8.82135 11.0124C9.05052 10.7624 9.29635 10.4916 9.55885 10.2041C9.81302 9.90822 10.138 9.65822 10.4464 9.36655C11.0797 8.80405 11.7172 8.15822 12.463 7.64572C13.8755 6.51655 15.4422 5.60405 16.6214 4.94572C17.8422 4.35822 18.6547 3.96655 18.6547 3.96655L19.1089 5.01655Z" fill="#606161"/>
<path d="M31.6513 2.87089C31.6513 2.87089 31.393 2.85839 31.0055 2.83756C30.8138 2.82923 30.5846 2.81673 30.343 2.80423C30.1013 2.78339 29.843 2.77923 29.5846 2.80423C28.5513 2.85423 27.518 2.90839 27.518 2.90839L27.418 1.76673C27.418 1.76673 28.493 1.71256 29.568 1.65839C29.8346 1.63756 30.1055 1.64173 30.3555 1.65839C30.6096 1.67089 30.843 1.68339 31.043 1.69173C31.4471 1.71256 31.7138 1.72506 31.7138 1.72506L31.643 2.86673L31.6513 2.87089Z" fill="#606161"/>
<path d="M47.3102 8.61649C47.3102 8.61649 46.6268 8.10399 45.6018 7.33732C44.5227 6.65399 43.081 5.72899 41.5143 5.04565C40.7602 4.64149 39.9435 4.39149 39.1935 4.10815C38.8185 3.97482 38.456 3.82899 38.1102 3.72065C37.756 3.62899 37.4185 3.54565 37.1102 3.46232C36.4893 3.30399 35.9768 3.17065 35.6143 3.07899C35.2477 3.00815 35.0352 2.98315 35.0352 2.98315L35.1393 2.42065C35.1393 2.42065 35.356 2.44565 35.731 2.52065C36.1018 2.61649 36.6268 2.74982 37.2602 2.91232C37.5768 2.99149 37.9185 3.08315 38.281 3.17482C38.6393 3.28315 39.006 3.43315 39.3893 3.57065C40.1518 3.85815 40.9893 4.11649 41.756 4.52482C43.3518 5.22482 44.8268 6.16232 45.9268 6.86649C46.9727 7.64982 47.6685 8.17065 47.6685 8.17065L47.3102 8.61649Z" fill="#606161"/>
<path d="M54.8833 18.1456C54.8833 18.1456 54.6625 17.6872 54.4458 17.2331C54.3458 16.9997 54.2 16.7914 54.1042 16.6247C54.0042 16.4622 53.9375 16.3539 53.9375 16.3539L54.4333 16.0664C54.4333 16.0664 54.5 16.1747 54.6 16.3414C54.6958 16.5081 54.8458 16.7247 54.9458 16.9622C55.1708 17.4289 55.3958 17.8914 55.3958 17.8914L54.8833 18.1414V18.1456Z" fill="#606161"/>
<path d="M57.6409 29.2917C57.6409 29.2917 57.6159 28.7833 57.5784 28.0208C57.5701 27.8292 57.5575 27.625 57.5492 27.4042C57.5159 27.1875 57.4825 26.9583 57.445 26.725C57.3742 26.2542 57.2992 25.75 57.2201 25.2458C57.1617 24.7375 57.0284 24.2458 56.9076 23.7833C56.7867 23.3208 56.6784 22.8917 56.5826 22.5208C56.5367 22.3375 56.4909 22.1667 56.4534 22.0167C56.4076 21.8708 56.3534 21.7417 56.32 21.6375C56.245 21.4292 56.1992 21.3083 56.1992 21.3083L56.7409 21.125C56.7409 21.125 56.7867 21.2458 56.8617 21.4625C56.8992 21.5708 56.9534 21.6958 56.9992 21.85C57.0367 22.0042 57.0825 22.175 57.1325 22.3625C57.2284 22.7417 57.3409 23.1792 57.4659 23.6542C57.5909 24.125 57.7242 24.6292 57.7825 25.1458C57.8617 25.6583 57.9409 26.1708 58.0117 26.6542C58.0492 26.8958 58.0825 27.1292 58.1159 27.35C58.1284 27.575 58.1367 27.7833 58.1492 27.9792C58.1867 28.7583 58.2159 29.275 58.2159 29.275L57.6451 29.2958L57.6409 29.2917Z" fill="#606161"/>
<path d="M57.5432 34.0542C57.5432 34.0542 57.6182 33.5709 57.6891 33.0876C57.7141 32.6001 57.7391 32.1125 57.7391 32.1125L58.0224 32.1334C58.0224 32.1334 57.9974 32.625 57.9724 33.1209C57.8974 33.6084 57.8224 34.0959 57.8224 34.0959L57.5391 34.0584L57.5432 34.0542Z" fill="#606161"/>
<path d="M52.5198 46.3165C52.5198 46.3165 52.6031 46.2082 52.7448 46.0165C52.899 45.829 53.0781 45.5373 53.2906 45.1832C53.7031 44.4665 54.3406 43.5623 54.7781 42.5498C55.0156 42.054 55.2573 41.5582 55.4781 41.0957C55.6698 40.6165 55.824 40.1582 55.9698 39.7707C56.2531 38.9957 56.4406 38.479 56.4406 38.479L56.9865 38.6457C56.9865 38.6457 56.7948 39.1748 56.5031 39.9623C56.3573 40.3582 56.1948 40.8207 56.0031 41.3123C55.774 41.7873 55.5323 42.2957 55.2865 42.7998C54.8406 43.8373 54.1906 44.7582 53.7698 45.4873C53.5531 45.8498 53.3698 46.1498 53.2156 46.3415C53.0698 46.5373 52.9823 46.6498 52.9823 46.6498L52.5156 46.3165H52.5198Z" fill="#606161"/>
<path d="M36.7227 56.8081C36.7227 56.8081 36.8893 56.7665 37.181 56.6915C37.4685 56.604 37.8977 56.5373 38.381 56.354C39.3435 55.9831 40.6643 55.579 41.881 54.929C43.1477 54.3873 44.281 53.5915 45.1727 53.0748C45.6018 52.7873 45.9352 52.5165 46.181 52.3373C46.4227 52.1581 46.5602 52.054 46.5602 52.054L47.2518 52.9623C47.2518 52.9623 47.1102 53.0706 46.856 53.2581C46.6018 53.4373 46.2518 53.7248 45.806 54.0206C44.8768 54.5581 43.6977 55.3873 42.3768 55.954C41.1102 56.629 39.7352 57.054 38.731 57.4373C38.2268 57.6248 37.781 57.6998 37.481 57.7873C37.1768 57.8665 37.0018 57.9081 37.0018 57.9081L36.7227 56.7998V56.8081Z" fill="#606161"/>
<path d="M26.0094 57.6582C26.0094 57.6582 26.4552 57.7249 27.126 57.829C27.8052 57.8624 28.7052 57.9082 29.6094 57.954C30.0635 57.9999 30.5135 57.929 30.9344 57.9207C31.3594 57.8999 31.7552 57.879 32.0927 57.8624C32.7719 57.8499 33.2177 57.7624 33.2177 57.7624L33.2844 58.329C33.2844 58.329 32.8302 58.4165 32.1385 58.4332C31.7927 58.4499 31.3885 58.4707 30.9552 58.4915C30.5219 58.4957 30.0635 58.5707 29.601 58.5249C28.6802 58.479 27.7594 58.4332 27.0635 58.3957C26.3802 58.2915 25.9219 58.2249 25.9219 58.2249L26.001 57.6582H26.0094Z" fill="#606161"/>
<path d="M15.9352 53.804C15.9352 53.804 16.2143 53.9706 16.631 54.2248C17.0435 54.4831 17.6477 54.729 18.2268 55.0248C18.8102 55.3081 19.3935 55.5956 19.8602 55.7415C20.3185 55.9081 20.6227 56.0206 20.6227 56.0206L20.2352 57.0956C20.2352 57.0956 19.9185 56.979 19.4393 56.804C18.9518 56.6498 18.3477 56.354 17.7352 56.054C17.131 55.7498 16.5018 55.4915 16.0727 55.2206C15.6393 54.9581 15.3477 54.7831 15.3477 54.7831L15.9352 53.7998V53.804Z" fill="#606161"/>
<path d="M10.6693 50.1499L11.7734 51.1499L11.3984 51.5832L10.2734 50.5582L10.6693 50.1499Z" fill="#606161"/>
<path d="M6.04661 44.2459C6.04661 44.2459 6.21328 44.525 6.46745 44.9375C6.59245 45.1417 6.73828 45.3834 6.89661 45.6459C7.05911 45.9 7.26745 46.15 7.45495 46.4125C7.84245 46.9292 8.22995 47.4459 8.51745 47.8334C8.83828 48.1917 9.05495 48.4334 9.05495 48.4334L8.62578 48.8084C8.62578 48.8084 8.40495 48.5625 8.07578 48.1959C7.77995 47.8 7.38411 47.2709 6.98828 46.7417C6.79661 46.475 6.58411 46.2167 6.41745 45.9584C6.25495 45.6959 6.10911 45.4459 5.97995 45.2375C5.72161 44.8167 5.55078 44.5334 5.55078 44.5334L6.04245 44.2417L6.04661 44.2459Z" fill="#606161"/>
<path d="M4.132 40.7207C4.08617 40.7415 4.81533 42.229 4.81533 42.229L4.557 42.3499C4.557 42.3499 3.8195 40.8457 3.86533 40.829L4.12783 40.7207H4.132Z" fill="#606161"/>
<path d="M2.63776 32.9165C2.63776 32.9165 2.63776 32.9748 2.65026 33.0748C2.66693 33.1748 2.68776 33.3165 2.71276 33.4873C2.76276 33.829 2.83359 34.2832 2.90443 34.7373C2.98359 35.1915 3.02109 35.654 3.11693 35.9873C3.20443 36.3207 3.25859 36.5457 3.25859 36.5457L2.14609 36.8082C2.14609 36.8082 2.08776 36.5748 1.99609 36.229C1.89609 35.8832 1.85443 35.3998 1.77526 34.929C1.70443 34.454 1.62943 33.979 1.57526 33.6248C1.55026 33.4457 1.52526 33.2998 1.50859 33.1957C1.49609 33.0915 1.49609 33.0332 1.49609 33.0332L2.63359 32.9207L2.63776 32.9165Z" fill="#606161"/>
<path d="M6.2875 12.5124C6.2875 12.5124 6.13333 12.7207 5.85833 13.0874C5.725 13.2707 5.55 13.4915 5.37083 13.754C5.20417 14.029 5.01667 14.3332 4.8125 14.6707C4.4125 15.3457 3.89583 16.104 3.50417 17.0082C3.29167 17.4499 3.07083 17.904 2.85 18.3707C2.73333 18.5999 2.62917 18.8415 2.55 19.0874L2.27917 19.8249C2.1 20.3165 1.92083 20.8082 1.74167 21.2915C1.58333 21.7832 1.47917 22.279 1.35 22.754C1.22917 23.229 1.1125 23.6874 1 24.1249C0.904167 24.5624 0.858333 24.9874 0.791667 25.3749C0.675 26.1499 0.579167 26.7999 0.5125 27.254C0.4875 27.7124 0.475 27.9707 0.475 27.9707L0.1875 27.9499C0.1875 27.9499 0.204167 27.6832 0.225 27.2249C0.295833 26.7665 0.391667 26.1124 0.508333 25.329C0.575 24.9374 0.620833 24.5082 0.716667 24.0665C0.829167 23.6249 0.95 23.1624 1.07083 22.6832C1.2 22.204 1.30833 21.704 1.46667 21.2082C1.64583 20.7207 1.825 20.2249 2.00833 19.729L2.28333 18.9832C2.36667 18.7332 2.46667 18.4915 2.5875 18.2624C2.8125 17.7915 3.03333 17.3332 3.25 16.8874C3.65 15.9749 4.16667 15.2082 4.57083 14.5249C4.77917 14.1874 4.96667 13.8749 5.13333 13.5999C5.3125 13.3332 5.4875 13.1165 5.625 12.929C5.9 12.5582 6.05833 12.3457 6.05833 12.3457L6.2875 12.5165V12.5124Z" fill="#606161"/>
<path d="M13.7732 9.34142C13.7732 9.34142 13.5357 9.52059 13.1773 9.78726C12.8398 10.0789 12.4065 10.4831 11.9648 10.8831C11.744 11.0831 11.5232 11.2831 11.319 11.4706C11.119 11.6623 10.9523 11.8664 10.8023 12.0289C10.5023 12.3581 10.3023 12.5789 10.3023 12.5789L10.0898 12.3873C10.0898 12.3873 10.2898 12.1664 10.594 11.8331C10.7482 11.6706 10.9148 11.4623 11.119 11.2706C11.3273 11.0789 11.5482 10.8789 11.7732 10.6789C12.219 10.2789 12.6565 9.86642 12.9982 9.57059C13.3607 9.29976 13.5982 9.12476 13.5982 9.12476L13.7732 9.34976V9.34142Z" fill="#606161"/>
<path d="M14.7185 4.89159C14.7185 4.89159 14.3518 5.11242 13.9852 5.33742C13.8018 5.44992 13.6185 5.56242 13.481 5.64575C13.3435 5.72909 13.2602 5.79992 13.2602 5.79992L13.0977 5.56242C13.0977 5.56242 13.181 5.49159 13.3185 5.40825C13.4602 5.32492 13.6435 5.20825 13.8268 5.09575C14.1977 4.87075 14.5685 4.64575 14.5685 4.64575L14.7143 4.89159H14.7185Z" fill="#606161"/>
<path d="M26.9625 0.57513C26.9625 0.57513 26.8208 0.591797 26.575 0.629297C26.3292 0.666797 25.975 0.720964 25.5542 0.783464C25.1333 0.845964 24.6417 0.920964 24.1125 1.0043C23.5875 1.1043 23.0417 1.27096 22.4875 1.4043C21.9375 1.5543 21.3792 1.67096 20.875 1.8418C20.375 2.02513 19.9042 2.19596 19.5042 2.3418C19.1042 2.48763 18.7708 2.61263 18.5333 2.69596C18.2958 2.77513 18.175 2.84596 18.175 2.84596L18.0625 2.58346C18.0625 2.58346 18.1875 2.51263 18.425 2.4293C18.6625 2.3418 19 2.2168 19.4042 2.0668C19.8083 1.92096 20.2833 1.74596 20.7875 1.56263C21.2958 1.38346 21.8625 1.27096 22.4167 1.1168C22.975 0.979297 23.5292 0.81263 24.0583 0.71263C24.5917 0.629297 25.0875 0.554297 25.5125 0.48763C25.9375 0.420964 26.2958 0.370964 26.5417 0.333464C26.7917 0.295964 26.9333 0.279297 26.9333 0.279297L26.9625 0.56263V0.57513Z" fill="#606161"/>
<path d="M33.9391 0.720719C33.9391 0.720719 33.7141 0.687386 33.3724 0.637386C33.0349 0.566553 32.5766 0.562386 32.1182 0.533219C31.2016 0.487386 30.2891 0.441553 30.2891 0.441553V0.154053C30.2891 0.154053 31.2182 0.199886 32.1391 0.245719C32.6016 0.274886 33.0641 0.283219 33.4057 0.349886C33.7474 0.399886 33.9766 0.433219 33.9766 0.433219L33.9391 0.716553V0.720719Z" fill="#606161"/>
<path d="M51.0557 14.3458C51.0557 14.3458 50.9307 14.1833 50.7182 13.8958C50.6099 13.7541 50.4849 13.5749 50.3307 13.3791C50.1641 13.1958 49.9724 12.9874 49.7682 12.7583C49.5599 12.5291 49.3391 12.2874 49.1016 12.0249C48.8641 11.7624 48.6224 11.4833 48.3307 11.2374C47.7516 10.7333 47.1766 10.1458 46.5307 9.64158C45.8724 9.15825 45.2307 8.64575 44.5974 8.21242C43.9432 7.81658 43.3307 7.44159 42.8057 7.12492C42.2807 6.80825 41.7974 6.62492 41.4849 6.45825C41.1641 6.30409 40.9766 6.21659 40.9766 6.21659L41.0974 5.95825C41.0974 5.95825 41.2849 6.04575 41.6099 6.20409C41.9307 6.37075 42.4141 6.55825 42.9474 6.87909C43.4766 7.19992 44.0974 7.57492 44.7599 7.97908C45.3974 8.41658 46.0474 8.93325 46.7141 9.42075C47.3641 9.93325 47.9474 10.5249 48.5307 11.0333C48.8266 11.2833 49.0766 11.5666 49.3099 11.8291C49.5474 12.0916 49.7766 12.3416 49.9849 12.5708C50.1932 12.7999 50.3849 13.0083 50.5557 13.1958C50.7141 13.3958 50.8391 13.5749 50.9516 13.7166C51.1682 14.0041 51.2891 14.1708 51.2891 14.1708L51.0599 14.3416L51.0557 14.3458Z" fill="#606161"/>
<path d="M54.9737 21.725C54.9737 21.725 54.7279 21.05 54.4779 20.375C54.3654 20.0333 54.2112 19.7083 54.0904 19.4667C53.9737 19.225 53.8945 19.0625 53.8945 19.0625L54.1529 18.9417C54.1529 18.9417 54.232 19.1083 54.3487 19.35C54.4737 19.5958 54.6279 19.9208 54.7404 20.2667C54.9904 20.95 55.2404 21.6333 55.2404 21.6333L54.9695 21.725H54.9737Z" fill="#606161"/>
<path d="M56.1182 26.5667L55.9141 25.2251L56.1974 25.1709L56.4016 26.5292L56.1182 26.5667Z" fill="#606161"/>
<path d="M59.5057 33.9416C59.5057 33.9416 59.6349 33.2666 59.6599 32.2332C59.6849 31.7207 59.7141 31.1207 59.7474 30.4749C59.7641 29.8332 59.6974 29.1457 59.6724 28.4582C59.6599 27.0791 59.3641 25.7291 59.2307 24.7082C59.1682 24.1957 59.0349 23.7832 58.9682 23.4916C58.8932 23.1999 58.8516 23.0332 58.8516 23.0332L59.1307 22.9624C59.1307 22.9624 59.1724 23.1332 59.2474 23.4249C59.3182 23.7207 59.4516 24.1332 59.5141 24.6541C59.6516 25.6832 59.9516 27.0499 59.9641 28.4374C59.9891 29.1291 60.0557 29.8249 60.0391 30.4707C60.0057 31.1207 59.9766 31.7249 59.9516 32.2457C59.9266 33.2874 59.7974 33.9707 59.7974 33.9707L59.5141 33.9374L59.5057 33.9416Z" fill="#606161"/>
<path d="M57.012 42.6873C57.012 42.6873 57.1578 42.3873 57.3703 41.9373C57.562 41.4748 57.7786 40.8456 58.012 40.2206C58.2453 39.5956 58.4786 38.9706 58.5786 38.479C58.7036 37.9956 58.787 37.6748 58.787 37.6748L59.062 37.7456C59.062 37.7456 58.9786 38.0706 58.8536 38.5623C58.7495 39.0581 58.512 39.6915 58.2786 40.3206C58.0411 40.9498 57.8245 41.5873 57.6286 42.054C57.412 42.5081 57.2661 42.8123 57.2661 42.8123L57.0078 42.6915L57.012 42.6873Z" fill="#606161"/>
<path d="M44.5391 52.2874C44.5391 52.2874 44.5682 52.2707 44.6182 52.2374C44.6724 52.2082 44.7474 52.1624 44.8391 52.0874C45.0224 51.9541 45.2849 51.7541 45.5974 51.5207C45.9099 51.2874 46.2766 51.0124 46.6682 50.7207C47.0474 50.4124 47.4182 50.0457 47.8099 49.6999C48.6141 49.0291 49.2891 48.2291 49.8182 47.6499C50.3641 47.0874 50.6599 46.6541 50.6599 46.6541L50.8849 46.8291C50.8849 46.8291 50.5849 47.2666 50.0349 47.8374C49.5016 48.4207 48.8182 49.2291 48.0057 49.9082C47.6099 50.2582 47.2349 50.6291 46.8516 50.9416C46.4557 51.2374 46.0849 51.5124 45.7682 51.7499C45.4516 51.9874 45.1891 52.1874 45.0016 52.3249C44.9099 52.3999 44.8307 52.4457 44.7807 52.4749C44.7266 52.5082 44.7016 52.5249 44.7016 52.5249L44.5432 52.2874H44.5391Z" fill="#606161"/>
<path d="M32.625 56.5498C32.625 56.5498 32.7792 56.529 33.0458 56.4873C33.3125 56.4498 33.6958 56.3873 34.1583 56.3165C34.3875 56.279 34.6375 56.2457 34.9 56.204C35.0292 56.1832 35.1667 56.1623 35.3042 56.1415C35.4375 56.1082 35.5792 56.0707 35.7167 56.0332C36.2792 55.8873 36.8792 55.7332 37.4792 55.579C37.7833 55.5165 38.0708 55.3998 38.3583 55.2957C38.6458 55.1915 38.925 55.0873 39.2 54.9873C39.7417 54.7832 40.2625 54.6248 40.675 54.3998C41.5125 53.9957 42.0708 53.729 42.0708 53.729L42.2 53.9832C42.2 53.9832 41.6375 54.254 40.7917 54.6623C40.3792 54.8873 39.85 55.0498 39.3 55.2582C39.025 55.3582 38.7375 55.4623 38.45 55.5707C38.1583 55.6748 37.8708 55.7957 37.5625 55.8582C36.9583 56.0123 36.35 56.1707 35.7792 56.3165C35.6375 56.354 35.4958 56.3915 35.3625 56.4248C35.2208 56.4457 35.0875 56.4665 34.9542 56.4873C34.6875 56.5248 34.4375 56.5665 34.2042 56.5998C33.7375 56.6707 33.3542 56.729 33.0792 56.7707C32.8083 56.8123 32.6542 56.8332 32.6542 56.8332L32.625 56.5498Z" fill="#606161"/>
<path d="M26.9667 56.5042C26.9667 56.5042 27.1042 56.5333 27.3167 56.55C27.525 56.5583 27.8083 56.575 28.0875 56.5875C28.65 56.6166 29.2083 56.6458 29.2083 56.6458L29.2 56.9333C29.2 56.9333 28.6333 56.9042 28.0667 56.875C27.7833 56.8583 27.5 56.8458 27.2875 56.8375C27.075 56.8208 26.9375 56.7875 26.9375 56.7875L26.9708 56.5042H26.9667Z" fill="#606161"/>
<path d="M19.9788 58.2998C19.9455 58.404 24.6497 59.6998 24.683 59.554L24.633 59.8373C24.6038 59.9831 19.8497 58.679 19.883 58.5748L19.9788 58.304V58.2998Z" fill="#606161"/>
<path d="M13.7206 55.2207C13.7206 55.2207 14.5747 55.7415 15.4289 56.2582C15.8456 56.5374 16.3206 56.7124 16.6497 56.8874C16.9872 57.0499 17.2122 57.1624 17.2122 57.1624L17.0914 57.4207C17.0914 57.4207 16.8622 57.3124 16.5247 57.1457C16.1914 56.9665 15.7122 56.7915 15.2914 56.5124C14.4289 55.9874 13.5664 55.4665 13.5664 55.4665L13.7247 55.2249L13.7206 55.2207Z" fill="#606161"/>
<path d="M0.9625 37.0833C0.9625 37.0833 1.1625 37.8666 1.46667 39.0374C1.6625 39.6124 1.9125 40.2749 2.17083 40.9833C2.3125 41.3333 2.41667 41.7166 2.59583 42.0708C2.76667 42.4291 2.94167 42.7958 3.11667 43.1583C3.29167 43.5208 3.46667 43.8874 3.64167 44.2416C3.8125 44.6041 4.04167 44.9249 4.22917 45.2541C4.625 45.8999 4.97917 46.5124 5.31667 47.0124C6.04167 47.9833 6.525 48.6291 6.525 48.6291L6.3 48.8083C6.3 48.8083 5.8125 48.1541 5.07917 47.1749C4.7375 46.6666 4.38333 46.0499 3.98333 45.3958C3.79583 45.0624 3.5625 44.7416 3.39167 44.3749C3.21667 44.0124 3.04167 43.6458 2.8625 43.2791C2.6875 42.9124 2.50833 42.5458 2.3375 42.1833C2.15417 41.8249 2.05 41.4416 1.90833 41.0874C1.64583 40.3666 1.39583 39.6999 1.19583 39.1208C0.891667 37.9374 0.6875 37.1458 0.6875 37.1458L0.966667 37.0791L0.9625 37.0833Z" fill="#606161"/>
<path d="M5.38411 38.5374C5.38411 38.5374 5.47995 38.7999 5.62578 39.1915C5.78411 39.579 5.92995 40.1207 6.17995 40.6207C6.66328 41.6249 7.15078 42.6332 7.15078 42.6332L6.90078 42.7707C6.90078 42.7707 6.40911 41.754 5.91745 40.7374C5.66328 40.2332 5.51328 39.6832 5.35495 39.2915C5.20911 38.8957 5.11328 38.629 5.11328 38.629L5.38411 38.5374Z" fill="#606161"/>
<path d="M42.4563 27.0083C42.2896 26.4917 41.8271 26.125 41.2896 26.075L33.9104 25.4042L30.9938 18.575C30.7771 18.075 30.2896 17.75 29.7438 17.75C29.1979 17.75 28.7063 18.075 28.4938 18.575L25.5771 25.4042L18.1938 26.075C17.6521 26.125 17.1938 26.4917 17.0271 27.0083C16.8604 27.525 17.0146 28.0958 17.4229 28.4542L23.0021 33.3458L21.3563 40.5917C21.2354 41.125 21.4438 41.675 21.8854 41.9958C22.1229 42.1667 22.4021 42.2542 22.6813 42.2542C22.9229 42.2542 23.1646 42.1917 23.3771 42.0625L29.7438 38.2583L36.1063 42.0625C36.5729 42.3417 37.1604 42.3167 37.6021 41.9958C38.0438 41.675 38.2521 41.125 38.1313 40.5917L36.4854 33.3458L42.0646 28.4542C42.4729 28.0958 42.6313 27.5292 42.4604 27.0083H42.4563Z" fill="#ED1C24"/>
</g>
<defs>
<clipPath id="clip0_4776_3259">
<rect width="60" height="60" fill="white"/>
</clipPath>
</defs>
</svg>
