<svg width="60" height="60" viewBox="0 0 60 60" fill="none" xmlns="http://www.w3.org/2000/svg">
<g clip-path="url(#clip0_4776_3295)">
<path d="M2.06875 30.2333C2.06875 30.2333 2.10208 30.9166 2.16875 32.1999C2.19375 32.5208 2.18542 32.8791 2.23958 33.2666C2.29792 33.6583 2.36458 34.0833 2.43542 34.5416C2.51042 34.9999 2.56458 35.4999 2.67708 36.0208C2.81042 36.5374 2.95208 37.0874 3.10208 37.6666C3.75208 39.9583 4.76875 42.7291 6.63542 45.5041C8.46875 48.2791 11.0437 51.1249 14.4604 53.4166C17.8771 55.6833 22.1146 57.3666 26.7896 57.9249C27.3688 58.0166 27.9646 57.9999 28.5604 58.0458L29.4562 58.0916C29.7562 58.1124 30.0562 58.1208 30.3563 58.0957C31.5604 58.0208 32.7854 58.0291 34.0021 57.7874C36.4604 57.4916 38.8813 56.7041 41.2396 55.7124C41.8188 55.4333 42.3979 55.1541 42.9813 54.8749C43.5604 54.5874 44.0979 54.2166 44.6562 53.8874L45.4938 53.3791C45.7604 53.1916 46.0187 52.9874 46.2812 52.7958C46.8021 52.3958 47.3479 52.0249 47.8479 51.5999C49.8687 49.8958 51.6396 47.8708 53.1688 45.6541C54.6562 43.4041 55.7896 40.9166 56.6229 38.3208C57.4062 35.7041 57.7562 32.9749 57.8229 30.2374C57.7604 27.5041 57.4062 24.7749 56.6229 22.1583C55.7896 19.5624 54.6521 17.0791 53.1688 14.8249C51.6396 12.6083 49.8687 10.5833 47.8479 8.87909C47.3479 8.44992 46.7979 8.07909 46.2812 7.67909C46.0187 7.48326 45.7604 7.28326 45.4938 7.09576L44.6562 6.58742C44.0938 6.25826 43.5604 5.88742 42.9813 5.59992C42.3979 5.32076 41.8188 5.04159 41.2396 4.76242C38.8813 3.77076 36.4604 2.98326 34.0021 2.68742C32.7896 2.44576 31.5604 2.45409 30.3563 2.37909C30.0562 2.35409 29.7521 2.36242 29.4562 2.37909L28.5604 2.42492C27.9646 2.47076 27.3688 2.45409 26.7896 2.54576C22.1146 3.10409 17.8771 4.78742 14.4604 7.05826C11.0437 9.34576 8.46875 12.1916 6.63542 14.9666C4.76875 17.7416 3.75208 20.5124 3.10208 22.8041C2.95208 23.3833 2.81042 23.9333 2.67708 24.4499C2.56458 24.9708 2.51042 25.4666 2.43542 25.9249C2.36458 26.3833 2.30208 26.8083 2.23958 27.1999C2.18125 27.5916 2.18958 27.9499 2.16875 28.2708C2.10208 29.5499 2.06875 30.2333 2.06875 30.2333H1.78125C1.78125 30.2333 1.81458 29.5416 1.88125 28.2499C1.90625 27.9249 1.89792 27.5624 1.95625 27.1708C2.01458 26.7749 2.08125 26.3458 2.15208 25.8833C2.23125 25.4208 2.28125 24.9166 2.39792 24.3916C2.53125 23.8708 2.67292 23.3166 2.82292 22.7291C3.48125 20.4124 4.51042 17.6166 6.39375 14.8124C8.24375 12.0083 10.8479 9.13326 14.3021 6.82076C17.7521 4.52909 22.0354 2.82909 26.7604 2.26659C27.3479 2.17076 27.9479 2.18742 28.5479 2.14159C28.8479 2.12492 29.1521 2.11242 29.4521 2.09576C29.7563 2.07492 30.0563 2.06659 30.3604 2.09159C31.5771 2.16659 32.8146 2.15826 34.0438 2.39992C36.5229 2.69992 38.9729 3.49576 41.3563 4.49576C41.9396 4.77492 42.5271 5.05826 43.1146 5.34576C43.6979 5.63742 44.2396 6.01242 44.8063 6.34159L45.6521 6.85409C45.9229 7.04576 46.1854 7.24992 46.4479 7.44576C46.9729 7.84992 47.5229 8.22492 48.0312 8.65826C50.0729 10.3833 51.8646 12.4249 53.4062 14.6624C54.9062 16.9374 56.0562 19.4499 56.8979 22.0708C57.6896 24.7124 58.0438 27.4749 58.1104 30.2374C58.0438 32.9999 57.6896 35.7583 56.8979 38.4041C56.0562 41.0208 54.9062 43.5374 53.4062 45.8124C51.8646 48.0499 50.0729 50.0958 48.0312 51.8166C47.5229 52.2499 46.9729 52.6208 46.4479 53.0291C46.1813 53.2249 45.9188 53.4291 45.6521 53.6208L44.8063 54.1333C44.2396 54.4624 43.6979 54.8374 43.1146 55.1291C42.5271 55.4124 41.9396 55.6958 41.3563 55.9791C38.9771 56.9833 36.5229 57.7791 34.0438 58.0749C32.8146 58.3208 31.5771 58.3083 30.3604 58.3874C30.0563 58.4124 29.7521 58.4041 29.4521 58.3833C29.1479 58.3666 28.8479 58.3541 28.5479 58.3374C27.9479 58.2916 27.3479 58.3083 26.7604 58.2166C22.0354 57.6541 17.7521 55.9499 14.3021 53.6624C10.8521 51.3499 8.24792 48.4749 6.39375 45.6708C4.51042 42.8666 3.48125 40.0666 2.82292 37.7499C2.67292 37.1624 2.53125 36.6083 2.39792 36.0874C2.28125 35.5624 2.23125 35.0583 2.15208 34.5958C2.08125 34.1291 2.01458 33.6999 1.95625 33.3083C1.89792 32.9124 1.90625 32.5499 1.88125 32.2291C1.81458 30.9333 1.78125 30.2416 1.78125 30.2416H2.06875V30.2333Z" fill="#606161"/>
<path d="M4.7862 18.6206C4.7862 18.6206 4.63203 18.9414 4.40286 19.4206C4.21953 19.9164 3.9737 20.5831 3.73203 21.2456C3.4612 21.8997 3.30703 22.5956 3.1737 23.1081C3.04036 23.6206 2.95286 23.9664 2.95286 23.9664L2.39453 23.8372C2.39453 23.8372 2.4862 23.4872 2.61953 22.9622C2.75286 22.4372 2.91536 21.7289 3.19036 21.0622C3.44036 20.3831 3.6862 19.7081 3.8737 19.1956C4.10703 18.7081 4.26536 18.3831 4.26536 18.3831L4.7862 18.6247V18.6206Z" fill="#606161"/>
<path d="M19.1128 5.01631C19.1128 5.01631 18.3336 5.39131 17.1586 5.95798C16.0253 6.59131 14.5211 7.46631 13.1669 8.54964C12.4461 9.04131 11.8419 9.66631 11.2294 10.1996C10.9378 10.4788 10.6211 10.7205 10.3794 11.0038C10.1294 11.2788 9.89193 11.5413 9.67526 11.783C9.24609 12.2705 8.85443 12.6496 8.63359 12.958C8.40859 13.2621 8.27526 13.4371 8.27526 13.4371L7.37109 12.733C7.37109 12.733 7.50443 12.5538 7.74193 12.2371C7.97109 11.9163 8.37526 11.5205 8.82526 11.0121C9.05443 10.7621 9.30026 10.4913 9.56276 10.2038C9.81693 9.90797 10.1419 9.65797 10.4503 9.36631C11.0836 8.80381 11.7211 8.15798 12.4669 7.64548C13.8794 6.51631 15.4461 5.60381 16.6253 4.94547C17.8461 4.35798 18.6586 3.96631 18.6586 3.96631L19.1128 5.01631Z" fill="#606161"/>
<path d="M31.6552 2.87089C31.6552 2.87089 31.3969 2.85839 31.0094 2.83756C30.8177 2.82923 30.5885 2.81673 30.3469 2.80423C30.1052 2.78339 29.8469 2.77923 29.5885 2.80423C28.5552 2.85423 27.5219 2.90839 27.5219 2.90839L27.4219 1.76673C27.4219 1.76673 28.4969 1.71256 29.5719 1.65839C29.8385 1.63756 30.1094 1.64173 30.3594 1.65839C30.6135 1.67089 30.8469 1.68339 31.0469 1.69173C31.451 1.71256 31.7177 1.72506 31.7177 1.72506L31.6469 2.86673L31.6552 2.87089Z" fill="#606161"/>
<path d="M47.3102 8.61673C47.3102 8.61673 46.6268 8.10423 45.6018 7.33757C44.5227 6.65423 43.081 5.72923 41.5143 5.0459C40.7602 4.64173 39.9435 4.39173 39.1935 4.1084C38.8185 3.97506 38.456 3.82923 38.1102 3.7209C37.756 3.62923 37.4185 3.5459 37.1102 3.46257C36.4893 3.30423 35.9768 3.1709 35.6143 3.07923C35.2477 3.0084 35.0352 2.9834 35.0352 2.9834L35.1393 2.4209C35.1393 2.4209 35.356 2.4459 35.731 2.5209C36.1018 2.61673 36.6268 2.75007 37.2602 2.91257C37.5768 2.99173 37.9185 3.0834 38.281 3.17507C38.6393 3.2834 39.006 3.4334 39.3893 3.5709C40.1518 3.8584 40.9893 4.11673 41.756 4.52506C43.3518 5.22506 44.8268 6.16256 45.9268 6.86673C46.9727 7.65006 47.6685 8.1709 47.6685 8.1709L47.3102 8.61673Z" fill="#606161"/>
<path d="M54.8794 18.1456C54.8794 18.1456 54.6586 17.6872 54.4419 17.2331C54.3419 16.9997 54.1961 16.7914 54.1003 16.6247C54.0003 16.4622 53.9336 16.3539 53.9336 16.3539L54.4294 16.0664C54.4294 16.0664 54.4961 16.1747 54.5961 16.3414C54.6919 16.5081 54.8419 16.7247 54.9419 16.9622C55.1669 17.4289 55.3919 17.8914 55.3919 17.8914L54.8794 18.1414V18.1456Z" fill="#606161"/>
<path d="M57.6409 29.2917C57.6409 29.2917 57.6159 28.7833 57.5784 28.0208C57.5701 27.8292 57.5575 27.625 57.5492 27.4042C57.5159 27.1875 57.4825 26.9583 57.445 26.725C57.3742 26.2542 57.2992 25.75 57.2201 25.2458C57.1617 24.7375 57.0284 24.2458 56.9076 23.7833C56.7867 23.3208 56.6784 22.8917 56.5826 22.5208C56.5367 22.3375 56.4909 22.1667 56.4534 22.0167C56.4076 21.8708 56.3534 21.7417 56.32 21.6375C56.245 21.4292 56.1992 21.3083 56.1992 21.3083L56.7409 21.125C56.7409 21.125 56.7867 21.2458 56.8617 21.4625C56.8992 21.5708 56.9534 21.6958 56.9992 21.85C57.0367 22.0042 57.0825 22.175 57.1325 22.3625C57.2284 22.7417 57.3409 23.1792 57.4659 23.6542C57.5909 24.125 57.7242 24.6292 57.7825 25.1458C57.8617 25.6583 57.9409 26.1708 58.0117 26.6542C58.0492 26.8958 58.0825 27.1292 58.1159 27.35C58.1284 27.575 58.1367 27.7833 58.1492 27.9792C58.1867 28.7583 58.2159 29.275 58.2159 29.275L57.6451 29.2958L57.6409 29.2917Z" fill="#606161"/>
<path d="M57.5432 34.0542C57.5432 34.0542 57.6182 33.5709 57.6891 33.0876C57.7141 32.6001 57.7391 32.1125 57.7391 32.1125L58.0224 32.1334C58.0224 32.1334 57.9974 32.625 57.9724 33.1209C57.8974 33.6084 57.8224 34.0959 57.8224 34.0959L57.5391 34.0584L57.5432 34.0542Z" fill="#606161"/>
<path d="M52.5198 46.3165C52.5198 46.3165 52.6031 46.2082 52.7448 46.0165C52.899 45.829 53.0781 45.5373 53.2906 45.1832C53.7031 44.4665 54.3406 43.5623 54.7781 42.5498C55.0156 42.054 55.2573 41.5582 55.4781 41.0957C55.6698 40.6165 55.824 40.1582 55.9698 39.7707C56.2531 38.9957 56.4406 38.479 56.4406 38.479L56.9865 38.6457C56.9865 38.6457 56.7948 39.1748 56.5031 39.9623C56.3573 40.3582 56.1948 40.8207 56.0031 41.3123C55.774 41.7873 55.5323 42.2957 55.2865 42.7998C54.8406 43.8373 54.1906 44.7582 53.7698 45.4873C53.5531 45.8498 53.3698 46.1498 53.2156 46.3415C53.0698 46.5373 52.9823 46.6498 52.9823 46.6498L52.5156 46.3165H52.5198Z" fill="#606161"/>
<path d="M36.7188 56.8084C36.7188 56.8084 36.8854 56.7667 37.1771 56.6917C37.4646 56.6042 37.8938 56.5375 38.3771 56.3542C39.3396 55.9834 40.6604 55.5792 41.8771 54.9292C43.1438 54.3875 44.2771 53.5917 45.1688 53.075C45.5979 52.7875 45.9313 52.5167 46.1771 52.3375C46.4188 52.1584 46.5563 52.0542 46.5563 52.0542L47.2479 52.9625C47.2479 52.9625 47.1063 53.0709 46.8521 53.2584C46.5979 53.4375 46.2479 53.725 45.8021 54.0209C44.8729 54.5584 43.6938 55.3875 42.3729 55.9542C41.1063 56.6292 39.7313 57.0542 38.7271 57.4375C38.2229 57.625 37.7771 57.7 37.4771 57.7875C37.1729 57.8667 36.9979 57.9084 36.9979 57.9084L36.7188 56.8V56.8084Z" fill="#606161"/>
<path d="M26.0094 57.6584C26.0094 57.6584 26.4552 57.7251 27.126 57.8293C27.8052 57.8626 28.7052 57.9084 29.6094 57.9543C30.0635 58.0001 30.5135 57.9293 30.9344 57.9209C31.3594 57.9001 31.7552 57.8793 32.0927 57.8626C32.7719 57.8501 33.2177 57.7626 33.2177 57.7626L33.2844 58.3293C33.2844 58.3293 32.8302 58.4168 32.1385 58.4334C31.7927 58.4501 31.3885 58.4709 30.9552 58.4918C30.5219 58.4959 30.0635 58.5709 29.601 58.5251C28.6802 58.4793 27.7594 58.4334 27.0635 58.3959C26.3802 58.2918 25.9219 58.2251 25.9219 58.2251L26.001 57.6584H26.0094Z" fill="#606161"/>
<path d="M15.9352 53.8042C15.9352 53.8042 16.2143 53.9709 16.631 54.2251C17.0435 54.4834 17.6477 54.7292 18.2268 55.025C18.8102 55.3084 19.3935 55.5959 19.8602 55.7417C20.3185 55.9084 20.6227 56.0209 20.6227 56.0209L20.2352 57.0959C20.2352 57.0959 19.9185 56.9792 19.4393 56.8042C18.9518 56.6501 18.3477 56.3542 17.7352 56.0542C17.131 55.7501 16.5018 55.4917 16.0727 55.2209C15.6393 54.9584 15.3477 54.7834 15.3477 54.7834L15.9352 53.8V53.8042Z" fill="#606161"/>
<path d="M10.6732 50.1499L11.7773 51.1499L11.4023 51.5832L10.2773 50.5582L10.6732 50.1499Z" fill="#606161"/>
<path d="M6.04661 44.2459C6.04661 44.2459 6.21328 44.525 6.46745 44.9375C6.59245 45.1417 6.73828 45.3834 6.89661 45.6459C7.05911 45.9 7.26745 46.15 7.45495 46.4125C7.84245 46.9292 8.22995 47.4459 8.51745 47.8334C8.83828 48.1917 9.05495 48.4334 9.05495 48.4334L8.62578 48.8084C8.62578 48.8084 8.40495 48.5625 8.07578 48.1959C7.77995 47.8 7.38411 47.2709 6.98828 46.7417C6.79661 46.475 6.58411 46.2167 6.41745 45.9584C6.25495 45.6959 6.10911 45.4459 5.97995 45.2375C5.72161 44.8167 5.55078 44.5334 5.55078 44.5334L6.04245 44.2417L6.04661 44.2459Z" fill="#606161"/>
<path d="M4.132 40.7207C4.08617 40.7415 4.81533 42.229 4.81533 42.229L4.557 42.3499C4.557 42.3499 3.8195 40.8457 3.86533 40.829L4.12783 40.7207H4.132Z" fill="#606161"/>
<path d="M2.64167 32.9167C2.64167 32.9167 2.64167 32.9751 2.65417 33.0751C2.67083 33.1751 2.69167 33.3167 2.71667 33.4876C2.76667 33.8292 2.8375 34.2834 2.90833 34.7376C2.9875 35.1917 3.025 35.6542 3.12083 35.9876C3.20833 36.3209 3.2625 36.5459 3.2625 36.5459L2.15 36.8084C2.15 36.8084 2.09167 36.5751 2 36.2292C1.9 35.8834 1.85833 35.4001 1.77917 34.9292C1.70833 34.4542 1.63333 33.9792 1.57917 33.6251C1.55417 33.4459 1.52917 33.3001 1.5125 33.1959C1.5 33.0917 1.5 33.0334 1.5 33.0334L2.6375 32.9209L2.64167 32.9167Z" fill="#606161"/>
<path d="M6.2875 12.5121C6.2875 12.5121 6.13333 12.7205 5.85833 13.0871C5.725 13.2705 5.55 13.4913 5.37083 13.7538C5.20417 14.0288 5.01667 14.333 4.8125 14.6705C4.4125 15.3455 3.89583 16.1038 3.50417 17.008C3.29167 17.4496 3.07083 17.9038 2.85 18.3705C2.73333 18.5996 2.62917 18.8413 2.55 19.0871L2.27917 19.8246C2.1 20.3163 1.92083 20.808 1.74167 21.2913C1.58333 21.783 1.47917 22.2788 1.35 22.7538C1.22917 23.2288 1.1125 23.6871 1 24.1246C0.904167 24.5621 0.858333 24.9871 0.791667 25.3746C0.675 26.1496 0.579167 26.7996 0.5125 27.2538C0.4875 27.7121 0.475 27.9705 0.475 27.9705L0.1875 27.9496C0.1875 27.9496 0.204167 27.683 0.225 27.2246C0.295833 26.7663 0.391667 26.1121 0.508333 25.3288C0.575 24.9371 0.620833 24.508 0.716667 24.0663C0.829167 23.6246 0.95 23.1621 1.07083 22.683C1.2 22.2038 1.30833 21.7038 1.46667 21.208C1.64583 20.7205 1.825 20.2246 2.00833 19.7288L2.28333 18.983C2.36667 18.733 2.46667 18.4913 2.5875 18.2621C2.8125 17.7913 3.03333 17.333 3.25 16.8871C3.65 15.9746 4.16667 15.208 4.57083 14.5246C4.77917 14.1871 4.96667 13.8746 5.13333 13.5996C5.3125 13.333 5.4875 13.1163 5.625 12.9288C5.9 12.558 6.05833 12.3455 6.05833 12.3455L6.2875 12.5163V12.5121Z" fill="#606161"/>
<path d="M13.7732 9.34142C13.7732 9.34142 13.5357 9.52059 13.1773 9.78726C12.8398 10.0789 12.4065 10.4831 11.9648 10.8831C11.744 11.0831 11.5232 11.2831 11.319 11.4706C11.119 11.6623 10.9523 11.8664 10.8023 12.0289C10.5023 12.3581 10.3023 12.5789 10.3023 12.5789L10.0898 12.3873C10.0898 12.3873 10.2898 12.1664 10.594 11.8331C10.7482 11.6706 10.9148 11.4623 11.119 11.2706C11.3273 11.0789 11.5482 10.8789 11.7732 10.6789C12.219 10.2789 12.6565 9.86642 12.9982 9.57059C13.3607 9.29976 13.5982 9.12476 13.5982 9.12476L13.7732 9.34976V9.34142Z" fill="#606161"/>
<path d="M14.7224 4.89183C14.7224 4.89183 14.3557 5.11266 13.9891 5.33766C13.8057 5.45016 13.6224 5.56266 13.4849 5.646C13.3474 5.72933 13.2641 5.80016 13.2641 5.80016L13.1016 5.56266C13.1016 5.56266 13.1849 5.49183 13.3224 5.4085C13.4641 5.32516 13.6474 5.2085 13.8307 5.096C14.2016 4.871 14.5724 4.646 14.5724 4.646L14.7182 4.89183H14.7224Z" fill="#606161"/>
<path d="M26.9586 0.57513C26.9586 0.57513 26.8169 0.591797 26.5711 0.629297C26.3253 0.666797 25.9711 0.720964 25.5503 0.783464C25.1294 0.845964 24.6378 0.920964 24.1086 1.0043C23.5836 1.1043 23.0378 1.27096 22.4836 1.4043C21.9336 1.5543 21.3753 1.67096 20.8711 1.8418C20.3711 2.02513 19.9003 2.19596 19.5003 2.3418C19.1003 2.48763 18.7669 2.61263 18.5294 2.69596C18.2919 2.77513 18.1711 2.84596 18.1711 2.84596L18.0586 2.58346C18.0586 2.58346 18.1836 2.51263 18.4211 2.4293C18.6586 2.3418 18.9961 2.2168 19.4003 2.0668C19.8044 1.92096 20.2794 1.74596 20.7836 1.56263C21.2919 1.38346 21.8586 1.27096 22.4128 1.1168C22.9711 0.979297 23.5253 0.81263 24.0544 0.71263C24.5878 0.629297 25.0836 0.554297 25.5086 0.48763C25.9336 0.420964 26.2919 0.370964 26.5378 0.333464C26.7878 0.295964 26.9294 0.279297 26.9294 0.279297L26.9586 0.56263V0.57513Z" fill="#606161"/>
<path d="M33.9391 0.720719C33.9391 0.720719 33.7141 0.687386 33.3724 0.637386C33.0349 0.566553 32.5766 0.562386 32.1182 0.533219C31.2016 0.487386 30.2891 0.441553 30.2891 0.441553V0.154053C30.2891 0.154053 31.2182 0.199886 32.1391 0.245719C32.6016 0.274886 33.0641 0.283219 33.4057 0.349886C33.7474 0.399886 33.9766 0.433219 33.9766 0.433219L33.9391 0.716553V0.720719Z" fill="#606161"/>
<path d="M51.0596 14.3458C51.0596 14.3458 50.9346 14.1833 50.7221 13.8958C50.6138 13.7541 50.4888 13.5749 50.3346 13.3791C50.168 13.1958 49.9763 12.9874 49.7721 12.7583C49.5638 12.5291 49.343 12.2874 49.1055 12.0249C48.868 11.7624 48.6263 11.4833 48.3346 11.2374C47.7555 10.7333 47.1805 10.1458 46.5346 9.64159C45.8763 9.15825 45.2346 8.64575 44.6013 8.21242C43.9471 7.81658 43.3346 7.44159 42.8096 7.12492C42.2846 6.80825 41.8013 6.62492 41.4888 6.45825C41.168 6.30409 40.9805 6.21659 40.9805 6.21659L41.1013 5.95825C41.1013 5.95825 41.2888 6.04575 41.6138 6.20409C41.9346 6.37075 42.418 6.55825 42.9513 6.87909C43.4805 7.19992 44.1013 7.57492 44.7638 7.97909C45.4013 8.41659 46.0513 8.93325 46.718 9.42075C47.368 9.93325 47.9513 10.5249 48.5346 11.0333C48.8305 11.2833 49.0805 11.5666 49.3138 11.8291C49.5513 12.0916 49.7805 12.3416 49.9888 12.5708C50.1971 12.7999 50.3888 13.0083 50.5596 13.1958C50.718 13.3958 50.843 13.5749 50.9555 13.7166C51.1721 14.0041 51.293 14.1708 51.293 14.1708L51.0638 14.3416L51.0596 14.3458Z" fill="#606161"/>
<path d="M54.9737 21.725C54.9737 21.725 54.7279 21.05 54.4779 20.375C54.3654 20.0333 54.2112 19.7083 54.0904 19.4667C53.9737 19.225 53.8945 19.0625 53.8945 19.0625L54.1529 18.9417C54.1529 18.9417 54.232 19.1083 54.3487 19.35C54.4737 19.5958 54.6279 19.9208 54.7404 20.2667C54.9904 20.95 55.2404 21.6333 55.2404 21.6333L54.9695 21.725H54.9737Z" fill="#606161"/>
<path d="M56.1143 26.5665L55.9102 25.2248L56.1935 25.1707L56.3977 26.529L56.1143 26.5665Z" fill="#606161"/>
<path d="M59.5057 33.9416C59.5057 33.9416 59.6349 33.2666 59.6599 32.2332C59.6849 31.7207 59.7141 31.1207 59.7474 30.4749C59.7641 29.8332 59.6974 29.1457 59.6724 28.4582C59.6599 27.0791 59.3641 25.7291 59.2307 24.7082C59.1682 24.1957 59.0349 23.7832 58.9682 23.4916C58.8932 23.1999 58.8516 23.0332 58.8516 23.0332L59.1307 22.9624C59.1307 22.9624 59.1724 23.1332 59.2474 23.4249C59.3182 23.7207 59.4516 24.1332 59.5141 24.6541C59.6516 25.6832 59.9516 27.0499 59.9641 28.4374C59.9891 29.1291 60.0557 29.8249 60.0391 30.4707C60.0057 31.1207 59.9766 31.7249 59.9516 32.2457C59.9266 33.2874 59.7974 33.9707 59.7974 33.9707L59.5141 33.9374L59.5057 33.9416Z" fill="#606161"/>
<path d="M57.012 42.6873C57.012 42.6873 57.1578 42.3873 57.3703 41.9373C57.562 41.4748 57.7786 40.8456 58.012 40.2206C58.2453 39.5956 58.4786 38.9706 58.5786 38.479C58.7036 37.9956 58.787 37.6748 58.787 37.6748L59.062 37.7456C59.062 37.7456 58.9786 38.0706 58.8536 38.5623C58.7495 39.0581 58.512 39.6915 58.2786 40.3206C58.0411 40.9498 57.8245 41.5873 57.6286 42.054C57.412 42.5081 57.2661 42.8123 57.2661 42.8123L57.0078 42.6915L57.012 42.6873Z" fill="#606161"/>
<path d="M44.543 52.2874C44.543 52.2874 44.5721 52.2707 44.6221 52.2374C44.6763 52.2082 44.7513 52.1624 44.843 52.0874C45.0263 51.9541 45.2888 51.7541 45.6013 51.5207C45.9138 51.2874 46.2805 51.0124 46.6721 50.7207C47.0513 50.4124 47.4221 50.0457 47.8138 49.6999C48.618 49.0291 49.293 48.2291 49.8221 47.6499C50.368 47.0874 50.6638 46.6541 50.6638 46.6541L50.8888 46.8291C50.8888 46.8291 50.5888 47.2666 50.0388 47.8374C49.5055 48.4207 48.8221 49.2291 48.0096 49.9082C47.6138 50.2582 47.2388 50.6291 46.8555 50.9416C46.4596 51.2374 46.0888 51.5124 45.7721 51.7499C45.4555 51.9874 45.193 52.1874 45.0055 52.3249C44.9138 52.3999 44.8346 52.4457 44.7846 52.4749C44.7305 52.5082 44.7055 52.5249 44.7055 52.5249L44.5471 52.2874H44.543Z" fill="#606161"/>
<path d="M32.625 56.5498C32.625 56.5498 32.7792 56.529 33.0458 56.4873C33.3125 56.4498 33.6958 56.3873 34.1583 56.3165C34.3875 56.279 34.6375 56.2457 34.9 56.204C35.0292 56.1832 35.1667 56.1623 35.3042 56.1415C35.4375 56.1082 35.5792 56.0707 35.7167 56.0332C36.2792 55.8873 36.8792 55.7332 37.4792 55.579C37.7833 55.5165 38.0708 55.3998 38.3583 55.2957C38.6458 55.1915 38.925 55.0873 39.2 54.9873C39.7417 54.7832 40.2625 54.6248 40.675 54.3998C41.5125 53.9957 42.0708 53.729 42.0708 53.729L42.2 53.9832C42.2 53.9832 41.6375 54.254 40.7917 54.6623C40.3792 54.8873 39.85 55.0498 39.3 55.2582C39.025 55.3582 38.7375 55.4623 38.45 55.5707C38.1583 55.6748 37.8708 55.7957 37.5625 55.8582C36.9583 56.0123 36.35 56.1707 35.7792 56.3165C35.6375 56.354 35.4958 56.3915 35.3625 56.4248C35.2208 56.4457 35.0875 56.4665 34.9542 56.4873C34.6875 56.5248 34.4375 56.5665 34.2042 56.5998C33.7375 56.6707 33.3542 56.729 33.0792 56.7707C32.8083 56.8123 32.6542 56.8332 32.6542 56.8332L32.625 56.5498Z" fill="#606161"/>
<path d="M26.9667 56.5039C26.9667 56.5039 27.1042 56.5331 27.3167 56.5497C27.525 56.5581 27.8083 56.5747 28.0875 56.5872C28.65 56.6164 29.2083 56.6456 29.2083 56.6456L29.2 56.9331C29.2 56.9331 28.6333 56.9039 28.0667 56.8747C27.7833 56.8581 27.5 56.8456 27.2875 56.8372C27.075 56.8206 26.9375 56.7872 26.9375 56.7872L26.9708 56.5039H26.9667Z" fill="#606161"/>
<path d="M19.9788 58.2998C19.9455 58.404 24.6497 59.6998 24.683 59.554L24.633 59.8373C24.6038 59.9831 19.8497 58.679 19.883 58.5748L19.9788 58.304V58.2998Z" fill="#606161"/>
<path d="M13.7206 55.2207C13.7206 55.2207 14.5747 55.7415 15.4289 56.2582C15.8456 56.5374 16.3206 56.7124 16.6497 56.8874C16.9872 57.0499 17.2122 57.1624 17.2122 57.1624L17.0914 57.4207C17.0914 57.4207 16.8622 57.3124 16.5247 57.1457C16.1914 56.9665 15.7122 56.7915 15.2914 56.5124C14.4289 55.9874 13.5664 55.4665 13.5664 55.4665L13.7247 55.2249L13.7206 55.2207Z" fill="#606161"/>
<path d="M0.9625 37.0833C0.9625 37.0833 1.1625 37.8666 1.46667 39.0374C1.6625 39.6124 1.9125 40.2749 2.17083 40.9833C2.3125 41.3333 2.41667 41.7166 2.59583 42.0708C2.76667 42.4291 2.94167 42.7958 3.11667 43.1583C3.29167 43.5208 3.46667 43.8874 3.64167 44.2416C3.8125 44.6041 4.04167 44.9249 4.22917 45.2541C4.625 45.8999 4.97917 46.5124 5.31667 47.0124C6.04167 47.9833 6.525 48.6291 6.525 48.6291L6.3 48.8083C6.3 48.8083 5.8125 48.1541 5.07917 47.1749C4.7375 46.6666 4.38333 46.0499 3.98333 45.3958C3.79583 45.0624 3.5625 44.7416 3.39167 44.3749C3.21667 44.0124 3.04167 43.6458 2.8625 43.2791C2.6875 42.9124 2.50833 42.5458 2.3375 42.1833C2.15417 41.8249 2.05 41.4416 1.90833 41.0874C1.64583 40.3666 1.39583 39.6999 1.19583 39.1208C0.891667 37.9374 0.6875 37.1458 0.6875 37.1458L0.966667 37.0791L0.9625 37.0833Z" fill="#606161"/>
<path d="M5.38411 38.5374C5.38411 38.5374 5.47995 38.7999 5.62578 39.1915C5.78411 39.579 5.92995 40.1207 6.17995 40.6207C6.66328 41.6249 7.15078 42.6332 7.15078 42.6332L6.90078 42.7707C6.90078 42.7707 6.40911 41.754 5.91745 40.7374C5.66328 40.2332 5.51328 39.6832 5.35495 39.2915C5.20911 38.8957 5.11328 38.629 5.11328 38.629L5.38411 38.5374Z" fill="#606161"/>
<path d="M37.1359 29.9998C33.6609 29.9998 30.8359 32.8248 30.8359 36.2998C30.8359 39.7748 33.6609 42.5998 37.1359 42.5998C40.6109 42.5998 43.4359 39.7748 43.4359 36.2998C43.4359 32.8248 40.6109 29.9998 37.1359 29.9998ZM40.8443 35.2831L36.9068 39.2206C36.7526 39.3748 36.5526 39.4498 36.3484 39.4498C36.1443 39.4498 35.9443 39.3748 35.7901 39.2206L33.4276 36.8581C33.1193 36.5498 33.1193 36.0539 33.4276 35.7456C33.7359 35.4373 34.2318 35.4373 34.5401 35.7456L36.3443 37.5539L39.7276 34.1706C40.0359 33.8623 40.5318 33.8623 40.8401 34.1706C41.1484 34.4789 41.1484 34.9748 40.8401 35.2831H40.8443Z" fill="#ED1C24"/>
<path d="M37.9258 17.3958H18.9133C17.6091 17.3958 16.5508 18.4541 16.5508 19.7583V20.5458H40.2883V19.7583C40.2883 18.4541 39.2299 17.3958 37.9258 17.3958Z" fill="#ED1C24"/>
<path d="M40.2883 22.1208H16.5508V23.6958H40.2883V22.1208Z" fill="#ED1C24"/>
<path d="M16.5508 25.2749V33.9416C16.5508 35.2457 17.6091 36.3041 18.9133 36.3041H29.2591C29.2591 31.9624 32.7924 28.4249 37.1383 28.4249C38.2591 28.4249 39.3216 28.6666 40.2883 29.0916V25.2749H16.5508ZM25.3216 33.1541H20.4883C20.0549 33.1541 19.7008 32.7999 19.7008 32.3666C19.7008 31.9332 20.0549 31.5791 20.4883 31.5791H25.3216C25.7549 31.5791 26.1091 31.9332 26.1091 32.3666C26.1091 32.7999 25.7549 33.1541 25.3216 33.1541ZM25.3216 30.0041H20.4883C20.0549 30.0041 19.7008 29.6499 19.7008 29.2166C19.7008 28.7832 20.0549 28.4291 20.4883 28.4291H25.3216C25.7549 28.4291 26.1091 28.7832 26.1091 29.2166C26.1091 29.6499 25.7549 30.0041 25.3216 30.0041Z" fill="#ED1C24"/>
</g>
<defs>
<clipPath id="clip0_4776_3295">
<rect width="60" height="60" fill="white"/>
</clipPath>
</defs>
</svg>
