<svg width="60" height="60" viewBox="0 0 60 60" fill="none" xmlns="http://www.w3.org/2000/svg">
<g clip-path="url(#clip0_4776_3145)">
<path d="M2.06875 30.2333C2.06875 30.2333 2.10208 30.9166 2.16875 32.1999C2.19375 32.5208 2.18542 32.8791 2.23958 33.2666C2.29792 33.6583 2.36458 34.0833 2.43542 34.5416C2.51042 34.9999 2.56458 35.4999 2.67708 36.0208C2.81042 36.5374 2.95208 37.0874 3.10208 37.6666C3.75208 39.9583 4.76875 42.7291 6.63542 45.5041C8.46875 48.2791 11.0437 51.1249 14.4604 53.4166C17.8771 55.6833 22.1146 57.3666 26.7896 57.9249C27.3688 58.0166 27.9646 57.9999 28.5604 58.0458L29.4562 58.0916C29.7562 58.1124 30.0562 58.1208 30.3563 58.0957C31.5604 58.0208 32.7854 58.0291 34.0021 57.7874C36.4604 57.4916 38.8813 56.7041 41.2396 55.7124C41.8188 55.4333 42.3979 55.1541 42.9813 54.8749C43.5604 54.5874 44.0979 54.2166 44.6562 53.8874L45.4938 53.3791C45.7604 53.1916 46.0187 52.9874 46.2812 52.7958C46.8021 52.3958 47.3479 52.0249 47.8479 51.5999C49.8687 49.8958 51.6396 47.8708 53.1688 45.6541C54.6562 43.4041 55.7896 40.9166 56.6229 38.3208C57.4062 35.7041 57.7562 32.9749 57.8229 30.2374C57.7604 27.5041 57.4062 24.7749 56.6229 22.1583C55.7896 19.5624 54.6521 17.0791 53.1688 14.8249C51.6396 12.6083 49.8687 10.5833 47.8479 8.87909C47.3479 8.44992 46.7979 8.07909 46.2812 7.67909C46.0187 7.48326 45.7604 7.28326 45.4938 7.09576L44.6562 6.58742C44.0938 6.25826 43.5604 5.88742 42.9813 5.59992C42.3979 5.32076 41.8188 5.04159 41.2396 4.76242C38.8813 3.77076 36.4604 2.98326 34.0021 2.68742C32.7896 2.44576 31.5604 2.45409 30.3563 2.37909C30.0562 2.35409 29.7521 2.36242 29.4562 2.37909L28.5604 2.42492C27.9646 2.47076 27.3688 2.45409 26.7896 2.54576C22.1146 3.10409 17.8771 4.78742 14.4604 7.05826C11.0437 9.34576 8.46875 12.1916 6.63542 14.9666C4.76875 17.7416 3.75208 20.5124 3.10208 22.8041C2.95208 23.3833 2.81042 23.9333 2.67708 24.4499C2.56458 24.9708 2.51042 25.4666 2.43542 25.9249C2.36458 26.3833 2.30208 26.8083 2.23958 27.1999C2.18125 27.5916 2.18958 27.9499 2.16875 28.2708C2.10208 29.5499 2.06875 30.2333 2.06875 30.2333H1.78125C1.78125 30.2333 1.81458 29.5416 1.88125 28.2499C1.90625 27.9249 1.89792 27.5624 1.95625 27.1708C2.01458 26.7749 2.08125 26.3458 2.15208 25.8833C2.23125 25.4208 2.28125 24.9166 2.39792 24.3916C2.53125 23.8708 2.67292 23.3166 2.82292 22.7291C3.48125 20.4124 4.51042 17.6166 6.39375 14.8124C8.24375 12.0083 10.8479 9.13326 14.3021 6.82076C17.7521 4.52909 22.0354 2.82909 26.7604 2.26659C27.3479 2.17076 27.9479 2.18742 28.5479 2.14159C28.8479 2.12492 29.1521 2.11242 29.4521 2.09576C29.7563 2.07492 30.0563 2.06659 30.3604 2.09159C31.5771 2.16659 32.8146 2.15826 34.0438 2.39992C36.5229 2.69992 38.9729 3.49576 41.3563 4.49576C41.9396 4.77492 42.5271 5.05826 43.1146 5.34576C43.6979 5.63742 44.2396 6.01242 44.8063 6.34159L45.6521 6.85409C45.9229 7.04576 46.1854 7.24992 46.4479 7.44576C46.9729 7.84992 47.5229 8.22492 48.0312 8.65826C50.0729 10.3833 51.8646 12.4249 53.4062 14.6624C54.9062 16.9374 56.0562 19.4499 56.8979 22.0708C57.6896 24.7124 58.0438 27.4749 58.1104 30.2374C58.0438 32.9999 57.6896 35.7583 56.8979 38.4041C56.0562 41.0208 54.9062 43.5374 53.4062 45.8124C51.8646 48.0499 50.0729 50.0958 48.0312 51.8166C47.5229 52.2499 46.9729 52.6208 46.4479 53.0291C46.1813 53.2249 45.9188 53.4291 45.6521 53.6208L44.8063 54.1333C44.2396 54.4624 43.6979 54.8374 43.1146 55.1291C42.5271 55.4124 41.9396 55.6958 41.3563 55.9791C38.9771 56.9833 36.5229 57.7791 34.0438 58.0749C32.8146 58.3208 31.5771 58.3083 30.3604 58.3874C30.0563 58.4124 29.7521 58.4041 29.4521 58.3833C29.1479 58.3666 28.8479 58.3541 28.5479 58.3374C27.9479 58.2916 27.3479 58.3083 26.7604 58.2166C22.0354 57.6541 17.7521 55.9499 14.3021 53.6624C10.8521 51.3499 8.24792 48.4749 6.39375 45.6708C4.51042 42.8666 3.48125 40.0666 2.82292 37.7499C2.67292 37.1624 2.53125 36.6083 2.39792 36.0874C2.28125 35.5624 2.23125 35.0583 2.15208 34.5958C2.08125 34.1291 2.01458 33.6999 1.95625 33.3083C1.89792 32.9124 1.90625 32.5499 1.88125 32.2291C1.81458 30.9333 1.78125 30.2416 1.78125 30.2416H2.06875V30.2333Z" fill="#606161"/>
<path d="M4.7862 18.6208C4.7862 18.6208 4.63203 18.9416 4.40286 19.4208C4.21953 19.9166 3.9737 20.5833 3.73203 21.2458C3.4612 21.9 3.30703 22.5958 3.1737 23.1083C3.04036 23.6208 2.95286 23.9666 2.95286 23.9666L2.39453 23.8375C2.39453 23.8375 2.4862 23.4875 2.61953 22.9625C2.75286 22.4375 2.91536 21.7291 3.19036 21.0625C3.44036 20.3833 3.6862 19.7083 3.8737 19.1958C4.10703 18.7083 4.26536 18.3833 4.26536 18.3833L4.7862 18.625V18.6208Z" fill="#606161"/>
<path d="M19.1089 5.01631C19.1089 5.01631 18.3297 5.39131 17.1547 5.95798C16.0214 6.59131 14.5172 7.46631 13.163 8.54964C12.4422 9.04131 11.838 9.66631 11.2255 10.1996C10.9339 10.4788 10.6172 10.7205 10.3755 11.0038C10.1255 11.2788 9.88802 11.5413 9.67135 11.783C9.24219 12.2705 8.85052 12.6496 8.62969 12.958C8.40469 13.2621 8.27135 13.4371 8.27135 13.4371L7.36719 12.733C7.36719 12.733 7.50052 12.5538 7.73802 12.2371C7.96719 11.9163 8.37135 11.5205 8.82135 11.0121C9.05052 10.7621 9.29635 10.4913 9.55885 10.2038C9.81302 9.90797 10.138 9.65797 10.4464 9.36631C11.0797 8.80381 11.7172 8.15798 12.463 7.64548C13.8755 6.51631 15.4422 5.60381 16.6214 4.94547C17.8422 4.35798 18.6547 3.96631 18.6547 3.96631L19.1089 5.01631Z" fill="#606161"/>
<path d="M31.6552 2.87089C31.6552 2.87089 31.3969 2.85839 31.0094 2.83756C30.8177 2.82923 30.5885 2.81673 30.3469 2.80423C30.1052 2.78339 29.8469 2.77923 29.5885 2.80423C28.5552 2.85423 27.5219 2.90839 27.5219 2.90839L27.4219 1.76673C27.4219 1.76673 28.4969 1.71256 29.5719 1.65839C29.8385 1.63756 30.1094 1.64173 30.3594 1.65839C30.6135 1.67089 30.8469 1.68339 31.0469 1.69173C31.451 1.71256 31.7177 1.72506 31.7177 1.72506L31.6469 2.86673L31.6552 2.87089Z" fill="#606161"/>
<path d="M47.3102 8.61673C47.3102 8.61673 46.6268 8.10423 45.6018 7.33757C44.5227 6.65423 43.081 5.72923 41.5143 5.0459C40.7602 4.64173 39.9435 4.39173 39.1935 4.1084C38.8185 3.97506 38.456 3.82923 38.1102 3.7209C37.756 3.62923 37.4185 3.5459 37.1102 3.46257C36.4893 3.30423 35.9768 3.1709 35.6143 3.07923C35.2477 3.0084 35.0352 2.9834 35.0352 2.9834L35.1393 2.4209C35.1393 2.4209 35.356 2.4459 35.731 2.5209C36.1018 2.61673 36.6268 2.75007 37.2602 2.91257C37.5768 2.99173 37.9185 3.0834 38.281 3.17507C38.6393 3.2834 39.006 3.4334 39.3893 3.5709C40.1518 3.8584 40.9893 4.11673 41.756 4.52506C43.3518 5.22506 44.8268 6.16256 45.9268 6.86673C46.9727 7.65006 47.6685 8.1709 47.6685 8.1709L47.3102 8.61673Z" fill="#606161"/>
<path d="M54.8833 18.1456C54.8833 18.1456 54.6625 17.6872 54.4458 17.2331C54.3458 16.9997 54.2 16.7914 54.1042 16.6247C54.0042 16.4622 53.9375 16.3539 53.9375 16.3539L54.4333 16.0664C54.4333 16.0664 54.5 16.1747 54.6 16.3414C54.6958 16.5081 54.8458 16.7247 54.9458 16.9622C55.1708 17.4289 55.3958 17.8914 55.3958 17.8914L54.8833 18.1414V18.1456Z" fill="#606161"/>
<path d="M57.6409 29.2917C57.6409 29.2917 57.6159 28.7833 57.5784 28.0208C57.5701 27.8292 57.5575 27.625 57.5492 27.4042C57.5159 27.1875 57.4825 26.9583 57.445 26.725C57.3742 26.2542 57.2992 25.75 57.2201 25.2458C57.1617 24.7375 57.0284 24.2458 56.9076 23.7833C56.7867 23.3208 56.6784 22.8917 56.5826 22.5208C56.5367 22.3375 56.4909 22.1667 56.4534 22.0167C56.4076 21.8708 56.3534 21.7417 56.32 21.6375C56.245 21.4292 56.1992 21.3083 56.1992 21.3083L56.7409 21.125C56.7409 21.125 56.7867 21.2458 56.8617 21.4625C56.8992 21.5708 56.9534 21.6958 56.9992 21.85C57.0367 22.0042 57.0825 22.175 57.1325 22.3625C57.2284 22.7417 57.3409 23.1792 57.4659 23.6542C57.5909 24.125 57.7242 24.6292 57.7825 25.1458C57.8617 25.6583 57.9409 26.1708 58.0117 26.6542C58.0492 26.8958 58.0825 27.1292 58.1159 27.35C58.1284 27.575 58.1367 27.7833 58.1492 27.9792C58.1867 28.7583 58.2159 29.275 58.2159 29.275L57.6451 29.2958L57.6409 29.2917Z" fill="#606161"/>
<path d="M57.5432 34.0542C57.5432 34.0542 57.6182 33.5709 57.6891 33.0876C57.7141 32.6001 57.7391 32.1125 57.7391 32.1125L58.0224 32.1334C58.0224 32.1334 57.9974 32.625 57.9724 33.1209C57.8974 33.6084 57.8224 34.0959 57.8224 34.0959L57.5391 34.0584L57.5432 34.0542Z" fill="#606161"/>
<path d="M52.5198 46.3165C52.5198 46.3165 52.6031 46.2082 52.7448 46.0165C52.899 45.829 53.0781 45.5373 53.2906 45.1832C53.7031 44.4665 54.3406 43.5623 54.7781 42.5498C55.0156 42.054 55.2573 41.5582 55.4781 41.0957C55.6698 40.6165 55.824 40.1582 55.9698 39.7707C56.2531 38.9957 56.4406 38.479 56.4406 38.479L56.9865 38.6457C56.9865 38.6457 56.7948 39.1748 56.5031 39.9623C56.3573 40.3582 56.1948 40.8207 56.0031 41.3123C55.774 41.7873 55.5323 42.2957 55.2865 42.7998C54.8406 43.8373 54.1906 44.7582 53.7698 45.4873C53.5531 45.8498 53.3698 46.1498 53.2156 46.3415C53.0698 46.5373 52.9823 46.6498 52.9823 46.6498L52.5156 46.3165H52.5198Z" fill="#606161"/>
<path d="M36.7188 56.8084C36.7188 56.8084 36.8854 56.7667 37.1771 56.6917C37.4646 56.6042 37.8938 56.5375 38.3771 56.3542C39.3396 55.9834 40.6604 55.5792 41.8771 54.9292C43.1438 54.3875 44.2771 53.5917 45.1688 53.075C45.5979 52.7875 45.9313 52.5167 46.1771 52.3375C46.4188 52.1584 46.5562 52.0542 46.5562 52.0542L47.2479 52.9625C47.2479 52.9625 47.1062 53.0709 46.8521 53.2584C46.5979 53.4375 46.2479 53.725 45.8021 54.0209C44.8729 54.5584 43.6937 55.3875 42.3729 55.9542C41.1062 56.6292 39.7312 57.0542 38.7271 57.4375C38.2229 57.625 37.7771 57.7 37.4771 57.7875C37.1729 57.8667 36.9979 57.9084 36.9979 57.9084L36.7188 56.8V56.8084Z" fill="#606161"/>
<path d="M26.0094 57.6582C26.0094 57.6582 26.4552 57.7249 27.126 57.829C27.8052 57.8624 28.7052 57.9082 29.6094 57.954C30.0635 57.9999 30.5135 57.929 30.9344 57.9207C31.3594 57.8999 31.7552 57.879 32.0927 57.8624C32.7719 57.8499 33.2177 57.7624 33.2177 57.7624L33.2844 58.329C33.2844 58.329 32.8302 58.4165 32.1385 58.4332C31.7927 58.4499 31.3885 58.4707 30.9552 58.4915C30.5219 58.4957 30.0635 58.5707 29.601 58.5249C28.6802 58.479 27.7594 58.4332 27.0635 58.3957C26.3802 58.2915 25.9219 58.2249 25.9219 58.2249L26.001 57.6582H26.0094Z" fill="#606161"/>
<path d="M15.9352 53.8042C15.9352 53.8042 16.2143 53.9709 16.631 54.2251C17.0435 54.4834 17.6477 54.7292 18.2268 55.025C18.8102 55.3084 19.3935 55.5959 19.8602 55.7417C20.3185 55.9084 20.6227 56.0209 20.6227 56.0209L20.2352 57.0959C20.2352 57.0959 19.9185 56.9792 19.4393 56.8042C18.9518 56.6501 18.3477 56.3542 17.7352 56.0542C17.131 55.7501 16.5018 55.4917 16.0727 55.2209C15.6393 54.9584 15.3477 54.7834 15.3477 54.7834L15.9352 53.8V53.8042Z" fill="#606161"/>
<path d="M10.6732 50.1499L11.7773 51.1499L11.4023 51.5832L10.2773 50.5582L10.6732 50.1499Z" fill="#606161"/>
<path d="M6.04661 44.2459C6.04661 44.2459 6.21328 44.525 6.46745 44.9375C6.59245 45.1417 6.73828 45.3834 6.89661 45.6459C7.05911 45.9 7.26745 46.15 7.45495 46.4125C7.84245 46.9292 8.22995 47.4459 8.51745 47.8334C8.83828 48.1917 9.05495 48.4334 9.05495 48.4334L8.62578 48.8084C8.62578 48.8084 8.40495 48.5625 8.07578 48.1959C7.77995 47.8 7.38411 47.2709 6.98828 46.7417C6.79661 46.475 6.58411 46.2167 6.41745 45.9584C6.25495 45.6959 6.10911 45.4459 5.97995 45.2375C5.72161 44.8167 5.55078 44.5334 5.55078 44.5334L6.04245 44.2417L6.04661 44.2459Z" fill="#606161"/>
<path d="M4.132 40.7207C4.08617 40.7415 4.81533 42.229 4.81533 42.229L4.557 42.3499C4.557 42.3499 3.8195 40.8457 3.86533 40.829L4.12783 40.7207H4.132Z" fill="#606161"/>
<path d="M2.63776 32.9165C2.63776 32.9165 2.63776 32.9748 2.65026 33.0748C2.66693 33.1748 2.68776 33.3165 2.71276 33.4873C2.76276 33.829 2.83359 34.2832 2.90443 34.7373C2.98359 35.1915 3.02109 35.654 3.11693 35.9873C3.20443 36.3207 3.25859 36.5457 3.25859 36.5457L2.14609 36.8082C2.14609 36.8082 2.08776 36.5748 1.99609 36.229C1.89609 35.8832 1.85443 35.3998 1.77526 34.929C1.70443 34.454 1.62943 33.979 1.57526 33.6248C1.55026 33.4457 1.52526 33.2998 1.50859 33.1957C1.49609 33.0915 1.49609 33.0332 1.49609 33.0332L2.63359 32.9207L2.63776 32.9165Z" fill="#606161"/>
<path d="M6.2875 12.5124C6.2875 12.5124 6.13333 12.7207 5.85833 13.0874C5.725 13.2707 5.55 13.4915 5.37083 13.754C5.20417 14.029 5.01667 14.3332 4.8125 14.6707C4.4125 15.3457 3.89583 16.104 3.50417 17.0082C3.29167 17.4499 3.07083 17.904 2.85 18.3707C2.73333 18.5999 2.62917 18.8415 2.55 19.0874L2.27917 19.8249C2.1 20.3165 1.92083 20.8082 1.74167 21.2915C1.58333 21.7832 1.47917 22.279 1.35 22.754C1.22917 23.229 1.1125 23.6874 1 24.1249C0.904167 24.5624 0.858333 24.9874 0.791667 25.3749C0.675 26.1499 0.579167 26.7999 0.5125 27.254C0.4875 27.7124 0.475 27.9707 0.475 27.9707L0.1875 27.9499C0.1875 27.9499 0.204167 27.6832 0.225 27.2249C0.295833 26.7665 0.391667 26.1124 0.508333 25.329C0.575 24.9374 0.620833 24.5082 0.716667 24.0665C0.829167 23.6249 0.95 23.1624 1.07083 22.6832C1.2 22.204 1.30833 21.704 1.46667 21.2082C1.64583 20.7207 1.825 20.2249 2.00833 19.729L2.28333 18.9832C2.36667 18.7332 2.46667 18.4915 2.5875 18.2624C2.8125 17.7915 3.03333 17.3332 3.25 16.8874C3.65 15.9749 4.16667 15.2082 4.57083 14.5249C4.77917 14.1874 4.96667 13.8749 5.13333 13.5999C5.3125 13.3332 5.4875 13.1165 5.625 12.929C5.9 12.5582 6.05833 12.3457 6.05833 12.3457L6.2875 12.5165V12.5124Z" fill="#606161"/>
<path d="M13.7732 9.34142C13.7732 9.34142 13.5357 9.52059 13.1773 9.78726C12.8398 10.0789 12.4065 10.4831 11.9648 10.8831C11.744 11.0831 11.5232 11.2831 11.319 11.4706C11.119 11.6623 10.9523 11.8664 10.8023 12.0289C10.5023 12.3581 10.3023 12.5789 10.3023 12.5789L10.0898 12.3873C10.0898 12.3873 10.2898 12.1664 10.594 11.8331C10.7482 11.6706 10.9148 11.4623 11.119 11.2706C11.3273 11.0789 11.5482 10.8789 11.7732 10.6789C12.219 10.2789 12.6565 9.86642 12.9982 9.57059C13.3607 9.29976 13.5982 9.12476 13.5982 9.12476L13.7732 9.34976V9.34142Z" fill="#606161"/>
<path d="M14.7224 4.89159C14.7224 4.89159 14.3557 5.11242 13.9891 5.33742C13.8057 5.44992 13.6224 5.56242 13.4849 5.64575C13.3474 5.72909 13.2641 5.79992 13.2641 5.79992L13.1016 5.56242C13.1016 5.56242 13.1849 5.49159 13.3224 5.40825C13.4641 5.32492 13.6474 5.20825 13.8307 5.09575C14.2016 4.87075 14.5724 4.64575 14.5724 4.64575L14.7182 4.89159H14.7224Z" fill="#606161"/>
<path d="M26.9586 0.574886C26.9586 0.574886 26.8169 0.591553 26.5711 0.629053C26.3253 0.666553 25.9711 0.720719 25.5503 0.783219C25.1294 0.845719 24.6378 0.920719 24.1086 1.00405C23.5836 1.10405 23.0378 1.27072 22.4836 1.40405C21.9336 1.55405 21.3753 1.67072 20.8711 1.84155C20.3711 2.02489 19.9003 2.19572 19.5003 2.34155C19.1003 2.48739 18.7669 2.61239 18.5294 2.69572C18.2919 2.77489 18.1711 2.84572 18.1711 2.84572L18.0586 2.58322C18.0586 2.58322 18.1836 2.51239 18.4211 2.42905C18.6586 2.34155 18.9961 2.21655 19.4003 2.06655C19.8044 1.92072 20.2794 1.74572 20.7836 1.56239C21.2919 1.38322 21.8586 1.27072 22.4128 1.11655C22.9711 0.979053 23.5253 0.812386 24.0544 0.712386C24.5878 0.629053 25.0836 0.554053 25.5086 0.487386C25.9336 0.420719 26.2919 0.370719 26.5378 0.333219C26.7878 0.295719 26.9294 0.279053 26.9294 0.279053L26.9586 0.562386V0.574886Z" fill="#606161"/>
<path d="M33.943 0.720719C33.943 0.720719 33.718 0.687386 33.3763 0.637386C33.0388 0.566553 32.5805 0.562386 32.1221 0.533219C31.2055 0.487386 30.293 0.441553 30.293 0.441553V0.154053C30.293 0.154053 31.2221 0.199886 32.143 0.245719C32.6055 0.274886 33.068 0.283219 33.4096 0.349886C33.7513 0.399886 33.9805 0.433219 33.9805 0.433219L33.943 0.716553V0.720719Z" fill="#606161"/>
<path d="M51.0596 14.3458C51.0596 14.3458 50.9346 14.1833 50.7221 13.8958C50.6138 13.7541 50.4888 13.5749 50.3346 13.3791C50.168 13.1958 49.9763 12.9874 49.7721 12.7583C49.5638 12.5291 49.343 12.2874 49.1055 12.0249C48.868 11.7624 48.6263 11.4833 48.3346 11.2374C47.7555 10.7333 47.1805 10.1458 46.5346 9.64159C45.8763 9.15825 45.2346 8.64575 44.6013 8.21242C43.9471 7.81658 43.3346 7.44159 42.8096 7.12492C42.2846 6.80825 41.8013 6.62492 41.4888 6.45825C41.168 6.30409 40.9805 6.21659 40.9805 6.21659L41.1013 5.95825C41.1013 5.95825 41.2888 6.04575 41.6138 6.20409C41.9346 6.37075 42.418 6.55825 42.9513 6.87909C43.4805 7.19992 44.1013 7.57492 44.7638 7.97909C45.4013 8.41659 46.0513 8.93325 46.718 9.42075C47.368 9.93325 47.9513 10.5249 48.5346 11.0333C48.8305 11.2833 49.0805 11.5666 49.3138 11.8291C49.5513 12.0916 49.7805 12.3416 49.9888 12.5708C50.1971 12.7999 50.3888 13.0083 50.5596 13.1958C50.718 13.3958 50.843 13.5749 50.9555 13.7166C51.1721 14.0041 51.293 14.1708 51.293 14.1708L51.0638 14.3416L51.0596 14.3458Z" fill="#606161"/>
<path d="M54.9737 21.725C54.9737 21.725 54.7279 21.05 54.4779 20.375C54.3654 20.0333 54.2112 19.7083 54.0904 19.4667C53.9737 19.225 53.8945 19.0625 53.8945 19.0625L54.1529 18.9417C54.1529 18.9417 54.232 19.1083 54.3487 19.35C54.4737 19.5958 54.6279 19.9208 54.7404 20.2667C54.9904 20.95 55.2404 21.6333 55.2404 21.6333L54.9695 21.725H54.9737Z" fill="#606161"/>
<path d="M56.1143 26.5665L55.9102 25.2248L56.1935 25.1707L56.3977 26.529L56.1143 26.5665Z" fill="#606161"/>
<path d="M59.5057 33.9416C59.5057 33.9416 59.6349 33.2666 59.6599 32.2332C59.6849 31.7207 59.7141 31.1207 59.7474 30.4749C59.7641 29.8332 59.6974 29.1457 59.6724 28.4582C59.6599 27.0791 59.3641 25.7291 59.2307 24.7082C59.1682 24.1957 59.0349 23.7832 58.9682 23.4916C58.8932 23.1999 58.8516 23.0332 58.8516 23.0332L59.1307 22.9624C59.1307 22.9624 59.1724 23.1332 59.2474 23.4249C59.3182 23.7207 59.4516 24.1332 59.5141 24.6541C59.6516 25.6832 59.9516 27.0499 59.9641 28.4374C59.9891 29.1291 60.0557 29.8249 60.0391 30.4707C60.0057 31.1207 59.9766 31.7249 59.9516 32.2457C59.9266 33.2874 59.7974 33.9707 59.7974 33.9707L59.5141 33.9374L59.5057 33.9416Z" fill="#606161"/>
<path d="M57.012 42.6873C57.012 42.6873 57.1578 42.3873 57.3703 41.9373C57.562 41.4748 57.7786 40.8456 58.012 40.2206C58.2453 39.5956 58.4786 38.9706 58.5786 38.479C58.7036 37.9956 58.787 37.6748 58.787 37.6748L59.062 37.7456C59.062 37.7456 58.9786 38.0706 58.8536 38.5623C58.7495 39.0581 58.512 39.6915 58.2786 40.3206C58.0411 40.9498 57.8245 41.5873 57.6286 42.054C57.412 42.5081 57.2661 42.8123 57.2661 42.8123L57.0078 42.6915L57.012 42.6873Z" fill="#606161"/>
<path d="M44.543 52.2874C44.543 52.2874 44.5721 52.2707 44.6221 52.2374C44.6763 52.2082 44.7513 52.1624 44.843 52.0874C45.0263 51.9541 45.2888 51.7541 45.6013 51.5207C45.9138 51.2874 46.2805 51.0124 46.6721 50.7207C47.0513 50.4124 47.4221 50.0457 47.8138 49.6999C48.618 49.0291 49.293 48.2291 49.8221 47.6499C50.368 47.0874 50.6638 46.6541 50.6638 46.6541L50.8888 46.8291C50.8888 46.8291 50.5888 47.2666 50.0388 47.8374C49.5055 48.4207 48.8221 49.2291 48.0096 49.9082C47.6138 50.2582 47.2388 50.6291 46.8555 50.9416C46.4596 51.2374 46.0888 51.5124 45.7721 51.7499C45.4555 51.9874 45.193 52.1874 45.0055 52.3249C44.9138 52.3999 44.8346 52.4457 44.7846 52.4749C44.7305 52.5082 44.7055 52.5249 44.7055 52.5249L44.5471 52.2874H44.543Z" fill="#606161"/>
<path d="M32.625 56.5498C32.625 56.5498 32.7792 56.529 33.0458 56.4873C33.3125 56.4498 33.6958 56.3873 34.1583 56.3165C34.3875 56.279 34.6375 56.2457 34.9 56.204C35.0292 56.1832 35.1667 56.1623 35.3042 56.1415C35.4375 56.1082 35.5792 56.0707 35.7167 56.0332C36.2792 55.8873 36.8792 55.7332 37.4792 55.579C37.7833 55.5165 38.0708 55.3998 38.3583 55.2957C38.6458 55.1915 38.925 55.0873 39.2 54.9873C39.7417 54.7832 40.2625 54.6248 40.675 54.3998C41.5125 53.9957 42.0708 53.729 42.0708 53.729L42.2 53.9832C42.2 53.9832 41.6375 54.254 40.7917 54.6623C40.3792 54.8873 39.85 55.0498 39.3 55.2582C39.025 55.3582 38.7375 55.4623 38.45 55.5707C38.1583 55.6748 37.8708 55.7957 37.5625 55.8582C36.9583 56.0123 36.35 56.1707 35.7792 56.3165C35.6375 56.354 35.4958 56.3915 35.3625 56.4248C35.2208 56.4457 35.0875 56.4665 34.9542 56.4873C34.6875 56.5248 34.4375 56.5665 34.2042 56.5998C33.7375 56.6707 33.3542 56.729 33.0792 56.7707C32.8083 56.8123 32.6542 56.8332 32.6542 56.8332L32.625 56.5498Z" fill="#606161"/>
<path d="M26.9667 56.5039C26.9667 56.5039 27.1042 56.5331 27.3167 56.5497C27.525 56.5581 27.8083 56.5747 28.0875 56.5872C28.65 56.6164 29.2083 56.6456 29.2083 56.6456L29.2 56.9331C29.2 56.9331 28.6333 56.9039 28.0667 56.8747C27.7833 56.8581 27.5 56.8456 27.2875 56.8372C27.075 56.8206 26.9375 56.7872 26.9375 56.7872L26.9708 56.5039H26.9667Z" fill="#606161"/>
<path d="M19.9788 58.2998C19.9455 58.404 24.6497 59.6998 24.683 59.554L24.633 59.8373C24.6038 59.9831 19.8497 58.679 19.883 58.5748L19.9788 58.304V58.2998Z" fill="#606161"/>
<path d="M13.7206 55.2207C13.7206 55.2207 14.5747 55.7415 15.4289 56.2582C15.8456 56.5374 16.3206 56.7124 16.6497 56.8874C16.9872 57.0499 17.2122 57.1624 17.2122 57.1624L17.0914 57.4207C17.0914 57.4207 16.8622 57.3124 16.5247 57.1457C16.1914 56.9665 15.7122 56.7915 15.2914 56.5124C14.4289 55.9874 13.5664 55.4665 13.5664 55.4665L13.7247 55.2249L13.7206 55.2207Z" fill="#606161"/>
<path d="M0.9625 37.0833C0.9625 37.0833 1.1625 37.8666 1.46667 39.0374C1.6625 39.6124 1.9125 40.2749 2.17083 40.9833C2.3125 41.3333 2.41667 41.7166 2.59583 42.0708C2.76667 42.4291 2.94167 42.7958 3.11667 43.1583C3.29167 43.5208 3.46667 43.8874 3.64167 44.2416C3.8125 44.6041 4.04167 44.9249 4.22917 45.2541C4.625 45.8999 4.97917 46.5124 5.31667 47.0124C6.04167 47.9833 6.525 48.6291 6.525 48.6291L6.3 48.8083C6.3 48.8083 5.8125 48.1541 5.07917 47.1749C4.7375 46.6666 4.38333 46.0499 3.98333 45.3958C3.79583 45.0624 3.5625 44.7416 3.39167 44.3749C3.21667 44.0124 3.04167 43.6458 2.8625 43.2791C2.6875 42.9124 2.50833 42.5458 2.3375 42.1833C2.15417 41.8249 2.05 41.4416 1.90833 41.0874C1.64583 40.3666 1.39583 39.6999 1.19583 39.1208C0.891667 37.9374 0.6875 37.1458 0.6875 37.1458L0.966667 37.0791L0.9625 37.0833Z" fill="#606161"/>
<path d="M5.38411 38.5374C5.38411 38.5374 5.47995 38.7999 5.62578 39.1915C5.78411 39.579 5.92995 40.1207 6.17995 40.6207C6.66328 41.6249 7.15078 42.6332 7.15078 42.6332L6.90078 42.7707C6.90078 42.7707 6.40911 41.754 5.91745 40.7374C5.66328 40.2332 5.51328 39.6832 5.35495 39.2915C5.20911 38.8957 5.11328 38.629 5.11328 38.629L5.38411 38.5374Z" fill="#606161"/>
<path d="M43.6909 37.896H37.9367C37.0159 37.896 36.2617 38.6502 36.2617 39.571V42.2418C36.2617 43.1627 37.0159 43.9168 37.9367 43.9168H43.6867C44.6076 43.9168 45.3617 43.1627 45.3617 42.2418V39.571C45.3701 38.6502 44.6117 37.896 43.6951 37.896H43.6909Z" fill="#ED1C24"/>
<path d="M22.0695 37.896H16.3195C15.3987 37.896 14.6445 38.6502 14.6445 39.571V42.2418C14.6445 43.1627 15.3987 43.9168 16.3195 43.9168H22.0695C22.9904 43.9168 23.7445 43.1627 23.7445 42.2418V39.571C23.7529 38.6502 22.9945 37.896 22.0695 37.896Z" fill="#ED1C24"/>
<path d="M20.0307 34.9835H29.1724V36.4377H30.8391V34.9835H39.9807V36.4377H41.6474V34.1543C41.6474 33.6918 41.2724 33.3252 40.8099 33.3252H30.8307V30.1127H35.7016C36.1891 30.1127 36.6641 30.0418 37.1057 29.821C38.2141 29.2502 38.7807 28.3293 38.7807 27.0918V24.0543V19.1418C38.7807 17.371 37.5099 16.0835 35.7432 16.0835H24.2224C22.5099 16.0835 21.2141 17.3585 21.2099 19.0668V24.0543V27.1252C21.2099 27.4293 21.2557 27.7418 21.3349 28.0335C21.7016 29.2752 22.8141 30.1085 24.1182 30.1127C25.1474 30.121 26.1724 30.121 27.2099 30.1127H29.1557V33.3252H19.1891C18.7266 33.3252 18.3516 33.7002 18.3516 34.1543V36.4377H20.0182V34.9835H20.0266H20.0307ZM35.6182 17.8002C36.0641 17.8002 36.4224 18.1627 36.4224 18.6043C36.4224 19.046 36.0599 19.4085 35.6182 19.4085C35.1766 19.4085 34.8141 19.046 34.8141 18.6043C34.8141 18.1627 35.1766 17.8002 35.6182 17.8002ZM32.8474 17.8002C33.2932 17.8002 33.6516 18.1627 33.6516 18.6043C33.6516 19.046 33.2891 19.4085 32.8474 19.4085C32.4057 19.4085 32.0432 19.046 32.0432 18.6043C32.0432 18.1627 32.4057 17.8002 32.8474 17.8002ZM30.0766 17.8002C30.5224 17.8002 30.8807 18.1627 30.8807 18.6043C30.8807 19.046 30.5182 19.4085 30.0766 19.4085C29.6349 19.4085 29.2724 19.046 29.2724 18.6043C29.2724 18.1627 29.6349 17.8002 30.0766 17.8002ZM27.2266 28.4418H24.2516C23.3932 28.4418 22.8766 27.921 22.8766 27.071V24.046V21.3543C22.8766 21.2793 22.8849 21.2002 22.8891 21.1085H37.1266V27.0835C37.1266 27.9127 36.5932 28.446 35.7682 28.446C32.9266 28.4377 30.0766 28.4377 27.2266 28.4377V28.4418Z" fill="#ED1C24"/>
<path d="M32.8823 37.896H27.1281C26.2073 37.896 25.4531 38.6502 25.4531 39.571V42.2418C25.4531 43.1627 26.2073 43.9168 27.1281 43.9168H32.8781C33.799 43.9168 34.5531 43.1627 34.5531 42.2418V39.571C34.5615 38.6502 33.8031 37.896 32.8865 37.896H32.8823Z" fill="#ED1C24"/>
</g>
<defs>
<clipPath id="clip0_4776_3145">
<rect width="60" height="60" fill="white"/>
</clipPath>
</defs>
</svg>
