<svg width="60" height="60" viewBox="0 0 60 60" fill="none" xmlns="http://www.w3.org/2000/svg">
<g clip-path="url(#clip0_4776_3185)">
<path d="M2.06875 30.2334C2.06875 30.2334 2.10208 30.9167 2.16875 32.2C2.19375 32.5209 2.18542 32.8792 2.23958 33.2667C2.29792 33.6584 2.36458 34.0834 2.43542 34.5417C2.51042 35 2.56458 35.5 2.67708 36.0209C2.81042 36.5375 2.95208 37.0875 3.10208 37.6667C3.75208 39.9584 4.76875 42.7292 6.63542 45.5042C8.46875 48.2792 11.0437 51.125 14.4604 53.4167C17.8771 55.6834 22.1146 57.3667 26.7896 57.925C27.3688 58.0167 27.9646 58 28.5604 58.0459L29.4562 58.0917C29.7562 58.1125 30.0562 58.1209 30.3563 58.0959C31.5604 58.0209 32.7854 58.0292 34.0021 57.7875C36.4604 57.4917 38.8813 56.7042 41.2396 55.7125C41.8188 55.4334 42.3979 55.1542 42.9813 54.875C43.5604 54.5875 44.0979 54.2167 44.6562 53.8875L45.4938 53.3792C45.7604 53.1917 46.0187 52.9875 46.2812 52.7959C46.8021 52.3959 47.3479 52.025 47.8479 51.6C49.8687 49.8959 51.6396 47.8709 53.1688 45.6542C54.6562 43.4042 55.7896 40.9167 56.6229 38.3209C57.4062 35.7042 57.7562 32.975 57.8229 30.2375C57.7604 27.5042 57.4062 24.775 56.6229 22.1584C55.7896 19.5625 54.6521 17.0792 53.1688 14.825C51.6396 12.6084 49.8687 10.5834 47.8479 8.87921C47.3479 8.45004 46.7979 8.07921 46.2812 7.67921C46.0187 7.48338 45.7604 7.28338 45.4938 7.09588L44.6562 6.58754C44.0938 6.25838 43.5604 5.88754 42.9813 5.60004C42.3979 5.32088 41.8188 5.04171 41.2396 4.76254C38.8813 3.77088 36.4604 2.98338 34.0021 2.68754C32.7896 2.44588 31.5604 2.45421 30.3563 2.37921C30.0562 2.35421 29.7521 2.36254 29.4562 2.37921L28.5604 2.42504C27.9646 2.47088 27.3688 2.45421 26.7896 2.54588C22.1146 3.10421 17.8771 4.78754 14.4604 7.05838C11.0437 9.34588 8.46875 12.1917 6.63542 14.9667C4.76875 17.7417 3.75208 20.5125 3.10208 22.8042C2.95208 23.3834 2.81042 23.9334 2.67708 24.45C2.56458 24.9709 2.51042 25.4667 2.43542 25.925C2.36458 26.3834 2.30208 26.8084 2.23958 27.2C2.18125 27.5917 2.18958 27.95 2.16875 28.2709C2.10208 29.55 2.06875 30.2334 2.06875 30.2334H1.78125C1.78125 30.2334 1.81458 29.5417 1.88125 28.25C1.90625 27.925 1.89792 27.5625 1.95625 27.1709C2.01458 26.775 2.08125 26.3459 2.15208 25.8834C2.23125 25.4209 2.28125 24.9167 2.39792 24.3917C2.53125 23.8709 2.67292 23.3167 2.82292 22.7292C3.48125 20.4125 4.51042 17.6167 6.39375 14.8125C8.24375 12.0084 10.8479 9.13338 14.3021 6.82088C17.7521 4.52921 22.0354 2.82921 26.7604 2.26671C27.3479 2.17088 27.9479 2.18754 28.5479 2.14171C28.8479 2.12504 29.1521 2.11254 29.4521 2.09588C29.7563 2.07504 30.0563 2.06671 30.3604 2.09171C31.5771 2.16671 32.8146 2.15838 34.0438 2.40004C36.5229 2.70004 38.9729 3.49588 41.3563 4.49588C41.9396 4.77504 42.5271 5.05838 43.1146 5.34588C43.6979 5.63754 44.2396 6.01254 44.8063 6.34171L45.6521 6.85421C45.9229 7.04588 46.1854 7.25004 46.4479 7.44588C46.9729 7.85005 47.5229 8.22505 48.0312 8.65838C50.0729 10.3834 51.8646 12.425 53.4062 14.6625C54.9062 16.9375 56.0562 19.45 56.8979 22.0709C57.6896 24.7125 58.0438 27.475 58.1104 30.2375C58.0438 33 57.6896 35.7584 56.8979 38.4042C56.0562 41.0209 54.9062 43.5375 53.4062 45.8125C51.8646 48.05 50.0729 50.0959 48.0312 51.8167C47.5229 52.25 46.9729 52.6209 46.4479 53.0292C46.1813 53.225 45.9188 53.4292 45.6521 53.6209L44.8063 54.1334C44.2396 54.4625 43.6979 54.8375 43.1146 55.1292C42.5271 55.4125 41.9396 55.6959 41.3563 55.9792C38.9771 56.9834 36.5229 57.7792 34.0438 58.075C32.8146 58.3209 31.5771 58.3084 30.3604 58.3875C30.0563 58.4125 29.7521 58.4042 29.4521 58.3834C29.1479 58.3667 28.8479 58.3542 28.5479 58.3375C27.9479 58.2917 27.3479 58.3084 26.7604 58.2167C22.0354 57.6542 17.7521 55.95 14.3021 53.6625C10.8521 51.35 8.24792 48.475 6.39375 45.6709C4.51042 42.8667 3.48125 40.0667 2.82292 37.75C2.67292 37.1625 2.53125 36.6084 2.39792 36.0875C2.28125 35.5625 2.23125 35.0584 2.15208 34.5959C2.08125 34.1292 2.01458 33.7 1.95625 33.3084C1.89792 32.9125 1.90625 32.55 1.88125 32.2292C1.81458 30.9334 1.78125 30.2417 1.78125 30.2417H2.06875V30.2334Z" fill="#606161"/>
<path d="M4.7862 18.6208C4.7862 18.6208 4.63203 18.9416 4.40286 19.4208C4.21953 19.9166 3.9737 20.5833 3.73203 21.2458C3.4612 21.9 3.30703 22.5958 3.1737 23.1083C3.04036 23.6208 2.95286 23.9666 2.95286 23.9666L2.39453 23.8375C2.39453 23.8375 2.4862 23.4875 2.61953 22.9625C2.75286 22.4375 2.91536 21.7291 3.19036 21.0625C3.44036 20.3833 3.6862 19.7083 3.8737 19.1958C4.10703 18.7083 4.26536 18.3833 4.26536 18.3833L4.7862 18.625V18.6208Z" fill="#606161"/>
<path d="M19.1089 5.01667C19.1089 5.01667 18.3297 5.39167 17.1547 5.95834C16.0214 6.59167 14.5172 7.46667 13.163 8.55001C12.4422 9.04167 11.838 9.66667 11.2255 10.2C10.9339 10.4792 10.6172 10.7208 10.3755 11.0042C10.1255 11.2792 9.88802 11.5417 9.67135 11.7833C9.24219 12.2708 8.85052 12.65 8.62969 12.9583C8.40469 13.2625 8.27135 13.4375 8.27135 13.4375L7.36719 12.7333C7.36719 12.7333 7.50052 12.5542 7.73802 12.2375C7.96719 11.9167 8.37135 11.5208 8.82135 11.0125C9.05052 10.7625 9.29635 10.4917 9.55885 10.2042C9.81302 9.90834 10.138 9.65834 10.4464 9.36667C11.0797 8.80417 11.7172 8.15834 12.463 7.64584C13.8755 6.51667 15.4422 5.60417 16.6214 4.94584C17.8422 4.35834 18.6547 3.96667 18.6547 3.96667L19.1089 5.01667Z" fill="#606161"/>
<path d="M31.6552 2.87089C31.6552 2.87089 31.3969 2.85839 31.0094 2.83756C30.8177 2.82923 30.5885 2.81673 30.3469 2.80423C30.1052 2.78339 29.8469 2.77923 29.5885 2.80423C28.5552 2.85423 27.5219 2.90839 27.5219 2.90839L27.4219 1.76673C27.4219 1.76673 28.4969 1.71256 29.5719 1.65839C29.8385 1.63756 30.1094 1.64173 30.3594 1.65839C30.6135 1.67089 30.8469 1.68339 31.0469 1.69173C31.451 1.71256 31.7177 1.72506 31.7177 1.72506L31.6469 2.86673L31.6552 2.87089Z" fill="#606161"/>
<path d="M47.3062 8.61661C47.3062 8.61661 46.6229 8.10411 45.5979 7.33744C44.5188 6.65411 43.0771 5.72911 41.5104 5.04578C40.7562 4.64161 39.9396 4.39161 39.1896 4.10828C38.8146 3.97494 38.4521 3.82911 38.1062 3.72078C37.7521 3.62911 37.4146 3.54578 37.1062 3.46244C36.4854 3.30411 35.9729 3.17078 35.6104 3.07911C35.2437 3.00828 35.0312 2.98328 35.0312 2.98328L35.1354 2.42078C35.1354 2.42078 35.3521 2.44578 35.7271 2.52078C36.0979 2.61661 36.6229 2.74994 37.2562 2.91244C37.5729 2.99161 37.9146 3.08328 38.2771 3.17494C38.6354 3.28328 39.0021 3.43328 39.3854 3.57078C40.1479 3.85828 40.9854 4.11661 41.7521 4.52494C43.3479 5.22494 44.8229 6.16244 45.9229 6.86661C46.9687 7.64994 47.6646 8.17078 47.6646 8.17078L47.3062 8.61661Z" fill="#606161"/>
<path d="M54.8833 18.1458C54.8833 18.1458 54.6625 17.6875 54.4458 17.2333C54.3458 17 54.2 16.7917 54.1042 16.625C54.0042 16.4625 53.9375 16.3541 53.9375 16.3541L54.4333 16.0667C54.4333 16.0667 54.5 16.175 54.6 16.3417C54.6958 16.5083 54.8458 16.725 54.9458 16.9625C55.1708 17.4291 55.3958 17.8916 55.3958 17.8916L54.8833 18.1417V18.1458Z" fill="#606161"/>
<path d="M57.6409 29.2917C57.6409 29.2917 57.6159 28.7833 57.5784 28.0208C57.5701 27.8292 57.5575 27.625 57.5492 27.4042C57.5159 27.1875 57.4825 26.9583 57.445 26.725C57.3742 26.2542 57.2992 25.75 57.2201 25.2458C57.1617 24.7375 57.0284 24.2458 56.9076 23.7833C56.7867 23.3208 56.6784 22.8917 56.5826 22.5208C56.5367 22.3375 56.4909 22.1667 56.4534 22.0167C56.4076 21.8708 56.3534 21.7417 56.32 21.6375C56.245 21.4292 56.1992 21.3083 56.1992 21.3083L56.7409 21.125C56.7409 21.125 56.7867 21.2458 56.8617 21.4625C56.8992 21.5708 56.9534 21.6958 56.9992 21.85C57.0367 22.0042 57.0825 22.175 57.1325 22.3625C57.2284 22.7417 57.3409 23.1792 57.4659 23.6542C57.5909 24.125 57.7242 24.6292 57.7825 25.1458C57.8617 25.6583 57.9409 26.1708 58.0117 26.6542C58.0492 26.8958 58.0825 27.1292 58.1159 27.35C58.1284 27.575 58.1367 27.7833 58.1492 27.9792C58.1867 28.7583 58.2159 29.275 58.2159 29.275L57.6451 29.2958L57.6409 29.2917Z" fill="#606161"/>
<path d="M57.5432 34.0542C57.5432 34.0542 57.6182 33.5709 57.6891 33.0876C57.7141 32.6001 57.7391 32.1125 57.7391 32.1125L58.0224 32.1334C58.0224 32.1334 57.9974 32.625 57.9724 33.1209C57.8974 33.6084 57.8224 34.0959 57.8224 34.0959L57.5391 34.0584L57.5432 34.0542Z" fill="#606161"/>
<path d="M52.5198 46.3166C52.5198 46.3166 52.6031 46.2083 52.7448 46.0166C52.899 45.8291 53.0781 45.5375 53.2906 45.1833C53.7031 44.4666 54.3406 43.5625 54.7781 42.55C55.0156 42.0541 55.2573 41.5583 55.4781 41.0958C55.6698 40.6166 55.824 40.1583 55.9698 39.7708C56.2531 38.9958 56.4406 38.4791 56.4406 38.4791L56.9865 38.6458C56.9865 38.6458 56.7948 39.175 56.5031 39.9625C56.3573 40.3583 56.1948 40.8208 56.0031 41.3125C55.774 41.7875 55.5323 42.2958 55.2865 42.8C54.8406 43.8375 54.1906 44.7583 53.7698 45.4875C53.5531 45.85 53.3698 46.15 53.2156 46.3416C53.0698 46.5375 52.9823 46.65 52.9823 46.65L52.5156 46.3166H52.5198Z" fill="#606161"/>
<path d="M36.7188 56.8084C36.7188 56.8084 36.8854 56.7667 37.1771 56.6917C37.4646 56.6042 37.8938 56.5375 38.3771 56.3542C39.3396 55.9834 40.6604 55.5792 41.8771 54.9292C43.1438 54.3875 44.2771 53.5917 45.1688 53.075C45.5979 52.7875 45.9313 52.5167 46.1771 52.3375C46.4188 52.1584 46.5562 52.0542 46.5562 52.0542L47.2479 52.9625C47.2479 52.9625 47.1062 53.0709 46.8521 53.2584C46.5979 53.4375 46.2479 53.725 45.8021 54.0209C44.8729 54.5584 43.6937 55.3875 42.3729 55.9542C41.1062 56.6292 39.7312 57.0542 38.7271 57.4375C38.2229 57.625 37.7771 57.7 37.4771 57.7875C37.1729 57.8667 36.9979 57.9084 36.9979 57.9084L36.7188 56.8V56.8084Z" fill="#606161"/>
<path d="M26.0094 57.6583C26.0094 57.6583 26.4552 57.725 27.126 57.8292C27.8052 57.8625 28.7052 57.9083 29.6094 57.9542C30.0635 58 30.5135 57.9292 30.9344 57.9208C31.3594 57.9 31.7552 57.8792 32.0927 57.8625C32.7719 57.85 33.2177 57.7625 33.2177 57.7625L33.2844 58.3292C33.2844 58.3292 32.8302 58.4167 32.1385 58.4333C31.7927 58.45 31.3885 58.4708 30.9552 58.4917C30.5219 58.4958 30.0635 58.5708 29.601 58.525C28.6802 58.4792 27.7594 58.4333 27.0635 58.3958C26.3802 58.2917 25.9219 58.225 25.9219 58.225L26.001 57.6583H26.0094Z" fill="#606161"/>
<path d="M15.9312 53.8042C15.9312 53.8042 16.2104 53.9709 16.6271 54.2251C17.0396 54.4834 17.6437 54.7292 18.2229 55.025C18.8063 55.3084 19.3896 55.5959 19.8562 55.7417C20.3146 55.9084 20.6188 56.0209 20.6188 56.0209L20.2312 57.0959C20.2312 57.0959 19.9146 56.9792 19.4354 56.8042C18.9479 56.6501 18.3438 56.3542 17.7312 56.0542C17.1271 55.7501 16.4979 55.4917 16.0687 55.2209C15.6354 54.9584 15.3438 54.7834 15.3438 54.7834L15.9312 53.8V53.8042Z" fill="#606161"/>
<path d="M10.6693 50.15L11.7734 51.15L11.3984 51.5834L10.2734 50.5584L10.6693 50.15Z" fill="#606161"/>
<path d="M6.04661 44.2459C6.04661 44.2459 6.21328 44.525 6.46745 44.9375C6.59245 45.1417 6.73828 45.3834 6.89661 45.6459C7.05911 45.9 7.26745 46.15 7.45495 46.4125C7.84245 46.9292 8.22995 47.4459 8.51745 47.8334C8.83828 48.1917 9.05495 48.4334 9.05495 48.4334L8.62578 48.8084C8.62578 48.8084 8.40495 48.5625 8.07578 48.1959C7.77995 47.8 7.38411 47.2709 6.98828 46.7417C6.79661 46.475 6.58411 46.2167 6.41745 45.9584C6.25495 45.6959 6.10911 45.4459 5.97995 45.2375C5.72161 44.8167 5.55078 44.5334 5.55078 44.5334L6.04245 44.2417L6.04661 44.2459Z" fill="#606161"/>
<path d="M4.12809 40.7208C4.08226 40.7417 4.81143 42.2292 4.81143 42.2292L4.55309 42.35C4.55309 42.35 3.81559 40.8458 3.86143 40.8292L4.12393 40.7208H4.12809Z" fill="#606161"/>
<path d="M2.63776 32.9166C2.63776 32.9166 2.63776 32.975 2.65026 33.075C2.66693 33.175 2.68776 33.3166 2.71276 33.4875C2.76276 33.8291 2.83359 34.2833 2.90443 34.7375C2.98359 35.1916 3.02109 35.6541 3.11693 35.9875C3.20443 36.3208 3.25859 36.5458 3.25859 36.5458L2.14609 36.8083C2.14609 36.8083 2.08776 36.575 1.99609 36.2291C1.89609 35.8833 1.85443 35.4 1.77526 34.9291C1.70443 34.4541 1.62943 33.9791 1.57526 33.625C1.55026 33.4458 1.52526 33.3 1.50859 33.1958C1.49609 33.0916 1.49609 33.0333 1.49609 33.0333L2.63359 32.9208L2.63776 32.9166Z" fill="#606161"/>
<path d="M6.2875 12.5125C6.2875 12.5125 6.13333 12.7208 5.85833 13.0875C5.725 13.2708 5.55 13.4917 5.37083 13.7542C5.20417 14.0292 5.01667 14.3333 4.8125 14.6708C4.4125 15.3458 3.89583 16.1042 3.50417 17.0083C3.29167 17.45 3.07083 17.9042 2.85 18.3708C2.73333 18.6 2.62917 18.8417 2.55 19.0875L2.27917 19.825C2.1 20.3167 1.92083 20.8083 1.74167 21.2917C1.58333 21.7833 1.47917 22.2792 1.35 22.7542C1.22917 23.2292 1.1125 23.6875 1 24.125C0.904167 24.5625 0.858333 24.9875 0.791667 25.375C0.675 26.15 0.579167 26.8 0.5125 27.2542C0.4875 27.7125 0.475 27.9708 0.475 27.9708L0.1875 27.95C0.1875 27.95 0.204167 27.6833 0.225 27.225C0.295833 26.7667 0.391667 26.1125 0.508333 25.3292C0.575 24.9375 0.620833 24.5083 0.716667 24.0667C0.829167 23.625 0.95 23.1625 1.07083 22.6833C1.2 22.2042 1.30833 21.7042 1.46667 21.2083C1.64583 20.7208 1.825 20.225 2.00833 19.7292L2.28333 18.9833C2.36667 18.7333 2.46667 18.4917 2.5875 18.2625C2.8125 17.7917 3.03333 17.3333 3.25 16.8875C3.65 15.975 4.16667 15.2083 4.57083 14.525C4.77917 14.1875 4.96667 13.875 5.13333 13.6C5.3125 13.3333 5.4875 13.1167 5.625 12.9292C5.9 12.5583 6.05833 12.3458 6.05833 12.3458L6.2875 12.5167V12.5125Z" fill="#606161"/>
<path d="M13.7732 9.34167C13.7732 9.34167 13.5357 9.52083 13.1773 9.7875C12.8398 10.0792 12.4065 10.4833 11.9648 10.8833C11.744 11.0833 11.5232 11.2833 11.319 11.4708C11.119 11.6625 10.9523 11.8667 10.8023 12.0292C10.5023 12.3583 10.3023 12.5792 10.3023 12.5792L10.0898 12.3875C10.0898 12.3875 10.2898 12.1667 10.594 11.8333C10.7482 11.6708 10.9148 11.4625 11.119 11.2708C11.3273 11.0792 11.5482 10.8792 11.7732 10.6792C12.219 10.2792 12.6565 9.86667 12.9982 9.57083C13.3607 9.3 13.5982 9.125 13.5982 9.125L13.7732 9.35V9.34167Z" fill="#606161"/>
<path d="M14.7185 4.89171C14.7185 4.89171 14.3518 5.11254 13.9852 5.33754C13.8018 5.45004 13.6185 5.56254 13.481 5.64587C13.3435 5.72921 13.2602 5.80004 13.2602 5.80004L13.0977 5.56254C13.0977 5.56254 13.181 5.49171 13.3185 5.40837C13.4602 5.32504 13.6435 5.20837 13.8268 5.09587C14.1977 4.87087 14.5685 4.64587 14.5685 4.64587L14.7143 4.89171H14.7185Z" fill="#606161"/>
<path d="M26.9625 0.575008C26.9625 0.575008 26.8208 0.591675 26.575 0.629175C26.3292 0.666675 25.975 0.720841 25.5542 0.783341C25.1333 0.845841 24.6417 0.920841 24.1125 1.00417C23.5875 1.10417 23.0417 1.27084 22.4875 1.40417C21.9375 1.55417 21.3792 1.67084 20.875 1.84167C20.375 2.02501 19.9042 2.19584 19.5042 2.34167C19.1042 2.48751 18.7708 2.61251 18.5333 2.69584C18.2958 2.77501 18.175 2.84584 18.175 2.84584L18.0625 2.58334C18.0625 2.58334 18.1875 2.51251 18.425 2.42917C18.6625 2.34167 19 2.21667 19.4042 2.06667C19.8083 1.92084 20.2833 1.74584 20.7875 1.56251C21.2958 1.38334 21.8625 1.27084 22.4167 1.11667C22.975 0.979175 23.5292 0.812508 24.0583 0.712508C24.5917 0.629175 25.0875 0.554175 25.5125 0.487508C25.9375 0.420841 26.2958 0.370841 26.5417 0.333341C26.7917 0.295841 26.9333 0.279175 26.9333 0.279175L26.9625 0.562508V0.575008Z" fill="#606161"/>
<path d="M33.943 0.720841C33.943 0.720841 33.718 0.687508 33.3763 0.637508C33.0388 0.566675 32.5805 0.562508 32.1221 0.533341C31.2055 0.487508 30.293 0.441675 30.293 0.441675V0.154175C30.293 0.154175 31.2221 0.200008 32.143 0.245841C32.6055 0.275008 33.068 0.283341 33.4096 0.350008C33.7513 0.400008 33.9805 0.433341 33.9805 0.433341L33.943 0.716675V0.720841Z" fill="#606161"/>
<path d="M51.0557 14.3459C51.0557 14.3459 50.9307 14.1834 50.7182 13.8959C50.6099 13.7542 50.4849 13.575 50.3307 13.3792C50.1641 13.1959 49.9724 12.9875 49.7682 12.7584C49.5599 12.5292 49.3391 12.2875 49.1016 12.025C48.8641 11.7625 48.6224 11.4834 48.3307 11.2375C47.7516 10.7334 47.1766 10.1459 46.5307 9.64171C45.8724 9.15837 45.2307 8.64587 44.5974 8.21254C43.9432 7.81671 43.3307 7.44171 42.8057 7.12504C42.2807 6.80837 41.7974 6.62504 41.4849 6.45837C41.1641 6.30421 40.9766 6.21671 40.9766 6.21671L41.0974 5.95837C41.0974 5.95837 41.2849 6.04587 41.6099 6.20421C41.9307 6.37087 42.4141 6.55837 42.9474 6.87921C43.4766 7.20004 44.0974 7.57504 44.7599 7.97921C45.3974 8.41671 46.0474 8.93337 46.7141 9.42087C47.3641 9.93337 47.9474 10.525 48.5307 11.0334C48.8266 11.2834 49.0766 11.5667 49.3099 11.8292C49.5474 12.0917 49.7766 12.3417 49.9849 12.5709C50.1932 12.8 50.3849 13.0084 50.5557 13.1959C50.7141 13.3959 50.8391 13.575 50.9516 13.7167C51.1682 14.0042 51.2891 14.1709 51.2891 14.1709L51.0599 14.3417L51.0557 14.3459Z" fill="#606161"/>
<path d="M54.9737 21.725C54.9737 21.725 54.7279 21.05 54.4779 20.375C54.3654 20.0333 54.2112 19.7083 54.0904 19.4667C53.9737 19.225 53.8945 19.0625 53.8945 19.0625L54.1529 18.9417C54.1529 18.9417 54.232 19.1083 54.3487 19.35C54.4737 19.5958 54.6279 19.9208 54.7404 20.2667C54.9904 20.95 55.2404 21.6333 55.2404 21.6333L54.9695 21.725H54.9737Z" fill="#606161"/>
<path d="M56.1143 26.5667L55.9102 25.2251L56.1935 25.1709L56.3977 26.5292L56.1143 26.5667Z" fill="#606161"/>
<path d="M59.5096 33.9417C59.5096 33.9417 59.6388 33.2667 59.6638 32.2334C59.6888 31.7209 59.718 31.1209 59.7513 30.475C59.768 29.8334 59.7013 29.1459 59.6763 28.4584C59.6638 27.0792 59.368 25.7292 59.2346 24.7084C59.1721 24.1959 59.0388 23.7834 58.9721 23.4917C58.8971 23.2 58.8555 23.0334 58.8555 23.0334L59.1346 22.9625C59.1346 22.9625 59.1763 23.1334 59.2513 23.425C59.3221 23.7209 59.4555 24.1334 59.518 24.6542C59.6555 25.6834 59.9555 27.05 59.968 28.4375C59.993 29.1292 60.0596 29.825 60.043 30.4709C60.0096 31.1209 59.9805 31.725 59.9555 32.2459C59.9305 33.2875 59.8013 33.9709 59.8013 33.9709L59.518 33.9375L59.5096 33.9417Z" fill="#606161"/>
<path d="M57.012 42.6875C57.012 42.6875 57.1578 42.3876 57.3703 41.9376C57.562 41.4751 57.7786 40.8459 58.012 40.2209C58.2453 39.5959 58.4786 38.9709 58.5786 38.4792C58.7036 37.9959 58.787 37.675 58.787 37.675L59.062 37.7459C59.062 37.7459 58.9786 38.0709 58.8536 38.5626C58.7495 39.0584 58.512 39.6917 58.2786 40.3209C58.0411 40.95 57.8245 41.5875 57.6286 42.0542C57.412 42.5084 57.2661 42.8125 57.2661 42.8125L57.0078 42.6917L57.012 42.6875Z" fill="#606161"/>
<path d="M44.543 52.2875C44.543 52.2875 44.5721 52.2708 44.6221 52.2375C44.6763 52.2083 44.7513 52.1625 44.843 52.0875C45.0263 51.9542 45.2888 51.7542 45.6013 51.5208C45.9138 51.2875 46.2805 51.0125 46.6721 50.7208C47.0513 50.4125 47.4221 50.0458 47.8138 49.7C48.618 49.0292 49.293 48.2292 49.8221 47.65C50.368 47.0875 50.6638 46.6542 50.6638 46.6542L50.8888 46.8292C50.8888 46.8292 50.5888 47.2667 50.0388 47.8375C49.5055 48.4208 48.8221 49.2292 48.0096 49.9083C47.6138 50.2583 47.2388 50.6292 46.8555 50.9417C46.4596 51.2375 46.0888 51.5125 45.7721 51.75C45.4555 51.9875 45.193 52.1875 45.0055 52.325C44.9138 52.4 44.8346 52.4458 44.7846 52.475C44.7305 52.5083 44.7055 52.525 44.7055 52.525L44.5471 52.2875H44.543Z" fill="#606161"/>
<path d="M32.625 56.55C32.625 56.55 32.7792 56.5291 33.0458 56.4875C33.3125 56.45 33.6958 56.3875 34.1583 56.3166C34.3875 56.2791 34.6375 56.2458 34.9 56.2041C35.0292 56.1833 35.1667 56.1625 35.3042 56.1416C35.4375 56.1083 35.5792 56.0708 35.7167 56.0333C36.2792 55.8875 36.8792 55.7333 37.4792 55.5791C37.7833 55.5166 38.0708 55.4 38.3583 55.2958C38.6458 55.1916 38.925 55.0875 39.2 54.9875C39.7417 54.7833 40.2625 54.625 40.675 54.4C41.5125 53.9958 42.0708 53.7291 42.0708 53.7291L42.2 53.9833C42.2 53.9833 41.6375 54.2541 40.7917 54.6625C40.3792 54.8875 39.85 55.05 39.3 55.2583C39.025 55.3583 38.7375 55.4625 38.45 55.5708C38.1583 55.675 37.8708 55.7958 37.5625 55.8583C36.9583 56.0125 36.35 56.1708 35.7792 56.3166C35.6375 56.3541 35.4958 56.3916 35.3625 56.425C35.2208 56.4458 35.0875 56.4666 34.9542 56.4875C34.6875 56.525 34.4375 56.5666 34.2042 56.6C33.7375 56.6708 33.3542 56.7291 33.0792 56.7708C32.8083 56.8125 32.6542 56.8333 32.6542 56.8333L32.625 56.55Z" fill="#606161"/>
<path d="M26.9667 56.5042C26.9667 56.5042 27.1042 56.5333 27.3167 56.55C27.525 56.5583 27.8083 56.575 28.0875 56.5875C28.65 56.6166 29.2083 56.6458 29.2083 56.6458L29.2 56.9333C29.2 56.9333 28.6333 56.9042 28.0667 56.875C27.7833 56.8583 27.5 56.8458 27.2875 56.8375C27.075 56.8208 26.9375 56.7875 26.9375 56.7875L26.9708 56.5042H26.9667Z" fill="#606161"/>
<path d="M19.9788 58.3C19.9455 58.4042 24.6497 59.7 24.683 59.5542L24.633 59.8375C24.6038 59.9834 19.8497 58.6792 19.883 58.5751L19.9788 58.3042V58.3Z" fill="#606161"/>
<path d="M13.7206 55.2208C13.7206 55.2208 14.5747 55.7417 15.4289 56.2583C15.8456 56.5375 16.3206 56.7125 16.6497 56.8875C16.9872 57.05 17.2122 57.1625 17.2122 57.1625L17.0914 57.4208C17.0914 57.4208 16.8622 57.3125 16.5247 57.1458C16.1914 56.9667 15.7122 56.7917 15.2914 56.5125C14.4289 55.9875 13.5664 55.4667 13.5664 55.4667L13.7247 55.225L13.7206 55.2208Z" fill="#606161"/>
<path d="M0.9625 37.0834C0.9625 37.0834 1.1625 37.8667 1.46667 39.0376C1.6625 39.6126 1.9125 40.2751 2.17083 40.9834C2.3125 41.3334 2.41667 41.7167 2.59583 42.0709C2.76667 42.4292 2.94167 42.7959 3.11667 43.1584C3.29167 43.5209 3.46667 43.8876 3.64167 44.2417C3.8125 44.6042 4.04167 44.9251 4.22917 45.2542C4.625 45.9001 4.97917 46.5126 5.31667 47.0126C6.04167 47.9834 6.525 48.6292 6.525 48.6292L6.3 48.8084C6.3 48.8084 5.8125 48.1542 5.07917 47.1751C4.7375 46.6667 4.38333 46.0501 3.98333 45.3959C3.79583 45.0626 3.5625 44.7417 3.39167 44.3751C3.21667 44.0126 3.04167 43.6459 2.8625 43.2792C2.6875 42.9126 2.50833 42.5459 2.3375 42.1834C2.15417 41.8251 2.05 41.4417 1.90833 41.0876C1.64583 40.3667 1.39583 39.7001 1.19583 39.1209C0.891667 37.9376 0.6875 37.1459 0.6875 37.1459L0.966667 37.0792L0.9625 37.0834Z" fill="#606161"/>
<path d="M5.38411 38.5375C5.38411 38.5375 5.47995 38.8 5.62578 39.1916C5.78411 39.5791 5.92995 40.1208 6.17995 40.6208C6.66328 41.625 7.15078 42.6333 7.15078 42.6333L6.90078 42.7708C6.90078 42.7708 6.40911 41.7541 5.91745 40.7375C5.66328 40.2333 5.51328 39.6833 5.35495 39.2916C5.20911 38.8958 5.11328 38.6291 5.11328 38.6291L5.38411 38.5375Z" fill="#606161"/>
<path d="M42.1789 27.1999C41.7247 24.2666 39.1831 22.0208 36.1247 22.0208C34.9747 22.0208 33.8706 22.3374 32.9122 22.9333C31.4539 20.4833 28.8289 18.9541 25.9122 18.9541C21.4122 18.9541 17.7414 22.6166 17.7414 27.1249C17.7414 27.1541 17.7414 27.1833 17.7414 27.2124C14.8456 27.6999 12.5664 30.2249 12.5664 33.2541C12.5664 36.6374 15.3831 39.3833 18.7622 39.3833H41.2289C44.6122 39.3833 47.4289 36.6333 47.4289 33.2541C47.4289 30.1999 45.1122 27.6583 42.1789 27.2041V27.1999ZM29.4081 30.7291C29.2497 30.8874 29.0456 30.9666 28.8372 30.9666C28.6289 30.9666 28.4247 30.8874 28.2664 30.7291L27.5331 29.9958V35.4249C27.5331 35.8708 27.1706 36.2291 26.7247 36.2291C26.2789 36.2291 25.9164 35.8708 25.9164 35.4249V30.1208L25.3039 30.7333C24.9872 31.0499 24.4789 31.0499 24.1622 30.7333C23.8497 30.4208 23.8497 29.9083 24.1622 29.5958L26.2122 27.5458C26.5247 27.2333 27.0372 27.2333 27.3497 27.5458L29.3997 29.5958C29.7164 29.9083 29.7164 30.4208 29.3997 30.7333L29.4081 30.7291ZM35.8331 33.9499L33.7831 35.9999C33.6247 36.1583 33.4164 36.2333 33.2122 36.2333C33.0081 36.2333 32.7956 36.1583 32.6372 35.9999L30.5914 33.9499C30.2747 33.6333 30.2747 33.1249 30.5914 32.8124C30.9039 32.4958 31.4122 32.4958 31.7289 32.8124L32.3414 33.4249V28.1166C32.3414 27.6708 32.7039 27.3083 33.1497 27.3083C33.5956 27.3083 33.9581 27.6708 33.9581 28.1166V33.5499L34.6914 32.8166C35.0081 32.4999 35.5164 32.4999 35.8331 32.8166C36.1456 33.1291 36.1456 33.6416 35.8331 33.9541V33.9499Z" fill="#ED1C24"/>
</g>
<defs>
<clipPath id="clip0_4776_3185">
<rect width="60" height="60" fill="white"/>
</clipPath>
</defs>
</svg>
