<svg width="26" height="19" viewBox="0 0 26 19" fill="none" xmlns="http://www.w3.org/2000/svg">
<path d="M1.48787 8.29667C0.825129 8.29664 0.287853 8.83389 0.287831 9.49663C0.287809 10.1594 0.82505 10.6966 1.48779 10.6967L1.48787 8.29667ZM25.3458 10.346C25.8144 9.87737 25.8145 9.11757 25.3459 8.64892L17.7094 1.01192C17.2407 0.543274 16.4809 0.543249 16.0123 1.01186C15.5437 1.48048 15.5436 2.24027 16.0122 2.70892L22.8002 9.49737L16.0118 16.2854C15.5432 16.754 15.5431 17.5138 16.0117 17.9824C16.4804 18.4511 17.2402 18.4511 17.7088 17.9825L25.3458 10.346ZM1.48779 10.6967L24.4973 10.6974L24.4973 8.29742L1.48787 8.29667L1.48779 10.6967Z" fill="white"/>
</svg>
