<svg width="60" height="62" viewBox="0 0 60 62" fill="none" xmlns="http://www.w3.org/2000/svg">
<path fill-rule="evenodd" clip-rule="evenodd" d="M20.5719 0.774414C17.1873 0.774414 13.9415 2.11892 11.5482 4.51215L0 16.0603V21.3463C0 25.0808 1.60416 28.4407 4.16101 30.7744C1.60416 33.1081 0 36.4679 0 40.2025V45.4885L11.5482 57.0367C13.9415 59.4299 17.1873 60.7744 20.5719 60.7744C24.3064 60.7744 27.6663 59.1703 30 56.6134C32.3337 59.1703 35.6936 60.7744 39.4281 60.7744C42.8127 60.7744 46.0586 59.4299 48.4518 57.0367L60 45.4885V40.2025C60 36.4679 58.3959 33.1081 55.839 30.7744C58.3959 28.4407 60 25.0808 60 21.3463V16.0603L48.4518 4.51215C46.0586 2.11892 42.8127 0.774414 39.4281 0.774414C35.6936 0.774414 32.3337 2.37857 30 4.93542C27.6663 2.37857 24.3064 0.774414 20.5719 0.774414ZM38.6382 30.7744C38.4944 30.6431 38.3532 30.5083 38.2149 30.37L30 22.1551L21.7851 30.37C21.6468 30.5083 21.5057 30.6431 21.3618 30.7744C21.5057 30.9056 21.6468 31.0405 21.7851 31.1788L30 39.3937L38.2149 31.1788C38.3532 31.0405 38.4944 30.9056 38.6382 30.7744ZM33.3333 45.4885V48.013C33.3333 51.379 36.0621 54.1078 39.4281 54.1078C41.0445 54.1078 42.5948 53.4656 43.7378 52.3226L53.3334 42.727V40.2025C53.3334 36.8365 50.6046 34.1077 47.2386 34.1077C45.6222 34.1077 44.072 34.7498 42.929 35.8928L33.3333 45.4885ZM26.6667 45.4885L17.0711 35.8928C15.9281 34.7498 14.3779 34.1077 12.7614 34.1077C9.39538 34.1077 6.66666 36.8365 6.66666 40.2025V42.727L16.2623 52.3226C17.4053 53.4656 18.9555 54.1078 20.5719 54.1078C23.9379 54.1078 26.6667 51.379 26.6667 48.013V45.4885ZM26.6667 13.5358V16.0603L17.0711 25.6559C15.9281 26.7989 14.3779 27.4411 12.7614 27.4411C9.39538 27.4411 6.66666 24.7123 6.66666 21.3463V18.8218L16.2623 9.22619C17.4053 8.0832 18.9555 7.44108 20.5719 7.44108C23.9379 7.44108 26.6667 10.1698 26.6667 13.5358ZM42.929 25.6559L33.3333 16.0603V13.5358C33.3333 10.1698 36.0621 7.44108 39.4281 7.44108C41.0445 7.44108 42.5948 8.0832 43.7378 9.22619L53.3334 18.8218V21.3463C53.3334 24.7123 50.6046 27.4411 47.2386 27.4411C45.6222 27.4411 44.072 26.7989 42.929 25.6559Z" fill="#FF630B"/>
</svg>
