<svg width="376" height="377" viewBox="0 0 376 377" fill="none" xmlns="http://www.w3.org/2000/svg">
<path d="M11.2289 155.936C14.5788 143.031 17.3127 130.02 21.5622 117.366C26.6357 102.259 37.9226 90.548 45.8921 77.0349C46.989 75.1789 44.1037 73.5013 43.0123 75.3518C35.8884 87.4304 26.687 98.0151 20.614 110.72C14.0466 124.466 11.8124 140.411 8.01408 155.05C7.47377 157.133 10.6886 158.017 11.2289 155.936Z" fill="black"/>
<path d="M53.0455 68.4815C72.5127 45.9641 96.4941 30.2437 122.372 16.1228C124.26 15.0935 122.577 12.2136 120.689 13.2429C94.268 27.6611 70.5541 43.1409 50.6871 66.123C49.2877 67.7412 51.638 70.1105 53.0455 68.4815Z" fill="black"/>
<path d="M136.794 11.8406C146.852 8.81489 157.112 6.54829 167.367 4.2979C179.586 1.61526 190.308 5.77564 202.309 5.22993C204.451 5.13268 204.459 1.79626 202.309 1.89622C191.532 2.3852 181.893 -1.03766 170.909 0.321218C159.198 1.76655 147.187 5.23263 135.908 8.62578C133.855 9.24173 134.73 12.462 136.794 11.8406Z" fill="black"/>
<path d="M218.167 5.90321C230.913 9.62324 243.631 11.3333 255.845 16.858C266.294 21.5857 276.355 26.8672 285.951 33.1564C287.755 34.3397 289.425 31.449 287.634 30.2766C276.625 23.0607 264.979 17.3497 253.006 11.9331C242.272 7.07838 230.283 5.96534 219.053 2.68836C216.983 2.08322 216.106 5.30076 218.167 5.90321Z" fill="black"/>
<path d="M322.947 62.4254C331.184 70.6814 335.371 82.1927 343.422 90.7106C344.902 92.2748 347.255 89.9137 345.78 88.3522C337.719 79.8234 332.953 68.9362 325.305 60.067C317.538 51.06 306.235 44.3548 296.529 37.6955C294.751 36.4771 293.087 39.3677 294.846 40.5753C304.652 47.3022 314.518 53.9777 322.947 62.4254Z" fill="black"/>
<path d="M353.449 102.766C352.506 100.835 349.629 102.526 350.569 104.449C361.337 126.502 373.791 148.703 372.576 174.014C372.47 176.165 375.807 176.154 375.909 174.014C377.155 148.136 364.466 125.324 353.449 102.766Z" fill="black"/>
<path d="M372.577 186.616C370.994 207.499 371.205 228.336 364.486 248.424C363.8 250.472 367.023 251.342 367.701 249.313C374.525 228.914 374.303 207.834 375.911 186.616C376.075 184.471 372.739 184.484 372.577 186.616Z" fill="black"/>
<path d="M358.554 262.51C354.374 273.678 350.352 284.722 344.065 294.92C337.836 305.021 328.097 312.853 319.703 321.063C318.166 322.568 320.524 324.926 322.061 323.421C330.841 314.831 339.883 306.729 346.945 296.603C353.858 286.688 357.578 274.596 361.768 263.396C362.525 261.378 359.299 260.513 358.554 262.51Z" fill="black"/>
<path d="M306.846 328.809C295.308 346.063 274.576 354.757 255.966 362.135C253.991 362.916 254.85 366.144 256.852 365.35C276.386 357.607 297.628 348.581 309.726 330.492C310.925 328.698 308.035 327.031 306.846 328.809Z" fill="black"/>
<path d="M237.437 366.581C227.779 370.455 217.667 370.045 207.477 370.915C197.022 371.809 187.869 375.21 177.952 369.715C176.069 368.67 174.386 371.552 176.269 372.595C184.416 377.109 192.267 376.55 201.242 375.178C213.666 373.276 226.49 374.543 238.323 369.799C240.292 369.007 239.436 365.782 237.437 366.581Z" fill="black"/>
<path d="M160.508 369.549C146.314 366.974 131.969 364.64 119.404 357.119C117.553 356.011 115.878 358.894 117.721 359.999C130.529 367.666 145.136 370.138 159.622 372.763C161.723 373.144 162.62 369.932 160.508 369.549Z" fill="black"/>
<path d="M84.4397 338.696C78.4369 333.566 73.847 327.114 67.5309 322.284C65.8208 320.976 64.1621 323.875 65.8478 325.164C72.5881 330.318 77.6075 337.232 84.0399 342.727C90.121 347.924 97.8041 351.053 104.385 355.548C106.165 356.766 107.832 353.876 106.068 352.668C98.9523 347.808 91.026 344.326 84.4397 338.696Z" fill="black"/>
<path d="M30.5021 278.069C29.7241 276.091 26.4985 276.953 27.2873 278.955C32.8552 293.114 41.8134 307.721 53.6542 317.487C55.2994 318.846 57.6714 316.498 56.0126 315.129C44.6203 305.733 35.8755 291.731 30.5021 278.069Z" fill="black"/>
<path d="M9.06754 222.928C8.94597 220.791 5.60959 220.777 5.73386 222.928C6.64427 238.775 16.1725 251.783 21.3541 266.355C22.07 268.368 25.2929 267.501 24.5716 265.469C19.517 251.256 9.95364 238.351 9.06754 222.928Z" fill="black"/>
<path d="M6.78425 208.411C3.99087 195.165 1.41362 180.326 5.30111 167.053C5.90625 164.986 2.68874 164.108 2.0863 166.167C-1.97409 180.034 0.646386 195.443 3.56943 209.297C4.01248 211.401 7.2273 210.507 6.78425 208.411Z" fill="black"/>
<path d="M209.263 17.6948C221.666 20.0452 234.131 21.8039 246.353 25.0214C260.936 28.8603 272.736 38.7912 285.995 45.4748C287.91 46.4393 289.599 43.5621 287.678 42.595C277.296 37.3621 267.932 29.6357 257.121 25.324C242.036 19.3049 226.002 17.4814 210.15 14.48C208.048 14.0801 207.154 17.295 209.263 17.6948Z" fill="black"/>
<path d="M296.554 49.0608C294.838 47.764 293.18 50.6601 294.871 51.9406C317.38 68.9496 333.292 90.6106 348.445 114.022C349.609 115.821 352.497 114.152 351.324 112.339C335.696 88.1927 319.76 66.5965 296.554 49.0608Z" fill="black"/>
<path d="M367.38 162.529C365.027 150.304 361.007 138.136 356.641 126.493C355.893 124.499 352.67 125.363 353.427 127.379C356.928 136.723 359.729 146.306 362.515 155.885C365.891 167.497 362.604 177.582 363.906 189.047C364.144 191.157 367.483 191.181 367.24 189.047C366.226 180.124 369.106 171.495 367.38 162.529Z" fill="black"/>
<path d="M345.849 271.796C351.26 262.138 355.537 252.14 359.473 241.812C364.044 229.822 364.816 217.422 367.531 204.998C367.991 202.902 364.776 202.01 364.317 204.112C361.953 214.921 361.245 225.913 357.901 236.506C354.218 248.152 348.929 259.48 342.969 270.113C341.918 271.991 344.798 273.671 345.849 271.796Z" fill="black"/>
<path d="M294.714 330.645C302.248 322.459 312.227 317.24 320.111 309.421C328.177 301.419 333.729 290.392 339.424 280.707C340.518 278.848 337.635 277.17 336.544 279.024C330.355 289.543 324.314 300.555 315.583 309.216C308.416 316.324 299.247 320.8 292.355 328.286C290.902 329.867 293.255 332.231 294.714 330.645Z" fill="black"/>
<path d="M215.644 364.646C240.225 364.168 260.913 350.744 281.548 338.833C283.412 337.757 281.731 334.875 279.865 335.953C259.79 347.54 239.59 360.845 215.644 361.312C213.496 361.353 213.491 364.689 215.644 364.646Z" fill="black"/>
<path d="M143.99 361.645C163.679 366.805 183.613 365.284 203.751 365.449C205.901 365.465 205.901 362.132 203.751 362.113C183.913 361.951 164.3 363.52 144.876 358.431C142.793 357.885 141.913 361.1 143.99 361.645Z" fill="black"/>
<path d="M97.9793 344.962C107.81 350.897 119.424 353.658 130.306 356.927C132.37 357.546 133.248 354.328 131.192 353.71C120.356 350.457 109.723 347.404 99.6624 342.082C89.71 336.817 81.7162 328.137 73.409 320.694C71.8124 319.265 69.4458 321.615 71.0505 323.052C79.7386 330.838 87.9432 338.902 97.9793 344.962Z" fill="black"/>
<path d="M65.2666 308.976C48.0552 299.074 38.5567 279.872 30.3332 262.571C29.412 260.629 26.5376 262.323 27.4561 264.254C35.9308 282.087 45.8427 301.646 63.5836 311.855C65.4503 312.931 67.1307 310.048 65.2666 308.976Z" fill="black"/>
<path d="M19.5457 220.602C17.9356 210.13 13.497 200.013 18.2409 189.534C19.1216 187.589 16.2471 185.895 15.3638 187.851C11.252 196.928 12.9027 205.078 15.0747 214.534C17.6141 225.583 17.0738 236.565 22.0689 246.961C22.9983 248.9 25.8754 247.206 24.9488 245.278C21.1207 237.313 20.8613 229.155 19.5457 220.602Z" fill="black"/>
<path d="M23.4935 131.533C16.9963 144.325 15.6023 158.473 14.0354 172.529C13.7977 174.666 17.1341 174.642 17.3691 172.529C18.8685 159.07 20.149 145.468 26.3733 133.216C27.3459 131.303 24.4687 129.615 23.4935 131.533Z" fill="black"/>
<path d="M53.0585 80.1196C48.9792 86.3008 43.2493 90.9529 38.8701 96.8665C33.8912 103.585 31.0438 111.425 26.8402 118.603C25.7488 120.462 28.6313 122.14 29.7174 120.286C33.5049 113.819 36.201 106.806 40.2938 100.514C44.7351 93.6895 51.4295 88.6349 55.9383 81.8027C57.127 80.0008 54.2364 78.3339 53.0585 80.1196Z" fill="black"/>
<path d="M93.9233 40.79C80.8858 46.9766 67.7267 56.5698 59.2952 68.3998C58.0444 70.1558 60.9404 71.82 62.175 70.0856C70.2985 58.6851 83.0686 49.6187 95.6064 43.6699C97.5488 42.7486 95.8549 39.8742 93.9233 40.79Z" fill="black"/>
<path d="M107.121 37.2415C120.048 31.6331 131.532 21.7319 145.874 19.9624C147.981 19.7004 148.006 16.364 145.874 16.626C130.8 18.4874 119.021 28.4696 105.438 34.3617C103.468 35.2154 105.17 38.0898 107.121 37.2415Z" fill="black"/>
<path d="M199.274 9.56905C185.91 6.60545 171.489 10.0202 158.587 13.6781C156.523 14.2643 157.401 17.4819 159.473 16.8956C171.803 13.3998 185.613 9.94996 198.388 12.7839C200.482 13.2486 201.373 10.0337 199.274 9.56905Z" fill="black"/>
<path d="M86.3957 65.0281C96.34 57.9797 105.887 50.4397 116.35 44.1559C128.434 36.8996 142.793 35.3057 155.892 30.6617C157.905 29.9485 157.038 26.7255 155.006 27.4468C142.974 31.7126 130.387 33.7712 118.722 39.0797C106.368 44.7043 95.7079 54.3543 84.7127 62.1482C82.9729 63.3801 84.637 66.2762 86.3957 65.0281Z" fill="black"/>
<path d="M244.476 29.371C217.771 24.0895 192.388 21.1286 165.248 25.5862C163.13 25.9347 164.03 29.1468 166.134 28.801C192.226 24.5163 217.893 27.5043 243.59 32.5859C245.689 33.0019 246.586 29.7871 244.476 29.371Z" fill="black"/>
<path d="M257.632 34.993C255.676 34.1636 253.974 37.0353 255.949 37.8728C265.321 41.8387 274.533 46.4448 283.418 51.4076C292.479 56.4676 297.039 65.1882 305.106 71.1181C306.84 72.3932 308.502 69.4971 306.789 68.2382C299.611 62.9621 295.202 55.2195 287.687 50.1108C278.609 43.9405 267.709 39.2587 257.632 34.993Z" fill="black"/>
<path d="M349.237 137.05C346.222 126.903 342.143 117.299 337.637 107.738C332.542 96.9344 324.661 88.5867 318.153 78.6963C316.975 76.9079 314.085 78.5774 315.273 80.3794C320.331 88.0626 326.536 94.8867 331.38 102.718C337.958 113.352 342.475 126.009 346.022 137.936C346.633 139.992 349.85 139.116 349.237 137.05Z" fill="black"/>
<path d="M347.826 148.118C350.789 158.838 353.788 169.468 354.512 180.628C355.152 190.503 351.751 200.398 352.132 210.373C352.213 212.515 355.549 212.523 355.466 210.373C355.028 198.883 358.31 187.79 357.565 176.282C356.93 166.483 353.642 156.639 351.041 147.232C350.471 145.163 347.253 146.041 347.826 148.118Z" fill="black"/>
<path d="M349.116 223.865C343.743 245.08 339.496 267.789 323.99 284.279C322.517 285.844 324.873 288.207 326.348 286.638C342.29 269.686 346.799 246.593 352.331 224.751C352.861 222.665 349.643 221.782 349.116 223.865Z" fill="black"/>
<path d="M319.046 295.3C320.556 293.768 318.2 291.409 316.687 292.941C303.48 306.33 291.658 320.994 275.332 330.798C273.493 331.903 275.168 334.788 277.016 333.678C293.581 323.728 305.635 308.894 319.046 295.3Z" fill="black"/>
<path d="M264.782 339.959C266.654 338.9 264.974 336.021 263.099 337.08C253.747 342.369 244.653 347.616 234.412 351.057C224.305 354.456 213.124 354.259 202.596 355.08C200.464 355.245 200.451 358.581 202.596 358.414C213.651 357.552 224.538 357.152 235.298 354.275C245.831 351.457 255.397 345.268 264.782 339.959Z" fill="black"/>
<path d="M133.814 349.902C151.782 355.781 171.289 361.473 190.086 356.221C192.156 355.643 191.275 352.425 189.2 353.006C170.992 358.093 152.09 352.377 134.7 346.687C132.649 346.015 131.779 349.238 133.814 349.902Z" fill="black"/>
<path d="M77.1218 307.47C76.4168 305.455 73.1938 306.322 73.907 308.357C76.8814 316.856 83.7352 321.156 91.1725 325.571C100.46 331.079 107.979 339.133 118.517 342.339C120.579 342.966 121.454 339.748 119.403 339.122C110.499 336.415 103.88 330.05 96.3783 324.874C88.9896 319.776 80.3502 316.688 77.1218 307.47Z" fill="black"/>
<path d="M62.6285 299.311C64.0063 300.967 66.3512 298.593 64.9869 296.953C56.8554 287.187 48.3942 277.439 44.2257 265.226C43.5341 263.202 40.3112 264.07 41.0082 266.112C45.3712 278.896 54.1133 289.086 62.6285 299.311Z" fill="black"/>
<path d="M34.4234 255.4C35.0124 257.464 38.2299 256.586 37.6383 254.513C35.704 247.724 32.8133 241.284 31.1843 234.403C29.4229 226.952 30.3982 219.056 28.7962 211.521C28.3504 209.419 25.1356 210.311 25.5814 212.41C26.9943 219.058 26.4702 225.777 27.521 232.444C28.78 240.43 32.219 247.67 34.4234 255.4Z" fill="black"/>
<path d="M25.8457 158.763C21.472 171.795 19.327 186.888 21.7421 200.51C22.1176 202.625 25.3297 201.725 24.9569 199.621C22.6417 186.553 24.8759 172.124 29.0632 159.649C29.7467 157.604 26.5265 156.734 25.8457 158.763Z" fill="black"/>
<path d="M43.4818 107.837C34.9099 119.157 33.9832 133.772 29.0773 146.71C28.3127 148.725 31.5384 149.587 32.2921 147.596C37.0927 134.939 37.9788 120.591 46.3616 109.52C47.6611 107.805 44.7623 106.146 43.4818 107.837Z" fill="black"/>
<path d="M53.0008 98.5571C58.728 87.8887 65.5305 76.0505 75.8773 69.2669C77.6684 68.0917 75.9989 65.2038 74.1943 66.387C63.353 73.4948 56.1211 85.6923 50.121 96.874C49.1025 98.7678 51.9823 100.454 53.0008 98.5571Z" fill="black"/>
<path d="M302.585 83.7117C310.67 93.6021 319.315 102.96 326.156 113.799C332.418 123.722 334.476 136.084 339.08 146.825C339.925 148.795 342.797 147.095 341.959 145.142C336.656 132.769 333.968 119.934 326.723 108.45C320.555 98.6783 312.229 90.263 304.943 81.3533C303.582 79.6891 301.234 82.0611 302.585 83.7117Z" fill="black"/>
<path d="M345.332 230.101C349.111 204.79 350.221 180.206 344.478 155.057C344 152.961 340.785 153.85 341.263 155.943C346.823 180.292 345.783 204.66 342.117 229.215C341.801 231.317 345.016 232.222 345.332 230.101Z" fill="black"/>
<path d="M311.943 291.662C316.916 283.938 324.28 279.054 328.897 270.825C333.814 262.063 337.529 251.992 340.887 242.523C341.605 240.492 338.382 239.624 337.669 241.637C334.357 250.982 330.421 260.253 326.017 269.142C321.844 277.56 313.998 282.312 309.063 289.979C307.893 291.791 310.781 293.464 311.943 291.662Z" fill="black"/>
<path d="M248.922 336.594C258.388 333.023 267.301 328.511 276.124 323.575C286.079 318.005 293.578 309.965 302.593 303.122C304.282 301.839 302.623 298.94 300.908 300.242C293.9 305.561 287.773 311.902 280.614 317.032C270.983 323.929 259.034 329.23 248.036 333.379C246.042 334.13 246.907 337.353 248.922 336.594Z" fill="black"/>
<path d="M179.62 347.692C189.221 346.603 198.922 349.083 208.437 347.749C219.135 346.249 229.206 342.637 239.342 339.031C241.355 338.315 240.488 335.092 238.456 335.816C229.614 338.96 220.84 341.94 211.663 343.956C201.232 346.249 190.196 343.156 179.62 344.355C177.507 344.596 177.486 347.935 179.62 347.692Z" fill="black"/>
<path d="M166.664 342.504C146.327 338.976 124.494 336.653 107.89 323.204C106.234 321.864 103.859 324.209 105.532 325.563C122.681 339.454 144.712 342.067 165.778 345.719C167.88 346.084 168.78 342.872 166.664 342.504Z" fill="black"/>
<path d="M96.8919 319.3C98.5182 320.689 100.887 318.341 99.2503 316.942C85.8102 305.463 71.1842 295.375 60.9535 280.684C59.7324 278.934 56.8391 280.598 58.0737 282.368C68.4881 297.318 83.2087 307.614 96.8919 319.3Z" fill="black"/>
<path d="M51.4201 271.279C52.5952 273.067 55.4859 271.398 54.2999 269.596C48.7483 261.156 43.2291 252.973 39.3848 243.572C35.5162 234.114 35.0759 223.454 33.6792 213.439C33.382 211.318 30.1699 212.226 30.4644 214.328C31.8881 224.542 32.8633 234.63 36.17 244.461C39.4469 254.205 45.8306 262.78 51.4201 271.279Z" fill="black"/>
<path d="M34.9694 201.077C29.0368 184.216 33.4295 165.986 37.8249 149.274C38.3733 147.191 35.1558 146.308 34.6101 148.388C30.0769 165.624 25.6356 184.573 31.7546 201.963C32.4624 203.978 35.6853 203.111 34.9694 201.077Z" fill="black"/>
<path d="M44.1373 134.306C46.2553 125.683 51.8231 119.026 56.3293 111.584C60.8895 104.046 63.3343 95.8092 72.063 91.9811C74.0297 91.1193 72.3304 88.2449 70.3799 89.1012C62.7832 92.4323 59.1281 99.0186 55.4756 106.121C50.7209 115.368 43.4484 123.135 40.9225 133.42C40.4092 135.508 43.624 136.395 44.1373 134.306Z" fill="black"/>
<path d="M109.022 54.8779C97.0972 59.9055 87.9202 68.826 78.6647 77.6168C77.1033 79.1 79.4644 81.453 81.0232 79.9726C89.8004 71.6383 98.5777 62.8691 109.908 58.0927C111.858 57.2715 111.002 54.0431 109.022 54.8779Z" fill="black"/>
<path d="M118.817 47.9078C116.813 48.6399 117.677 51.8629 119.703 51.1226C126.036 48.8128 131.993 45.625 138.43 43.5961C145.4 41.4025 152.965 41.7564 160.021 39.7086C162.082 39.1089 161.204 35.8913 159.132 36.4911C152.951 38.2849 146.54 38.6631 140.222 39.7545C132.709 41.0513 125.887 45.3278 118.817 47.9078Z" fill="black"/>
<path d="M171.094 35.226C183.262 32.1327 197.156 33.1188 209.234 36.1742C211.32 36.701 212.206 33.4862 210.12 32.9594C197.407 29.7418 183 28.7612 170.208 32.0111C168.125 32.5406 169.009 35.7555 171.094 35.226Z" fill="black"/>
<path d="M259.49 45.9996C248.195 38.6838 234.328 38.8621 221.753 35.1583C219.686 34.5477 218.811 37.7653 220.867 38.3731C233.134 41.9878 246.793 41.7473 257.807 48.8794C259.62 50.0519 261.29 47.164 259.49 45.9996Z" fill="black"/>
<path d="M270.27 51.4767C268.322 50.6122 266.623 53.4866 268.587 54.3565C278.942 58.9491 290.699 64.5251 297.699 73.7617C298.982 75.4502 301.878 73.7914 300.579 72.0787C293.16 62.291 281.255 56.3502 270.27 51.4767Z" fill="black"/>
<path d="M257.162 320.616C247.371 324.723 237.792 329.286 227.726 332.695C215.737 336.755 202.813 335.307 190.421 336.696C188.308 336.934 188.286 340.273 190.421 340.032C201.705 338.768 213.016 339.403 224.192 337.163C235.86 334.827 247.174 328.394 258.048 323.831C260.001 323.013 259.145 319.784 257.162 320.616Z" fill="black"/>
<path d="M112.916 320.29C135.05 330.237 156.692 338.015 181.162 339.588C183.31 339.725 183.296 336.392 181.162 336.254C157.54 334.736 135.995 327.025 114.599 317.411C112.654 316.538 110.958 319.41 112.916 320.29Z" fill="black"/>
<path d="M104.525 310.089C96.5334 304.337 88.599 297.962 81.5427 291.081C75.6182 285.305 73.6758 277.422 68.3079 271.386C66.8761 269.776 64.5258 272.143 65.9495 273.745C68.9103 277.073 70.5204 281.058 72.5574 284.954C74.6295 288.914 77.982 292.264 81.1401 295.346C87.7318 301.773 95.3717 307.59 102.841 312.969C104.589 314.228 106.253 311.334 104.525 310.089Z" fill="black"/>
<path d="M57.9976 262.219C58.7649 264.202 61.9905 263.34 61.2124 261.333C58.2678 253.725 54.2803 246.606 51.4843 238.934C47.6427 228.385 46.0515 215.957 45.1708 204.87C45.0006 202.741 41.6642 202.725 41.8344 204.87C42.5773 214.228 44.2631 223.325 46.3568 232.472C48.7962 243.111 54.0858 252.12 57.9976 262.219Z" fill="black"/>
<path d="M45.4893 195.585C44.9166 185.811 44.2466 176.021 45.6081 166.274C46.8589 157.34 51.7946 149.27 53.2913 140.32C53.6425 138.215 50.4277 137.316 50.0738 139.431C48.5744 148.411 44.4627 156.551 42.3933 165.388C40.1403 175.01 41.5856 185.849 42.1556 195.585C42.2799 197.722 45.6162 197.736 45.4893 195.585Z" fill="black"/>
<path d="M58.3893 129.162C66.9396 111.832 74.8037 92.6617 91.3776 81.4232C93.1444 80.2238 91.4802 77.3331 89.6945 78.5434C72.5588 90.1628 64.3677 109.53 55.5094 127.479C54.5612 129.4 57.4383 131.091 58.3893 129.162Z" fill="black"/>
<path d="M141.385 47.3119C125.12 52.7366 111.866 63.2024 97.6531 72.4282C95.8566 73.5952 97.5288 76.4832 99.3389 75.308C113.292 66.2497 126.289 55.8596 142.271 50.5267C144.3 49.8513 143.43 46.6311 141.385 47.3119Z" fill="black"/>
<path d="M154.071 47.5124C163.189 44.7623 172.02 42.0364 181.546 41.0503C190.971 40.0751 200.629 42.5092 209.906 43.9113C212.008 44.2301 212.913 41.0179 210.792 40.6964C200.999 39.2133 191.487 37.4086 181.546 37.7166C171.866 38.0165 162.349 41.5339 153.185 44.2976C151.132 44.9163 152.007 48.1338 154.071 47.5124Z" fill="black"/>
<path d="M221.21 48.4304C238.046 47.5956 253.385 56.454 267.347 64.872C269.192 65.985 270.867 63.0998 269.03 61.9921C254.596 53.2878 238.614 44.2349 221.21 45.094C219.071 45.202 219.06 48.5357 221.21 48.4304Z" fill="black"/>
<path d="M280.921 71.686C279.052 70.6135 277.374 73.4933 279.238 74.5658C286.486 78.7316 291.033 85.6017 296.582 91.6261C301.99 97.4966 309.003 101.97 310.081 110.567C310.346 112.671 313.683 112.695 313.415 110.567C312.399 102.457 307.312 97.3048 301.599 91.8855C294.545 85.1964 289.515 76.6244 280.921 71.686Z" fill="black"/>
<path d="M318.671 122.314C323.907 132.45 329.426 142.635 330.831 154.127C331.09 156.234 334.427 156.259 334.167 154.127C332.682 141.981 327.092 131.358 321.551 120.631C320.565 118.718 317.685 120.406 318.671 122.314Z" fill="black"/>
<path d="M337.897 164.821C337.754 162.687 334.42 162.673 334.563 164.821C334.985 171.145 336.3 177.361 336.435 183.707C336.581 190.553 334.307 197.31 334.258 204.199C334.242 206.349 337.578 206.346 337.592 204.199C337.64 197.293 339.366 190.586 339.769 183.707C340.136 177.478 338.31 171.002 337.897 164.821Z" fill="black"/>
<path d="M327.333 251.118C333.611 240.536 338.312 227.744 338.725 215.368C338.795 213.218 335.461 213.223 335.389 215.368C334.997 227.131 330.41 239.393 324.453 249.435C323.353 251.288 326.236 252.966 327.333 251.118Z" fill="black"/>
<path d="M322.278 261.019C323.453 259.209 320.565 257.539 319.398 259.336C312.868 269.385 309.529 281.829 300.13 289.782C298.485 291.173 300.857 293.521 302.486 292.14C312.133 283.979 315.58 271.322 322.278 261.019Z" fill="black"/>
<path d="M267.979 322.243C278.785 318.199 287.368 308.995 294.681 300.399C296.064 298.769 293.716 296.4 292.322 298.04C285.431 306.142 277.286 315.214 267.093 319.028C265.096 319.774 265.961 323 267.979 322.243Z" fill="black"/>
<path d="M72.8576 260.923C67.6572 250.657 61.9273 240.767 57.9641 229.92C54.3441 220.019 54.8277 208.759 52.8663 198.436C52.4665 196.326 49.2517 197.223 49.6515 199.325C51.9478 211.406 51.9992 223.282 56.2541 234.932C59.7768 244.568 65.3555 253.48 69.9778 262.606C70.9503 264.524 73.8275 262.836 72.8576 260.923Z" fill="black"/>
<path d="M62.4223 124.602C54.6852 146.093 49.0012 166.984 49.3172 190.072C49.347 192.222 52.6833 192.225 52.6536 190.072C52.3457 167.568 58.0918 146.447 65.6371 125.488C66.3693 123.46 63.1436 122.595 62.4223 124.602Z" fill="black"/>
<path d="M103.103 77.0603C100.199 80.032 96.5601 81.8178 93.0508 83.9547C89.4335 86.1564 86.5375 89.4685 83.8386 92.6645C78.2492 99.286 73.2838 106.858 68.7641 114.234C67.6376 116.073 70.5228 117.748 71.644 115.917C76.477 108.031 81.8827 100.132 87.8504 93.0643C92.8455 87.1479 100.177 84.8273 105.462 79.4188C106.964 77.8789 104.608 75.5205 103.103 77.0603Z" fill="black"/>
<path d="M113.067 69.0728C111.117 69.9724 112.813 72.8468 114.75 71.9526C122.62 68.319 129.749 63.4292 137.967 60.5305C147.263 57.2508 157.113 55.0652 166.857 53.7118C168.978 53.4173 168.073 50.2024 165.971 50.4942C156.094 51.8693 146.609 54.425 137.081 57.3129C128.515 59.9118 121.137 65.3473 113.067 69.0728Z" fill="black"/>
<path d="M228.328 54.6357C219.883 53.6685 212.1 49.5649 203.682 48.8246C194.122 47.9872 184.685 49.1164 175.192 50.2321C173.082 50.4807 173.061 53.8198 175.192 53.5686C183.472 52.596 191.655 51.7531 200.003 51.8369C209.65 51.9341 218.757 56.8752 228.328 57.9694C230.463 58.2152 230.441 54.8788 228.328 54.6357Z" fill="black"/>
<path d="M240.468 59.2211C238.512 58.3944 236.81 61.2662 238.785 62.1009C255.977 69.3573 274.621 75.8545 286.515 91.0642C287.839 92.7581 290.181 90.3808 288.874 88.7058C276.801 73.2691 257.936 66.5936 240.468 59.2211Z" fill="black"/>
<path d="M292.599 97.9453C302.149 110.664 312.955 122.454 319.149 137.307C319.965 139.263 323.191 138.406 322.364 136.421C316.032 121.235 305.242 109.265 295.479 96.2623C294.203 94.5657 291.305 96.2244 292.599 97.9453Z" fill="black"/>
<path d="M326.083 147.458C325.322 145.469 322.096 146.331 322.869 148.344C325.732 155.816 328.626 163.173 330.449 170.985C332.778 180.973 331.097 191.474 330.368 201.543C330.211 203.688 333.548 203.674 333.702 201.543C334.369 192.355 335.909 182.767 334.285 173.598C332.667 164.477 329.385 156.073 326.083 147.458Z" fill="black"/>
<path d="M317.783 258.44C324.98 244.176 332.368 228.472 330.291 212.093C330.023 209.991 326.684 209.964 326.954 212.093C328.962 227.913 321.851 242.988 314.903 256.757C313.936 258.673 316.813 260.361 317.783 258.44Z" fill="black"/>
<path d="M309.503 270.271C310.416 268.339 307.542 266.645 306.624 268.588C303.263 275.693 297.106 280.38 291.841 285.986C286.565 291.602 282.853 298.443 274.621 299.937C272.506 300.32 273.406 303.535 275.507 303.154C282.969 301.798 287.489 296.414 292.087 290.811C297.83 283.816 305.551 278.627 309.503 270.271Z" fill="black"/>
<path d="M235.933 325.232C247.085 323.212 256.659 317.273 266.231 311.514C268.071 310.406 266.396 307.521 264.548 308.634C255.219 314.248 245.921 320.048 235.047 322.017C232.932 322.398 233.831 325.613 235.933 325.232Z" fill="black"/>
<path d="M188.511 331.289C195.051 330.954 201.47 332.227 208.003 332.232C213.932 332.238 219.835 330.152 225.684 329.417C227.786 329.153 227.813 325.813 225.684 326.081C219.749 326.829 213.973 328.42 208.003 328.896C201.524 329.415 195.03 327.621 188.511 327.956C186.372 328.064 186.361 331.4 188.511 331.289Z" fill="black"/>
<path d="M143.451 324.076C153.865 329.438 166.246 333.272 178.046 332.983C180.191 332.931 180.197 329.595 178.046 329.649C166.892 329.922 154.984 326.267 145.134 321.196C143.226 320.212 141.538 323.09 143.451 324.076Z" fill="black"/>
<path d="M135.429 316.934C125.473 311.301 113.457 308.781 105.29 300.346C103.791 298.801 101.435 301.16 102.932 302.705C111.342 311.39 123.501 314.016 133.745 319.814C135.62 320.875 137.301 317.993 135.429 316.934Z" fill="black"/>
<path d="M75.0874 270.26C74.1932 268.306 71.3187 270.003 72.2075 271.943C76.7974 281.971 86.2825 289.554 94.9165 296.011C96.6401 297.299 98.3015 294.403 96.5996 293.131C88.4194 287.015 79.4287 279.745 75.0874 270.26Z" fill="black"/>
<path d="M105.379 291.63C113.899 297.173 121.207 304.23 130.219 309.031C139.993 314.239 151.38 316.479 161.867 319.78C163.926 320.426 164.799 317.205 162.754 316.562C151.296 312.959 139.547 310.227 128.876 304.541C121.01 300.348 114.539 293.613 107.062 288.75C105.254 287.575 103.585 290.463 105.379 291.63Z" fill="black"/>
<path d="M101.198 283.359C85.5617 268.598 74.915 250.822 65.4381 231.744C64.4817 229.82 61.6046 231.509 62.5583 233.429C72.2378 252.916 82.871 270.641 98.8397 285.718C100.404 287.193 102.765 284.837 101.198 283.359Z" fill="black"/>
<path d="M59.5747 222.233C60.1177 224.313 63.3352 223.43 62.7895 221.347C60.8769 214.026 59.5126 206.578 58.1564 199.135C56.5625 190.371 59.8368 182.78 59.7557 174.235C59.7341 172.084 56.3977 172.084 56.4193 174.235C56.495 181.988 53.7908 188.793 54.4796 196.693C55.2226 205.203 57.4189 213.985 59.5747 222.233Z" fill="black"/>
<path d="M57.432 162.124C56.7431 164.167 59.9633 165.036 60.6468 163.01C63.6212 154.209 65.0746 145.267 69.2781 136.873C72.9954 129.446 77.0828 122.293 81.9402 115.55C83.2018 113.799 80.3058 112.137 79.0604 113.866C73.5763 121.479 69.1809 129.63 64.9881 138.007C61.1952 145.577 60.1227 154.16 57.432 162.124Z" fill="black"/>
<path d="M122.357 74.2667C116.017 79.7265 108.077 82.728 101.504 87.8798C94.7853 93.1478 89.7038 101.004 84.6222 107.777C83.3282 109.498 86.2269 111.156 87.502 109.46C93.3346 101.687 99.1186 93.3748 107.215 87.7826C112.961 83.814 119.375 81.2259 124.716 76.6252C126.347 75.2204 123.978 72.87 122.357 74.2667Z" fill="black"/>
<path d="M185.012 55.7098C166.453 53.8377 149.625 62.1152 133.003 69.2176C131.03 70.0605 132.73 72.9322 134.686 72.0974C150.789 65.2166 167.02 57.2308 185.012 59.0435C187.152 59.2597 187.13 55.9233 185.012 55.7098Z" fill="black"/>
<path d="M194.063 59.515C209.011 61.4385 223.964 62.1085 238.146 67.6575C240.154 68.4409 241.013 65.2153 239.035 64.4426C224.55 58.7775 209.319 58.1426 194.063 56.1786C191.934 55.9057 191.961 59.2449 194.063 59.515Z" fill="black"/>
<path d="M274.927 82.9416C267.134 76.9549 258.359 73.27 249.398 69.4014C247.448 68.5585 245.746 71.4303 247.715 72.2812C254.801 75.3394 261.841 78.2814 268.43 82.3364C276.643 87.3883 282.624 95.3606 288.975 102.433C290.415 104.035 292.766 101.669 291.334 100.075C286.096 94.2421 281.184 87.7449 274.927 82.9416Z" fill="black"/>
<path d="M296.001 109.134C294.27 107.854 292.611 110.75 294.318 112.014C306.286 120.87 311.921 135.971 316.714 149.511C317.427 151.524 320.65 150.657 319.931 148.625C314.799 134.129 308.774 118.587 296.001 109.134Z" fill="black"/>
<path d="M323.045 207.056C326.97 200.607 326.206 194.11 325.317 186.864C324.288 178.465 325.557 170.193 322.648 162.075C321.926 160.068 318.703 160.932 319.43 162.961C321.956 170.007 321.383 177.155 321.748 184.49C322.113 191.895 324.363 198.481 320.165 205.373C319.044 207.215 321.929 208.89 323.045 207.056Z" fill="black"/>
<path d="M312.488 248.568C318.378 239.631 320.514 229.182 322.778 218.883C323.24 216.787 320.025 215.896 319.564 217.997C317.362 228.012 315.338 238.186 309.608 246.885C308.422 248.687 311.31 250.357 312.488 248.568Z" fill="black"/>
<path d="M307.362 257.021C303.731 261.854 301.084 267.327 296.945 271.779C293.144 275.867 288.387 278.846 284.794 283.172C283.432 284.811 285.777 287.186 287.152 285.53C291.083 280.797 296.264 277.406 300.438 272.914C304.353 268.705 306.803 263.28 310.242 258.704C311.536 256.983 308.637 255.324 307.362 257.021Z" fill="black"/>
<path d="M251.657 310.614C262.052 307.123 272.81 301.215 280.223 293.013C281.66 291.422 279.31 289.055 277.864 290.655C270.865 298.4 260.596 304.097 250.771 307.399C248.742 308.08 249.612 311.3 251.657 310.614Z" fill="black"/>
<path d="M241.561 311.179C231.258 314.256 221.743 320.602 210.715 320.656C208.565 320.664 208.562 324.001 210.715 323.99C222.108 323.936 231.806 317.571 242.447 314.394C244.503 313.781 243.628 310.563 241.561 311.179Z" fill="black"/>
<path d="M200.982 324.988C203.103 324.655 202.198 321.443 200.096 321.773C190.554 323.267 179.889 324.477 170.587 321.235C168.55 320.527 167.683 323.748 169.701 324.453C179.608 327.905 190.83 326.579 200.982 324.988Z" fill="black"/>
<path d="M87.9118 114.298C83.3084 122.581 77.2516 129.872 73.3803 138.569C69.1632 148.043 67.961 158.917 65.6728 168.953C65.1974 171.047 68.4122 171.938 68.8903 169.839C70.8976 161.035 72.4807 152.171 75.1093 143.518C78.2295 133.257 85.6641 125.204 90.7916 115.981C91.8371 114.101 88.9573 112.418 87.9118 114.298Z" fill="black"/>
<path d="M93.0422 107.842C91.6834 109.487 94.0283 111.859 95.4007 110.2C108.195 94.712 124.188 83.814 141.502 73.983C143.372 72.9213 141.691 70.0388 139.819 71.1032C122.065 81.1854 106.174 91.9429 93.0422 107.842Z" fill="black"/>
<path d="M195.588 62.4905C189.075 62.8822 182.997 60.5075 176.413 61.4207C167.582 62.6418 158.729 65.065 150.241 67.7585C148.198 68.4069 149.071 71.6271 151.127 70.9733C157.937 68.8121 164.894 67.1696 171.845 65.5351C180.13 63.5873 187.449 66.3159 195.588 65.8269C197.725 65.6972 197.739 62.3608 195.588 62.4905Z" fill="black"/>
<path d="M254.748 80.9959C247.078 76.206 238.995 72.4428 230.699 68.8821C223.226 65.6754 214.979 65.0135 207.185 62.8847C205.107 62.3174 204.227 65.5349 206.299 66.1022C215.03 68.485 223.753 69.5035 232.147 73.1047C239.39 76.2114 246.379 79.6991 253.065 83.8757C254.894 85.0185 256.566 82.1332 254.748 80.9959Z" fill="black"/>
<path d="M260.982 85.9427C259.175 84.7621 257.508 87.6501 259.299 88.8225C266.104 93.2693 272.955 97.6728 278.864 103.3C284.658 108.817 287.787 116.616 293.463 122.316C294.981 123.843 297.339 121.484 295.821 119.958C290.14 114.255 286.633 106.888 281.222 100.942C275.676 94.8497 267.806 90.4002 260.982 85.9427Z" fill="black"/>
<path d="M315.057 178.26C315.022 180.413 318.355 180.408 318.39 178.26C318.682 160.465 309.486 145.053 301.452 129.789C300.45 127.884 297.57 129.57 298.572 131.472C306.325 146.201 315.338 161.073 315.057 178.26Z" fill="black"/>
<path d="M314.385 229.672C318.627 215.662 318.024 201.298 318.662 186.831C318.756 184.678 315.423 184.689 315.328 186.831C314.701 200.987 315.325 215.059 311.17 228.786C310.544 230.85 313.764 231.725 314.385 229.672Z" fill="black"/>
<path d="M284.673 280.748C290.52 274.783 296.544 269.158 301.177 262.161C305.718 255.3 308.009 247.008 310.643 239.312C311.34 237.269 308.12 236.402 307.428 238.423C304.83 246.02 302.358 253.503 298.297 260.478C294.291 267.359 287.832 272.76 282.315 278.39C280.81 279.927 283.166 282.285 284.673 280.748Z" fill="black"/>
<path d="M240.8 310.044C254.053 304.547 268.523 298.149 276.49 285.576C277.643 283.753 274.758 282.08 273.61 283.89C266.164 295.642 252.297 301.694 239.914 306.829C237.958 307.64 238.814 310.868 240.8 310.044Z" fill="black"/>
<path d="M185.514 315.711C191.117 318.586 196.32 318.362 202.447 317.381C211.035 316.009 220.112 316.654 228.241 313.245C230.194 312.424 229.338 309.195 227.355 310.027C221.647 312.421 215.728 312.613 209.636 313.015C201.885 313.526 194.748 316.706 187.197 312.832C185.287 311.851 183.601 314.731 185.514 315.711Z" fill="black"/>
<path d="M145.251 307.758C154.19 312.854 164.251 314.418 174.268 316.066C176.373 316.411 177.275 313.199 175.154 312.851C165.445 311.252 155.611 309.825 146.934 304.879C145.065 303.811 143.384 306.694 145.251 307.758Z" fill="black"/>
<path d="M122.753 292.799C118.509 289.346 115.2 284.973 110.748 281.728C109.005 280.461 107.344 283.357 109.065 284.608C113.738 288.015 117.293 292.634 121.77 296.276C126.076 299.777 131.409 301.852 136.045 304.87C137.852 306.047 139.522 303.157 137.728 301.99C132.806 298.786 127.332 296.525 122.753 292.799Z" fill="black"/>
<path d="M102.827 277.074C94.7841 270.758 88.5625 261.319 84.5507 251.985C83.7052 250.013 80.8334 251.715 81.6709 253.668C85.7637 263.191 92.2528 272.981 100.468 279.433C102.138 280.743 104.518 278.401 102.827 277.074Z" fill="black"/>
<path d="M80.3912 243.881C76.6793 234.36 69.7985 225.686 68.8881 215.266C68.7044 213.14 65.368 213.121 65.5544 215.266C66.5053 226.156 73.3051 234.844 77.1764 244.767C77.949 246.747 81.1746 245.888 80.3912 243.881Z" fill="black"/>
<path d="M61.8658 176.573C59.3614 186.166 61.4875 196.724 63.7946 206.158C64.3052 208.246 67.5227 207.36 67.0122 205.272C64.8428 196.411 62.7248 186.477 65.0806 177.459C65.6263 175.376 62.4088 174.493 61.8658 176.573Z" fill="black"/>
<path d="M104.045 107.989C97.5906 114.562 92.3496 121.681 88.7944 130.218C87.9677 132.203 91.1961 133.06 92.0092 131.104C95.3294 123.137 100.387 116.475 106.403 110.348C107.91 108.813 105.552 106.452 104.045 107.989Z" fill="black"/>
<path d="M132.178 83.275C127.964 86.1602 124.209 89.5561 119.781 92.1442C116.601 94.0028 113.311 96.0749 111.571 99.4356C110.582 101.343 113.459 103.029 114.448 101.119C116.223 97.6958 119.967 95.9047 123.166 94.0271C126.997 91.7767 130.206 88.6565 133.861 86.1548C135.623 84.9472 133.959 82.0566 132.178 83.275Z" fill="black"/>
<path d="M164.441 70.5086C155.166 72.1592 147.083 77.0922 138.13 79.7722C136.077 80.3881 136.953 83.6084 139.017 82.9897C147.964 80.3098 156.06 75.374 165.327 73.7261C167.442 73.3479 166.542 70.1357 164.441 70.5086Z" fill="black"/>
<path d="M186.325 69.3815C183.156 69.7894 179.598 68.6926 176.37 68.5954C174.216 68.5305 174.225 71.8642 176.37 71.9291C182.456 72.1155 187.608 72.2641 193.703 71.9129C200.297 71.5292 207.232 75.0061 213.721 75.9463C215.825 76.2515 216.73 73.0367 214.61 72.7314C208.453 71.8372 202.493 69.1762 196.288 68.752C192.749 68.5116 189.856 68.9249 186.325 69.3815Z" fill="black"/>
<path d="M225.358 75.6913C223.288 75.0888 222.41 78.3064 224.471 78.9061C235.956 82.2507 248.083 88.8478 257.454 96.2636C259.124 97.5846 261.499 95.2397 259.813 93.9051C249.92 86.076 237.509 79.2303 225.358 75.6913Z" fill="black"/>
<path d="M267.856 100.915C266.911 98.9835 264.033 100.675 264.976 102.598C266.276 105.254 268.761 106.829 270.795 108.866C272.316 110.387 274.675 108.031 273.154 106.507C271.336 104.686 269.015 103.282 267.856 100.915Z" fill="black"/>
<path d="M278.371 111.814C276.534 110.682 274.861 113.567 276.688 114.694C286.521 120.751 294.04 131.252 297.414 142.231C298.043 144.279 301.263 143.403 300.629 141.342C296.998 129.531 288.95 118.33 278.371 111.814Z" fill="black"/>
<path d="M311.807 192.916C311.847 186.787 312.25 180.492 311.355 174.4C310.259 166.906 307.146 160.298 304.707 153.195C304.013 151.175 300.79 152.042 301.489 154.082C303.281 159.287 305.517 164.312 307.098 169.591C309.302 176.964 308.519 185.314 308.473 192.916C308.459 195.067 311.793 195.067 311.807 192.916Z" fill="black"/>
<path d="M311.005 205.075C310.43 203.006 307.212 203.887 307.79 205.961C310.908 217.184 305.399 231.267 300.175 240.992C299.159 242.886 302.039 244.569 303.054 242.675C308.741 232.091 314.39 217.248 311.005 205.075Z" fill="black"/>
<path d="M297.871 255.27C298.932 253.398 296.053 251.718 294.991 253.587C288.016 265.893 276.364 277.509 264.834 285.598C263.089 286.822 264.75 289.715 266.517 288.478C278.595 280.006 290.55 268.184 297.871 255.27Z" fill="black"/>
<path d="M257.79 290.785C246.07 297.142 235.005 304.942 221.206 305.379C219.061 305.447 219.052 308.783 221.206 308.716C235.667 308.256 247.159 300.344 259.473 293.665C261.364 292.639 259.681 289.759 257.79 290.785Z" fill="black"/>
<path d="M210.021 306.93C207.706 307.573 205.48 308.591 203.054 308.724C200.914 308.84 200.904 312.174 203.054 312.057C205.812 311.909 208.276 310.877 210.907 310.145C212.977 309.572 212.096 306.352 210.021 306.93Z" fill="black"/>
<path d="M192.375 310.509C194.433 309.906 193.555 306.689 191.489 307.294C184.332 309.388 177.273 307.361 170.141 306.181C168.04 305.832 167.137 309.047 169.255 309.398C176.984 310.676 184.622 312.775 192.375 310.509Z" fill="black"/>
<path d="M159.251 306.8C161.304 307.459 162.176 304.239 160.137 303.585C155.428 302.07 150.854 300.179 146.14 298.674C141.804 297.293 138.055 294.511 133.829 292.839C131.828 292.047 130.966 295.273 132.943 296.053C137.19 297.734 140.934 300.362 145.251 301.891C149.909 303.539 154.55 305.287 159.251 306.8Z" fill="black"/>
<path d="M111.229 278.737C115.581 281.819 119.863 284.834 123.683 288.584C125.22 290.092 127.579 287.733 126.041 286.226C122.738 282.981 119.123 280.161 115.322 277.521C111.024 274.539 107.933 270.892 104.551 266.956C103.146 265.324 100.798 267.693 102.192 269.314C105.01 272.591 107.666 276.211 111.229 278.737Z" fill="black"/>
<path d="M95.6341 262.678C96.6147 264.594 99.4918 262.905 98.5139 260.995C94.3941 252.964 88.0077 246.361 84.4336 238.021C83.588 236.049 80.7163 237.748 81.5537 239.704C85.1278 248.044 91.5142 254.647 95.6341 262.678Z" fill="black"/>
<path d="M79.9841 228.396C75.2456 219.778 72.6495 210.55 72.4307 200.705C72.382 198.557 69.0456 198.552 69.0943 200.705C69.3266 211.12 72.0903 220.961 77.1043 230.079C78.1417 231.965 81.0215 230.282 79.9841 228.396Z" fill="black"/>
<path d="M71.3789 163.568C69.5229 173.528 65.7543 182.762 68.0452 192.988C68.5125 195.087 71.7274 194.195 71.26 192.101C69.1231 182.562 72.8674 173.72 74.5937 164.454C74.9854 162.352 71.7733 161.455 71.3789 163.568Z" fill="black"/>
<path d="M77.9282 157.786C79.4627 151.124 83.0881 145.296 85.3385 138.888C86.0544 136.854 82.8315 135.987 82.1237 137.999C79.8706 144.418 76.2506 150.221 74.7134 156.899C74.2298 158.993 77.4474 159.882 77.9282 157.786Z" fill="black"/>
<path d="M104.81 123.718C109.248 115.586 115.475 109.016 122.707 103.305C124.393 101.973 122.016 99.6283 120.349 100.947C112.903 106.828 106.495 113.671 101.93 122.035C100.9 123.923 103.78 125.606 104.81 123.718Z" fill="black"/>
<path d="M130.893 96.5287C138.36 93.2571 144.428 87.4893 152.357 85.2092C154.421 84.6176 153.543 81.4 151.471 81.9944C143.239 84.3582 136.953 90.2557 129.21 93.6488C127.243 94.5106 128.942 97.3824 130.893 96.5287Z" fill="black"/>
<path d="M186.377 74.5221C177.67 74.7274 169.462 77.175 161.107 79.3984C159.029 79.9522 159.912 83.1697 161.993 82.6132C170.059 80.4682 177.961 78.0557 186.377 77.8558C188.524 77.8072 188.527 74.4708 186.377 74.5221Z" fill="black"/>
<path d="M198.676 76.4336C196.45 75.9014 194.205 75.534 191.933 75.2612C189.802 75.0072 189.826 78.3436 191.933 78.5976C193.908 78.8353 195.856 79.1865 197.79 79.6485C199.881 80.1483 200.767 76.9334 198.676 76.4336Z" fill="black"/>
<path d="M223.133 82.7283C219.997 81.8476 217.074 80.4212 213.867 79.7728C210.428 79.0758 206.897 78.6895 203.42 78.2221C201.294 77.9357 201.321 81.2749 203.42 81.5558C207.03 82.0421 210.663 82.5203 214.235 83.2416C216.982 83.7981 219.546 85.1867 222.247 85.9431C224.322 86.5267 225.2 83.3091 223.133 82.7283Z" fill="black"/>
<path d="M242.426 90.3199C238.679 88.6747 234.367 88.1857 230.939 85.8732C229.151 84.6656 227.484 87.5563 229.256 88.753C232.73 91.0953 236.969 91.541 240.743 93.1998C242.693 94.0562 244.39 91.1817 242.426 90.3199Z" fill="black"/>
<path d="M247.218 93.4835C245.192 92.7433 244.33 95.9689 246.332 96.6983C251.951 98.7488 255.955 103.536 260.755 106.907C262.519 108.145 264.183 105.251 262.438 104.028C257.324 100.437 253.218 95.6744 247.218 93.4835Z" fill="black"/>
<path d="M267.967 109.841C266.489 108.275 264.133 110.638 265.608 112.2C267.78 114.502 270.287 116.433 272.667 118.511C275.307 120.812 277.144 123.879 279.688 126.28C281.253 127.755 283.614 125.4 282.047 123.922C279.732 121.736 277.941 119.1 275.733 116.814C273.313 114.313 270.366 112.384 267.967 109.841Z" fill="black"/>
<path d="M286.551 133.924C285.754 131.957 282.526 132.816 283.336 134.81C286.376 142.307 292.857 147.977 294.823 155.933C295.337 158.019 298.554 157.133 298.038 155.045C296.047 146.989 289.607 141.458 286.551 133.924Z" fill="black"/>
<path d="M297.048 164.084C298.201 168.957 299.728 173.728 301.124 178.534C301.721 180.596 304.941 179.718 304.339 177.648C302.942 172.842 301.416 168.071 300.262 163.198C299.768 161.104 296.553 161.993 297.048 164.084Z" fill="black"/>
<path d="M305.137 210.323C305.14 202.229 305.142 194.14 303.594 186.163C303.186 184.053 299.972 184.95 300.379 187.051C301.868 194.727 301.806 202.537 301.803 210.323C301.8 212.473 305.137 212.473 305.137 210.323Z" fill="black"/>
<path d="M290.196 254.122C298.493 244.075 302.294 231.016 302.542 218.11C302.583 215.96 299.249 215.962 299.208 218.11C298.976 230.065 295.545 242.43 287.838 251.763C286.482 253.409 288.826 255.781 290.196 254.122Z" fill="black"/>
<path d="M274.268 273.02C278.479 269.163 281.889 264.543 284.904 259.713C286.046 257.884 283.161 256.211 282.024 258.029C279.149 262.63 275.924 266.985 271.909 270.662C270.321 272.118 272.685 274.468 274.268 273.02Z" fill="black"/>
<path d="M248.329 293.083C256.296 290.821 260.616 283.795 266.851 278.943C268.548 277.624 266.17 275.282 264.493 276.584C258.787 281.026 254.719 287.801 247.443 289.868C245.377 290.454 246.257 293.671 248.329 293.083Z" fill="black"/>
<path d="M92.2139 143.732C94.2292 139.477 95.9231 135.09 98.5138 131.132C99.6971 129.328 96.8065 127.658 95.634 129.449C93.0432 133.407 91.3494 137.794 89.3341 142.049C88.4182 143.981 91.2927 145.675 92.2139 143.732Z" fill="black"/>
<path d="M82.0076 171.126C83.4691 164.264 85.1441 157.521 88.1401 151.143C89.0478 149.209 86.1733 147.515 85.2602 149.46C82.1373 156.106 80.3164 163.081 78.7928 170.24C78.3443 172.336 81.5591 173.228 82.0076 171.126Z" fill="black"/>
<path d="M76.9381 178.028C74.3041 185.211 75.0146 193.135 76.9381 200.407C77.4865 202.485 80.704 201.601 80.1529 199.519C78.3726 192.781 77.7107 185.57 80.1529 178.914C80.8958 176.89 77.6729 176.026 76.9381 178.028Z" fill="black"/>
<path d="M91.4711 235.432C86.1788 226.85 83.8934 217.286 81.2648 207.669C80.6975 205.596 77.4799 206.477 78.0473 208.555C80.7569 218.459 83.1477 228.287 88.5913 237.115C89.7178 238.942 92.6031 237.267 91.4711 235.432Z" fill="black"/>
<path d="M113.074 265.477C106.844 258.172 99.6773 251.005 96.4571 241.757C95.7547 239.739 92.5318 240.606 93.2423 242.643C96.6651 252.474 104.089 260.066 110.716 267.835C112.115 269.475 114.463 267.103 113.074 265.477Z" fill="black"/>
<path d="M129.593 283.712C133.267 286.816 137.684 287.626 141.439 290.336C143.187 291.595 144.848 288.701 143.122 287.456C141.828 286.521 140.593 285.948 139.118 285.387C135.782 284.12 133.397 282.577 130.649 280.254C126.675 276.898 122.569 273.705 118.633 270.301C117.015 268.902 114.645 271.249 116.274 272.66C120.64 276.434 125.184 279.989 129.593 283.712Z" fill="black"/>
<path d="M148.88 293.472C158.527 297.346 167.998 301.739 178.596 301.685C180.747 301.671 180.747 298.338 178.596 298.349C168.317 298.403 159.108 294.007 149.766 290.257C147.769 289.455 146.91 292.681 148.88 293.472Z" fill="black"/>
<path d="M221.58 301.677C223.728 301.81 223.717 298.476 221.58 298.343C216.404 298.022 210.698 299.259 205.547 299.959C199.838 300.732 192.96 303.16 187.59 300.053C185.726 298.973 184.048 301.855 185.907 302.931C196.126 308.85 210.679 301.002 221.58 301.677Z" fill="black"/>
<path d="M241.486 291.896C237.188 294.59 232.136 295.219 227.433 296.916C225.425 297.64 226.29 300.863 228.319 300.133C233.303 298.334 238.611 297.632 243.169 294.776C244.987 293.636 243.315 290.751 241.486 291.896Z" fill="black"/>
<path d="M289.552 168.56C292.537 175.474 293.744 182.606 294.031 190.097C294.114 192.242 297.448 192.25 297.367 190.097C297.056 181.984 295.662 174.358 292.431 166.877C291.58 164.908 288.709 166.607 289.552 168.56Z" fill="black"/>
<path d="M292.917 221.691C292.593 223.793 295.805 224.698 296.132 222.577C296.8 218.263 296.913 213.93 297.918 209.664C298.685 206.417 299.271 203.159 298.264 199.909C297.629 197.861 294.409 198.736 295.049 200.795C296.113 204.231 294.93 207.697 294.174 211.077C293.393 214.554 293.46 218.177 292.917 221.691Z" fill="black"/>
<path d="M291.87 226.724C288.204 233.786 286.527 241.72 282.004 248.345C280.786 250.128 283.679 251.792 284.882 250.028C289.415 243.39 291.081 235.477 294.75 228.407C295.739 226.503 292.862 224.814 291.87 226.724Z" fill="black"/>
<path d="M271.484 265.261C273.554 262.416 276.487 260.871 278.93 258.437C280.453 256.916 278.095 254.557 276.571 256.078C274.71 257.934 272.435 259.185 270.579 261.041C268.939 262.684 267.802 264.799 266.23 266.509C262.394 270.688 256.245 272.566 251.766 275.983C250.08 277.269 251.739 280.168 253.449 278.863C257.504 275.767 262.345 273.903 266.349 270.756C268.396 269.148 269.963 267.352 271.484 265.261Z" fill="black"/>
<path d="M243.481 280.587C234.515 285.393 223.044 288.5 212.965 289.483C210.844 289.688 210.825 293.025 212.965 292.817C223.768 291.763 235.558 288.616 245.164 283.467C247.061 282.451 245.375 279.571 243.481 280.587Z" fill="black"/>
<path d="M197.058 292.927C199.284 292.962 201.521 292.503 203.674 293.243C205.714 293.943 206.584 290.72 204.56 290.025C202.102 289.18 199.598 289.631 197.058 289.59C194.905 289.558 194.91 292.894 197.058 292.927Z" fill="black"/>
<path d="M190.667 292.727C192.769 292.279 191.878 289.064 189.781 289.513C179.94 291.612 169.017 289.442 160.232 284.717C158.338 283.696 156.655 286.576 158.549 287.597C168.156 292.765 179.923 295.021 190.667 292.727Z" fill="black"/>
<path d="M121.676 259.609C120.158 258.085 117.8 260.444 119.318 261.967C123.319 265.982 127.182 270.302 131.753 273.684C136.964 277.539 142.91 279.7 148.64 282.613C150.553 283.585 152.241 280.708 150.323 279.733C145.817 277.442 141.1 275.634 136.721 273.098C130.943 269.753 126.339 264.288 121.676 259.609Z" fill="black"/>
<path d="M113.826 251.012C104.916 245.96 99.3348 233.825 96.3307 224.572C95.6689 222.535 92.4487 223.405 93.1132 225.458C96.4064 235.594 102.423 248.378 112.143 253.892C114.015 254.954 115.695 252.071 113.826 251.012Z" fill="black"/>
<path d="M91.4793 213.561C88.0403 201.683 87.5405 187.748 89.2749 175.524C89.5721 173.422 86.3573 172.514 86.0574 174.638C84.2312 187.535 84.6202 201.869 88.2645 214.448C88.8616 216.509 92.0791 215.634 91.4793 213.561Z" fill="black"/>
<path d="M90.2107 168.035C93.1716 157.126 94.7682 145.569 102.781 136.984C104.245 135.414 101.892 133.05 100.422 134.625C91.9559 143.7 90.1323 155.589 86.9959 167.149C86.4313 169.226 89.6488 170.107 90.2107 168.035Z" fill="black"/>
<path d="M108.52 129.265C109.488 127.487 110.16 125.518 111.516 123.986C112.937 122.384 110.587 120.015 109.158 121.628C107.583 123.405 106.762 125.523 105.641 127.582C104.611 129.47 107.491 131.153 108.52 129.265Z" fill="black"/>
<path d="M131.054 102.943C125.669 106.79 119.569 110.07 116.476 116.21C115.512 118.126 118.389 119.814 119.356 117.894C122.182 112.282 127.817 109.338 132.737 105.823C134.468 104.583 132.807 101.69 131.054 102.943Z" fill="black"/>
<path d="M161.55 89.3027C158.273 90.6696 154.661 91.1127 151.444 92.6013C147.183 94.568 142.861 96.4537 138.66 98.5501C136.737 99.5118 138.428 102.389 140.346 101.43C143.642 99.7847 147.048 98.3799 150.379 96.8076C154.299 94.957 158.46 94.1763 162.436 92.5175C164.392 91.7043 163.533 88.476 161.55 89.3027Z" fill="black"/>
<path d="M185.63 87.1772C180.905 87.8256 176.31 88.555 171.528 88.528C169.375 88.5172 169.377 91.8536 171.528 91.8644C175.38 91.8833 179.154 91.5132 182.961 90.9432C187.64 90.2408 191.849 90.5623 196.517 91.0215C198.657 91.2323 198.638 87.8959 196.517 87.6851C192.932 87.3339 189.231 86.6829 185.63 87.1772Z" fill="black"/>
<path d="M227.594 93.8466C220.229 90.8181 212.203 90.4345 204.69 87.9113C202.648 87.2251 201.778 90.448 203.804 91.1288C211.317 93.652 219.343 94.033 226.708 97.0614C228.696 97.88 229.555 94.6516 227.594 93.8466Z" fill="black"/>
<path d="M236.331 97.2035C234.27 96.574 233.394 99.7916 235.445 100.418C243.717 102.95 251.103 107.207 257.357 113.197C258.908 114.683 261.272 112.327 259.715 110.838C253.059 104.463 245.138 99.8969 236.331 97.2035Z" fill="black"/>
<path d="M263.499 117.896C270.801 122.47 274.092 130.41 278.908 137.185C280.143 138.922 283.039 137.258 281.788 135.502C276.596 128.2 273.046 119.941 265.182 115.016C263.353 113.871 261.681 116.759 263.499 117.896Z" fill="black"/>
<path d="M281.125 143.375C284.399 148.451 285.926 154.311 288.622 159.674C289.586 161.597 292.463 159.906 291.502 157.991C288.803 152.62 287.285 146.776 284.005 141.692C282.843 139.89 279.955 141.562 281.125 143.375Z" fill="black"/>
<path d="M286.545 180.843C288.958 188.553 289.428 196.309 288.734 204.319C288.55 206.461 291.884 206.445 292.07 204.319C292.789 196.02 292.256 187.929 289.76 179.957C289.123 177.912 285.902 178.784 286.545 180.843Z" fill="black"/>
<path d="M285.384 235.036C288.81 228.512 288.888 221.134 291.36 214.296C292.095 212.27 288.869 211.403 288.145 213.41C285.779 219.956 285.779 227.118 282.505 233.353C281.505 235.255 284.385 236.941 285.384 235.036Z" fill="black"/>
<path d="M269.217 260.737C274.339 255.372 277.67 248.872 281.266 242.456C282.317 240.578 279.437 238.898 278.386 240.773C274.934 246.932 271.778 253.224 266.859 258.379C265.376 259.935 267.729 262.296 269.217 260.737Z" fill="black"/>
<path d="M260.627 266.949C262.305 265.933 263.882 264.801 265.428 263.599C267.122 262.278 264.744 259.936 263.069 261.241C261.751 262.267 260.373 263.205 258.944 264.069C257.107 265.182 258.782 268.065 260.627 266.949Z" fill="black"/>
<path d="M256.365 268.916C258.056 267.633 256.394 264.734 254.682 266.036C252.404 267.765 250.092 269.449 247.769 271.115C245.513 272.731 242.781 273.498 240.369 274.833C238.489 275.873 240.169 278.753 242.052 277.713C244.194 276.527 246.515 275.738 248.644 274.527C251.364 272.982 253.877 270.805 256.365 268.916Z" fill="black"/>
<path d="M224.808 281.378C222.817 282.131 223.679 285.357 225.695 284.593C228.969 283.353 231.884 281.116 235.361 280.475C237.473 280.086 236.576 276.872 234.475 277.258C230.957 277.906 228.102 280.13 224.808 281.378Z" fill="black"/>
<path d="M219.205 282.569C214.528 284.619 209.166 284.062 204.206 284.808C202.085 285.127 202.99 288.339 205.092 288.023C210.462 287.218 215.809 287.674 220.888 285.448C222.854 284.587 221.155 281.715 219.205 282.569Z" fill="black"/>
<path d="M180.753 287.365C183.806 287.381 186.797 288.005 189.849 288.013C192.589 288.024 195.296 287.611 198.046 287.724C200.196 287.816 200.188 284.48 198.046 284.391C195.304 284.277 192.586 284.542 189.849 284.68C186.81 284.831 183.793 284.047 180.753 284.031C178.603 284.018 178.603 287.351 180.753 287.365Z" fill="black"/>
<path d="M151.45 277.448C157.683 281.244 165.071 280.925 171.633 283.78C173.586 284.629 175.286 281.757 173.319 280.901C166.792 278.061 159.279 278.313 153.133 274.568C151.291 273.447 149.616 276.332 151.45 277.448Z" fill="black"/>
<path d="M133.428 267.07C137.297 269.245 141.222 271.315 144.98 273.678C146.806 274.827 148.478 271.939 146.663 270.799C142.905 268.435 138.98 266.365 135.111 264.191C133.234 263.134 131.553 266.017 133.428 267.07Z" fill="black"/>
<path d="M130.182 258.406C124.442 254.521 119.571 249.561 114.673 244.696C113.146 243.178 110.788 245.536 112.314 247.052C117.418 252.125 122.518 257.236 128.499 261.286C130.285 262.496 131.952 259.603 130.182 258.406Z" fill="black"/>
<path d="M111.31 238.253C104.016 230.734 98.1995 221.014 96.9054 210.473C96.6461 208.368 93.3097 208.341 93.569 210.473C94.9792 221.949 100.977 232.391 108.952 240.611C110.451 242.157 112.807 239.795 111.31 238.253Z" fill="black"/>
<path d="M96.4295 202.97C95.2624 198.396 94.4466 193.782 94.5033 189.049C94.5303 186.896 91.194 186.899 91.1669 189.049C91.1075 194.066 91.9747 199.007 93.2147 203.856C93.7442 205.939 96.9617 205.056 96.4295 202.97Z" fill="black"/>
<path d="M94.0508 160.756C90.7306 167.167 92.4677 174.005 91.8517 180.883C91.6599 183.025 94.9963 183.006 95.1854 180.883C95.7365 174.734 93.967 168.161 96.9306 162.439C97.9193 160.532 95.0395 158.846 94.0508 160.756Z" fill="black"/>
<path d="M284.661 159.836C283.902 157.847 280.676 158.709 281.446 160.722C282.926 164.596 284.674 168.351 285.631 172.406C286.125 174.497 289.34 173.611 288.848 171.52C287.892 167.465 286.141 163.71 284.661 159.836Z" fill="black"/>
<path d="M270.273 137.462C273.707 142.606 276.976 147.826 279.202 153.623C279.963 155.609 283.189 154.747 282.416 152.737C280.082 146.656 276.757 141.18 273.153 135.779C271.964 133.999 269.076 135.669 270.273 137.462Z" fill="black"/>
<path d="M255.192 115.723C253.333 114.631 251.655 117.514 253.509 118.603C258.779 121.699 263.807 125.853 266.47 131.473C267.389 133.418 270.263 131.724 269.348 129.79C266.46 123.687 260.916 119.083 255.192 115.723Z" fill="black"/>
<path d="M249.387 111.285C241.537 106.714 233.913 101.981 225.028 99.7034C222.942 99.1685 222.059 102.386 224.142 102.921C232.746 105.123 240.108 109.742 247.704 114.165C249.566 115.248 251.243 112.366 249.387 111.285Z" fill="black"/>
<path d="M192.362 97.0713C200.71 97.9034 209.468 98.1438 217.13 101.926C219.051 102.874 220.742 99.9971 218.813 99.0461C210.584 94.9857 201.334 94.6291 192.362 93.7376C190.223 93.5242 190.244 96.8606 192.362 97.0713Z" fill="black"/>
<path d="M186.005 94.0647C180.775 94.343 175.563 94.8401 170.339 95.1994C166.467 95.4641 163.458 97.5416 159.749 98.1333C157.628 98.471 158.533 101.686 160.635 101.348C164.673 100.705 167.937 98.6979 172.184 98.4061C176.793 98.0901 181.391 97.647 186.005 97.3985C188.144 97.285 188.155 93.9486 186.005 94.0647Z" fill="black"/>
<path d="M132.665 115.774C138.633 109.609 146.805 106.907 154.553 103.714C156.514 102.906 155.655 99.6808 153.667 100.499C145.384 103.911 136.685 106.829 130.307 113.416C128.81 114.961 131.166 117.322 132.665 115.774Z" fill="black"/>
<path d="M106.998 141.618C108.376 140.551 109.24 139.375 110.126 137.887C111.658 135.32 113.646 133.262 115.559 130.982C118.695 127.237 120.865 121.332 126.127 120.178C128.229 119.719 127.338 116.504 125.241 116.963C120.878 117.92 118.082 121.651 115.616 125.103C113.644 127.864 111.588 130.422 109.359 132.984C107.581 135.018 106.833 137.563 104.639 139.259C102.94 140.575 105.32 142.917 106.998 141.618Z" fill="black"/>
<path d="M101.555 144.313C99.7074 148.455 96.9384 152.131 96.0306 156.651C95.6065 158.75 98.8213 159.644 99.2455 157.537C100.096 153.307 102.706 149.876 104.435 145.996C105.302 144.051 102.431 142.352 101.555 144.313Z" fill="black"/>
<path d="M139.241 115.718C133.104 117.849 127.217 122.855 123.794 128.342C122.651 130.171 125.537 131.846 126.674 130.025C129.621 125.3 134.838 120.772 140.127 118.933C142.146 118.233 141.278 115.01 139.241 115.718Z" fill="black"/>
<path d="M171.555 101.946C163.343 102.87 155.019 105.312 148.109 109.956C146.334 111.148 148.003 114.038 149.792 112.836C156.192 108.535 163.926 106.142 171.555 105.28C173.668 105.042 173.69 101.706 171.555 101.946Z" fill="black"/>
<path d="M207.204 103.478C203.192 102.659 199.251 100.901 195.15 100.587C190.1 100.201 185.13 101.274 180.081 101.195C177.93 101.16 177.933 104.497 180.081 104.529C184.552 104.599 188.952 103.827 193.418 103.791C197.77 103.754 202.101 105.834 206.318 106.693C208.417 107.122 209.311 103.908 207.204 103.478Z" fill="black"/>
<path d="M215.651 109.365C219.515 109.702 222.81 111.936 226.325 113.382C228.313 114.2 229.173 110.972 227.211 110.164C223.321 108.565 219.941 106.404 215.651 106.031C213.509 105.842 213.525 109.178 215.651 109.365Z" fill="black"/>
<path d="M235.728 112.383C233.672 111.726 232.8 114.947 234.842 115.598C242.898 118.167 249.906 121.23 254.226 128.914C255.279 130.788 258.162 129.108 257.105 127.231C252.356 118.788 244.616 115.217 235.728 112.383Z" fill="black"/>
<path d="M258.194 135.915C262.327 139.908 266.126 144.325 269.049 149.288C270.14 151.139 273.023 149.461 271.929 147.605C268.868 142.41 264.88 137.736 260.553 133.557C259.005 132.063 256.643 134.419 258.194 135.915Z" fill="black"/>
<path d="M274.321 155.054C273.63 153.031 270.407 153.901 271.107 155.941C272.601 160.306 274.429 164.545 275.923 168.911C276.615 170.934 279.838 170.064 279.138 168.025C277.644 163.659 275.815 159.42 274.321 155.054Z" fill="black"/>
<path d="M278.144 177.05C279.457 182.694 280.232 188.44 281.477 194.097C281.942 196.196 285.157 195.304 284.695 193.211C283.447 187.554 282.674 181.805 281.358 176.164C280.872 174.07 277.657 174.956 278.144 177.05Z" fill="black"/>
<path d="M284.329 202.252C284.77 200.153 281.555 199.262 281.114 201.366C279.612 208.528 280.571 215.728 278.518 222.857C277.924 224.929 281.141 225.807 281.736 223.743C283.797 216.587 282.827 209.422 284.329 202.252Z" fill="black"/>
<path d="M274.809 229.904C273.288 235.664 270.525 240.899 267.196 245.811C265.986 247.596 268.877 249.263 270.076 247.494C273.559 242.355 276.436 236.814 278.024 230.79C278.575 228.707 275.358 227.826 274.809 229.904Z" fill="black"/>
<path d="M249.437 266.718C251.612 264.592 254.287 263.087 256.572 261.085C259.368 258.635 261.502 255.512 264.261 253.008C265.855 251.56 263.488 249.207 261.902 250.649C259.393 252.929 257.307 255.601 254.946 258.022C252.582 260.445 249.5 261.993 247.079 264.36C245.539 265.867 247.9 268.223 249.437 266.718Z" fill="black"/>
<path d="M239.634 267.817C232.926 271.921 225.804 275.911 217.873 276.854C215.763 277.102 215.739 280.441 217.873 280.187C226.447 279.169 234.044 275.146 241.317 270.697C243.148 269.576 241.473 266.69 239.634 267.817Z" fill="black"/>
<path d="M193.317 279.585C195.562 280.557 197.634 280.535 200.028 280.179C203.199 279.706 206.941 277.858 209.991 279.585C211.866 280.646 213.546 277.764 211.674 276.705C209.618 275.54 207.435 275.37 205.117 275.746C202.016 276.248 198.061 278.031 195 276.705C193.047 275.859 191.348 278.731 193.317 279.585Z" fill="black"/>
<path d="M185.339 276.159C179.503 273.982 173.374 271.966 167.109 271.653C164.958 271.545 164.969 274.881 167.109 274.987C173.049 275.284 178.92 277.31 184.453 279.377C186.471 280.131 187.335 276.905 185.339 276.159Z" fill="black"/>
<path d="M143.288 265.504C148.013 268.562 153.189 270.256 158.508 271.971C160.561 272.633 161.434 269.413 159.394 268.756C154.345 267.127 149.458 265.528 144.971 262.624C143.161 261.451 141.489 264.339 143.288 265.504Z" fill="black"/>
<path d="M136.623 259.578C138.514 260.602 140.197 257.722 138.306 256.698C133.87 254.297 129.796 251.065 126.416 247.324C124.971 245.725 122.621 248.091 124.058 249.682C127.605 253.613 131.965 257.057 136.623 259.578Z" fill="black"/>
<path d="M120.854 240.279C116.426 235.368 113.222 229.673 110 223.94C108.943 222.068 106.063 223.748 107.12 225.626C110.486 231.61 113.876 237.513 118.496 242.637C119.938 244.237 122.289 241.873 120.854 240.279Z" fill="black"/>
<path d="M103.988 219.301C104.701 221.313 107.924 220.446 107.203 218.414C104.704 211.366 102.935 204.112 100.906 196.921C100.32 194.854 97.102 195.735 97.6882 197.807C99.7198 204.999 101.489 212.252 103.988 219.301Z" fill="black"/>
<path d="M100.163 188.031C99.0637 182.163 99.5473 176.457 101.274 170.76C101.9 168.696 98.6828 167.82 98.0587 169.874C96.1542 176.152 95.7381 182.463 96.9484 188.917C97.3428 191.029 100.558 190.133 100.163 188.031Z" fill="black"/>
<path d="M103.046 154.278C101.801 157.061 101.028 160 99.9123 162.829C99.1235 164.831 102.349 165.692 103.13 163.715C104.137 161.159 104.799 158.474 105.926 155.961C106.798 154.016 103.924 152.32 103.046 154.278Z" fill="black"/>
<path d="M114.901 135.741C111.305 140.406 106.445 144.469 105.47 150.591C105.132 152.693 108.347 153.595 108.685 151.477C109.603 145.736 114.396 141.814 117.781 137.424C119.094 135.719 116.195 134.063 114.901 135.741Z" fill="black"/>
<path d="M120.541 147.037C123.127 140.724 129.672 136.353 134.967 132.471C136.683 131.214 135.021 128.318 133.284 129.591C127.152 134.086 120.303 138.876 117.326 146.151C116.51 148.142 119.739 148.999 120.541 147.037Z" fill="black"/>
<path d="M141.268 127.657C146.255 124.612 150.775 120.889 156.091 118.393C158.037 117.48 156.343 114.606 154.408 115.513C149.092 118.01 144.572 121.732 139.585 124.777C137.753 125.895 139.428 128.781 141.268 127.657Z" fill="black"/>
<path d="M182.3 108.982C179.406 109.214 176.454 109.146 173.582 109.603C169.673 110.224 166.023 111.705 162.217 112.748C160.144 113.312 161.025 116.53 163.105 115.962C165.974 115.176 168.77 114.155 171.637 113.358C175.07 112.402 178.774 112.599 182.3 112.315C184.428 112.145 184.445 108.811 182.3 108.982Z" fill="black"/>
<path d="M208.684 110.902C203.2 108.83 197.287 109.673 191.565 109.729C189.417 109.751 189.415 113.087 191.565 113.066C196.987 113.009 202.601 112.155 207.798 114.117C209.814 114.879 210.676 111.653 208.684 110.902Z" fill="black"/>
<path d="M232.796 119.217C227.774 116.391 222.125 114.171 216.392 113.431C214.263 113.158 214.288 116.494 216.392 116.767C221.512 117.426 226.644 119.585 231.113 122.097C232.99 123.153 234.668 120.271 232.796 119.217Z" fill="black"/>
<path d="M240.544 123.931C238.95 122.497 236.584 124.847 238.186 126.29C242.651 130.307 248.325 133.089 251.264 138.549C252.285 140.446 255.165 138.76 254.144 136.866C251.034 131.088 245.261 128.175 240.544 123.931Z" fill="black"/>
<path d="M257.59 142.397C255.54 141.727 254.67 144.947 256.704 145.612C262.307 147.444 264.393 155.775 265.914 160.751C266.543 162.802 269.761 161.929 269.131 159.865C267.197 153.546 264.606 144.691 257.59 142.397Z" fill="black"/>
<path d="M267.397 167.424C269.455 172.344 271.711 177.158 272.154 182.545C272.33 184.671 275.666 184.69 275.491 182.545C275.018 176.82 272.805 171.774 270.612 166.538C269.796 164.585 266.567 165.441 267.397 167.424Z" fill="black"/>
<path d="M272.223 192.248C272.89 196.884 273.69 201.504 272.963 206.183C272.637 208.287 275.851 209.19 276.181 207.069C277.005 201.752 276.197 196.633 275.438 191.362C275.133 189.239 271.921 190.146 272.223 192.248Z" fill="black"/>
<path d="M271.191 231.554C274.597 226.777 276.113 220.218 275.865 214.407C275.773 212.265 272.439 212.257 272.531 214.407C272.755 219.68 271.402 225.537 268.311 229.871C267.06 231.627 269.954 233.288 271.191 231.554Z" fill="black"/>
<path d="M252.768 252.275C257.758 248.139 262.915 243.906 265.627 237.857C266.5 235.912 263.626 234.212 262.748 236.174C260.149 241.971 255.189 245.956 250.41 249.917C248.754 251.289 251.126 253.637 252.768 252.275Z" fill="black"/>
<path d="M242.264 255.841C239.479 258.735 235.524 263.584 231.215 263.876C229.081 264.019 229.067 267.355 231.215 267.212C236.642 266.845 241.092 261.869 244.623 258.2C246.114 256.649 243.758 254.288 242.264 255.841Z" fill="black"/>
<path d="M220.841 266.105C215.198 266.346 209.924 269.512 204.237 268.388C202.138 267.972 201.244 271.187 203.351 271.603C209.578 272.835 214.746 269.701 220.841 269.439C222.983 269.35 222.991 266.013 220.841 266.105Z" fill="black"/>
<path d="M174.076 267.899C177.258 269.215 180.803 269.145 184.096 270.128C187.175 271.047 189.955 271.663 193.119 270.863C195.204 270.339 194.318 267.121 192.233 267.648C188.913 268.486 185.876 267.119 182.715 266.268C180.13 265.573 177.48 265.725 174.962 264.685C172.974 263.863 172.117 267.089 174.076 267.899Z" fill="black"/>
<path d="M155.89 262.91C159.507 264.485 163.162 265.966 167.033 266.784C169.133 267.227 170.024 264.012 167.92 263.569C164.332 262.81 160.928 261.492 157.573 260.03C155.622 259.182 153.923 262.054 155.89 262.91Z" fill="black"/>
<path d="M147.736 259.199C149.446 260.504 151.102 257.605 149.419 256.319C145.323 253.191 140.866 250.562 137.157 246.945C135.617 245.443 133.258 247.801 134.798 249.303C138.713 253.118 143.413 255.898 147.736 259.199Z" fill="black"/>
<path d="M129.955 242.155C131.805 243.263 133.48 240.378 131.638 239.276C126.551 236.228 123.479 231.552 120.007 226.905C118.738 225.203 115.839 226.862 117.128 228.588C120.95 233.705 124.357 238.803 129.955 242.155Z" fill="black"/>
<path d="M113.99 221.895C114.679 223.918 117.902 223.049 117.205 221.009C115.681 216.532 113.958 212.129 112.388 207.669C111.681 205.653 108.458 206.521 109.174 208.555C110.743 213.015 112.464 217.419 113.99 221.895Z" fill="black"/>
<path d="M108.686 199.508C107.638 194.885 106.971 190.244 106.893 185.5C106.857 183.352 103.524 183.347 103.559 185.5C103.64 190.536 104.359 195.488 105.472 200.394C105.947 202.493 109.162 201.601 108.686 199.508Z" fill="black"/>
<path d="M112.939 153.947C107.087 160.838 103.178 169.615 103.556 178.841C103.646 180.984 106.982 180.992 106.893 178.841C106.552 170.561 110.035 162.505 115.297 156.305C116.68 154.676 114.333 152.304 112.939 153.947Z" fill="black"/>
<path d="M125.907 144.673C119.223 150.859 115.144 160.066 112.877 168.754C112.337 170.837 115.552 171.718 116.095 169.641C118.221 161.487 121.99 152.842 128.265 147.031C129.846 145.567 127.482 143.214 125.907 144.673Z" fill="black"/>
<path d="M144.405 128.852C138.723 131.661 133.042 135.387 129.724 140.939C128.62 142.789 131.502 144.464 132.604 142.619C135.63 137.559 140.922 134.285 146.088 131.732C148.016 130.778 146.325 127.901 144.405 128.852Z" fill="black"/>
<path d="M164.81 117.196C159.283 118.966 154.263 121.843 149.992 125.776C148.409 127.238 150.773 129.588 152.351 128.135C156.195 124.596 160.72 122.005 165.696 120.411C167.736 119.76 166.863 116.54 164.81 117.196Z" fill="black"/>
<path d="M190.152 114.236C183.528 113.315 176.661 115.268 170.709 118.11C168.77 119.037 170.463 121.911 172.392 120.99C177.425 118.588 183.644 116.67 189.266 117.451C191.368 117.743 192.275 114.531 190.152 114.236Z" fill="black"/>
<path d="M197.422 117.198C195.471 118.019 196.327 121.248 198.308 120.413C203.546 118.211 208.625 120.961 213.725 122.266C215.811 122.801 216.694 119.584 214.611 119.051C208.898 117.587 203.281 114.732 197.422 117.198Z" fill="black"/>
<path d="M223.904 122.552C222 121.558 220.314 124.435 222.221 125.432C225.939 127.375 230.272 128.115 233.37 131.1C234.918 132.591 237.28 130.236 235.729 128.742C232.347 125.484 227.943 124.662 223.904 122.552Z" fill="black"/>
<path d="M248.873 147.422C249.497 149.475 252.717 148.6 252.087 146.536C250.391 140.949 245.674 137.421 240.946 134.422C239.126 133.266 237.453 136.154 239.263 137.302C243.213 139.806 247.444 142.73 248.873 147.422Z" fill="black"/>
<path d="M258.356 154.05C256.53 152.899 254.858 155.787 256.673 156.929C260.96 159.631 260.877 166.458 262.576 170.756C263.359 172.731 266.585 171.869 265.793 169.867C263.67 164.507 263.751 157.451 258.356 154.05Z" fill="black"/>
<path d="M269.134 196.692C270.771 191.154 269.153 185.257 267.651 179.873C267.076 177.803 263.858 178.684 264.436 180.759C265.776 185.559 267.381 190.863 265.92 195.806C265.306 197.873 268.526 198.751 269.134 196.692Z" fill="black"/>
<path d="M267.281 220.036C269.061 215.035 270.674 209.219 269.134 203.956C268.532 201.898 265.312 202.776 265.917 204.843C267.286 209.516 265.644 214.719 264.066 219.15C263.342 221.182 266.565 222.046 267.281 220.036Z" fill="black"/>
<path d="M261.844 225.082C259.475 231.298 256.608 236.609 251.527 241.021C249.9 242.434 252.27 244.782 253.885 243.38C259.396 238.595 262.495 232.7 265.059 225.968C265.826 223.955 262.6 223.094 261.844 225.082Z" fill="black"/>
<path d="M244.448 245.948C240.025 249.266 237.097 254.355 232.221 257.065C230.34 258.111 232.021 260.99 233.904 259.945C238.853 257.195 241.679 252.164 246.131 248.828C247.83 247.556 246.171 244.657 244.448 245.948Z" fill="black"/>
<path d="M110.286 174.692C109.743 178.177 109.413 181.548 110.824 184.871C111.664 186.843 114.536 185.141 113.703 183.188C112.696 180.816 113.117 178.039 113.501 175.578C113.83 173.476 110.616 172.571 110.286 174.692Z" fill="black"/>
<path d="M116.841 205.076C115.611 200.097 114.485 195.116 114.677 189.956C114.758 187.805 111.421 187.813 111.343 189.956C111.14 195.405 112.326 200.705 113.626 205.962C114.139 208.051 117.357 207.165 116.841 205.076Z" fill="black"/>
<path d="M124.933 222.498C121.532 219.389 120.943 214.502 119.803 210.266C119.247 208.191 116.029 209.071 116.588 211.152C117.888 215.985 118.701 221.312 122.575 224.857C124.158 226.305 126.525 223.952 124.933 222.498Z" fill="black"/>
<path d="M138.474 241.788C140.336 242.876 142.013 239.994 140.157 238.908C135.824 236.374 132.445 232.592 130.381 228.018C129.497 226.062 126.623 227.759 127.501 229.701C129.786 234.761 133.69 238.992 138.474 241.788Z" fill="black"/>
<path d="M157.003 257.347C158.73 258.635 160.388 255.737 158.686 254.467C154.634 251.441 149.79 249.593 146.686 245.43C145.417 243.728 142.52 245.387 143.806 247.113C147.326 251.836 152.411 253.919 157.003 257.347Z" fill="black"/>
<path d="M175.258 258.309C171.438 257.904 167.632 257.066 164.241 255.202C162.356 254.165 160.675 257.045 162.558 258.082C166.489 260.243 170.833 261.175 175.258 261.643C177.395 261.872 177.373 258.533 175.258 258.309Z" fill="black"/>
<path d="M183.711 263.073C186.917 264.026 189.835 265.62 193.128 266.304C196.132 266.928 199.271 266.82 202.311 267.209C204.439 267.482 204.412 264.142 202.311 263.872C199.131 263.467 195.916 263.483 192.769 262.829C189.948 262.243 187.358 260.679 184.597 259.858C182.53 259.242 181.655 262.459 183.711 263.073Z" fill="black"/>
<path d="M225.655 259.06C219.709 259.176 213.742 259.935 208.166 262.083C206.183 262.85 207.045 266.076 209.055 265.3C214.371 263.25 219.982 262.504 225.655 262.394C227.803 262.353 227.809 259.017 225.655 259.06Z" fill="black"/>
<path d="M121.202 160.575C118.552 165.811 117.015 171.092 116.899 176.979C116.856 179.132 120.192 179.127 120.233 176.979C120.338 171.673 121.694 166.978 124.082 162.258C125.049 160.345 122.175 158.654 121.202 160.575Z" fill="black"/>
<path d="M121.653 196.915C120.276 192.706 119.149 187.687 120.54 183.351C121.202 181.298 117.982 180.425 117.325 182.465C115.756 187.344 116.882 193.052 118.436 197.801C119.103 199.836 122.323 198.966 121.653 196.915Z" fill="black"/>
<path d="M133.451 222.867C128.496 217.056 125.033 211.024 123.134 203.592C122.602 201.512 119.384 202.395 119.919 204.481C121.956 212.458 125.776 218.991 131.093 225.226C132.489 226.866 134.837 224.494 133.451 222.867Z" fill="black"/>
<path d="M149.59 241.049C151.444 242.149 153.121 239.266 151.273 238.169C146.343 235.241 141.664 232.48 137.901 228.055C136.507 226.415 134.159 228.784 135.542 230.413C139.484 235.046 144.422 237.98 149.59 241.049Z" fill="black"/>
<path d="M160.546 250.594C163.318 252.542 166.938 252.348 169.969 253.644C171.925 254.479 173.624 251.607 171.652 250.764C169.334 249.77 166.921 249.4 164.495 248.755C161.329 247.912 159.154 244.948 156.796 242.873C155.191 241.458 152.822 243.805 154.44 245.232C156.483 247.031 158.309 249.022 160.546 250.594Z" fill="black"/>
<path d="M176.367 254.613C182.21 254.926 187.921 256.339 193.783 256.466C195.934 256.512 195.931 253.176 193.783 253.13C187.924 253.006 182.21 251.59 176.367 251.279C174.216 251.163 174.227 254.499 176.367 254.613Z" fill="black"/>
<path d="M128.153 155.957C130.925 151.449 134.555 146.337 139.756 144.495C141.769 143.782 140.901 140.559 138.87 141.28C132.77 143.439 128.55 148.944 125.273 154.274C124.144 156.111 127.029 157.786 128.153 155.957Z" fill="black"/>
<path d="M144.434 135.786C143.056 137.418 145.404 139.79 146.793 138.145C150.388 133.885 156.029 132.399 161.249 131.161C163.342 130.667 162.453 127.449 160.362 127.947C154.614 129.308 148.389 131.102 144.434 135.786Z" fill="black"/>
<path d="M182.963 120.528C176.974 121.63 171.071 122.508 165.52 125.142C163.577 126.066 165.271 128.941 167.203 128.022C172.465 125.526 178.182 124.786 183.849 123.743C185.962 123.357 185.065 120.142 182.963 120.528Z" fill="black"/>
<path d="M205.717 123.13C200.5 121.257 195.038 120.425 189.637 122.019C187.579 122.624 188.457 125.845 190.524 125.234C195.378 123.802 200.16 124.669 204.831 126.344C206.86 127.074 207.724 123.851 205.717 123.13Z" fill="black"/>
<path d="M209.647 128.934C214.991 129.942 220.132 131.444 225.211 133.381C227.224 134.148 228.085 130.922 226.097 130.166C221.021 128.226 215.877 126.724 210.534 125.719C208.432 125.322 207.535 128.537 209.647 128.934Z" fill="black"/>
<path d="M230.574 133.669C228.716 132.578 227.038 135.46 228.891 136.549C232.333 138.567 235.448 141.036 237.555 144.473C238.679 146.302 241.564 144.629 240.435 142.79C238.031 138.872 234.505 135.974 230.574 133.669Z" fill="black"/>
<path d="M243.879 147.645C242.282 146.215 239.913 148.566 241.52 150.003C245.697 153.736 248.409 158.648 251.897 162.973C253.248 164.648 255.59 162.271 254.255 160.615C250.76 156.284 248.069 151.392 243.879 147.645Z" fill="black"/>
<path d="M252.748 168.187C255.725 172.834 257.241 177.945 258.138 183.351C258.491 185.469 261.704 184.57 261.355 182.465C260.41 176.786 258.751 171.381 255.628 166.504C254.472 164.7 251.584 166.372 252.748 168.187Z" fill="black"/>
<path d="M261.724 207.441C263.864 201.849 263.002 195.641 262.094 189.881C261.762 187.761 258.547 188.663 258.879 190.767C259.695 195.954 260.433 201.528 258.509 206.555C257.737 208.568 260.962 209.43 261.724 207.441Z" fill="black"/>
<path d="M256.653 214.11C257.48 218.43 254.927 224.008 252.266 227.31C250.929 228.968 253.273 231.343 254.624 229.668C258.101 225.354 260.946 218.848 259.868 213.224C259.465 211.111 256.251 212.008 256.653 214.11Z" fill="black"/>
<path d="M239.839 248.828C244.751 245.527 248.554 240.678 251.553 235.631C252.655 233.778 249.773 232.1 248.673 233.948C245.974 238.487 242.584 242.971 238.156 245.948C236.381 247.142 238.048 250.03 239.839 248.828Z" fill="black"/>
<path d="M230.373 249.283C227.293 250.871 224.435 253.062 220.839 253.133C218.692 253.173 218.686 256.507 220.839 256.466C225.11 256.385 228.393 254.051 232.056 252.163C233.969 251.177 232.28 248.3 230.373 249.283Z" fill="black"/>
<path d="M211.941 252.761C208.259 252.799 204.618 253.061 201.122 254.304C199.112 255.017 199.976 258.24 202.011 257.518C205.239 256.37 208.538 256.13 211.941 256.095C214.092 256.076 214.092 252.739 211.941 252.761Z" fill="black"/>
<path d="M126.843 184.32C125.929 180.276 125.927 175.683 127.785 171.896C128.728 169.972 125.854 168.281 124.906 170.213C122.634 174.846 122.504 180.235 123.628 185.206C124.101 187.305 127.315 186.414 126.843 184.32Z" fill="black"/>
<path d="M130.095 208.21C131.124 210.099 134.004 208.415 132.975 206.527C130.184 201.41 129.139 195.702 127.215 190.25C126.502 188.238 123.282 189.105 123.998 191.136C126.021 196.869 127.161 202.829 130.095 208.21Z" fill="black"/>
<path d="M142.211 226.33C143.824 227.738 146.193 225.387 144.569 223.972C140.76 220.652 137.451 217.342 135.733 212.479C135.022 210.467 131.799 211.334 132.518 213.365C134.441 218.809 137.926 222.597 142.211 226.33Z" fill="black"/>
<path d="M159.99 240.473C162.024 241.189 162.891 237.966 160.876 237.258C156.827 235.832 153.096 233.562 150.756 229.872C149.611 228.059 146.723 229.732 147.876 231.555C150.699 236.01 155.095 238.752 159.99 240.473Z" fill="black"/>
<path d="M179.705 244.971C175.34 245.209 171.725 242.994 167.948 241.124C166.028 240.171 164.336 243.048 166.265 244.002C170.569 246.136 174.737 248.578 179.705 248.305C181.845 248.189 181.856 244.855 179.705 244.971Z" fill="black"/>
<path d="M187.78 249.003C190.611 249.595 193.415 250.57 196.292 250.913C199.415 251.286 202.511 250.727 205.64 250.916C207.787 251.046 207.777 247.709 205.64 247.58C202.906 247.415 200.199 247.809 197.462 247.718C194.542 247.62 191.519 246.383 188.666 245.789C186.567 245.348 185.675 248.563 187.78 249.003Z" fill="black"/>
<path d="M214.633 249.94C218.302 248.171 222.37 247.45 226.12 245.864C228.095 245.029 226.393 242.157 224.437 242.984C220.682 244.572 216.64 245.28 212.95 247.061C211.013 247.995 212.704 250.87 214.633 249.94Z" fill="black"/>
<path d="M237.071 234.721C235.018 237.196 232.062 238.576 229.255 240.019C227.343 241.002 229.031 243.879 230.938 242.899C233.988 241.332 237.201 239.765 239.429 237.079C240.791 235.437 238.446 233.065 237.071 234.721Z" fill="black"/>
<path d="M243.51 231.886C246.074 229.536 248.448 226.864 250.069 223.768C251.066 221.864 248.189 220.178 247.189 222.085C245.69 224.949 243.523 227.356 241.152 229.528C239.563 230.984 241.927 233.337 243.51 231.886Z" fill="black"/>
<path d="M253.689 201.731C252.64 206.44 251.53 211.135 250.355 215.811C249.828 217.9 253.046 218.783 253.57 216.7C254.745 212.021 255.858 207.326 256.903 202.617C257.371 200.523 254.156 199.632 253.689 201.731Z" fill="black"/>
<path d="M254.313 180.244C253.567 178.248 250.344 179.112 251.098 181.13C252.789 185.666 251.922 190.604 253.321 195.213C253.942 197.264 257.163 196.388 256.536 194.325C255.139 189.721 256.015 184.799 254.313 180.244Z" fill="black"/>
<path d="M243.398 157.615C242.553 155.643 239.681 157.345 240.519 159.298C242.415 163.721 245.905 167.254 247.391 171.869C248.048 173.908 251.268 173.036 250.606 170.982C249.023 166.063 245.414 162.313 243.398 157.615Z" fill="black"/>
<path d="M230.912 143.133C228.811 142.733 227.914 145.946 230.026 146.348C233.222 146.959 235.159 151.378 236.272 154.077C237.08 156.039 240.308 155.179 239.487 153.191C237.931 149.409 235.402 143.99 230.912 143.133Z" fill="black"/>
<path d="M199.714 131.587C203.637 131.398 210.85 132.686 213.095 136.32C214.224 138.143 217.109 136.471 215.977 134.637C213.046 129.898 204.912 128.002 199.714 128.253C197.575 128.353 197.564 131.689 199.714 131.587Z" fill="black"/>
<path d="M220.941 136.266C219.05 135.242 217.367 138.12 219.258 139.146C220.631 139.892 221.795 140.864 222.997 141.85C224.645 143.201 227.02 140.856 225.356 139.492C223.937 138.33 222.559 137.144 220.941 136.266Z" fill="black"/>
<path d="M133.427 153.535C130.807 157.109 128.035 160.421 126.59 164.679C125.895 166.721 129.118 167.591 129.804 165.565C131.144 161.629 133.886 158.519 136.307 155.218C137.579 153.481 134.686 151.82 133.427 153.535Z" fill="black"/>
<path d="M148.886 139.123C145.201 142.132 141.09 144.429 138.25 148.354C136.986 150.099 139.882 151.761 141.13 150.037C143.748 146.422 147.843 144.259 151.245 141.481C152.911 140.12 150.537 137.775 148.886 139.123Z" fill="black"/>
<path d="M171.11 130.167C166.628 131.402 161.954 132.39 158.113 135.151C156.384 136.394 158.045 139.29 159.796 138.031C163.41 135.432 167.779 134.544 171.996 133.382C174.068 132.812 173.187 129.594 171.11 130.167Z" fill="black"/>
<path d="M190.891 128.307C187.496 127.837 184.003 127.319 180.742 128.677C178.786 129.493 179.642 132.722 181.628 131.895C184.338 130.766 187.171 131.13 190.005 131.525C192.107 131.817 193.015 128.602 190.891 128.307Z" fill="black"/>
<path d="M137.792 165.589C140.31 160.202 144.889 156.674 149.02 152.586C150.549 151.071 148.19 148.715 146.661 150.228C142.331 154.512 137.552 158.262 134.912 163.906C134.007 165.84 136.882 167.537 137.792 165.589Z" fill="black"/>
<path d="M155.316 148.884C157.958 146.45 160.946 144.623 164.241 143.216C166.214 142.373 164.514 139.501 162.558 140.336C159.001 141.857 155.802 143.905 152.957 146.525C151.374 147.987 153.738 150.34 155.316 148.884Z" fill="black"/>
<path d="M183.41 134.176C179.056 134.727 175.311 136.858 171.11 137.941C169.028 138.476 169.911 141.694 171.997 141.156C175.871 140.159 179.407 138.017 183.41 137.509C185.515 137.245 185.539 133.905 183.41 134.176Z" fill="black"/>
<path d="M200.898 135.728C197.324 135.028 193.553 134.728 190.006 135.728C187.939 136.311 188.82 139.529 190.894 138.943C193.85 138.108 197.03 138.359 200.012 138.943C202.111 139.356 203.008 136.141 200.898 135.728Z" fill="black"/>
<path d="M216.836 140.917C213.791 139.858 210.793 138.466 207.499 138.634C205.36 138.742 205.349 142.078 207.499 141.967C210.463 141.819 213.208 143.18 215.95 144.131C217.987 144.839 218.854 141.616 216.836 140.917Z" fill="black"/>
<path d="M220.768 146.67C225.139 150.314 229.331 154.142 233.368 158.157C234.891 159.675 237.252 157.316 235.723 155.798C231.69 151.784 227.497 147.955 223.126 144.311C221.486 142.944 219.114 145.292 220.768 146.67Z" fill="black"/>
<path d="M236.81 165.593C240.147 170.794 243.213 176.132 245.536 181.87C246.331 183.837 249.559 182.978 248.751 180.984C246.317 174.968 243.191 169.367 239.69 163.91C238.534 162.106 235.646 163.778 236.81 165.593Z" fill="black"/>
<path d="M247.02 188.912C249.054 194.112 247.928 199.38 247.02 204.7C246.661 206.804 249.876 207.704 250.238 205.586C251.24 199.71 252.483 193.774 250.238 188.026C249.462 186.045 246.237 186.907 247.02 188.912Z" fill="black"/>
<path d="M241.914 223.406C244.332 220.248 246.669 216.636 247.271 212.632C247.587 210.527 244.373 209.625 244.054 211.746C243.492 215.49 241.296 218.77 239.034 221.723C237.727 223.43 240.626 225.089 241.914 223.406Z" fill="black"/>
<path d="M237.47 228.214C238.646 226.404 235.758 224.734 234.591 226.531C231.068 231.958 225.74 235.038 219.654 236.88C217.601 237.502 218.476 240.722 220.54 240.098C227.48 237.996 233.464 234.387 237.47 228.214Z" fill="black"/>
<path d="M134.625 189.137C132.918 183.753 132.68 177.682 134.255 172.236C134.855 170.167 131.635 169.289 131.038 171.35C129.306 177.345 129.527 184.09 131.41 190.023C132.059 192.065 135.279 191.193 134.625 189.137Z" fill="black"/>
<path d="M139.989 212.991C141.486 214.542 143.842 212.181 142.348 210.633C138.668 206.821 138.055 201.637 136.107 196.917C135.299 194.958 132.071 195.815 132.89 197.803C135.083 203.12 135.845 208.696 139.989 212.991Z" fill="black"/>
<path d="M152.218 227.442C153.753 228.952 156.111 226.594 154.577 225.084C151.648 222.204 148.822 219.224 146.053 216.19C144.6 214.599 142.25 216.965 143.695 218.549C146.464 221.582 149.29 224.56 152.218 227.442Z" fill="black"/>
<path d="M170.075 238.308C172.225 238.416 172.214 235.082 170.075 234.971C166.219 234.777 163.915 231.946 161.249 229.533C159.657 228.093 157.294 230.444 158.89 231.892C162.313 234.988 165.179 238.059 170.075 238.308Z" fill="black"/>
<path d="M176.272 241.043C180.641 243.521 185.182 243.848 190.082 244.234C192.227 244.404 192.211 241.068 190.082 240.9C185.782 240.56 181.794 240.341 177.955 238.163C176.083 237.102 174.403 239.982 176.272 241.043Z" fill="black"/>
<path d="M212.689 244.234C214.837 244.396 214.821 241.06 212.689 240.901C207.375 240.501 202.056 241.195 196.755 240.531C194.627 240.26 194.651 243.6 196.755 243.864C202.056 244.532 207.375 243.835 212.689 244.234Z" fill="black"/>
<path d="M141.473 163.948C137.018 168.981 134.67 175.624 136.596 182.245C137.196 184.307 140.416 183.429 139.814 181.359C138.225 175.905 140.157 170.456 143.831 166.306C145.252 164.701 142.902 162.335 141.473 163.948Z" fill="black"/>
<path d="M145.577 202.447C142.681 198.124 140.617 193.391 140.987 188.096C141.139 185.948 137.802 185.962 137.654 188.096C137.243 193.929 139.502 199.361 142.697 204.13C143.889 205.907 146.779 204.238 145.577 202.447Z" fill="black"/>
<path d="M149.076 208.405C148.736 206.287 145.521 207.189 145.861 209.291C146.507 213.3 149.316 216.623 152.218 219.292C153.798 220.743 156.162 218.393 154.576 216.934C152.053 214.613 149.638 211.896 149.076 208.405Z" fill="black"/>
<path d="M162.56 228.448C164.5 229.334 166.196 226.459 164.243 225.568C161.993 224.541 160.131 222.753 158.913 220.608C157.848 218.738 154.969 220.419 156.033 222.291C157.508 224.884 159.831 227.202 162.56 228.448Z" fill="black"/>
<path d="M182.371 232.444C178.454 231.898 174.745 230.855 171.281 228.907C169.406 227.848 167.726 230.731 169.598 231.787C173.302 233.873 177.284 235.075 181.485 235.659C183.587 235.953 184.494 232.741 182.371 232.444Z" fill="black"/>
<path d="M188.125 236.224C191.764 237.958 195.665 239.212 199.712 239.417C201.862 239.525 201.851 236.189 199.712 236.081C196.286 235.908 192.891 234.811 189.808 233.344C187.876 232.426 186.183 235.3 188.125 236.224Z" fill="black"/>
<path d="M218.51 230.015C214.839 231.638 211.202 233.872 207.123 234.234C205 234.421 204.981 237.76 207.123 237.568C211.856 237.149 215.93 234.78 220.193 232.894C222.157 232.027 220.458 229.153 218.51 230.015Z" fill="black"/>
<path d="M227.199 229.3C231.376 225.972 235.968 222.789 237.632 217.448C238.275 215.39 235.055 214.514 234.418 216.562C232.967 221.214 228.463 224.056 224.841 226.942C223.16 228.281 225.535 230.626 227.199 229.3Z" fill="black"/>
<path d="M241.174 211.911C242.897 207.926 244.478 203.907 245.418 199.654C245.88 197.561 242.665 196.669 242.2 198.768C241.325 202.734 239.904 206.505 238.294 210.228C237.451 212.181 240.323 213.881 241.174 211.911Z" fill="black"/>
<path d="M243.2 194.098C244.869 189.571 242.092 185.518 241.779 181.055C241.628 178.924 238.291 178.91 238.442 181.055C238.726 185.056 241.444 189.252 239.985 193.212C239.239 195.233 242.462 196.098 243.2 194.098Z" fill="black"/>
<path d="M237.635 173.576C236.698 168.387 234.58 163.351 230.909 159.501C229.42 157.943 227.067 160.304 228.55 161.86C231.838 165.307 233.583 169.832 234.421 174.463C234.801 176.578 238.016 175.678 237.635 173.576Z" fill="black"/>
<path d="M211.873 148.946C216.017 150.388 218.978 153.922 221.882 157.04C223.352 158.617 225.705 156.254 224.241 154.681C220.891 151.085 217.522 147.387 212.759 145.728C210.722 145.021 209.855 148.243 211.873 148.946Z" fill="black"/>
<path d="M148.278 161.114C151.877 158.253 156.253 156.683 160.168 154.333C162.01 153.231 160.335 150.345 158.485 151.453C154.3 153.966 149.77 155.695 145.92 158.755C144.237 160.093 146.614 162.438 148.278 161.114Z" fill="black"/>
<path d="M176.369 143.441C171.96 143.452 167.179 144.411 163.702 147.264C162.04 148.631 164.412 150.976 166.06 149.622C168.8 147.375 172.938 146.786 176.369 146.775C178.52 146.772 178.52 143.436 176.369 143.441Z" fill="black"/>
<path d="M204.165 142.336C196.565 141.544 189.687 139.756 182.229 142.395C180.216 143.109 181.083 146.331 183.117 145.613C190.244 143.087 196.919 144.919 204.165 145.672C206.304 145.894 206.283 142.557 204.165 142.336Z" fill="black"/>
<path d="M154.436 159.806C149.373 160.489 146.083 166.754 144.378 170.974C143.573 172.97 146.799 173.829 147.593 171.863C148.89 168.65 151.496 163.536 155.322 163.02C157.445 162.737 156.538 159.522 154.436 159.806Z" fill="black"/>
<path d="M146.544 190.69C146.506 186.07 145.034 181.591 146.484 177.052C147.141 174.997 143.92 174.127 143.269 176.166C141.711 181.045 143.167 185.73 143.21 190.69C143.226 192.84 146.563 192.84 146.544 190.69Z" fill="black"/>
<path d="M154.95 206.563C152.078 203.64 149.411 200.522 149.139 196.254C149.001 194.12 145.667 194.106 145.805 196.254C146.137 201.468 149.047 205.312 152.591 208.921C154.101 210.456 156.457 208.097 154.95 206.563Z" fill="black"/>
<path d="M165.523 221.776C167.452 222.706 169.144 219.829 167.207 218.897C163.435 217.081 161.514 213.499 158.651 210.635C157.127 209.114 154.771 211.473 156.292 212.994C159.375 216.073 161.458 219.818 165.523 221.776Z" fill="black"/>
<path d="M173.309 225.478C178.136 228.055 183.231 229.863 188.529 231.206C190.615 231.732 191.501 228.515 189.415 227.988C184.393 226.718 179.571 225.043 174.992 222.598C173.095 221.585 171.412 224.465 173.309 225.478Z" fill="black"/>
<path d="M209.619 227.057C206.145 228.945 202.109 229.148 198.232 229.053C196.081 228.999 196.087 232.333 198.232 232.387C202.711 232.498 207.301 232.112 211.302 229.937C213.193 228.91 211.51 226.03 209.619 227.057Z" fill="black"/>
<path d="M230.058 214.51C231.047 212.603 228.17 210.917 227.178 212.827C224.995 217.039 221.508 220.64 217.058 222.436C215.091 223.231 215.948 226.456 217.944 225.651C223.212 223.525 227.446 219.548 230.058 214.51Z" fill="black"/>
<path d="M236.217 193.658C236.214 197.905 235.298 202.762 232.629 206.19C231.324 207.865 233.666 210.242 234.987 208.549C238.24 204.369 239.548 198.891 239.55 193.658C239.553 191.507 236.219 191.507 236.217 193.658Z" fill="black"/>
<path d="M235.473 186.988C235.656 181.936 235.251 176.338 232.28 172.064C231.061 170.314 228.171 171.978 229.4 173.747C232.055 177.567 232.304 182.482 232.139 186.988C232.058 189.141 235.394 189.133 235.473 186.988Z" fill="black"/>
<path d="M216.861 154.795C215.016 153.679 213.341 156.561 215.178 157.674C218.917 159.938 222.61 163.169 224.045 167.424C224.731 169.451 227.951 168.581 227.262 166.538C225.536 161.424 221.384 157.534 216.861 154.795Z" fill="black"/>
<path d="M198.601 150.865C202.797 150.84 205.922 153.08 209.618 154.714C211.566 155.573 213.262 152.702 211.301 151.835C207.024 149.941 203.453 147.504 198.601 147.531C196.451 147.542 196.451 150.875 198.601 150.865Z" fill="black"/>
<path d="M187.414 147.581C182.084 148.607 176.797 148.672 171.823 151.085C169.889 152.022 171.58 154.897 173.507 153.962C178.145 151.714 183.327 151.755 188.3 150.796C190.41 150.39 189.516 147.176 187.414 147.581Z" fill="black"/>
<path d="M162.928 155.899C161.604 156.521 160.385 157.234 159.221 158.123C157.538 159.411 159.197 162.31 160.904 161.003C162.069 160.114 163.287 159.401 164.611 158.779C166.556 157.863 164.862 154.989 162.928 155.899Z" fill="black"/>
<path d="M152.586 168.39C149.433 171.373 148.275 175.314 148.391 179.575C148.45 181.72 151.786 181.725 151.727 179.575C151.633 176.16 152.402 173.153 154.945 170.749C156.509 169.268 154.148 166.915 152.586 168.39Z" fill="black"/>
<path d="M156.057 197.289C153.739 194.431 152.275 190.279 153.521 186.683C154.228 184.646 151.005 183.779 150.306 185.797C148.652 190.562 150.66 195.901 153.699 199.648C155.055 201.317 157.4 198.942 156.057 197.289Z" fill="black"/>
<path d="M159.822 202.842C159.06 200.856 155.834 201.718 156.607 203.728C157.847 206.962 159.735 209.391 162.561 211.395C164.317 212.643 165.981 209.75 164.244 208.515C162.183 207.054 160.727 205.203 159.822 202.842Z" fill="black"/>
<path d="M176.673 219.347C178.683 220.123 179.544 216.897 177.559 216.132C174.995 215.141 172.761 213.444 170.546 211.853C168.795 210.594 167.134 213.49 168.863 214.733C171.345 216.516 173.806 218.24 176.673 219.347Z" fill="black"/>
<path d="M197.123 225.712C199.26 225.588 199.274 222.251 197.123 222.378C193.133 222.611 189.362 221.614 186.106 219.269C184.359 218.01 182.697 220.906 184.423 222.149C188.103 224.799 192.617 225.974 197.123 225.712Z" fill="black"/>
<path d="M215.211 217.676C212.037 220.507 208.109 220.95 204.089 221.693C201.976 222.085 202.873 225.3 204.975 224.911C209.662 224.041 213.898 223.309 217.569 220.034C219.177 218.6 216.81 216.25 215.211 217.676Z" fill="black"/>
<path d="M223.493 214.102C227.732 209.89 231.02 204.476 232.073 198.544C232.449 196.442 229.234 195.542 228.858 197.658C227.897 203.063 225.003 207.902 221.135 211.743C219.608 213.262 221.967 215.62 223.493 214.102Z" fill="black"/>
<path d="M227.012 181.877C228.287 185.602 227.642 189.625 228.865 193.364C229.53 195.398 232.75 194.528 232.08 192.478C230.862 188.75 231.505 184.727 230.227 180.991C229.535 178.967 226.315 179.837 227.012 181.877Z" fill="black"/>
<path d="M225.236 174.653C223.51 171.187 221.44 168.145 218.677 165.422C217.145 163.911 214.784 166.27 216.318 167.78C218.888 170.314 220.752 173.116 222.356 176.336C223.315 178.262 226.192 176.571 225.236 174.653Z" fill="black"/>
<path d="M203.861 153.884C201.792 153.279 200.914 156.499 202.975 157.099C206.287 158.069 209.319 159.908 211.504 162.599C212.86 164.271 215.202 161.897 213.862 160.243C211.334 157.129 207.681 155 203.861 153.884Z" fill="black"/>
<path d="M197.126 152.709C191.866 152.641 185.939 151.409 181.092 154.049C179.204 155.075 180.887 157.955 182.775 156.929C186.939 154.662 192.601 155.986 197.126 156.042C199.279 156.072 199.274 152.736 197.126 152.709Z" fill="black"/>
<path d="M174.813 156.479C168.729 158.589 163.086 160.542 159.366 166.14C158.172 167.936 161.06 169.603 162.246 167.823C165.431 163.027 170.523 161.49 175.699 159.694C177.72 158.994 176.85 155.771 174.813 156.479Z" fill="black"/>
<path d="M156.772 172.805C154.841 177.376 154.503 182.647 155.862 187.429C156.451 189.496 159.669 188.618 159.08 186.543C157.985 182.698 158.083 178.2 159.652 174.488C160.479 172.533 157.607 170.831 156.772 172.805Z" fill="black"/>
<path d="M165.694 199.519C163.833 197.401 162.698 195.081 161.677 192.474C160.902 190.494 157.676 191.355 158.462 193.36C159.697 196.518 161.083 199.311 163.336 201.878C164.76 203.496 167.107 201.127 165.694 199.519Z" fill="black"/>
<path d="M179.971 212.883C181.916 213.753 183.615 210.881 181.654 210.003C177.796 208.277 174.201 206.215 170.875 203.595C169.206 202.279 166.828 204.621 168.517 205.953C172.077 208.76 175.832 211.032 179.971 212.883Z" fill="black"/>
<path d="M198.162 214.651C194.72 215.616 191.294 214.243 187.931 213.538C185.834 213.101 184.94 216.315 187.045 216.756C191.046 217.591 194.96 219.012 199.048 217.866C201.117 217.288 200.236 214.07 198.162 214.651Z" fill="black"/>
<path d="M218.178 205.817C214.849 209.64 211.073 212.466 205.945 213.171C203.822 213.463 204.729 216.675 206.831 216.386C212.464 215.61 216.878 212.379 220.536 208.176C221.941 206.56 219.593 204.191 218.178 205.817Z" fill="black"/>
<path d="M222.649 201.904C225.41 197.314 225.57 192.184 225.1 186.98C224.908 184.857 221.571 184.838 221.766 186.98C222.179 191.584 222.228 196.136 219.77 200.221C218.659 202.069 221.542 203.743 222.649 201.904Z" fill="black"/>
<path d="M210.392 167.784C214.544 172.204 217.697 177.207 219.596 182.983C220.266 185.015 223.486 184.145 222.813 182.097C220.733 175.775 217.297 170.264 212.75 165.426C211.275 163.856 208.92 166.217 210.392 167.784Z" fill="black"/>
<path d="M188.897 157.589C186.793 158.03 187.684 161.242 189.783 160.804C194.63 159.794 199.436 160.564 203.353 163.711C205.014 165.043 207.389 162.701 205.711 161.353C200.803 157.411 195.016 156.312 188.897 157.589Z" fill="black"/>
<path d="M181.492 159.441C179.098 159.938 176.815 160.157 174.679 161.445C172.717 162.626 171.575 164.771 169.265 165.371C167.185 165.908 168.068 169.126 170.151 168.585C172.228 168.048 173.663 166.773 175.181 165.319C177.25 163.339 179.72 163.209 182.378 162.656C184.482 162.218 183.591 159.003 181.492 159.441Z" fill="black"/>
<path d="M164.186 170.584C161.727 174.526 159.793 178.251 161.052 182.984C161.606 185.062 164.823 184.181 164.27 182.098C163.254 178.289 165.115 175.393 167.066 172.267C168.206 170.436 165.32 168.763 164.186 170.584Z" fill="black"/>
<path d="M172.363 196.555C169.259 193.394 167.575 190.077 166.492 185.803C165.965 183.72 162.748 184.604 163.277 186.692C164.496 191.506 166.511 195.358 170.004 198.914C171.514 200.448 173.87 198.09 172.363 196.555Z" fill="black"/>
<path d="M177.01 204.729C181.216 207.244 185.09 209.932 190.007 210.826C192.109 211.207 193.008 207.995 190.893 207.608C186.26 206.766 182.656 204.218 178.693 201.849C176.842 200.741 175.168 203.626 177.01 204.729Z" fill="black"/>
<path d="M209.247 204.815C205.665 207.517 201.18 206.874 197.047 207.982C194.972 208.538 195.853 211.756 197.933 211.199C202.399 210.002 207.042 210.626 210.93 207.695C212.624 206.417 210.965 203.519 209.247 204.815Z" fill="black"/>
<path d="M215.833 191.808C216.023 195.498 214.134 198.278 212.357 201.342C211.273 203.206 214.156 204.884 215.236 203.025C217.317 199.443 219.389 196.106 219.17 191.808C219.059 189.669 215.723 189.658 215.833 191.808Z" fill="black"/>
<path d="M210.132 175.59C211.95 179.024 213.428 182.828 214.038 186.68C214.376 188.798 217.588 187.896 217.256 185.794C216.599 181.674 214.957 177.581 213.012 173.907C212.004 172.005 209.127 173.691 210.132 175.59Z" fill="black"/>
<path d="M197.224 162.569C195.306 161.612 193.615 164.489 195.541 165.448C199.064 167.202 202.589 168.882 205.58 171.486C207.193 172.894 209.562 170.544 207.938 169.128C204.715 166.324 201.02 164.46 197.224 162.569Z" fill="black"/>
<path d="M190.005 162.405C185.805 163.512 181.477 163.85 177.751 166.279C175.955 167.446 177.624 170.337 179.434 169.159C182.898 166.9 186.988 166.649 190.892 165.62C192.972 165.071 192.088 161.856 190.005 162.405Z" fill="black"/>
<path d="M171.967 171.691C169.238 175.435 167.328 180.006 169.374 184.491C170.265 186.444 173.137 184.75 172.253 182.808C170.773 179.561 172.967 175.954 174.847 173.374C176.117 171.632 173.22 169.97 171.967 171.691Z" fill="black"/>
<path d="M171.592 189.31C174.01 193.454 176.276 196.845 180.342 199.544C182.139 200.735 183.808 197.844 182.025 196.664C178.459 194.297 176.584 191.25 174.472 187.627C173.389 185.771 170.506 187.449 171.592 189.31Z" fill="black"/>
<path d="M188.696 201.109C186.799 200.099 185.114 202.976 187.013 203.989C191.273 206.261 195.088 205.656 199.713 205.329C201.844 205.178 201.858 201.841 199.713 201.992C195.787 202.273 192.34 203.051 188.696 201.109Z" fill="black"/>
<path d="M208.855 192.842C208.336 196.403 206.475 198.599 203.692 200.739C202.012 202.03 203.67 204.929 205.375 203.619C208.814 200.977 211.424 198.172 212.07 193.728C212.375 191.626 209.163 190.721 208.855 192.842Z" fill="black"/>
<path d="M205.888 179.653C206.931 182.424 208.252 185.069 208.052 188.103C207.912 190.251 211.245 190.237 211.389 188.103C211.607 184.748 210.259 181.836 209.103 178.767C208.355 176.773 205.129 177.637 205.888 179.653Z" fill="black"/>
<path d="M191.493 170.068C195.84 171.175 199.655 172.55 202.353 176.343C203.591 178.078 206.484 176.414 205.233 174.66C201.989 170.103 197.661 168.198 192.379 166.853C190.294 166.321 189.41 169.538 191.493 170.068Z" fill="black"/>
<path d="M185.161 169.247C180.347 171.368 175.825 173.661 174.39 179.137C173.844 181.22 177.062 182.101 177.605 180.023C178.794 175.488 182.919 173.856 186.844 172.127C188.808 171.262 187.109 168.388 185.161 169.247Z" fill="black"/>
<path d="M175.665 184.865C176.889 187.747 178.38 190.411 180.112 193.018C181.295 194.798 184.186 193.131 182.992 191.335C181.26 188.728 179.769 186.064 178.545 183.182C177.705 181.207 174.833 182.909 175.665 184.865Z" fill="black"/>
<path d="M186.301 197.114C189.008 197.781 191.777 198.17 194.452 198.967C196.518 199.583 197.396 196.363 195.34 195.749C192.663 194.955 189.894 194.566 187.187 193.899C185.099 193.383 184.213 196.6 186.301 197.114Z" fill="black"/>
<path d="M201.982 189.851C201.331 191.334 200.566 192.704 199.245 193.701C197.549 194.976 199.207 197.874 200.928 196.578C202.733 195.219 203.951 193.603 204.862 191.534C205.718 189.586 202.846 187.887 201.982 189.851Z" fill="black"/>
<path d="M196.85 173.318C195.077 172.089 193.413 174.983 195.166 176.198C198.203 178.303 199.813 181.92 200.27 185.505C200.537 187.607 203.876 187.634 203.603 185.505C202.985 180.651 200.959 176.166 196.85 173.318Z" fill="black"/>
<path d="M190.748 172.772C187.217 173.423 184.959 174.993 182.6 177.649C181.179 179.251 183.53 181.617 184.959 180.007C186.969 177.746 188.625 176.544 191.634 175.987C193.747 175.598 192.85 172.386 190.748 172.772Z" fill="black"/>
<path d="M185.818 183.644C185.815 181.494 182.479 181.494 182.484 183.644C182.487 185.743 183.03 187.659 183.654 189.647C184.294 191.692 187.515 190.817 186.869 188.758C186.337 187.059 185.821 185.446 185.818 183.644Z" fill="black"/>
<path d="M195.538 189.62C193.822 190.415 192.377 189.907 190.921 188.88C189.159 187.635 187.495 190.531 189.238 191.76C191.756 193.535 194.436 193.792 197.221 192.5C199.171 191.598 197.475 188.724 195.538 189.62Z" fill="black"/>
<path d="M192.976 181.122C194.387 182.387 194.778 184.483 193.827 186.142C192.757 188.011 195.64 189.692 196.707 187.825C198.366 184.929 197.847 181.017 195.335 178.764C193.738 177.332 191.372 179.683 192.976 181.122Z" fill="black"/>
<path d="M188.271 180.589C187.464 181.772 187.153 182.969 187.302 184.396C187.523 186.511 190.862 186.532 190.638 184.396C190.549 183.545 190.668 182.98 191.151 182.272C192.367 180.489 189.474 178.825 188.271 180.589Z" fill="black"/>
</svg>
