<svg width="352" height="352" viewBox="0 0 352 352" fill="none" xmlns="http://www.w3.org/2000/svg">
<path d="M77.8004 34.2753L108.966 69.6824L3.64349 171.491C5.04252 114.692 34.0895 64.6344 77.8004 34.2753ZM219.146 9.11698L111.814 67.487L80.7894 32.2435C108.042 14.1459 140.711 3.58624 175.801 3.58624C190.768 3.58624 205.292 5.51164 219.146 9.11698ZM315.898 75.7695H225.752V10.9851C262.476 22.1366 294.045 45.2441 315.898 75.7695ZM321.099 268.14V83.4602C338.127 110.162 348.008 141.847 348.008 175.795C348.008 209.748 338.127 241.435 321.099 268.14ZM225.752 340.621V275.992H315.781C293.931 306.438 262.41 329.488 225.752 340.621ZM80.5003 319.171L111.718 284.222L219.13 342.494C205.282 346.097 190.762 348.02 175.801 348.02C140.585 348.02 107.81 337.386 80.5003 319.171ZM64.8819 117.288L108.342 174.085H6.1252L64.8819 117.288ZM109.776 170.054L67.4781 114.779L109.776 73.8905V170.054ZM157.112 104.798C157.098 104.814 157.074 104.817 157.057 104.83C156.85 105.032 156.716 105.272 156.626 105.526L113.363 169.904V70.7297L218.388 13.6114L157.112 104.798ZM222.165 170.82L160.635 105.992L222.165 14.4268V170.82ZM225.752 170.736V79.3558H315.044L225.752 170.736ZM274.26 126.225L317.51 81.963V262.609L274.26 126.225ZM225.752 179.651L315.085 272.405H225.752V179.651ZM160.54 245.164L222.165 179.553V337.171L160.54 245.164ZM113.363 181.178L218.418 338.027L113.363 281.032V181.178ZM109.776 181.012V277.871L67.1727 236.687L109.776 181.012ZM6.12247 177.671H107.813L64.5764 234.176L6.12247 177.671ZM271.418 129.132L315.276 267.428L226.425 175.178L271.418 129.132ZM158.582 109.044L221.353 175.178L158.489 242.106L113.903 175.536L158.582 109.044ZM3.64621 180.267L108.89 282.002L77.5141 317.131C34.0077 286.778 5.09706 236.881 3.64621 180.267ZM175.801 351.606C192.565 351.606 208.789 349.244 224.156 344.842C224.254 344.831 224.355 344.823 224.451 344.796C224.503 344.782 224.552 344.75 224.604 344.73C224.666 344.709 224.726 344.684 224.789 344.651C264.071 333.238 297.713 308.451 320.458 275.572C320.477 275.555 320.49 275.536 320.507 275.517C320.518 275.506 320.537 275.503 320.548 275.49C320.553 275.487 320.553 275.482 320.559 275.479C320.627 275.408 320.668 275.318 320.728 275.242C320.793 275.146 320.867 275.062 320.916 274.958C320.927 274.939 320.946 274.923 320.954 274.901C320.965 274.882 320.962 274.852 320.97 274.833C340.281 246.609 351.594 212.5 351.594 175.795C351.594 95.8335 297.929 28.1773 224.723 6.93522C224.604 6.87795 224.478 6.82887 224.35 6.79888C224.304 6.78797 224.26 6.78523 224.214 6.77978C224.208 6.77978 224.203 6.77978 224.197 6.77978C208.819 2.36718 192.581 0 175.801 0C139.41 0 105.566 11.116 77.4841 30.13C77.2577 30.2036 77.045 30.3209 76.8541 30.4872C76.7996 30.5363 76.775 30.6018 76.7259 30.6536C30.4378 62.349 0 115.584 0 175.795C0 272.738 78.8668 351.606 175.801 351.606Z" fill="black"/>
</svg>
