<svg width="376" height="377" viewBox="0 0 376 377" fill="none" xmlns="http://www.w3.org/2000/svg">
<path d="M11.2289 155.936C14.5788 143.031 17.3127 130.02 21.5622 117.366C26.6357 102.259 37.9226 90.5481 45.8921 77.035C46.989 75.179 44.1037 73.5014 43.0123 75.3519C35.8884 87.4306 26.687 98.0152 20.614 110.721C14.0466 124.466 11.8124 140.411 8.01408 155.05C7.47377 157.133 10.6886 158.017 11.2289 155.936Z" fill="black"/>
<path d="M53.0455 68.4816C72.5127 45.9642 96.4941 30.2439 122.372 16.1229C124.26 15.0936 122.577 12.2137 120.689 13.243C94.268 27.6612 70.5541 43.1411 50.6871 66.1231C49.2877 67.7413 51.638 70.1106 53.0455 68.4816Z" fill="black"/>
<path d="M136.794 11.8407C146.852 8.815 157.112 6.5484 167.367 4.29801C179.586 1.61537 190.308 5.77576 202.309 5.23005C204.451 5.13279 204.459 1.79638 202.309 1.89634C191.532 2.38531 181.893 -1.03755 170.909 0.321333C159.198 1.76666 147.187 5.23275 135.908 8.62589C133.855 9.24184 134.73 12.4621 136.794 11.8407Z" fill="black"/>
<path d="M218.167 5.90723C230.913 9.62726 243.631 11.3373 255.845 16.862C266.294 21.5897 276.355 26.8712 285.951 33.1604C287.755 34.3437 289.425 31.4531 287.634 30.2806C276.625 23.0648 264.979 17.3537 253.006 11.9371C242.272 7.0824 230.283 5.96936 219.053 2.69238C216.983 2.08724 216.105 5.30478 218.167 5.90723Z" fill="black"/>
<path d="M322.947 62.4256C331.184 70.6815 335.371 82.1928 343.422 90.7108C344.902 92.275 347.255 89.9138 345.78 88.3523C337.719 79.8235 332.953 68.9363 325.305 60.0671C317.538 51.0601 306.235 44.3549 296.529 37.6956C294.751 36.4772 293.087 39.3678 294.846 40.5754C304.652 47.3023 314.518 53.9778 322.947 62.4256Z" fill="black"/>
<path d="M353.449 102.77C352.506 100.839 349.629 102.53 350.569 104.453C361.337 126.506 373.791 148.707 372.576 174.018C372.47 176.169 375.807 176.158 375.909 174.018C377.155 148.14 364.466 125.328 353.449 102.77Z" fill="black"/>
<path d="M372.577 186.616C370.994 207.499 371.205 228.336 364.486 248.425C363.8 250.472 367.023 251.342 367.701 249.313C374.525 228.914 374.303 207.834 375.911 186.616C376.075 184.471 372.739 184.484 372.577 186.616Z" fill="black"/>
<path d="M358.554 262.51C354.374 273.678 350.352 284.722 344.065 294.92C337.836 305.021 328.097 312.853 319.703 321.063C318.166 322.568 320.524 324.926 322.061 323.422C330.841 314.831 339.883 306.729 346.945 296.603C353.858 286.689 357.578 274.596 361.768 263.396C362.525 261.378 359.299 260.513 358.554 262.51Z" fill="black"/>
<path d="M306.846 328.809C295.308 346.064 274.576 354.757 255.966 362.135C253.991 362.916 254.85 366.144 256.852 365.35C276.386 357.607 297.628 348.581 309.726 330.492C310.925 328.698 308.035 327.031 306.846 328.809Z" fill="black"/>
<path d="M237.437 366.581C227.779 370.455 217.667 370.045 207.477 370.915C197.022 371.809 187.869 375.21 177.952 369.715C176.069 368.67 174.386 371.552 176.269 372.595C184.416 377.109 192.267 376.55 201.242 375.178C213.666 373.276 226.49 374.543 238.323 369.799C240.292 369.007 239.436 365.782 237.437 366.581Z" fill="black"/>
<path d="M160.508 369.545C146.314 366.97 131.969 364.636 119.404 357.115C117.553 356.007 115.878 358.89 117.721 359.995C130.529 367.662 145.136 370.134 159.622 372.76C161.723 373.141 162.62 369.928 160.508 369.545Z" fill="black"/>
<path d="M84.4397 338.692C78.4369 333.562 73.847 327.11 67.5309 322.28C65.8208 320.973 64.1621 323.871 65.8478 325.16C72.5881 330.315 77.6075 337.228 84.0399 342.723C90.121 347.921 97.8041 351.049 104.385 355.544C106.165 356.763 107.832 353.872 106.068 352.664C98.9523 347.804 91.026 344.322 84.4397 338.692Z" fill="black"/>
<path d="M30.5021 278.069C29.7241 276.092 26.4985 276.953 27.2873 278.955C32.8552 293.114 41.8134 307.721 53.6542 317.487C55.2994 318.846 57.6714 316.499 56.0126 315.129C44.6203 305.733 35.8755 291.731 30.5021 278.069Z" fill="black"/>
<path d="M9.06754 222.932C8.94597 220.795 5.60959 220.781 5.73386 222.932C6.64427 238.779 16.1725 251.787 21.3541 266.359C22.07 268.372 25.2929 267.505 24.5716 265.473C19.517 251.26 9.95363 238.355 9.06754 222.932Z" fill="black"/>
<path d="M6.78425 208.407C3.99087 195.161 1.41362 180.322 5.30111 167.049C5.90625 164.982 2.68874 164.104 2.0863 166.163C-1.97409 180.03 0.646386 195.44 3.56943 209.293C4.01248 211.398 7.2273 210.503 6.78425 208.407Z" fill="black"/>
<path d="M209.263 17.6949C221.666 20.0453 234.131 21.804 246.353 25.0215C260.936 28.8604 272.736 38.7913 285.995 45.475C287.91 46.4394 289.599 43.5623 287.678 42.5951C277.296 37.3622 267.932 29.6358 257.121 25.3241C242.036 19.3051 226.002 17.4815 210.15 14.4801C208.048 14.0803 207.154 17.2951 209.263 17.6949Z" fill="black"/>
<path d="M296.554 49.057C294.838 47.7602 293.18 50.6563 294.871 51.9368C317.38 68.9458 333.292 90.6068 348.445 114.018C349.609 115.818 352.497 114.148 351.324 112.335C335.696 88.1889 319.76 66.5927 296.554 49.057Z" fill="black"/>
<path d="M367.38 162.533C365.027 150.308 361.007 138.14 356.641 126.497C355.893 124.503 352.67 125.367 353.427 127.383C356.928 136.727 359.729 146.31 362.515 155.89C365.891 167.501 362.604 177.586 363.906 189.051C364.144 191.161 367.483 191.185 367.24 189.051C366.226 180.128 369.106 171.499 367.38 162.533Z" fill="black"/>
<path d="M345.849 271.797C351.26 262.138 355.537 252.14 359.473 241.812C364.044 229.823 364.816 217.422 367.531 204.998C367.991 202.902 364.776 202.01 364.317 204.112C361.953 214.921 361.245 225.913 357.901 236.506C354.218 248.153 348.929 259.48 342.969 270.113C341.918 271.991 344.798 273.671 345.849 271.797Z" fill="black"/>
<path d="M294.713 330.641C302.248 322.455 312.227 317.236 320.111 309.418C328.177 301.416 333.729 290.388 339.424 280.703C340.518 278.844 337.635 277.166 336.544 279.02C330.355 289.54 324.314 300.551 315.583 309.212C308.416 316.32 299.247 320.796 292.355 328.282C290.902 329.863 293.255 332.227 294.713 330.641Z" fill="black"/>
<path d="M215.644 364.646C240.225 364.168 260.913 350.744 281.548 338.833C283.412 337.758 281.731 334.875 279.865 335.953C259.79 347.54 239.59 360.845 215.644 361.312C213.496 361.353 213.491 364.689 215.644 364.646Z" fill="black"/>
<path d="M143.99 361.646C163.679 366.805 183.613 365.284 203.751 365.449C205.901 365.465 205.901 362.132 203.751 362.113C183.913 361.951 164.3 363.52 144.876 358.431C142.793 357.885 141.913 361.1 143.99 361.646Z" fill="black"/>
<path d="M97.9793 344.962C107.81 350.897 119.424 353.658 130.306 356.927C132.37 357.546 133.248 354.328 131.192 353.71C120.356 350.457 109.723 347.404 99.6624 342.082C89.71 336.817 81.7162 328.137 73.409 320.694C71.8124 319.265 69.4458 321.615 71.0505 323.053C79.7386 330.838 87.9432 338.903 97.9793 344.962Z" fill="black"/>
<path d="M65.2666 308.972C48.0552 299.071 38.5567 279.868 30.3332 262.567C29.412 260.625 26.5376 262.319 27.4561 264.25C35.9308 282.083 45.8427 301.643 63.5836 311.852C65.4503 312.927 67.1307 310.044 65.2666 308.972Z" fill="black"/>
<path d="M19.5457 220.602C17.9356 210.13 13.497 200.013 18.2409 189.534C19.1216 187.589 16.2471 185.895 15.3638 187.851C11.252 196.928 12.9027 205.079 15.0747 214.534C17.6141 225.583 17.0738 236.565 22.0689 246.961C22.9983 248.9 25.8754 247.207 24.9488 245.278C21.1207 237.313 20.8614 229.155 19.5457 220.602Z" fill="black"/>
<path d="M23.4936 131.533C16.9964 144.325 15.6024 158.473 14.0356 172.529C13.7978 174.666 17.1342 174.642 17.3692 172.529C18.8686 159.07 20.1491 145.468 26.3734 133.216C27.346 131.304 24.4688 129.615 23.4936 131.533Z" fill="black"/>
<path d="M53.0585 80.1237C48.9792 86.3048 43.2493 90.9569 38.8701 96.8706C33.8912 103.589 31.0438 111.429 26.8402 118.607C25.7488 120.466 28.6313 122.144 29.7174 120.29C33.5049 113.823 36.201 106.81 40.2938 100.518C44.7351 93.6935 51.4295 88.6389 55.9383 81.8067C57.127 80.0048 54.2364 78.3379 53.0585 80.1237Z" fill="black"/>
<path d="M93.9233 40.7901C80.8858 46.9767 67.7267 56.5699 59.2952 68.4C58.0444 70.156 60.9404 71.8201 62.175 70.0857C70.2985 58.6852 83.0686 49.6188 95.6064 43.67C97.5488 42.7488 95.8549 39.8743 93.9233 40.7901Z" fill="black"/>
<path d="M107.121 37.2416C120.048 31.6332 131.532 21.7321 145.874 19.9625C147.981 19.7005 148.006 16.3641 145.874 16.6261C130.8 18.4875 119.021 28.4697 105.438 34.3618C103.468 35.2155 105.17 38.0899 107.121 37.2416Z" fill="black"/>
<path d="M199.274 9.56916C185.91 6.60556 171.489 10.0203 158.587 13.6782C156.523 14.2645 157.401 17.482 159.473 16.8958C171.803 13.4 185.613 9.95008 198.388 12.784C200.482 13.2487 201.373 10.0338 199.274 9.56916Z" fill="black"/>
<path d="M86.3957 65.0282C96.34 57.9799 105.887 50.4398 116.35 44.156C128.434 36.8997 142.793 35.3058 155.892 30.6618C157.905 29.9486 157.038 26.7256 155.006 27.447C142.974 31.7127 130.387 33.7713 118.722 39.0798C106.368 44.7045 95.7079 54.3544 84.7127 62.1483C82.9729 63.3803 84.637 66.2763 86.3957 65.0282Z" fill="black"/>
<path d="M244.476 29.375C217.771 24.0935 192.388 21.1326 165.248 25.5902C163.13 25.9387 164.03 29.1508 166.134 28.805C192.226 24.5204 217.893 27.5083 243.59 32.5899C245.689 33.0059 246.586 29.7911 244.476 29.375Z" fill="black"/>
<path d="M257.632 34.9892C255.676 34.1598 253.974 37.0316 255.949 37.869C265.321 41.8349 274.533 46.441 283.418 51.4038C292.479 56.4638 297.039 65.1844 305.106 71.1143C306.84 72.3894 308.502 69.4934 306.789 68.2344C299.611 62.9583 295.202 55.2157 287.687 50.107C278.609 43.9367 267.709 39.2549 257.632 34.9892Z" fill="black"/>
<path d="M349.237 137.046C346.222 126.899 342.143 117.295 337.637 107.734C332.542 96.9306 324.661 88.5829 318.153 78.6925C316.975 76.9041 314.085 78.5736 315.273 80.3756C320.331 88.0588 326.536 94.8829 331.38 102.715C337.958 113.348 342.475 126.005 346.022 137.932C346.633 139.988 349.85 139.113 349.237 137.046Z" fill="black"/>
<path d="M347.826 148.122C350.789 158.842 353.788 169.472 354.512 180.632C355.152 190.507 351.751 200.402 352.132 210.377C352.213 212.519 355.549 212.527 355.466 210.377C355.028 198.887 358.31 187.794 357.565 176.286C356.93 166.487 353.642 156.643 351.041 147.236C350.471 145.167 347.253 146.045 347.826 148.122Z" fill="black"/>
<path d="M349.116 223.865C343.743 245.08 339.496 267.789 323.99 284.279C322.517 285.844 324.873 288.207 326.348 286.638C342.29 269.686 346.799 246.593 352.331 224.751C352.861 222.665 349.643 221.782 349.116 223.865Z" fill="black"/>
<path d="M319.046 295.3C320.556 293.768 318.2 291.409 316.687 292.941C303.48 306.33 291.658 320.994 275.332 330.798C273.493 331.903 275.168 334.788 277.016 333.678C293.581 323.728 305.635 308.894 319.046 295.3Z" fill="black"/>
<path d="M264.782 339.956C266.654 338.897 264.974 336.017 263.099 337.076C253.747 342.365 244.653 347.612 234.412 351.054C224.305 354.452 213.124 354.255 202.596 355.076C200.464 355.241 200.451 358.577 202.596 358.41C213.651 357.548 224.538 357.148 235.298 354.271C245.831 351.453 255.397 345.264 264.782 339.956Z" fill="black"/>
<path d="M133.814 349.906C151.782 355.785 171.289 361.477 190.086 356.225C192.156 355.647 191.275 352.429 189.2 353.01C170.992 358.097 152.09 352.381 134.7 346.691C132.649 346.019 131.779 349.242 133.814 349.906Z" fill="black"/>
<path d="M77.1219 307.467C76.4168 305.451 73.1938 306.318 73.907 308.353C76.8814 316.852 83.7352 321.153 91.1725 325.567C100.46 331.075 107.979 339.129 118.517 342.335C120.579 342.962 121.454 339.745 119.403 339.118C110.499 336.411 103.88 330.046 96.3783 324.87C88.9896 319.772 80.3502 316.684 77.1219 307.467Z" fill="black"/>
<path d="M62.6285 299.307C64.0063 300.963 66.3512 298.589 64.9869 296.949C56.8554 287.183 48.3942 277.436 44.2257 265.222C43.5341 263.199 40.3112 264.066 41.0082 266.108C45.3712 278.892 54.1133 289.082 62.6285 299.307Z" fill="black"/>
<path d="M34.4234 255.4C35.0124 257.464 38.2299 256.586 37.6383 254.514C35.704 247.725 32.8133 241.284 31.1843 234.403C29.4229 226.952 30.3982 219.056 28.7962 211.521C28.3504 209.419 25.1356 210.311 25.5814 212.41C26.9943 219.058 26.4702 225.777 27.521 232.445C28.78 240.43 32.219 247.671 34.4234 255.4Z" fill="black"/>
<path d="M25.8457 158.767C21.472 171.799 19.327 186.892 21.7421 200.514C22.1176 202.629 25.3297 201.729 24.9569 199.625C22.6417 186.557 24.8759 172.128 29.0632 159.653C29.7467 157.608 26.5265 156.738 25.8457 158.767Z" fill="black"/>
<path d="M43.4818 107.837C34.9099 119.157 33.9832 133.772 29.0773 146.71C28.3127 148.725 31.5384 149.587 32.2921 147.596C37.0927 134.939 37.9788 120.591 46.3616 109.52C47.6611 107.805 44.7623 106.146 43.4818 107.837Z" fill="black"/>
<path d="M53.0008 98.5611C58.728 87.8927 65.5305 76.0545 75.8773 69.2709C77.6684 68.0957 75.9989 65.2078 74.1943 66.391C63.353 73.4988 56.1211 85.6963 50.121 96.878C49.1025 98.7718 51.9823 100.458 53.0008 98.5611Z" fill="black"/>
<path d="M302.585 83.7079C310.67 93.5983 319.315 102.956 326.156 113.795C332.418 123.718 334.476 136.08 339.08 146.822C339.925 148.791 342.797 147.092 341.959 145.138C336.656 132.765 333.968 119.93 326.723 108.446C320.555 98.6745 312.229 90.2592 304.943 81.3495C303.582 79.6853 301.234 82.0573 302.585 83.7079Z" fill="black"/>
<path d="M345.332 230.105C349.111 204.794 350.221 180.21 344.478 155.061C344 152.965 340.785 153.854 341.263 155.947C346.823 180.296 345.783 204.664 342.117 229.219C341.801 231.321 345.016 232.226 345.332 230.105Z" fill="black"/>
<path d="M311.943 291.666C316.916 283.942 324.28 279.058 328.897 270.829C333.814 262.067 337.529 251.996 340.887 242.527C341.605 240.496 338.382 239.628 337.669 241.641C334.357 250.986 330.421 260.257 326.017 269.146C321.844 277.564 313.998 282.316 309.063 289.983C307.893 291.795 310.781 293.468 311.943 291.666Z" fill="black"/>
<path d="M248.922 336.594C258.388 333.023 267.301 328.511 276.124 323.575C286.079 318.005 293.578 309.965 302.593 303.122C304.282 301.839 302.623 298.94 300.908 300.242C293.9 305.561 287.773 311.902 280.614 317.032C270.983 323.929 259.034 329.23 248.036 333.379C246.042 334.13 246.907 337.353 248.922 336.594Z" fill="black"/>
<path d="M179.62 347.692C189.221 346.603 198.922 349.083 208.437 347.749C219.135 346.249 229.206 342.637 239.342 339.031C241.355 338.315 240.488 335.092 238.456 335.816C229.614 338.961 220.84 341.94 211.663 343.956C201.232 346.249 190.196 343.156 179.62 344.356C177.507 344.596 177.486 347.935 179.62 347.692Z" fill="black"/>
<path d="M166.664 342.508C146.327 338.98 124.494 336.657 107.89 323.208C106.234 321.868 103.859 324.213 105.532 325.567C122.681 339.458 144.712 342.071 165.778 345.723C167.88 346.088 168.78 342.876 166.664 342.508Z" fill="black"/>
<path d="M96.8919 319.301C98.5182 320.689 100.887 318.341 99.2503 316.942C85.8102 305.463 71.1842 295.376 60.9535 280.685C59.7324 278.934 56.8391 280.598 58.0737 282.368C68.4881 297.318 83.2087 307.614 96.8919 319.301Z" fill="black"/>
<path d="M51.4201 271.279C52.5952 273.068 55.4859 271.398 54.2999 269.596C48.7483 261.156 43.2291 252.973 39.3848 243.572C35.5162 234.114 35.0759 223.454 33.6792 213.439C33.382 211.318 30.1699 212.226 30.4644 214.328C31.8881 224.542 32.8633 234.63 36.17 244.461C39.4469 254.205 45.8306 262.78 51.4201 271.279Z" fill="black"/>
<path d="M34.9694 201.077C29.0368 184.216 33.4295 165.986 37.8249 149.274C38.3733 147.192 35.1558 146.308 34.6101 148.388C30.0769 165.624 25.6356 184.573 31.7546 201.963C32.4624 203.978 35.6853 203.111 34.9694 201.077Z" fill="black"/>
<path d="M44.1373 134.302C46.2553 125.679 51.8231 119.023 56.3293 111.58C60.8895 104.042 63.3343 95.8054 72.063 91.9773C74.0297 91.1155 72.3304 88.2411 70.3799 89.0975C62.7832 92.4285 59.1281 99.0148 55.4756 106.117C50.7209 115.365 43.4484 123.132 40.9225 133.416C40.4092 135.505 43.624 136.391 44.1373 134.302Z" fill="black"/>
<path d="M109.022 54.878C97.0972 59.9056 87.9202 68.8261 78.6647 77.6169C77.1033 79.1001 79.4644 81.4531 81.0232 79.9727C89.8004 71.6384 98.5777 62.8692 109.908 58.0928C111.858 57.2716 111.002 54.0432 109.022 54.878Z" fill="black"/>
<path d="M118.817 47.9079C116.813 48.64 117.677 51.863 119.703 51.1228C126.036 48.8129 131.993 45.6251 138.43 43.5962C145.4 41.4026 152.965 41.7565 160.021 39.7087C162.082 39.109 161.204 35.8914 159.132 36.4912C152.951 38.285 146.54 38.6632 140.222 39.7546C132.709 41.0514 125.887 45.3279 118.817 47.9079Z" fill="black"/>
<path d="M171.094 35.2297C183.262 32.1365 197.156 33.1225 209.234 36.178C211.32 36.7048 212.206 33.4899 210.12 32.9631C197.407 29.7456 183 28.7649 170.208 32.0149C168.125 32.5444 169.009 35.7592 171.094 35.2297Z" fill="black"/>
<path d="M259.49 45.9997C248.195 38.6839 234.328 38.8622 221.753 35.1584C219.686 34.5478 218.811 37.7654 220.867 38.3732C233.134 41.9879 246.793 41.7475 257.807 48.8796C259.62 50.052 261.29 47.1641 259.49 45.9997Z" fill="black"/>
<path d="M270.27 51.4729C268.322 50.6084 266.623 53.4828 268.587 54.3527C278.942 58.9453 290.699 64.5213 297.699 73.7579C298.982 75.4464 301.878 73.7876 300.579 72.0749C293.16 62.2872 281.255 56.3465 270.27 51.4729Z" fill="black"/>
<path d="M257.162 320.613C247.371 324.719 237.792 329.282 227.726 332.691C215.737 336.752 202.813 335.304 190.421 336.692C188.308 336.93 188.286 340.269 190.421 340.029C201.705 338.764 213.016 339.399 224.192 337.16C235.86 334.823 247.174 328.39 258.048 323.827C260.001 323.009 259.145 319.781 257.162 320.613Z" fill="black"/>
<path d="M112.916 320.294C135.05 330.241 156.692 338.019 181.162 339.592C183.31 339.729 183.296 336.396 181.162 336.258C157.54 334.74 135.995 327.029 114.599 317.415C112.654 316.542 110.958 319.414 112.916 320.294Z" fill="black"/>
<path d="M104.525 310.089C96.5334 304.337 88.599 297.962 81.5427 291.081C75.6182 285.305 73.6758 277.422 68.3079 271.386C66.8761 269.776 64.5258 272.143 65.9495 273.745C68.9103 277.073 70.5204 281.058 72.5574 284.954C74.6295 288.914 77.982 292.264 81.1401 295.347C87.7318 301.773 95.3717 307.59 102.841 312.969C104.589 314.228 106.253 311.334 104.525 310.089Z" fill="black"/>
<path d="M57.9976 262.219C58.7649 264.202 61.9905 263.34 61.2124 261.333C58.2678 253.725 54.2803 246.607 51.4843 238.934C47.6427 228.385 46.0515 215.958 45.1708 204.87C45.0006 202.742 41.6642 202.725 41.8344 204.87C42.5773 214.229 44.2631 223.325 46.3568 232.472C48.7962 243.111 54.0858 252.12 57.9976 262.219Z" fill="black"/>
<path d="M45.4893 195.586C44.9165 185.811 44.2466 176.021 45.6081 166.274C46.8589 157.34 51.7946 149.27 53.2913 140.32C53.6425 138.216 50.4277 137.316 50.0738 139.431C48.5744 148.411 44.4627 156.551 42.3933 165.388C40.1403 175.011 41.5856 185.849 42.1556 195.586C42.2799 197.723 45.6162 197.736 45.4893 195.586Z" fill="black"/>
<path d="M58.3893 129.159C66.9396 111.828 74.8037 92.6579 91.3776 81.4195C93.1444 80.22 91.4802 77.3293 89.6945 78.5396C72.5588 90.159 64.3677 109.526 55.5094 127.475C54.5612 129.396 57.4383 131.087 58.3893 129.159Z" fill="black"/>
<path d="M141.385 47.312C125.12 52.7367 111.866 63.2025 97.6531 72.4283C95.8566 73.5953 97.5288 76.4833 99.3389 75.3081C113.292 66.2498 126.289 55.8597 142.271 50.5268C144.3 49.8514 143.43 46.6312 141.385 47.312Z" fill="black"/>
<path d="M154.071 47.5086C163.189 44.7585 172.02 42.0326 181.546 41.0465C190.971 40.0713 200.629 42.5054 209.906 43.9075C212.008 44.2263 212.913 41.0141 210.792 40.6926C200.999 39.2095 191.487 37.4049 181.546 37.7128C171.866 38.0127 162.349 41.5301 153.185 44.2938C151.132 44.9125 152.007 48.13 154.071 47.5086Z" fill="black"/>
<path d="M221.21 48.4305C238.046 47.5957 253.385 56.4541 267.347 64.8721C269.192 65.9852 270.867 63.0999 269.03 61.9923C254.596 53.2879 238.614 44.235 221.21 45.0941C219.071 45.2021 219.06 48.5359 221.21 48.4305Z" fill="black"/>
<path d="M280.921 71.69C279.052 70.6175 277.374 73.4973 279.238 74.5699C286.486 78.7356 291.033 85.6057 296.582 91.6301C301.99 97.5006 309.003 101.974 310.081 110.571C310.346 112.675 313.683 112.7 313.415 110.571C312.399 102.461 307.312 97.3088 301.599 91.8895C294.545 85.2005 289.515 76.6284 280.921 71.69Z" fill="black"/>
<path d="M318.671 122.318C323.907 132.454 329.426 142.639 330.831 154.131C331.09 156.238 334.427 156.263 334.167 154.131C332.682 141.985 327.092 131.363 321.551 120.635C320.565 118.722 317.685 120.41 318.671 122.318Z" fill="black"/>
<path d="M337.897 164.817C337.754 162.683 334.42 162.669 334.563 164.817C334.985 171.141 336.3 177.358 336.435 183.704C336.581 190.549 334.306 197.306 334.258 204.195C334.242 206.345 337.578 206.343 337.592 204.195C337.64 197.29 339.366 190.582 339.769 183.704C340.136 177.474 338.31 170.998 337.897 164.817Z" fill="black"/>
<path d="M327.333 251.122C333.611 240.54 338.312 227.748 338.725 215.372C338.795 213.222 335.461 213.227 335.389 215.372C334.997 227.135 330.41 239.397 324.453 249.439C323.353 251.292 326.236 252.97 327.333 251.122Z" fill="black"/>
<path d="M322.278 261.015C323.453 259.205 320.565 257.535 319.398 259.332C312.868 269.382 309.529 281.825 300.13 289.778C298.485 291.17 300.857 293.517 302.486 292.137C312.133 283.975 315.58 271.319 322.278 261.015Z" fill="black"/>
<path d="M267.979 322.239C278.785 318.195 287.368 308.991 294.681 300.395C296.064 298.766 293.716 296.396 292.322 298.036C285.431 306.138 277.286 315.21 267.093 319.025C265.096 319.77 265.961 322.996 267.979 322.239Z" fill="black"/>
<path d="M72.8576 260.923C67.6572 250.657 61.9273 240.767 57.9641 229.92C54.3441 220.019 54.8277 208.759 52.8663 198.436C52.4665 196.327 49.2517 197.223 49.6515 199.325C51.9478 211.407 51.9992 223.283 56.2541 234.932C59.7768 244.568 65.3555 253.481 69.9778 262.606C70.9503 264.524 73.8275 262.836 72.8576 260.923Z" fill="black"/>
<path d="M62.4223 124.602C54.6852 146.093 49.0012 166.984 49.3172 190.072C49.347 192.222 52.6833 192.225 52.6536 190.072C52.3457 167.568 58.0918 146.447 65.6371 125.489C66.3693 123.46 63.1436 122.595 62.4223 124.602Z" fill="black"/>
<path d="M103.103 77.0604C100.199 80.0322 96.5601 81.8179 93.0508 83.9548C89.4335 86.1566 86.5375 89.4687 83.8386 92.6646C78.2492 99.2861 73.2838 106.859 68.7641 114.234C67.6376 116.074 70.5228 117.748 71.6439 115.917C76.477 108.031 81.8827 100.132 87.8504 93.0644C92.8455 87.148 100.177 84.8274 105.462 79.4189C106.964 77.879 104.608 75.5206 103.103 77.0604Z" fill="black"/>
<path d="M113.067 69.069C111.117 69.9686 112.813 72.843 114.75 71.9488C122.62 68.3152 129.749 63.4254 137.967 60.5267C147.263 57.247 157.113 55.0614 166.857 53.708C168.978 53.4135 168.073 50.1987 165.971 50.4904C156.094 51.8655 146.609 54.4212 137.081 57.3091C128.515 59.908 121.137 65.3435 113.067 69.069Z" fill="black"/>
<path d="M228.328 54.6319C219.883 53.6647 212.1 49.5611 203.682 48.8208C194.122 47.9834 184.685 49.1126 175.192 50.2283C173.082 50.4769 173.061 53.816 175.192 53.5648C183.472 52.5922 191.655 51.7493 200.003 51.8331C209.65 51.9303 218.757 56.8715 228.328 57.9656C230.463 58.2114 230.441 54.875 228.328 54.6319Z" fill="black"/>
<path d="M240.468 59.2212C238.512 58.3945 236.81 61.2663 238.785 62.1011C255.977 69.3574 274.621 75.8546 286.515 91.0644C287.839 92.7582 290.181 90.3809 288.874 88.7059C276.801 73.2693 257.936 66.5937 240.468 59.2212Z" fill="black"/>
<path d="M292.599 97.9454C302.149 110.664 312.955 122.454 319.149 137.307C319.965 139.263 323.191 138.407 322.364 136.421C316.032 121.235 305.242 109.265 295.479 96.2624C294.203 94.5658 291.305 96.2245 292.599 97.9454Z" fill="black"/>
<path d="M326.083 147.458C325.322 145.469 322.096 146.331 322.869 148.344C325.732 155.816 328.626 163.173 330.449 170.986C332.778 180.973 331.097 191.474 330.368 201.543C330.211 203.688 333.548 203.674 333.702 201.543C334.369 192.355 335.909 182.767 334.285 173.598C332.667 164.478 329.385 156.073 326.083 147.458Z" fill="black"/>
<path d="M317.783 258.441C324.98 244.176 332.368 228.472 330.291 212.093C330.023 209.991 326.684 209.964 326.954 212.093C328.962 227.913 321.851 242.988 314.903 256.757C313.936 258.673 316.813 260.361 317.783 258.441Z" fill="black"/>
<path d="M309.503 270.271C310.416 268.339 307.542 266.646 306.624 268.588C303.263 275.693 297.106 280.38 291.841 285.986C286.565 291.602 282.853 298.443 274.621 299.937C272.506 300.32 273.406 303.535 275.507 303.154C282.969 301.798 287.489 296.414 292.087 290.811C297.83 283.817 305.551 278.627 309.503 270.271Z" fill="black"/>
<path d="M235.933 325.228C247.085 323.208 256.659 317.27 266.231 311.51C268.07 310.402 266.396 307.517 264.548 308.63C255.219 314.244 245.921 320.044 235.047 322.014C232.932 322.395 233.831 325.609 235.933 325.228Z" fill="black"/>
<path d="M188.511 331.293C195.051 330.958 201.47 332.231 208.003 332.236C213.932 332.242 219.835 330.156 225.684 329.421C227.786 329.157 227.813 325.817 225.684 326.085C219.749 326.833 213.973 328.424 208.003 328.9C201.524 329.419 195.03 327.625 188.511 327.96C186.371 328.068 186.361 331.404 188.511 331.293Z" fill="black"/>
<path d="M143.451 324.072C153.865 329.434 166.246 333.268 178.046 332.979C180.191 332.927 180.197 329.591 178.046 329.645C166.892 329.918 154.984 326.263 145.134 321.192C143.227 320.209 141.538 323.086 143.451 324.072Z" fill="black"/>
<path d="M135.429 316.938C125.473 311.305 113.457 308.785 105.29 300.35C103.791 298.805 101.435 301.164 102.932 302.709C111.342 311.394 123.501 314.02 133.745 319.818C135.62 320.88 137.301 317.997 135.429 316.938Z" fill="black"/>
<path d="M75.0874 270.26C74.1932 268.306 71.3187 270.003 72.2075 271.943C76.7974 281.971 86.2825 289.554 94.9165 296.011C96.6401 297.299 98.3015 294.403 96.5996 293.131C88.4194 287.015 79.4287 279.745 75.0874 270.26Z" fill="black"/>
<path d="M105.379 291.63C113.899 297.174 121.207 304.23 130.219 309.031C139.993 314.239 151.38 316.479 161.867 319.78C163.926 320.426 164.799 317.206 162.754 316.563C151.296 312.959 139.547 310.227 128.876 304.541C121.01 300.348 114.539 293.613 107.062 288.75C105.254 287.575 103.585 290.463 105.379 291.63Z" fill="black"/>
<path d="M101.198 283.363C85.5617 268.602 74.915 250.826 65.4381 231.748C64.4817 229.824 61.6046 231.513 62.5583 233.433C72.2378 252.92 82.871 270.645 98.8397 285.722C100.404 287.197 102.765 284.841 101.198 283.363Z" fill="black"/>
<path d="M59.5747 222.229C60.1177 224.31 63.3352 223.426 62.7895 221.343C60.8769 214.022 59.5126 206.574 58.1564 199.131C56.5625 190.367 59.8368 182.776 59.7557 174.231C59.7341 172.081 56.3977 172.081 56.4193 174.231C56.495 181.984 53.7908 188.79 54.4796 196.689C55.2226 205.199 57.4189 213.982 59.5747 222.229Z" fill="black"/>
<path d="M57.432 162.124C56.7431 164.167 59.9633 165.037 60.6468 163.01C63.6212 154.209 65.0746 145.267 69.2781 136.873C72.9954 129.446 77.0828 122.293 81.9402 115.55C83.2018 113.799 80.3058 112.138 79.0604 113.867C73.5763 121.48 69.1809 129.63 64.9881 138.008C61.1952 145.577 60.1227 154.16 57.432 162.124Z" fill="black"/>
<path d="M122.357 74.2629C116.017 79.7228 108.077 82.7242 101.504 87.876C94.7853 93.144 89.7038 101 84.6222 107.773C83.3282 109.494 86.2269 111.153 87.502 109.456C93.3346 101.684 99.1186 93.371 107.215 87.7788C112.961 83.8102 119.375 81.2221 124.716 76.6214C126.347 75.2166 123.978 72.8662 122.357 74.2629Z" fill="black"/>
<path d="M185.012 55.71C166.453 53.8378 149.625 62.1153 133.003 69.2177C131.03 70.0606 132.73 72.9323 134.686 72.0975C150.789 65.2167 167.02 57.2309 185.012 59.0437C187.152 59.2598 187.13 55.9234 185.012 55.71Z" fill="black"/>
<path d="M194.063 59.5151C209.011 61.4386 223.964 62.1086 238.147 67.6576C240.154 68.441 241.013 65.2154 239.035 64.4428C224.55 58.7776 209.319 58.1427 194.063 56.1787C191.934 55.9059 191.961 59.245 194.063 59.5151Z" fill="black"/>
<path d="M274.927 82.9378C267.134 76.9511 258.359 73.2662 249.398 69.3976C247.448 68.5547 245.746 71.4265 247.715 72.2775C254.801 75.3356 261.841 78.2776 268.43 82.3326C276.643 87.3845 282.624 95.3568 288.975 102.429C290.415 104.031 292.766 101.665 291.334 100.071C286.096 94.2383 281.184 87.7411 274.927 82.9378Z" fill="black"/>
<path d="M296.001 109.13C294.27 107.85 292.611 110.746 294.318 112.01C306.286 120.866 311.921 135.967 316.714 149.508C317.427 151.52 320.65 150.653 319.931 148.622C314.799 134.125 308.774 118.583 296.001 109.13Z" fill="black"/>
<path d="M323.045 207.056C326.97 200.607 326.206 194.11 325.317 186.864C324.288 178.465 325.557 170.193 322.648 162.075C321.926 160.068 318.703 160.932 319.43 162.961C321.956 170.007 321.383 177.155 321.748 184.49C322.113 191.895 324.363 198.481 320.165 205.373C319.044 207.215 321.929 208.89 323.045 207.056Z" fill="black"/>
<path d="M312.488 248.568C318.378 239.631 320.514 229.182 322.778 218.884C323.24 216.787 320.026 215.896 319.564 217.997C317.362 228.012 315.338 238.186 309.608 246.885C308.422 248.687 311.31 250.357 312.488 248.568Z" fill="black"/>
<path d="M307.362 257.021C303.731 261.854 301.084 267.327 296.945 271.779C293.144 275.867 288.387 278.846 284.794 283.172C283.432 284.811 285.777 287.186 287.152 285.53C291.083 280.797 296.264 277.407 300.438 272.914C304.353 268.705 306.803 263.28 310.242 258.704C311.536 256.983 308.637 255.324 307.362 257.021Z" fill="black"/>
<path d="M251.657 310.614C262.052 307.123 272.81 301.215 280.223 293.013C281.66 291.422 279.31 289.055 277.864 290.655C270.865 298.4 260.596 304.098 250.771 307.399C248.742 308.08 249.612 311.3 251.657 310.614Z" fill="black"/>
<path d="M241.561 311.179C231.258 314.257 221.743 320.602 210.715 320.656C208.565 320.665 208.562 324.001 210.715 323.99C222.108 323.936 231.806 317.571 242.447 314.394C244.503 313.781 243.628 310.564 241.561 311.179Z" fill="black"/>
<path d="M200.982 324.988C203.103 324.655 202.198 321.443 200.096 321.773C190.554 323.267 179.889 324.477 170.587 321.235C168.55 320.527 167.683 323.748 169.701 324.453C179.608 327.905 190.83 326.579 200.982 324.988Z" fill="black"/>
<path d="M87.9118 114.298C83.3084 122.581 77.2516 129.873 73.3803 138.569C69.1632 148.043 67.961 158.917 65.6728 168.953C65.1974 171.047 68.4122 171.938 68.8903 169.839C70.8976 161.035 72.4807 152.171 75.1092 143.518C78.2295 133.258 85.6641 125.204 90.7916 115.981C91.8371 114.101 88.9573 112.418 87.9118 114.298Z" fill="black"/>
<path d="M93.0422 107.846C91.6834 109.491 94.0283 111.863 95.4006 110.204C108.195 94.716 124.188 83.818 141.502 73.9871C143.372 72.9254 141.691 70.0428 139.819 71.1072C122.065 81.1894 106.174 91.947 93.0422 107.846Z" fill="black"/>
<path d="M195.588 62.4945C189.075 62.8862 182.997 60.5116 176.413 61.4247C167.582 62.6458 158.729 65.0691 150.241 67.7625C148.198 68.4109 149.071 71.6311 151.127 70.9774C157.937 68.8161 164.894 67.1736 171.845 65.5391C180.13 63.5913 187.449 66.3199 195.588 65.8309C197.725 65.7012 197.739 62.3648 195.588 62.4945Z" fill="black"/>
<path d="M254.748 80.996C247.078 76.2061 238.995 72.4429 230.699 68.8823C223.226 65.6755 214.979 65.0136 207.185 62.8848C205.107 62.3175 204.227 65.535 206.299 66.1024C215.03 68.4851 223.753 69.5036 232.147 73.1048C239.39 76.2116 246.379 79.6992 253.065 83.8758C254.894 85.0186 256.566 82.1333 254.748 80.996Z" fill="black"/>
<path d="M260.982 85.9467C259.175 84.7661 257.508 87.6541 259.299 88.8266C266.104 93.2733 272.955 97.6768 278.864 103.304C284.658 108.821 287.787 116.62 293.463 122.32C294.981 123.847 297.339 121.488 295.821 119.962C290.14 114.259 286.633 106.892 281.222 100.946C275.676 94.8537 267.806 90.4043 260.982 85.9467Z" fill="black"/>
<path d="M315.057 178.264C315.022 180.417 318.355 180.412 318.39 178.264C318.682 160.469 309.486 145.057 301.452 129.793C300.45 127.888 297.57 129.574 298.572 131.476C306.325 146.205 315.338 161.077 315.057 178.264Z" fill="black"/>
<path d="M314.385 229.668C318.627 215.658 318.024 201.294 318.662 186.827C318.756 184.674 315.423 184.685 315.328 186.827C314.701 200.983 315.325 215.056 311.17 228.782C310.544 230.846 313.764 231.722 314.385 229.668Z" fill="black"/>
<path d="M284.674 280.748C290.52 274.783 296.544 269.159 301.177 262.162C305.718 255.3 308.009 247.009 310.643 239.312C311.34 237.27 308.12 236.402 307.428 238.423C304.83 246.02 302.358 253.503 298.297 260.479C294.291 267.359 287.832 272.76 282.315 278.39C280.81 279.927 283.166 282.285 284.674 280.748Z" fill="black"/>
<path d="M240.8 310.044C254.053 304.547 268.523 298.149 276.49 285.576C277.643 283.753 274.758 282.081 273.61 283.891C266.164 295.642 252.297 301.694 239.914 306.829C237.958 307.64 238.814 310.868 240.8 310.044Z" fill="black"/>
<path d="M185.514 315.715C191.117 318.59 196.32 318.366 202.447 317.385C211.035 316.013 220.112 316.658 228.241 313.249C230.194 312.428 229.338 309.199 227.355 310.031C221.647 312.425 215.728 312.617 209.636 313.019C201.885 313.53 194.748 316.71 187.197 312.836C185.287 311.855 183.601 314.735 185.514 315.715Z" fill="black"/>
<path d="M145.251 307.759C154.19 312.854 164.251 314.418 174.268 316.066C176.373 316.412 177.275 313.199 175.154 312.851C165.445 311.252 155.611 309.825 146.934 304.879C145.065 303.812 143.384 306.694 145.251 307.759Z" fill="black"/>
<path d="M122.753 292.799C118.509 289.347 115.2 284.973 110.748 281.728C109.005 280.461 107.344 283.357 109.065 284.608C113.738 288.015 117.293 292.634 121.77 296.276C126.076 299.777 131.409 301.852 136.045 304.87C137.852 306.048 139.522 303.157 137.728 301.99C132.806 298.786 127.332 296.525 122.753 292.799Z" fill="black"/>
<path d="M102.827 277.074C94.7841 270.758 88.5625 261.319 84.5507 251.985C83.7052 250.013 80.8334 251.715 81.6709 253.668C85.7637 263.191 92.2528 272.982 100.468 279.433C102.138 280.743 104.518 278.401 102.827 277.074Z" fill="black"/>
<path d="M80.3912 243.877C76.6793 234.357 69.7985 225.682 68.8881 215.262C68.7044 213.136 65.368 213.117 65.5544 215.262C66.5053 226.152 73.3051 234.84 77.1764 244.763C77.949 246.743 81.1746 245.884 80.3912 243.877Z" fill="black"/>
<path d="M61.8658 176.573C59.3614 186.166 61.4875 196.724 63.7946 206.158C64.3052 208.246 67.5227 207.36 67.0122 205.272C64.8428 196.411 62.7248 186.477 65.0806 177.459C65.6263 175.376 62.4088 174.493 61.8658 176.573Z" fill="black"/>
<path d="M104.045 107.989C97.5906 114.562 92.3496 121.681 88.7944 130.218C87.9677 132.203 91.1961 133.06 92.0092 131.104C95.3294 123.137 100.387 116.475 106.403 110.348C107.91 108.813 105.552 106.452 104.045 107.989Z" fill="black"/>
<path d="M132.178 83.2751C127.964 86.1603 124.209 89.5562 119.781 92.1443C116.601 94.0029 113.311 96.075 111.571 99.4358C110.582 101.343 113.459 103.029 114.448 101.119C116.223 97.696 119.967 95.9048 123.166 94.0273C126.997 91.7769 130.206 88.6566 133.861 86.1549C135.623 84.9474 133.959 82.0567 132.178 83.2751Z" fill="black"/>
<path d="M164.441 70.5087C155.166 72.1593 147.083 77.0923 138.13 79.7723C136.077 80.3882 136.953 83.6085 139.017 82.9898C147.964 80.3099 156.06 75.3742 165.327 73.7262C167.442 73.348 166.542 70.1359 164.441 70.5087Z" fill="black"/>
<path d="M186.325 69.3816C183.156 69.7896 179.598 68.6927 176.37 68.5955C174.216 68.5306 174.225 71.8643 176.37 71.9292C182.456 72.1156 187.608 72.2642 193.703 71.913C200.297 71.5294 207.232 75.0062 213.721 75.9464C215.825 76.2517 216.73 73.0368 214.61 72.7315C208.453 71.8373 202.493 69.1763 196.288 68.7522C192.749 68.5117 189.856 68.9251 186.325 69.3816Z" fill="black"/>
<path d="M225.358 75.6914C223.288 75.089 222.41 78.3065 224.471 78.9062C235.956 82.2508 248.083 88.8479 257.454 96.2637C259.124 97.5847 261.499 95.2398 259.813 93.9052C249.92 86.0762 237.509 79.2304 225.358 75.6914Z" fill="black"/>
<path d="M267.856 100.915C266.911 98.9836 264.033 100.675 264.976 102.598C266.276 105.254 268.761 106.829 270.795 108.866C272.316 110.387 274.675 108.031 273.154 106.507C271.336 104.687 269.015 103.282 267.856 100.915Z" fill="black"/>
<path d="M278.371 111.814C276.534 110.682 274.861 113.568 276.688 114.694C286.521 120.751 294.04 131.252 297.414 142.231C298.043 144.279 301.263 143.403 300.629 141.342C296.998 129.531 288.95 118.33 278.371 111.814Z" fill="black"/>
<path d="M311.807 192.916C311.847 186.787 312.25 180.492 311.355 174.4C310.259 166.906 307.146 160.298 304.707 153.196C304.013 151.175 300.79 152.042 301.489 154.082C303.281 159.288 305.517 164.312 307.098 169.591C309.302 176.964 308.519 185.314 308.473 192.916C308.459 195.067 311.793 195.067 311.807 192.916Z" fill="black"/>
<path d="M311.005 205.072C310.43 203.002 307.212 203.883 307.79 205.958C310.908 217.18 305.399 231.263 300.175 240.989C299.159 242.882 302.039 244.565 303.054 242.672C308.741 232.087 314.39 217.245 311.005 205.072Z" fill="black"/>
<path d="M297.871 255.27C298.932 253.398 296.053 251.718 294.991 253.587C288.016 265.893 276.364 277.51 264.834 285.598C263.089 286.822 264.75 289.715 266.517 288.478C278.595 280.006 290.55 268.184 297.871 255.27Z" fill="black"/>
<path d="M257.79 290.782C246.07 297.138 235.005 304.938 221.206 305.375C219.061 305.443 219.052 308.779 221.206 308.712C235.667 308.253 247.159 300.34 259.473 293.662C261.364 292.635 259.681 289.755 257.79 290.782Z" fill="black"/>
<path d="M210.021 306.926C207.706 307.569 205.48 308.588 203.054 308.72C200.914 308.836 200.904 312.17 203.054 312.054C205.812 311.905 208.276 310.873 210.907 310.141C212.977 309.568 212.096 306.348 210.021 306.926Z" fill="black"/>
<path d="M192.375 310.509C194.433 309.906 193.555 306.689 191.489 307.294C184.332 309.388 177.273 307.362 170.141 306.181C168.04 305.833 167.137 309.047 169.255 309.399C176.984 310.676 184.622 312.776 192.375 310.509Z" fill="black"/>
<path d="M159.251 306.804C161.304 307.463 162.176 304.243 160.137 303.589C155.428 302.074 150.854 300.183 146.14 298.678C141.804 297.297 138.055 294.515 133.829 292.843C131.828 292.051 130.966 295.277 132.943 296.057C137.19 297.738 140.934 300.366 145.251 301.895C149.909 303.543 154.55 305.291 159.251 306.804Z" fill="black"/>
<path d="M111.229 278.737C115.581 281.82 119.863 284.834 123.683 288.584C125.22 290.092 127.579 287.733 126.041 286.226C122.738 282.981 119.123 280.161 115.322 277.521C111.024 274.539 107.933 270.892 104.551 266.956C103.146 265.324 100.798 267.693 102.192 269.314C105.01 272.591 107.666 276.211 111.229 278.737Z" fill="black"/>
<path d="M95.6341 262.678C96.6147 264.594 99.4918 262.905 98.5139 260.995C94.3941 252.964 88.0077 246.361 84.4336 238.021C83.588 236.049 80.7163 237.749 81.5537 239.704C85.1278 248.044 91.5142 254.647 95.6341 262.678Z" fill="black"/>
<path d="M79.9841 228.392C75.2456 219.774 72.6495 210.546 72.4307 200.701C72.382 198.554 69.0456 198.548 69.0943 200.701C69.3266 211.116 72.0903 220.958 77.1043 230.075C78.1417 231.961 81.0215 230.278 79.9841 228.392Z" fill="black"/>
<path d="M71.3789 163.572C69.5229 173.532 65.7543 182.766 68.0452 192.992C68.5125 195.091 71.7274 194.199 71.26 192.105C69.1231 182.566 72.8674 173.724 74.5937 164.458C74.9854 162.356 71.7733 161.459 71.3789 163.572Z" fill="black"/>
<path d="M77.9282 157.786C79.4627 151.124 83.0881 145.296 85.3385 138.888C86.0544 136.854 82.8315 135.987 82.1237 138C79.8706 144.418 76.2506 150.221 74.7134 156.9C74.2298 158.993 77.4474 159.882 77.9282 157.786Z" fill="black"/>
<path d="M104.81 123.718C109.248 115.586 115.475 109.016 122.707 103.305C124.393 101.973 122.016 99.6284 120.349 100.947C112.903 106.828 106.495 113.671 101.93 122.035C100.9 123.923 103.78 125.606 104.81 123.718Z" fill="black"/>
<path d="M130.893 96.5327C138.36 93.2611 144.428 87.4933 152.357 85.2132C154.421 84.6216 153.543 81.404 151.47 81.9984C143.239 84.3622 136.953 90.2597 129.21 93.6529C127.243 94.5147 128.942 97.3864 130.893 96.5327Z" fill="black"/>
<path d="M186.377 74.5222C177.67 74.7275 169.462 77.1751 161.107 79.3985C159.029 79.9523 159.912 83.1698 161.993 82.6133C170.059 80.4683 177.961 78.0558 186.377 77.8559C188.524 77.8073 188.527 74.4709 186.377 74.5222Z" fill="black"/>
<path d="M198.676 76.4337C196.45 75.9015 194.205 75.5341 191.933 75.2613C189.802 75.0073 189.826 78.3437 191.933 78.5977C193.908 78.8354 195.856 79.1866 197.79 79.6486C199.881 80.1484 200.767 76.9335 198.676 76.4337Z" fill="black"/>
<path d="M223.133 82.7323C219.997 81.8516 217.074 80.4252 213.867 79.7768C210.428 79.0798 206.897 78.6935 203.42 78.2261C201.294 77.9398 201.321 81.2789 203.42 81.5598C207.03 82.0461 210.663 82.5243 214.235 83.2456C216.982 83.8021 219.546 85.1907 222.247 85.9472C224.322 86.5307 225.2 83.3131 223.133 82.7323Z" fill="black"/>
<path d="M242.426 90.3161C238.679 88.6709 234.367 88.1819 230.939 85.8694C229.151 84.6618 227.484 87.5525 229.256 88.7492C232.73 91.0915 236.969 91.5372 240.743 93.196C242.693 94.0524 244.39 91.1779 242.426 90.3161Z" fill="black"/>
<path d="M247.218 93.4836C245.192 92.7434 244.33 95.969 246.332 96.6984C251.951 98.7489 255.955 103.536 260.755 106.908C262.519 108.145 264.183 105.252 262.438 104.028C257.324 100.437 253.218 95.6746 247.218 93.4836Z" fill="black"/>
<path d="M267.967 109.842C266.489 108.275 264.133 110.639 265.608 112.2C267.78 114.502 270.287 116.433 272.667 118.511C275.307 120.813 277.144 123.879 279.688 126.281C281.253 127.756 283.614 125.4 282.047 123.922C279.732 121.737 277.941 119.1 275.733 116.814C273.313 114.313 270.366 112.384 267.967 109.842Z" fill="black"/>
<path d="M286.551 133.924C285.754 131.957 282.526 132.816 283.336 134.81C286.376 142.307 292.857 147.977 294.823 155.933C295.337 158.019 298.554 157.133 298.038 155.045C296.047 146.989 289.607 141.459 286.551 133.924Z" fill="black"/>
<path d="M297.048 164.084C298.201 168.957 299.728 173.728 301.124 178.534C301.721 180.596 304.941 179.718 304.339 177.648C302.942 172.842 301.416 168.071 300.262 163.198C299.768 161.104 296.553 161.993 297.048 164.084Z" fill="black"/>
<path d="M305.137 210.327C305.14 202.233 305.142 194.144 303.594 186.167C303.186 184.057 299.972 184.954 300.379 187.055C301.868 194.731 301.806 202.541 301.803 210.327C301.8 212.477 305.137 212.477 305.137 210.327Z" fill="black"/>
<path d="M290.196 254.126C298.493 244.079 302.294 231.02 302.542 218.114C302.583 215.964 299.249 215.967 299.208 218.114C298.976 230.069 295.545 242.434 287.838 251.767C286.482 253.413 288.826 255.785 290.196 254.126Z" fill="black"/>
<path d="M274.268 273.02C278.479 269.163 281.889 264.543 284.904 259.713C286.046 257.884 283.161 256.211 282.024 258.03C279.149 262.63 275.924 266.985 271.909 270.662C270.321 272.118 272.685 274.468 274.268 273.02Z" fill="black"/>
<path d="M248.329 293.087C256.296 290.825 260.616 283.799 266.851 278.947C268.548 277.628 266.17 275.286 264.493 276.588C258.787 281.03 254.719 287.805 247.443 289.872C245.377 290.458 246.257 293.675 248.329 293.087Z" fill="black"/>
<path d="M92.2139 143.736C94.2292 139.481 95.9231 135.094 98.5138 131.136C99.6971 129.332 96.8065 127.662 95.634 129.453C93.0432 133.411 91.3494 137.798 89.3341 142.053C88.4182 143.985 91.2927 145.679 92.2139 143.736Z" fill="black"/>
<path d="M82.0076 171.13C83.4691 164.268 85.1441 157.525 88.1401 151.147C89.0478 149.213 86.1733 147.519 85.2602 149.464C82.1373 156.11 80.3164 163.085 78.7928 170.244C78.3443 172.341 81.5591 173.232 82.0076 171.13Z" fill="black"/>
<path d="M76.9381 178.028C74.3041 185.211 75.0146 193.135 76.9381 200.408C77.4865 202.485 80.704 201.602 80.1529 199.519C78.3726 192.781 77.7107 185.571 80.1529 178.914C80.8958 176.891 77.6729 176.026 76.9381 178.028Z" fill="black"/>
<path d="M91.4711 235.429C86.1788 226.846 83.8933 217.282 81.2648 207.665C80.6974 205.593 77.4799 206.473 78.0473 208.551C80.7569 218.455 83.1477 228.283 88.5913 237.112C89.7178 238.938 92.6031 237.263 91.4711 235.429Z" fill="black"/>
<path d="M113.074 265.481C106.844 258.176 99.6773 251.009 96.4571 241.761C95.7547 239.743 92.5318 240.61 93.2423 242.647C96.6651 252.478 104.089 260.07 110.716 267.839C112.115 269.479 114.463 267.107 113.074 265.481Z" fill="black"/>
<path d="M129.593 283.712C133.267 286.816 137.684 287.626 141.439 290.336C143.187 291.595 144.848 288.701 143.122 287.456C141.828 286.521 140.593 285.949 139.118 285.387C135.782 284.12 133.397 282.577 130.649 280.254C126.675 276.898 122.569 273.705 118.633 270.301C117.015 268.902 114.645 271.249 116.274 272.66C120.64 276.434 125.184 279.989 129.593 283.712Z" fill="black"/>
<path d="M148.88 293.468C158.527 297.342 167.998 301.735 178.596 301.681C180.747 301.668 180.747 298.334 178.596 298.345C168.317 298.399 159.108 294.003 149.766 290.254C147.769 289.451 146.91 292.677 148.88 293.468Z" fill="black"/>
<path d="M221.58 301.673C223.728 301.806 223.717 298.472 221.58 298.34C216.404 298.018 210.698 299.255 205.547 299.955C199.838 300.728 192.96 303.157 187.59 300.05C185.726 298.969 184.048 301.852 185.907 302.927C196.126 308.846 210.679 300.998 221.58 301.673Z" fill="black"/>
<path d="M241.486 291.897C237.188 294.59 232.136 295.219 227.433 296.916C225.425 297.64 226.29 300.863 228.319 300.134C233.303 298.334 238.611 297.632 243.169 294.776C244.987 293.636 243.315 290.751 241.486 291.897Z" fill="black"/>
<path d="M289.552 168.56C292.537 175.474 293.744 182.606 294.031 190.097C294.114 192.242 297.448 192.25 297.367 190.097C297.056 181.984 295.662 174.358 292.431 166.877C291.58 164.908 288.709 166.607 289.552 168.56Z" fill="black"/>
<path d="M292.917 221.691C292.593 223.793 295.805 224.698 296.132 222.578C296.8 218.263 296.913 213.93 297.918 209.664C298.685 206.417 299.271 203.159 298.264 199.909C297.629 197.861 294.409 198.736 295.049 200.795C296.113 204.231 294.93 207.697 294.174 211.077C293.393 214.554 293.46 218.177 292.917 221.691Z" fill="black"/>
<path d="M291.87 226.72C288.204 233.782 286.527 241.717 282.004 248.341C280.786 250.124 283.679 251.788 284.881 250.024C289.415 243.386 291.081 235.473 294.75 228.403C295.739 226.499 292.862 224.81 291.87 226.72Z" fill="black"/>
<path d="M271.484 265.261C273.554 262.416 276.487 260.871 278.93 258.437C280.453 256.916 278.095 254.557 276.571 256.078C274.71 257.934 272.435 259.185 270.579 261.041C268.939 262.684 267.802 264.799 266.23 266.509C262.394 270.688 256.245 272.566 251.766 275.983C250.08 277.269 251.739 280.168 253.449 278.863C257.504 275.767 262.345 273.903 266.349 270.756C268.396 269.149 269.963 267.352 271.484 265.261Z" fill="black"/>
<path d="M243.481 280.583C234.515 285.389 223.044 288.496 212.965 289.479C210.844 289.685 210.825 293.021 212.965 292.813C223.768 291.759 235.558 288.612 245.164 283.463C247.061 282.447 245.375 279.567 243.481 280.583Z" fill="black"/>
<path d="M197.058 292.927C199.284 292.962 201.521 292.503 203.674 293.243C205.714 293.943 206.584 290.72 204.56 290.025C202.102 289.18 199.598 289.631 197.058 289.591C194.905 289.558 194.91 292.895 197.058 292.927Z" fill="black"/>
<path d="M190.667 292.732C192.769 292.283 191.878 289.068 189.781 289.517C179.94 291.616 169.017 289.446 160.232 284.721C158.338 283.7 156.655 286.58 158.549 287.601C168.156 292.769 179.923 295.025 190.667 292.732Z" fill="black"/>
<path d="M121.676 259.613C120.158 258.089 117.8 260.448 119.318 261.971C123.319 265.986 127.182 270.306 131.753 273.688C136.964 277.543 142.91 279.704 148.64 282.617C150.553 283.589 152.241 280.712 150.323 279.737C145.817 277.446 141.1 275.638 136.721 273.102C130.943 269.757 126.339 264.292 121.676 259.613Z" fill="black"/>
<path d="M113.826 251.016C104.916 245.964 99.3348 233.829 96.3308 224.576C95.6689 222.539 92.4487 223.409 93.1132 225.462C96.4064 235.598 102.423 248.382 112.143 253.896C114.015 254.958 115.695 252.075 113.826 251.016Z" fill="black"/>
<path d="M91.4793 213.562C88.0403 201.683 87.5405 187.748 89.2749 175.524C89.5721 173.422 86.3573 172.514 86.0574 174.638C84.2312 187.535 84.6202 201.869 88.2645 214.448C88.8616 216.509 92.0791 215.634 91.4793 213.562Z" fill="black"/>
<path d="M90.2107 168.035C93.1716 157.126 94.7682 145.569 102.781 136.984C104.245 135.414 101.892 133.05 100.422 134.625C91.9559 143.7 90.1323 155.589 86.9959 167.149C86.4313 169.227 89.6488 170.107 90.2107 168.035Z" fill="black"/>
<path d="M108.52 129.261C109.488 127.483 110.16 125.514 111.516 123.982C112.937 122.38 110.587 120.011 109.158 121.624C107.583 123.401 106.762 125.519 105.641 127.578C104.611 129.466 107.491 131.149 108.52 129.261Z" fill="black"/>
<path d="M131.054 102.943C125.669 106.79 119.569 110.07 116.476 116.211C115.512 118.126 118.389 119.814 119.356 117.894C122.182 112.283 127.817 109.338 132.737 105.823C134.468 104.583 132.807 101.69 131.054 102.943Z" fill="black"/>
<path d="M161.55 89.2989C158.273 90.6659 154.661 91.1089 151.444 92.5975C147.183 94.5642 142.861 96.4499 138.66 98.5463C136.737 99.508 138.428 102.385 140.346 101.426C143.642 99.7809 147.048 98.3761 150.379 96.8038C154.299 94.9532 158.46 94.1725 162.436 92.5137C164.392 91.7006 163.533 88.4722 161.55 89.2989Z" fill="black"/>
<path d="M185.63 87.1774C180.905 87.8257 176.31 88.5551 171.528 88.5281C169.375 88.5173 169.377 91.8537 171.528 91.8645C175.38 91.8835 179.154 91.5133 182.961 90.9433C187.64 90.2409 191.849 90.5624 196.517 91.0217C198.657 91.2324 198.638 87.896 196.517 87.6852C192.932 87.334 189.231 86.683 185.63 87.1774Z" fill="black"/>
<path d="M227.594 93.8467C220.229 90.8182 212.203 90.4346 204.69 87.9114C202.648 87.2252 201.778 90.4481 203.804 91.1289C211.317 93.6522 219.343 94.0331 226.708 97.0615C228.696 97.8801 229.555 94.6517 227.594 93.8467Z" fill="black"/>
<path d="M236.331 97.2036C234.27 96.5741 233.394 99.7917 235.445 100.418C243.717 102.95 251.103 107.207 257.357 113.197C258.908 114.683 261.271 112.327 259.715 110.838C253.059 104.463 245.138 99.8971 236.331 97.2036Z" fill="black"/>
<path d="M263.499 117.9C270.801 122.474 274.092 130.414 278.908 137.189C280.143 138.927 283.039 137.262 281.788 135.506C276.596 128.204 273.046 119.945 265.182 115.021C263.353 113.875 261.681 116.763 263.499 117.9Z" fill="black"/>
<path d="M281.125 143.372C284.399 148.448 285.926 154.307 288.622 159.67C289.586 161.594 292.463 159.902 291.502 157.987C288.803 152.616 287.285 146.773 284.005 141.689C282.843 139.887 279.955 141.559 281.125 143.372Z" fill="black"/>
<path d="M286.545 180.839C288.958 188.549 289.428 196.305 288.734 204.315C288.55 206.458 291.884 206.441 292.07 204.315C292.789 196.016 292.256 187.925 289.76 179.953C289.123 177.908 285.902 178.78 286.545 180.839Z" fill="black"/>
<path d="M285.384 235.032C288.81 228.508 288.888 221.13 291.36 214.293C292.095 212.267 288.869 211.399 288.145 213.407C285.779 219.952 285.779 227.114 282.505 233.349C281.505 235.251 284.385 236.937 285.384 235.032Z" fill="black"/>
<path d="M269.217 260.733C274.339 255.368 277.67 248.868 281.266 242.452C282.317 240.574 279.437 238.894 278.386 240.769C274.934 246.928 271.778 253.22 266.859 258.375C265.376 259.931 267.729 262.292 269.217 260.733Z" fill="black"/>
<path d="M260.627 266.953C262.305 265.937 263.882 264.805 265.428 263.603C267.122 262.282 264.744 259.94 263.069 261.245C261.751 262.271 260.373 263.209 258.944 264.073C257.107 265.186 258.782 268.069 260.627 266.953Z" fill="black"/>
<path d="M256.365 268.916C258.056 267.633 256.394 264.734 254.682 266.037C252.404 267.766 250.092 269.449 247.769 271.115C245.513 272.731 242.781 273.498 240.369 274.833C238.489 275.873 240.169 278.753 242.052 277.713C244.194 276.527 246.515 275.738 248.644 274.528C251.364 272.982 253.877 270.805 256.365 268.916Z" fill="black"/>
<path d="M224.808 281.378C222.817 282.132 223.679 285.357 225.695 284.593C228.969 283.353 231.884 281.116 235.361 280.475C237.473 280.086 236.576 276.872 234.474 277.258C230.957 277.906 228.102 280.13 224.808 281.378Z" fill="black"/>
<path d="M219.205 282.569C214.528 284.619 209.166 284.063 204.206 284.808C202.085 285.127 202.99 288.339 205.092 288.023C210.462 287.218 215.809 287.675 220.888 285.448C222.854 284.587 221.155 281.715 219.205 282.569Z" fill="black"/>
<path d="M180.753 287.361C183.806 287.377 186.797 288.001 189.849 288.01C192.589 288.02 195.296 287.607 198.046 287.72C200.196 287.812 200.188 284.476 198.046 284.387C195.304 284.273 192.586 284.538 189.849 284.676C186.81 284.827 183.793 284.044 180.753 284.027C178.603 284.014 178.603 287.348 180.753 287.361Z" fill="black"/>
<path d="M151.45 277.444C157.683 281.24 165.071 280.921 171.633 283.777C173.586 284.625 175.286 281.753 173.319 280.897C166.792 278.058 159.279 278.309 153.133 274.564C151.291 273.443 149.616 276.329 151.45 277.444Z" fill="black"/>
<path d="M133.428 267.071C137.297 269.245 141.222 271.315 144.98 273.679C146.806 274.827 148.478 271.939 146.663 270.799C142.905 268.435 138.98 266.365 135.111 264.191C133.234 263.134 131.553 266.017 133.428 267.071Z" fill="black"/>
<path d="M130.182 258.406C124.442 254.521 119.571 249.561 114.673 244.696C113.146 243.178 110.788 245.536 112.314 247.052C117.418 252.125 122.518 257.237 128.499 261.286C130.285 262.496 131.952 259.603 130.182 258.406Z" fill="black"/>
<path d="M111.31 238.253C104.016 230.735 98.1995 221.014 96.9054 210.473C96.6461 208.368 93.3097 208.341 93.569 210.473C94.9792 221.949 100.977 232.391 108.952 240.611C110.451 242.157 112.807 239.796 111.31 238.253Z" fill="black"/>
<path d="M96.4295 202.974C95.2624 198.4 94.4466 193.786 94.5033 189.053C94.5303 186.9 91.194 186.903 91.1669 189.053C91.1075 194.07 91.9747 199.011 93.2147 203.86C93.7442 205.943 96.9617 205.06 96.4295 202.974Z" fill="black"/>
<path d="M94.0508 160.756C90.7306 167.167 92.4677 174.005 91.8517 180.883C91.6599 183.025 94.9963 183.006 95.1854 180.883C95.7365 174.734 93.967 168.161 96.9306 162.439C97.9193 160.532 95.0395 158.846 94.0508 160.756Z" fill="black"/>
<path d="M284.661 159.836C283.902 157.847 280.676 158.709 281.446 160.722C282.926 164.596 284.674 168.351 285.631 172.406C286.125 174.497 289.34 173.611 288.848 171.52C287.892 167.465 286.141 163.71 284.661 159.836Z" fill="black"/>
<path d="M270.273 137.462C273.707 142.606 276.976 147.826 279.202 153.623C279.963 155.609 283.189 154.747 282.416 152.737C280.082 146.656 276.757 141.18 273.153 135.779C271.964 133.999 269.076 135.669 270.273 137.462Z" fill="black"/>
<path d="M255.192 115.723C253.333 114.631 251.655 117.514 253.509 118.603C258.779 121.699 263.807 125.854 266.47 131.473C267.389 133.418 270.263 131.724 269.348 129.79C266.46 123.687 260.916 119.084 255.192 115.723Z" fill="black"/>
<path d="M249.387 111.281C241.537 106.71 233.913 101.977 225.028 99.6996C222.942 99.1647 222.059 102.382 224.142 102.917C232.746 105.119 240.108 109.739 247.704 114.161C249.566 115.244 251.243 112.362 249.387 111.281Z" fill="black"/>
<path d="M192.362 97.0714C200.71 97.9035 209.468 98.1439 217.13 101.926C219.051 102.874 220.742 99.9972 218.813 99.0462C210.584 94.9858 201.334 94.6292 192.362 93.7377C190.223 93.5243 190.244 96.8607 192.362 97.0714Z" fill="black"/>
<path d="M186.005 94.0688C180.775 94.347 175.563 94.8441 170.339 95.2034C166.467 95.4682 163.458 97.5457 159.749 98.1373C157.628 98.475 158.533 101.69 160.635 101.352C164.674 100.709 167.937 98.7019 172.184 98.4102C176.793 98.0941 181.391 97.651 186.005 97.4025C188.144 97.289 188.155 93.9526 186.005 94.0688Z" fill="black"/>
<path d="M132.665 115.778C138.633 109.613 146.805 106.912 154.553 103.718C156.514 102.911 155.655 99.6849 153.667 100.503C145.384 103.915 136.685 106.833 130.307 113.42C128.81 114.965 131.166 117.326 132.665 115.778Z" fill="black"/>
<path d="M106.998 141.622C108.376 140.555 109.24 139.379 110.126 137.891C111.658 135.324 113.646 133.266 115.559 130.986C118.695 127.241 120.865 121.336 126.127 120.182C128.229 119.723 127.338 116.508 125.241 116.967C120.878 117.924 118.082 121.655 115.616 125.107C113.644 127.868 111.588 130.426 109.359 132.988C107.581 135.022 106.833 137.567 104.639 139.263C102.94 140.579 105.32 142.921 106.998 141.622Z" fill="black"/>
<path d="M101.555 144.313C99.7074 148.455 96.9384 152.131 96.0306 156.651C95.6065 158.75 98.8213 159.644 99.2455 157.537C100.096 153.307 102.706 149.876 104.435 145.996C105.302 144.051 102.431 142.352 101.555 144.313Z" fill="black"/>
<path d="M139.241 115.718C133.104 117.849 127.217 122.855 123.794 128.342C122.651 130.171 125.537 131.846 126.674 130.025C129.621 125.3 134.838 120.772 140.127 118.933C142.146 118.233 141.278 115.01 139.241 115.718Z" fill="black"/>
<path d="M171.555 101.942C163.343 102.866 155.019 105.308 148.109 109.952C146.334 111.144 148.003 114.034 149.792 112.832C156.192 108.531 163.926 106.138 171.555 105.276C173.668 105.038 173.69 101.702 171.555 101.942Z" fill="black"/>
<path d="M207.204 103.482C203.192 102.664 199.251 100.905 195.15 100.591C190.1 100.205 185.13 101.278 180.081 101.199C177.93 101.164 177.933 104.501 180.081 104.533C184.552 104.603 188.952 103.831 193.418 103.795C197.77 103.758 202.101 105.838 206.318 106.697C208.417 107.126 209.311 103.912 207.204 103.482Z" fill="black"/>
<path d="M215.651 109.361C219.515 109.698 222.81 111.933 226.325 113.378C228.313 114.196 229.173 110.968 227.211 110.16C223.321 108.561 219.941 106.4 215.651 106.027C213.509 105.838 213.525 109.174 215.651 109.361Z" fill="black"/>
<path d="M235.728 112.383C233.672 111.726 232.8 114.947 234.842 115.598C242.898 118.167 249.906 121.231 254.226 128.914C255.279 130.789 258.162 129.108 257.105 127.231C252.356 118.788 244.616 115.217 235.728 112.383Z" fill="black"/>
<path d="M258.194 135.915C262.327 139.908 266.126 144.325 269.049 149.288C270.14 151.139 273.023 149.461 271.929 147.605C268.868 142.41 264.88 137.736 260.553 133.557C259.005 132.063 256.643 134.419 258.194 135.915Z" fill="black"/>
<path d="M274.321 155.051C273.63 153.027 270.407 153.897 271.107 155.937C272.601 160.302 274.429 164.541 275.923 168.907C276.615 170.93 279.838 170.06 279.138 168.021C277.644 163.655 275.815 159.416 274.321 155.051Z" fill="black"/>
<path d="M278.144 177.05C279.457 182.694 280.232 188.44 281.477 194.097C281.942 196.196 285.157 195.305 284.695 193.211C283.447 187.554 282.674 181.805 281.358 176.164C280.872 174.07 277.657 174.957 278.144 177.05Z" fill="black"/>
<path d="M284.329 202.253C284.77 200.153 281.555 199.262 281.114 201.366C279.612 208.528 280.571 215.728 278.518 222.857C277.924 224.929 281.141 225.807 281.736 223.743C283.797 216.587 282.827 209.422 284.329 202.253Z" fill="black"/>
<path d="M274.809 229.904C273.288 235.664 270.525 240.899 267.196 245.811C265.986 247.596 268.877 249.263 270.076 247.494C273.559 242.355 276.436 236.814 278.024 230.79C278.575 228.707 275.358 227.826 274.809 229.904Z" fill="black"/>
<path d="M249.437 266.722C251.612 264.596 254.287 263.091 256.572 261.089C259.368 258.639 261.502 255.516 264.261 253.012C265.855 251.564 263.488 249.211 261.902 250.653C259.393 252.933 257.307 255.605 254.946 258.026C252.582 260.449 249.5 261.997 247.079 264.364C245.539 265.871 247.9 268.227 249.437 266.722Z" fill="black"/>
<path d="M239.634 267.813C232.926 271.917 225.804 275.907 217.873 276.85C215.763 277.098 215.739 280.437 217.873 280.183C226.447 279.165 234.044 275.142 241.317 270.693C243.148 269.572 241.473 266.687 239.634 267.813Z" fill="black"/>
<path d="M193.317 279.581C195.562 280.553 197.634 280.532 200.028 280.175C203.199 279.702 206.941 277.854 209.991 279.581C211.866 280.642 213.546 277.76 211.674 276.701C209.618 275.537 207.435 275.366 205.117 275.742C202.016 276.244 198.061 278.027 195 276.701C193.047 275.855 191.348 278.727 193.317 279.581Z" fill="black"/>
<path d="M185.339 276.159C179.503 273.982 173.374 271.967 167.109 271.653C164.958 271.545 164.969 274.882 167.109 274.987C173.049 275.284 178.92 277.31 184.453 279.377C186.471 280.131 187.335 276.905 185.339 276.159Z" fill="black"/>
<path d="M143.288 265.504C148.013 268.562 153.189 270.256 158.508 271.971C160.561 272.633 161.434 269.413 159.394 268.757C154.345 267.128 149.458 265.528 144.971 262.624C143.161 261.452 141.489 264.34 143.288 265.504Z" fill="black"/>
<path d="M136.623 259.574C138.514 260.598 140.197 257.718 138.306 256.694C133.87 254.293 129.796 251.062 126.416 247.32C124.971 245.721 122.621 248.087 124.058 249.678C127.605 253.609 131.965 257.054 136.623 259.574Z" fill="black"/>
<path d="M120.854 240.283C116.426 235.372 113.222 229.677 110 223.944C108.943 222.072 106.063 223.752 107.12 225.63C110.486 231.614 113.876 237.517 118.496 242.641C119.938 244.241 122.289 241.877 120.854 240.283Z" fill="black"/>
<path d="M103.988 219.301C104.701 221.313 107.924 220.446 107.203 218.415C104.704 211.366 102.935 204.113 100.906 196.921C100.32 194.854 97.102 195.735 97.6882 197.807C99.7198 204.999 101.489 212.252 103.988 219.301Z" fill="black"/>
<path d="M100.163 188.027C99.0637 182.159 99.5473 176.454 101.274 170.756C101.9 168.692 98.6828 167.817 98.0587 169.87C96.1542 176.148 95.7381 182.459 96.9484 188.913C97.3428 191.026 100.558 190.129 100.163 188.027Z" fill="black"/>
<path d="M103.046 154.278C101.801 157.061 101.028 160 99.9123 162.829C99.1235 164.831 102.349 165.692 103.13 163.715C104.137 161.159 104.799 158.474 105.926 155.961C106.798 154.016 103.924 152.32 103.046 154.278Z" fill="black"/>
<path d="M114.901 135.745C111.305 140.41 106.445 144.473 105.47 150.595C105.132 152.697 108.347 153.599 108.685 151.481C109.603 145.74 114.396 141.818 117.781 137.428C119.094 135.723 116.195 134.067 114.901 135.745Z" fill="black"/>
<path d="M120.541 147.037C123.127 140.724 129.672 136.353 134.967 132.471C136.683 131.215 135.021 128.318 133.284 129.591C127.152 134.086 120.303 138.876 117.326 146.151C116.51 148.142 119.739 148.999 120.541 147.037Z" fill="black"/>
<path d="M141.268 127.657C146.255 124.612 150.775 120.889 156.091 118.393C158.037 117.48 156.343 114.606 154.408 115.513C149.092 118.01 144.572 121.732 139.585 124.777C137.754 125.895 139.428 128.781 141.268 127.657Z" fill="black"/>
<path d="M182.3 108.982C179.406 109.214 176.454 109.147 173.582 109.603C169.673 110.224 166.023 111.705 162.217 112.748C160.144 113.312 161.025 116.53 163.105 115.963C165.974 115.176 168.77 114.155 171.637 113.358C175.07 112.402 178.774 112.599 182.3 112.315C184.428 112.145 184.445 108.812 182.3 108.982Z" fill="black"/>
<path d="M208.684 110.898C203.2 108.826 197.287 109.669 191.565 109.726C189.417 109.747 189.415 113.084 191.565 113.062C196.987 113.005 202.601 112.152 207.798 114.113C209.814 114.875 210.675 111.649 208.684 110.898Z" fill="black"/>
<path d="M232.796 119.221C227.774 116.395 222.125 114.175 216.392 113.435C214.263 113.162 214.288 116.498 216.392 116.771C221.512 117.43 226.644 119.589 231.113 122.101C232.99 123.157 234.668 120.275 232.796 119.221Z" fill="black"/>
<path d="M240.544 123.931C238.95 122.497 236.584 124.847 238.186 126.29C242.651 130.307 248.325 133.09 251.264 138.549C252.285 140.446 255.165 138.76 254.144 136.866C251.034 131.088 245.261 128.175 240.544 123.931Z" fill="black"/>
<path d="M257.59 142.397C255.54 141.727 254.67 144.948 256.704 145.612C262.307 147.444 264.393 155.775 265.914 160.752C266.543 162.802 269.761 161.929 269.131 159.865C267.197 153.547 264.606 144.691 257.59 142.397Z" fill="black"/>
<path d="M267.397 167.424C269.455 172.344 271.711 177.158 272.154 182.545C272.33 184.671 275.666 184.69 275.491 182.545C275.018 176.82 272.805 171.774 270.612 166.538C269.796 164.585 266.567 165.441 267.397 167.424Z" fill="black"/>
<path d="M272.223 192.244C272.89 196.88 273.69 201.5 272.963 206.179C272.637 208.283 275.851 209.186 276.181 207.065C277.005 201.748 276.197 196.629 275.438 191.358C275.133 189.235 271.921 190.143 272.223 192.244Z" fill="black"/>
<path d="M271.191 231.554C274.597 226.778 276.113 220.218 275.864 214.407C275.773 212.265 272.439 212.257 272.531 214.407C272.755 219.681 271.402 225.538 268.311 229.871C267.06 231.627 269.954 233.288 271.191 231.554Z" fill="black"/>
<path d="M252.768 252.279C257.758 248.143 262.915 243.91 265.627 237.861C266.5 235.916 263.626 234.216 262.748 236.178C260.149 241.975 255.189 245.96 250.41 249.921C248.754 251.293 251.126 253.641 252.768 252.279Z" fill="black"/>
<path d="M242.264 255.842C239.479 258.735 235.524 263.584 231.215 263.876C229.081 264.019 229.067 267.356 231.215 267.212C236.642 266.845 241.092 261.869 244.623 258.2C246.114 256.649 243.758 254.288 242.264 255.842Z" fill="black"/>
<path d="M220.841 266.105C215.198 266.346 209.924 269.512 204.237 268.388C202.138 267.972 201.244 271.187 203.351 271.603C209.578 272.835 214.746 269.701 220.841 269.439C222.983 269.35 222.991 266.013 220.841 266.105Z" fill="black"/>
<path d="M174.076 267.896C177.258 269.211 180.803 269.141 184.096 270.124C187.175 271.043 189.955 271.659 193.119 270.859C195.204 270.335 194.318 267.118 192.233 267.644C188.913 268.482 185.876 267.115 182.715 266.264C180.13 265.57 177.48 265.721 174.962 264.681C172.974 263.859 172.117 267.085 174.076 267.896Z" fill="black"/>
<path d="M155.89 262.906C159.507 264.481 163.162 265.962 167.033 266.78C169.132 267.224 170.024 264.009 167.92 263.566C164.332 262.806 160.928 261.488 157.573 260.027C155.622 259.178 153.923 262.05 155.89 262.906Z" fill="black"/>
<path d="M147.736 259.203C149.446 260.508 151.102 257.609 149.419 256.323C145.323 253.195 140.866 250.566 137.157 246.949C135.617 245.447 133.258 247.805 134.798 249.307C138.713 253.122 143.413 255.902 147.736 259.203Z" fill="black"/>
<path d="M129.955 242.156C131.805 243.263 133.48 240.378 131.638 239.276C126.551 236.228 123.479 231.552 120.007 226.905C118.738 225.203 115.839 226.862 117.128 228.588C120.95 233.705 124.357 238.803 129.955 242.156Z" fill="black"/>
<path d="M113.99 221.895C114.679 223.919 117.902 223.049 117.205 221.009C115.681 216.533 113.958 212.129 112.388 207.669C111.68 205.653 108.457 206.521 109.173 208.555C110.743 213.015 112.464 217.419 113.99 221.895Z" fill="black"/>
<path d="M108.686 199.512C107.638 194.889 106.971 190.248 106.893 185.504C106.857 183.356 103.524 183.351 103.559 185.504C103.64 190.54 104.359 195.492 105.472 200.398C105.947 202.497 109.162 201.605 108.686 199.512Z" fill="black"/>
<path d="M112.939 153.943C107.087 160.834 103.178 169.612 103.556 178.837C103.646 180.98 106.982 180.988 106.893 178.837C106.552 170.557 110.035 162.501 115.297 156.301C116.68 154.672 114.333 152.3 112.939 153.943Z" fill="black"/>
<path d="M125.907 144.677C119.223 150.863 115.144 160.07 112.877 168.759C112.337 170.841 115.552 171.722 116.095 169.645C118.221 161.491 121.99 152.846 128.265 147.035C129.846 145.571 127.482 143.218 125.907 144.677Z" fill="black"/>
<path d="M144.405 128.856C138.723 131.665 133.042 135.391 129.724 140.943C128.62 142.793 131.502 144.468 132.604 142.623C135.63 137.563 140.922 134.289 146.088 131.736C148.016 130.782 146.325 127.905 144.405 128.856Z" fill="black"/>
<path d="M164.81 117.192C159.283 118.962 154.263 121.839 149.992 125.773C148.409 127.234 150.773 129.584 152.351 128.131C156.195 124.592 160.72 122.001 165.696 120.407C167.736 119.756 166.863 116.536 164.81 117.192Z" fill="black"/>
<path d="M190.152 114.236C183.528 113.315 176.661 115.268 170.709 118.11C168.77 119.037 170.463 121.911 172.392 120.99C177.425 118.589 183.644 116.67 189.266 117.451C191.368 117.743 192.275 114.531 190.152 114.236Z" fill="black"/>
<path d="M197.422 117.194C195.471 118.016 196.327 121.244 198.308 120.409C203.546 118.207 208.625 120.958 213.725 122.263C215.811 122.797 216.694 119.58 214.611 119.048C208.898 117.583 203.281 114.728 197.422 117.194Z" fill="black"/>
<path d="M223.904 122.553C222 121.558 220.314 124.435 222.221 125.432C225.939 127.375 230.272 128.115 233.37 131.1C234.918 132.591 237.28 130.236 235.729 128.742C232.347 125.484 227.943 124.662 223.904 122.553Z" fill="black"/>
<path d="M248.873 147.418C249.497 149.472 252.717 148.596 252.087 146.532C250.391 140.945 245.674 137.417 240.946 134.419C239.126 133.262 237.453 136.15 239.263 137.298C243.213 139.803 247.444 142.726 248.873 147.418Z" fill="black"/>
<path d="M258.356 154.054C256.53 152.903 254.858 155.791 256.673 156.933C260.96 159.635 260.877 166.462 262.576 170.76C263.359 172.735 266.585 171.873 265.793 169.871C263.67 164.511 263.751 157.455 258.356 154.054Z" fill="black"/>
<path d="M269.134 196.693C270.771 191.154 269.153 185.257 267.651 179.873C267.076 177.803 263.858 178.684 264.436 180.759C265.776 185.56 267.381 190.863 265.92 195.806C265.306 197.873 268.526 198.751 269.134 196.693Z" fill="black"/>
<path d="M267.281 220.036C269.061 215.036 270.674 209.219 269.134 203.957C268.532 201.898 265.312 202.776 265.917 204.843C267.286 209.516 265.644 214.72 264.066 219.15C263.342 221.182 266.565 222.046 267.281 220.036Z" fill="black"/>
<path d="M261.844 225.086C259.475 231.302 256.608 236.613 251.527 241.025C249.9 242.438 252.27 244.786 253.885 243.384C259.396 238.599 262.495 232.704 265.059 225.972C265.826 223.959 262.6 223.098 261.844 225.086Z" fill="black"/>
<path d="M244.448 245.952C240.025 249.27 237.097 254.359 232.221 257.069C230.34 258.115 232.021 260.994 233.904 259.949C238.853 257.199 241.679 252.168 246.131 248.832C247.83 247.56 246.171 244.661 244.448 245.952Z" fill="black"/>
<path d="M110.286 174.688C109.743 178.173 109.413 181.544 110.824 184.867C111.664 186.839 114.536 185.137 113.703 183.184C112.696 180.812 113.117 178.035 113.501 175.574C113.83 173.472 110.616 172.567 110.286 174.688Z" fill="black"/>
<path d="M116.841 205.077C115.611 200.098 114.485 195.116 114.677 189.956C114.758 187.806 111.421 187.814 111.343 189.956C111.14 195.405 112.326 200.705 113.626 205.963C114.139 208.051 117.357 207.165 116.841 205.077Z" fill="black"/>
<path d="M124.933 222.498C121.532 219.389 120.943 214.502 119.803 210.266C119.247 208.191 116.029 209.072 116.588 211.152C117.888 215.985 118.701 221.312 122.575 224.857C124.158 226.305 126.525 223.952 124.933 222.498Z" fill="black"/>
<path d="M138.474 241.784C140.336 242.873 142.013 239.99 140.157 238.904C135.824 236.37 132.445 232.588 130.381 228.014C129.497 226.058 126.623 227.755 127.501 229.697C129.786 234.757 133.69 238.988 138.474 241.784Z" fill="black"/>
<path d="M157.003 257.347C158.73 258.636 160.388 255.737 158.686 254.467C154.634 251.441 149.79 249.593 146.686 245.43C145.417 243.728 142.52 245.387 143.806 247.113C147.326 251.836 152.411 253.919 157.003 257.347Z" fill="black"/>
<path d="M175.258 258.313C171.438 257.908 167.632 257.07 164.241 255.206C162.356 254.169 160.675 257.049 162.558 258.086C166.489 260.247 170.833 261.18 175.258 261.647C177.395 261.877 177.373 258.537 175.258 258.313Z" fill="black"/>
<path d="M183.711 263.073C186.917 264.026 189.835 265.62 193.128 266.304C196.132 266.928 199.271 266.82 202.311 267.209C204.439 267.482 204.412 264.143 202.311 263.872C199.131 263.467 195.916 263.483 192.769 262.83C189.948 262.243 187.358 260.679 184.597 259.858C182.53 259.242 181.655 262.459 183.711 263.073Z" fill="black"/>
<path d="M225.655 259.06C219.709 259.176 213.742 259.935 208.166 262.083C206.183 262.85 207.045 266.076 209.055 265.301C214.371 263.25 219.982 262.504 225.655 262.394C227.803 262.353 227.809 259.017 225.655 259.06Z" fill="black"/>
<path d="M121.202 160.579C118.552 165.815 117.015 171.096 116.899 176.983C116.856 179.136 120.192 179.131 120.233 176.983C120.338 171.677 121.694 166.982 124.082 162.262C125.049 160.349 122.175 158.658 121.202 160.579Z" fill="black"/>
<path d="M121.653 196.915C120.276 192.706 119.149 187.687 120.54 183.351C121.202 181.298 117.982 180.425 117.325 182.465C115.756 187.344 116.882 193.052 118.436 197.801C119.103 199.836 122.323 198.966 121.653 196.915Z" fill="black"/>
<path d="M133.451 222.864C128.496 217.053 125.033 211.02 123.134 203.588C122.602 201.508 119.384 202.391 119.919 204.477C121.956 212.455 125.776 218.987 131.093 225.222C132.489 226.862 134.837 224.49 133.451 222.864Z" fill="black"/>
<path d="M149.59 241.045C151.444 242.145 153.121 239.262 151.273 238.165C146.343 235.237 141.664 232.476 137.901 228.051C136.507 226.411 134.159 228.78 135.542 230.409C139.484 235.042 144.422 237.976 149.59 241.045Z" fill="black"/>
<path d="M160.546 250.594C163.318 252.542 166.938 252.348 169.969 253.644C171.925 254.479 173.624 251.607 171.652 250.765C169.334 249.77 166.921 249.4 164.495 248.755C161.329 247.912 159.154 244.948 156.796 242.873C155.191 241.458 152.822 243.805 154.44 245.232C156.483 247.031 158.309 249.022 160.546 250.594Z" fill="black"/>
<path d="M176.367 254.613C182.21 254.926 187.921 256.339 193.783 256.466C195.934 256.512 195.931 253.176 193.783 253.13C187.924 253.006 182.21 251.59 176.367 251.279C174.216 251.163 174.227 254.5 176.367 254.613Z" fill="black"/>
<path d="M128.153 155.962C130.925 151.453 134.555 146.341 139.756 144.499C141.769 143.786 140.901 140.563 138.87 141.284C132.77 143.443 128.55 148.948 125.273 154.278C124.144 156.115 127.029 157.79 128.153 155.962Z" fill="black"/>
<path d="M144.434 135.783C143.056 137.414 145.404 139.786 146.793 138.141C150.388 133.881 156.029 132.395 161.249 131.158C163.342 130.663 162.453 127.446 160.362 127.943C154.614 129.304 148.389 131.098 144.434 135.783Z" fill="black"/>
<path d="M182.963 120.528C176.974 121.631 171.071 122.509 165.52 125.143C163.577 126.066 165.271 128.941 167.203 128.022C172.465 125.526 178.182 124.786 183.849 123.743C185.962 123.357 185.065 120.142 182.963 120.528Z" fill="black"/>
<path d="M205.717 123.126C200.5 121.254 195.038 120.421 189.637 122.015C187.579 122.621 188.457 125.841 190.524 125.23C195.378 123.798 200.16 124.666 204.831 126.341C206.86 127.07 207.724 123.847 205.717 123.126Z" fill="black"/>
<path d="M209.647 128.934C214.991 129.942 220.132 131.444 225.211 133.381C227.224 134.148 228.085 130.923 226.097 130.166C221.021 128.226 215.877 126.724 210.534 125.719C208.432 125.322 207.535 128.537 209.647 128.934Z" fill="black"/>
<path d="M230.574 133.669C228.716 132.578 227.038 135.46 228.891 136.549C232.333 138.567 235.448 141.036 237.555 144.473C238.679 146.302 241.564 144.629 240.435 142.79C238.031 138.872 234.505 135.974 230.574 133.669Z" fill="black"/>
<path d="M243.879 147.641C242.282 146.212 239.913 148.562 241.52 149.999C245.697 153.733 248.409 158.644 251.897 162.969C253.248 164.644 255.59 162.267 254.255 160.611C250.76 156.28 248.069 151.388 243.879 147.641Z" fill="black"/>
<path d="M252.748 168.191C255.725 172.838 257.241 177.949 258.138 183.355C258.491 185.473 261.704 184.574 261.355 182.469C260.41 176.791 258.751 171.385 255.628 166.508C254.472 164.704 251.584 166.376 252.748 168.191Z" fill="black"/>
<path d="M261.724 207.442C263.864 201.849 263.002 195.641 262.094 189.881C261.762 187.761 258.547 188.663 258.879 190.768C259.695 195.955 260.433 201.528 258.509 206.555C257.737 208.568 260.962 209.43 261.724 207.442Z" fill="black"/>
<path d="M256.653 214.11C257.48 218.43 254.927 224.008 252.266 227.31C250.929 228.968 253.273 231.343 254.624 229.668C258.101 225.354 260.946 218.848 259.868 213.224C259.465 211.111 256.251 212.008 256.653 214.11Z" fill="black"/>
<path d="M239.839 248.828C244.751 245.527 248.554 240.678 251.553 235.631C252.655 233.778 249.773 232.1 248.673 233.948C245.974 238.487 242.584 242.971 238.156 245.948C236.381 247.142 238.048 250.03 239.839 248.828Z" fill="black"/>
<path d="M230.373 249.283C227.293 250.872 224.435 253.062 220.839 253.133C218.692 253.173 218.686 256.507 220.839 256.466C225.11 256.385 228.393 254.051 232.056 252.163C233.969 251.177 232.28 248.3 230.373 249.283Z" fill="black"/>
<path d="M211.941 252.761C208.259 252.799 204.618 253.061 201.122 254.304C199.112 255.017 199.976 258.24 202.011 257.519C205.239 256.37 208.538 256.13 211.941 256.095C214.092 256.076 214.092 252.739 211.941 252.761Z" fill="black"/>
<path d="M126.843 184.324C125.929 180.28 125.927 175.687 127.785 171.9C128.728 169.976 125.854 168.285 124.906 170.217C122.634 174.85 122.504 180.239 123.628 185.21C124.101 187.309 127.315 186.418 126.843 184.324Z" fill="black"/>
<path d="M130.095 208.21C131.124 210.099 134.004 208.416 132.975 206.527C130.184 201.41 129.139 195.702 127.215 190.25C126.502 188.238 123.282 189.105 123.998 191.136C126.021 196.869 127.161 202.829 130.095 208.21Z" fill="black"/>
<path d="M142.211 226.33C143.824 227.738 146.193 225.387 144.569 223.972C140.76 220.652 137.451 217.342 135.733 212.479C135.022 210.467 131.799 211.334 132.518 213.366C134.441 218.809 137.926 222.597 142.211 226.33Z" fill="black"/>
<path d="M159.99 240.473C162.024 241.189 162.891 237.966 160.876 237.258C156.827 235.832 153.096 233.563 150.756 229.872C149.611 228.059 146.723 229.732 147.876 231.555C150.699 236.01 155.095 238.752 159.99 240.473Z" fill="black"/>
<path d="M179.705 244.975C175.34 245.213 171.725 242.998 167.948 241.128C166.028 240.175 164.336 243.052 166.265 244.006C170.569 246.14 174.737 248.582 179.705 248.309C181.845 248.193 181.856 244.859 179.705 244.975Z" fill="black"/>
<path d="M187.78 249C190.611 249.591 193.415 250.567 196.292 250.91C199.415 251.283 202.511 250.723 205.64 250.912C207.787 251.042 207.777 247.706 205.64 247.576C202.906 247.411 200.199 247.806 197.462 247.714C194.542 247.617 191.519 246.379 188.666 245.785C186.567 245.345 185.675 248.559 187.78 249Z" fill="black"/>
<path d="M214.633 249.937C218.302 248.167 222.37 247.446 226.12 245.86C228.095 245.025 226.393 242.153 224.437 242.98C220.682 244.569 216.64 245.276 212.95 247.057C211.013 247.991 212.704 250.866 214.633 249.937Z" fill="black"/>
<path d="M237.071 234.721C235.018 237.196 232.062 238.576 229.255 240.019C227.343 241.002 229.031 243.879 230.938 242.899C233.988 241.332 237.201 239.765 239.429 237.08C240.791 235.437 238.446 233.065 237.071 234.721Z" fill="black"/>
<path d="M243.51 231.887C246.074 229.536 248.448 226.864 250.069 223.768C251.066 221.864 248.189 220.178 247.189 222.085C245.69 224.949 243.523 227.356 241.152 229.528C239.563 230.984 241.927 233.337 243.51 231.887Z" fill="black"/>
<path d="M253.689 201.735C252.64 206.444 251.53 211.139 250.355 215.815C249.828 217.904 253.046 218.787 253.57 216.704C254.745 212.025 255.858 207.33 256.903 202.621C257.371 200.527 254.156 199.636 253.689 201.735Z" fill="black"/>
<path d="M254.313 180.244C253.567 178.248 250.344 179.112 251.098 181.13C252.789 185.666 251.922 190.605 253.321 195.213C253.942 197.264 257.163 196.389 256.536 194.325C255.139 189.721 256.015 184.799 254.313 180.244Z" fill="black"/>
<path d="M243.398 157.611C242.553 155.639 239.681 157.341 240.519 159.294C242.415 163.717 245.905 167.251 247.391 171.865C248.048 173.904 251.268 173.032 250.606 170.979C249.023 166.059 245.414 162.309 243.398 157.611Z" fill="black"/>
<path d="M230.912 143.133C228.811 142.734 227.914 145.946 230.026 146.348C233.222 146.959 235.159 151.378 236.272 154.077C237.08 156.039 240.308 155.18 239.487 153.191C237.931 149.409 235.402 143.99 230.912 143.133Z" fill="black"/>
<path d="M199.714 131.591C203.637 131.402 210.85 132.69 213.095 136.324C214.224 138.147 217.109 136.475 215.977 134.641C213.046 129.902 204.912 128.006 199.714 128.257C197.575 128.357 197.564 131.693 199.714 131.591Z" fill="black"/>
<path d="M220.941 136.266C219.05 135.243 217.367 138.12 219.258 139.146C220.631 139.892 221.795 140.864 222.997 141.851C224.645 143.201 227.02 140.856 225.356 139.492C223.937 138.33 222.56 137.144 220.941 136.266Z" fill="black"/>
<path d="M133.427 153.535C130.807 157.109 128.035 160.421 126.59 164.679C125.895 166.721 129.118 167.591 129.804 165.565C131.144 161.629 133.886 158.519 136.307 155.218C137.579 153.481 134.686 151.82 133.427 153.535Z" fill="black"/>
<path d="M148.886 139.119C145.201 142.129 141.09 144.425 138.25 148.35C136.986 150.095 139.882 151.757 141.13 150.033C143.748 146.419 147.843 144.255 151.245 141.478C152.911 140.116 150.537 137.771 148.886 139.119Z" fill="black"/>
<path d="M171.11 130.167C166.628 131.402 161.954 132.391 158.113 135.152C156.384 136.394 158.045 139.29 159.796 138.031C163.41 135.433 167.779 134.544 171.996 133.382C174.068 132.812 173.187 129.594 171.11 130.167Z" fill="black"/>
<path d="M190.891 128.311C187.496 127.841 184.003 127.323 180.742 128.681C178.786 129.497 179.642 132.726 181.628 131.899C184.338 130.77 187.171 131.134 190.005 131.529C192.107 131.821 193.015 128.606 190.891 128.311Z" fill="black"/>
<path d="M137.792 165.593C140.31 160.206 144.889 156.678 149.02 152.59C150.549 151.075 148.19 148.719 146.661 150.232C142.331 154.516 137.552 158.266 134.912 163.91C134.007 165.844 136.882 167.541 137.792 165.593Z" fill="black"/>
<path d="M155.316 148.884C157.958 146.45 160.946 144.623 164.241 143.216C166.214 142.373 164.514 139.501 162.558 140.336C159.001 141.857 155.802 143.905 152.957 146.525C151.374 147.987 153.738 150.34 155.316 148.884Z" fill="black"/>
<path d="M183.41 134.18C179.056 134.731 175.311 136.862 171.11 137.946C169.028 138.48 169.911 141.698 171.997 141.16C175.871 140.163 179.407 138.021 183.41 137.513C185.515 137.249 185.539 133.909 183.41 134.18Z" fill="black"/>
<path d="M200.898 135.728C197.324 135.028 193.553 134.728 190.006 135.728C187.939 136.311 188.82 139.529 190.894 138.943C193.85 138.108 197.03 138.359 200.012 138.943C202.111 139.356 203.008 136.141 200.898 135.728Z" fill="black"/>
<path d="M216.836 140.913C213.791 139.854 210.793 138.462 207.499 138.63C205.36 138.738 205.349 142.074 207.499 141.964C210.463 141.815 213.208 143.177 215.95 144.128C217.987 144.835 218.854 141.612 216.836 140.913Z" fill="black"/>
<path d="M220.768 146.67C225.139 150.314 229.331 154.142 233.368 158.157C234.891 159.675 237.252 157.316 235.723 155.798C231.69 151.784 227.497 147.956 223.126 144.311C221.486 142.944 219.114 145.292 220.768 146.67Z" fill="black"/>
<path d="M236.81 165.593C240.147 170.794 243.213 176.132 245.536 181.87C246.331 183.837 249.559 182.978 248.751 180.984C246.317 174.968 243.191 169.368 239.69 163.91C238.534 162.106 235.646 163.778 236.81 165.593Z" fill="black"/>
<path d="M247.02 188.912C249.054 194.112 247.928 199.38 247.02 204.7C246.661 206.804 249.876 207.704 250.238 205.586C251.24 199.71 252.483 193.775 250.238 188.026C249.462 186.045 246.237 186.907 247.02 188.912Z" fill="black"/>
<path d="M241.914 223.406C244.332 220.248 246.669 216.636 247.271 212.632C247.587 210.528 244.373 209.625 244.054 211.746C243.492 215.49 241.296 218.77 239.034 221.723C237.727 223.43 240.626 225.089 241.914 223.406Z" fill="black"/>
<path d="M237.47 228.214C238.646 226.404 235.758 224.734 234.591 226.531C231.068 231.958 225.74 235.038 219.654 236.88C217.601 237.502 218.476 240.722 220.54 240.098C227.48 237.996 233.464 234.387 237.47 228.214Z" fill="black"/>
<path d="M134.625 189.137C132.918 183.753 132.68 177.682 134.255 172.236C134.855 170.167 131.635 169.289 131.038 171.35C129.306 177.345 129.527 184.09 131.41 190.023C132.059 192.065 135.279 191.193 134.625 189.137Z" fill="black"/>
<path d="M139.989 212.995C141.486 214.546 143.842 212.185 142.348 210.637C138.668 206.825 138.055 201.641 136.107 196.921C135.299 194.962 132.071 195.819 132.89 197.807C135.083 203.124 135.845 208.7 139.989 212.995Z" fill="black"/>
<path d="M152.218 227.442C153.753 228.952 156.111 226.594 154.577 225.084C151.648 222.204 148.822 219.224 146.053 216.19C144.6 214.599 142.25 216.966 143.695 218.549C146.464 221.583 149.29 224.56 152.218 227.442Z" fill="black"/>
<path d="M170.075 238.312C172.225 238.42 172.214 235.086 170.075 234.975C166.219 234.781 163.915 231.95 161.249 229.537C159.657 228.097 157.294 230.448 158.89 231.896C162.313 234.992 165.179 238.063 170.075 238.312Z" fill="black"/>
<path d="M176.272 241.043C180.641 243.521 185.182 243.848 190.082 244.234C192.227 244.404 192.211 241.068 190.082 240.9C185.782 240.56 181.794 240.341 177.955 238.164C176.083 237.102 174.403 239.982 176.272 241.043Z" fill="black"/>
<path d="M212.689 244.235C214.837 244.397 214.821 241.06 212.689 240.901C207.375 240.501 202.056 241.195 196.755 240.531C194.627 240.261 194.651 243.6 196.755 243.864C202.056 244.532 207.375 243.835 212.689 244.235Z" fill="black"/>
<path d="M141.473 163.944C137.018 168.977 134.67 175.62 136.596 182.241C137.196 184.303 140.416 183.425 139.814 181.355C138.225 175.901 140.157 170.452 143.831 166.302C145.252 164.698 142.902 162.331 141.473 163.944Z" fill="black"/>
<path d="M145.577 202.447C142.681 198.124 140.617 193.391 140.987 188.096C141.139 185.948 137.802 185.962 137.654 188.096C137.243 193.929 139.502 199.362 142.697 204.13C143.889 205.907 146.779 204.238 145.577 202.447Z" fill="black"/>
<path d="M149.076 208.409C148.736 206.291 145.521 207.193 145.861 209.295C146.507 213.304 149.316 216.627 152.218 219.296C153.798 220.747 156.162 218.397 154.576 216.938C152.053 214.617 149.638 211.9 149.076 208.409Z" fill="black"/>
<path d="M162.56 228.448C164.5 229.334 166.196 226.459 164.243 225.568C161.993 224.541 160.131 222.753 158.913 220.608C157.848 218.738 154.969 220.419 156.033 222.291C157.508 224.884 159.831 227.202 162.56 228.448Z" fill="black"/>
<path d="M182.371 232.444C178.454 231.898 174.745 230.855 171.281 228.908C169.406 227.849 167.726 230.731 169.598 231.787C173.302 233.873 177.284 235.075 181.485 235.659C183.587 235.953 184.494 232.741 182.371 232.444Z" fill="black"/>
<path d="M188.125 236.228C191.764 237.962 195.665 239.216 199.712 239.421C201.862 239.529 201.851 236.193 199.712 236.085C196.286 235.912 192.891 234.815 189.808 233.348C187.876 232.43 186.183 235.304 188.125 236.228Z" fill="black"/>
<path d="M218.51 230.019C214.839 231.642 211.202 233.876 207.123 234.238C205 234.425 204.981 237.764 207.123 237.572C211.856 237.153 215.93 234.784 220.193 232.898C222.157 232.031 220.458 229.157 218.51 230.019Z" fill="black"/>
<path d="M227.199 229.3C231.376 225.972 235.968 222.789 237.632 217.448C238.275 215.39 235.055 214.515 234.418 216.562C232.967 221.214 228.463 224.056 224.841 226.942C223.16 228.282 225.535 230.627 227.199 229.3Z" fill="black"/>
<path d="M241.174 211.911C242.897 207.927 244.478 203.907 245.418 199.654C245.88 197.561 242.665 196.669 242.2 198.768C241.325 202.734 239.904 206.506 238.294 210.228C237.451 212.182 240.323 213.881 241.174 211.911Z" fill="black"/>
<path d="M243.2 194.099C244.869 189.571 242.092 185.518 241.779 181.056C241.628 178.924 238.291 178.911 238.442 181.056C238.726 185.057 241.444 189.252 239.985 193.212C239.239 195.233 242.462 196.098 243.2 194.099Z" fill="black"/>
<path d="M237.635 173.573C236.698 168.383 234.58 163.347 230.909 159.498C229.42 157.939 227.067 160.3 228.55 161.856C231.838 165.303 233.583 169.828 234.421 174.459C234.801 176.574 238.016 175.674 237.635 173.573Z" fill="black"/>
<path d="M211.873 148.942C216.017 150.385 218.978 153.918 221.882 157.036C223.352 158.614 225.705 156.25 224.241 154.677C220.891 151.082 217.522 147.383 212.759 145.725C210.722 145.017 209.855 148.24 211.873 148.942Z" fill="black"/>
<path d="M148.278 161.114C151.877 158.253 156.253 156.683 160.168 154.333C162.01 153.231 160.335 150.346 158.485 151.453C154.3 153.966 149.77 155.695 145.92 158.755C144.237 160.093 146.614 162.438 148.278 161.114Z" fill="black"/>
<path d="M176.369 143.441C171.96 143.452 167.179 144.411 163.702 147.264C162.04 148.631 164.412 150.976 166.06 149.623C168.8 147.375 172.938 146.786 176.369 146.775C178.52 146.772 178.52 143.436 176.369 143.441Z" fill="black"/>
<path d="M204.165 142.336C196.565 141.544 189.687 139.756 182.229 142.395C180.216 143.109 181.083 146.332 183.117 145.613C190.244 143.087 196.919 144.919 204.165 145.672C206.304 145.894 206.283 142.558 204.165 142.336Z" fill="black"/>
<path d="M154.436 159.806C149.373 160.489 146.083 166.754 144.378 170.974C143.573 172.97 146.799 173.829 147.593 171.863C148.89 168.651 151.496 163.537 155.322 163.021C157.445 162.737 156.538 159.522 154.436 159.806Z" fill="black"/>
<path d="M146.544 190.69C146.506 186.07 145.034 181.591 146.484 177.052C147.141 174.997 143.92 174.127 143.269 176.166C141.711 181.045 143.167 185.73 143.21 190.69C143.226 192.84 146.563 192.84 146.544 190.69Z" fill="black"/>
<path d="M154.95 206.563C152.078 203.64 149.411 200.522 149.139 196.254C149.001 194.12 145.667 194.106 145.805 196.254C146.137 201.468 149.047 205.312 152.591 208.922C154.101 210.456 156.457 208.098 154.95 206.563Z" fill="black"/>
<path d="M165.523 221.777C167.452 222.706 169.143 219.829 167.207 218.897C163.435 217.081 161.514 213.499 158.651 210.635C157.127 209.114 154.771 211.473 156.292 212.994C159.375 216.074 161.458 219.818 165.523 221.777Z" fill="black"/>
<path d="M173.309 225.482C178.136 228.06 183.231 229.867 188.529 231.21C190.615 231.736 191.501 228.519 189.415 227.992C184.393 226.722 179.571 225.047 174.992 222.602C173.095 221.589 171.412 224.469 173.309 225.482Z" fill="black"/>
<path d="M209.619 227.057C206.145 228.945 202.109 229.148 198.232 229.054C196.081 229 196.087 232.333 198.232 232.387C202.711 232.498 207.301 232.112 211.302 229.937C213.193 228.91 211.51 226.031 209.619 227.057Z" fill="black"/>
<path d="M230.058 214.506C231.047 212.599 228.17 210.913 227.178 212.823C224.995 217.035 221.508 220.636 217.058 222.433C215.091 223.227 215.948 226.452 217.944 225.647C223.212 223.521 227.446 219.545 230.058 214.506Z" fill="black"/>
<path d="M236.217 193.658C236.214 197.905 235.298 202.762 232.629 206.19C231.324 207.865 233.666 210.243 234.987 208.549C238.24 204.369 239.548 198.891 239.55 193.658C239.553 191.507 236.219 191.507 236.217 193.658Z" fill="black"/>
<path d="M235.473 186.988C235.656 181.936 235.251 176.338 232.28 172.064C231.061 170.314 228.171 171.978 229.4 173.748C232.055 177.567 232.304 182.482 232.139 186.988C232.058 189.141 235.394 189.133 235.473 186.988Z" fill="black"/>
<path d="M216.861 154.795C215.016 153.679 213.341 156.562 215.178 157.675C218.917 159.939 222.61 163.17 224.045 167.425C224.731 169.451 227.951 168.581 227.262 166.538C225.536 161.424 221.384 157.534 216.861 154.795Z" fill="black"/>
<path d="M198.601 150.861C202.797 150.837 205.922 153.076 209.618 154.711C211.566 155.57 213.262 152.698 211.301 151.831C207.024 149.937 203.453 147.5 198.601 147.527C196.451 147.538 196.451 150.872 198.601 150.861Z" fill="black"/>
<path d="M187.414 147.581C182.084 148.608 176.797 148.672 171.823 151.085C169.889 152.022 171.58 154.897 173.507 153.962C178.145 151.714 183.327 151.755 188.3 150.796C190.41 150.391 189.516 147.176 187.414 147.581Z" fill="black"/>
<path d="M162.928 155.9C161.604 156.521 160.385 157.234 159.221 158.123C157.538 159.412 159.197 162.31 160.904 161.003C162.069 160.114 163.287 159.401 164.611 158.779C166.556 157.864 164.862 154.989 162.928 155.9Z" fill="black"/>
<path d="M152.586 168.39C149.433 171.373 148.275 175.314 148.391 179.575C148.45 181.72 151.786 181.725 151.727 179.575C151.633 176.16 152.402 173.153 154.945 170.749C156.509 169.268 154.148 166.915 152.586 168.39Z" fill="black"/>
<path d="M156.057 197.289C153.739 194.431 152.275 190.279 153.521 186.683C154.228 184.646 151.005 183.779 150.306 185.797C148.652 190.562 150.66 195.901 153.699 199.648C155.055 201.317 157.4 198.943 156.057 197.289Z" fill="black"/>
<path d="M159.822 202.846C159.06 200.86 155.834 201.722 156.607 203.732C157.847 206.966 159.735 209.395 162.561 211.399C164.317 212.647 165.981 209.754 164.244 208.519C162.183 207.058 160.727 205.207 159.822 202.846Z" fill="black"/>
<path d="M176.673 219.347C178.683 220.123 179.544 216.897 177.559 216.133C174.995 215.141 172.761 213.445 170.546 211.853C168.795 210.594 167.134 213.49 168.863 214.733C171.345 216.516 173.806 218.24 176.673 219.347Z" fill="black"/>
<path d="M197.123 225.708C199.26 225.584 199.274 222.248 197.123 222.375C193.133 222.607 189.362 221.61 186.106 219.265C184.359 218.006 182.697 220.902 184.423 222.145C188.103 224.795 192.617 225.97 197.123 225.708Z" fill="black"/>
<path d="M215.211 217.676C212.037 220.507 208.109 220.95 204.089 221.693C201.976 222.085 202.873 225.3 204.975 224.911C209.662 224.041 213.898 223.309 217.569 220.034C219.177 218.6 216.81 216.25 215.211 217.676Z" fill="black"/>
<path d="M223.493 214.106C227.732 209.894 231.02 204.48 232.073 198.548C232.449 196.446 229.234 195.546 228.858 197.662C227.897 203.067 225.003 207.906 221.135 211.747C219.608 213.266 221.967 215.624 223.493 214.106Z" fill="black"/>
<path d="M227.012 181.877C228.287 185.602 227.642 189.625 228.865 193.364C229.53 195.398 232.75 194.528 232.08 192.478C230.862 188.75 231.505 184.727 230.227 180.991C229.535 178.967 226.315 179.837 227.012 181.877Z" fill="black"/>
<path d="M225.236 174.657C223.51 171.191 221.44 168.149 218.677 165.426C217.145 163.916 214.784 166.274 216.318 167.784C218.888 170.318 220.752 173.12 222.356 176.34C223.315 178.266 226.192 176.575 225.236 174.657Z" fill="black"/>
<path d="M203.861 153.884C201.792 153.279 200.914 156.499 202.975 157.099C206.287 158.069 209.319 159.909 211.504 162.599C212.86 164.272 215.202 161.897 213.862 160.244C211.334 157.129 207.681 155 203.861 153.884Z" fill="black"/>
<path d="M197.126 152.709C191.866 152.641 185.939 151.409 181.092 154.049C179.204 155.075 180.887 157.955 182.775 156.929C186.939 154.662 192.601 155.986 197.126 156.043C199.279 156.072 199.274 152.736 197.126 152.709Z" fill="black"/>
<path d="M174.813 156.479C168.729 158.589 163.086 160.542 159.366 166.14C158.172 167.936 161.06 169.603 162.246 167.823C165.431 163.028 170.523 161.49 175.699 159.694C177.72 158.994 176.85 155.771 174.813 156.479Z" fill="black"/>
<path d="M156.772 172.805C154.841 177.376 154.503 182.647 155.862 187.429C156.451 189.496 159.669 188.618 159.08 186.543C157.985 182.699 158.083 178.2 159.652 174.489C160.479 172.533 157.607 170.831 156.772 172.805Z" fill="black"/>
<path d="M165.694 199.52C163.833 197.402 162.698 195.081 161.677 192.474C160.902 190.494 157.676 191.356 158.462 193.36C159.697 196.518 161.083 199.312 163.336 201.878C164.76 203.496 167.107 201.127 165.694 199.52Z" fill="black"/>
<path d="M179.971 212.887C181.916 213.757 183.615 210.885 181.654 210.007C177.796 208.281 174.201 206.219 170.875 203.599C169.206 202.283 166.828 204.625 168.517 205.957C172.077 208.764 175.832 211.036 179.971 212.887Z" fill="black"/>
<path d="M198.162 214.655C194.72 215.62 191.294 214.247 187.931 213.542C185.834 213.105 184.94 216.32 187.045 216.76C191.046 217.595 194.96 219.016 199.048 217.87C201.117 217.292 200.236 214.075 198.162 214.655Z" fill="black"/>
<path d="M218.178 205.817C214.849 209.64 211.073 212.466 205.945 213.171C203.822 213.463 204.729 216.675 206.831 216.386C212.464 215.611 216.878 212.38 220.536 208.176C221.941 206.56 219.593 204.191 218.178 205.817Z" fill="black"/>
<path d="M222.649 201.908C225.41 197.318 225.57 192.188 225.1 186.984C224.908 184.861 221.571 184.842 221.766 186.984C222.179 191.588 222.228 196.14 219.77 200.225C218.659 202.073 221.542 203.747 222.649 201.908Z" fill="black"/>
<path d="M210.392 167.78C214.544 172.2 217.697 177.203 219.596 182.979C220.266 185.011 223.486 184.141 222.813 182.093C220.733 175.771 217.297 170.26 212.75 165.422C211.275 163.852 208.92 166.213 210.392 167.78Z" fill="black"/>
<path d="M188.897 157.586C186.793 158.026 187.684 161.238 189.783 160.8C194.63 159.79 199.436 160.56 203.353 163.707C205.014 165.039 207.389 162.697 205.711 161.349C200.803 157.407 195.016 156.308 188.897 157.586Z" fill="black"/>
<path d="M181.492 159.441C179.098 159.938 176.816 160.157 174.679 161.445C172.717 162.626 171.575 164.771 169.265 165.371C167.185 165.908 168.068 169.126 170.151 168.586C172.228 168.048 173.663 166.773 175.181 165.319C177.25 163.339 179.72 163.209 182.378 162.656C184.482 162.218 183.591 159.003 181.492 159.441Z" fill="black"/>
<path d="M164.186 170.58C161.727 174.522 159.793 178.247 161.052 182.981C161.606 185.058 164.823 184.177 164.269 182.094C163.254 178.285 165.115 175.389 167.066 172.264C168.206 170.432 165.32 168.76 164.186 170.58Z" fill="black"/>
<path d="M172.363 196.555C169.259 193.394 167.575 190.077 166.492 185.803C165.965 183.72 162.748 184.604 163.277 186.692C164.496 191.506 166.511 195.358 170.004 198.914C171.514 200.448 173.87 198.09 172.363 196.555Z" fill="black"/>
<path d="M177.01 204.729C181.216 207.244 185.09 209.932 190.007 210.826C192.109 211.207 193.008 207.995 190.893 207.609C186.26 206.766 182.656 204.218 178.693 201.849C176.842 200.741 175.168 203.626 177.01 204.729Z" fill="black"/>
<path d="M209.247 204.812C205.665 207.513 201.18 206.87 197.047 207.978C194.972 208.534 195.853 211.752 197.933 211.195C202.399 209.999 207.042 210.623 210.93 207.691C212.624 206.414 210.965 203.515 209.247 204.812Z" fill="black"/>
<path d="M215.833 191.805C216.023 195.495 214.134 198.275 212.357 201.338C211.273 203.202 214.156 204.88 215.236 203.021C217.317 199.439 219.389 196.103 219.17 191.805C219.059 189.665 215.723 189.654 215.833 191.805Z" fill="black"/>
<path d="M210.132 175.594C211.95 179.028 213.428 182.832 214.038 186.684C214.376 188.802 217.588 187.9 217.256 185.798C216.599 181.678 214.957 177.585 213.012 173.911C212.004 172.009 209.127 173.695 210.132 175.594Z" fill="black"/>
<path d="M197.224 162.573C195.306 161.616 193.615 164.493 195.541 165.452C199.064 167.206 202.589 168.886 205.58 171.49C207.193 172.898 209.562 170.548 207.938 169.132C204.715 166.328 201.02 164.464 197.224 162.573Z" fill="black"/>
<path d="M190.005 162.405C185.805 163.513 181.477 163.85 177.751 166.279C175.955 167.446 177.624 170.337 179.434 169.159C182.898 166.9 186.988 166.649 190.892 165.62C192.972 165.071 192.088 161.856 190.005 162.405Z" fill="black"/>
<path d="M171.967 171.695C169.238 175.439 167.328 180.01 169.374 184.495C170.265 186.448 173.137 184.754 172.253 182.812C170.773 179.565 172.967 175.958 174.847 173.378C176.117 171.636 173.22 169.974 171.967 171.695Z" fill="black"/>
<path d="M171.592 189.306C174.01 193.451 176.276 196.841 180.342 199.54C182.139 200.731 183.808 197.841 182.025 196.66C178.459 194.294 176.584 191.246 174.472 187.623C173.389 185.767 170.506 187.445 171.592 189.306Z" fill="black"/>
<path d="M188.696 201.113C186.799 200.103 185.114 202.98 187.013 203.993C191.273 206.265 195.088 205.66 199.713 205.333C201.844 205.182 201.858 201.845 199.713 201.996C195.787 202.277 192.34 203.055 188.696 201.113Z" fill="black"/>
<path d="M208.855 192.846C208.336 196.407 206.475 198.603 203.692 200.743C202.012 202.034 203.67 204.933 205.375 203.623C208.814 200.981 211.424 198.176 212.07 193.732C212.375 191.631 209.163 190.725 208.855 192.846Z" fill="black"/>
<path d="M205.888 179.653C206.931 182.425 208.252 185.069 208.052 188.103C207.912 190.251 211.245 190.237 211.389 188.103C211.607 184.748 210.259 181.836 209.103 178.767C208.355 176.773 205.129 177.637 205.888 179.653Z" fill="black"/>
<path d="M191.493 170.072C195.84 171.179 199.655 172.554 202.353 176.347C203.591 178.082 206.484 176.418 205.233 174.664C201.989 170.107 197.661 168.202 192.379 166.857C190.294 166.325 189.41 169.542 191.493 170.072Z" fill="black"/>
<path d="M185.161 169.247C180.347 171.368 175.825 173.661 174.39 179.137C173.844 181.22 177.062 182.101 177.605 180.024C178.794 175.488 182.919 173.856 186.844 172.127C188.808 171.262 187.109 168.388 185.161 169.247Z" fill="black"/>
<path d="M175.665 184.861C176.889 187.744 178.38 190.407 180.112 193.014C181.295 194.795 184.186 193.128 182.992 191.331C181.26 188.724 179.769 186.06 178.545 183.178C177.705 181.203 174.833 182.905 175.665 184.861Z" fill="black"/>
<path d="M186.301 197.118C189.008 197.785 191.777 198.174 194.452 198.971C196.518 199.587 197.396 196.367 195.34 195.753C192.663 194.959 189.894 194.57 187.187 193.903C185.099 193.387 184.213 196.604 186.301 197.118Z" fill="black"/>
<path d="M201.982 189.851C201.331 191.334 200.566 192.704 199.245 193.701C197.549 194.976 199.207 197.875 200.928 196.578C202.733 195.219 203.951 193.603 204.862 191.534C205.718 189.586 202.846 187.887 201.982 189.851Z" fill="black"/>
<path d="M196.85 173.315C195.077 172.086 193.413 174.979 195.166 176.195C198.203 178.299 199.813 181.916 200.27 185.501C200.537 187.603 203.876 187.63 203.603 185.501C202.985 180.647 200.959 176.162 196.85 173.315Z" fill="black"/>
<path d="M190.748 172.776C187.217 173.427 184.959 174.997 182.6 177.653C181.179 179.255 183.53 181.621 184.959 180.011C186.969 177.75 188.625 176.548 191.634 175.991C193.747 175.602 192.85 172.39 190.748 172.776Z" fill="black"/>
<path d="M185.818 183.648C185.815 181.498 182.479 181.498 182.484 183.648C182.487 185.747 183.03 187.663 183.654 189.651C184.294 191.696 187.515 190.821 186.869 188.762C186.337 187.063 185.821 185.45 185.818 183.648Z" fill="black"/>
<path d="M195.538 189.621C193.822 190.415 192.377 189.907 190.921 188.88C189.159 187.635 187.495 190.531 189.238 191.76C191.756 193.535 194.436 193.792 197.221 192.5C199.171 191.598 197.475 188.724 195.538 189.621Z" fill="black"/>
<path d="M192.976 181.127C194.387 182.391 194.778 184.487 193.827 186.146C192.757 188.015 195.64 189.696 196.707 187.829C198.366 184.933 197.847 181.021 195.335 178.768C193.738 177.336 191.372 179.687 192.976 181.127Z" fill="black"/>
<path d="M188.271 180.589C187.464 181.772 187.153 182.969 187.302 184.396C187.523 186.511 190.862 186.533 190.638 184.396C190.549 183.545 190.668 182.98 191.151 182.272C192.367 180.489 189.474 178.825 188.271 180.589Z" fill="black"/>
</svg>
